G04 #@! TF.GenerationSoftware,KiCad,Pcbnew,(6.0.0)*
G04 #@! TF.CreationDate,2022-03-13T10:48:28+07:00*
G04 #@! TF.ProjectId,lumberjack,6c756d62-6572-46a6-9163-6b2e6b696361,1.6*
G04 #@! TF.SameCoordinates,Original*
G04 #@! TF.FileFunction,Profile,NP*
%FSLAX46Y46*%
G04 Gerber Fmt 4.6, Leading zero omitted, Abs format (unit mm)*
G04 Created by KiCad (PCBNEW (6.0.0)) date 2022-03-13 10:48:28*
%MOMM*%
%LPD*%
G01*
G04 APERTURE LIST*
G04 #@! TA.AperFunction,Profile*
%ADD10C,0.200000*%
G04 #@! TD*
G04 APERTURE END LIST*
D10*
X238764395Y-149493750D02*
X66035606Y-149493750D01*
X294750000Y-147243750D02*
X294750000Y-57543750D01*
X272101893Y-55293750D02*
X261298106Y-55293750D01*
X292500000Y-149493750D02*
X247010606Y-149493750D01*
X163894429Y-56100201D02*
G75*
G03*
X162564394Y-55293750I-1330034J-693549D01*
G01*
X25781929Y-56100201D02*
G75*
G03*
X31368071Y-56100202I2793071J1456450D01*
G01*
X162564394Y-55293750D02*
X142235606Y-55293750D01*
X135319429Y-56100201D02*
G75*
G03*
X133989394Y-55293750I-1330034J-693549D01*
G01*
X57789395Y-149493750D02*
X12300000Y-149493750D01*
X135319429Y-56100201D02*
G75*
G03*
X140905571Y-56100202I2793071J1456450D01*
G01*
X32698106Y-55293750D02*
G75*
G03*
X31368072Y-56100202I1J-1500001D01*
G01*
X12300000Y-55293750D02*
G75*
G03*
X10050000Y-57543750I1J-2250001D01*
G01*
X133989395Y-55293750D02*
X51748105Y-55293750D01*
X25781929Y-56100201D02*
G75*
G03*
X24451894Y-55293750I-1330034J-693549D01*
G01*
X142235606Y-55293750D02*
G75*
G03*
X140905572Y-56100202I1J-1500001D01*
G01*
X253051895Y-55293750D02*
X170810606Y-55293750D01*
X163894429Y-56100201D02*
G75*
G03*
X169480571Y-56100202I2793071J1456450D01*
G01*
X254381929Y-56100201D02*
G75*
G03*
X259968071Y-56100202I2793071J1456450D01*
G01*
X254381929Y-56100201D02*
G75*
G03*
X253051894Y-55293750I-1330034J-693549D01*
G01*
X170810606Y-55293750D02*
G75*
G03*
X169480572Y-56100202I1J-1500001D01*
G01*
X10050000Y-147243750D02*
X10050000Y-57543750D01*
X294750000Y-57543750D02*
G75*
G03*
X292500000Y-55293750I-2250001J-1D01*
G01*
X64705572Y-148687298D02*
G75*
G03*
X66035606Y-149493750I1330035J693549D01*
G01*
X238764395Y-149493750D02*
G75*
G03*
X240094429Y-148687298I-1J1500001D01*
G01*
X245680572Y-148687298D02*
G75*
G03*
X247010606Y-149493750I1330035J693549D01*
G01*
X245680572Y-148687298D02*
G75*
G03*
X240094428Y-148687298I-2793072J-1456451D01*
G01*
X292500000Y-149493750D02*
G75*
G03*
X294750000Y-147243750I-1J2250001D01*
G01*
X261298106Y-55293750D02*
G75*
G03*
X259968072Y-56100202I1J-1500001D01*
G01*
X57789395Y-149493750D02*
G75*
G03*
X59119429Y-148687298I-1J1500001D01*
G01*
X64705572Y-148687298D02*
G75*
G03*
X59119428Y-148687298I-2793072J-1456451D01*
G01*
X10050000Y-147243750D02*
G75*
G03*
X12300000Y-149493750I2250001J1D01*
G01*
X43501894Y-55293750D02*
X32698106Y-55293750D01*
X24451895Y-55293750D02*
X12300000Y-55293750D01*
X51748105Y-55293750D02*
G75*
G03*
X50418071Y-56100202I1J-1500001D01*
G01*
X44831928Y-56100201D02*
G75*
G03*
X50418070Y-56100202I2793071J1456450D01*
G01*
X44831928Y-56100201D02*
G75*
G03*
X43501893Y-55293750I-1330034J-693549D01*
G01*
X292500000Y-55293750D02*
X280348105Y-55293750D01*
X280348105Y-55293750D02*
G75*
G03*
X279018071Y-56100202I1J-1500001D01*
G01*
X273431928Y-56100201D02*
G75*
G03*
X272101893Y-55293750I-1330034J-693549D01*
G01*
X273431928Y-56100201D02*
G75*
G03*
X279018070Y-56100202I2793071J1456450D01*
G01*
M02*
