G04 #@! TF.GenerationSoftware,KiCad,Pcbnew,(6.0.0)*
G04 #@! TF.CreationDate,2022-12-30T20:57:31+07:00*
G04 #@! TF.ProjectId,lumberjack,6c756d62-6572-46a6-9163-6b2e6b696361,1.6*
G04 #@! TF.SameCoordinates,Original*
G04 #@! TF.FileFunction,Legend,Top*
G04 #@! TF.FilePolarity,Positive*
%FSLAX46Y46*%
G04 Gerber Fmt 4.6, Leading zero omitted, Abs format (unit mm)*
G04 Created by KiCad (PCBNEW (6.0.0)) date 2022-12-30 20:57:31*
%MOMM*%
%LPD*%
G01*
G04 APERTURE LIST*
%ADD10C,0.100000*%
%ADD11C,0.150000*%
%ADD12C,0.203200*%
%ADD13C,0.120000*%
%ADD14C,1.600000*%
%ADD15R,1.800000X1.800000*%
%ADD16C,1.800000*%
%ADD17R,1.600000X1.600000*%
%ADD18O,1.600000X1.600000*%
%ADD19C,1.710000*%
%ADD20R,1.200000X1.200000*%
%ADD21C,1.200000*%
%ADD22C,2.000000*%
%ADD23C,5.000000*%
%ADD24O,11.600000X5.000000*%
%ADD25C,3.000000*%
%ADD26C,3.048000*%
%ADD27C,1.750000*%
%ADD28C,3.987800*%
%ADD29C,0.600000*%
%ADD30R,1.700000X1.700000*%
%ADD31O,1.700000X1.700000*%
%ADD32C,1.400000*%
%ADD33O,1.400000X1.400000*%
%ADD34C,1.500000*%
%ADD35C,4.100000*%
%ADD36C,1.900000*%
%ADD37O,0.700000X0.900000*%
%ADD38O,1.100000X1.100000*%
%ADD39O,0.700000X1.000000*%
%ADD40C,1.100000*%
%ADD41R,1.100000X1.100000*%
%ADD42O,0.900000X2.400000*%
%ADD43O,0.850000X2.000000*%
%ADD44O,0.900000X1.700000*%
%ADD45C,1.244600*%
G04 APERTURE END LIST*
D10*
X172457087Y-80685619D02*
X172380897Y-80647523D01*
X172266611Y-80647523D01*
X172152325Y-80685619D01*
X172076135Y-80761809D01*
X172038039Y-80837999D01*
X171999944Y-80990380D01*
X171999944Y-81104666D01*
X172038039Y-81257047D01*
X172076135Y-81333238D01*
X172152325Y-81409428D01*
X172266611Y-81447523D01*
X172342801Y-81447523D01*
X172457087Y-81409428D01*
X172495182Y-81371333D01*
X172495182Y-81104666D01*
X172342801Y-81104666D01*
X172838039Y-81447523D02*
X172838039Y-80647523D01*
X173295182Y-81447523D01*
X173295182Y-80647523D01*
X173676135Y-81447523D02*
X173676135Y-80647523D01*
X173866611Y-80647523D01*
X173980897Y-80685619D01*
X174057087Y-80761809D01*
X174095182Y-80837999D01*
X174133278Y-80990380D01*
X174133278Y-81104666D01*
X174095182Y-81257047D01*
X174057087Y-81333238D01*
X173980897Y-81409428D01*
X173866611Y-81447523D01*
X173676135Y-81447523D01*
X178659040Y-80647523D02*
X178925707Y-81447523D01*
X179192373Y-80647523D01*
X179916183Y-81371333D02*
X179878088Y-81409428D01*
X179763802Y-81447523D01*
X179687611Y-81447523D01*
X179573326Y-81409428D01*
X179497135Y-81333238D01*
X179459040Y-81257047D01*
X179420945Y-81104666D01*
X179420945Y-80990380D01*
X179459040Y-80837999D01*
X179497135Y-80761809D01*
X179573326Y-80685619D01*
X179687611Y-80647523D01*
X179763802Y-80647523D01*
X179878088Y-80685619D01*
X179916183Y-80723714D01*
X180716183Y-81371333D02*
X180678088Y-81409428D01*
X180563802Y-81447523D01*
X180487611Y-81447523D01*
X180373326Y-81409428D01*
X180297135Y-81333238D01*
X180259040Y-81257047D01*
X180220945Y-81104666D01*
X180220945Y-80990380D01*
X180259040Y-80837999D01*
X180297135Y-80761809D01*
X180373326Y-80685619D01*
X180487611Y-80647523D01*
X180563802Y-80647523D01*
X180678088Y-80685619D01*
X180716183Y-80723714D01*
X175038203Y-81447523D02*
X175038203Y-80647523D01*
X175304869Y-81218952D01*
X175571536Y-80647523D01*
X175571536Y-81447523D01*
X176104869Y-80647523D02*
X176257250Y-80647523D01*
X176333441Y-80685619D01*
X176409631Y-80761809D01*
X176447726Y-80914190D01*
X176447726Y-81180857D01*
X176409631Y-81333238D01*
X176333441Y-81409428D01*
X176257250Y-81447523D01*
X176104869Y-81447523D01*
X176028679Y-81409428D01*
X175952488Y-81333238D01*
X175914393Y-81180857D01*
X175914393Y-80914190D01*
X175952488Y-80761809D01*
X176028679Y-80685619D01*
X176104869Y-80647523D01*
X176752488Y-81409428D02*
X176866774Y-81447523D01*
X177057250Y-81447523D01*
X177133441Y-81409428D01*
X177171536Y-81371333D01*
X177209631Y-81295142D01*
X177209631Y-81218952D01*
X177171536Y-81142761D01*
X177133441Y-81104666D01*
X177057250Y-81066571D01*
X176904869Y-81028476D01*
X176828679Y-80990380D01*
X176790584Y-80952285D01*
X176752488Y-80876095D01*
X176752488Y-80799904D01*
X176790584Y-80723714D01*
X176828679Y-80685619D01*
X176904869Y-80647523D01*
X177095346Y-80647523D01*
X177209631Y-80685619D01*
X177552488Y-81447523D02*
X177552488Y-80647523D01*
X174942965Y-74265672D02*
X175057250Y-74303767D01*
X175247726Y-74303767D01*
X175323917Y-74265672D01*
X175362012Y-74227577D01*
X175400107Y-74151386D01*
X175400107Y-74075196D01*
X175362012Y-73999005D01*
X175323917Y-73960910D01*
X175247726Y-73922815D01*
X175095346Y-73884720D01*
X175019155Y-73846624D01*
X174981060Y-73808529D01*
X174942965Y-73732339D01*
X174942965Y-73656148D01*
X174981060Y-73579958D01*
X175019155Y-73541863D01*
X175095346Y-73503767D01*
X175285822Y-73503767D01*
X175400107Y-73541863D01*
X176200107Y-74227577D02*
X176162012Y-74265672D01*
X176047726Y-74303767D01*
X175971536Y-74303767D01*
X175857250Y-74265672D01*
X175781060Y-74189482D01*
X175742965Y-74113291D01*
X175704869Y-73960910D01*
X175704869Y-73846624D01*
X175742965Y-73694243D01*
X175781060Y-73618053D01*
X175857250Y-73541863D01*
X175971536Y-73503767D01*
X176047726Y-73503767D01*
X176162012Y-73541863D01*
X176200107Y-73579958D01*
X176923917Y-74303767D02*
X176542965Y-74303767D01*
X176542965Y-73503767D01*
X177190584Y-74303767D02*
X177190584Y-73503767D01*
X177647726Y-74303767D02*
X177304869Y-73846624D01*
X177647726Y-73503767D02*
X177190584Y-73960910D01*
X178773326Y-74303767D02*
X178773326Y-73503767D01*
X179039992Y-74075196D01*
X179306659Y-73503767D01*
X179306659Y-74303767D01*
X179687611Y-74303767D02*
X179687611Y-73503767D01*
X180030469Y-74265672D02*
X180144754Y-74303767D01*
X180335230Y-74303767D01*
X180411421Y-74265672D01*
X180449516Y-74227577D01*
X180487611Y-74151386D01*
X180487611Y-74075196D01*
X180449516Y-73999005D01*
X180411421Y-73960910D01*
X180335230Y-73922815D01*
X180182850Y-73884720D01*
X180106659Y-73846624D01*
X180068564Y-73808529D01*
X180030469Y-73732339D01*
X180030469Y-73656148D01*
X180068564Y-73579958D01*
X180106659Y-73541863D01*
X180182850Y-73503767D01*
X180373326Y-73503767D01*
X180487611Y-73541863D01*
X180982850Y-73503767D02*
X181135230Y-73503767D01*
X181211421Y-73541863D01*
X181287611Y-73618053D01*
X181325707Y-73770434D01*
X181325707Y-74037101D01*
X181287611Y-74189482D01*
X181211421Y-74265672D01*
X181135230Y-74303767D01*
X180982850Y-74303767D01*
X180906659Y-74265672D01*
X180830469Y-74189482D01*
X180792373Y-74037101D01*
X180792373Y-73770434D01*
X180830469Y-73618053D01*
X180906659Y-73541863D01*
X180982850Y-73503767D01*
D11*
X181679067Y-78502383D02*
X180679067Y-78502383D01*
X181631448Y-78073812D02*
X181679067Y-77930954D01*
X181679067Y-77692859D01*
X181631448Y-77597621D01*
X181583829Y-77550002D01*
X181488591Y-77502383D01*
X181393353Y-77502383D01*
X181298115Y-77550002D01*
X181250496Y-77597621D01*
X181202877Y-77692859D01*
X181155258Y-77883335D01*
X181107639Y-77978573D01*
X181060020Y-78026193D01*
X180964782Y-78073812D01*
X180869544Y-78073812D01*
X180774306Y-78026193D01*
X180726687Y-77978573D01*
X180679067Y-77883335D01*
X180679067Y-77645240D01*
X180726687Y-77502383D01*
X181679067Y-77073812D02*
X180679067Y-77073812D01*
X180679067Y-76692859D01*
X180726687Y-76597621D01*
X180774306Y-76550002D01*
X180869544Y-76502383D01*
X181012401Y-76502383D01*
X181107639Y-76550002D01*
X181155258Y-76597621D01*
X181202877Y-76692859D01*
X181202877Y-77073812D01*
D10*
X172761849Y-74303767D02*
X172495182Y-73922815D01*
X172304706Y-74303767D02*
X172304706Y-73503767D01*
X172609468Y-73503767D01*
X172685659Y-73541863D01*
X172723754Y-73579958D01*
X172761849Y-73656148D01*
X172761849Y-73770434D01*
X172723754Y-73846624D01*
X172685659Y-73884720D01*
X172609468Y-73922815D01*
X172304706Y-73922815D01*
X173066611Y-74265672D02*
X173180897Y-74303767D01*
X173371373Y-74303767D01*
X173447563Y-74265672D01*
X173485659Y-74227577D01*
X173523754Y-74151386D01*
X173523754Y-74075196D01*
X173485659Y-73999005D01*
X173447563Y-73960910D01*
X173371373Y-73922815D01*
X173218992Y-73884720D01*
X173142801Y-73846624D01*
X173104706Y-73808529D01*
X173066611Y-73732339D01*
X173066611Y-73656148D01*
X173104706Y-73579958D01*
X173142801Y-73541863D01*
X173218992Y-73503767D01*
X173409468Y-73503767D01*
X173523754Y-73541863D01*
X173752325Y-73503767D02*
X174209468Y-73503767D01*
X173980897Y-74303767D02*
X173980897Y-73503767D01*
D11*
X172326549Y-91431980D02*
X172374168Y-91479599D01*
X172421787Y-91622456D01*
X172421787Y-91717694D01*
X172374168Y-91860552D01*
X172278930Y-91955790D01*
X172183692Y-92003409D01*
X171993216Y-92051028D01*
X171850359Y-92051028D01*
X171659883Y-92003409D01*
X171564645Y-91955790D01*
X171469407Y-91860552D01*
X171421787Y-91717694D01*
X171421787Y-91622456D01*
X171469407Y-91479599D01*
X171517026Y-91431980D01*
X172421787Y-90479599D02*
X172421787Y-91051028D01*
X172421787Y-90765314D02*
X171421787Y-90765314D01*
X171564645Y-90860552D01*
X171659883Y-90955790D01*
X171707502Y-91051028D01*
X172326549Y-86074163D02*
X172374168Y-86121782D01*
X172421787Y-86264639D01*
X172421787Y-86359877D01*
X172374168Y-86502735D01*
X172278930Y-86597973D01*
X172183692Y-86645592D01*
X171993216Y-86693211D01*
X171850359Y-86693211D01*
X171659883Y-86645592D01*
X171564645Y-86597973D01*
X171469407Y-86502735D01*
X171421787Y-86359877D01*
X171421787Y-86264639D01*
X171469407Y-86121782D01*
X171517026Y-86074163D01*
X171517026Y-85693211D02*
X171469407Y-85645592D01*
X171421787Y-85550354D01*
X171421787Y-85312258D01*
X171469407Y-85217020D01*
X171517026Y-85169401D01*
X171612264Y-85121782D01*
X171707502Y-85121782D01*
X171850359Y-85169401D01*
X172421787Y-85740830D01*
X172421787Y-85121782D01*
X191908368Y-60773398D02*
X191908368Y-61249589D01*
X190908368Y-61249589D01*
X191384559Y-60440065D02*
X191384559Y-60106731D01*
X191908368Y-59963874D02*
X191908368Y-60440065D01*
X190908368Y-60440065D01*
X190908368Y-59963874D01*
X191908368Y-59535303D02*
X190908368Y-59535303D01*
X190908368Y-59297208D01*
X190955988Y-59154351D01*
X191051226Y-59059112D01*
X191146464Y-59011493D01*
X191336940Y-58963874D01*
X191479797Y-58963874D01*
X191670273Y-59011493D01*
X191765511Y-59059112D01*
X191860749Y-59154351D01*
X191908368Y-59297208D01*
X191908368Y-59535303D01*
X191003607Y-58582922D02*
X190955988Y-58535303D01*
X190908368Y-58440065D01*
X190908368Y-58201970D01*
X190955988Y-58106731D01*
X191003607Y-58059112D01*
X191098845Y-58011493D01*
X191194083Y-58011493D01*
X191336940Y-58059112D01*
X191908368Y-58630541D01*
X191908368Y-58011493D01*
X193448368Y-82442836D02*
X194257892Y-82442836D01*
X194353130Y-82395217D01*
X194400749Y-82347598D01*
X194448368Y-82252360D01*
X194448368Y-82061884D01*
X194400749Y-81966646D01*
X194353130Y-81919027D01*
X194257892Y-81871408D01*
X193448368Y-81871408D01*
X194448368Y-80871408D02*
X194448368Y-81442836D01*
X194448368Y-81157122D02*
X193448368Y-81157122D01*
X193591226Y-81252360D01*
X193686464Y-81347598D01*
X193734083Y-81442836D01*
X169762821Y-117764848D02*
X169429488Y-117764848D01*
X169429488Y-118288657D02*
X169429488Y-117288657D01*
X169905678Y-117288657D01*
X170810440Y-118288657D02*
X170239012Y-118288657D01*
X170524726Y-118288657D02*
X170524726Y-117288657D01*
X170429488Y-117431515D01*
X170334250Y-117526753D01*
X170239012Y-117574372D01*
X155157860Y-79156747D02*
X155157860Y-78156747D01*
X155395956Y-78156747D01*
X155538813Y-78204367D01*
X155634051Y-78299605D01*
X155681670Y-78394843D01*
X155729289Y-78585319D01*
X155729289Y-78728176D01*
X155681670Y-78918652D01*
X155634051Y-79013890D01*
X155538813Y-79109128D01*
X155395956Y-79156747D01*
X155157860Y-79156747D01*
X156110241Y-78251986D02*
X156157860Y-78204367D01*
X156253098Y-78156747D01*
X156491194Y-78156747D01*
X156586432Y-78204367D01*
X156634051Y-78251986D01*
X156681670Y-78347224D01*
X156681670Y-78442462D01*
X156634051Y-78585319D01*
X156062622Y-79156747D01*
X156681670Y-79156747D01*
X154562547Y-114875527D02*
X154562547Y-113875527D01*
X154800643Y-113875527D01*
X154943500Y-113923147D01*
X155038738Y-114018385D01*
X155086357Y-114113623D01*
X155133976Y-114304099D01*
X155133976Y-114446956D01*
X155086357Y-114637432D01*
X155038738Y-114732670D01*
X154943500Y-114827908D01*
X154800643Y-114875527D01*
X154562547Y-114875527D01*
X155991119Y-114208861D02*
X155991119Y-114875527D01*
X155753023Y-113827908D02*
X155514928Y-114542194D01*
X156133976Y-114542194D01*
X180756169Y-141355014D02*
X179756169Y-141355014D01*
X179756169Y-141116919D01*
X179803789Y-140974061D01*
X179899027Y-140878823D01*
X179994265Y-140831204D01*
X180184741Y-140783585D01*
X180327598Y-140783585D01*
X180518074Y-140831204D01*
X180613312Y-140878823D01*
X180708550Y-140974061D01*
X180756169Y-141116919D01*
X180756169Y-141355014D01*
X179756169Y-139878823D02*
X179756169Y-140355014D01*
X180232360Y-140402633D01*
X180184741Y-140355014D01*
X180137122Y-140259776D01*
X180137122Y-140021680D01*
X180184741Y-139926442D01*
X180232360Y-139878823D01*
X180327598Y-139831204D01*
X180565693Y-139831204D01*
X180660931Y-139878823D01*
X180708550Y-139926442D01*
X180756169Y-140021680D01*
X180756169Y-140259776D01*
X180708550Y-140355014D01*
X180660931Y-140402633D01*
X177779604Y-131234693D02*
X176779604Y-131234693D01*
X176779604Y-130996598D01*
X176827224Y-130853740D01*
X176922462Y-130758502D01*
X177017700Y-130710883D01*
X177208176Y-130663264D01*
X177351033Y-130663264D01*
X177541509Y-130710883D01*
X177636747Y-130758502D01*
X177731985Y-130853740D01*
X177779604Y-130996598D01*
X177779604Y-131234693D01*
X176779604Y-129806121D02*
X176779604Y-129996598D01*
X176827224Y-130091836D01*
X176874843Y-130139455D01*
X177017700Y-130234693D01*
X177208176Y-130282312D01*
X177589128Y-130282312D01*
X177684366Y-130234693D01*
X177731985Y-130187074D01*
X177779604Y-130091836D01*
X177779604Y-129901359D01*
X177731985Y-129806121D01*
X177684366Y-129758502D01*
X177589128Y-129710883D01*
X177351033Y-129710883D01*
X177255795Y-129758502D01*
X177208176Y-129806121D01*
X177160557Y-129901359D01*
X177160557Y-130091836D01*
X177208176Y-130187074D01*
X177255795Y-130234693D01*
X177351033Y-130282312D01*
X174803039Y-142426517D02*
X173803039Y-142426517D01*
X173803039Y-142188422D01*
X173850659Y-142045565D01*
X173945897Y-141950327D01*
X174041135Y-141902708D01*
X174231611Y-141855089D01*
X174374468Y-141855089D01*
X174564944Y-141902708D01*
X174660182Y-141950327D01*
X174755420Y-142045565D01*
X174803039Y-142188422D01*
X174803039Y-142426517D01*
X174803039Y-140902708D02*
X174803039Y-141474136D01*
X174803039Y-141188422D02*
X173803039Y-141188422D01*
X173945897Y-141283660D01*
X174041135Y-141378898D01*
X174088754Y-141474136D01*
X173898278Y-140521755D02*
X173850659Y-140474136D01*
X173803039Y-140378898D01*
X173803039Y-140140803D01*
X173850659Y-140045565D01*
X173898278Y-139997946D01*
X173993516Y-139950327D01*
X174088754Y-139950327D01*
X174231611Y-139997946D01*
X174803039Y-140569374D01*
X174803039Y-139950327D01*
X168849909Y-142426517D02*
X167849909Y-142426517D01*
X167849909Y-142188422D01*
X167897529Y-142045565D01*
X167992767Y-141950327D01*
X168088005Y-141902708D01*
X168278481Y-141855089D01*
X168421338Y-141855089D01*
X168611814Y-141902708D01*
X168707052Y-141950327D01*
X168802290Y-142045565D01*
X168849909Y-142188422D01*
X168849909Y-142426517D01*
X167945148Y-141474136D02*
X167897529Y-141426517D01*
X167849909Y-141331279D01*
X167849909Y-141093184D01*
X167897529Y-140997946D01*
X167945148Y-140950327D01*
X168040386Y-140902708D01*
X168135624Y-140902708D01*
X168278481Y-140950327D01*
X168849909Y-141521755D01*
X168849909Y-140902708D01*
X168183243Y-140045565D02*
X168849909Y-140045565D01*
X167802290Y-140283660D02*
X168516576Y-140521755D01*
X168516576Y-139902708D01*
X172921862Y-124114821D02*
X172969481Y-124162440D01*
X173017100Y-124305297D01*
X173017100Y-124400535D01*
X172969481Y-124543393D01*
X172874243Y-124638631D01*
X172779005Y-124686250D01*
X172588529Y-124733869D01*
X172445672Y-124733869D01*
X172255196Y-124686250D01*
X172159958Y-124638631D01*
X172064720Y-124543393D01*
X172017100Y-124400535D01*
X172017100Y-124305297D01*
X172064720Y-124162440D01*
X172112339Y-124114821D01*
X172017100Y-123781488D02*
X172017100Y-123162440D01*
X172398053Y-123495774D01*
X172398053Y-123352916D01*
X172445672Y-123257678D01*
X172493291Y-123210059D01*
X172588529Y-123162440D01*
X172826624Y-123162440D01*
X172921862Y-123210059D01*
X172969481Y-123257678D01*
X173017100Y-123352916D01*
X173017100Y-123638631D01*
X172969481Y-123733869D01*
X172921862Y-123781488D01*
X155157860Y-73203617D02*
X155157860Y-72203617D01*
X155395956Y-72203617D01*
X155538813Y-72251237D01*
X155634051Y-72346475D01*
X155681670Y-72441713D01*
X155729289Y-72632189D01*
X155729289Y-72775046D01*
X155681670Y-72965522D01*
X155634051Y-73060760D01*
X155538813Y-73155998D01*
X155395956Y-73203617D01*
X155157860Y-73203617D01*
X156681670Y-73203617D02*
X156110241Y-73203617D01*
X156395956Y-73203617D02*
X156395956Y-72203617D01*
X156300717Y-72346475D01*
X156205479Y-72441713D01*
X156110241Y-72489332D01*
X172160107Y-101195533D02*
X172207726Y-101052676D01*
X172207726Y-100814580D01*
X172160107Y-100719342D01*
X172112488Y-100671723D01*
X172017250Y-100624104D01*
X171922012Y-100624104D01*
X171826774Y-100671723D01*
X171779155Y-100719342D01*
X171731536Y-100814580D01*
X171683917Y-101005057D01*
X171636298Y-101100295D01*
X171588679Y-101147914D01*
X171493441Y-101195533D01*
X171398203Y-101195533D01*
X171302965Y-101147914D01*
X171255346Y-101100295D01*
X171207726Y-101005057D01*
X171207726Y-100766961D01*
X171255346Y-100624104D01*
X171207726Y-100290771D02*
X172207726Y-100052676D01*
X171493441Y-99862200D01*
X172207726Y-99671723D01*
X171207726Y-99433628D01*
X171302965Y-99100295D02*
X171255346Y-99052676D01*
X171207726Y-98957438D01*
X171207726Y-98719342D01*
X171255346Y-98624104D01*
X171302965Y-98576485D01*
X171398203Y-98528866D01*
X171493441Y-98528866D01*
X171636298Y-98576485D01*
X172207726Y-99147914D01*
X172207726Y-98528866D01*
X196234307Y-142426517D02*
X195234307Y-142426517D01*
X195234307Y-142188422D01*
X195281927Y-142045565D01*
X195377165Y-141950327D01*
X195472403Y-141902708D01*
X195662879Y-141855089D01*
X195805736Y-141855089D01*
X195996212Y-141902708D01*
X196091450Y-141950327D01*
X196186688Y-142045565D01*
X196234307Y-142188422D01*
X196234307Y-142426517D01*
X195234307Y-140950327D02*
X195234307Y-141426517D01*
X195710498Y-141474136D01*
X195662879Y-141426517D01*
X195615260Y-141331279D01*
X195615260Y-141093184D01*
X195662879Y-140997946D01*
X195710498Y-140950327D01*
X195805736Y-140902708D01*
X196043831Y-140902708D01*
X196139069Y-140950327D01*
X196186688Y-140997946D01*
X196234307Y-141093184D01*
X196234307Y-141331279D01*
X196186688Y-141426517D01*
X196139069Y-141474136D01*
X195567641Y-140045565D02*
X196234307Y-140045565D01*
X195186688Y-140283660D02*
X195900974Y-140521755D01*
X195900974Y-139902708D01*
X173017100Y-60773398D02*
X173017100Y-61249589D01*
X172017100Y-61249589D01*
X172493291Y-60440065D02*
X172493291Y-60106731D01*
X173017100Y-59963874D02*
X173017100Y-60440065D01*
X172017100Y-60440065D01*
X172017100Y-59963874D01*
X173017100Y-59535303D02*
X172017100Y-59535303D01*
X172017100Y-59297208D01*
X172064720Y-59154351D01*
X172159958Y-59059112D01*
X172255196Y-59011493D01*
X172445672Y-58963874D01*
X172588529Y-58963874D01*
X172779005Y-59011493D01*
X172874243Y-59059112D01*
X172969481Y-59154351D01*
X173017100Y-59297208D01*
X173017100Y-59535303D01*
X173017100Y-58011493D02*
X173017100Y-58582922D01*
X173017100Y-58297208D02*
X172017100Y-58297208D01*
X172159958Y-58392446D01*
X172255196Y-58487684D01*
X172302815Y-58582922D01*
X154086357Y-126781787D02*
X154086357Y-125781787D01*
X154324452Y-125781787D01*
X154467309Y-125829407D01*
X154562547Y-125924645D01*
X154610166Y-126019883D01*
X154657785Y-126210359D01*
X154657785Y-126353216D01*
X154610166Y-126543692D01*
X154562547Y-126638930D01*
X154467309Y-126734168D01*
X154324452Y-126781787D01*
X154086357Y-126781787D01*
X155038738Y-125877026D02*
X155086357Y-125829407D01*
X155181595Y-125781787D01*
X155419690Y-125781787D01*
X155514928Y-125829407D01*
X155562547Y-125877026D01*
X155610166Y-125972264D01*
X155610166Y-126067502D01*
X155562547Y-126210359D01*
X154991119Y-126781787D01*
X155610166Y-126781787D01*
X155943500Y-125781787D02*
X156562547Y-125781787D01*
X156229214Y-126162740D01*
X156372071Y-126162740D01*
X156467309Y-126210359D01*
X156514928Y-126257978D01*
X156562547Y-126353216D01*
X156562547Y-126591311D01*
X156514928Y-126686549D01*
X156467309Y-126734168D01*
X156372071Y-126781787D01*
X156086357Y-126781787D01*
X155991119Y-126734168D01*
X155943500Y-126686549D01*
X154086357Y-120828657D02*
X154086357Y-119828657D01*
X154324452Y-119828657D01*
X154467309Y-119876277D01*
X154562547Y-119971515D01*
X154610166Y-120066753D01*
X154657785Y-120257229D01*
X154657785Y-120400086D01*
X154610166Y-120590562D01*
X154562547Y-120685800D01*
X154467309Y-120781038D01*
X154324452Y-120828657D01*
X154086357Y-120828657D01*
X155610166Y-120828657D02*
X155038738Y-120828657D01*
X155324452Y-120828657D02*
X155324452Y-119828657D01*
X155229214Y-119971515D01*
X155133976Y-120066753D01*
X155038738Y-120114372D01*
X156562547Y-120828657D02*
X155991119Y-120828657D01*
X156276833Y-120828657D02*
X156276833Y-119828657D01*
X156181595Y-119971515D01*
X156086357Y-120066753D01*
X155991119Y-120114372D01*
X165397304Y-111898962D02*
X165397304Y-110898962D01*
X165635399Y-110898962D01*
X165778256Y-110946582D01*
X165873494Y-111041820D01*
X165921113Y-111137058D01*
X165968732Y-111327534D01*
X165968732Y-111470391D01*
X165921113Y-111660867D01*
X165873494Y-111756105D01*
X165778256Y-111851343D01*
X165635399Y-111898962D01*
X165397304Y-111898962D01*
X166349685Y-110994201D02*
X166397304Y-110946582D01*
X166492542Y-110898962D01*
X166730637Y-110898962D01*
X166825875Y-110946582D01*
X166873494Y-110994201D01*
X166921113Y-111089439D01*
X166921113Y-111184677D01*
X166873494Y-111327534D01*
X166302066Y-111898962D01*
X166921113Y-111898962D01*
X167492542Y-111327534D02*
X167397304Y-111279915D01*
X167349685Y-111232296D01*
X167302066Y-111137058D01*
X167302066Y-111089439D01*
X167349685Y-110994201D01*
X167397304Y-110946582D01*
X167492542Y-110898962D01*
X167683018Y-110898962D01*
X167778256Y-110946582D01*
X167825875Y-110994201D01*
X167873494Y-111089439D01*
X167873494Y-111137058D01*
X167825875Y-111232296D01*
X167778256Y-111279915D01*
X167683018Y-111327534D01*
X167492542Y-111327534D01*
X167397304Y-111375153D01*
X167349685Y-111422772D01*
X167302066Y-111518010D01*
X167302066Y-111708486D01*
X167349685Y-111803724D01*
X167397304Y-111851343D01*
X167492542Y-111898962D01*
X167683018Y-111898962D01*
X167778256Y-111851343D01*
X167825875Y-111803724D01*
X167873494Y-111708486D01*
X167873494Y-111518010D01*
X167825875Y-111422772D01*
X167778256Y-111375153D01*
X167683018Y-111327534D01*
X154086357Y-108922397D02*
X154086357Y-107922397D01*
X154324452Y-107922397D01*
X154467309Y-107970017D01*
X154562547Y-108065255D01*
X154610166Y-108160493D01*
X154657785Y-108350969D01*
X154657785Y-108493826D01*
X154610166Y-108684302D01*
X154562547Y-108779540D01*
X154467309Y-108874778D01*
X154324452Y-108922397D01*
X154086357Y-108922397D01*
X155038738Y-108017636D02*
X155086357Y-107970017D01*
X155181595Y-107922397D01*
X155419690Y-107922397D01*
X155514928Y-107970017D01*
X155562547Y-108017636D01*
X155610166Y-108112874D01*
X155610166Y-108208112D01*
X155562547Y-108350969D01*
X154991119Y-108922397D01*
X155610166Y-108922397D01*
X155991119Y-108017636D02*
X156038738Y-107970017D01*
X156133976Y-107922397D01*
X156372071Y-107922397D01*
X156467309Y-107970017D01*
X156514928Y-108017636D01*
X156562547Y-108112874D01*
X156562547Y-108208112D01*
X156514928Y-108350969D01*
X155943500Y-108922397D01*
X156562547Y-108922397D01*
X165397304Y-105945832D02*
X165397304Y-104945832D01*
X165635399Y-104945832D01*
X165778256Y-104993452D01*
X165873494Y-105088690D01*
X165921113Y-105183928D01*
X165968732Y-105374404D01*
X165968732Y-105517261D01*
X165921113Y-105707737D01*
X165873494Y-105802975D01*
X165778256Y-105898213D01*
X165635399Y-105945832D01*
X165397304Y-105945832D01*
X166921113Y-105945832D02*
X166349685Y-105945832D01*
X166635399Y-105945832D02*
X166635399Y-104945832D01*
X166540161Y-105088690D01*
X166444923Y-105183928D01*
X166349685Y-105231547D01*
X167778256Y-104945832D02*
X167587780Y-104945832D01*
X167492542Y-104993452D01*
X167444923Y-105041071D01*
X167349685Y-105183928D01*
X167302066Y-105374404D01*
X167302066Y-105755356D01*
X167349685Y-105850594D01*
X167397304Y-105898213D01*
X167492542Y-105945832D01*
X167683018Y-105945832D01*
X167778256Y-105898213D01*
X167825875Y-105850594D01*
X167873494Y-105755356D01*
X167873494Y-105517261D01*
X167825875Y-105422023D01*
X167778256Y-105374404D01*
X167683018Y-105326785D01*
X167492542Y-105326785D01*
X167397304Y-105374404D01*
X167349685Y-105422023D01*
X167302066Y-105517261D01*
X165397304Y-117852092D02*
X165397304Y-116852092D01*
X165635399Y-116852092D01*
X165778256Y-116899712D01*
X165873494Y-116994950D01*
X165921113Y-117090188D01*
X165968732Y-117280664D01*
X165968732Y-117423521D01*
X165921113Y-117613997D01*
X165873494Y-117709235D01*
X165778256Y-117804473D01*
X165635399Y-117852092D01*
X165397304Y-117852092D01*
X166921113Y-117852092D02*
X166349685Y-117852092D01*
X166635399Y-117852092D02*
X166635399Y-116852092D01*
X166540161Y-116994950D01*
X166444923Y-117090188D01*
X166349685Y-117137807D01*
X167540161Y-116852092D02*
X167635399Y-116852092D01*
X167730637Y-116899712D01*
X167778256Y-116947331D01*
X167825875Y-117042569D01*
X167873494Y-117233045D01*
X167873494Y-117471140D01*
X167825875Y-117661616D01*
X167778256Y-117756854D01*
X167730637Y-117804473D01*
X167635399Y-117852092D01*
X167540161Y-117852092D01*
X167444923Y-117804473D01*
X167397304Y-117756854D01*
X167349685Y-117661616D01*
X167302066Y-117471140D01*
X167302066Y-117233045D01*
X167349685Y-117042569D01*
X167397304Y-116947331D01*
X167444923Y-116899712D01*
X167540161Y-116852092D01*
X165397304Y-94039572D02*
X165397304Y-93039572D01*
X165635399Y-93039572D01*
X165778256Y-93087192D01*
X165873494Y-93182430D01*
X165921113Y-93277668D01*
X165968732Y-93468144D01*
X165968732Y-93611001D01*
X165921113Y-93801477D01*
X165873494Y-93896715D01*
X165778256Y-93991953D01*
X165635399Y-94039572D01*
X165397304Y-94039572D01*
X166349685Y-93134811D02*
X166397304Y-93087192D01*
X166492542Y-93039572D01*
X166730637Y-93039572D01*
X166825875Y-93087192D01*
X166873494Y-93134811D01*
X166921113Y-93230049D01*
X166921113Y-93325287D01*
X166873494Y-93468144D01*
X166302066Y-94039572D01*
X166921113Y-94039572D01*
X167254447Y-93039572D02*
X167921113Y-93039572D01*
X167492542Y-94039572D01*
X154086357Y-91063007D02*
X154086357Y-90063007D01*
X154324452Y-90063007D01*
X154467309Y-90110627D01*
X154562547Y-90205865D01*
X154610166Y-90301103D01*
X154657785Y-90491579D01*
X154657785Y-90634436D01*
X154610166Y-90824912D01*
X154562547Y-90920150D01*
X154467309Y-91015388D01*
X154324452Y-91063007D01*
X154086357Y-91063007D01*
X155038738Y-90158246D02*
X155086357Y-90110627D01*
X155181595Y-90063007D01*
X155419690Y-90063007D01*
X155514928Y-90110627D01*
X155562547Y-90158246D01*
X155610166Y-90253484D01*
X155610166Y-90348722D01*
X155562547Y-90491579D01*
X154991119Y-91063007D01*
X155610166Y-91063007D01*
X156562547Y-91063007D02*
X155991119Y-91063007D01*
X156276833Y-91063007D02*
X156276833Y-90063007D01*
X156181595Y-90205865D01*
X156086357Y-90301103D01*
X155991119Y-90348722D01*
X152776608Y-99992702D02*
X152776608Y-98992702D01*
X153014704Y-98992702D01*
X153157561Y-99040322D01*
X153252799Y-99135560D01*
X153300418Y-99230798D01*
X153348037Y-99421274D01*
X153348037Y-99564131D01*
X153300418Y-99754607D01*
X153252799Y-99849845D01*
X153157561Y-99945083D01*
X153014704Y-99992702D01*
X152776608Y-99992702D01*
X153824227Y-99992702D02*
X154014704Y-99992702D01*
X154109942Y-99945083D01*
X154157561Y-99897464D01*
X154252799Y-99754607D01*
X154300418Y-99564131D01*
X154300418Y-99183179D01*
X154252799Y-99087941D01*
X154205180Y-99040322D01*
X154109942Y-98992702D01*
X153919465Y-98992702D01*
X153824227Y-99040322D01*
X153776608Y-99087941D01*
X153728989Y-99183179D01*
X153728989Y-99421274D01*
X153776608Y-99516512D01*
X153824227Y-99564131D01*
X153919465Y-99611750D01*
X154109942Y-99611750D01*
X154205180Y-99564131D01*
X154252799Y-99516512D01*
X154300418Y-99421274D01*
X165397304Y-88086442D02*
X165397304Y-87086442D01*
X165635399Y-87086442D01*
X165778256Y-87134062D01*
X165873494Y-87229300D01*
X165921113Y-87324538D01*
X165968732Y-87515014D01*
X165968732Y-87657871D01*
X165921113Y-87848347D01*
X165873494Y-87943585D01*
X165778256Y-88038823D01*
X165635399Y-88086442D01*
X165397304Y-88086442D01*
X166349685Y-87181681D02*
X166397304Y-87134062D01*
X166492542Y-87086442D01*
X166730637Y-87086442D01*
X166825875Y-87134062D01*
X166873494Y-87181681D01*
X166921113Y-87276919D01*
X166921113Y-87372157D01*
X166873494Y-87515014D01*
X166302066Y-88086442D01*
X166921113Y-88086442D01*
X167540161Y-87086442D02*
X167635399Y-87086442D01*
X167730637Y-87134062D01*
X167778256Y-87181681D01*
X167825875Y-87276919D01*
X167873494Y-87467395D01*
X167873494Y-87705490D01*
X167825875Y-87895966D01*
X167778256Y-87991204D01*
X167730637Y-88038823D01*
X167635399Y-88086442D01*
X167540161Y-88086442D01*
X167444923Y-88038823D01*
X167397304Y-87991204D01*
X167349685Y-87895966D01*
X167302066Y-87705490D01*
X167302066Y-87467395D01*
X167349685Y-87276919D01*
X167397304Y-87181681D01*
X167444923Y-87134062D01*
X167540161Y-87086442D01*
X154086357Y-85109877D02*
X154086357Y-84109877D01*
X154324452Y-84109877D01*
X154467309Y-84157497D01*
X154562547Y-84252735D01*
X154610166Y-84347973D01*
X154657785Y-84538449D01*
X154657785Y-84681306D01*
X154610166Y-84871782D01*
X154562547Y-84967020D01*
X154467309Y-85062258D01*
X154324452Y-85109877D01*
X154086357Y-85109877D01*
X155610166Y-85109877D02*
X155038738Y-85109877D01*
X155324452Y-85109877D02*
X155324452Y-84109877D01*
X155229214Y-84252735D01*
X155133976Y-84347973D01*
X155038738Y-84395592D01*
X156467309Y-84443211D02*
X156467309Y-85109877D01*
X156229214Y-84062258D02*
X155991119Y-84776544D01*
X156610166Y-84776544D01*
X165278181Y-82133312D02*
X165278181Y-81133312D01*
X165516277Y-81133312D01*
X165659134Y-81180932D01*
X165754372Y-81276170D01*
X165801991Y-81371408D01*
X165849610Y-81561884D01*
X165849610Y-81704741D01*
X165801991Y-81895217D01*
X165754372Y-81990455D01*
X165659134Y-82085693D01*
X165516277Y-82133312D01*
X165278181Y-82133312D01*
X166421038Y-81561884D02*
X166325800Y-81514265D01*
X166278181Y-81466646D01*
X166230562Y-81371408D01*
X166230562Y-81323789D01*
X166278181Y-81228551D01*
X166325800Y-81180932D01*
X166421038Y-81133312D01*
X166611515Y-81133312D01*
X166706753Y-81180932D01*
X166754372Y-81228551D01*
X166801991Y-81323789D01*
X166801991Y-81371408D01*
X166754372Y-81466646D01*
X166706753Y-81514265D01*
X166611515Y-81561884D01*
X166421038Y-81561884D01*
X166325800Y-81609503D01*
X166278181Y-81657122D01*
X166230562Y-81752360D01*
X166230562Y-81942836D01*
X166278181Y-82038074D01*
X166325800Y-82085693D01*
X166421038Y-82133312D01*
X166611515Y-82133312D01*
X166706753Y-82085693D01*
X166754372Y-82038074D01*
X166801991Y-81942836D01*
X166801991Y-81752360D01*
X166754372Y-81657122D01*
X166706753Y-81609503D01*
X166611515Y-81561884D01*
X207664527Y-73203617D02*
X207664527Y-72203617D01*
X207902622Y-72203617D01*
X208045479Y-72251237D01*
X208140717Y-72346475D01*
X208188336Y-72441713D01*
X208235955Y-72632189D01*
X208235955Y-72775046D01*
X208188336Y-72965522D01*
X208140717Y-73060760D01*
X208045479Y-73155998D01*
X207902622Y-73203617D01*
X207664527Y-73203617D01*
X208569289Y-72203617D02*
X209188336Y-72203617D01*
X208855003Y-72584570D01*
X208997860Y-72584570D01*
X209093098Y-72632189D01*
X209140717Y-72679808D01*
X209188336Y-72775046D01*
X209188336Y-73013141D01*
X209140717Y-73108379D01*
X209093098Y-73155998D01*
X208997860Y-73203617D01*
X208712146Y-73203617D01*
X208616908Y-73155998D01*
X208569289Y-73108379D01*
X210140717Y-73203617D02*
X209569289Y-73203617D01*
X209855003Y-73203617D02*
X209855003Y-72203617D01*
X209759765Y-72346475D01*
X209664527Y-72441713D01*
X209569289Y-72489332D01*
X165278181Y-70227052D02*
X165278181Y-69227052D01*
X165516277Y-69227052D01*
X165659134Y-69274672D01*
X165754372Y-69369910D01*
X165801991Y-69465148D01*
X165849610Y-69655624D01*
X165849610Y-69798481D01*
X165801991Y-69988957D01*
X165754372Y-70084195D01*
X165659134Y-70179433D01*
X165516277Y-70227052D01*
X165278181Y-70227052D01*
X166182943Y-69227052D02*
X166849610Y-69227052D01*
X166421038Y-70227052D01*
X196353580Y-70227052D02*
X196353580Y-69227052D01*
X196591675Y-69227052D01*
X196734532Y-69274672D01*
X196829770Y-69369910D01*
X196877389Y-69465148D01*
X196925008Y-69655624D01*
X196925008Y-69798481D01*
X196877389Y-69988957D01*
X196829770Y-70084195D01*
X196734532Y-70179433D01*
X196591675Y-70227052D01*
X196353580Y-70227052D01*
X197258342Y-69227052D02*
X197877389Y-69227052D01*
X197544056Y-69608005D01*
X197686913Y-69608005D01*
X197782151Y-69655624D01*
X197829770Y-69703243D01*
X197877389Y-69798481D01*
X197877389Y-70036576D01*
X197829770Y-70131814D01*
X197782151Y-70179433D01*
X197686913Y-70227052D01*
X197401199Y-70227052D01*
X197305961Y-70179433D01*
X197258342Y-70131814D01*
X198210723Y-69227052D02*
X198877389Y-69227052D01*
X198448818Y-70227052D01*
X164801991Y-64273922D02*
X164801991Y-63273922D01*
X165040086Y-63273922D01*
X165182943Y-63321542D01*
X165278181Y-63416780D01*
X165325800Y-63512018D01*
X165373419Y-63702494D01*
X165373419Y-63845351D01*
X165325800Y-64035827D01*
X165278181Y-64131065D01*
X165182943Y-64226303D01*
X165040086Y-64273922D01*
X164801991Y-64273922D01*
X166325800Y-64273922D02*
X165754372Y-64273922D01*
X166040086Y-64273922D02*
X166040086Y-63273922D01*
X165944848Y-63416780D01*
X165849610Y-63512018D01*
X165754372Y-63559637D01*
X166801991Y-64273922D02*
X166992467Y-64273922D01*
X167087705Y-64226303D01*
X167135324Y-64178684D01*
X167230562Y-64035827D01*
X167278181Y-63845351D01*
X167278181Y-63464399D01*
X167230562Y-63369161D01*
X167182943Y-63321542D01*
X167087705Y-63273922D01*
X166897229Y-63273922D01*
X166801991Y-63321542D01*
X166754372Y-63369161D01*
X166706753Y-63464399D01*
X166706753Y-63702494D01*
X166754372Y-63797732D01*
X166801991Y-63845351D01*
X166897229Y-63892970D01*
X167087705Y-63892970D01*
X167182943Y-63845351D01*
X167230562Y-63797732D01*
X167278181Y-63702494D01*
X193257742Y-131115570D02*
X192257742Y-131115570D01*
X192257742Y-130877475D01*
X192305362Y-130734618D01*
X192400600Y-130639380D01*
X192495838Y-130591761D01*
X192686314Y-130544142D01*
X192829171Y-130544142D01*
X193019647Y-130591761D01*
X193114885Y-130639380D01*
X193210123Y-130734618D01*
X193257742Y-130877475D01*
X193257742Y-131115570D01*
X192591076Y-129686999D02*
X193257742Y-129686999D01*
X192210123Y-129925094D02*
X192924409Y-130163189D01*
X192924409Y-129544142D01*
X192686314Y-129020332D02*
X192638695Y-129115570D01*
X192591076Y-129163189D01*
X192495838Y-129210808D01*
X192448219Y-129210808D01*
X192352981Y-129163189D01*
X192305362Y-129115570D01*
X192257742Y-129020332D01*
X192257742Y-128829856D01*
X192305362Y-128734618D01*
X192352981Y-128686999D01*
X192448219Y-128639380D01*
X192495838Y-128639380D01*
X192591076Y-128686999D01*
X192638695Y-128734618D01*
X192686314Y-128829856D01*
X192686314Y-129020332D01*
X192733933Y-129115570D01*
X192781552Y-129163189D01*
X192876790Y-129210808D01*
X193067266Y-129210808D01*
X193162504Y-129163189D01*
X193210123Y-129115570D01*
X193257742Y-129020332D01*
X193257742Y-128829856D01*
X193210123Y-128734618D01*
X193162504Y-128686999D01*
X193067266Y-128639380D01*
X192876790Y-128639380D01*
X192781552Y-128686999D01*
X192733933Y-128734618D01*
X192686314Y-128829856D01*
X172160107Y-69643944D02*
X172207726Y-69501087D01*
X172207726Y-69262991D01*
X172160107Y-69167753D01*
X172112488Y-69120134D01*
X172017250Y-69072515D01*
X171922012Y-69072515D01*
X171826774Y-69120134D01*
X171779155Y-69167753D01*
X171731536Y-69262991D01*
X171683917Y-69453468D01*
X171636298Y-69548706D01*
X171588679Y-69596325D01*
X171493441Y-69643944D01*
X171398203Y-69643944D01*
X171302965Y-69596325D01*
X171255346Y-69548706D01*
X171207726Y-69453468D01*
X171207726Y-69215372D01*
X171255346Y-69072515D01*
X171207726Y-68739182D02*
X172207726Y-68501087D01*
X171493441Y-68310611D01*
X172207726Y-68120134D01*
X171207726Y-67882039D01*
X172207726Y-66977277D02*
X172207726Y-67548706D01*
X172207726Y-67262991D02*
X171207726Y-67262991D01*
X171350584Y-67358230D01*
X171445822Y-67453468D01*
X171493441Y-67548706D01*
X193162504Y-122924195D02*
X193210123Y-122971814D01*
X193257742Y-123114671D01*
X193257742Y-123209909D01*
X193210123Y-123352767D01*
X193114885Y-123448005D01*
X193019647Y-123495624D01*
X192829171Y-123543243D01*
X192686314Y-123543243D01*
X192495838Y-123495624D01*
X192400600Y-123448005D01*
X192305362Y-123352767D01*
X192257742Y-123209909D01*
X192257742Y-123114671D01*
X192305362Y-122971814D01*
X192352981Y-122924195D01*
X192591076Y-122067052D02*
X193257742Y-122067052D01*
X192210123Y-122305148D02*
X192924409Y-122543243D01*
X192924409Y-121924195D01*
X166468657Y-131115570D02*
X165468657Y-131115570D01*
X165468657Y-130877475D01*
X165516277Y-130734618D01*
X165611515Y-130639380D01*
X165706753Y-130591761D01*
X165897229Y-130544142D01*
X166040086Y-130544142D01*
X166230562Y-130591761D01*
X166325800Y-130639380D01*
X166421038Y-130734618D01*
X166468657Y-130877475D01*
X166468657Y-131115570D01*
X165468657Y-130210808D02*
X165468657Y-129591761D01*
X165849610Y-129925094D01*
X165849610Y-129782237D01*
X165897229Y-129686999D01*
X165944848Y-129639380D01*
X166040086Y-129591761D01*
X166278181Y-129591761D01*
X166373419Y-129639380D01*
X166421038Y-129686999D01*
X166468657Y-129782237D01*
X166468657Y-130067951D01*
X166421038Y-130163189D01*
X166373419Y-130210808D01*
X165468657Y-128972713D02*
X165468657Y-128877475D01*
X165516277Y-128782237D01*
X165563896Y-128734618D01*
X165659134Y-128686999D01*
X165849610Y-128639380D01*
X166087705Y-128639380D01*
X166278181Y-128686999D01*
X166373419Y-128734618D01*
X166421038Y-128782237D01*
X166468657Y-128877475D01*
X166468657Y-128972713D01*
X166421038Y-129067951D01*
X166373419Y-129115570D01*
X166278181Y-129163189D01*
X166087705Y-129210808D01*
X165849610Y-129210808D01*
X165659134Y-129163189D01*
X165563896Y-129115570D01*
X165516277Y-129067951D01*
X165468657Y-128972713D01*
X196353580Y-111898962D02*
X196353580Y-110898962D01*
X196591675Y-110898962D01*
X196734532Y-110946582D01*
X196829770Y-111041820D01*
X196877389Y-111137058D01*
X196925008Y-111327534D01*
X196925008Y-111470391D01*
X196877389Y-111660867D01*
X196829770Y-111756105D01*
X196734532Y-111851343D01*
X196591675Y-111898962D01*
X196353580Y-111898962D01*
X197829770Y-110898962D02*
X197353580Y-110898962D01*
X197305961Y-111375153D01*
X197353580Y-111327534D01*
X197448818Y-111279915D01*
X197686913Y-111279915D01*
X197782151Y-111327534D01*
X197829770Y-111375153D01*
X197877389Y-111470391D01*
X197877389Y-111708486D01*
X197829770Y-111803724D01*
X197782151Y-111851343D01*
X197686913Y-111898962D01*
X197448818Y-111898962D01*
X197353580Y-111851343D01*
X197305961Y-111803724D01*
X198448818Y-111327534D02*
X198353580Y-111279915D01*
X198305961Y-111232296D01*
X198258342Y-111137058D01*
X198258342Y-111089439D01*
X198305961Y-110994201D01*
X198353580Y-110946582D01*
X198448818Y-110898962D01*
X198639294Y-110898962D01*
X198734532Y-110946582D01*
X198782151Y-110994201D01*
X198829770Y-111089439D01*
X198829770Y-111137058D01*
X198782151Y-111232296D01*
X198734532Y-111279915D01*
X198639294Y-111327534D01*
X198448818Y-111327534D01*
X198353580Y-111375153D01*
X198305961Y-111422772D01*
X198258342Y-111518010D01*
X198258342Y-111708486D01*
X198305961Y-111803724D01*
X198353580Y-111851343D01*
X198448818Y-111898962D01*
X198639294Y-111898962D01*
X198734532Y-111851343D01*
X198782151Y-111803724D01*
X198829770Y-111708486D01*
X198829770Y-111518010D01*
X198782151Y-111422772D01*
X198734532Y-111375153D01*
X198639294Y-111327534D01*
X198615559Y-131115570D02*
X197615559Y-131115570D01*
X197615559Y-130877475D01*
X197663179Y-130734618D01*
X197758417Y-130639380D01*
X197853655Y-130591761D01*
X198044131Y-130544142D01*
X198186988Y-130544142D01*
X198377464Y-130591761D01*
X198472702Y-130639380D01*
X198567940Y-130734618D01*
X198615559Y-130877475D01*
X198615559Y-131115570D01*
X197615559Y-129686999D02*
X197615559Y-129877475D01*
X197663179Y-129972713D01*
X197710798Y-130020332D01*
X197853655Y-130115570D01*
X198044131Y-130163189D01*
X198425083Y-130163189D01*
X198520321Y-130115570D01*
X198567940Y-130067951D01*
X198615559Y-129972713D01*
X198615559Y-129782237D01*
X198567940Y-129686999D01*
X198520321Y-129639380D01*
X198425083Y-129591761D01*
X198186988Y-129591761D01*
X198091750Y-129639380D01*
X198044131Y-129686999D01*
X197996512Y-129782237D01*
X197996512Y-129972713D01*
X198044131Y-130067951D01*
X198091750Y-130115570D01*
X198186988Y-130163189D01*
X197615559Y-128972713D02*
X197615559Y-128877475D01*
X197663179Y-128782237D01*
X197710798Y-128734618D01*
X197806036Y-128686999D01*
X197996512Y-128639380D01*
X198234607Y-128639380D01*
X198425083Y-128686999D01*
X198520321Y-128734618D01*
X198567940Y-128782237D01*
X198615559Y-128877475D01*
X198615559Y-128972713D01*
X198567940Y-129067951D01*
X198520321Y-129115570D01*
X198425083Y-129163189D01*
X198234607Y-129210808D01*
X197996512Y-129210808D01*
X197806036Y-129163189D01*
X197710798Y-129115570D01*
X197663179Y-129067951D01*
X197615559Y-128972713D01*
X196353580Y-76180182D02*
X196353580Y-75180182D01*
X196591675Y-75180182D01*
X196734532Y-75227802D01*
X196829770Y-75323040D01*
X196877389Y-75418278D01*
X196925008Y-75608754D01*
X196925008Y-75751611D01*
X196877389Y-75942087D01*
X196829770Y-76037325D01*
X196734532Y-76132563D01*
X196591675Y-76180182D01*
X196353580Y-76180182D01*
X197829770Y-75180182D02*
X197353580Y-75180182D01*
X197305961Y-75656373D01*
X197353580Y-75608754D01*
X197448818Y-75561135D01*
X197686913Y-75561135D01*
X197782151Y-75608754D01*
X197829770Y-75656373D01*
X197877389Y-75751611D01*
X197877389Y-75989706D01*
X197829770Y-76084944D01*
X197782151Y-76132563D01*
X197686913Y-76180182D01*
X197448818Y-76180182D01*
X197353580Y-76132563D01*
X197305961Y-76084944D01*
X198734532Y-75180182D02*
X198544056Y-75180182D01*
X198448818Y-75227802D01*
X198401199Y-75275421D01*
X198305961Y-75418278D01*
X198258342Y-75608754D01*
X198258342Y-75989706D01*
X198305961Y-76084944D01*
X198353580Y-76132563D01*
X198448818Y-76180182D01*
X198639294Y-76180182D01*
X198734532Y-76132563D01*
X198782151Y-76084944D01*
X198829770Y-75989706D01*
X198829770Y-75751611D01*
X198782151Y-75656373D01*
X198734532Y-75608754D01*
X198639294Y-75561135D01*
X198448818Y-75561135D01*
X198353580Y-75608754D01*
X198305961Y-75656373D01*
X198258342Y-75751611D01*
X207664527Y-61297357D02*
X207664527Y-60297357D01*
X207902622Y-60297357D01*
X208045479Y-60344977D01*
X208140717Y-60440215D01*
X208188336Y-60535453D01*
X208235955Y-60725929D01*
X208235955Y-60868786D01*
X208188336Y-61059262D01*
X208140717Y-61154500D01*
X208045479Y-61249738D01*
X207902622Y-61297357D01*
X207664527Y-61297357D01*
X209140717Y-60297357D02*
X208664527Y-60297357D01*
X208616908Y-60773548D01*
X208664527Y-60725929D01*
X208759765Y-60678310D01*
X208997860Y-60678310D01*
X209093098Y-60725929D01*
X209140717Y-60773548D01*
X209188336Y-60868786D01*
X209188336Y-61106881D01*
X209140717Y-61202119D01*
X209093098Y-61249738D01*
X208997860Y-61297357D01*
X208759765Y-61297357D01*
X208664527Y-61249738D01*
X208616908Y-61202119D01*
X210093098Y-60297357D02*
X209616908Y-60297357D01*
X209569289Y-60773548D01*
X209616908Y-60725929D01*
X209712146Y-60678310D01*
X209950241Y-60678310D01*
X210045479Y-60725929D01*
X210093098Y-60773548D01*
X210140717Y-60868786D01*
X210140717Y-61106881D01*
X210093098Y-61202119D01*
X210045479Y-61249738D01*
X209950241Y-61297357D01*
X209712146Y-61297357D01*
X209616908Y-61249738D01*
X209569289Y-61202119D01*
X196353580Y-64273922D02*
X196353580Y-63273922D01*
X196591675Y-63273922D01*
X196734532Y-63321542D01*
X196829770Y-63416780D01*
X196877389Y-63512018D01*
X196925008Y-63702494D01*
X196925008Y-63845351D01*
X196877389Y-64035827D01*
X196829770Y-64131065D01*
X196734532Y-64226303D01*
X196591675Y-64273922D01*
X196353580Y-64273922D01*
X197782151Y-63607256D02*
X197782151Y-64273922D01*
X197544056Y-63226303D02*
X197305961Y-63940589D01*
X197925008Y-63940589D01*
X198353580Y-64273922D02*
X198544056Y-64273922D01*
X198639294Y-64226303D01*
X198686913Y-64178684D01*
X198782151Y-64035827D01*
X198829770Y-63845351D01*
X198829770Y-63464399D01*
X198782151Y-63369161D01*
X198734532Y-63321542D01*
X198639294Y-63273922D01*
X198448818Y-63273922D01*
X198353580Y-63321542D01*
X198305961Y-63369161D01*
X198258342Y-63464399D01*
X198258342Y-63702494D01*
X198305961Y-63797732D01*
X198353580Y-63845351D01*
X198448818Y-63892970D01*
X198639294Y-63892970D01*
X198734532Y-63845351D01*
X198782151Y-63797732D01*
X198829770Y-63702494D01*
X207664527Y-79156747D02*
X207664527Y-78156747D01*
X207902622Y-78156747D01*
X208045479Y-78204367D01*
X208140717Y-78299605D01*
X208188336Y-78394843D01*
X208235955Y-78585319D01*
X208235955Y-78728176D01*
X208188336Y-78918652D01*
X208140717Y-79013890D01*
X208045479Y-79109128D01*
X207902622Y-79156747D01*
X207664527Y-79156747D01*
X208569289Y-78156747D02*
X209188336Y-78156747D01*
X208855003Y-78537700D01*
X208997860Y-78537700D01*
X209093098Y-78585319D01*
X209140717Y-78632938D01*
X209188336Y-78728176D01*
X209188336Y-78966271D01*
X209140717Y-79061509D01*
X209093098Y-79109128D01*
X208997860Y-79156747D01*
X208712146Y-79156747D01*
X208616908Y-79109128D01*
X208569289Y-79061509D01*
X209569289Y-78251986D02*
X209616908Y-78204367D01*
X209712146Y-78156747D01*
X209950241Y-78156747D01*
X210045479Y-78204367D01*
X210093098Y-78251986D01*
X210140717Y-78347224D01*
X210140717Y-78442462D01*
X210093098Y-78585319D01*
X209521670Y-79156747D01*
X210140717Y-79156747D01*
X196353580Y-94039572D02*
X196353580Y-93039572D01*
X196591675Y-93039572D01*
X196734532Y-93087192D01*
X196829770Y-93182430D01*
X196877389Y-93277668D01*
X196925008Y-93468144D01*
X196925008Y-93611001D01*
X196877389Y-93801477D01*
X196829770Y-93896715D01*
X196734532Y-93991953D01*
X196591675Y-94039572D01*
X196353580Y-94039572D01*
X197829770Y-93039572D02*
X197353580Y-93039572D01*
X197305961Y-93515763D01*
X197353580Y-93468144D01*
X197448818Y-93420525D01*
X197686913Y-93420525D01*
X197782151Y-93468144D01*
X197829770Y-93515763D01*
X197877389Y-93611001D01*
X197877389Y-93849096D01*
X197829770Y-93944334D01*
X197782151Y-93991953D01*
X197686913Y-94039572D01*
X197448818Y-94039572D01*
X197353580Y-93991953D01*
X197305961Y-93944334D01*
X198210723Y-93039572D02*
X198877389Y-93039572D01*
X198448818Y-94039572D01*
X196353580Y-88086442D02*
X196353580Y-87086442D01*
X196591675Y-87086442D01*
X196734532Y-87134062D01*
X196829770Y-87229300D01*
X196877389Y-87324538D01*
X196925008Y-87515014D01*
X196925008Y-87657871D01*
X196877389Y-87848347D01*
X196829770Y-87943585D01*
X196734532Y-88038823D01*
X196591675Y-88086442D01*
X196353580Y-88086442D01*
X197829770Y-87086442D02*
X197353580Y-87086442D01*
X197305961Y-87562633D01*
X197353580Y-87515014D01*
X197448818Y-87467395D01*
X197686913Y-87467395D01*
X197782151Y-87515014D01*
X197829770Y-87562633D01*
X197877389Y-87657871D01*
X197877389Y-87895966D01*
X197829770Y-87991204D01*
X197782151Y-88038823D01*
X197686913Y-88086442D01*
X197448818Y-88086442D01*
X197353580Y-88038823D01*
X197305961Y-87991204D01*
X198496437Y-87086442D02*
X198591675Y-87086442D01*
X198686913Y-87134062D01*
X198734532Y-87181681D01*
X198782151Y-87276919D01*
X198829770Y-87467395D01*
X198829770Y-87705490D01*
X198782151Y-87895966D01*
X198734532Y-87991204D01*
X198686913Y-88038823D01*
X198591675Y-88086442D01*
X198496437Y-88086442D01*
X198401199Y-88038823D01*
X198353580Y-87991204D01*
X198305961Y-87895966D01*
X198258342Y-87705490D01*
X198258342Y-87467395D01*
X198305961Y-87276919D01*
X198353580Y-87181681D01*
X198401199Y-87134062D01*
X198496437Y-87086442D01*
X207664527Y-91063007D02*
X207664527Y-90063007D01*
X207902622Y-90063007D01*
X208045479Y-90110627D01*
X208140717Y-90205865D01*
X208188336Y-90301103D01*
X208235955Y-90491579D01*
X208235955Y-90634436D01*
X208188336Y-90824912D01*
X208140717Y-90920150D01*
X208045479Y-91015388D01*
X207902622Y-91063007D01*
X207664527Y-91063007D01*
X209140717Y-90063007D02*
X208664527Y-90063007D01*
X208616908Y-90539198D01*
X208664527Y-90491579D01*
X208759765Y-90443960D01*
X208997860Y-90443960D01*
X209093098Y-90491579D01*
X209140717Y-90539198D01*
X209188336Y-90634436D01*
X209188336Y-90872531D01*
X209140717Y-90967769D01*
X209093098Y-91015388D01*
X208997860Y-91063007D01*
X208759765Y-91063007D01*
X208664527Y-91015388D01*
X208616908Y-90967769D01*
X210140717Y-91063007D02*
X209569289Y-91063007D01*
X209855003Y-91063007D02*
X209855003Y-90063007D01*
X209759765Y-90205865D01*
X209664527Y-90301103D01*
X209569289Y-90348722D01*
X207664527Y-102969267D02*
X207664527Y-101969267D01*
X207902622Y-101969267D01*
X208045479Y-102016887D01*
X208140717Y-102112125D01*
X208188336Y-102207363D01*
X208235955Y-102397839D01*
X208235955Y-102540696D01*
X208188336Y-102731172D01*
X208140717Y-102826410D01*
X208045479Y-102921648D01*
X207902622Y-102969267D01*
X207664527Y-102969267D01*
X209093098Y-102302601D02*
X209093098Y-102969267D01*
X208855003Y-101921648D02*
X208616908Y-102635934D01*
X209235955Y-102635934D01*
X210093098Y-101969267D02*
X209616908Y-101969267D01*
X209569289Y-102445458D01*
X209616908Y-102397839D01*
X209712146Y-102350220D01*
X209950241Y-102350220D01*
X210045479Y-102397839D01*
X210093098Y-102445458D01*
X210140717Y-102540696D01*
X210140717Y-102778791D01*
X210093098Y-102874029D01*
X210045479Y-102921648D01*
X209950241Y-102969267D01*
X209712146Y-102969267D01*
X209616908Y-102921648D01*
X209569289Y-102874029D01*
X196353580Y-99992702D02*
X196353580Y-98992702D01*
X196591675Y-98992702D01*
X196734532Y-99040322D01*
X196829770Y-99135560D01*
X196877389Y-99230798D01*
X196925008Y-99421274D01*
X196925008Y-99564131D01*
X196877389Y-99754607D01*
X196829770Y-99849845D01*
X196734532Y-99945083D01*
X196591675Y-99992702D01*
X196353580Y-99992702D01*
X197258342Y-98992702D02*
X197877389Y-98992702D01*
X197544056Y-99373655D01*
X197686913Y-99373655D01*
X197782151Y-99421274D01*
X197829770Y-99468893D01*
X197877389Y-99564131D01*
X197877389Y-99802226D01*
X197829770Y-99897464D01*
X197782151Y-99945083D01*
X197686913Y-99992702D01*
X197401199Y-99992702D01*
X197305961Y-99945083D01*
X197258342Y-99897464D01*
X198353580Y-99992702D02*
X198544056Y-99992702D01*
X198639294Y-99945083D01*
X198686913Y-99897464D01*
X198782151Y-99754607D01*
X198829770Y-99564131D01*
X198829770Y-99183179D01*
X198782151Y-99087941D01*
X198734532Y-99040322D01*
X198639294Y-98992702D01*
X198448818Y-98992702D01*
X198353580Y-99040322D01*
X198305961Y-99087941D01*
X198258342Y-99183179D01*
X198258342Y-99421274D01*
X198305961Y-99516512D01*
X198353580Y-99564131D01*
X198448818Y-99611750D01*
X198639294Y-99611750D01*
X198734532Y-99564131D01*
X198782151Y-99516512D01*
X198829770Y-99421274D01*
X207664527Y-97016137D02*
X207664527Y-96016137D01*
X207902622Y-96016137D01*
X208045479Y-96063757D01*
X208140717Y-96158995D01*
X208188336Y-96254233D01*
X208235955Y-96444709D01*
X208235955Y-96587566D01*
X208188336Y-96778042D01*
X208140717Y-96873280D01*
X208045479Y-96968518D01*
X207902622Y-97016137D01*
X207664527Y-97016137D01*
X208569289Y-96016137D02*
X209188336Y-96016137D01*
X208855003Y-96397090D01*
X208997860Y-96397090D01*
X209093098Y-96444709D01*
X209140717Y-96492328D01*
X209188336Y-96587566D01*
X209188336Y-96825661D01*
X209140717Y-96920899D01*
X209093098Y-96968518D01*
X208997860Y-97016137D01*
X208712146Y-97016137D01*
X208616908Y-96968518D01*
X208569289Y-96920899D01*
X209521670Y-96016137D02*
X210140717Y-96016137D01*
X209807384Y-96397090D01*
X209950241Y-96397090D01*
X210045479Y-96444709D01*
X210093098Y-96492328D01*
X210140717Y-96587566D01*
X210140717Y-96825661D01*
X210093098Y-96920899D01*
X210045479Y-96968518D01*
X209950241Y-97016137D01*
X209664527Y-97016137D01*
X209569289Y-96968518D01*
X209521670Y-96920899D01*
X196353580Y-82133312D02*
X196353580Y-81133312D01*
X196591675Y-81133312D01*
X196734532Y-81180932D01*
X196829770Y-81276170D01*
X196877389Y-81371408D01*
X196925008Y-81561884D01*
X196925008Y-81704741D01*
X196877389Y-81895217D01*
X196829770Y-81990455D01*
X196734532Y-82085693D01*
X196591675Y-82133312D01*
X196353580Y-82133312D01*
X197258342Y-81133312D02*
X197877389Y-81133312D01*
X197544056Y-81514265D01*
X197686913Y-81514265D01*
X197782151Y-81561884D01*
X197829770Y-81609503D01*
X197877389Y-81704741D01*
X197877389Y-81942836D01*
X197829770Y-82038074D01*
X197782151Y-82085693D01*
X197686913Y-82133312D01*
X197401199Y-82133312D01*
X197305961Y-82085693D01*
X197258342Y-82038074D01*
X198448818Y-81561884D02*
X198353580Y-81514265D01*
X198305961Y-81466646D01*
X198258342Y-81371408D01*
X198258342Y-81323789D01*
X198305961Y-81228551D01*
X198353580Y-81180932D01*
X198448818Y-81133312D01*
X198639294Y-81133312D01*
X198734532Y-81180932D01*
X198782151Y-81228551D01*
X198829770Y-81323789D01*
X198829770Y-81371408D01*
X198782151Y-81466646D01*
X198734532Y-81514265D01*
X198639294Y-81561884D01*
X198448818Y-81561884D01*
X198353580Y-81609503D01*
X198305961Y-81657122D01*
X198258342Y-81752360D01*
X198258342Y-81942836D01*
X198305961Y-82038074D01*
X198353580Y-82085693D01*
X198448818Y-82133312D01*
X198639294Y-82133312D01*
X198734532Y-82085693D01*
X198782151Y-82038074D01*
X198829770Y-81942836D01*
X198829770Y-81752360D01*
X198782151Y-81657122D01*
X198734532Y-81609503D01*
X198639294Y-81561884D01*
X207664527Y-108922397D02*
X207664527Y-107922397D01*
X207902622Y-107922397D01*
X208045479Y-107970017D01*
X208140717Y-108065255D01*
X208188336Y-108160493D01*
X208235955Y-108350969D01*
X208235955Y-108493826D01*
X208188336Y-108684302D01*
X208140717Y-108779540D01*
X208045479Y-108874778D01*
X207902622Y-108922397D01*
X207664527Y-108922397D01*
X209140717Y-107922397D02*
X208664527Y-107922397D01*
X208616908Y-108398588D01*
X208664527Y-108350969D01*
X208759765Y-108303350D01*
X208997860Y-108303350D01*
X209093098Y-108350969D01*
X209140717Y-108398588D01*
X209188336Y-108493826D01*
X209188336Y-108731921D01*
X209140717Y-108827159D01*
X209093098Y-108874778D01*
X208997860Y-108922397D01*
X208759765Y-108922397D01*
X208664527Y-108874778D01*
X208616908Y-108827159D01*
X209569289Y-108017636D02*
X209616908Y-107970017D01*
X209712146Y-107922397D01*
X209950241Y-107922397D01*
X210045479Y-107970017D01*
X210093098Y-108017636D01*
X210140717Y-108112874D01*
X210140717Y-108208112D01*
X210093098Y-108350969D01*
X209521670Y-108922397D01*
X210140717Y-108922397D01*
X196353580Y-105945832D02*
X196353580Y-104945832D01*
X196591675Y-104945832D01*
X196734532Y-104993452D01*
X196829770Y-105088690D01*
X196877389Y-105183928D01*
X196925008Y-105374404D01*
X196925008Y-105517261D01*
X196877389Y-105707737D01*
X196829770Y-105802975D01*
X196734532Y-105898213D01*
X196591675Y-105945832D01*
X196353580Y-105945832D01*
X197782151Y-105279166D02*
X197782151Y-105945832D01*
X197544056Y-104898213D02*
X197305961Y-105612499D01*
X197925008Y-105612499D01*
X198734532Y-104945832D02*
X198544056Y-104945832D01*
X198448818Y-104993452D01*
X198401199Y-105041071D01*
X198305961Y-105183928D01*
X198258342Y-105374404D01*
X198258342Y-105755356D01*
X198305961Y-105850594D01*
X198353580Y-105898213D01*
X198448818Y-105945832D01*
X198639294Y-105945832D01*
X198734532Y-105898213D01*
X198782151Y-105850594D01*
X198829770Y-105755356D01*
X198829770Y-105517261D01*
X198782151Y-105422023D01*
X198734532Y-105374404D01*
X198639294Y-105326785D01*
X198448818Y-105326785D01*
X198353580Y-105374404D01*
X198305961Y-105422023D01*
X198258342Y-105517261D01*
X207664527Y-114875527D02*
X207664527Y-113875527D01*
X207902622Y-113875527D01*
X208045479Y-113923147D01*
X208140717Y-114018385D01*
X208188336Y-114113623D01*
X208235955Y-114304099D01*
X208235955Y-114446956D01*
X208188336Y-114637432D01*
X208140717Y-114732670D01*
X208045479Y-114827908D01*
X207902622Y-114875527D01*
X207664527Y-114875527D01*
X208569289Y-113875527D02*
X209188336Y-113875527D01*
X208855003Y-114256480D01*
X208997860Y-114256480D01*
X209093098Y-114304099D01*
X209140717Y-114351718D01*
X209188336Y-114446956D01*
X209188336Y-114685051D01*
X209140717Y-114780289D01*
X209093098Y-114827908D01*
X208997860Y-114875527D01*
X208712146Y-114875527D01*
X208616908Y-114827908D01*
X208569289Y-114780289D01*
X210045479Y-114208861D02*
X210045479Y-114875527D01*
X209807384Y-113827908D02*
X209569289Y-114542194D01*
X210188336Y-114542194D01*
X207664527Y-85109877D02*
X207664527Y-84109877D01*
X207902622Y-84109877D01*
X208045479Y-84157497D01*
X208140717Y-84252735D01*
X208188336Y-84347973D01*
X208235955Y-84538449D01*
X208235955Y-84681306D01*
X208188336Y-84871782D01*
X208140717Y-84967020D01*
X208045479Y-85062258D01*
X207902622Y-85109877D01*
X207664527Y-85109877D01*
X209093098Y-84443211D02*
X209093098Y-85109877D01*
X208855003Y-84062258D02*
X208616908Y-84776544D01*
X209235955Y-84776544D01*
X210045479Y-84443211D02*
X210045479Y-85109877D01*
X209807384Y-84062258D02*
X209569289Y-84776544D01*
X210188336Y-84776544D01*
X207664527Y-67250487D02*
X207664527Y-66250487D01*
X207902622Y-66250487D01*
X208045479Y-66298107D01*
X208140717Y-66393345D01*
X208188336Y-66488583D01*
X208235955Y-66679059D01*
X208235955Y-66821916D01*
X208188336Y-67012392D01*
X208140717Y-67107630D01*
X208045479Y-67202868D01*
X207902622Y-67250487D01*
X207664527Y-67250487D01*
X209093098Y-66583821D02*
X209093098Y-67250487D01*
X208855003Y-66202868D02*
X208616908Y-66917154D01*
X209235955Y-66917154D01*
X209521670Y-66250487D02*
X210140717Y-66250487D01*
X209807384Y-66631440D01*
X209950241Y-66631440D01*
X210045479Y-66679059D01*
X210093098Y-66726678D01*
X210140717Y-66821916D01*
X210140717Y-67060011D01*
X210093098Y-67155249D01*
X210045479Y-67202868D01*
X209950241Y-67250487D01*
X209664527Y-67250487D01*
X209569289Y-67202868D01*
X209521670Y-67155249D01*
X203497336Y-132139604D02*
X203497336Y-131139604D01*
X203735431Y-131139604D01*
X203878288Y-131187224D01*
X203973526Y-131282462D01*
X204021145Y-131377700D01*
X204068764Y-131568176D01*
X204068764Y-131711033D01*
X204021145Y-131901509D01*
X203973526Y-131996747D01*
X203878288Y-132091985D01*
X203735431Y-132139604D01*
X203497336Y-132139604D01*
X204973526Y-131139604D02*
X204497336Y-131139604D01*
X204449717Y-131615795D01*
X204497336Y-131568176D01*
X204592574Y-131520557D01*
X204830669Y-131520557D01*
X204925907Y-131568176D01*
X204973526Y-131615795D01*
X205021145Y-131711033D01*
X205021145Y-131949128D01*
X204973526Y-132044366D01*
X204925907Y-132091985D01*
X204830669Y-132139604D01*
X204592574Y-132139604D01*
X204497336Y-132091985D01*
X204449717Y-132044366D01*
X205497336Y-132139604D02*
X205687812Y-132139604D01*
X205783050Y-132091985D01*
X205830669Y-132044366D01*
X205925907Y-131901509D01*
X205973526Y-131711033D01*
X205973526Y-131330081D01*
X205925907Y-131234843D01*
X205878288Y-131187224D01*
X205783050Y-131139604D01*
X205592574Y-131139604D01*
X205497336Y-131187224D01*
X205449717Y-131234843D01*
X205402098Y-131330081D01*
X205402098Y-131568176D01*
X205449717Y-131663414D01*
X205497336Y-131711033D01*
X205592574Y-131758652D01*
X205783050Y-131758652D01*
X205878288Y-131711033D01*
X205925907Y-131663414D01*
X205973526Y-131568176D01*
X207664527Y-121423970D02*
X207664527Y-120423970D01*
X207902622Y-120423970D01*
X208045479Y-120471590D01*
X208140717Y-120566828D01*
X208188336Y-120662066D01*
X208235955Y-120852542D01*
X208235955Y-120995399D01*
X208188336Y-121185875D01*
X208140717Y-121281113D01*
X208045479Y-121376351D01*
X207902622Y-121423970D01*
X207664527Y-121423970D01*
X209093098Y-120757304D02*
X209093098Y-121423970D01*
X208855003Y-120376351D02*
X208616908Y-121090637D01*
X209235955Y-121090637D01*
X210140717Y-121423970D02*
X209569289Y-121423970D01*
X209855003Y-121423970D02*
X209855003Y-120423970D01*
X209759765Y-120566828D01*
X209664527Y-120662066D01*
X209569289Y-120709685D01*
X184328047Y-142426517D02*
X183328047Y-142426517D01*
X183328047Y-142188422D01*
X183375667Y-142045565D01*
X183470905Y-141950327D01*
X183566143Y-141902708D01*
X183756619Y-141855089D01*
X183899476Y-141855089D01*
X184089952Y-141902708D01*
X184185190Y-141950327D01*
X184280428Y-142045565D01*
X184328047Y-142188422D01*
X184328047Y-142426517D01*
X183328047Y-141521755D02*
X183328047Y-140902708D01*
X183709000Y-141236041D01*
X183709000Y-141093184D01*
X183756619Y-140997946D01*
X183804238Y-140950327D01*
X183899476Y-140902708D01*
X184137571Y-140902708D01*
X184232809Y-140950327D01*
X184280428Y-140997946D01*
X184328047Y-141093184D01*
X184328047Y-141378898D01*
X184280428Y-141474136D01*
X184232809Y-141521755D01*
X183328047Y-139997946D02*
X183328047Y-140474136D01*
X183804238Y-140521755D01*
X183756619Y-140474136D01*
X183709000Y-140378898D01*
X183709000Y-140140803D01*
X183756619Y-140045565D01*
X183804238Y-139997946D01*
X183899476Y-139950327D01*
X184137571Y-139950327D01*
X184232809Y-139997946D01*
X184280428Y-140045565D01*
X184328047Y-140140803D01*
X184328047Y-140378898D01*
X184280428Y-140474136D01*
X184232809Y-140521755D01*
X196353580Y-117852092D02*
X196353580Y-116852092D01*
X196591675Y-116852092D01*
X196734532Y-116899712D01*
X196829770Y-116994950D01*
X196877389Y-117090188D01*
X196925008Y-117280664D01*
X196925008Y-117423521D01*
X196877389Y-117613997D01*
X196829770Y-117709235D01*
X196734532Y-117804473D01*
X196591675Y-117852092D01*
X196353580Y-117852092D01*
X197782151Y-117185426D02*
X197782151Y-117852092D01*
X197544056Y-116804473D02*
X197305961Y-117518759D01*
X197925008Y-117518759D01*
X198496437Y-116852092D02*
X198591675Y-116852092D01*
X198686913Y-116899712D01*
X198734532Y-116947331D01*
X198782151Y-117042569D01*
X198829770Y-117233045D01*
X198829770Y-117471140D01*
X198782151Y-117661616D01*
X198734532Y-117756854D01*
X198686913Y-117804473D01*
X198591675Y-117852092D01*
X198496437Y-117852092D01*
X198401199Y-117804473D01*
X198353580Y-117756854D01*
X198305961Y-117661616D01*
X198258342Y-117471140D01*
X198258342Y-117233045D01*
X198305961Y-117042569D01*
X198353580Y-116947331D01*
X198401199Y-116899712D01*
X198496437Y-116852092D01*
X196353580Y-123805222D02*
X196353580Y-122805222D01*
X196591675Y-122805222D01*
X196734532Y-122852842D01*
X196829770Y-122948080D01*
X196877389Y-123043318D01*
X196925008Y-123233794D01*
X196925008Y-123376651D01*
X196877389Y-123567127D01*
X196829770Y-123662365D01*
X196734532Y-123757603D01*
X196591675Y-123805222D01*
X196353580Y-123805222D01*
X197782151Y-123138556D02*
X197782151Y-123805222D01*
X197544056Y-122757603D02*
X197305961Y-123471889D01*
X197925008Y-123471889D01*
X198210723Y-122805222D02*
X198877389Y-122805222D01*
X198448818Y-123805222D01*
X207664527Y-126781787D02*
X207664527Y-125781787D01*
X207902622Y-125781787D01*
X208045479Y-125829407D01*
X208140717Y-125924645D01*
X208188336Y-126019883D01*
X208235955Y-126210359D01*
X208235955Y-126353216D01*
X208188336Y-126543692D01*
X208140717Y-126638930D01*
X208045479Y-126734168D01*
X207902622Y-126781787D01*
X207664527Y-126781787D01*
X209140717Y-125781787D02*
X208664527Y-125781787D01*
X208616908Y-126257978D01*
X208664527Y-126210359D01*
X208759765Y-126162740D01*
X208997860Y-126162740D01*
X209093098Y-126210359D01*
X209140717Y-126257978D01*
X209188336Y-126353216D01*
X209188336Y-126591311D01*
X209140717Y-126686549D01*
X209093098Y-126734168D01*
X208997860Y-126781787D01*
X208759765Y-126781787D01*
X208664527Y-126734168D01*
X208616908Y-126686549D01*
X209521670Y-125781787D02*
X210140717Y-125781787D01*
X209807384Y-126162740D01*
X209950241Y-126162740D01*
X210045479Y-126210359D01*
X210093098Y-126257978D01*
X210140717Y-126353216D01*
X210140717Y-126591311D01*
X210093098Y-126686549D01*
X210045479Y-126734168D01*
X209950241Y-126781787D01*
X209664527Y-126781787D01*
X209569289Y-126734168D01*
X209521670Y-126686549D01*
X187304612Y-131115570D02*
X186304612Y-131115570D01*
X186304612Y-130877475D01*
X186352232Y-130734618D01*
X186447470Y-130639380D01*
X186542708Y-130591761D01*
X186733184Y-130544142D01*
X186876041Y-130544142D01*
X187066517Y-130591761D01*
X187161755Y-130639380D01*
X187256993Y-130734618D01*
X187304612Y-130877475D01*
X187304612Y-131115570D01*
X186304612Y-130210808D02*
X186304612Y-129591761D01*
X186685565Y-129925094D01*
X186685565Y-129782237D01*
X186733184Y-129686999D01*
X186780803Y-129639380D01*
X186876041Y-129591761D01*
X187114136Y-129591761D01*
X187209374Y-129639380D01*
X187256993Y-129686999D01*
X187304612Y-129782237D01*
X187304612Y-130067951D01*
X187256993Y-130163189D01*
X187209374Y-130210808D01*
X186304612Y-128734618D02*
X186304612Y-128925094D01*
X186352232Y-129020332D01*
X186399851Y-129067951D01*
X186542708Y-129163189D01*
X186733184Y-129210808D01*
X187114136Y-129210808D01*
X187209374Y-129163189D01*
X187256993Y-129115570D01*
X187304612Y-129020332D01*
X187304612Y-128829856D01*
X187256993Y-128734618D01*
X187209374Y-128686999D01*
X187114136Y-128639380D01*
X186876041Y-128639380D01*
X186780803Y-128686999D01*
X186733184Y-128734618D01*
X186685565Y-128829856D01*
X186685565Y-129020332D01*
X186733184Y-129115570D01*
X186780803Y-129163189D01*
X186876041Y-129210808D01*
X193162504Y-125900760D02*
X193210123Y-125948379D01*
X193257742Y-126091236D01*
X193257742Y-126186474D01*
X193210123Y-126329332D01*
X193114885Y-126424570D01*
X193019647Y-126472189D01*
X192829171Y-126519808D01*
X192686314Y-126519808D01*
X192495838Y-126472189D01*
X192400600Y-126424570D01*
X192305362Y-126329332D01*
X192257742Y-126186474D01*
X192257742Y-126091236D01*
X192305362Y-125948379D01*
X192352981Y-125900760D01*
X192257742Y-124995998D02*
X192257742Y-125472189D01*
X192733933Y-125519808D01*
X192686314Y-125472189D01*
X192638695Y-125376951D01*
X192638695Y-125138855D01*
X192686314Y-125043617D01*
X192733933Y-124995998D01*
X192829171Y-124948379D01*
X193067266Y-124948379D01*
X193162504Y-124995998D01*
X193210123Y-125043617D01*
X193257742Y-125138855D01*
X193257742Y-125376951D01*
X193210123Y-125472189D01*
X193162504Y-125519808D01*
X170826474Y-77859193D02*
X171540760Y-77859193D01*
X171683617Y-77906812D01*
X171778855Y-78002050D01*
X171826474Y-78144907D01*
X171826474Y-78240145D01*
X170921713Y-77430621D02*
X170874094Y-77383002D01*
X170826474Y-77287764D01*
X170826474Y-77049669D01*
X170874094Y-76954431D01*
X170921713Y-76906812D01*
X171016951Y-76859193D01*
X171112189Y-76859193D01*
X171255046Y-76906812D01*
X171826474Y-77478240D01*
X171826474Y-76859193D01*
X190281177Y-142426517D02*
X189281177Y-142426517D01*
X189281177Y-142188422D01*
X189328797Y-142045565D01*
X189424035Y-141950327D01*
X189519273Y-141902708D01*
X189709749Y-141855089D01*
X189852606Y-141855089D01*
X190043082Y-141902708D01*
X190138320Y-141950327D01*
X190233558Y-142045565D01*
X190281177Y-142188422D01*
X190281177Y-142426517D01*
X189614511Y-140997946D02*
X190281177Y-140997946D01*
X189233558Y-141236041D02*
X189947844Y-141474136D01*
X189947844Y-140855089D01*
X189376416Y-140521755D02*
X189328797Y-140474136D01*
X189281177Y-140378898D01*
X189281177Y-140140803D01*
X189328797Y-140045565D01*
X189376416Y-139997946D01*
X189471654Y-139950327D01*
X189566892Y-139950327D01*
X189709749Y-139997946D01*
X190281177Y-140569374D01*
X190281177Y-139950327D01*
X158253548Y-132139604D02*
X158253548Y-131139604D01*
X158491643Y-131139604D01*
X158634500Y-131187224D01*
X158729738Y-131282462D01*
X158777357Y-131377700D01*
X158824976Y-131568176D01*
X158824976Y-131711033D01*
X158777357Y-131901509D01*
X158729738Y-131996747D01*
X158634500Y-132091985D01*
X158491643Y-132139604D01*
X158253548Y-132139604D01*
X159205929Y-131234843D02*
X159253548Y-131187224D01*
X159348786Y-131139604D01*
X159586881Y-131139604D01*
X159682119Y-131187224D01*
X159729738Y-131234843D01*
X159777357Y-131330081D01*
X159777357Y-131425319D01*
X159729738Y-131568176D01*
X159158310Y-132139604D01*
X159777357Y-132139604D01*
X160253548Y-132139604D02*
X160444024Y-132139604D01*
X160539262Y-132091985D01*
X160586881Y-132044366D01*
X160682119Y-131901509D01*
X160729738Y-131711033D01*
X160729738Y-131330081D01*
X160682119Y-131234843D01*
X160634500Y-131187224D01*
X160539262Y-131139604D01*
X160348786Y-131139604D01*
X160253548Y-131187224D01*
X160205929Y-131234843D01*
X160158310Y-131330081D01*
X160158310Y-131568176D01*
X160205929Y-131663414D01*
X160253548Y-131711033D01*
X160348786Y-131758652D01*
X160539262Y-131758652D01*
X160634500Y-131711033D01*
X160682119Y-131663414D01*
X160729738Y-131568176D01*
X154086357Y-102969267D02*
X154086357Y-101969267D01*
X154324452Y-101969267D01*
X154467309Y-102016887D01*
X154562547Y-102112125D01*
X154610166Y-102207363D01*
X154657785Y-102397839D01*
X154657785Y-102540696D01*
X154610166Y-102731172D01*
X154562547Y-102826410D01*
X154467309Y-102921648D01*
X154324452Y-102969267D01*
X154086357Y-102969267D01*
X155610166Y-102969267D02*
X155038738Y-102969267D01*
X155324452Y-102969267D02*
X155324452Y-101969267D01*
X155229214Y-102112125D01*
X155133976Y-102207363D01*
X155038738Y-102254982D01*
X156514928Y-101969267D02*
X156038738Y-101969267D01*
X155991119Y-102445458D01*
X156038738Y-102397839D01*
X156133976Y-102350220D01*
X156372071Y-102350220D01*
X156467309Y-102397839D01*
X156514928Y-102445458D01*
X156562547Y-102540696D01*
X156562547Y-102778791D01*
X156514928Y-102874029D01*
X156467309Y-102921648D01*
X156372071Y-102969267D01*
X156133976Y-102969267D01*
X156038738Y-102921648D01*
X155991119Y-102874029D01*
X152776608Y-97016137D02*
X152776608Y-96016137D01*
X153014704Y-96016137D01*
X153157561Y-96063757D01*
X153252799Y-96158995D01*
X153300418Y-96254233D01*
X153348037Y-96444709D01*
X153348037Y-96587566D01*
X153300418Y-96778042D01*
X153252799Y-96873280D01*
X153157561Y-96968518D01*
X153014704Y-97016137D01*
X152776608Y-97016137D01*
X153681370Y-96016137D02*
X154300418Y-96016137D01*
X153967084Y-96397090D01*
X154109942Y-96397090D01*
X154205180Y-96444709D01*
X154252799Y-96492328D01*
X154300418Y-96587566D01*
X154300418Y-96825661D01*
X154252799Y-96920899D01*
X154205180Y-96968518D01*
X154109942Y-97016137D01*
X153824227Y-97016137D01*
X153728989Y-96968518D01*
X153681370Y-96920899D01*
X165397304Y-76180182D02*
X165397304Y-75180182D01*
X165635399Y-75180182D01*
X165778256Y-75227802D01*
X165873494Y-75323040D01*
X165921113Y-75418278D01*
X165968732Y-75608754D01*
X165968732Y-75751611D01*
X165921113Y-75942087D01*
X165873494Y-76037325D01*
X165778256Y-76132563D01*
X165635399Y-76180182D01*
X165397304Y-76180182D01*
X166349685Y-75275421D02*
X166397304Y-75227802D01*
X166492542Y-75180182D01*
X166730637Y-75180182D01*
X166825875Y-75227802D01*
X166873494Y-75275421D01*
X166921113Y-75370659D01*
X166921113Y-75465897D01*
X166873494Y-75608754D01*
X166302066Y-76180182D01*
X166921113Y-76180182D01*
X167778256Y-75180182D02*
X167587780Y-75180182D01*
X167492542Y-75227802D01*
X167444923Y-75275421D01*
X167349685Y-75418278D01*
X167302066Y-75608754D01*
X167302066Y-75989706D01*
X167349685Y-76084944D01*
X167397304Y-76132563D01*
X167492542Y-76180182D01*
X167683018Y-76180182D01*
X167778256Y-76132563D01*
X167825875Y-76084944D01*
X167873494Y-75989706D01*
X167873494Y-75751611D01*
X167825875Y-75656373D01*
X167778256Y-75608754D01*
X167683018Y-75561135D01*
X167492542Y-75561135D01*
X167397304Y-75608754D01*
X167349685Y-75656373D01*
X167302066Y-75751611D01*
X194448368Y-102683553D02*
X193972178Y-103016887D01*
X194448368Y-103254982D02*
X193448368Y-103254982D01*
X193448368Y-102874029D01*
X193495988Y-102778791D01*
X193543607Y-102731172D01*
X193638845Y-102683553D01*
X193781702Y-102683553D01*
X193876940Y-102731172D01*
X193924559Y-102778791D01*
X193972178Y-102874029D01*
X193972178Y-103254982D01*
X193781702Y-101826410D02*
X194448368Y-101826410D01*
X193400749Y-102064506D02*
X194115035Y-102302601D01*
X194115035Y-101683553D01*
X182065918Y-88705565D02*
X182542108Y-88705565D01*
X181542108Y-89038898D02*
X182065918Y-88705565D01*
X181542108Y-88372232D01*
X182542108Y-87515089D02*
X182542108Y-88086517D01*
X182542108Y-87800803D02*
X181542108Y-87800803D01*
X181684966Y-87896041D01*
X181780204Y-87991279D01*
X181827823Y-88086517D01*
X165397304Y-123805222D02*
X165397304Y-122805222D01*
X165635399Y-122805222D01*
X165778256Y-122852842D01*
X165873494Y-122948080D01*
X165921113Y-123043318D01*
X165968732Y-123233794D01*
X165968732Y-123376651D01*
X165921113Y-123567127D01*
X165873494Y-123662365D01*
X165778256Y-123757603D01*
X165635399Y-123805222D01*
X165397304Y-123805222D01*
X166921113Y-123805222D02*
X166349685Y-123805222D01*
X166635399Y-123805222D02*
X166635399Y-122805222D01*
X166540161Y-122948080D01*
X166444923Y-123043318D01*
X166349685Y-123090937D01*
X167254447Y-122805222D02*
X167921113Y-122805222D01*
X167492542Y-123805222D01*
X194448368Y-109827309D02*
X193972178Y-110160643D01*
X194448368Y-110398738D02*
X193448368Y-110398738D01*
X193448368Y-110017785D01*
X193495988Y-109922547D01*
X193543607Y-109874928D01*
X193638845Y-109827309D01*
X193781702Y-109827309D01*
X193876940Y-109874928D01*
X193924559Y-109922547D01*
X193972178Y-110017785D01*
X193972178Y-110398738D01*
X194448368Y-108874928D02*
X194448368Y-109446357D01*
X194448368Y-109160643D02*
X193448368Y-109160643D01*
X193591226Y-109255881D01*
X193686464Y-109351119D01*
X193734083Y-109446357D01*
X175731809Y-56668914D02*
X175398476Y-56192724D01*
X175160380Y-56668914D02*
X175160380Y-55668914D01*
X175541333Y-55668914D01*
X175636571Y-55716534D01*
X175684190Y-55764153D01*
X175731809Y-55859391D01*
X175731809Y-56002248D01*
X175684190Y-56097486D01*
X175636571Y-56145105D01*
X175541333Y-56192724D01*
X175160380Y-56192724D01*
X176065142Y-55668914D02*
X176731809Y-55668914D01*
X176303237Y-56668914D01*
X188114313Y-56668914D02*
X187780980Y-56192724D01*
X187542884Y-56668914D02*
X187542884Y-55668914D01*
X187923837Y-55668914D01*
X188019075Y-55716534D01*
X188066694Y-55764153D01*
X188114313Y-55859391D01*
X188114313Y-56002248D01*
X188066694Y-56097486D01*
X188019075Y-56145105D01*
X187923837Y-56192724D01*
X187542884Y-56192724D01*
X188685741Y-56097486D02*
X188590503Y-56049867D01*
X188542884Y-56002248D01*
X188495265Y-55907010D01*
X188495265Y-55859391D01*
X188542884Y-55764153D01*
X188590503Y-55716534D01*
X188685741Y-55668914D01*
X188876218Y-55668914D01*
X188971456Y-55716534D01*
X189019075Y-55764153D01*
X189066694Y-55859391D01*
X189066694Y-55907010D01*
X189019075Y-56002248D01*
X188971456Y-56049867D01*
X188876218Y-56097486D01*
X188685741Y-56097486D01*
X188590503Y-56145105D01*
X188542884Y-56192724D01*
X188495265Y-56287962D01*
X188495265Y-56478438D01*
X188542884Y-56573676D01*
X188590503Y-56621295D01*
X188685741Y-56668914D01*
X188876218Y-56668914D01*
X188971456Y-56621295D01*
X189019075Y-56573676D01*
X189066694Y-56478438D01*
X189066694Y-56287962D01*
X189019075Y-56192724D01*
X188971456Y-56145105D01*
X188876218Y-56097486D01*
X194448368Y-107446057D02*
X193972178Y-107779391D01*
X194448368Y-108017486D02*
X193448368Y-108017486D01*
X193448368Y-107636533D01*
X193495988Y-107541295D01*
X193543607Y-107493676D01*
X193638845Y-107446057D01*
X193781702Y-107446057D01*
X193876940Y-107493676D01*
X193924559Y-107541295D01*
X193972178Y-107636533D01*
X193972178Y-108017486D01*
X193543607Y-107065105D02*
X193495988Y-107017486D01*
X193448368Y-106922248D01*
X193448368Y-106684152D01*
X193495988Y-106588914D01*
X193543607Y-106541295D01*
X193638845Y-106493676D01*
X193734083Y-106493676D01*
X193876940Y-106541295D01*
X194448368Y-107112724D01*
X194448368Y-106493676D01*
X195032315Y-119209310D02*
X194032315Y-119209310D01*
X194032315Y-118971215D01*
X194079935Y-118828358D01*
X194175173Y-118733120D01*
X194270411Y-118685501D01*
X194460887Y-118637882D01*
X194603744Y-118637882D01*
X194794220Y-118685501D01*
X194889458Y-118733120D01*
X194984696Y-118828358D01*
X195032315Y-118971215D01*
X195032315Y-119209310D01*
X194032315Y-117780739D02*
X194032315Y-117971215D01*
X194079935Y-118066453D01*
X194127554Y-118114072D01*
X194270411Y-118209310D01*
X194460887Y-118256929D01*
X194841839Y-118256929D01*
X194937077Y-118209310D01*
X194984696Y-118161691D01*
X195032315Y-118066453D01*
X195032315Y-117875977D01*
X194984696Y-117780739D01*
X194937077Y-117733120D01*
X194841839Y-117685501D01*
X194603744Y-117685501D01*
X194508506Y-117733120D01*
X194460887Y-117780739D01*
X194413268Y-117875977D01*
X194413268Y-118066453D01*
X194460887Y-118161691D01*
X194508506Y-118209310D01*
X194603744Y-118256929D01*
X195032315Y-116733120D02*
X195032315Y-117304548D01*
X195032315Y-117018834D02*
X194032315Y-117018834D01*
X194175173Y-117114072D01*
X194270411Y-117209310D01*
X194318030Y-117304548D01*
X195043681Y-115042119D02*
X194043681Y-115042119D01*
X194043681Y-114804024D01*
X194091301Y-114661167D01*
X194186539Y-114565929D01*
X194281777Y-114518310D01*
X194472253Y-114470691D01*
X194615110Y-114470691D01*
X194805586Y-114518310D01*
X194900824Y-114565929D01*
X194996062Y-114661167D01*
X195043681Y-114804024D01*
X195043681Y-115042119D01*
X194043681Y-113613548D02*
X194043681Y-113804024D01*
X194091301Y-113899262D01*
X194138920Y-113946881D01*
X194281777Y-114042119D01*
X194472253Y-114089738D01*
X194853205Y-114089738D01*
X194948443Y-114042119D01*
X194996062Y-113994500D01*
X195043681Y-113899262D01*
X195043681Y-113708786D01*
X194996062Y-113613548D01*
X194948443Y-113565929D01*
X194853205Y-113518310D01*
X194615110Y-113518310D01*
X194519872Y-113565929D01*
X194472253Y-113613548D01*
X194424634Y-113708786D01*
X194424634Y-113899262D01*
X194472253Y-113994500D01*
X194519872Y-114042119D01*
X194615110Y-114089738D01*
X194138920Y-113137357D02*
X194091301Y-113089738D01*
X194043681Y-112994500D01*
X194043681Y-112756405D01*
X194091301Y-112661167D01*
X194138920Y-112613548D01*
X194234158Y-112565929D01*
X194329396Y-112565929D01*
X194472253Y-112613548D01*
X195043681Y-113184976D01*
X195043681Y-112565929D01*
X42619819Y-70227052D02*
X42286486Y-69750862D01*
X42048390Y-70227052D02*
X42048390Y-69227052D01*
X42429343Y-69227052D01*
X42524581Y-69274672D01*
X42572200Y-69322291D01*
X42619819Y-69417529D01*
X42619819Y-69560386D01*
X42572200Y-69655624D01*
X42524581Y-69703243D01*
X42429343Y-69750862D01*
X42048390Y-69750862D01*
X43524581Y-69227052D02*
X43048390Y-69227052D01*
X43000771Y-69703243D01*
X43048390Y-69655624D01*
X43143628Y-69608005D01*
X43381724Y-69608005D01*
X43476962Y-69655624D01*
X43524581Y-69703243D01*
X43572200Y-69798481D01*
X43572200Y-70036576D01*
X43524581Y-70131814D01*
X43476962Y-70179433D01*
X43381724Y-70227052D01*
X43143628Y-70227052D01*
X43048390Y-70179433D01*
X43000771Y-70131814D01*
X73576095Y-70227052D02*
X73242762Y-69750862D01*
X73004666Y-70227052D02*
X73004666Y-69227052D01*
X73385619Y-69227052D01*
X73480857Y-69274672D01*
X73528476Y-69322291D01*
X73576095Y-69417529D01*
X73576095Y-69560386D01*
X73528476Y-69655624D01*
X73480857Y-69703243D01*
X73385619Y-69750862D01*
X73004666Y-69750862D01*
X74433238Y-69227052D02*
X74242762Y-69227052D01*
X74147523Y-69274672D01*
X74099904Y-69322291D01*
X74004666Y-69465148D01*
X73957047Y-69655624D01*
X73957047Y-70036576D01*
X74004666Y-70131814D01*
X74052285Y-70179433D01*
X74147523Y-70227052D01*
X74338000Y-70227052D01*
X74433238Y-70179433D01*
X74480857Y-70131814D01*
X74528476Y-70036576D01*
X74528476Y-69798481D01*
X74480857Y-69703243D01*
X74433238Y-69655624D01*
X74338000Y-69608005D01*
X74147523Y-69608005D01*
X74052285Y-69655624D01*
X74004666Y-69703243D01*
X73957047Y-69798481D01*
X194448368Y-105064805D02*
X193972178Y-105398139D01*
X194448368Y-105636234D02*
X193448368Y-105636234D01*
X193448368Y-105255281D01*
X193495988Y-105160043D01*
X193543607Y-105112424D01*
X193638845Y-105064805D01*
X193781702Y-105064805D01*
X193876940Y-105112424D01*
X193924559Y-105160043D01*
X193972178Y-105255281D01*
X193972178Y-105636234D01*
X193448368Y-104731472D02*
X193448368Y-104112424D01*
X193829321Y-104445758D01*
X193829321Y-104302900D01*
X193876940Y-104207662D01*
X193924559Y-104160043D01*
X194019797Y-104112424D01*
X194257892Y-104112424D01*
X194353130Y-104160043D01*
X194400749Y-104207662D01*
X194448368Y-104302900D01*
X194448368Y-104588615D01*
X194400749Y-104683853D01*
X194353130Y-104731472D01*
X154681670Y-61297357D02*
X154681670Y-60297357D01*
X154919765Y-60297357D01*
X155062622Y-60344977D01*
X155157860Y-60440215D01*
X155205479Y-60535453D01*
X155253098Y-60725929D01*
X155253098Y-60868786D01*
X155205479Y-61059262D01*
X155157860Y-61154500D01*
X155062622Y-61249738D01*
X154919765Y-61297357D01*
X154681670Y-61297357D01*
X155634051Y-60392596D02*
X155681670Y-60344977D01*
X155776908Y-60297357D01*
X156015003Y-60297357D01*
X156110241Y-60344977D01*
X156157860Y-60392596D01*
X156205479Y-60487834D01*
X156205479Y-60583072D01*
X156157860Y-60725929D01*
X155586432Y-61297357D01*
X156205479Y-61297357D01*
X157110241Y-60297357D02*
X156634051Y-60297357D01*
X156586432Y-60773548D01*
X156634051Y-60725929D01*
X156729289Y-60678310D01*
X156967384Y-60678310D01*
X157062622Y-60725929D01*
X157110241Y-60773548D01*
X157157860Y-60868786D01*
X157157860Y-61106881D01*
X157110241Y-61202119D01*
X157062622Y-61249738D01*
X156967384Y-61297357D01*
X156729289Y-61297357D01*
X156634051Y-61249738D01*
X156586432Y-61202119D01*
X154681670Y-67250487D02*
X154681670Y-66250487D01*
X154919765Y-66250487D01*
X155062622Y-66298107D01*
X155157860Y-66393345D01*
X155205479Y-66488583D01*
X155253098Y-66679059D01*
X155253098Y-66821916D01*
X155205479Y-67012392D01*
X155157860Y-67107630D01*
X155062622Y-67202868D01*
X154919765Y-67250487D01*
X154681670Y-67250487D01*
X156205479Y-67250487D02*
X155634051Y-67250487D01*
X155919765Y-67250487D02*
X155919765Y-66250487D01*
X155824527Y-66393345D01*
X155729289Y-66488583D01*
X155634051Y-66536202D01*
X156538813Y-66250487D02*
X157157860Y-66250487D01*
X156824527Y-66631440D01*
X156967384Y-66631440D01*
X157062622Y-66679059D01*
X157110241Y-66726678D01*
X157157860Y-66821916D01*
X157157860Y-67060011D01*
X157110241Y-67155249D01*
X157062622Y-67202868D01*
X156967384Y-67250487D01*
X156681670Y-67250487D01*
X156586432Y-67202868D01*
X156538813Y-67155249D01*
X171826474Y-131115570D02*
X170826474Y-131115570D01*
X170826474Y-130877475D01*
X170874094Y-130734618D01*
X170969332Y-130639380D01*
X171064570Y-130591761D01*
X171255046Y-130544142D01*
X171397903Y-130544142D01*
X171588379Y-130591761D01*
X171683617Y-130639380D01*
X171778855Y-130734618D01*
X171826474Y-130877475D01*
X171826474Y-131115570D01*
X171826474Y-129591761D02*
X171826474Y-130163189D01*
X171826474Y-129877475D02*
X170826474Y-129877475D01*
X170969332Y-129972713D01*
X171064570Y-130067951D01*
X171112189Y-130163189D01*
X171255046Y-129020332D02*
X171207427Y-129115570D01*
X171159808Y-129163189D01*
X171064570Y-129210808D01*
X171016951Y-129210808D01*
X170921713Y-129163189D01*
X170874094Y-129115570D01*
X170826474Y-129020332D01*
X170826474Y-128829856D01*
X170874094Y-128734618D01*
X170921713Y-128686999D01*
X171016951Y-128639380D01*
X171064570Y-128639380D01*
X171159808Y-128686999D01*
X171207427Y-128734618D01*
X171255046Y-128829856D01*
X171255046Y-129020332D01*
X171302665Y-129115570D01*
X171350284Y-129163189D01*
X171445522Y-129210808D01*
X171635998Y-129210808D01*
X171731236Y-129163189D01*
X171778855Y-129115570D01*
X171826474Y-129020332D01*
X171826474Y-128829856D01*
X171778855Y-128734618D01*
X171731236Y-128686999D01*
X171635998Y-128639380D01*
X171445522Y-128639380D01*
X171350284Y-128686999D01*
X171302665Y-128734618D01*
X171255046Y-128829856D01*
D12*
X46780187Y-83049203D02*
X46780187Y-81779203D01*
X47288187Y-82686346D01*
X47796187Y-81779203D01*
X47796187Y-83049203D01*
X48376758Y-81779203D02*
X49392758Y-83049203D01*
X49392758Y-81779203D02*
X48376758Y-83049203D01*
X49900758Y-81900156D02*
X49973330Y-81839680D01*
X50118473Y-81779203D01*
X50481330Y-81779203D01*
X50626473Y-81839680D01*
X50699044Y-81900156D01*
X50771616Y-82021108D01*
X50771616Y-82142060D01*
X50699044Y-82323489D01*
X49828187Y-83049203D01*
X50771616Y-83049203D01*
X46780187Y-102099219D02*
X46780187Y-100829219D01*
X47288187Y-101736362D01*
X47796187Y-100829219D01*
X47796187Y-102099219D01*
X48376758Y-100829219D02*
X49392758Y-102099219D01*
X49392758Y-100829219D02*
X48376758Y-102099219D01*
X49828187Y-100829219D02*
X50771616Y-100829219D01*
X50263616Y-101313029D01*
X50481330Y-101313029D01*
X50626473Y-101373505D01*
X50699044Y-101433981D01*
X50771616Y-101554934D01*
X50771616Y-101857315D01*
X50699044Y-101978267D01*
X50626473Y-102038743D01*
X50481330Y-102099219D01*
X50045901Y-102099219D01*
X49900758Y-102038743D01*
X49828187Y-101978267D01*
X46780187Y-121149235D02*
X46780187Y-119879235D01*
X47288187Y-120786378D01*
X47796187Y-119879235D01*
X47796187Y-121149235D01*
X48376758Y-119879235D02*
X49392758Y-121149235D01*
X49392758Y-119879235D02*
X48376758Y-121149235D01*
X50626473Y-120302569D02*
X50626473Y-121149235D01*
X50263616Y-119818759D02*
X49900758Y-120725902D01*
X50844187Y-120725902D01*
X46780187Y-140199251D02*
X46780187Y-138929251D01*
X47288187Y-139836394D01*
X47796187Y-138929251D01*
X47796187Y-140199251D01*
X48376758Y-138929251D02*
X49392758Y-140199251D01*
X49392758Y-138929251D02*
X48376758Y-140199251D01*
X50699044Y-138929251D02*
X49973330Y-138929251D01*
X49900758Y-139534013D01*
X49973330Y-139473537D01*
X50118473Y-139413061D01*
X50481330Y-139413061D01*
X50626473Y-139473537D01*
X50699044Y-139534013D01*
X50771616Y-139654966D01*
X50771616Y-139957347D01*
X50699044Y-140078299D01*
X50626473Y-140138775D01*
X50481330Y-140199251D01*
X50118473Y-140199251D01*
X49973330Y-140138775D01*
X49900758Y-140078299D01*
X65830203Y-140199251D02*
X65830203Y-138929251D01*
X66338203Y-139836394D01*
X66846203Y-138929251D01*
X66846203Y-140199251D01*
X67426774Y-138929251D02*
X68442774Y-140199251D01*
X68442774Y-138929251D02*
X67426774Y-140199251D01*
X69676489Y-138929251D02*
X69386203Y-138929251D01*
X69241060Y-138989728D01*
X69168489Y-139050204D01*
X69023346Y-139231632D01*
X68950774Y-139473537D01*
X68950774Y-139957347D01*
X69023346Y-140078299D01*
X69095917Y-140138775D01*
X69241060Y-140199251D01*
X69531346Y-140199251D01*
X69676489Y-140138775D01*
X69749060Y-140078299D01*
X69821632Y-139957347D01*
X69821632Y-139654966D01*
X69749060Y-139534013D01*
X69676489Y-139473537D01*
X69531346Y-139413061D01*
X69241060Y-139413061D01*
X69095917Y-139473537D01*
X69023346Y-139534013D01*
X68950774Y-139654966D01*
X65830203Y-57649187D02*
X65830203Y-56379187D01*
X66338203Y-57286330D01*
X66846203Y-56379187D01*
X66846203Y-57649187D01*
X67426774Y-56379187D02*
X68442774Y-57649187D01*
X68442774Y-56379187D02*
X67426774Y-57649187D01*
X68878203Y-56379187D02*
X69894203Y-56379187D01*
X69241060Y-57649187D01*
X65830203Y-83049203D02*
X65830203Y-81779203D01*
X66338203Y-82686346D01*
X66846203Y-81779203D01*
X66846203Y-83049203D01*
X67426774Y-81779203D02*
X68442774Y-83049203D01*
X68442774Y-81779203D02*
X67426774Y-83049203D01*
X69241060Y-82323489D02*
X69095917Y-82263013D01*
X69023346Y-82202537D01*
X68950774Y-82081584D01*
X68950774Y-82021108D01*
X69023346Y-81900156D01*
X69095917Y-81839680D01*
X69241060Y-81779203D01*
X69531346Y-81779203D01*
X69676489Y-81839680D01*
X69749060Y-81900156D01*
X69821632Y-82021108D01*
X69821632Y-82081584D01*
X69749060Y-82202537D01*
X69676489Y-82263013D01*
X69531346Y-82323489D01*
X69241060Y-82323489D01*
X69095917Y-82383965D01*
X69023346Y-82444441D01*
X68950774Y-82565394D01*
X68950774Y-82807299D01*
X69023346Y-82928251D01*
X69095917Y-82988727D01*
X69241060Y-83049203D01*
X69531346Y-83049203D01*
X69676489Y-82988727D01*
X69749060Y-82928251D01*
X69821632Y-82807299D01*
X69821632Y-82565394D01*
X69749060Y-82444441D01*
X69676489Y-82383965D01*
X69531346Y-82323489D01*
X65830203Y-102099219D02*
X65830203Y-100829219D01*
X66338203Y-101736362D01*
X66846203Y-100829219D01*
X66846203Y-102099219D01*
X67426774Y-100829219D02*
X68442774Y-102099219D01*
X68442774Y-100829219D02*
X67426774Y-102099219D01*
X69095917Y-102099219D02*
X69386203Y-102099219D01*
X69531346Y-102038743D01*
X69603917Y-101978267D01*
X69749060Y-101796838D01*
X69821632Y-101554934D01*
X69821632Y-101071124D01*
X69749060Y-100950172D01*
X69676489Y-100889696D01*
X69531346Y-100829219D01*
X69241060Y-100829219D01*
X69095917Y-100889696D01*
X69023346Y-100950172D01*
X68950774Y-101071124D01*
X68950774Y-101373505D01*
X69023346Y-101494457D01*
X69095917Y-101554934D01*
X69241060Y-101615410D01*
X69531346Y-101615410D01*
X69676489Y-101554934D01*
X69749060Y-101494457D01*
X69821632Y-101373505D01*
X65104489Y-121149235D02*
X65104489Y-119879235D01*
X65612489Y-120786378D01*
X66120489Y-119879235D01*
X66120489Y-121149235D01*
X66701060Y-119879235D02*
X67717060Y-121149235D01*
X67717060Y-119879235D02*
X66701060Y-121149235D01*
X69095917Y-121149235D02*
X68225060Y-121149235D01*
X68660489Y-121149235D02*
X68660489Y-119879235D01*
X68515346Y-120060664D01*
X68370203Y-120181616D01*
X68225060Y-120242092D01*
X70039346Y-119879235D02*
X70184489Y-119879235D01*
X70329632Y-119939712D01*
X70402203Y-120000188D01*
X70474774Y-120121140D01*
X70547346Y-120363045D01*
X70547346Y-120665426D01*
X70474774Y-120907331D01*
X70402203Y-121028283D01*
X70329632Y-121088759D01*
X70184489Y-121149235D01*
X70039346Y-121149235D01*
X69894203Y-121088759D01*
X69821632Y-121028283D01*
X69749060Y-120907331D01*
X69676489Y-120665426D01*
X69676489Y-120363045D01*
X69749060Y-120121140D01*
X69821632Y-120000188D01*
X69894203Y-119939712D01*
X70039346Y-119879235D01*
X84154505Y-121149235D02*
X84154505Y-119879235D01*
X84662505Y-120786378D01*
X85170505Y-119879235D01*
X85170505Y-121149235D01*
X85751076Y-119879235D02*
X86767076Y-121149235D01*
X86767076Y-119879235D02*
X85751076Y-121149235D01*
X88145933Y-121149235D02*
X87275076Y-121149235D01*
X87710505Y-121149235D02*
X87710505Y-119879235D01*
X87565362Y-120060664D01*
X87420219Y-120181616D01*
X87275076Y-120242092D01*
X89597362Y-121149235D02*
X88726505Y-121149235D01*
X89161933Y-121149235D02*
X89161933Y-119879235D01*
X89016790Y-120060664D01*
X88871648Y-120181616D01*
X88726505Y-120242092D01*
X84154505Y-140199251D02*
X84154505Y-138929251D01*
X84662505Y-139836394D01*
X85170505Y-138929251D01*
X85170505Y-140199251D01*
X85751076Y-138929251D02*
X86767076Y-140199251D01*
X86767076Y-138929251D02*
X85751076Y-140199251D01*
X88145933Y-140199251D02*
X87275076Y-140199251D01*
X87710505Y-140199251D02*
X87710505Y-138929251D01*
X87565362Y-139110680D01*
X87420219Y-139231632D01*
X87275076Y-139292108D01*
X88726505Y-139050204D02*
X88799076Y-138989728D01*
X88944219Y-138929251D01*
X89307076Y-138929251D01*
X89452219Y-138989728D01*
X89524790Y-139050204D01*
X89597362Y-139171156D01*
X89597362Y-139292108D01*
X89524790Y-139473537D01*
X88653933Y-140199251D01*
X89597362Y-140199251D01*
X84154505Y-102099219D02*
X84154505Y-100829219D01*
X84662505Y-101736362D01*
X85170505Y-100829219D01*
X85170505Y-102099219D01*
X85751076Y-100829219D02*
X86767076Y-102099219D01*
X86767076Y-100829219D02*
X85751076Y-102099219D01*
X88145933Y-102099219D02*
X87275076Y-102099219D01*
X87710505Y-102099219D02*
X87710505Y-100829219D01*
X87565362Y-101010648D01*
X87420219Y-101131600D01*
X87275076Y-101192076D01*
X89524790Y-100829219D02*
X88799076Y-100829219D01*
X88726505Y-101433981D01*
X88799076Y-101373505D01*
X88944219Y-101313029D01*
X89307076Y-101313029D01*
X89452219Y-101373505D01*
X89524790Y-101433981D01*
X89597362Y-101554934D01*
X89597362Y-101857315D01*
X89524790Y-101978267D01*
X89452219Y-102038743D01*
X89307076Y-102099219D01*
X88944219Y-102099219D01*
X88799076Y-102038743D01*
X88726505Y-101978267D01*
X103204521Y-102099219D02*
X103204521Y-100829219D01*
X103712521Y-101736362D01*
X104220521Y-100829219D01*
X104220521Y-102099219D01*
X104801092Y-100829219D02*
X105817092Y-102099219D01*
X105817092Y-100829219D02*
X104801092Y-102099219D01*
X107195949Y-102099219D02*
X106325092Y-102099219D01*
X106760521Y-102099219D02*
X106760521Y-100829219D01*
X106615378Y-101010648D01*
X106470235Y-101131600D01*
X106325092Y-101192076D01*
X108502235Y-100829219D02*
X108211949Y-100829219D01*
X108066806Y-100889696D01*
X107994235Y-100950172D01*
X107849092Y-101131600D01*
X107776521Y-101373505D01*
X107776521Y-101857315D01*
X107849092Y-101978267D01*
X107921664Y-102038743D01*
X108066806Y-102099219D01*
X108357092Y-102099219D01*
X108502235Y-102038743D01*
X108574806Y-101978267D01*
X108647378Y-101857315D01*
X108647378Y-101554934D01*
X108574806Y-101433981D01*
X108502235Y-101373505D01*
X108357092Y-101313029D01*
X108066806Y-101313029D01*
X107921664Y-101373505D01*
X107849092Y-101433981D01*
X107776521Y-101554934D01*
X103204521Y-121149235D02*
X103204521Y-119879235D01*
X103712521Y-120786378D01*
X104220521Y-119879235D01*
X104220521Y-121149235D01*
X104801092Y-119879235D02*
X105817092Y-121149235D01*
X105817092Y-119879235D02*
X104801092Y-121149235D01*
X107195949Y-121149235D02*
X106325092Y-121149235D01*
X106760521Y-121149235D02*
X106760521Y-119879235D01*
X106615378Y-120060664D01*
X106470235Y-120181616D01*
X106325092Y-120242092D01*
X107703949Y-119879235D02*
X108719949Y-119879235D01*
X108066806Y-121149235D01*
X103204521Y-140199251D02*
X103204521Y-138929251D01*
X103712521Y-139836394D01*
X104220521Y-138929251D01*
X104220521Y-140199251D01*
X104801092Y-138929251D02*
X105817092Y-140199251D01*
X105817092Y-138929251D02*
X104801092Y-140199251D01*
X107195949Y-140199251D02*
X106325092Y-140199251D01*
X106760521Y-140199251D02*
X106760521Y-138929251D01*
X106615378Y-139110680D01*
X106470235Y-139231632D01*
X106325092Y-139292108D01*
X108066806Y-139473537D02*
X107921664Y-139413061D01*
X107849092Y-139352585D01*
X107776521Y-139231632D01*
X107776521Y-139171156D01*
X107849092Y-139050204D01*
X107921664Y-138989728D01*
X108066806Y-138929251D01*
X108357092Y-138929251D01*
X108502235Y-138989728D01*
X108574806Y-139050204D01*
X108647378Y-139171156D01*
X108647378Y-139231632D01*
X108574806Y-139352585D01*
X108502235Y-139413061D01*
X108357092Y-139473537D01*
X108066806Y-139473537D01*
X107921664Y-139534013D01*
X107849092Y-139594489D01*
X107776521Y-139715442D01*
X107776521Y-139957347D01*
X107849092Y-140078299D01*
X107921664Y-140138775D01*
X108066806Y-140199251D01*
X108357092Y-140199251D01*
X108502235Y-140138775D01*
X108574806Y-140078299D01*
X108647378Y-139957347D01*
X108647378Y-139715442D01*
X108574806Y-139594489D01*
X108502235Y-139534013D01*
X108357092Y-139473537D01*
X103204521Y-63999187D02*
X103204521Y-62729187D01*
X103712521Y-63636330D01*
X104220521Y-62729187D01*
X104220521Y-63999187D01*
X104801092Y-62729187D02*
X105817092Y-63999187D01*
X105817092Y-62729187D02*
X104801092Y-63999187D01*
X107195949Y-63999187D02*
X106325092Y-63999187D01*
X106760521Y-63999187D02*
X106760521Y-62729187D01*
X106615378Y-62910616D01*
X106470235Y-63031568D01*
X106325092Y-63092044D01*
X107921664Y-63999187D02*
X108211949Y-63999187D01*
X108357092Y-63938711D01*
X108429664Y-63878235D01*
X108574806Y-63696806D01*
X108647378Y-63454902D01*
X108647378Y-62971092D01*
X108574806Y-62850140D01*
X108502235Y-62789664D01*
X108357092Y-62729187D01*
X108066806Y-62729187D01*
X107921664Y-62789664D01*
X107849092Y-62850140D01*
X107776521Y-62971092D01*
X107776521Y-63273473D01*
X107849092Y-63394425D01*
X107921664Y-63454902D01*
X108066806Y-63515378D01*
X108357092Y-63515378D01*
X108502235Y-63454902D01*
X108574806Y-63394425D01*
X108647378Y-63273473D01*
X103204521Y-83049203D02*
X103204521Y-81779203D01*
X103712521Y-82686346D01*
X104220521Y-81779203D01*
X104220521Y-83049203D01*
X104801092Y-81779203D02*
X105817092Y-83049203D01*
X105817092Y-81779203D02*
X104801092Y-83049203D01*
X106325092Y-81900156D02*
X106397664Y-81839680D01*
X106542806Y-81779203D01*
X106905664Y-81779203D01*
X107050806Y-81839680D01*
X107123378Y-81900156D01*
X107195949Y-82021108D01*
X107195949Y-82142060D01*
X107123378Y-82323489D01*
X106252521Y-83049203D01*
X107195949Y-83049203D01*
X108139378Y-81779203D02*
X108284521Y-81779203D01*
X108429664Y-81839680D01*
X108502235Y-81900156D01*
X108574806Y-82021108D01*
X108647378Y-82263013D01*
X108647378Y-82565394D01*
X108574806Y-82807299D01*
X108502235Y-82928251D01*
X108429664Y-82988727D01*
X108284521Y-83049203D01*
X108139378Y-83049203D01*
X107994235Y-82988727D01*
X107921664Y-82928251D01*
X107849092Y-82807299D01*
X107776521Y-82565394D01*
X107776521Y-82263013D01*
X107849092Y-82021108D01*
X107921664Y-81900156D01*
X107994235Y-81839680D01*
X108139378Y-81779203D01*
X122254537Y-83049203D02*
X122254537Y-81779203D01*
X122762537Y-82686346D01*
X123270537Y-81779203D01*
X123270537Y-83049203D01*
X123851108Y-81779203D02*
X124867108Y-83049203D01*
X124867108Y-81779203D02*
X123851108Y-83049203D01*
X125375108Y-81900156D02*
X125447680Y-81839680D01*
X125592822Y-81779203D01*
X125955680Y-81779203D01*
X126100822Y-81839680D01*
X126173394Y-81900156D01*
X126245965Y-82021108D01*
X126245965Y-82142060D01*
X126173394Y-82323489D01*
X125302537Y-83049203D01*
X126245965Y-83049203D01*
X127697394Y-83049203D02*
X126826537Y-83049203D01*
X127261965Y-83049203D02*
X127261965Y-81779203D01*
X127116822Y-81960632D01*
X126971680Y-82081584D01*
X126826537Y-82142060D01*
X122254537Y-102099219D02*
X122254537Y-100829219D01*
X122762537Y-101736362D01*
X123270537Y-100829219D01*
X123270537Y-102099219D01*
X123851108Y-100829219D02*
X124867108Y-102099219D01*
X124867108Y-100829219D02*
X123851108Y-102099219D01*
X125375108Y-100950172D02*
X125447680Y-100889696D01*
X125592822Y-100829219D01*
X125955680Y-100829219D01*
X126100822Y-100889696D01*
X126173394Y-100950172D01*
X126245965Y-101071124D01*
X126245965Y-101192076D01*
X126173394Y-101373505D01*
X125302537Y-102099219D01*
X126245965Y-102099219D01*
X126826537Y-100950172D02*
X126899108Y-100889696D01*
X127044251Y-100829219D01*
X127407108Y-100829219D01*
X127552251Y-100889696D01*
X127624822Y-100950172D01*
X127697394Y-101071124D01*
X127697394Y-101192076D01*
X127624822Y-101373505D01*
X126753965Y-102099219D01*
X127697394Y-102099219D01*
X122254537Y-121149235D02*
X122254537Y-119879235D01*
X122762537Y-120786378D01*
X123270537Y-119879235D01*
X123270537Y-121149235D01*
X123851108Y-119879235D02*
X124867108Y-121149235D01*
X124867108Y-119879235D02*
X123851108Y-121149235D01*
X125375108Y-120000188D02*
X125447680Y-119939712D01*
X125592822Y-119879235D01*
X125955680Y-119879235D01*
X126100822Y-119939712D01*
X126173394Y-120000188D01*
X126245965Y-120121140D01*
X126245965Y-120242092D01*
X126173394Y-120423521D01*
X125302537Y-121149235D01*
X126245965Y-121149235D01*
X126753965Y-119879235D02*
X127697394Y-119879235D01*
X127189394Y-120363045D01*
X127407108Y-120363045D01*
X127552251Y-120423521D01*
X127624822Y-120483997D01*
X127697394Y-120604950D01*
X127697394Y-120907331D01*
X127624822Y-121028283D01*
X127552251Y-121088759D01*
X127407108Y-121149235D01*
X126971680Y-121149235D01*
X126826537Y-121088759D01*
X126753965Y-121028283D01*
X122254537Y-140199251D02*
X122254537Y-138929251D01*
X122762537Y-139836394D01*
X123270537Y-138929251D01*
X123270537Y-140199251D01*
X123851108Y-138929251D02*
X124867108Y-140199251D01*
X124867108Y-138929251D02*
X123851108Y-140199251D01*
X125375108Y-139050204D02*
X125447680Y-138989728D01*
X125592822Y-138929251D01*
X125955680Y-138929251D01*
X126100822Y-138989728D01*
X126173394Y-139050204D01*
X126245965Y-139171156D01*
X126245965Y-139292108D01*
X126173394Y-139473537D01*
X125302537Y-140199251D01*
X126245965Y-140199251D01*
X127552251Y-139352585D02*
X127552251Y-140199251D01*
X127189394Y-138868775D02*
X126826537Y-139775918D01*
X127769965Y-139775918D01*
X122254537Y-63999187D02*
X122254537Y-62729187D01*
X122762537Y-63636330D01*
X123270537Y-62729187D01*
X123270537Y-63999187D01*
X123851108Y-62729187D02*
X124867108Y-63999187D01*
X124867108Y-62729187D02*
X123851108Y-63999187D01*
X125375108Y-62850140D02*
X125447680Y-62789664D01*
X125592822Y-62729187D01*
X125955680Y-62729187D01*
X126100822Y-62789664D01*
X126173394Y-62850140D01*
X126245965Y-62971092D01*
X126245965Y-63092044D01*
X126173394Y-63273473D01*
X125302537Y-63999187D01*
X126245965Y-63999187D01*
X127624822Y-62729187D02*
X126899108Y-62729187D01*
X126826537Y-63333949D01*
X126899108Y-63273473D01*
X127044251Y-63212997D01*
X127407108Y-63212997D01*
X127552251Y-63273473D01*
X127624822Y-63333949D01*
X127697394Y-63454902D01*
X127697394Y-63757283D01*
X127624822Y-63878235D01*
X127552251Y-63938711D01*
X127407108Y-63999187D01*
X127044251Y-63999187D01*
X126899108Y-63938711D01*
X126826537Y-63878235D01*
X141304553Y-63999187D02*
X141304553Y-62729187D01*
X141812553Y-63636330D01*
X142320553Y-62729187D01*
X142320553Y-63999187D01*
X142901124Y-62729187D02*
X143917124Y-63999187D01*
X143917124Y-62729187D02*
X142901124Y-63999187D01*
X144425124Y-62850140D02*
X144497696Y-62789664D01*
X144642838Y-62729187D01*
X145005696Y-62729187D01*
X145150838Y-62789664D01*
X145223410Y-62850140D01*
X145295981Y-62971092D01*
X145295981Y-63092044D01*
X145223410Y-63273473D01*
X144352553Y-63999187D01*
X145295981Y-63999187D01*
X146602267Y-62729187D02*
X146311981Y-62729187D01*
X146166838Y-62789664D01*
X146094267Y-62850140D01*
X145949124Y-63031568D01*
X145876553Y-63273473D01*
X145876553Y-63757283D01*
X145949124Y-63878235D01*
X146021696Y-63938711D01*
X146166838Y-63999187D01*
X146457124Y-63999187D01*
X146602267Y-63938711D01*
X146674838Y-63878235D01*
X146747410Y-63757283D01*
X146747410Y-63454902D01*
X146674838Y-63333949D01*
X146602267Y-63273473D01*
X146457124Y-63212997D01*
X146166838Y-63212997D01*
X146021696Y-63273473D01*
X145949124Y-63333949D01*
X145876553Y-63454902D01*
X141304553Y-83049203D02*
X141304553Y-81779203D01*
X141812553Y-82686346D01*
X142320553Y-81779203D01*
X142320553Y-83049203D01*
X142901124Y-81779203D02*
X143917124Y-83049203D01*
X143917124Y-81779203D02*
X142901124Y-83049203D01*
X144425124Y-81900156D02*
X144497696Y-81839680D01*
X144642838Y-81779203D01*
X145005696Y-81779203D01*
X145150838Y-81839680D01*
X145223410Y-81900156D01*
X145295981Y-82021108D01*
X145295981Y-82142060D01*
X145223410Y-82323489D01*
X144352553Y-83049203D01*
X145295981Y-83049203D01*
X145803981Y-81779203D02*
X146819981Y-81779203D01*
X146166838Y-83049203D01*
X141304553Y-102099219D02*
X141304553Y-100829219D01*
X141812553Y-101736362D01*
X142320553Y-100829219D01*
X142320553Y-102099219D01*
X142901124Y-100829219D02*
X143917124Y-102099219D01*
X143917124Y-100829219D02*
X142901124Y-102099219D01*
X144425124Y-100950172D02*
X144497696Y-100889696D01*
X144642838Y-100829219D01*
X145005696Y-100829219D01*
X145150838Y-100889696D01*
X145223410Y-100950172D01*
X145295981Y-101071124D01*
X145295981Y-101192076D01*
X145223410Y-101373505D01*
X144352553Y-102099219D01*
X145295981Y-102099219D01*
X146166838Y-101373505D02*
X146021696Y-101313029D01*
X145949124Y-101252553D01*
X145876553Y-101131600D01*
X145876553Y-101071124D01*
X145949124Y-100950172D01*
X146021696Y-100889696D01*
X146166838Y-100829219D01*
X146457124Y-100829219D01*
X146602267Y-100889696D01*
X146674838Y-100950172D01*
X146747410Y-101071124D01*
X146747410Y-101131600D01*
X146674838Y-101252553D01*
X146602267Y-101313029D01*
X146457124Y-101373505D01*
X146166838Y-101373505D01*
X146021696Y-101433981D01*
X145949124Y-101494457D01*
X145876553Y-101615410D01*
X145876553Y-101857315D01*
X145949124Y-101978267D01*
X146021696Y-102038743D01*
X146166838Y-102099219D01*
X146457124Y-102099219D01*
X146602267Y-102038743D01*
X146674838Y-101978267D01*
X146747410Y-101857315D01*
X146747410Y-101615410D01*
X146674838Y-101494457D01*
X146602267Y-101433981D01*
X146457124Y-101373505D01*
X141304553Y-121149235D02*
X141304553Y-119879235D01*
X141812553Y-120786378D01*
X142320553Y-119879235D01*
X142320553Y-121149235D01*
X142901124Y-119879235D02*
X143917124Y-121149235D01*
X143917124Y-119879235D02*
X142901124Y-121149235D01*
X144425124Y-120000188D02*
X144497696Y-119939712D01*
X144642838Y-119879235D01*
X145005696Y-119879235D01*
X145150838Y-119939712D01*
X145223410Y-120000188D01*
X145295981Y-120121140D01*
X145295981Y-120242092D01*
X145223410Y-120423521D01*
X144352553Y-121149235D01*
X145295981Y-121149235D01*
X146021696Y-121149235D02*
X146311981Y-121149235D01*
X146457124Y-121088759D01*
X146529696Y-121028283D01*
X146674838Y-120846854D01*
X146747410Y-120604950D01*
X146747410Y-120121140D01*
X146674838Y-120000188D01*
X146602267Y-119939712D01*
X146457124Y-119879235D01*
X146166838Y-119879235D01*
X146021696Y-119939712D01*
X145949124Y-120000188D01*
X145876553Y-120121140D01*
X145876553Y-120423521D01*
X145949124Y-120544473D01*
X146021696Y-120604950D01*
X146166838Y-120665426D01*
X146457124Y-120665426D01*
X146602267Y-120604950D01*
X146674838Y-120544473D01*
X146747410Y-120423521D01*
X141304553Y-140199251D02*
X141304553Y-138929251D01*
X141812553Y-139836394D01*
X142320553Y-138929251D01*
X142320553Y-140199251D01*
X142901124Y-138929251D02*
X143917124Y-140199251D01*
X143917124Y-138929251D02*
X142901124Y-140199251D01*
X144352553Y-138929251D02*
X145295981Y-138929251D01*
X144787981Y-139413061D01*
X145005696Y-139413061D01*
X145150838Y-139473537D01*
X145223410Y-139534013D01*
X145295981Y-139654966D01*
X145295981Y-139957347D01*
X145223410Y-140078299D01*
X145150838Y-140138775D01*
X145005696Y-140199251D01*
X144570267Y-140199251D01*
X144425124Y-140138775D01*
X144352553Y-140078299D01*
X146239410Y-138929251D02*
X146384553Y-138929251D01*
X146529696Y-138989728D01*
X146602267Y-139050204D01*
X146674838Y-139171156D01*
X146747410Y-139413061D01*
X146747410Y-139715442D01*
X146674838Y-139957347D01*
X146602267Y-140078299D01*
X146529696Y-140138775D01*
X146384553Y-140199251D01*
X146239410Y-140199251D01*
X146094267Y-140138775D01*
X146021696Y-140078299D01*
X145949124Y-139957347D01*
X145876553Y-139715442D01*
X145876553Y-139413061D01*
X145949124Y-139171156D01*
X146021696Y-139050204D01*
X146094267Y-138989728D01*
X146239410Y-138929251D01*
X312754697Y-63999187D02*
X312754697Y-62729187D01*
X313262697Y-63636330D01*
X313770697Y-62729187D01*
X313770697Y-63999187D01*
X314351268Y-62729187D02*
X315367268Y-63999187D01*
X315367268Y-62729187D02*
X314351268Y-63999187D01*
X315802697Y-62729187D02*
X316746125Y-62729187D01*
X316238125Y-63212997D01*
X316455840Y-63212997D01*
X316600982Y-63273473D01*
X316673554Y-63333949D01*
X316746125Y-63454902D01*
X316746125Y-63757283D01*
X316673554Y-63878235D01*
X316600982Y-63938711D01*
X316455840Y-63999187D01*
X316020411Y-63999187D01*
X315875268Y-63938711D01*
X315802697Y-63878235D01*
X318197554Y-63999187D02*
X317326697Y-63999187D01*
X317762125Y-63999187D02*
X317762125Y-62729187D01*
X317616982Y-62910616D01*
X317471840Y-63031568D01*
X317326697Y-63092044D01*
X312754697Y-83049203D02*
X312754697Y-81779203D01*
X313262697Y-82686346D01*
X313770697Y-81779203D01*
X313770697Y-83049203D01*
X314351268Y-81779203D02*
X315367268Y-83049203D01*
X315367268Y-81779203D02*
X314351268Y-83049203D01*
X315802697Y-81779203D02*
X316746125Y-81779203D01*
X316238125Y-82263013D01*
X316455840Y-82263013D01*
X316600982Y-82323489D01*
X316673554Y-82383965D01*
X316746125Y-82504918D01*
X316746125Y-82807299D01*
X316673554Y-82928251D01*
X316600982Y-82988727D01*
X316455840Y-83049203D01*
X316020411Y-83049203D01*
X315875268Y-82988727D01*
X315802697Y-82928251D01*
X317326697Y-81900156D02*
X317399268Y-81839680D01*
X317544411Y-81779203D01*
X317907268Y-81779203D01*
X318052411Y-81839680D01*
X318124982Y-81900156D01*
X318197554Y-82021108D01*
X318197554Y-82142060D01*
X318124982Y-82323489D01*
X317254125Y-83049203D01*
X318197554Y-83049203D01*
X312754697Y-102099219D02*
X312754697Y-100829219D01*
X313262697Y-101736362D01*
X313770697Y-100829219D01*
X313770697Y-102099219D01*
X314351268Y-100829219D02*
X315367268Y-102099219D01*
X315367268Y-100829219D02*
X314351268Y-102099219D01*
X315802697Y-100829219D02*
X316746125Y-100829219D01*
X316238125Y-101313029D01*
X316455840Y-101313029D01*
X316600982Y-101373505D01*
X316673554Y-101433981D01*
X316746125Y-101554934D01*
X316746125Y-101857315D01*
X316673554Y-101978267D01*
X316600982Y-102038743D01*
X316455840Y-102099219D01*
X316020411Y-102099219D01*
X315875268Y-102038743D01*
X315802697Y-101978267D01*
X317254125Y-100829219D02*
X318197554Y-100829219D01*
X317689554Y-101313029D01*
X317907268Y-101313029D01*
X318052411Y-101373505D01*
X318124982Y-101433981D01*
X318197554Y-101554934D01*
X318197554Y-101857315D01*
X318124982Y-101978267D01*
X318052411Y-102038743D01*
X317907268Y-102099219D01*
X317471840Y-102099219D01*
X317326697Y-102038743D01*
X317254125Y-101978267D01*
X312754697Y-121149235D02*
X312754697Y-119879235D01*
X313262697Y-120786378D01*
X313770697Y-119879235D01*
X313770697Y-121149235D01*
X314351268Y-119879235D02*
X315367268Y-121149235D01*
X315367268Y-119879235D02*
X314351268Y-121149235D01*
X315802697Y-119879235D02*
X316746125Y-119879235D01*
X316238125Y-120363045D01*
X316455840Y-120363045D01*
X316600982Y-120423521D01*
X316673554Y-120483997D01*
X316746125Y-120604950D01*
X316746125Y-120907331D01*
X316673554Y-121028283D01*
X316600982Y-121088759D01*
X316455840Y-121149235D01*
X316020411Y-121149235D01*
X315875268Y-121088759D01*
X315802697Y-121028283D01*
X318052411Y-120302569D02*
X318052411Y-121149235D01*
X317689554Y-119818759D02*
X317326697Y-120725902D01*
X318270125Y-120725902D01*
X312754697Y-140199251D02*
X312754697Y-138929251D01*
X313262697Y-139836394D01*
X313770697Y-138929251D01*
X313770697Y-140199251D01*
X314351268Y-138929251D02*
X315367268Y-140199251D01*
X315367268Y-138929251D02*
X314351268Y-140199251D01*
X315802697Y-138929251D02*
X316746125Y-138929251D01*
X316238125Y-139413061D01*
X316455840Y-139413061D01*
X316600982Y-139473537D01*
X316673554Y-139534013D01*
X316746125Y-139654966D01*
X316746125Y-139957347D01*
X316673554Y-140078299D01*
X316600982Y-140138775D01*
X316455840Y-140199251D01*
X316020411Y-140199251D01*
X315875268Y-140138775D01*
X315802697Y-140078299D01*
X318124982Y-138929251D02*
X317399268Y-138929251D01*
X317326697Y-139534013D01*
X317399268Y-139473537D01*
X317544411Y-139413061D01*
X317907268Y-139413061D01*
X318052411Y-139473537D01*
X318124982Y-139534013D01*
X318197554Y-139654966D01*
X318197554Y-139957347D01*
X318124982Y-140078299D01*
X318052411Y-140138775D01*
X317907268Y-140199251D01*
X317544411Y-140199251D01*
X317399268Y-140138775D01*
X317326697Y-140078299D01*
X293704681Y-140199251D02*
X293704681Y-138929251D01*
X294212681Y-139836394D01*
X294720681Y-138929251D01*
X294720681Y-140199251D01*
X295301252Y-138929251D02*
X296317252Y-140199251D01*
X296317252Y-138929251D02*
X295301252Y-140199251D01*
X296752681Y-138929251D02*
X297696109Y-138929251D01*
X297188109Y-139413061D01*
X297405824Y-139413061D01*
X297550966Y-139473537D01*
X297623538Y-139534013D01*
X297696109Y-139654966D01*
X297696109Y-139957347D01*
X297623538Y-140078299D01*
X297550966Y-140138775D01*
X297405824Y-140199251D01*
X296970395Y-140199251D01*
X296825252Y-140138775D01*
X296752681Y-140078299D01*
X299002395Y-138929251D02*
X298712109Y-138929251D01*
X298566966Y-138989728D01*
X298494395Y-139050204D01*
X298349252Y-139231632D01*
X298276681Y-139473537D01*
X298276681Y-139957347D01*
X298349252Y-140078299D01*
X298421824Y-140138775D01*
X298566966Y-140199251D01*
X298857252Y-140199251D01*
X299002395Y-140138775D01*
X299074966Y-140078299D01*
X299147538Y-139957347D01*
X299147538Y-139654966D01*
X299074966Y-139534013D01*
X299002395Y-139473537D01*
X298857252Y-139413061D01*
X298566966Y-139413061D01*
X298421824Y-139473537D01*
X298349252Y-139534013D01*
X298276681Y-139654966D01*
X293704681Y-63999187D02*
X293704681Y-62729187D01*
X294212681Y-63636330D01*
X294720681Y-62729187D01*
X294720681Y-63999187D01*
X295301252Y-62729187D02*
X296317252Y-63999187D01*
X296317252Y-62729187D02*
X295301252Y-63999187D01*
X296752681Y-62729187D02*
X297696109Y-62729187D01*
X297188109Y-63212997D01*
X297405824Y-63212997D01*
X297550966Y-63273473D01*
X297623538Y-63333949D01*
X297696109Y-63454902D01*
X297696109Y-63757283D01*
X297623538Y-63878235D01*
X297550966Y-63938711D01*
X297405824Y-63999187D01*
X296970395Y-63999187D01*
X296825252Y-63938711D01*
X296752681Y-63878235D01*
X298204109Y-62729187D02*
X299220109Y-62729187D01*
X298566966Y-63999187D01*
X293704681Y-83049203D02*
X293704681Y-81779203D01*
X294212681Y-82686346D01*
X294720681Y-81779203D01*
X294720681Y-83049203D01*
X295301252Y-81779203D02*
X296317252Y-83049203D01*
X296317252Y-81779203D02*
X295301252Y-83049203D01*
X296752681Y-81779203D02*
X297696109Y-81779203D01*
X297188109Y-82263013D01*
X297405824Y-82263013D01*
X297550966Y-82323489D01*
X297623538Y-82383965D01*
X297696109Y-82504918D01*
X297696109Y-82807299D01*
X297623538Y-82928251D01*
X297550966Y-82988727D01*
X297405824Y-83049203D01*
X296970395Y-83049203D01*
X296825252Y-82988727D01*
X296752681Y-82928251D01*
X298566966Y-82323489D02*
X298421824Y-82263013D01*
X298349252Y-82202537D01*
X298276681Y-82081584D01*
X298276681Y-82021108D01*
X298349252Y-81900156D01*
X298421824Y-81839680D01*
X298566966Y-81779203D01*
X298857252Y-81779203D01*
X299002395Y-81839680D01*
X299074966Y-81900156D01*
X299147538Y-82021108D01*
X299147538Y-82081584D01*
X299074966Y-82202537D01*
X299002395Y-82263013D01*
X298857252Y-82323489D01*
X298566966Y-82323489D01*
X298421824Y-82383965D01*
X298349252Y-82444441D01*
X298276681Y-82565394D01*
X298276681Y-82807299D01*
X298349252Y-82928251D01*
X298421824Y-82988727D01*
X298566966Y-83049203D01*
X298857252Y-83049203D01*
X299002395Y-82988727D01*
X299074966Y-82928251D01*
X299147538Y-82807299D01*
X299147538Y-82565394D01*
X299074966Y-82444441D01*
X299002395Y-82383965D01*
X298857252Y-82323489D01*
X293704681Y-102099219D02*
X293704681Y-100829219D01*
X294212681Y-101736362D01*
X294720681Y-100829219D01*
X294720681Y-102099219D01*
X295301252Y-100829219D02*
X296317252Y-102099219D01*
X296317252Y-100829219D02*
X295301252Y-102099219D01*
X296752681Y-100829219D02*
X297696109Y-100829219D01*
X297188109Y-101313029D01*
X297405824Y-101313029D01*
X297550966Y-101373505D01*
X297623538Y-101433981D01*
X297696109Y-101554934D01*
X297696109Y-101857315D01*
X297623538Y-101978267D01*
X297550966Y-102038743D01*
X297405824Y-102099219D01*
X296970395Y-102099219D01*
X296825252Y-102038743D01*
X296752681Y-101978267D01*
X298421824Y-102099219D02*
X298712109Y-102099219D01*
X298857252Y-102038743D01*
X298929824Y-101978267D01*
X299074966Y-101796838D01*
X299147538Y-101554934D01*
X299147538Y-101071124D01*
X299074966Y-100950172D01*
X299002395Y-100889696D01*
X298857252Y-100829219D01*
X298566966Y-100829219D01*
X298421824Y-100889696D01*
X298349252Y-100950172D01*
X298276681Y-101071124D01*
X298276681Y-101373505D01*
X298349252Y-101494457D01*
X298421824Y-101554934D01*
X298566966Y-101615410D01*
X298857252Y-101615410D01*
X299002395Y-101554934D01*
X299074966Y-101494457D01*
X299147538Y-101373505D01*
X293704681Y-121149235D02*
X293704681Y-119879235D01*
X294212681Y-120786378D01*
X294720681Y-119879235D01*
X294720681Y-121149235D01*
X295301252Y-119879235D02*
X296317252Y-121149235D01*
X296317252Y-119879235D02*
X295301252Y-121149235D01*
X297550966Y-120302569D02*
X297550966Y-121149235D01*
X297188109Y-119818759D02*
X296825252Y-120725902D01*
X297768681Y-120725902D01*
X298639538Y-119879235D02*
X298784681Y-119879235D01*
X298929824Y-119939712D01*
X299002395Y-120000188D01*
X299074966Y-120121140D01*
X299147538Y-120363045D01*
X299147538Y-120665426D01*
X299074966Y-120907331D01*
X299002395Y-121028283D01*
X298929824Y-121088759D01*
X298784681Y-121149235D01*
X298639538Y-121149235D01*
X298494395Y-121088759D01*
X298421824Y-121028283D01*
X298349252Y-120907331D01*
X298276681Y-120665426D01*
X298276681Y-120363045D01*
X298349252Y-120121140D01*
X298421824Y-120000188D01*
X298494395Y-119939712D01*
X298639538Y-119879235D01*
X274654665Y-121149235D02*
X274654665Y-119879235D01*
X275162665Y-120786378D01*
X275670665Y-119879235D01*
X275670665Y-121149235D01*
X276251236Y-119879235D02*
X277267236Y-121149235D01*
X277267236Y-119879235D02*
X276251236Y-121149235D01*
X278500950Y-120302569D02*
X278500950Y-121149235D01*
X278138093Y-119818759D02*
X277775236Y-120725902D01*
X278718665Y-120725902D01*
X280097522Y-121149235D02*
X279226665Y-121149235D01*
X279662093Y-121149235D02*
X279662093Y-119879235D01*
X279516950Y-120060664D01*
X279371808Y-120181616D01*
X279226665Y-120242092D01*
X274654665Y-140199251D02*
X274654665Y-138929251D01*
X275162665Y-139836394D01*
X275670665Y-138929251D01*
X275670665Y-140199251D01*
X276251236Y-138929251D02*
X277267236Y-140199251D01*
X277267236Y-138929251D02*
X276251236Y-140199251D01*
X278500950Y-139352585D02*
X278500950Y-140199251D01*
X278138093Y-138868775D02*
X277775236Y-139775918D01*
X278718665Y-139775918D01*
X279226665Y-139050204D02*
X279299236Y-138989728D01*
X279444379Y-138929251D01*
X279807236Y-138929251D01*
X279952379Y-138989728D01*
X280024950Y-139050204D01*
X280097522Y-139171156D01*
X280097522Y-139292108D01*
X280024950Y-139473537D01*
X279154093Y-140199251D01*
X280097522Y-140199251D01*
X274654665Y-63999187D02*
X274654665Y-62729187D01*
X275162665Y-63636330D01*
X275670665Y-62729187D01*
X275670665Y-63999187D01*
X276251236Y-62729187D02*
X277267236Y-63999187D01*
X277267236Y-62729187D02*
X276251236Y-63999187D01*
X278500950Y-63152521D02*
X278500950Y-63999187D01*
X278138093Y-62668711D02*
X277775236Y-63575854D01*
X278718665Y-63575854D01*
X279154093Y-62729187D02*
X280097522Y-62729187D01*
X279589522Y-63212997D01*
X279807236Y-63212997D01*
X279952379Y-63273473D01*
X280024950Y-63333949D01*
X280097522Y-63454902D01*
X280097522Y-63757283D01*
X280024950Y-63878235D01*
X279952379Y-63938711D01*
X279807236Y-63999187D01*
X279371808Y-63999187D01*
X279226665Y-63938711D01*
X279154093Y-63878235D01*
X274654665Y-83049203D02*
X274654665Y-81779203D01*
X275162665Y-82686346D01*
X275670665Y-81779203D01*
X275670665Y-83049203D01*
X276251236Y-81779203D02*
X277267236Y-83049203D01*
X277267236Y-81779203D02*
X276251236Y-83049203D01*
X278500950Y-82202537D02*
X278500950Y-83049203D01*
X278138093Y-81718727D02*
X277775236Y-82625870D01*
X278718665Y-82625870D01*
X279952379Y-82202537D02*
X279952379Y-83049203D01*
X279589522Y-81718727D02*
X279226665Y-82625870D01*
X280170093Y-82625870D01*
X274654665Y-102099219D02*
X274654665Y-100829219D01*
X275162665Y-101736362D01*
X275670665Y-100829219D01*
X275670665Y-102099219D01*
X276251236Y-100829219D02*
X277267236Y-102099219D01*
X277267236Y-100829219D02*
X276251236Y-102099219D01*
X278500950Y-101252553D02*
X278500950Y-102099219D01*
X278138093Y-100768743D02*
X277775236Y-101675886D01*
X278718665Y-101675886D01*
X280024950Y-100829219D02*
X279299236Y-100829219D01*
X279226665Y-101433981D01*
X279299236Y-101373505D01*
X279444379Y-101313029D01*
X279807236Y-101313029D01*
X279952379Y-101373505D01*
X280024950Y-101433981D01*
X280097522Y-101554934D01*
X280097522Y-101857315D01*
X280024950Y-101978267D01*
X279952379Y-102038743D01*
X279807236Y-102099219D01*
X279444379Y-102099219D01*
X279299236Y-102038743D01*
X279226665Y-101978267D01*
X255604649Y-102099219D02*
X255604649Y-100829219D01*
X256112649Y-101736362D01*
X256620649Y-100829219D01*
X256620649Y-102099219D01*
X257201220Y-100829219D02*
X258217220Y-102099219D01*
X258217220Y-100829219D02*
X257201220Y-102099219D01*
X259450934Y-101252553D02*
X259450934Y-102099219D01*
X259088077Y-100768743D02*
X258725220Y-101675886D01*
X259668649Y-101675886D01*
X260902363Y-100829219D02*
X260612077Y-100829219D01*
X260466934Y-100889696D01*
X260394363Y-100950172D01*
X260249220Y-101131600D01*
X260176649Y-101373505D01*
X260176649Y-101857315D01*
X260249220Y-101978267D01*
X260321792Y-102038743D01*
X260466934Y-102099219D01*
X260757220Y-102099219D01*
X260902363Y-102038743D01*
X260974934Y-101978267D01*
X261047506Y-101857315D01*
X261047506Y-101554934D01*
X260974934Y-101433981D01*
X260902363Y-101373505D01*
X260757220Y-101313029D01*
X260466934Y-101313029D01*
X260321792Y-101373505D01*
X260249220Y-101433981D01*
X260176649Y-101554934D01*
X255604649Y-121149235D02*
X255604649Y-119879235D01*
X256112649Y-120786378D01*
X256620649Y-119879235D01*
X256620649Y-121149235D01*
X257201220Y-119879235D02*
X258217220Y-121149235D01*
X258217220Y-119879235D02*
X257201220Y-121149235D01*
X259450934Y-120302569D02*
X259450934Y-121149235D01*
X259088077Y-119818759D02*
X258725220Y-120725902D01*
X259668649Y-120725902D01*
X260104077Y-119879235D02*
X261120077Y-119879235D01*
X260466934Y-121149235D01*
X255604649Y-140199251D02*
X255604649Y-138929251D01*
X256112649Y-139836394D01*
X256620649Y-138929251D01*
X256620649Y-140199251D01*
X257201220Y-138929251D02*
X258217220Y-140199251D01*
X258217220Y-138929251D02*
X257201220Y-140199251D01*
X259450934Y-139352585D02*
X259450934Y-140199251D01*
X259088077Y-138868775D02*
X258725220Y-139775918D01*
X259668649Y-139775918D01*
X260466934Y-139473537D02*
X260321792Y-139413061D01*
X260249220Y-139352585D01*
X260176649Y-139231632D01*
X260176649Y-139171156D01*
X260249220Y-139050204D01*
X260321792Y-138989728D01*
X260466934Y-138929251D01*
X260757220Y-138929251D01*
X260902363Y-138989728D01*
X260974934Y-139050204D01*
X261047506Y-139171156D01*
X261047506Y-139231632D01*
X260974934Y-139352585D01*
X260902363Y-139413061D01*
X260757220Y-139473537D01*
X260466934Y-139473537D01*
X260321792Y-139534013D01*
X260249220Y-139594489D01*
X260176649Y-139715442D01*
X260176649Y-139957347D01*
X260249220Y-140078299D01*
X260321792Y-140138775D01*
X260466934Y-140199251D01*
X260757220Y-140199251D01*
X260902363Y-140138775D01*
X260974934Y-140078299D01*
X261047506Y-139957347D01*
X261047506Y-139715442D01*
X260974934Y-139594489D01*
X260902363Y-139534013D01*
X260757220Y-139473537D01*
X255604649Y-63999187D02*
X255604649Y-62729187D01*
X256112649Y-63636330D01*
X256620649Y-62729187D01*
X256620649Y-63999187D01*
X257201220Y-62729187D02*
X258217220Y-63999187D01*
X258217220Y-62729187D02*
X257201220Y-63999187D01*
X259450934Y-63152521D02*
X259450934Y-63999187D01*
X259088077Y-62668711D02*
X258725220Y-63575854D01*
X259668649Y-63575854D01*
X260321792Y-63999187D02*
X260612077Y-63999187D01*
X260757220Y-63938711D01*
X260829792Y-63878235D01*
X260974934Y-63696806D01*
X261047506Y-63454902D01*
X261047506Y-62971092D01*
X260974934Y-62850140D01*
X260902363Y-62789664D01*
X260757220Y-62729187D01*
X260466934Y-62729187D01*
X260321792Y-62789664D01*
X260249220Y-62850140D01*
X260176649Y-62971092D01*
X260176649Y-63273473D01*
X260249220Y-63394425D01*
X260321792Y-63454902D01*
X260466934Y-63515378D01*
X260757220Y-63515378D01*
X260902363Y-63454902D01*
X260974934Y-63394425D01*
X261047506Y-63273473D01*
X255604649Y-83049203D02*
X255604649Y-81779203D01*
X256112649Y-82686346D01*
X256620649Y-81779203D01*
X256620649Y-83049203D01*
X257201220Y-81779203D02*
X258217220Y-83049203D01*
X258217220Y-81779203D02*
X257201220Y-83049203D01*
X259523506Y-81779203D02*
X258797792Y-81779203D01*
X258725220Y-82383965D01*
X258797792Y-82323489D01*
X258942934Y-82263013D01*
X259305792Y-82263013D01*
X259450934Y-82323489D01*
X259523506Y-82383965D01*
X259596077Y-82504918D01*
X259596077Y-82807299D01*
X259523506Y-82928251D01*
X259450934Y-82988727D01*
X259305792Y-83049203D01*
X258942934Y-83049203D01*
X258797792Y-82988727D01*
X258725220Y-82928251D01*
X260539506Y-81779203D02*
X260684649Y-81779203D01*
X260829792Y-81839680D01*
X260902363Y-81900156D01*
X260974934Y-82021108D01*
X261047506Y-82263013D01*
X261047506Y-82565394D01*
X260974934Y-82807299D01*
X260902363Y-82928251D01*
X260829792Y-82988727D01*
X260684649Y-83049203D01*
X260539506Y-83049203D01*
X260394363Y-82988727D01*
X260321792Y-82928251D01*
X260249220Y-82807299D01*
X260176649Y-82565394D01*
X260176649Y-82263013D01*
X260249220Y-82021108D01*
X260321792Y-81900156D01*
X260394363Y-81839680D01*
X260539506Y-81779203D01*
X236554633Y-83049203D02*
X236554633Y-81779203D01*
X237062633Y-82686346D01*
X237570633Y-81779203D01*
X237570633Y-83049203D01*
X238151204Y-81779203D02*
X239167204Y-83049203D01*
X239167204Y-81779203D02*
X238151204Y-83049203D01*
X240473490Y-81779203D02*
X239747776Y-81779203D01*
X239675204Y-82383965D01*
X239747776Y-82323489D01*
X239892918Y-82263013D01*
X240255776Y-82263013D01*
X240400918Y-82323489D01*
X240473490Y-82383965D01*
X240546061Y-82504918D01*
X240546061Y-82807299D01*
X240473490Y-82928251D01*
X240400918Y-82988727D01*
X240255776Y-83049203D01*
X239892918Y-83049203D01*
X239747776Y-82988727D01*
X239675204Y-82928251D01*
X241997490Y-83049203D02*
X241126633Y-83049203D01*
X241562061Y-83049203D02*
X241562061Y-81779203D01*
X241416918Y-81960632D01*
X241271776Y-82081584D01*
X241126633Y-82142060D01*
X236554633Y-102099219D02*
X236554633Y-100829219D01*
X237062633Y-101736362D01*
X237570633Y-100829219D01*
X237570633Y-102099219D01*
X238151204Y-100829219D02*
X239167204Y-102099219D01*
X239167204Y-100829219D02*
X238151204Y-102099219D01*
X240473490Y-100829219D02*
X239747776Y-100829219D01*
X239675204Y-101433981D01*
X239747776Y-101373505D01*
X239892918Y-101313029D01*
X240255776Y-101313029D01*
X240400918Y-101373505D01*
X240473490Y-101433981D01*
X240546061Y-101554934D01*
X240546061Y-101857315D01*
X240473490Y-101978267D01*
X240400918Y-102038743D01*
X240255776Y-102099219D01*
X239892918Y-102099219D01*
X239747776Y-102038743D01*
X239675204Y-101978267D01*
X241126633Y-100950172D02*
X241199204Y-100889696D01*
X241344347Y-100829219D01*
X241707204Y-100829219D01*
X241852347Y-100889696D01*
X241924918Y-100950172D01*
X241997490Y-101071124D01*
X241997490Y-101192076D01*
X241924918Y-101373505D01*
X241054061Y-102099219D01*
X241997490Y-102099219D01*
X236554633Y-121149235D02*
X236554633Y-119879235D01*
X237062633Y-120786378D01*
X237570633Y-119879235D01*
X237570633Y-121149235D01*
X238151204Y-119879235D02*
X239167204Y-121149235D01*
X239167204Y-119879235D02*
X238151204Y-121149235D01*
X240473490Y-119879235D02*
X239747776Y-119879235D01*
X239675204Y-120483997D01*
X239747776Y-120423521D01*
X239892918Y-120363045D01*
X240255776Y-120363045D01*
X240400918Y-120423521D01*
X240473490Y-120483997D01*
X240546061Y-120604950D01*
X240546061Y-120907331D01*
X240473490Y-121028283D01*
X240400918Y-121088759D01*
X240255776Y-121149235D01*
X239892918Y-121149235D01*
X239747776Y-121088759D01*
X239675204Y-121028283D01*
X241054061Y-119879235D02*
X241997490Y-119879235D01*
X241489490Y-120363045D01*
X241707204Y-120363045D01*
X241852347Y-120423521D01*
X241924918Y-120483997D01*
X241997490Y-120604950D01*
X241997490Y-120907331D01*
X241924918Y-121028283D01*
X241852347Y-121088759D01*
X241707204Y-121149235D01*
X241271776Y-121149235D01*
X241126633Y-121088759D01*
X241054061Y-121028283D01*
X236554633Y-140199251D02*
X236554633Y-138929251D01*
X237062633Y-139836394D01*
X237570633Y-138929251D01*
X237570633Y-140199251D01*
X238151204Y-138929251D02*
X239167204Y-140199251D01*
X239167204Y-138929251D02*
X238151204Y-140199251D01*
X240473490Y-138929251D02*
X239747776Y-138929251D01*
X239675204Y-139534013D01*
X239747776Y-139473537D01*
X239892918Y-139413061D01*
X240255776Y-139413061D01*
X240400918Y-139473537D01*
X240473490Y-139534013D01*
X240546061Y-139654966D01*
X240546061Y-139957347D01*
X240473490Y-140078299D01*
X240400918Y-140138775D01*
X240255776Y-140199251D01*
X239892918Y-140199251D01*
X239747776Y-140138775D01*
X239675204Y-140078299D01*
X241852347Y-139352585D02*
X241852347Y-140199251D01*
X241489490Y-138868775D02*
X241126633Y-139775918D01*
X242070061Y-139775918D01*
X236554633Y-63999187D02*
X236554633Y-62729187D01*
X237062633Y-63636330D01*
X237570633Y-62729187D01*
X237570633Y-63999187D01*
X238151204Y-62729187D02*
X239167204Y-63999187D01*
X239167204Y-62729187D02*
X238151204Y-63999187D01*
X240473490Y-62729187D02*
X239747776Y-62729187D01*
X239675204Y-63333949D01*
X239747776Y-63273473D01*
X239892918Y-63212997D01*
X240255776Y-63212997D01*
X240400918Y-63273473D01*
X240473490Y-63333949D01*
X240546061Y-63454902D01*
X240546061Y-63757283D01*
X240473490Y-63878235D01*
X240400918Y-63938711D01*
X240255776Y-63999187D01*
X239892918Y-63999187D01*
X239747776Y-63938711D01*
X239675204Y-63878235D01*
X241924918Y-62729187D02*
X241199204Y-62729187D01*
X241126633Y-63333949D01*
X241199204Y-63273473D01*
X241344347Y-63212997D01*
X241707204Y-63212997D01*
X241852347Y-63273473D01*
X241924918Y-63333949D01*
X241997490Y-63454902D01*
X241997490Y-63757283D01*
X241924918Y-63878235D01*
X241852347Y-63938711D01*
X241707204Y-63999187D01*
X241344347Y-63999187D01*
X241199204Y-63938711D01*
X241126633Y-63878235D01*
X217504617Y-63999187D02*
X217504617Y-62729187D01*
X218012617Y-63636330D01*
X218520617Y-62729187D01*
X218520617Y-63999187D01*
X219101188Y-62729187D02*
X220117188Y-63999187D01*
X220117188Y-62729187D02*
X219101188Y-63999187D01*
X221423474Y-62729187D02*
X220697760Y-62729187D01*
X220625188Y-63333949D01*
X220697760Y-63273473D01*
X220842902Y-63212997D01*
X221205760Y-63212997D01*
X221350902Y-63273473D01*
X221423474Y-63333949D01*
X221496045Y-63454902D01*
X221496045Y-63757283D01*
X221423474Y-63878235D01*
X221350902Y-63938711D01*
X221205760Y-63999187D01*
X220842902Y-63999187D01*
X220697760Y-63938711D01*
X220625188Y-63878235D01*
X222802331Y-62729187D02*
X222512045Y-62729187D01*
X222366902Y-62789664D01*
X222294331Y-62850140D01*
X222149188Y-63031568D01*
X222076617Y-63273473D01*
X222076617Y-63757283D01*
X222149188Y-63878235D01*
X222221760Y-63938711D01*
X222366902Y-63999187D01*
X222657188Y-63999187D01*
X222802331Y-63938711D01*
X222874902Y-63878235D01*
X222947474Y-63757283D01*
X222947474Y-63454902D01*
X222874902Y-63333949D01*
X222802331Y-63273473D01*
X222657188Y-63212997D01*
X222366902Y-63212997D01*
X222221760Y-63273473D01*
X222149188Y-63333949D01*
X222076617Y-63454902D01*
X217504617Y-83049203D02*
X217504617Y-81779203D01*
X218012617Y-82686346D01*
X218520617Y-81779203D01*
X218520617Y-83049203D01*
X219101188Y-81779203D02*
X220117188Y-83049203D01*
X220117188Y-81779203D02*
X219101188Y-83049203D01*
X221423474Y-81779203D02*
X220697760Y-81779203D01*
X220625188Y-82383965D01*
X220697760Y-82323489D01*
X220842902Y-82263013D01*
X221205760Y-82263013D01*
X221350902Y-82323489D01*
X221423474Y-82383965D01*
X221496045Y-82504918D01*
X221496045Y-82807299D01*
X221423474Y-82928251D01*
X221350902Y-82988727D01*
X221205760Y-83049203D01*
X220842902Y-83049203D01*
X220697760Y-82988727D01*
X220625188Y-82928251D01*
X222004045Y-81779203D02*
X223020045Y-81779203D01*
X222366902Y-83049203D01*
X217504617Y-102099219D02*
X217504617Y-100829219D01*
X218012617Y-101736362D01*
X218520617Y-100829219D01*
X218520617Y-102099219D01*
X219101188Y-100829219D02*
X220117188Y-102099219D01*
X220117188Y-100829219D02*
X219101188Y-102099219D01*
X221423474Y-100829219D02*
X220697760Y-100829219D01*
X220625188Y-101433981D01*
X220697760Y-101373505D01*
X220842902Y-101313029D01*
X221205760Y-101313029D01*
X221350902Y-101373505D01*
X221423474Y-101433981D01*
X221496045Y-101554934D01*
X221496045Y-101857315D01*
X221423474Y-101978267D01*
X221350902Y-102038743D01*
X221205760Y-102099219D01*
X220842902Y-102099219D01*
X220697760Y-102038743D01*
X220625188Y-101978267D01*
X222366902Y-101373505D02*
X222221760Y-101313029D01*
X222149188Y-101252553D01*
X222076617Y-101131600D01*
X222076617Y-101071124D01*
X222149188Y-100950172D01*
X222221760Y-100889696D01*
X222366902Y-100829219D01*
X222657188Y-100829219D01*
X222802331Y-100889696D01*
X222874902Y-100950172D01*
X222947474Y-101071124D01*
X222947474Y-101131600D01*
X222874902Y-101252553D01*
X222802331Y-101313029D01*
X222657188Y-101373505D01*
X222366902Y-101373505D01*
X222221760Y-101433981D01*
X222149188Y-101494457D01*
X222076617Y-101615410D01*
X222076617Y-101857315D01*
X222149188Y-101978267D01*
X222221760Y-102038743D01*
X222366902Y-102099219D01*
X222657188Y-102099219D01*
X222802331Y-102038743D01*
X222874902Y-101978267D01*
X222947474Y-101857315D01*
X222947474Y-101615410D01*
X222874902Y-101494457D01*
X222802331Y-101433981D01*
X222657188Y-101373505D01*
X217504617Y-121149235D02*
X217504617Y-119879235D01*
X218012617Y-120786378D01*
X218520617Y-119879235D01*
X218520617Y-121149235D01*
X219101188Y-119879235D02*
X220117188Y-121149235D01*
X220117188Y-119879235D02*
X219101188Y-121149235D01*
X221423474Y-119879235D02*
X220697760Y-119879235D01*
X220625188Y-120483997D01*
X220697760Y-120423521D01*
X220842902Y-120363045D01*
X221205760Y-120363045D01*
X221350902Y-120423521D01*
X221423474Y-120483997D01*
X221496045Y-120604950D01*
X221496045Y-120907331D01*
X221423474Y-121028283D01*
X221350902Y-121088759D01*
X221205760Y-121149235D01*
X220842902Y-121149235D01*
X220697760Y-121088759D01*
X220625188Y-121028283D01*
X222221760Y-121149235D02*
X222512045Y-121149235D01*
X222657188Y-121088759D01*
X222729760Y-121028283D01*
X222874902Y-120846854D01*
X222947474Y-120604950D01*
X222947474Y-120121140D01*
X222874902Y-120000188D01*
X222802331Y-119939712D01*
X222657188Y-119879235D01*
X222366902Y-119879235D01*
X222221760Y-119939712D01*
X222149188Y-120000188D01*
X222076617Y-120121140D01*
X222076617Y-120423521D01*
X222149188Y-120544473D01*
X222221760Y-120604950D01*
X222366902Y-120665426D01*
X222657188Y-120665426D01*
X222802331Y-120604950D01*
X222874902Y-120544473D01*
X222947474Y-120423521D01*
X217504617Y-140199251D02*
X217504617Y-138929251D01*
X218012617Y-139836394D01*
X218520617Y-138929251D01*
X218520617Y-140199251D01*
X219101188Y-138929251D02*
X220117188Y-140199251D01*
X220117188Y-138929251D02*
X219101188Y-140199251D01*
X221350902Y-138929251D02*
X221060617Y-138929251D01*
X220915474Y-138989728D01*
X220842902Y-139050204D01*
X220697760Y-139231632D01*
X220625188Y-139473537D01*
X220625188Y-139957347D01*
X220697760Y-140078299D01*
X220770331Y-140138775D01*
X220915474Y-140199251D01*
X221205760Y-140199251D01*
X221350902Y-140138775D01*
X221423474Y-140078299D01*
X221496045Y-139957347D01*
X221496045Y-139654966D01*
X221423474Y-139534013D01*
X221350902Y-139473537D01*
X221205760Y-139413061D01*
X220915474Y-139413061D01*
X220770331Y-139473537D01*
X220697760Y-139534013D01*
X220625188Y-139654966D01*
X222439474Y-138929251D02*
X222584617Y-138929251D01*
X222729760Y-138989728D01*
X222802331Y-139050204D01*
X222874902Y-139171156D01*
X222947474Y-139413061D01*
X222947474Y-139715442D01*
X222874902Y-139957347D01*
X222802331Y-140078299D01*
X222729760Y-140138775D01*
X222584617Y-140199251D01*
X222439474Y-140199251D01*
X222294331Y-140138775D01*
X222221760Y-140078299D01*
X222149188Y-139957347D01*
X222076617Y-139715442D01*
X222076617Y-139413061D01*
X222149188Y-139171156D01*
X222221760Y-139050204D01*
X222294331Y-138989728D01*
X222439474Y-138929251D01*
X84154505Y-63999187D02*
X84154505Y-62729187D01*
X84662505Y-63636330D01*
X85170505Y-62729187D01*
X85170505Y-63999187D01*
X85751076Y-62729187D02*
X86767076Y-63999187D01*
X86767076Y-62729187D02*
X85751076Y-63999187D01*
X88145933Y-63999187D02*
X87275076Y-63999187D01*
X87710505Y-63999187D02*
X87710505Y-62729187D01*
X87565362Y-62910616D01*
X87420219Y-63031568D01*
X87275076Y-63092044D01*
X88653933Y-62729187D02*
X89597362Y-62729187D01*
X89089362Y-63212997D01*
X89307076Y-63212997D01*
X89452219Y-63273473D01*
X89524790Y-63333949D01*
X89597362Y-63454902D01*
X89597362Y-63757283D01*
X89524790Y-63878235D01*
X89452219Y-63938711D01*
X89307076Y-63999187D01*
X88871648Y-63999187D01*
X88726505Y-63938711D01*
X88653933Y-63878235D01*
X84154505Y-83049203D02*
X84154505Y-81779203D01*
X84662505Y-82686346D01*
X85170505Y-81779203D01*
X85170505Y-83049203D01*
X85751076Y-81779203D02*
X86767076Y-83049203D01*
X86767076Y-81779203D02*
X85751076Y-83049203D01*
X88145933Y-83049203D02*
X87275076Y-83049203D01*
X87710505Y-83049203D02*
X87710505Y-81779203D01*
X87565362Y-81960632D01*
X87420219Y-82081584D01*
X87275076Y-82142060D01*
X89452219Y-82202537D02*
X89452219Y-83049203D01*
X89089362Y-81718727D02*
X88726505Y-82625870D01*
X89669933Y-82625870D01*
X46780139Y-57649133D02*
X46780139Y-56379133D01*
X47288139Y-57286276D01*
X47796139Y-56379133D01*
X47796139Y-57649133D01*
X48376710Y-56379133D02*
X49392710Y-57649133D01*
X49392710Y-56379133D02*
X48376710Y-57649133D01*
X50771568Y-57649133D02*
X49900710Y-57649133D01*
X50336139Y-57649133D02*
X50336139Y-56379133D01*
X50190996Y-56560562D01*
X50045853Y-56681514D01*
X49900710Y-56741990D01*
X217504617Y-102099219D02*
X217504617Y-100829219D01*
X218012617Y-101736362D01*
X218520617Y-100829219D01*
X218520617Y-102099219D01*
X219101188Y-100829219D02*
X220117188Y-102099219D01*
X220117188Y-100829219D02*
X219101188Y-102099219D01*
X221423474Y-100829219D02*
X220697760Y-100829219D01*
X220625188Y-101433981D01*
X220697760Y-101373505D01*
X220842902Y-101313029D01*
X221205760Y-101313029D01*
X221350902Y-101373505D01*
X221423474Y-101433981D01*
X221496045Y-101554934D01*
X221496045Y-101857315D01*
X221423474Y-101978267D01*
X221350902Y-102038743D01*
X221205760Y-102099219D01*
X220842902Y-102099219D01*
X220697760Y-102038743D01*
X220625188Y-101978267D01*
X222366902Y-101373505D02*
X222221760Y-101313029D01*
X222149188Y-101252553D01*
X222076617Y-101131600D01*
X222076617Y-101071124D01*
X222149188Y-100950172D01*
X222221760Y-100889696D01*
X222366902Y-100829219D01*
X222657188Y-100829219D01*
X222802331Y-100889696D01*
X222874902Y-100950172D01*
X222947474Y-101071124D01*
X222947474Y-101131600D01*
X222874902Y-101252553D01*
X222802331Y-101313029D01*
X222657188Y-101373505D01*
X222366902Y-101373505D01*
X222221760Y-101433981D01*
X222149188Y-101494457D01*
X222076617Y-101615410D01*
X222076617Y-101857315D01*
X222149188Y-101978267D01*
X222221760Y-102038743D01*
X222366902Y-102099219D01*
X222657188Y-102099219D01*
X222802331Y-102038743D01*
X222874902Y-101978267D01*
X222947474Y-101857315D01*
X222947474Y-101615410D01*
X222874902Y-101494457D01*
X222802331Y-101433981D01*
X222657188Y-101373505D01*
D13*
X172835346Y-90636314D02*
X172835346Y-91894314D01*
X174675346Y-90636314D02*
X174675346Y-91894314D01*
X174675346Y-85278497D02*
X174675346Y-86536497D01*
X172835346Y-85278497D02*
X172835346Y-86536497D01*
X189523484Y-58574351D02*
X189523484Y-58418351D01*
X189523484Y-60890351D02*
X189523484Y-60734351D01*
X189004445Y-58574351D02*
G75*
G03*
X186922354Y-58574514I-1040961J-1080000D01*
G01*
X186291149Y-60732959D02*
G75*
G03*
X189523484Y-60889867I1672335J1078609D01*
G01*
X186922354Y-60734188D02*
G75*
G03*
X189004445Y-60734351I1041130J1079837D01*
G01*
X189523484Y-58418835D02*
G75*
G03*
X186291149Y-58575743I-1560000J-1235517D01*
G01*
X190930980Y-99362168D02*
X190930980Y-63682168D01*
X190930980Y-63682168D02*
X189280980Y-63682168D01*
X185630980Y-63682168D02*
X185630980Y-99362168D01*
X187280980Y-63682168D02*
X185630980Y-63682168D01*
X185630980Y-99362168D02*
X190930980Y-99362168D01*
X187280980Y-63682168D02*
G75*
G03*
X189280980Y-63682168I1000000J0D01*
G01*
X171691468Y-117001895D02*
X168491468Y-117001895D01*
X171691468Y-107101895D02*
X171691468Y-117001895D01*
X168491468Y-107101895D02*
X168491468Y-116981895D01*
X171691468Y-107101895D02*
X168491468Y-107101895D01*
X164326277Y-77584367D02*
X160086277Y-77584367D01*
X160086277Y-79824367D02*
X164326277Y-79824367D01*
X163606277Y-79824367D02*
X163606277Y-77584367D01*
X160086277Y-77584367D02*
X160086277Y-79824367D01*
X163726277Y-79824367D02*
X163726277Y-77584367D01*
X164326277Y-79824367D02*
X164326277Y-77584367D01*
X163486277Y-79824367D02*
X163486277Y-77584367D01*
X159436277Y-78704367D02*
X160086277Y-78704367D01*
X164976277Y-78704367D02*
X164326277Y-78704367D01*
X163606277Y-115543147D02*
X163606277Y-113303147D01*
X163726277Y-115543147D02*
X163726277Y-113303147D01*
X163486277Y-115543147D02*
X163486277Y-113303147D01*
X159436277Y-114423147D02*
X160086277Y-114423147D01*
X160086277Y-113303147D02*
X160086277Y-115543147D01*
X164326277Y-113303147D02*
X160086277Y-113303147D01*
X160086277Y-115543147D02*
X164326277Y-115543147D01*
X164976277Y-114423147D02*
X164326277Y-114423147D01*
X164326277Y-115543147D02*
X164326277Y-113303147D01*
X179183789Y-136426598D02*
X181423789Y-136426598D01*
X180303789Y-131536598D02*
X180303789Y-132186598D01*
X181423789Y-136426598D02*
X181423789Y-132186598D01*
X181423789Y-132906598D02*
X179183789Y-132906598D01*
X179183789Y-132186598D02*
X179183789Y-136426598D01*
X180303789Y-137076598D02*
X180303789Y-136426598D01*
X181423789Y-133026598D02*
X179183789Y-133026598D01*
X181423789Y-132786598D02*
X179183789Y-132786598D01*
X181423789Y-132186598D02*
X179183789Y-132186598D01*
X177327224Y-139457850D02*
X177327224Y-138807850D01*
X177327224Y-133917850D02*
X177327224Y-134567850D01*
X178447224Y-135167850D02*
X176207224Y-135167850D01*
X178447224Y-134567850D02*
X176207224Y-134567850D01*
X178447224Y-138807850D02*
X178447224Y-134567850D01*
X178447224Y-135287850D02*
X176207224Y-135287850D01*
X178447224Y-135407850D02*
X176207224Y-135407850D01*
X176207224Y-134567850D02*
X176207224Y-138807850D01*
X176207224Y-138807850D02*
X178447224Y-138807850D01*
X175470659Y-132786598D02*
X173230659Y-132786598D01*
X173230659Y-136426598D02*
X175470659Y-136426598D01*
X175470659Y-136426598D02*
X175470659Y-132186598D01*
X175470659Y-133026598D02*
X173230659Y-133026598D01*
X174350659Y-131536598D02*
X174350659Y-132186598D01*
X175470659Y-132186598D02*
X173230659Y-132186598D01*
X173230659Y-132186598D02*
X173230659Y-136426598D01*
X175470659Y-132906598D02*
X173230659Y-132906598D01*
X174350659Y-137076598D02*
X174350659Y-136426598D01*
X168397529Y-137076598D02*
X168397529Y-136426598D01*
X169517529Y-132186598D02*
X167277529Y-132186598D01*
X167277529Y-132186598D02*
X167277529Y-136426598D01*
X169517529Y-136426598D02*
X169517529Y-132186598D01*
X169517529Y-132906598D02*
X167277529Y-132906598D01*
X167277529Y-136426598D02*
X169517529Y-136426598D01*
X169517529Y-132786598D02*
X167277529Y-132786598D01*
X169517529Y-133026598D02*
X167277529Y-133026598D01*
X168397529Y-131536598D02*
X168397529Y-132186598D01*
X174740911Y-125628155D02*
X174740911Y-124788155D01*
X174500911Y-123108155D02*
X174500911Y-122470155D01*
X174980911Y-125778155D02*
X174980911Y-124788155D01*
X175421911Y-123108155D02*
X175421911Y-121943155D01*
X175020911Y-125799155D02*
X175020911Y-124788155D01*
X178251712Y-125143155D02*
X177851712Y-125143155D01*
X174340911Y-125252155D02*
X174340911Y-122644155D01*
X174900911Y-125733155D02*
X174900911Y-124788155D01*
X174380911Y-125299155D02*
X174380911Y-122597155D01*
X175220911Y-125888155D02*
X175220911Y-124788155D01*
X174860911Y-125708155D02*
X174860911Y-124788155D01*
X175341911Y-125930155D02*
X175341911Y-124788155D01*
X174100911Y-124888155D02*
X174100911Y-123008155D01*
X174700911Y-125598155D02*
X174700911Y-124788155D01*
X175981911Y-123108155D02*
X175981911Y-121868155D01*
X174460911Y-125386155D02*
X174460911Y-124788155D01*
X178051712Y-125343155D02*
X178051712Y-124943155D01*
X175661911Y-123108155D02*
X175661911Y-121892155D01*
X174540911Y-125464155D02*
X174540911Y-124788155D01*
X173940911Y-124485155D02*
X173940911Y-123411155D01*
X174540911Y-123108155D02*
X174540911Y-122432155D01*
X174980911Y-123108155D02*
X174980911Y-122118155D01*
X175060911Y-123108155D02*
X175060911Y-122078155D01*
X174300911Y-125202155D02*
X174300911Y-122694155D01*
X175501911Y-125973155D02*
X175501911Y-124788155D01*
X175981911Y-126028155D02*
X175981911Y-124788155D01*
X174180911Y-125028155D02*
X174180911Y-122868155D01*
X174060911Y-124807155D02*
X174060911Y-123089155D01*
X175821911Y-126022155D02*
X175821911Y-124788155D01*
X175140911Y-125855155D02*
X175140911Y-124788155D01*
X175020911Y-123108155D02*
X175020911Y-122097155D01*
X175701911Y-123108155D02*
X175701911Y-121886155D01*
X175381911Y-125942155D02*
X175381911Y-124788155D01*
X175861911Y-123108155D02*
X175861911Y-121871155D01*
X174580911Y-123108155D02*
X174580911Y-122396155D01*
X174420911Y-123108155D02*
X174420911Y-122552155D01*
X174460911Y-123108155D02*
X174460911Y-122510155D01*
X174940911Y-125756155D02*
X174940911Y-124788155D01*
X174940911Y-123108155D02*
X174940911Y-122140155D01*
X175461911Y-123108155D02*
X175461911Y-121932155D01*
X175901911Y-126027155D02*
X175901911Y-124788155D01*
X175541911Y-123108155D02*
X175541911Y-121914155D01*
X175180911Y-125872155D02*
X175180911Y-124788155D01*
X174900911Y-123108155D02*
X174900911Y-122163155D01*
X175781911Y-123108155D02*
X175781911Y-121877155D01*
X173900911Y-124318155D02*
X173900911Y-123578155D01*
X175741911Y-123108155D02*
X175741911Y-121881155D01*
X175821911Y-123108155D02*
X175821911Y-121874155D01*
X175100911Y-125837155D02*
X175100911Y-124788155D01*
X174420911Y-125344155D02*
X174420911Y-124788155D01*
X175581911Y-123108155D02*
X175581911Y-121906155D01*
X175541911Y-125982155D02*
X175541911Y-124788155D01*
X175461911Y-125964155D02*
X175461911Y-124788155D01*
X175581911Y-125990155D02*
X175581911Y-124788155D01*
X174860911Y-123108155D02*
X174860911Y-122188155D01*
X175341911Y-123108155D02*
X175341911Y-121966155D01*
X175060911Y-125818155D02*
X175060911Y-124788155D01*
X174620911Y-123108155D02*
X174620911Y-122361155D01*
X174260911Y-125148155D02*
X174260911Y-122748155D01*
X174820911Y-125683155D02*
X174820911Y-124788155D01*
X175260911Y-125902155D02*
X175260911Y-124788155D01*
X175701911Y-126010155D02*
X175701911Y-124788155D01*
X175381911Y-123108155D02*
X175381911Y-121954155D01*
X175301911Y-123108155D02*
X175301911Y-121980155D01*
X174820911Y-123108155D02*
X174820911Y-122213155D01*
X175301911Y-125916155D02*
X175301911Y-124788155D01*
X175661911Y-126004155D02*
X175661911Y-124788155D01*
X174780911Y-125656155D02*
X174780911Y-124788155D01*
X175180911Y-123108155D02*
X175180911Y-122024155D01*
X174780911Y-123108155D02*
X174780911Y-122240155D01*
X174580911Y-125500155D02*
X174580911Y-124788155D01*
X174740911Y-123108155D02*
X174740911Y-122268155D01*
X175140911Y-123108155D02*
X175140911Y-122041155D01*
X175260911Y-123108155D02*
X175260911Y-121994155D01*
X175741911Y-126015155D02*
X175741911Y-124788155D01*
X174020911Y-124716155D02*
X174020911Y-123180155D01*
X173980911Y-124612155D02*
X173980911Y-123284155D01*
X175501911Y-123108155D02*
X175501911Y-121923155D01*
X174660911Y-123108155D02*
X174660911Y-122329155D01*
X175901911Y-123108155D02*
X175901911Y-121869155D01*
X174620911Y-125535155D02*
X174620911Y-124788155D01*
X175421911Y-125953155D02*
X175421911Y-124788155D01*
X174220911Y-125090155D02*
X174220911Y-122806155D01*
X174660911Y-125567155D02*
X174660911Y-124788155D01*
X174700911Y-123108155D02*
X174700911Y-122298155D01*
X174500911Y-125426155D02*
X174500911Y-124788155D01*
X175100911Y-123108155D02*
X175100911Y-122059155D01*
X175621911Y-123108155D02*
X175621911Y-121898155D01*
X175941911Y-126028155D02*
X175941911Y-124788155D01*
X174140911Y-124961155D02*
X174140911Y-122935155D01*
X175621911Y-125998155D02*
X175621911Y-124788155D01*
X175861911Y-126025155D02*
X175861911Y-124788155D01*
X175781911Y-126019155D02*
X175781911Y-124788155D01*
X175220911Y-123108155D02*
X175220911Y-122008155D01*
X175941911Y-123108155D02*
X175941911Y-121868155D01*
X178101911Y-123948155D02*
G75*
G03*
X178101911Y-123948155I-2120000J0D01*
G01*
X164326277Y-73871237D02*
X164326277Y-71631237D01*
X160086277Y-73871237D02*
X164326277Y-73871237D01*
X159436277Y-72751237D02*
X160086277Y-72751237D01*
X163726277Y-73871237D02*
X163726277Y-71631237D01*
X163606277Y-73871237D02*
X163606277Y-71631237D01*
X164326277Y-71631237D02*
X160086277Y-71631237D01*
X164976277Y-72751237D02*
X164326277Y-72751237D01*
X160086277Y-71631237D02*
X160086277Y-73871237D01*
X163486277Y-73871237D02*
X163486277Y-71631237D01*
X175255346Y-103362200D02*
X176755346Y-103362200D01*
X179255346Y-102112200D02*
X179255346Y-97612200D01*
X176755346Y-96362200D02*
X175255346Y-96362200D01*
X172755346Y-97612200D02*
X172755346Y-102112200D01*
X194661927Y-132186598D02*
X194661927Y-136426598D01*
X196901927Y-136426598D02*
X196901927Y-132186598D01*
X196901927Y-133026598D02*
X194661927Y-133026598D01*
X195781927Y-137076598D02*
X195781927Y-136426598D01*
X196901927Y-132906598D02*
X194661927Y-132906598D01*
X194661927Y-136426598D02*
X196901927Y-136426598D01*
X196901927Y-132786598D02*
X194661927Y-132786598D01*
X195781927Y-131536598D02*
X195781927Y-132186598D01*
X196901927Y-132186598D02*
X194661927Y-132186598D01*
X177775972Y-60890351D02*
X177775972Y-60734351D01*
X177775972Y-58574351D02*
X177775972Y-58418351D01*
X177775972Y-58418835D02*
G75*
G03*
X174543637Y-58575743I-1560000J-1235517D01*
G01*
X177256933Y-58574351D02*
G75*
G03*
X175174842Y-58574514I-1040961J-1080000D01*
G01*
X175174842Y-60734188D02*
G75*
G03*
X177256933Y-60734351I1041130J1079837D01*
G01*
X174543637Y-60732959D02*
G75*
G03*
X177775972Y-60889867I1672335J1078609D01*
G01*
X164976277Y-126329407D02*
X164326277Y-126329407D01*
X159436277Y-126329407D02*
X160086277Y-126329407D01*
X163606277Y-127449407D02*
X163606277Y-125209407D01*
X164326277Y-127449407D02*
X164326277Y-125209407D01*
X163726277Y-127449407D02*
X163726277Y-125209407D01*
X160086277Y-125209407D02*
X160086277Y-127449407D01*
X160086277Y-127449407D02*
X164326277Y-127449407D01*
X163486277Y-127449407D02*
X163486277Y-125209407D01*
X164326277Y-125209407D02*
X160086277Y-125209407D01*
X160086277Y-121496277D02*
X164326277Y-121496277D01*
X164976277Y-120376277D02*
X164326277Y-120376277D01*
X163606277Y-121496277D02*
X163606277Y-119256277D01*
X163486277Y-121496277D02*
X163486277Y-119256277D01*
X159436277Y-120376277D02*
X160086277Y-120376277D01*
X164326277Y-121496277D02*
X164326277Y-119256277D01*
X160086277Y-119256277D02*
X160086277Y-121496277D01*
X164326277Y-119256277D02*
X160086277Y-119256277D01*
X163726277Y-121496277D02*
X163726277Y-119256277D01*
X162595025Y-111446582D02*
X161945025Y-111446582D01*
X157055025Y-111446582D02*
X157705025Y-111446582D01*
X157705025Y-112566582D02*
X161945025Y-112566582D01*
X157705025Y-110326582D02*
X157705025Y-112566582D01*
X161225025Y-112566582D02*
X161225025Y-110326582D01*
X161945025Y-110326582D02*
X157705025Y-110326582D01*
X161945025Y-112566582D02*
X161945025Y-110326582D01*
X161345025Y-112566582D02*
X161345025Y-110326582D01*
X161105025Y-112566582D02*
X161105025Y-110326582D01*
X163726277Y-109590017D02*
X163726277Y-107350017D01*
X164326277Y-107350017D02*
X160086277Y-107350017D01*
X163606277Y-109590017D02*
X163606277Y-107350017D01*
X163486277Y-109590017D02*
X163486277Y-107350017D01*
X164976277Y-108470017D02*
X164326277Y-108470017D01*
X164326277Y-109590017D02*
X164326277Y-107350017D01*
X160086277Y-109590017D02*
X164326277Y-109590017D01*
X160086277Y-107350017D02*
X160086277Y-109590017D01*
X159436277Y-108470017D02*
X160086277Y-108470017D01*
X157055025Y-105493452D02*
X157705025Y-105493452D01*
X157705025Y-106613452D02*
X161945025Y-106613452D01*
X161105025Y-106613452D02*
X161105025Y-104373452D01*
X162595025Y-105493452D02*
X161945025Y-105493452D01*
X161225025Y-106613452D02*
X161225025Y-104373452D01*
X157705025Y-104373452D02*
X157705025Y-106613452D01*
X161945025Y-106613452D02*
X161945025Y-104373452D01*
X161345025Y-106613452D02*
X161345025Y-104373452D01*
X161945025Y-104373452D02*
X157705025Y-104373452D01*
X157705025Y-118519712D02*
X161945025Y-118519712D01*
X161225025Y-118519712D02*
X161225025Y-116279712D01*
X162595025Y-117399712D02*
X161945025Y-117399712D01*
X161945025Y-116279712D02*
X157705025Y-116279712D01*
X161345025Y-118519712D02*
X161345025Y-116279712D01*
X161105025Y-118519712D02*
X161105025Y-116279712D01*
X157055025Y-117399712D02*
X157705025Y-117399712D01*
X161945025Y-118519712D02*
X161945025Y-116279712D01*
X157705025Y-116279712D02*
X157705025Y-118519712D01*
X161945025Y-94707192D02*
X161945025Y-92467192D01*
X162595025Y-93587192D02*
X161945025Y-93587192D01*
X161105025Y-94707192D02*
X161105025Y-92467192D01*
X161345025Y-94707192D02*
X161345025Y-92467192D01*
X157705025Y-92467192D02*
X157705025Y-94707192D01*
X161225025Y-94707192D02*
X161225025Y-92467192D01*
X161945025Y-92467192D02*
X157705025Y-92467192D01*
X157705025Y-94707192D02*
X161945025Y-94707192D01*
X157055025Y-93587192D02*
X157705025Y-93587192D01*
X164326277Y-89490627D02*
X160086277Y-89490627D01*
X160086277Y-91730627D02*
X164326277Y-91730627D01*
X164976277Y-90610627D02*
X164326277Y-90610627D01*
X163726277Y-91730627D02*
X163726277Y-89490627D01*
X159436277Y-90610627D02*
X160086277Y-90610627D01*
X160086277Y-89490627D02*
X160086277Y-91730627D01*
X164326277Y-91730627D02*
X164326277Y-89490627D01*
X163486277Y-91730627D02*
X163486277Y-89490627D01*
X163606277Y-91730627D02*
X163606277Y-89490627D01*
X162595025Y-99540322D02*
X161945025Y-99540322D01*
X157705025Y-100660322D02*
X161945025Y-100660322D01*
X161225025Y-100660322D02*
X161225025Y-98420322D01*
X161345025Y-100660322D02*
X161345025Y-98420322D01*
X161945025Y-98420322D02*
X157705025Y-98420322D01*
X157705025Y-98420322D02*
X157705025Y-100660322D01*
X157055025Y-99540322D02*
X157705025Y-99540322D01*
X161945025Y-100660322D02*
X161945025Y-98420322D01*
X161105025Y-100660322D02*
X161105025Y-98420322D01*
X161105025Y-88754062D02*
X161105025Y-86514062D01*
X161945025Y-86514062D02*
X157705025Y-86514062D01*
X157705025Y-88754062D02*
X161945025Y-88754062D01*
X161225025Y-88754062D02*
X161225025Y-86514062D01*
X161345025Y-88754062D02*
X161345025Y-86514062D01*
X161945025Y-88754062D02*
X161945025Y-86514062D01*
X157705025Y-86514062D02*
X157705025Y-88754062D01*
X157055025Y-87634062D02*
X157705025Y-87634062D01*
X162595025Y-87634062D02*
X161945025Y-87634062D01*
X164976277Y-84657497D02*
X164326277Y-84657497D01*
X164326277Y-83537497D02*
X160086277Y-83537497D01*
X163606277Y-85777497D02*
X163606277Y-83537497D01*
X164326277Y-85777497D02*
X164326277Y-83537497D01*
X163486277Y-85777497D02*
X163486277Y-83537497D01*
X163726277Y-85777497D02*
X163726277Y-83537497D01*
X160086277Y-83537497D02*
X160086277Y-85777497D01*
X160086277Y-85777497D02*
X164326277Y-85777497D01*
X159436277Y-84657497D02*
X160086277Y-84657497D01*
X161225025Y-82800932D02*
X161225025Y-80560932D01*
X161105025Y-82800932D02*
X161105025Y-80560932D01*
X162595025Y-81680932D02*
X161945025Y-81680932D01*
X161945025Y-80560932D02*
X157705025Y-80560932D01*
X157705025Y-80560932D02*
X157705025Y-82800932D01*
X157705025Y-82800932D02*
X161945025Y-82800932D01*
X157055025Y-81680932D02*
X157705025Y-81680932D01*
X161945025Y-82800932D02*
X161945025Y-80560932D01*
X161345025Y-82800932D02*
X161345025Y-80560932D01*
X200693179Y-71631237D02*
X200693179Y-73871237D01*
X199853179Y-73871237D02*
X204093179Y-73871237D01*
X199203179Y-72751237D02*
X199853179Y-72751237D01*
X199853179Y-71631237D02*
X199853179Y-73871237D01*
X200453179Y-71631237D02*
X200453179Y-73871237D01*
X204093179Y-73871237D02*
X204093179Y-71631237D01*
X200573179Y-71631237D02*
X200573179Y-73871237D01*
X204093179Y-71631237D02*
X199853179Y-71631237D01*
X204743179Y-72751237D02*
X204093179Y-72751237D01*
X162595025Y-69774672D02*
X161945025Y-69774672D01*
X161105025Y-70894672D02*
X161105025Y-68654672D01*
X161225025Y-70894672D02*
X161225025Y-68654672D01*
X161945025Y-70894672D02*
X161945025Y-68654672D01*
X161345025Y-70894672D02*
X161345025Y-68654672D01*
X157705025Y-70894672D02*
X161945025Y-70894672D01*
X161945025Y-68654672D02*
X157705025Y-68654672D01*
X157705025Y-68654672D02*
X157705025Y-70894672D01*
X157055025Y-69774672D02*
X157705025Y-69774672D01*
X202234431Y-70894672D02*
X206474431Y-70894672D01*
X207124431Y-69774672D02*
X206474431Y-69774672D01*
X202834431Y-68654672D02*
X202834431Y-70894672D01*
X202234431Y-68654672D02*
X202234431Y-70894672D01*
X206474431Y-68654672D02*
X202234431Y-68654672D01*
X206474431Y-70894672D02*
X206474431Y-68654672D01*
X202954431Y-68654672D02*
X202954431Y-70894672D01*
X203074431Y-68654672D02*
X203074431Y-70894672D01*
X201584431Y-69774672D02*
X202234431Y-69774672D01*
X161945025Y-62701542D02*
X157705025Y-62701542D01*
X157705025Y-62701542D02*
X157705025Y-64941542D01*
X161225025Y-64941542D02*
X161225025Y-62701542D01*
X161345025Y-64941542D02*
X161345025Y-62701542D01*
X161945025Y-64941542D02*
X161945025Y-62701542D01*
X157055025Y-63821542D02*
X157705025Y-63821542D01*
X157705025Y-64941542D02*
X161945025Y-64941542D01*
X162595025Y-63821542D02*
X161945025Y-63821542D01*
X161105025Y-64941542D02*
X161105025Y-62701542D01*
X193925362Y-134567850D02*
X191685362Y-134567850D01*
X192805362Y-139457850D02*
X192805362Y-138807850D01*
X193925362Y-138807850D02*
X193925362Y-134567850D01*
X193925362Y-135287850D02*
X191685362Y-135287850D01*
X192805362Y-133917850D02*
X192805362Y-134567850D01*
X193925362Y-135167850D02*
X191685362Y-135167850D01*
X193925362Y-135407850D02*
X191685362Y-135407850D01*
X191685362Y-134567850D02*
X191685362Y-138807850D01*
X191685362Y-138807850D02*
X193925362Y-138807850D01*
X179255346Y-70560611D02*
X179255346Y-66060611D01*
X175255346Y-71810611D02*
X176755346Y-71810611D01*
X176755346Y-64810611D02*
X175255346Y-64810611D01*
X172755346Y-66060611D02*
X172755346Y-70560611D01*
X185654110Y-121687529D02*
X185654110Y-121702529D01*
X185654110Y-123827529D02*
X190194110Y-123827529D01*
X190194110Y-123812529D02*
X190194110Y-123827529D01*
X190194110Y-121687529D02*
X190194110Y-121702529D01*
X185654110Y-121687529D02*
X190194110Y-121687529D01*
X185654110Y-123812529D02*
X185654110Y-123827529D01*
X165420964Y-139457850D02*
X165420964Y-138807850D01*
X164300964Y-138807850D02*
X166540964Y-138807850D01*
X166540964Y-135407850D02*
X164300964Y-135407850D01*
X166540964Y-135167850D02*
X164300964Y-135167850D01*
X166540964Y-138807850D02*
X166540964Y-134567850D01*
X166540964Y-134567850D02*
X164300964Y-134567850D01*
X165420964Y-133917850D02*
X165420964Y-134567850D01*
X164300964Y-134567850D02*
X164300964Y-138807850D01*
X166540964Y-135287850D02*
X164300964Y-135287850D01*
X207124431Y-111446582D02*
X206474431Y-111446582D01*
X203074431Y-110326582D02*
X203074431Y-112566582D01*
X206474431Y-110326582D02*
X202234431Y-110326582D01*
X202954431Y-110326582D02*
X202954431Y-112566582D01*
X202834431Y-110326582D02*
X202834431Y-112566582D01*
X202234431Y-112566582D02*
X206474431Y-112566582D01*
X206474431Y-112566582D02*
X206474431Y-110326582D01*
X201584431Y-111446582D02*
X202234431Y-111446582D01*
X202234431Y-110326582D02*
X202234431Y-112566582D01*
X198758492Y-133917850D02*
X198758492Y-134567850D01*
X197638492Y-138807850D02*
X199878492Y-138807850D01*
X197638492Y-134567850D02*
X197638492Y-138807850D01*
X199878492Y-135167850D02*
X197638492Y-135167850D01*
X199878492Y-135287850D02*
X197638492Y-135287850D01*
X199878492Y-134567850D02*
X197638492Y-134567850D01*
X198758492Y-139457850D02*
X198758492Y-138807850D01*
X199878492Y-135407850D02*
X197638492Y-135407850D01*
X199878492Y-138807850D02*
X199878492Y-134567850D01*
X207124431Y-75727802D02*
X206474431Y-75727802D01*
X201584431Y-75727802D02*
X202234431Y-75727802D01*
X206474431Y-76847802D02*
X206474431Y-74607802D01*
X202954431Y-74607802D02*
X202954431Y-76847802D01*
X202834431Y-74607802D02*
X202834431Y-76847802D01*
X203074431Y-74607802D02*
X203074431Y-76847802D01*
X202234431Y-74607802D02*
X202234431Y-76847802D01*
X206474431Y-74607802D02*
X202234431Y-74607802D01*
X202234431Y-76847802D02*
X206474431Y-76847802D01*
X200453179Y-59724977D02*
X200453179Y-61964977D01*
X204093179Y-59724977D02*
X199853179Y-59724977D01*
X200573179Y-59724977D02*
X200573179Y-61964977D01*
X199203179Y-60844977D02*
X199853179Y-60844977D01*
X204093179Y-61964977D02*
X204093179Y-59724977D01*
X199853179Y-61964977D02*
X204093179Y-61964977D01*
X199853179Y-59724977D02*
X199853179Y-61964977D01*
X204743179Y-60844977D02*
X204093179Y-60844977D01*
X200693179Y-59724977D02*
X200693179Y-61964977D01*
X207124431Y-63821542D02*
X206474431Y-63821542D01*
X206474431Y-64941542D02*
X206474431Y-62701542D01*
X202234431Y-62701542D02*
X202234431Y-64941542D01*
X202834431Y-62701542D02*
X202834431Y-64941542D01*
X202954431Y-62701542D02*
X202954431Y-64941542D01*
X202234431Y-64941542D02*
X206474431Y-64941542D01*
X201584431Y-63821542D02*
X202234431Y-63821542D01*
X203074431Y-62701542D02*
X203074431Y-64941542D01*
X206474431Y-62701542D02*
X202234431Y-62701542D01*
X199853179Y-77584367D02*
X199853179Y-79824367D01*
X199203179Y-78704367D02*
X199853179Y-78704367D01*
X200453179Y-77584367D02*
X200453179Y-79824367D01*
X204093179Y-77584367D02*
X199853179Y-77584367D01*
X200693179Y-77584367D02*
X200693179Y-79824367D01*
X199853179Y-79824367D02*
X204093179Y-79824367D01*
X200573179Y-77584367D02*
X200573179Y-79824367D01*
X204743179Y-78704367D02*
X204093179Y-78704367D01*
X204093179Y-79824367D02*
X204093179Y-77584367D01*
X202834431Y-92467192D02*
X202834431Y-94707192D01*
X202234431Y-92467192D02*
X202234431Y-94707192D01*
X206474431Y-94707192D02*
X206474431Y-92467192D01*
X202954431Y-92467192D02*
X202954431Y-94707192D01*
X202234431Y-94707192D02*
X206474431Y-94707192D01*
X203074431Y-92467192D02*
X203074431Y-94707192D01*
X207124431Y-93587192D02*
X206474431Y-93587192D01*
X201584431Y-93587192D02*
X202234431Y-93587192D01*
X206474431Y-92467192D02*
X202234431Y-92467192D01*
X202954431Y-86514062D02*
X202954431Y-88754062D01*
X203074431Y-86514062D02*
X203074431Y-88754062D01*
X202234431Y-86514062D02*
X202234431Y-88754062D01*
X202234431Y-88754062D02*
X206474431Y-88754062D01*
X201584431Y-87634062D02*
X202234431Y-87634062D01*
X207124431Y-87634062D02*
X206474431Y-87634062D01*
X206474431Y-86514062D02*
X202234431Y-86514062D01*
X206474431Y-88754062D02*
X206474431Y-86514062D01*
X202834431Y-86514062D02*
X202834431Y-88754062D01*
X199203179Y-90610627D02*
X199853179Y-90610627D01*
X200573179Y-89490627D02*
X200573179Y-91730627D01*
X199853179Y-89490627D02*
X199853179Y-91730627D01*
X204093179Y-91730627D02*
X204093179Y-89490627D01*
X200693179Y-89490627D02*
X200693179Y-91730627D01*
X200453179Y-89490627D02*
X200453179Y-91730627D01*
X204093179Y-89490627D02*
X199853179Y-89490627D01*
X204743179Y-90610627D02*
X204093179Y-90610627D01*
X199853179Y-91730627D02*
X204093179Y-91730627D01*
X204743179Y-102516887D02*
X204093179Y-102516887D01*
X200453179Y-101396887D02*
X200453179Y-103636887D01*
X199853179Y-103636887D02*
X204093179Y-103636887D01*
X204093179Y-101396887D02*
X199853179Y-101396887D01*
X204093179Y-103636887D02*
X204093179Y-101396887D01*
X200573179Y-101396887D02*
X200573179Y-103636887D01*
X200693179Y-101396887D02*
X200693179Y-103636887D01*
X199203179Y-102516887D02*
X199853179Y-102516887D01*
X199853179Y-101396887D02*
X199853179Y-103636887D01*
X206474431Y-100660322D02*
X206474431Y-98420322D01*
X202954431Y-98420322D02*
X202954431Y-100660322D01*
X202234431Y-98420322D02*
X202234431Y-100660322D01*
X202834431Y-98420322D02*
X202834431Y-100660322D01*
X203074431Y-98420322D02*
X203074431Y-100660322D01*
X202234431Y-100660322D02*
X206474431Y-100660322D01*
X207124431Y-99540322D02*
X206474431Y-99540322D01*
X206474431Y-98420322D02*
X202234431Y-98420322D01*
X201584431Y-99540322D02*
X202234431Y-99540322D01*
X200573179Y-95443757D02*
X200573179Y-97683757D01*
X199853179Y-97683757D02*
X204093179Y-97683757D01*
X204743179Y-96563757D02*
X204093179Y-96563757D01*
X200693179Y-95443757D02*
X200693179Y-97683757D01*
X199853179Y-95443757D02*
X199853179Y-97683757D01*
X200453179Y-95443757D02*
X200453179Y-97683757D01*
X204093179Y-95443757D02*
X199853179Y-95443757D01*
X204093179Y-97683757D02*
X204093179Y-95443757D01*
X199203179Y-96563757D02*
X199853179Y-96563757D01*
X202234431Y-80560932D02*
X202234431Y-82800932D01*
X202954431Y-80560932D02*
X202954431Y-82800932D01*
X201584431Y-81680932D02*
X202234431Y-81680932D01*
X206474431Y-80560932D02*
X202234431Y-80560932D01*
X202834431Y-80560932D02*
X202834431Y-82800932D01*
X207124431Y-81680932D02*
X206474431Y-81680932D01*
X203074431Y-80560932D02*
X203074431Y-82800932D01*
X202234431Y-82800932D02*
X206474431Y-82800932D01*
X206474431Y-82800932D02*
X206474431Y-80560932D01*
X200573179Y-107350017D02*
X200573179Y-109590017D01*
X199853179Y-109590017D02*
X204093179Y-109590017D01*
X200693179Y-107350017D02*
X200693179Y-109590017D01*
X200453179Y-107350017D02*
X200453179Y-109590017D01*
X199853179Y-107350017D02*
X199853179Y-109590017D01*
X204743179Y-108470017D02*
X204093179Y-108470017D01*
X204093179Y-109590017D02*
X204093179Y-107350017D01*
X204093179Y-107350017D02*
X199853179Y-107350017D01*
X199203179Y-108470017D02*
X199853179Y-108470017D01*
X203074431Y-104373452D02*
X203074431Y-106613452D01*
X202234431Y-104373452D02*
X202234431Y-106613452D01*
X202954431Y-104373452D02*
X202954431Y-106613452D01*
X206474431Y-104373452D02*
X202234431Y-104373452D01*
X206474431Y-106613452D02*
X206474431Y-104373452D01*
X202834431Y-104373452D02*
X202834431Y-106613452D01*
X202234431Y-106613452D02*
X206474431Y-106613452D01*
X201584431Y-105493452D02*
X202234431Y-105493452D01*
X207124431Y-105493452D02*
X206474431Y-105493452D01*
X204093179Y-115543147D02*
X204093179Y-113303147D01*
X200453179Y-113303147D02*
X200453179Y-115543147D01*
X204743179Y-114423147D02*
X204093179Y-114423147D01*
X204093179Y-113303147D02*
X199853179Y-113303147D01*
X199853179Y-115543147D02*
X204093179Y-115543147D01*
X199203179Y-114423147D02*
X199853179Y-114423147D01*
X200573179Y-113303147D02*
X200573179Y-115543147D01*
X200693179Y-113303147D02*
X200693179Y-115543147D01*
X199853179Y-113303147D02*
X199853179Y-115543147D01*
X200573179Y-83537497D02*
X200573179Y-85777497D01*
X204093179Y-83537497D02*
X199853179Y-83537497D01*
X199853179Y-83537497D02*
X199853179Y-85777497D01*
X200453179Y-83537497D02*
X200453179Y-85777497D01*
X204093179Y-85777497D02*
X204093179Y-83537497D01*
X200693179Y-83537497D02*
X200693179Y-85777497D01*
X199853179Y-85777497D02*
X204093179Y-85777497D01*
X199203179Y-84657497D02*
X199853179Y-84657497D01*
X204743179Y-84657497D02*
X204093179Y-84657497D01*
X199853179Y-65678107D02*
X199853179Y-67918107D01*
X200573179Y-65678107D02*
X200573179Y-67918107D01*
X200693179Y-65678107D02*
X200693179Y-67918107D01*
X204093179Y-65678107D02*
X199853179Y-65678107D01*
X204093179Y-67918107D02*
X204093179Y-65678107D01*
X200453179Y-65678107D02*
X200453179Y-67918107D01*
X199853179Y-67918107D02*
X204093179Y-67918107D01*
X204743179Y-66798107D02*
X204093179Y-66798107D01*
X199203179Y-66798107D02*
X199853179Y-66798107D01*
X207124431Y-129305972D02*
X206474431Y-129305972D01*
X206474431Y-128185972D02*
X202234431Y-128185972D01*
X201584431Y-129305972D02*
X202234431Y-129305972D01*
X203074431Y-128185972D02*
X203074431Y-130425972D01*
X202954431Y-128185972D02*
X202954431Y-130425972D01*
X202834431Y-128185972D02*
X202834431Y-130425972D01*
X202234431Y-128185972D02*
X202234431Y-130425972D01*
X202234431Y-130425972D02*
X206474431Y-130425972D01*
X206474431Y-130425972D02*
X206474431Y-128185972D01*
X199853179Y-121496277D02*
X204093179Y-121496277D01*
X199853179Y-119256277D02*
X199853179Y-121496277D01*
X204743179Y-120376277D02*
X204093179Y-120376277D01*
X204093179Y-119256277D02*
X199853179Y-119256277D01*
X204093179Y-121496277D02*
X204093179Y-119256277D01*
X200693179Y-119256277D02*
X200693179Y-121496277D01*
X200453179Y-119256277D02*
X200453179Y-121496277D01*
X200573179Y-119256277D02*
X200573179Y-121496277D01*
X199203179Y-120376277D02*
X199853179Y-120376277D01*
X182755667Y-132186598D02*
X182755667Y-136426598D01*
X183875667Y-137076598D02*
X183875667Y-136426598D01*
X183875667Y-131536598D02*
X183875667Y-132186598D01*
X184995667Y-132186598D02*
X182755667Y-132186598D01*
X184995667Y-132786598D02*
X182755667Y-132786598D01*
X184995667Y-132906598D02*
X182755667Y-132906598D01*
X182755667Y-136426598D02*
X184995667Y-136426598D01*
X184995667Y-136426598D02*
X184995667Y-132186598D01*
X184995667Y-133026598D02*
X182755667Y-133026598D01*
X207124431Y-117399712D02*
X206474431Y-117399712D01*
X202234431Y-118519712D02*
X206474431Y-118519712D01*
X206474431Y-118519712D02*
X206474431Y-116279712D01*
X202834431Y-116279712D02*
X202834431Y-118519712D01*
X201584431Y-117399712D02*
X202234431Y-117399712D01*
X202954431Y-116279712D02*
X202954431Y-118519712D01*
X202234431Y-116279712D02*
X202234431Y-118519712D01*
X203074431Y-116279712D02*
X203074431Y-118519712D01*
X206474431Y-116279712D02*
X202234431Y-116279712D01*
X202234431Y-122232842D02*
X202234431Y-124472842D01*
X207124431Y-123352842D02*
X206474431Y-123352842D01*
X202234431Y-124472842D02*
X206474431Y-124472842D01*
X206474431Y-122232842D02*
X202234431Y-122232842D01*
X203074431Y-122232842D02*
X203074431Y-124472842D01*
X202834431Y-122232842D02*
X202834431Y-124472842D01*
X206474431Y-124472842D02*
X206474431Y-122232842D01*
X201584431Y-123352842D02*
X202234431Y-123352842D01*
X202954431Y-122232842D02*
X202954431Y-124472842D01*
X204743179Y-126329407D02*
X204093179Y-126329407D01*
X199853179Y-125209407D02*
X199853179Y-127449407D01*
X199853179Y-127449407D02*
X204093179Y-127449407D01*
X204093179Y-127449407D02*
X204093179Y-125209407D01*
X200573179Y-125209407D02*
X200573179Y-127449407D01*
X199203179Y-126329407D02*
X199853179Y-126329407D01*
X204093179Y-125209407D02*
X199853179Y-125209407D01*
X200693179Y-125209407D02*
X200693179Y-127449407D01*
X200453179Y-125209407D02*
X200453179Y-127449407D01*
X187972232Y-138807850D02*
X187972232Y-134567850D01*
X187972232Y-135407850D02*
X185732232Y-135407850D01*
X187972232Y-135287850D02*
X185732232Y-135287850D01*
X185732232Y-138807850D02*
X187972232Y-138807850D01*
X186852232Y-139457850D02*
X186852232Y-138807850D01*
X185732232Y-134567850D02*
X185732232Y-138807850D01*
X187972232Y-134567850D02*
X185732232Y-134567850D01*
X186852232Y-133917850D02*
X186852232Y-134567850D01*
X187972232Y-135167850D02*
X185732232Y-135167850D01*
X190194110Y-126789094D02*
X190194110Y-126804094D01*
X185654110Y-124664094D02*
X190194110Y-124664094D01*
X185654110Y-126804094D02*
X190194110Y-126804094D01*
X185654110Y-126789094D02*
X185654110Y-126804094D01*
X190194110Y-124664094D02*
X190194110Y-124679094D01*
X185654110Y-124664094D02*
X185654110Y-124679094D01*
X173755346Y-80034367D02*
X172425346Y-80034367D01*
X175025346Y-77434367D02*
X172425346Y-77434367D01*
X180165346Y-80034367D02*
X180165346Y-74834367D01*
X175025346Y-80034367D02*
X175025346Y-77434367D01*
X172425346Y-74834367D02*
X180165346Y-74834367D01*
X172425346Y-80034367D02*
X172425346Y-78704367D01*
X175025346Y-80034367D02*
X180165346Y-80034367D01*
X172425346Y-77434367D02*
X172425346Y-74834367D01*
X188708797Y-132186598D02*
X188708797Y-136426598D01*
X189828797Y-137076598D02*
X189828797Y-136426598D01*
X190948797Y-132786598D02*
X188708797Y-132786598D01*
X190948797Y-132906598D02*
X188708797Y-132906598D01*
X190948797Y-136426598D02*
X190948797Y-132186598D01*
X190948797Y-132186598D02*
X188708797Y-132186598D01*
X188708797Y-136426598D02*
X190948797Y-136426598D01*
X189828797Y-131536598D02*
X189828797Y-132186598D01*
X190948797Y-133026598D02*
X188708797Y-133026598D01*
X157705025Y-130425972D02*
X161945025Y-130425972D01*
X157055025Y-129305972D02*
X157705025Y-129305972D01*
X161945025Y-130425972D02*
X161945025Y-128185972D01*
X161105025Y-130425972D02*
X161105025Y-128185972D01*
X161225025Y-130425972D02*
X161225025Y-128185972D01*
X157705025Y-128185972D02*
X157705025Y-130425972D01*
X161345025Y-130425972D02*
X161345025Y-128185972D01*
X161945025Y-128185972D02*
X157705025Y-128185972D01*
X162595025Y-129305972D02*
X161945025Y-129305972D01*
X163726277Y-103636887D02*
X163726277Y-101396887D01*
X160086277Y-103636887D02*
X164326277Y-103636887D01*
X160086277Y-101396887D02*
X160086277Y-103636887D01*
X164326277Y-101396887D02*
X160086277Y-101396887D01*
X163606277Y-103636887D02*
X163606277Y-101396887D01*
X163486277Y-103636887D02*
X163486277Y-101396887D01*
X164976277Y-102516887D02*
X164326277Y-102516887D01*
X164326277Y-103636887D02*
X164326277Y-101396887D01*
X159436277Y-102516887D02*
X160086277Y-102516887D01*
X161225025Y-97683757D02*
X161225025Y-95443757D01*
X161105025Y-97683757D02*
X161105025Y-95443757D01*
X161945025Y-97683757D02*
X161945025Y-95443757D01*
X161945025Y-95443757D02*
X157705025Y-95443757D01*
X157055025Y-96563757D02*
X157705025Y-96563757D01*
X162595025Y-96563757D02*
X161945025Y-96563757D01*
X157705025Y-95443757D02*
X157705025Y-97683757D01*
X157705025Y-97683757D02*
X161945025Y-97683757D01*
X161345025Y-97683757D02*
X161345025Y-95443757D01*
X157705025Y-76847802D02*
X161945025Y-76847802D01*
X161945025Y-74607802D02*
X157705025Y-74607802D01*
X161225025Y-76847802D02*
X161225025Y-74607802D01*
X157055025Y-75727802D02*
X157705025Y-75727802D01*
X161345025Y-76847802D02*
X161345025Y-74607802D01*
X157705025Y-74607802D02*
X157705025Y-76847802D01*
X161105025Y-76847802D02*
X161105025Y-74607802D01*
X162595025Y-75727802D02*
X161945025Y-75727802D01*
X161945025Y-76847802D02*
X161945025Y-74607802D01*
X186360980Y-103436887D02*
X190200980Y-103436887D01*
X190200980Y-103436887D02*
X190200980Y-101596887D01*
X191150980Y-102516887D02*
X190200980Y-102516887D01*
X190200980Y-101596887D02*
X186360980Y-101596887D01*
X185410980Y-102516887D02*
X186360980Y-102516887D01*
X186360980Y-101596887D02*
X186360980Y-103436887D01*
X175992850Y-85088123D02*
X175992850Y-91488123D01*
X181042850Y-85088123D02*
X181042850Y-91488123D01*
X181042850Y-85088123D02*
G75*
G03*
X175992850Y-85088123I-2525000J0D01*
G01*
X175992850Y-91488123D02*
G75*
G03*
X181042850Y-91488123I2525000J0D01*
G01*
X161945025Y-122232842D02*
X157705025Y-122232842D01*
X161945025Y-124472842D02*
X161945025Y-122232842D01*
X157705025Y-124472842D02*
X161945025Y-124472842D01*
X162595025Y-123352842D02*
X161945025Y-123352842D01*
X161105025Y-124472842D02*
X161105025Y-122232842D01*
X157705025Y-122232842D02*
X157705025Y-124472842D01*
X161225025Y-124472842D02*
X161225025Y-122232842D01*
X161345025Y-124472842D02*
X161345025Y-122232842D01*
X157055025Y-123352842D02*
X157705025Y-123352842D01*
X191150980Y-109660643D02*
X190200980Y-109660643D01*
X186360980Y-108740643D02*
X186360980Y-110580643D01*
X190200980Y-110580643D02*
X190200980Y-108740643D01*
X190200980Y-108740643D02*
X186360980Y-108740643D01*
X186360980Y-110580643D02*
X190200980Y-110580643D01*
X185410980Y-109660643D02*
X186360980Y-109660643D01*
X173978476Y-55216534D02*
X177818476Y-55216534D01*
X177818476Y-53376534D02*
X173978476Y-53376534D01*
X178768476Y-54296534D02*
X177818476Y-54296534D01*
X173028476Y-54296534D02*
X173978476Y-54296534D01*
X177818476Y-55216534D02*
X177818476Y-53376534D01*
X173978476Y-53376534D02*
X173978476Y-55216534D01*
X186360980Y-53376534D02*
X186360980Y-55216534D01*
X190200980Y-55216534D02*
X190200980Y-53376534D01*
X185410980Y-54296534D02*
X186360980Y-54296534D01*
X191150980Y-54296534D02*
X190200980Y-54296534D01*
X186360980Y-55216534D02*
X190200980Y-55216534D01*
X190200980Y-53376534D02*
X186360980Y-53376534D01*
X185410980Y-107279391D02*
X186360980Y-107279391D01*
X186360980Y-106359391D02*
X186360980Y-108199391D01*
X190200980Y-106359391D02*
X186360980Y-106359391D01*
X186360980Y-108199391D02*
X190200980Y-108199391D01*
X191150980Y-107279391D02*
X190200980Y-107279391D01*
X190200980Y-108199391D02*
X190200980Y-106359391D01*
X186880049Y-116279712D02*
X186880049Y-118519712D01*
X185630049Y-117399712D02*
X186280049Y-117399712D01*
X186280049Y-118519712D02*
X190520049Y-118519712D01*
X190520049Y-118519712D02*
X190520049Y-116279712D01*
X186280049Y-116279712D02*
X186280049Y-118519712D01*
X190520049Y-116279712D02*
X186280049Y-116279712D01*
X187120049Y-116279712D02*
X187120049Y-118519712D01*
X191170049Y-117399712D02*
X190520049Y-117399712D01*
X187000049Y-116279712D02*
X187000049Y-118519712D01*
X187000049Y-113303147D02*
X187000049Y-115543147D01*
X186880049Y-113303147D02*
X186880049Y-115543147D01*
X186280049Y-113303147D02*
X186280049Y-115543147D01*
X191170049Y-114423147D02*
X190520049Y-114423147D01*
X186280049Y-115543147D02*
X190520049Y-115543147D01*
X185630049Y-114423147D02*
X186280049Y-114423147D01*
X190520049Y-115543147D02*
X190520049Y-113303147D01*
X187120049Y-113303147D02*
X187120049Y-115543147D01*
X190520049Y-113303147D02*
X186280049Y-113303147D01*
X51847738Y-69774672D02*
X50897738Y-69774672D01*
X47057738Y-68854672D02*
X47057738Y-70694672D01*
X46107738Y-69774672D02*
X47057738Y-69774672D01*
X47057738Y-70694672D02*
X50897738Y-70694672D01*
X50897738Y-68854672D02*
X47057738Y-68854672D01*
X50897738Y-70694672D02*
X50897738Y-68854672D01*
X70421510Y-69774672D02*
X69471510Y-69774672D01*
X69471510Y-68854672D02*
X65631510Y-68854672D01*
X65631510Y-68854672D02*
X65631510Y-70694672D01*
X69471510Y-70694672D02*
X69471510Y-68854672D01*
X64681510Y-69774672D02*
X65631510Y-69774672D01*
X65631510Y-70694672D02*
X69471510Y-70694672D01*
X186360980Y-105818139D02*
X190200980Y-105818139D01*
X190200980Y-103978139D02*
X186360980Y-103978139D01*
X186360980Y-103978139D02*
X186360980Y-105818139D01*
X190200980Y-105818139D02*
X190200980Y-103978139D01*
X191150980Y-104898139D02*
X190200980Y-104898139D01*
X185410980Y-104898139D02*
X186360980Y-104898139D01*
X164326277Y-61964977D02*
X164326277Y-59724977D01*
X160086277Y-61964977D02*
X164326277Y-61964977D01*
X163726277Y-61964977D02*
X163726277Y-59724977D01*
X160086277Y-59724977D02*
X160086277Y-61964977D01*
X164326277Y-59724977D02*
X160086277Y-59724977D01*
X164976277Y-60844977D02*
X164326277Y-60844977D01*
X163606277Y-61964977D02*
X163606277Y-59724977D01*
X159436277Y-60844977D02*
X160086277Y-60844977D01*
X163486277Y-61964977D02*
X163486277Y-59724977D01*
X159436277Y-66798107D02*
X160086277Y-66798107D01*
X163606277Y-67918107D02*
X163606277Y-65678107D01*
X164976277Y-66798107D02*
X164326277Y-66798107D01*
X163726277Y-67918107D02*
X163726277Y-65678107D01*
X164326277Y-67918107D02*
X164326277Y-65678107D01*
X160086277Y-65678107D02*
X160086277Y-67918107D01*
X160086277Y-67918107D02*
X164326277Y-67918107D01*
X164326277Y-65678107D02*
X160086277Y-65678107D01*
X163486277Y-67918107D02*
X163486277Y-65678107D01*
X172494094Y-135407850D02*
X170254094Y-135407850D01*
X172494094Y-138807850D02*
X172494094Y-134567850D01*
X172494094Y-135287850D02*
X170254094Y-135287850D01*
X172494094Y-134567850D02*
X170254094Y-134567850D01*
X171374094Y-139457850D02*
X171374094Y-138807850D01*
X171374094Y-133917850D02*
X171374094Y-134567850D01*
X172494094Y-135167850D02*
X170254094Y-135167850D01*
X170254094Y-134567850D02*
X170254094Y-138807850D01*
X170254094Y-138807850D02*
X172494094Y-138807850D01*
X96745600Y-74289868D02*
G75*
G03*
X96745600Y-74289868I-381000J0D01*
G01*
%LPC*%
D14*
X173755346Y-90015314D03*
X173755346Y-92515314D03*
X173755346Y-84657497D03*
X173755346Y-87157497D03*
D15*
X189233484Y-59654351D03*
D16*
X186693484Y-59654351D03*
D17*
X184470980Y-65012168D03*
D18*
X184470980Y-67552168D03*
X184470980Y-70092168D03*
X184470980Y-72632168D03*
X184470980Y-75172168D03*
X184470980Y-77712168D03*
X184470980Y-80252168D03*
X184470980Y-82792168D03*
X184470980Y-85332168D03*
X184470980Y-87872168D03*
X184470980Y-90412168D03*
X184470980Y-92952168D03*
X184470980Y-95492168D03*
X184470980Y-98032168D03*
X192090980Y-98032168D03*
X192090980Y-95492168D03*
X192090980Y-92952168D03*
X192090980Y-90412168D03*
X192090980Y-87872168D03*
X192090980Y-85332168D03*
X192090980Y-82792168D03*
X192090980Y-80252168D03*
X192090980Y-77712168D03*
X192090980Y-75172168D03*
X192090980Y-72632168D03*
X192090980Y-70092168D03*
X192090980Y-67552168D03*
X192090980Y-65012168D03*
D19*
X170183468Y-109501895D03*
X170183468Y-114581895D03*
D17*
X166016277Y-78704367D03*
D18*
X158396277Y-78704367D03*
D17*
X166016277Y-114423147D03*
D18*
X158396277Y-114423147D03*
D17*
X180303789Y-130496598D03*
D18*
X180303789Y-138116598D03*
D17*
X177327224Y-132877850D03*
D18*
X177327224Y-140497850D03*
D17*
X174350659Y-130496598D03*
D18*
X174350659Y-138116598D03*
D17*
X168397529Y-130496598D03*
D18*
X168397529Y-138116598D03*
D20*
X176731911Y-123948155D03*
D21*
X175231911Y-123948155D03*
D17*
X166016277Y-72751237D03*
D18*
X158396277Y-72751237D03*
D22*
X173755346Y-103112200D03*
X173755346Y-96612200D03*
X178255346Y-103112200D03*
X178255346Y-96612200D03*
D23*
X158277208Y-55487160D03*
X205902248Y-55487160D03*
X158277208Y-140616919D03*
X205902248Y-140616919D03*
D24*
X42786486Y-107279391D03*
X321392970Y-107279391D03*
D17*
X195781927Y-130496598D03*
D18*
X195781927Y-138116598D03*
D15*
X177485972Y-59654351D03*
D16*
X174945972Y-59654351D03*
D17*
X166016277Y-126329407D03*
D18*
X158396277Y-126329407D03*
D17*
X166016277Y-120376277D03*
D18*
X158396277Y-120376277D03*
D17*
X163635025Y-111446582D03*
D18*
X156015025Y-111446582D03*
D17*
X166016277Y-108470017D03*
D18*
X158396277Y-108470017D03*
D17*
X163635025Y-105493452D03*
D18*
X156015025Y-105493452D03*
D17*
X163635025Y-117399712D03*
D18*
X156015025Y-117399712D03*
D17*
X163635025Y-93587192D03*
D18*
X156015025Y-93587192D03*
D17*
X166016277Y-90610627D03*
D18*
X158396277Y-90610627D03*
D17*
X163635025Y-99540322D03*
D18*
X156015025Y-99540322D03*
D17*
X163635025Y-87634062D03*
D18*
X156015025Y-87634062D03*
D17*
X166016277Y-84657497D03*
D18*
X158396277Y-84657497D03*
D17*
X163635025Y-81680932D03*
D18*
X156015025Y-81680932D03*
D17*
X198163179Y-72751237D03*
D18*
X205783179Y-72751237D03*
D17*
X163635025Y-69774672D03*
D18*
X156015025Y-69774672D03*
D17*
X200544431Y-69774672D03*
D18*
X208164431Y-69774672D03*
D17*
X163635025Y-63821542D03*
D18*
X156015025Y-63821542D03*
D17*
X192805362Y-132877850D03*
D18*
X192805362Y-140497850D03*
D22*
X173755346Y-65060611D03*
X173755346Y-71560611D03*
X178255346Y-71560611D03*
X178255346Y-65060611D03*
D14*
X185424110Y-122757529D03*
X190424110Y-122757529D03*
D17*
X165420964Y-132877850D03*
D18*
X165420964Y-140497850D03*
D17*
X200544431Y-111446582D03*
D18*
X208164431Y-111446582D03*
D17*
X198758492Y-132877850D03*
D18*
X198758492Y-140497850D03*
D17*
X200544431Y-75727802D03*
D18*
X208164431Y-75727802D03*
D17*
X198163179Y-60844977D03*
D18*
X205783179Y-60844977D03*
D17*
X200544431Y-63821542D03*
D18*
X208164431Y-63821542D03*
D17*
X198163179Y-78704367D03*
D18*
X205783179Y-78704367D03*
D17*
X200544431Y-93587192D03*
D18*
X208164431Y-93587192D03*
D17*
X200544431Y-87634062D03*
D18*
X208164431Y-87634062D03*
D17*
X198163179Y-90610627D03*
D18*
X205783179Y-90610627D03*
D17*
X198163179Y-102516887D03*
D18*
X205783179Y-102516887D03*
D17*
X200544431Y-99540322D03*
D18*
X208164431Y-99540322D03*
D17*
X198163179Y-96563757D03*
D18*
X205783179Y-96563757D03*
D17*
X200544431Y-81680932D03*
D18*
X208164431Y-81680932D03*
D17*
X198163179Y-108470017D03*
D18*
X205783179Y-108470017D03*
D17*
X200544431Y-105493452D03*
D18*
X208164431Y-105493452D03*
D17*
X198163179Y-114423147D03*
D18*
X205783179Y-114423147D03*
D17*
X198163179Y-84657497D03*
D18*
X205783179Y-84657497D03*
D17*
X198163179Y-66798107D03*
D18*
X205783179Y-66798107D03*
D17*
X200544431Y-129305972D03*
D18*
X208164431Y-129305972D03*
D17*
X198163179Y-120376277D03*
D18*
X205783179Y-120376277D03*
D17*
X183875667Y-130496598D03*
D18*
X183875667Y-138116598D03*
D17*
X200544431Y-117399712D03*
D18*
X208164431Y-117399712D03*
D17*
X200544431Y-123352842D03*
D18*
X208164431Y-123352842D03*
D17*
X198163179Y-126329407D03*
D18*
X205783179Y-126329407D03*
D17*
X186852232Y-132877850D03*
D18*
X186852232Y-140497850D03*
D25*
X227174768Y-141529728D03*
X233524768Y-138989728D03*
D26*
X241652768Y-143434728D03*
X217776768Y-143434728D03*
D27*
X224634768Y-136449728D03*
D28*
X241652768Y-128194728D03*
D27*
X234794768Y-136449728D03*
D28*
X229714768Y-136449728D03*
X217776768Y-128194728D03*
D29*
X236709768Y-139611728D03*
X236699768Y-138481728D03*
X223882768Y-142151728D03*
X223872768Y-141021728D03*
D28*
X134464688Y-136449728D03*
X146402688Y-128194728D03*
D25*
X138274688Y-138989728D03*
X131924688Y-141529728D03*
D27*
X139544688Y-136449728D03*
D26*
X146402688Y-143434728D03*
D28*
X122526688Y-128194728D03*
D26*
X122526688Y-143434728D03*
D27*
X129384688Y-136449728D03*
D29*
X141449688Y-138481728D03*
X141459688Y-139611728D03*
X128622688Y-141021728D03*
X128632688Y-142151728D03*
D14*
X185424110Y-125734094D03*
X190424110Y-125734094D03*
D30*
X173755346Y-78704367D03*
D31*
X173755346Y-76164367D03*
X176295346Y-78704367D03*
X176295346Y-76164367D03*
X178835346Y-78704367D03*
X178835346Y-76164367D03*
D23*
X167802216Y-98349696D03*
D17*
X189828797Y-130496598D03*
D18*
X189828797Y-138116598D03*
D17*
X163635025Y-129305972D03*
D18*
X156015025Y-129305972D03*
D17*
X166016277Y-102516887D03*
D18*
X158396277Y-102516887D03*
D17*
X163635025Y-96563757D03*
D18*
X156015025Y-96563757D03*
D17*
X163635025Y-75727802D03*
D18*
X156015025Y-75727802D03*
D32*
X192090980Y-102516887D03*
D33*
X184470980Y-102516887D03*
D34*
X178517850Y-85848123D03*
X178517850Y-90728123D03*
D17*
X163635025Y-123352842D03*
D18*
X156015025Y-123352842D03*
D32*
X184470980Y-109660643D03*
D33*
X192090980Y-109660643D03*
D32*
X179708476Y-54296534D03*
D33*
X172088476Y-54296534D03*
D32*
X192090980Y-54296534D03*
D33*
X184470980Y-54296534D03*
D32*
X184470980Y-107279391D03*
D33*
X192090980Y-107279391D03*
D17*
X184590049Y-117399712D03*
D18*
X192210049Y-117399712D03*
D17*
X184590049Y-114423147D03*
D18*
X192210049Y-114423147D03*
D32*
X45167738Y-69774672D03*
D33*
X52787738Y-69774672D03*
D32*
X71361510Y-69774672D03*
D33*
X63741510Y-69774672D03*
D32*
X184470980Y-104898139D03*
D33*
X192090980Y-104898139D03*
D17*
X166016277Y-60844977D03*
D18*
X158396277Y-60844977D03*
D17*
X166016277Y-66798107D03*
D18*
X158396277Y-66798107D03*
D17*
X171374094Y-132877850D03*
D18*
X171374094Y-140497850D03*
D35*
X48739616Y-79299680D03*
D36*
X43659616Y-79299680D03*
X53819616Y-79299680D03*
D25*
X44929616Y-76759680D03*
X51279616Y-74219680D03*
D29*
X41719616Y-77269680D03*
X41699616Y-76289680D03*
X54569616Y-73709680D03*
X54589616Y-74789680D03*
D25*
X51279616Y-93269696D03*
X44929616Y-95809696D03*
D36*
X43659616Y-98349696D03*
X53819616Y-98349696D03*
D35*
X48739616Y-98349696D03*
D29*
X41699616Y-95339696D03*
X41719616Y-96319696D03*
X54569616Y-92759696D03*
X54589616Y-93839696D03*
D36*
X53819616Y-117399712D03*
D25*
X44929616Y-114859712D03*
D35*
X48739616Y-117399712D03*
D36*
X43659616Y-117399712D03*
D25*
X51279616Y-112319712D03*
D29*
X41719616Y-115369712D03*
X41699616Y-114389712D03*
X54589616Y-112889712D03*
X54569616Y-111809712D03*
D35*
X48739616Y-136449728D03*
D36*
X43659616Y-136449728D03*
X53819616Y-136449728D03*
D25*
X51279616Y-131369728D03*
X44929616Y-133909728D03*
D29*
X41699616Y-133439728D03*
X41719616Y-134419728D03*
X54569616Y-130859728D03*
X54589616Y-131939728D03*
D25*
X70329632Y-131369728D03*
X63979632Y-133909728D03*
D35*
X67789632Y-136449728D03*
D36*
X62709632Y-136449728D03*
X72869632Y-136449728D03*
D29*
X60769632Y-134419728D03*
X60749632Y-133439728D03*
X73639632Y-131939728D03*
X73619632Y-130859728D03*
D36*
X62709632Y-60249664D03*
X72869632Y-60249664D03*
D25*
X71599632Y-62789664D03*
D35*
X67789632Y-60249664D03*
D25*
X65249632Y-65329664D03*
D29*
X74809632Y-62279664D03*
X74829632Y-63259664D03*
X61939632Y-64759664D03*
X61959632Y-65839664D03*
D36*
X72869632Y-79299680D03*
D25*
X70329632Y-74219680D03*
D35*
X67789632Y-79299680D03*
D36*
X62709632Y-79299680D03*
D25*
X63979632Y-76759680D03*
D29*
X60749632Y-76289680D03*
X60769632Y-77269680D03*
X73619632Y-73709680D03*
X73639632Y-74789680D03*
D36*
X62709632Y-98349696D03*
D25*
X70329632Y-93269696D03*
D35*
X67789632Y-98349696D03*
D25*
X63979632Y-95809696D03*
D36*
X72869632Y-98349696D03*
D29*
X60749632Y-95339696D03*
X60769632Y-96319696D03*
X73619632Y-92759696D03*
X73639632Y-93839696D03*
D25*
X70329632Y-112319712D03*
X63979632Y-114859712D03*
D35*
X67789632Y-117399712D03*
D36*
X62709632Y-117399712D03*
X72869632Y-117399712D03*
D29*
X60749632Y-114389712D03*
X60769632Y-115369712D03*
X73619632Y-111809712D03*
X73639632Y-112889712D03*
D35*
X86839648Y-117399712D03*
D25*
X83029648Y-114859712D03*
D36*
X81759648Y-117399712D03*
X91919648Y-117399712D03*
D25*
X89379648Y-112319712D03*
D29*
X79819648Y-115369712D03*
X79799648Y-114389712D03*
X92669648Y-111809712D03*
X92689648Y-112889712D03*
D25*
X83029648Y-133909728D03*
D36*
X81759648Y-136449728D03*
X91919648Y-136449728D03*
D25*
X89379648Y-131369728D03*
D35*
X86839648Y-136449728D03*
D29*
X79799648Y-133439728D03*
X79819648Y-134419728D03*
X92669648Y-130859728D03*
X92689648Y-131939728D03*
D25*
X83029648Y-95809696D03*
D35*
X86839648Y-98349696D03*
D36*
X91919648Y-98349696D03*
X81759648Y-98349696D03*
D25*
X89379648Y-93269696D03*
D29*
X79819648Y-96319696D03*
X79799648Y-95339696D03*
X92689648Y-93839696D03*
X92669648Y-92759696D03*
D25*
X102079664Y-95809696D03*
D36*
X110969664Y-98349696D03*
X100809664Y-98349696D03*
D35*
X105889664Y-98349696D03*
D25*
X108429664Y-93269696D03*
D29*
X98849664Y-95339696D03*
X98869664Y-96319696D03*
X111719664Y-92759696D03*
X111739664Y-93839696D03*
D25*
X102079664Y-114859712D03*
D35*
X105889664Y-117399712D03*
D36*
X100809664Y-117399712D03*
D25*
X108429664Y-112319712D03*
D36*
X110969664Y-117399712D03*
D29*
X98849664Y-114389712D03*
X98869664Y-115369712D03*
X111739664Y-112889712D03*
X111719664Y-111809712D03*
D36*
X100809664Y-136449728D03*
D25*
X108429664Y-131369728D03*
D35*
X105889664Y-136449728D03*
D36*
X110969664Y-136449728D03*
D25*
X102079664Y-133909728D03*
D29*
X98869664Y-134419728D03*
X98849664Y-133439728D03*
X111739664Y-131939728D03*
X111719664Y-130859728D03*
D35*
X105889664Y-60249664D03*
D25*
X102079664Y-57709664D03*
D36*
X100809664Y-60249664D03*
X110969664Y-60249664D03*
D25*
X108429664Y-55169664D03*
D29*
X98849664Y-57239664D03*
X98869664Y-58219664D03*
X111719664Y-54659664D03*
X111739664Y-55739664D03*
D25*
X102079664Y-76759680D03*
D35*
X105889664Y-79299680D03*
D36*
X100809664Y-79299680D03*
D25*
X108429664Y-74219680D03*
D36*
X110969664Y-79299680D03*
D29*
X98849664Y-76289680D03*
X98869664Y-77269680D03*
X111739664Y-74789680D03*
X111719664Y-73709680D03*
D36*
X119859680Y-79299680D03*
D25*
X127479680Y-74219680D03*
D36*
X130019680Y-79299680D03*
D25*
X121129680Y-76759680D03*
D35*
X124939680Y-79299680D03*
D29*
X117899680Y-76289680D03*
X117919680Y-77269680D03*
X130769680Y-73709680D03*
X130789680Y-74789680D03*
D36*
X130019680Y-98349696D03*
X119859680Y-98349696D03*
D25*
X121129680Y-95809696D03*
X127479680Y-93269696D03*
D35*
X124939680Y-98349696D03*
D29*
X117919680Y-96319696D03*
X117899680Y-95339696D03*
X130769680Y-92759696D03*
X130789680Y-93839696D03*
D25*
X127479680Y-112319712D03*
X121129680Y-114859712D03*
D35*
X124939680Y-117399712D03*
D36*
X130019680Y-117399712D03*
X119859680Y-117399712D03*
D29*
X117919680Y-115369712D03*
X117899680Y-114389712D03*
X130789680Y-112889712D03*
X130769680Y-111809712D03*
D35*
X124939680Y-136449728D03*
D36*
X119859680Y-136449728D03*
D25*
X127479680Y-131369728D03*
D36*
X130019680Y-136449728D03*
D25*
X121129680Y-133909728D03*
D29*
X117919680Y-134419728D03*
X117899680Y-133439728D03*
X130789680Y-131939728D03*
X130769680Y-130859728D03*
D36*
X119859680Y-60249664D03*
D35*
X124939680Y-60249664D03*
D36*
X130019680Y-60249664D03*
D25*
X121129680Y-57709664D03*
X127479680Y-55169664D03*
D29*
X117919680Y-58219664D03*
X117899680Y-57239664D03*
X130769680Y-54659664D03*
X130789680Y-55739664D03*
D25*
X140179696Y-57709664D03*
D36*
X149069696Y-60249664D03*
D25*
X146529696Y-55169664D03*
D35*
X143989696Y-60249664D03*
D36*
X138909696Y-60249664D03*
D29*
X136969696Y-58219664D03*
X136949696Y-57239664D03*
X149819696Y-54659664D03*
X149839696Y-55739664D03*
D25*
X140179696Y-76759680D03*
D36*
X149069696Y-79299680D03*
D25*
X146529696Y-74219680D03*
D36*
X138909696Y-79299680D03*
D35*
X143989696Y-79299680D03*
D29*
X136949696Y-76289680D03*
X136969696Y-77269680D03*
X149819696Y-73709680D03*
X149839696Y-74789680D03*
D36*
X149069696Y-98349696D03*
D25*
X146529696Y-93269696D03*
D36*
X138909696Y-98349696D03*
D25*
X140179696Y-95809696D03*
D35*
X143989696Y-98349696D03*
D29*
X136969696Y-96319696D03*
X136949696Y-95339696D03*
X149819696Y-92759696D03*
X149839696Y-93839696D03*
D25*
X146529696Y-112319712D03*
D35*
X143989696Y-117399712D03*
D36*
X149069696Y-117399712D03*
X138909696Y-117399712D03*
D25*
X140179696Y-114859712D03*
D29*
X136969696Y-115369712D03*
X136949696Y-114389712D03*
X149839696Y-112889712D03*
X149819696Y-111809712D03*
D25*
X146529696Y-131369728D03*
D36*
X138909696Y-136449728D03*
D25*
X140179696Y-133909728D03*
D36*
X149069696Y-136449728D03*
D35*
X143989696Y-136449728D03*
D29*
X136949696Y-133439728D03*
X136969696Y-134419728D03*
X149819696Y-130859728D03*
X149839696Y-131939728D03*
D35*
X315439840Y-60249664D03*
D25*
X317979840Y-55169664D03*
D36*
X310359840Y-60249664D03*
D25*
X311629840Y-57709664D03*
D36*
X320519840Y-60249664D03*
D29*
X308419840Y-58219664D03*
X308399840Y-57239664D03*
X321269840Y-54659664D03*
X321289840Y-55739664D03*
D36*
X310359840Y-79299680D03*
D25*
X311629840Y-76759680D03*
D36*
X320519840Y-79299680D03*
D35*
X315439840Y-79299680D03*
D25*
X317979840Y-74219680D03*
D29*
X308399840Y-76289680D03*
X308419840Y-77269680D03*
X321289840Y-74789680D03*
X321269840Y-73709680D03*
D25*
X317979840Y-93269696D03*
D35*
X315439840Y-98349696D03*
D25*
X311629840Y-95809696D03*
D36*
X310359840Y-98349696D03*
X320519840Y-98349696D03*
D29*
X308419840Y-96319696D03*
X308399840Y-95339696D03*
X321269840Y-92759696D03*
X321289840Y-93839696D03*
D36*
X320519840Y-117399712D03*
D25*
X317979840Y-112319712D03*
D36*
X310359840Y-117399712D03*
D25*
X311629840Y-114859712D03*
D35*
X315439840Y-117399712D03*
D29*
X308399840Y-114389712D03*
X308419840Y-115369712D03*
X321269840Y-111809712D03*
X321289840Y-112889712D03*
D36*
X320519840Y-136449728D03*
D35*
X315439840Y-136449728D03*
D25*
X317979840Y-131369728D03*
X311629840Y-133909728D03*
D36*
X310359840Y-136449728D03*
D29*
X308399840Y-133439728D03*
X308419840Y-134419728D03*
X321269840Y-130859728D03*
X321289840Y-131939728D03*
D36*
X301469824Y-136449728D03*
D35*
X296389824Y-136449728D03*
D25*
X298929824Y-131369728D03*
X292579824Y-133909728D03*
D36*
X291309824Y-136449728D03*
D29*
X289369824Y-134419728D03*
X289349824Y-133439728D03*
X302219824Y-130859728D03*
X302239824Y-131939728D03*
D25*
X298929824Y-55169664D03*
D35*
X296389824Y-60249664D03*
D36*
X291309824Y-60249664D03*
D25*
X292579824Y-57709664D03*
D36*
X301469824Y-60249664D03*
D29*
X289349824Y-57239664D03*
X289369824Y-58219664D03*
X302239824Y-55739664D03*
X302219824Y-54659664D03*
D36*
X291309824Y-79299680D03*
D35*
X296389824Y-79299680D03*
D25*
X292579824Y-76759680D03*
D36*
X301469824Y-79299680D03*
D25*
X298929824Y-74219680D03*
D29*
X289349824Y-76289680D03*
X289369824Y-77269680D03*
X302219824Y-73709680D03*
X302239824Y-74789680D03*
D36*
X301469824Y-98349696D03*
D25*
X298929824Y-93269696D03*
D35*
X296389824Y-98349696D03*
D25*
X292579824Y-95809696D03*
D36*
X291309824Y-98349696D03*
D29*
X289369824Y-96319696D03*
X289349824Y-95339696D03*
X302239824Y-93839696D03*
X302219824Y-92759696D03*
D36*
X291309824Y-117399712D03*
D25*
X298929824Y-112319712D03*
X292579824Y-114859712D03*
D35*
X296389824Y-117399712D03*
D36*
X301469824Y-117399712D03*
D29*
X289349824Y-114389712D03*
X289369824Y-115369712D03*
X302219824Y-111809712D03*
X302239824Y-112889712D03*
D36*
X282419808Y-117399712D03*
X272259808Y-117399712D03*
D25*
X273529808Y-114859712D03*
D35*
X277339808Y-117399712D03*
D25*
X279879808Y-112319712D03*
D29*
X270299808Y-114389712D03*
X270319808Y-115369712D03*
X283169808Y-111809712D03*
X283189808Y-112889712D03*
D36*
X272259808Y-136449728D03*
X282419808Y-136449728D03*
D25*
X279879808Y-131369728D03*
X273529808Y-133909728D03*
D35*
X277339808Y-136449728D03*
D29*
X270299808Y-133439728D03*
X270319808Y-134419728D03*
X283189808Y-131939728D03*
X283169808Y-130859728D03*
D25*
X273529808Y-57709664D03*
D36*
X272259808Y-60249664D03*
D25*
X279879808Y-55169664D03*
D36*
X282419808Y-60249664D03*
D35*
X277339808Y-60249664D03*
D29*
X270299808Y-57239664D03*
X270319808Y-58219664D03*
X283169808Y-54659664D03*
X283189808Y-55739664D03*
D25*
X279879808Y-74219680D03*
D36*
X282419808Y-79299680D03*
X272259808Y-79299680D03*
D35*
X277339808Y-79299680D03*
D25*
X273529808Y-76759680D03*
D29*
X270319808Y-77269680D03*
X270299808Y-76289680D03*
X283189808Y-74789680D03*
X283169808Y-73709680D03*
D36*
X282419808Y-98349696D03*
X272259808Y-98349696D03*
D25*
X279879808Y-93269696D03*
D35*
X277339808Y-98349696D03*
D25*
X273529808Y-95809696D03*
D29*
X270319808Y-96319696D03*
X270299808Y-95339696D03*
X283189808Y-93839696D03*
X283169808Y-92759696D03*
D36*
X253209792Y-98349696D03*
D35*
X258289792Y-98349696D03*
D25*
X260829792Y-93269696D03*
X254479792Y-95809696D03*
D36*
X263369792Y-98349696D03*
D29*
X251249792Y-95339696D03*
X251269792Y-96319696D03*
X264119792Y-92759696D03*
X264139792Y-93839696D03*
D25*
X254479792Y-114859712D03*
X260829792Y-112319712D03*
D36*
X253209792Y-117399712D03*
X263369792Y-117399712D03*
D35*
X258289792Y-117399712D03*
D29*
X251249792Y-114389712D03*
X251269792Y-115369712D03*
X264139792Y-112889712D03*
X264119792Y-111809712D03*
D25*
X254479792Y-133909728D03*
D36*
X263369792Y-136449728D03*
D35*
X258289792Y-136449728D03*
D36*
X253209792Y-136449728D03*
D25*
X260829792Y-131369728D03*
D29*
X251269792Y-134419728D03*
X251249792Y-133439728D03*
X264139792Y-131939728D03*
X264119792Y-130859728D03*
D25*
X260829792Y-55169664D03*
D36*
X253209792Y-60249664D03*
D35*
X258289792Y-60249664D03*
D25*
X254479792Y-57709664D03*
D36*
X263369792Y-60249664D03*
D29*
X251249792Y-57239664D03*
X251269792Y-58219664D03*
X264139792Y-55739664D03*
X264119792Y-54659664D03*
D36*
X253209792Y-79299680D03*
D25*
X260829792Y-74219680D03*
X254479792Y-76759680D03*
D36*
X263369792Y-79299680D03*
D35*
X258289792Y-79299680D03*
D29*
X251269792Y-77269680D03*
X251249792Y-76289680D03*
X264139792Y-74789680D03*
X264119792Y-73709680D03*
D25*
X241779776Y-74219680D03*
D35*
X239239776Y-79299680D03*
D36*
X234159776Y-79299680D03*
X244319776Y-79299680D03*
D25*
X235429776Y-76759680D03*
D29*
X232199776Y-76289680D03*
X232219776Y-77269680D03*
X245069776Y-73709680D03*
X245089776Y-74789680D03*
D36*
X244319776Y-98349696D03*
X234159776Y-98349696D03*
D25*
X235429776Y-95809696D03*
X241779776Y-93269696D03*
D35*
X239239776Y-98349696D03*
D29*
X232199776Y-95339696D03*
X232219776Y-96319696D03*
X245089776Y-93839696D03*
X245069776Y-92759696D03*
D36*
X244319776Y-117399712D03*
D25*
X235429776Y-114859712D03*
D36*
X234159776Y-117399712D03*
D25*
X241779776Y-112319712D03*
D35*
X239239776Y-117399712D03*
D29*
X232199776Y-114389712D03*
X232219776Y-115369712D03*
X245069776Y-111809712D03*
X245089776Y-112889712D03*
D25*
X241779776Y-131369728D03*
X235429776Y-133909728D03*
D36*
X244319776Y-136449728D03*
X234159776Y-136449728D03*
D35*
X239239776Y-136449728D03*
D29*
X232219776Y-134419728D03*
X232199776Y-133439728D03*
X245089776Y-131939728D03*
X245069776Y-130859728D03*
D25*
X235429776Y-57709664D03*
D36*
X244319776Y-60249664D03*
D25*
X241779776Y-55169664D03*
D36*
X234159776Y-60249664D03*
D35*
X239239776Y-60249664D03*
D29*
X232199776Y-57239664D03*
X232219776Y-58219664D03*
X245069776Y-54659664D03*
X245089776Y-55739664D03*
D36*
X215109760Y-60249664D03*
D25*
X216379760Y-57709664D03*
D36*
X225269760Y-60249664D03*
D35*
X220189760Y-60249664D03*
D25*
X222729760Y-55169664D03*
D29*
X213169760Y-58219664D03*
X213149760Y-57239664D03*
X226039760Y-55739664D03*
X226019760Y-54659664D03*
D25*
X222729760Y-74219680D03*
D36*
X215109760Y-79299680D03*
D25*
X216379760Y-76759680D03*
D35*
X220189760Y-79299680D03*
D36*
X225269760Y-79299680D03*
D29*
X213149760Y-76289680D03*
X213169760Y-77269680D03*
X226039760Y-74789680D03*
X226019760Y-73709680D03*
D35*
X220189760Y-98349696D03*
D36*
X225269760Y-98349696D03*
X215109760Y-98349696D03*
D25*
X216379760Y-95809696D03*
X222729760Y-93269696D03*
D29*
X213169760Y-96319696D03*
X213149760Y-95339696D03*
X226039760Y-93839696D03*
X226019760Y-92759696D03*
D25*
X222729760Y-112319712D03*
X216379760Y-114859712D03*
D36*
X225269760Y-117399712D03*
D35*
X220189760Y-117399712D03*
D36*
X215109760Y-117399712D03*
D29*
X213169760Y-115369712D03*
X213149760Y-114389712D03*
X226019760Y-111809712D03*
X226039760Y-112889712D03*
D25*
X222729760Y-131369728D03*
D36*
X225269760Y-136449728D03*
D25*
X216379760Y-133909728D03*
D36*
X215109760Y-136449728D03*
D35*
X220189760Y-136449728D03*
D29*
X213169760Y-134419728D03*
X213149760Y-133439728D03*
X226019760Y-130859728D03*
X226039760Y-131939728D03*
D35*
X86839648Y-60249664D03*
D36*
X91919648Y-60249664D03*
X81759648Y-60249664D03*
D25*
X89379648Y-55169664D03*
X83029648Y-57709664D03*
D29*
X79799648Y-57239664D03*
X79819648Y-58219664D03*
X92669648Y-54659664D03*
X92689648Y-55739664D03*
D36*
X91919648Y-79299680D03*
D35*
X86839648Y-79299680D03*
D25*
X89379648Y-74219680D03*
D36*
X81759648Y-79299680D03*
D25*
X83029648Y-76759680D03*
D29*
X79819648Y-77269680D03*
X79799648Y-76289680D03*
X92669648Y-73709680D03*
X92689648Y-74789680D03*
D23*
X58264624Y-126924720D03*
X305914832Y-69774672D03*
X305914832Y-126924720D03*
X58264624Y-69774672D03*
D35*
X48739568Y-60249610D03*
D25*
X52549568Y-62789610D03*
D36*
X43659568Y-60249610D03*
D25*
X46199568Y-65329610D03*
D36*
X53819568Y-60249610D03*
D29*
X55759568Y-62279610D03*
X55779568Y-63259610D03*
X42889568Y-64759610D03*
X42909568Y-65839610D03*
D35*
X220189760Y-98349696D03*
D25*
X216379760Y-95809696D03*
D36*
X215109760Y-98349696D03*
D25*
X222729760Y-93269696D03*
D36*
X225269760Y-98349696D03*
D29*
X213169760Y-96319696D03*
X213149760Y-95339696D03*
X226019760Y-92759696D03*
X226039760Y-93839696D03*
D37*
X59067600Y-56615860D03*
D38*
X58589600Y-58015860D03*
D39*
X56517600Y-55315860D03*
D37*
X56517600Y-56615860D03*
D39*
X59067600Y-55315860D03*
D37*
X57367600Y-56615860D03*
D39*
X58217600Y-55315860D03*
D40*
X57789600Y-59565860D03*
D39*
X57367600Y-55315860D03*
D37*
X58217600Y-56615860D03*
D38*
X56989600Y-58015860D03*
D39*
X60767600Y-56665860D03*
D41*
X59389600Y-59565860D03*
D39*
X54817600Y-55315860D03*
X54817600Y-56665860D03*
X60767600Y-55315860D03*
D42*
X53467600Y-56045860D03*
D43*
X53689600Y-57605860D03*
X61889600Y-57605860D03*
D42*
X62117600Y-56045860D03*
D44*
X53467600Y-52665860D03*
D43*
X53889600Y-52905860D03*
X61689600Y-52905860D03*
D44*
X62117600Y-52665860D03*
D39*
X55667600Y-56665860D03*
D40*
X56189600Y-59565860D03*
D39*
X59917600Y-55315860D03*
X59917600Y-56665860D03*
X55667600Y-55315860D03*
D45*
X96364600Y-72030860D03*
X96364600Y-70530861D03*
X96364600Y-69030859D03*
X96364600Y-67530859D03*
M02*
