G04 #@! TF.GenerationSoftware,KiCad,Pcbnew,(6.0.0)*
G04 #@! TF.CreationDate,2022-12-30T20:57:32+07:00*
G04 #@! TF.ProjectId,lumberjack,6c756d62-6572-46a6-9163-6b2e6b696361,1.6*
G04 #@! TF.SameCoordinates,Original*
G04 #@! TF.FileFunction,Soldermask,Top*
G04 #@! TF.FilePolarity,Negative*
%FSLAX46Y46*%
G04 Gerber Fmt 4.6, Leading zero omitted, Abs format (unit mm)*
G04 Created by KiCad (PCBNEW (6.0.0)) date 2022-12-30 20:57:32*
%MOMM*%
%LPD*%
G01*
G04 APERTURE LIST*
%ADD10C,1.600000*%
%ADD11R,1.800000X1.800000*%
%ADD12C,1.800000*%
%ADD13R,1.600000X1.600000*%
%ADD14O,1.600000X1.600000*%
%ADD15C,1.710000*%
%ADD16R,1.200000X1.200000*%
%ADD17C,1.200000*%
%ADD18C,2.000000*%
%ADD19C,5.000000*%
%ADD20O,11.600000X5.000000*%
%ADD21C,3.000000*%
%ADD22C,3.048000*%
%ADD23C,1.750000*%
%ADD24C,3.987800*%
%ADD25C,0.600000*%
%ADD26R,1.700000X1.700000*%
%ADD27O,1.700000X1.700000*%
%ADD28C,1.400000*%
%ADD29O,1.400000X1.400000*%
%ADD30C,1.500000*%
%ADD31C,4.100000*%
%ADD32C,1.900000*%
%ADD33O,0.700000X0.900000*%
%ADD34O,1.100000X1.100000*%
%ADD35O,0.700000X1.000000*%
%ADD36C,1.100000*%
%ADD37R,1.100000X1.100000*%
%ADD38O,0.900000X2.400000*%
%ADD39O,0.850000X2.000000*%
%ADD40O,0.900000X1.700000*%
%ADD41C,1.244600*%
G04 APERTURE END LIST*
D10*
X173755346Y-90015314D03*
X173755346Y-92515314D03*
X173755346Y-84657497D03*
X173755346Y-87157497D03*
D11*
X189233484Y-59654351D03*
D12*
X186693484Y-59654351D03*
D13*
X184470980Y-65012168D03*
D14*
X184470980Y-67552168D03*
X184470980Y-70092168D03*
X184470980Y-72632168D03*
X184470980Y-75172168D03*
X184470980Y-77712168D03*
X184470980Y-80252168D03*
X184470980Y-82792168D03*
X184470980Y-85332168D03*
X184470980Y-87872168D03*
X184470980Y-90412168D03*
X184470980Y-92952168D03*
X184470980Y-95492168D03*
X184470980Y-98032168D03*
X192090980Y-98032168D03*
X192090980Y-95492168D03*
X192090980Y-92952168D03*
X192090980Y-90412168D03*
X192090980Y-87872168D03*
X192090980Y-85332168D03*
X192090980Y-82792168D03*
X192090980Y-80252168D03*
X192090980Y-77712168D03*
X192090980Y-75172168D03*
X192090980Y-72632168D03*
X192090980Y-70092168D03*
X192090980Y-67552168D03*
X192090980Y-65012168D03*
D15*
X170183468Y-109501895D03*
X170183468Y-114581895D03*
D13*
X166016277Y-78704367D03*
D14*
X158396277Y-78704367D03*
D13*
X166016277Y-114423147D03*
D14*
X158396277Y-114423147D03*
D13*
X180303789Y-130496598D03*
D14*
X180303789Y-138116598D03*
D13*
X177327224Y-132877850D03*
D14*
X177327224Y-140497850D03*
D13*
X174350659Y-130496598D03*
D14*
X174350659Y-138116598D03*
D13*
X168397529Y-130496598D03*
D14*
X168397529Y-138116598D03*
D16*
X176731911Y-123948155D03*
D17*
X175231911Y-123948155D03*
D13*
X166016277Y-72751237D03*
D14*
X158396277Y-72751237D03*
D18*
X173755346Y-103112200D03*
X173755346Y-96612200D03*
X178255346Y-103112200D03*
X178255346Y-96612200D03*
D19*
X158277208Y-55487160D03*
X205902248Y-55487160D03*
X158277208Y-140616919D03*
X205902248Y-140616919D03*
D20*
X42786486Y-107279391D03*
X321392970Y-107279391D03*
D13*
X195781927Y-130496598D03*
D14*
X195781927Y-138116598D03*
D11*
X177485972Y-59654351D03*
D12*
X174945972Y-59654351D03*
D13*
X166016277Y-126329407D03*
D14*
X158396277Y-126329407D03*
D13*
X166016277Y-120376277D03*
D14*
X158396277Y-120376277D03*
D13*
X163635025Y-111446582D03*
D14*
X156015025Y-111446582D03*
D13*
X166016277Y-108470017D03*
D14*
X158396277Y-108470017D03*
D13*
X163635025Y-105493452D03*
D14*
X156015025Y-105493452D03*
D13*
X163635025Y-117399712D03*
D14*
X156015025Y-117399712D03*
D13*
X163635025Y-93587192D03*
D14*
X156015025Y-93587192D03*
D13*
X166016277Y-90610627D03*
D14*
X158396277Y-90610627D03*
D13*
X163635025Y-99540322D03*
D14*
X156015025Y-99540322D03*
D13*
X163635025Y-87634062D03*
D14*
X156015025Y-87634062D03*
D13*
X166016277Y-84657497D03*
D14*
X158396277Y-84657497D03*
D13*
X163635025Y-81680932D03*
D14*
X156015025Y-81680932D03*
D13*
X198163179Y-72751237D03*
D14*
X205783179Y-72751237D03*
D13*
X163635025Y-69774672D03*
D14*
X156015025Y-69774672D03*
D13*
X200544431Y-69774672D03*
D14*
X208164431Y-69774672D03*
D13*
X163635025Y-63821542D03*
D14*
X156015025Y-63821542D03*
D13*
X192805362Y-132877850D03*
D14*
X192805362Y-140497850D03*
D18*
X173755346Y-65060611D03*
X173755346Y-71560611D03*
X178255346Y-71560611D03*
X178255346Y-65060611D03*
D10*
X185424110Y-122757529D03*
X190424110Y-122757529D03*
D13*
X165420964Y-132877850D03*
D14*
X165420964Y-140497850D03*
D13*
X200544431Y-111446582D03*
D14*
X208164431Y-111446582D03*
D13*
X198758492Y-132877850D03*
D14*
X198758492Y-140497850D03*
D13*
X200544431Y-75727802D03*
D14*
X208164431Y-75727802D03*
D13*
X198163179Y-60844977D03*
D14*
X205783179Y-60844977D03*
D13*
X200544431Y-63821542D03*
D14*
X208164431Y-63821542D03*
D13*
X198163179Y-78704367D03*
D14*
X205783179Y-78704367D03*
D13*
X200544431Y-93587192D03*
D14*
X208164431Y-93587192D03*
D13*
X200544431Y-87634062D03*
D14*
X208164431Y-87634062D03*
D13*
X198163179Y-90610627D03*
D14*
X205783179Y-90610627D03*
D13*
X198163179Y-102516887D03*
D14*
X205783179Y-102516887D03*
D13*
X200544431Y-99540322D03*
D14*
X208164431Y-99540322D03*
D13*
X198163179Y-96563757D03*
D14*
X205783179Y-96563757D03*
D13*
X200544431Y-81680932D03*
D14*
X208164431Y-81680932D03*
D13*
X198163179Y-108470017D03*
D14*
X205783179Y-108470017D03*
D13*
X200544431Y-105493452D03*
D14*
X208164431Y-105493452D03*
D13*
X198163179Y-114423147D03*
D14*
X205783179Y-114423147D03*
D13*
X198163179Y-84657497D03*
D14*
X205783179Y-84657497D03*
D13*
X198163179Y-66798107D03*
D14*
X205783179Y-66798107D03*
D13*
X200544431Y-129305972D03*
D14*
X208164431Y-129305972D03*
D13*
X198163179Y-120376277D03*
D14*
X205783179Y-120376277D03*
D13*
X183875667Y-130496598D03*
D14*
X183875667Y-138116598D03*
D13*
X200544431Y-117399712D03*
D14*
X208164431Y-117399712D03*
D13*
X200544431Y-123352842D03*
D14*
X208164431Y-123352842D03*
D13*
X198163179Y-126329407D03*
D14*
X205783179Y-126329407D03*
D13*
X186852232Y-132877850D03*
D14*
X186852232Y-140497850D03*
D21*
X227174768Y-141529728D03*
X233524768Y-138989728D03*
D22*
X241652768Y-143434728D03*
X217776768Y-143434728D03*
D23*
X224634768Y-136449728D03*
D24*
X241652768Y-128194728D03*
D23*
X234794768Y-136449728D03*
D24*
X229714768Y-136449728D03*
X217776768Y-128194728D03*
D25*
X236709768Y-139611728D03*
X236699768Y-138481728D03*
X223882768Y-142151728D03*
X223872768Y-141021728D03*
D24*
X134464688Y-136449728D03*
X146402688Y-128194728D03*
D21*
X138274688Y-138989728D03*
X131924688Y-141529728D03*
D23*
X139544688Y-136449728D03*
D22*
X146402688Y-143434728D03*
D24*
X122526688Y-128194728D03*
D22*
X122526688Y-143434728D03*
D23*
X129384688Y-136449728D03*
D25*
X141449688Y-138481728D03*
X141459688Y-139611728D03*
X128622688Y-141021728D03*
X128632688Y-142151728D03*
D10*
X185424110Y-125734094D03*
X190424110Y-125734094D03*
D26*
X173755346Y-78704367D03*
D27*
X173755346Y-76164367D03*
X176295346Y-78704367D03*
X176295346Y-76164367D03*
X178835346Y-78704367D03*
X178835346Y-76164367D03*
D19*
X167802216Y-98349696D03*
D13*
X189828797Y-130496598D03*
D14*
X189828797Y-138116598D03*
D13*
X163635025Y-129305972D03*
D14*
X156015025Y-129305972D03*
D13*
X166016277Y-102516887D03*
D14*
X158396277Y-102516887D03*
D13*
X163635025Y-96563757D03*
D14*
X156015025Y-96563757D03*
D13*
X163635025Y-75727802D03*
D14*
X156015025Y-75727802D03*
D28*
X192090980Y-102516887D03*
D29*
X184470980Y-102516887D03*
D30*
X178517850Y-85848123D03*
X178517850Y-90728123D03*
D13*
X163635025Y-123352842D03*
D14*
X156015025Y-123352842D03*
D28*
X184470980Y-109660643D03*
D29*
X192090980Y-109660643D03*
D28*
X179708476Y-54296534D03*
D29*
X172088476Y-54296534D03*
D28*
X192090980Y-54296534D03*
D29*
X184470980Y-54296534D03*
D28*
X184470980Y-107279391D03*
D29*
X192090980Y-107279391D03*
D13*
X184590049Y-117399712D03*
D14*
X192210049Y-117399712D03*
D13*
X184590049Y-114423147D03*
D14*
X192210049Y-114423147D03*
D28*
X45167738Y-69774672D03*
D29*
X52787738Y-69774672D03*
D28*
X71361510Y-69774672D03*
D29*
X63741510Y-69774672D03*
D28*
X184470980Y-104898139D03*
D29*
X192090980Y-104898139D03*
D13*
X166016277Y-60844977D03*
D14*
X158396277Y-60844977D03*
D13*
X166016277Y-66798107D03*
D14*
X158396277Y-66798107D03*
D13*
X171374094Y-132877850D03*
D14*
X171374094Y-140497850D03*
D31*
X48739616Y-79299680D03*
D32*
X43659616Y-79299680D03*
X53819616Y-79299680D03*
D21*
X44929616Y-76759680D03*
X51279616Y-74219680D03*
D25*
X41719616Y-77269680D03*
X41699616Y-76289680D03*
X54569616Y-73709680D03*
X54589616Y-74789680D03*
D21*
X51279616Y-93269696D03*
X44929616Y-95809696D03*
D32*
X43659616Y-98349696D03*
X53819616Y-98349696D03*
D31*
X48739616Y-98349696D03*
D25*
X41699616Y-95339696D03*
X41719616Y-96319696D03*
X54569616Y-92759696D03*
X54589616Y-93839696D03*
D32*
X53819616Y-117399712D03*
D21*
X44929616Y-114859712D03*
D31*
X48739616Y-117399712D03*
D32*
X43659616Y-117399712D03*
D21*
X51279616Y-112319712D03*
D25*
X41719616Y-115369712D03*
X41699616Y-114389712D03*
X54589616Y-112889712D03*
X54569616Y-111809712D03*
D31*
X48739616Y-136449728D03*
D32*
X43659616Y-136449728D03*
X53819616Y-136449728D03*
D21*
X51279616Y-131369728D03*
X44929616Y-133909728D03*
D25*
X41699616Y-133439728D03*
X41719616Y-134419728D03*
X54569616Y-130859728D03*
X54589616Y-131939728D03*
D21*
X70329632Y-131369728D03*
X63979632Y-133909728D03*
D31*
X67789632Y-136449728D03*
D32*
X62709632Y-136449728D03*
X72869632Y-136449728D03*
D25*
X60769632Y-134419728D03*
X60749632Y-133439728D03*
X73639632Y-131939728D03*
X73619632Y-130859728D03*
D32*
X62709632Y-60249664D03*
X72869632Y-60249664D03*
D21*
X71599632Y-62789664D03*
D31*
X67789632Y-60249664D03*
D21*
X65249632Y-65329664D03*
D25*
X74809632Y-62279664D03*
X74829632Y-63259664D03*
X61939632Y-64759664D03*
X61959632Y-65839664D03*
D32*
X72869632Y-79299680D03*
D21*
X70329632Y-74219680D03*
D31*
X67789632Y-79299680D03*
D32*
X62709632Y-79299680D03*
D21*
X63979632Y-76759680D03*
D25*
X60749632Y-76289680D03*
X60769632Y-77269680D03*
X73619632Y-73709680D03*
X73639632Y-74789680D03*
D32*
X62709632Y-98349696D03*
D21*
X70329632Y-93269696D03*
D31*
X67789632Y-98349696D03*
D21*
X63979632Y-95809696D03*
D32*
X72869632Y-98349696D03*
D25*
X60749632Y-95339696D03*
X60769632Y-96319696D03*
X73619632Y-92759696D03*
X73639632Y-93839696D03*
D21*
X70329632Y-112319712D03*
X63979632Y-114859712D03*
D31*
X67789632Y-117399712D03*
D32*
X62709632Y-117399712D03*
X72869632Y-117399712D03*
D25*
X60749632Y-114389712D03*
X60769632Y-115369712D03*
X73619632Y-111809712D03*
X73639632Y-112889712D03*
D31*
X86839648Y-117399712D03*
D21*
X83029648Y-114859712D03*
D32*
X81759648Y-117399712D03*
X91919648Y-117399712D03*
D21*
X89379648Y-112319712D03*
D25*
X79819648Y-115369712D03*
X79799648Y-114389712D03*
X92669648Y-111809712D03*
X92689648Y-112889712D03*
D21*
X83029648Y-133909728D03*
D32*
X81759648Y-136449728D03*
X91919648Y-136449728D03*
D21*
X89379648Y-131369728D03*
D31*
X86839648Y-136449728D03*
D25*
X79799648Y-133439728D03*
X79819648Y-134419728D03*
X92669648Y-130859728D03*
X92689648Y-131939728D03*
D21*
X83029648Y-95809696D03*
D31*
X86839648Y-98349696D03*
D32*
X91919648Y-98349696D03*
X81759648Y-98349696D03*
D21*
X89379648Y-93269696D03*
D25*
X79819648Y-96319696D03*
X79799648Y-95339696D03*
X92689648Y-93839696D03*
X92669648Y-92759696D03*
D21*
X102079664Y-95809696D03*
D32*
X110969664Y-98349696D03*
X100809664Y-98349696D03*
D31*
X105889664Y-98349696D03*
D21*
X108429664Y-93269696D03*
D25*
X98849664Y-95339696D03*
X98869664Y-96319696D03*
X111719664Y-92759696D03*
X111739664Y-93839696D03*
D21*
X102079664Y-114859712D03*
D31*
X105889664Y-117399712D03*
D32*
X100809664Y-117399712D03*
D21*
X108429664Y-112319712D03*
D32*
X110969664Y-117399712D03*
D25*
X98849664Y-114389712D03*
X98869664Y-115369712D03*
X111739664Y-112889712D03*
X111719664Y-111809712D03*
D32*
X100809664Y-136449728D03*
D21*
X108429664Y-131369728D03*
D31*
X105889664Y-136449728D03*
D32*
X110969664Y-136449728D03*
D21*
X102079664Y-133909728D03*
D25*
X98869664Y-134419728D03*
X98849664Y-133439728D03*
X111739664Y-131939728D03*
X111719664Y-130859728D03*
D31*
X105889664Y-60249664D03*
D21*
X102079664Y-57709664D03*
D32*
X100809664Y-60249664D03*
X110969664Y-60249664D03*
D21*
X108429664Y-55169664D03*
D25*
X98849664Y-57239664D03*
X98869664Y-58219664D03*
X111719664Y-54659664D03*
X111739664Y-55739664D03*
D21*
X102079664Y-76759680D03*
D31*
X105889664Y-79299680D03*
D32*
X100809664Y-79299680D03*
D21*
X108429664Y-74219680D03*
D32*
X110969664Y-79299680D03*
D25*
X98849664Y-76289680D03*
X98869664Y-77269680D03*
X111739664Y-74789680D03*
X111719664Y-73709680D03*
D32*
X119859680Y-79299680D03*
D21*
X127479680Y-74219680D03*
D32*
X130019680Y-79299680D03*
D21*
X121129680Y-76759680D03*
D31*
X124939680Y-79299680D03*
D25*
X117899680Y-76289680D03*
X117919680Y-77269680D03*
X130769680Y-73709680D03*
X130789680Y-74789680D03*
D32*
X130019680Y-98349696D03*
X119859680Y-98349696D03*
D21*
X121129680Y-95809696D03*
X127479680Y-93269696D03*
D31*
X124939680Y-98349696D03*
D25*
X117919680Y-96319696D03*
X117899680Y-95339696D03*
X130769680Y-92759696D03*
X130789680Y-93839696D03*
D21*
X127479680Y-112319712D03*
X121129680Y-114859712D03*
D31*
X124939680Y-117399712D03*
D32*
X130019680Y-117399712D03*
X119859680Y-117399712D03*
D25*
X117919680Y-115369712D03*
X117899680Y-114389712D03*
X130789680Y-112889712D03*
X130769680Y-111809712D03*
D31*
X124939680Y-136449728D03*
D32*
X119859680Y-136449728D03*
D21*
X127479680Y-131369728D03*
D32*
X130019680Y-136449728D03*
D21*
X121129680Y-133909728D03*
D25*
X117919680Y-134419728D03*
X117899680Y-133439728D03*
X130789680Y-131939728D03*
X130769680Y-130859728D03*
D32*
X119859680Y-60249664D03*
D31*
X124939680Y-60249664D03*
D32*
X130019680Y-60249664D03*
D21*
X121129680Y-57709664D03*
X127479680Y-55169664D03*
D25*
X117919680Y-58219664D03*
X117899680Y-57239664D03*
X130769680Y-54659664D03*
X130789680Y-55739664D03*
D21*
X140179696Y-57709664D03*
D32*
X149069696Y-60249664D03*
D21*
X146529696Y-55169664D03*
D31*
X143989696Y-60249664D03*
D32*
X138909696Y-60249664D03*
D25*
X136969696Y-58219664D03*
X136949696Y-57239664D03*
X149819696Y-54659664D03*
X149839696Y-55739664D03*
D21*
X140179696Y-76759680D03*
D32*
X149069696Y-79299680D03*
D21*
X146529696Y-74219680D03*
D32*
X138909696Y-79299680D03*
D31*
X143989696Y-79299680D03*
D25*
X136949696Y-76289680D03*
X136969696Y-77269680D03*
X149819696Y-73709680D03*
X149839696Y-74789680D03*
D32*
X149069696Y-98349696D03*
D21*
X146529696Y-93269696D03*
D32*
X138909696Y-98349696D03*
D21*
X140179696Y-95809696D03*
D31*
X143989696Y-98349696D03*
D25*
X136969696Y-96319696D03*
X136949696Y-95339696D03*
X149819696Y-92759696D03*
X149839696Y-93839696D03*
D21*
X146529696Y-112319712D03*
D31*
X143989696Y-117399712D03*
D32*
X149069696Y-117399712D03*
X138909696Y-117399712D03*
D21*
X140179696Y-114859712D03*
D25*
X136969696Y-115369712D03*
X136949696Y-114389712D03*
X149839696Y-112889712D03*
X149819696Y-111809712D03*
D21*
X146529696Y-131369728D03*
D32*
X138909696Y-136449728D03*
D21*
X140179696Y-133909728D03*
D32*
X149069696Y-136449728D03*
D31*
X143989696Y-136449728D03*
D25*
X136949696Y-133439728D03*
X136969696Y-134419728D03*
X149819696Y-130859728D03*
X149839696Y-131939728D03*
D31*
X315439840Y-60249664D03*
D21*
X317979840Y-55169664D03*
D32*
X310359840Y-60249664D03*
D21*
X311629840Y-57709664D03*
D32*
X320519840Y-60249664D03*
D25*
X308419840Y-58219664D03*
X308399840Y-57239664D03*
X321269840Y-54659664D03*
X321289840Y-55739664D03*
D32*
X310359840Y-79299680D03*
D21*
X311629840Y-76759680D03*
D32*
X320519840Y-79299680D03*
D31*
X315439840Y-79299680D03*
D21*
X317979840Y-74219680D03*
D25*
X308399840Y-76289680D03*
X308419840Y-77269680D03*
X321289840Y-74789680D03*
X321269840Y-73709680D03*
D21*
X317979840Y-93269696D03*
D31*
X315439840Y-98349696D03*
D21*
X311629840Y-95809696D03*
D32*
X310359840Y-98349696D03*
X320519840Y-98349696D03*
D25*
X308419840Y-96319696D03*
X308399840Y-95339696D03*
X321269840Y-92759696D03*
X321289840Y-93839696D03*
D32*
X320519840Y-117399712D03*
D21*
X317979840Y-112319712D03*
D32*
X310359840Y-117399712D03*
D21*
X311629840Y-114859712D03*
D31*
X315439840Y-117399712D03*
D25*
X308399840Y-114389712D03*
X308419840Y-115369712D03*
X321269840Y-111809712D03*
X321289840Y-112889712D03*
D32*
X320519840Y-136449728D03*
D31*
X315439840Y-136449728D03*
D21*
X317979840Y-131369728D03*
X311629840Y-133909728D03*
D32*
X310359840Y-136449728D03*
D25*
X308399840Y-133439728D03*
X308419840Y-134419728D03*
X321269840Y-130859728D03*
X321289840Y-131939728D03*
D32*
X301469824Y-136449728D03*
D31*
X296389824Y-136449728D03*
D21*
X298929824Y-131369728D03*
X292579824Y-133909728D03*
D32*
X291309824Y-136449728D03*
D25*
X289369824Y-134419728D03*
X289349824Y-133439728D03*
X302219824Y-130859728D03*
X302239824Y-131939728D03*
D21*
X298929824Y-55169664D03*
D31*
X296389824Y-60249664D03*
D32*
X291309824Y-60249664D03*
D21*
X292579824Y-57709664D03*
D32*
X301469824Y-60249664D03*
D25*
X289349824Y-57239664D03*
X289369824Y-58219664D03*
X302239824Y-55739664D03*
X302219824Y-54659664D03*
D32*
X291309824Y-79299680D03*
D31*
X296389824Y-79299680D03*
D21*
X292579824Y-76759680D03*
D32*
X301469824Y-79299680D03*
D21*
X298929824Y-74219680D03*
D25*
X289349824Y-76289680D03*
X289369824Y-77269680D03*
X302219824Y-73709680D03*
X302239824Y-74789680D03*
D32*
X301469824Y-98349696D03*
D21*
X298929824Y-93269696D03*
D31*
X296389824Y-98349696D03*
D21*
X292579824Y-95809696D03*
D32*
X291309824Y-98349696D03*
D25*
X289369824Y-96319696D03*
X289349824Y-95339696D03*
X302239824Y-93839696D03*
X302219824Y-92759696D03*
D32*
X291309824Y-117399712D03*
D21*
X298929824Y-112319712D03*
X292579824Y-114859712D03*
D31*
X296389824Y-117399712D03*
D32*
X301469824Y-117399712D03*
D25*
X289349824Y-114389712D03*
X289369824Y-115369712D03*
X302219824Y-111809712D03*
X302239824Y-112889712D03*
D32*
X282419808Y-117399712D03*
X272259808Y-117399712D03*
D21*
X273529808Y-114859712D03*
D31*
X277339808Y-117399712D03*
D21*
X279879808Y-112319712D03*
D25*
X270299808Y-114389712D03*
X270319808Y-115369712D03*
X283169808Y-111809712D03*
X283189808Y-112889712D03*
D32*
X272259808Y-136449728D03*
X282419808Y-136449728D03*
D21*
X279879808Y-131369728D03*
X273529808Y-133909728D03*
D31*
X277339808Y-136449728D03*
D25*
X270299808Y-133439728D03*
X270319808Y-134419728D03*
X283189808Y-131939728D03*
X283169808Y-130859728D03*
D21*
X273529808Y-57709664D03*
D32*
X272259808Y-60249664D03*
D21*
X279879808Y-55169664D03*
D32*
X282419808Y-60249664D03*
D31*
X277339808Y-60249664D03*
D25*
X270299808Y-57239664D03*
X270319808Y-58219664D03*
X283169808Y-54659664D03*
X283189808Y-55739664D03*
D21*
X279879808Y-74219680D03*
D32*
X282419808Y-79299680D03*
X272259808Y-79299680D03*
D31*
X277339808Y-79299680D03*
D21*
X273529808Y-76759680D03*
D25*
X270319808Y-77269680D03*
X270299808Y-76289680D03*
X283189808Y-74789680D03*
X283169808Y-73709680D03*
D32*
X282419808Y-98349696D03*
X272259808Y-98349696D03*
D21*
X279879808Y-93269696D03*
D31*
X277339808Y-98349696D03*
D21*
X273529808Y-95809696D03*
D25*
X270319808Y-96319696D03*
X270299808Y-95339696D03*
X283189808Y-93839696D03*
X283169808Y-92759696D03*
D32*
X253209792Y-98349696D03*
D31*
X258289792Y-98349696D03*
D21*
X260829792Y-93269696D03*
X254479792Y-95809696D03*
D32*
X263369792Y-98349696D03*
D25*
X251249792Y-95339696D03*
X251269792Y-96319696D03*
X264119792Y-92759696D03*
X264139792Y-93839696D03*
D21*
X254479792Y-114859712D03*
X260829792Y-112319712D03*
D32*
X253209792Y-117399712D03*
X263369792Y-117399712D03*
D31*
X258289792Y-117399712D03*
D25*
X251249792Y-114389712D03*
X251269792Y-115369712D03*
X264139792Y-112889712D03*
X264119792Y-111809712D03*
D21*
X254479792Y-133909728D03*
D32*
X263369792Y-136449728D03*
D31*
X258289792Y-136449728D03*
D32*
X253209792Y-136449728D03*
D21*
X260829792Y-131369728D03*
D25*
X251269792Y-134419728D03*
X251249792Y-133439728D03*
X264139792Y-131939728D03*
X264119792Y-130859728D03*
D21*
X260829792Y-55169664D03*
D32*
X253209792Y-60249664D03*
D31*
X258289792Y-60249664D03*
D21*
X254479792Y-57709664D03*
D32*
X263369792Y-60249664D03*
D25*
X251249792Y-57239664D03*
X251269792Y-58219664D03*
X264139792Y-55739664D03*
X264119792Y-54659664D03*
D32*
X253209792Y-79299680D03*
D21*
X260829792Y-74219680D03*
X254479792Y-76759680D03*
D32*
X263369792Y-79299680D03*
D31*
X258289792Y-79299680D03*
D25*
X251269792Y-77269680D03*
X251249792Y-76289680D03*
X264139792Y-74789680D03*
X264119792Y-73709680D03*
D21*
X241779776Y-74219680D03*
D31*
X239239776Y-79299680D03*
D32*
X234159776Y-79299680D03*
X244319776Y-79299680D03*
D21*
X235429776Y-76759680D03*
D25*
X232199776Y-76289680D03*
X232219776Y-77269680D03*
X245069776Y-73709680D03*
X245089776Y-74789680D03*
D32*
X244319776Y-98349696D03*
X234159776Y-98349696D03*
D21*
X235429776Y-95809696D03*
X241779776Y-93269696D03*
D31*
X239239776Y-98349696D03*
D25*
X232199776Y-95339696D03*
X232219776Y-96319696D03*
X245089776Y-93839696D03*
X245069776Y-92759696D03*
D32*
X244319776Y-117399712D03*
D21*
X235429776Y-114859712D03*
D32*
X234159776Y-117399712D03*
D21*
X241779776Y-112319712D03*
D31*
X239239776Y-117399712D03*
D25*
X232199776Y-114389712D03*
X232219776Y-115369712D03*
X245069776Y-111809712D03*
X245089776Y-112889712D03*
D21*
X241779776Y-131369728D03*
X235429776Y-133909728D03*
D32*
X244319776Y-136449728D03*
X234159776Y-136449728D03*
D31*
X239239776Y-136449728D03*
D25*
X232219776Y-134419728D03*
X232199776Y-133439728D03*
X245089776Y-131939728D03*
X245069776Y-130859728D03*
D21*
X235429776Y-57709664D03*
D32*
X244319776Y-60249664D03*
D21*
X241779776Y-55169664D03*
D32*
X234159776Y-60249664D03*
D31*
X239239776Y-60249664D03*
D25*
X232199776Y-57239664D03*
X232219776Y-58219664D03*
X245069776Y-54659664D03*
X245089776Y-55739664D03*
D32*
X215109760Y-60249664D03*
D21*
X216379760Y-57709664D03*
D32*
X225269760Y-60249664D03*
D31*
X220189760Y-60249664D03*
D21*
X222729760Y-55169664D03*
D25*
X213169760Y-58219664D03*
X213149760Y-57239664D03*
X226039760Y-55739664D03*
X226019760Y-54659664D03*
D21*
X222729760Y-74219680D03*
D32*
X215109760Y-79299680D03*
D21*
X216379760Y-76759680D03*
D31*
X220189760Y-79299680D03*
D32*
X225269760Y-79299680D03*
D25*
X213149760Y-76289680D03*
X213169760Y-77269680D03*
X226039760Y-74789680D03*
X226019760Y-73709680D03*
D31*
X220189760Y-98349696D03*
D32*
X225269760Y-98349696D03*
X215109760Y-98349696D03*
D21*
X216379760Y-95809696D03*
X222729760Y-93269696D03*
D25*
X213169760Y-96319696D03*
X213149760Y-95339696D03*
X226039760Y-93839696D03*
X226019760Y-92759696D03*
D21*
X222729760Y-112319712D03*
X216379760Y-114859712D03*
D32*
X225269760Y-117399712D03*
D31*
X220189760Y-117399712D03*
D32*
X215109760Y-117399712D03*
D25*
X213169760Y-115369712D03*
X213149760Y-114389712D03*
X226019760Y-111809712D03*
X226039760Y-112889712D03*
D21*
X222729760Y-131369728D03*
D32*
X225269760Y-136449728D03*
D21*
X216379760Y-133909728D03*
D32*
X215109760Y-136449728D03*
D31*
X220189760Y-136449728D03*
D25*
X213169760Y-134419728D03*
X213149760Y-133439728D03*
X226019760Y-130859728D03*
X226039760Y-131939728D03*
D31*
X86839648Y-60249664D03*
D32*
X91919648Y-60249664D03*
X81759648Y-60249664D03*
D21*
X89379648Y-55169664D03*
X83029648Y-57709664D03*
D25*
X79799648Y-57239664D03*
X79819648Y-58219664D03*
X92669648Y-54659664D03*
X92689648Y-55739664D03*
D32*
X91919648Y-79299680D03*
D31*
X86839648Y-79299680D03*
D21*
X89379648Y-74219680D03*
D32*
X81759648Y-79299680D03*
D21*
X83029648Y-76759680D03*
D25*
X79819648Y-77269680D03*
X79799648Y-76289680D03*
X92669648Y-73709680D03*
X92689648Y-74789680D03*
D19*
X58264624Y-126924720D03*
X305914832Y-69774672D03*
X305914832Y-126924720D03*
X58264624Y-69774672D03*
D31*
X48739568Y-60249610D03*
D21*
X52549568Y-62789610D03*
D32*
X43659568Y-60249610D03*
D21*
X46199568Y-65329610D03*
D32*
X53819568Y-60249610D03*
D25*
X55759568Y-62279610D03*
X55779568Y-63259610D03*
X42889568Y-64759610D03*
X42909568Y-65839610D03*
D31*
X220189760Y-98349696D03*
D21*
X216379760Y-95809696D03*
D32*
X215109760Y-98349696D03*
D21*
X222729760Y-93269696D03*
D32*
X225269760Y-98349696D03*
D25*
X213169760Y-96319696D03*
X213149760Y-95339696D03*
X226019760Y-92759696D03*
X226039760Y-93839696D03*
D33*
X59067600Y-56615860D03*
D34*
X58589600Y-58015860D03*
D35*
X56517600Y-55315860D03*
D33*
X56517600Y-56615860D03*
D35*
X59067600Y-55315860D03*
D33*
X57367600Y-56615860D03*
D35*
X58217600Y-55315860D03*
D36*
X57789600Y-59565860D03*
D35*
X57367600Y-55315860D03*
D33*
X58217600Y-56615860D03*
D34*
X56989600Y-58015860D03*
D35*
X60767600Y-56665860D03*
D37*
X59389600Y-59565860D03*
D35*
X54817600Y-55315860D03*
X54817600Y-56665860D03*
X60767600Y-55315860D03*
D38*
X53467600Y-56045860D03*
D39*
X53689600Y-57605860D03*
X61889600Y-57605860D03*
D38*
X62117600Y-56045860D03*
D40*
X53467600Y-52665860D03*
D39*
X53889600Y-52905860D03*
X61689600Y-52905860D03*
D40*
X62117600Y-52665860D03*
D35*
X55667600Y-56665860D03*
D36*
X56189600Y-59565860D03*
D35*
X59917600Y-55315860D03*
X59917600Y-56665860D03*
X55667600Y-55315860D03*
D41*
X96364600Y-72030860D03*
X96364600Y-70530861D03*
X96364600Y-69030859D03*
X96364600Y-67530859D03*
M02*
