G04 #@! TF.GenerationSoftware,KiCad,Pcbnew,(6.0.0)*
G04 #@! TF.CreationDate,2022-12-30T20:57:32+07:00*
G04 #@! TF.ProjectId,lumberjack,6c756d62-6572-46a6-9163-6b2e6b696361,1.6*
G04 #@! TF.SameCoordinates,Original*
G04 #@! TF.FileFunction,Soldermask,Bot*
G04 #@! TF.FilePolarity,Negative*
%FSLAX46Y46*%
G04 Gerber Fmt 4.6, Leading zero omitted, Abs format (unit mm)*
G04 Created by KiCad (PCBNEW (6.0.0)) date 2022-12-30 20:57:32*
%MOMM*%
%LPD*%
G01*
G04 APERTURE LIST*
G04 Aperture macros list*
%AMRoundRect*
0 Rectangle with rounded corners*
0 $1 Rounding radius*
0 $2 $3 $4 $5 $6 $7 $8 $9 X,Y pos of 4 corners*
0 Add a 4 corners polygon primitive as box body*
4,1,4,$2,$3,$4,$5,$6,$7,$8,$9,$2,$3,0*
0 Add four circle primitives for the rounded corners*
1,1,$1+$1,$2,$3*
1,1,$1+$1,$4,$5*
1,1,$1+$1,$6,$7*
1,1,$1+$1,$8,$9*
0 Add four rect primitives between the rounded corners*
20,1,$1+$1,$2,$3,$4,$5,0*
20,1,$1+$1,$4,$5,$6,$7,0*
20,1,$1+$1,$6,$7,$8,$9,0*
20,1,$1+$1,$8,$9,$2,$3,0*%
G04 Aperture macros list end*
%ADD10C,0.150000*%
%ADD11C,0.100000*%
%ADD12C,0.250000*%
%ADD13C,0.200000*%
%ADD14C,0.010000*%
%ADD15C,1.600000*%
%ADD16R,1.800000X1.800000*%
%ADD17C,1.800000*%
%ADD18R,1.600000X1.600000*%
%ADD19O,1.600000X1.600000*%
%ADD20C,1.710000*%
%ADD21R,1.200000X1.200000*%
%ADD22C,1.200000*%
%ADD23C,2.000000*%
%ADD24C,5.000000*%
%ADD25O,11.600000X5.000000*%
%ADD26C,3.000000*%
%ADD27C,3.048000*%
%ADD28C,1.750000*%
%ADD29C,3.987800*%
%ADD30C,0.600000*%
%ADD31R,2.550000X2.500000*%
%ADD32R,1.700000X1.700000*%
%ADD33O,1.700000X1.700000*%
%ADD34C,1.400000*%
%ADD35O,1.400000X1.400000*%
%ADD36C,1.500000*%
%ADD37C,4.100000*%
%ADD38C,1.900000*%
%ADD39O,0.700000X0.900000*%
%ADD40O,1.100000X1.100000*%
%ADD41O,0.700000X1.000000*%
%ADD42C,1.100000*%
%ADD43R,1.100000X1.100000*%
%ADD44O,0.900000X2.400000*%
%ADD45O,0.850000X2.000000*%
%ADD46O,0.900000X1.700000*%
%ADD47RoundRect,0.150000X-0.625000X0.150000X-0.625000X-0.150000X0.625000X-0.150000X0.625000X0.150000X0*%
%ADD48RoundRect,0.249999X-0.650001X0.350001X-0.650001X-0.350001X0.650001X-0.350001X0.650001X0.350001X0*%
%ADD49C,1.244600*%
G04 APERTURE END LIST*
D10*
X321310000Y-55626000D02*
X322580000Y-56896000D01*
D11*
X301244000Y-69342000D02*
X211836000Y-69342000D01*
X208534000Y-72390000D02*
X208534000Y-72644000D01*
X308356000Y-58166000D02*
X308356000Y-62230000D01*
D10*
X322580000Y-72644000D02*
X321564000Y-73660000D01*
D11*
X208534000Y-72644000D02*
X206248000Y-72644000D01*
X211836000Y-69342000D02*
X208534000Y-72390000D01*
D10*
X322580000Y-56896000D02*
X322580000Y-72644000D01*
D11*
X308356000Y-62230000D02*
X301244000Y-69342000D01*
D12*
X264929942Y-87238640D02*
X264929942Y-86238640D01*
X264596609Y-86952926D01*
X264263276Y-86238640D01*
X264263276Y-87238640D01*
X263596609Y-86238640D02*
X263406133Y-86238640D01*
X263310895Y-86286260D01*
X263215657Y-86381498D01*
X263168038Y-86571974D01*
X263168038Y-86905307D01*
X263215657Y-87095783D01*
X263310895Y-87191021D01*
X263406133Y-87238640D01*
X263596609Y-87238640D01*
X263691847Y-87191021D01*
X263787085Y-87095783D01*
X263834704Y-86905307D01*
X263834704Y-86571974D01*
X263787085Y-86381498D01*
X263691847Y-86286260D01*
X263596609Y-86238640D01*
X262739466Y-87238640D02*
X262739466Y-86238640D01*
X262501371Y-86238640D01*
X262358514Y-86286260D01*
X262263276Y-86381498D01*
X262215657Y-86476736D01*
X262168038Y-86667212D01*
X262168038Y-86810069D01*
X262215657Y-87000545D01*
X262263276Y-87095783D01*
X262358514Y-87191021D01*
X262501371Y-87238640D01*
X262739466Y-87238640D01*
D13*
X262671504Y-88803240D02*
X262671504Y-88136574D01*
X262671504Y-88327050D02*
X262623885Y-88231812D01*
X262576266Y-88184193D01*
X262481028Y-88136574D01*
X262385790Y-88136574D01*
X261671504Y-88755621D02*
X261766742Y-88803240D01*
X261957219Y-88803240D01*
X262052457Y-88755621D01*
X262100076Y-88660383D01*
X262100076Y-88279431D01*
X262052457Y-88184193D01*
X261957219Y-88136574D01*
X261766742Y-88136574D01*
X261671504Y-88184193D01*
X261623885Y-88279431D01*
X261623885Y-88374669D01*
X262100076Y-88469907D01*
X261290552Y-88136574D02*
X261052457Y-88803240D01*
X260814361Y-88136574D01*
X259909600Y-88803240D02*
X260481028Y-88803240D01*
X260195314Y-88803240D02*
X260195314Y-87803240D01*
X260290552Y-87946098D01*
X260385790Y-88041336D01*
X260481028Y-88088955D01*
X259481028Y-88708002D02*
X259433409Y-88755621D01*
X259481028Y-88803240D01*
X259528647Y-88755621D01*
X259481028Y-88708002D01*
X259481028Y-88803240D01*
X259100076Y-87803240D02*
X258433409Y-87803240D01*
X258861980Y-88803240D01*
X256719123Y-88708002D02*
X256766742Y-88755621D01*
X256909600Y-88803240D01*
X257004838Y-88803240D01*
X257147695Y-88755621D01*
X257242933Y-88660383D01*
X257290552Y-88565145D01*
X257338171Y-88374669D01*
X257338171Y-88231812D01*
X257290552Y-88041336D01*
X257242933Y-87946098D01*
X257147695Y-87850860D01*
X257004838Y-87803240D01*
X256909600Y-87803240D01*
X256766742Y-87850860D01*
X256719123Y-87898479D01*
X256290552Y-88803240D02*
X256290552Y-87803240D01*
X255861980Y-88803240D02*
X255861980Y-88279431D01*
X255909600Y-88184193D01*
X256004838Y-88136574D01*
X256147695Y-88136574D01*
X256242933Y-88184193D01*
X256290552Y-88231812D01*
X255004838Y-88755621D02*
X255100076Y-88803240D01*
X255290552Y-88803240D01*
X255385790Y-88755621D01*
X255433409Y-88660383D01*
X255433409Y-88279431D01*
X255385790Y-88184193D01*
X255290552Y-88136574D01*
X255100076Y-88136574D01*
X255004838Y-88184193D01*
X254957219Y-88279431D01*
X254957219Y-88374669D01*
X255433409Y-88469907D01*
X254528647Y-88803240D02*
X254528647Y-88136574D01*
X254528647Y-88327050D02*
X254481028Y-88231812D01*
X254433409Y-88184193D01*
X254338171Y-88136574D01*
X254242933Y-88136574D01*
X253909600Y-88803240D02*
X253909600Y-88136574D01*
X253909600Y-88327050D02*
X253861980Y-88231812D01*
X253814361Y-88184193D01*
X253719123Y-88136574D01*
X253623885Y-88136574D01*
X253385790Y-88136574D02*
X253147695Y-88803240D01*
X252909600Y-88136574D02*
X253147695Y-88803240D01*
X253242933Y-89041336D01*
X253290552Y-89088955D01*
X253385790Y-89136574D01*
X262147695Y-90413240D02*
X262719123Y-90413240D01*
X262433409Y-90413240D02*
X262433409Y-89413240D01*
X262528647Y-89556098D01*
X262623885Y-89651336D01*
X262719123Y-89698955D01*
X261766742Y-89508479D02*
X261719123Y-89460860D01*
X261623885Y-89413240D01*
X261385790Y-89413240D01*
X261290552Y-89460860D01*
X261242933Y-89508479D01*
X261195314Y-89603717D01*
X261195314Y-89698955D01*
X261242933Y-89841812D01*
X261814361Y-90413240D01*
X261195314Y-90413240D01*
X260052457Y-89365621D02*
X260909600Y-90651336D01*
X259766742Y-89508479D02*
X259719123Y-89460860D01*
X259623885Y-89413240D01*
X259385790Y-89413240D01*
X259290552Y-89460860D01*
X259242933Y-89508479D01*
X259195314Y-89603717D01*
X259195314Y-89698955D01*
X259242933Y-89841812D01*
X259814361Y-90413240D01*
X259195314Y-90413240D01*
X258576266Y-89413240D02*
X258481028Y-89413240D01*
X258385790Y-89460860D01*
X258338171Y-89508479D01*
X258290552Y-89603717D01*
X258242933Y-89794193D01*
X258242933Y-90032288D01*
X258290552Y-90222764D01*
X258338171Y-90318002D01*
X258385790Y-90365621D01*
X258481028Y-90413240D01*
X258576266Y-90413240D01*
X258671504Y-90365621D01*
X258719123Y-90318002D01*
X258766742Y-90222764D01*
X258814361Y-90032288D01*
X258814361Y-89794193D01*
X258766742Y-89603717D01*
X258719123Y-89508479D01*
X258671504Y-89460860D01*
X258576266Y-89413240D01*
X257861980Y-89508479D02*
X257814361Y-89460860D01*
X257719123Y-89413240D01*
X257481028Y-89413240D01*
X257385790Y-89460860D01*
X257338171Y-89508479D01*
X257290552Y-89603717D01*
X257290552Y-89698955D01*
X257338171Y-89841812D01*
X257909600Y-90413240D01*
X257290552Y-90413240D01*
X256909600Y-89508479D02*
X256861980Y-89460860D01*
X256766742Y-89413240D01*
X256528647Y-89413240D01*
X256433409Y-89460860D01*
X256385790Y-89508479D01*
X256338171Y-89603717D01*
X256338171Y-89698955D01*
X256385790Y-89841812D01*
X256957219Y-90413240D01*
X256338171Y-90413240D01*
D10*
X270891695Y-86359240D02*
X271367885Y-86359240D01*
X271367885Y-85359240D01*
X270558361Y-85359240D02*
X270558361Y-86168764D01*
X270510742Y-86264002D01*
X270463123Y-86311621D01*
X270367885Y-86359240D01*
X270177409Y-86359240D01*
X270082171Y-86311621D01*
X270034552Y-86264002D01*
X269986933Y-86168764D01*
X269986933Y-85359240D01*
X269510742Y-86359240D02*
X269510742Y-85359240D01*
X269177409Y-86073526D01*
X268844076Y-85359240D01*
X268844076Y-86359240D01*
X268034552Y-85835431D02*
X267891695Y-85883050D01*
X267844076Y-85930669D01*
X267796457Y-86025907D01*
X267796457Y-86168764D01*
X267844076Y-86264002D01*
X267891695Y-86311621D01*
X267986933Y-86359240D01*
X268367885Y-86359240D01*
X268367885Y-85359240D01*
X268034552Y-85359240D01*
X267939314Y-85406860D01*
X267891695Y-85454479D01*
X267844076Y-85549717D01*
X267844076Y-85644955D01*
X267891695Y-85740193D01*
X267939314Y-85787812D01*
X268034552Y-85835431D01*
X268367885Y-85835431D01*
X267367885Y-85835431D02*
X267034552Y-85835431D01*
X266891695Y-86359240D02*
X267367885Y-86359240D01*
X267367885Y-85359240D01*
X266891695Y-85359240D01*
X265891695Y-86359240D02*
X266225028Y-85883050D01*
X266463123Y-86359240D02*
X266463123Y-85359240D01*
X266082171Y-85359240D01*
X265986933Y-85406860D01*
X265939314Y-85454479D01*
X265891695Y-85549717D01*
X265891695Y-85692574D01*
X265939314Y-85787812D01*
X265986933Y-85835431D01*
X266082171Y-85883050D01*
X266463123Y-85883050D01*
D12*
X271315028Y-86611621D02*
X271315028Y-88040193D01*
X271410266Y-88325907D01*
X271600742Y-88516383D01*
X271886457Y-88611621D01*
X272076933Y-88611621D01*
X270457885Y-88040193D02*
X269505504Y-88040193D01*
X270648361Y-88611621D02*
X269981695Y-86611621D01*
X269315028Y-88611621D01*
X267505504Y-88421145D02*
X267600742Y-88516383D01*
X267886457Y-88611621D01*
X268076933Y-88611621D01*
X268362647Y-88516383D01*
X268553123Y-88325907D01*
X268648361Y-88135431D01*
X268743600Y-87754479D01*
X268743600Y-87468764D01*
X268648361Y-87087812D01*
X268553123Y-86897336D01*
X268362647Y-86706860D01*
X268076933Y-86611621D01*
X267886457Y-86611621D01*
X267600742Y-86706860D01*
X267505504Y-86802098D01*
X266648361Y-88611621D02*
X266648361Y-86611621D01*
X265505504Y-88611621D02*
X266362647Y-87468764D01*
X265505504Y-86611621D02*
X266648361Y-87754479D01*
D14*
X289670043Y-91024486D02*
X289628454Y-91044350D01*
X289628454Y-91044350D02*
X289588175Y-91073044D01*
X289588175Y-91073044D02*
X289557490Y-91106069D01*
X289557490Y-91106069D02*
X289535139Y-91148191D01*
X289535139Y-91148191D02*
X289519864Y-91204175D01*
X289519864Y-91204175D02*
X289510408Y-91278788D01*
X289510408Y-91278788D02*
X289505513Y-91376795D01*
X289505513Y-91376795D02*
X289503919Y-91502962D01*
X289503919Y-91502962D02*
X289503894Y-91516174D01*
X289503894Y-91516174D02*
X289503527Y-91812786D01*
X289503527Y-91812786D02*
X289687343Y-91812786D01*
X289687343Y-91812786D02*
X289687343Y-91539341D01*
X289687343Y-91539341D02*
X289687473Y-91438037D01*
X289687473Y-91438037D02*
X289688379Y-91364613D01*
X289688379Y-91364613D02*
X289690827Y-91313531D01*
X289690827Y-91313531D02*
X289695586Y-91279250D01*
X289695586Y-91279250D02*
X289703426Y-91256231D01*
X289703426Y-91256231D02*
X289715115Y-91238933D01*
X289715115Y-91238933D02*
X289731398Y-91221841D01*
X289731398Y-91221841D02*
X289788366Y-91185117D01*
X289788366Y-91185117D02*
X289850555Y-91178302D01*
X289850555Y-91178302D02*
X289909801Y-91201521D01*
X289909801Y-91201521D02*
X289930405Y-91218803D01*
X289930405Y-91218803D02*
X289945530Y-91235051D01*
X289945530Y-91235051D02*
X289956390Y-91252451D01*
X289956390Y-91252451D02*
X289963690Y-91276472D01*
X289963690Y-91276472D02*
X289968137Y-91312582D01*
X289968137Y-91312582D02*
X289970436Y-91366248D01*
X289970436Y-91366248D02*
X289971296Y-91442940D01*
X289971296Y-91442940D02*
X289971422Y-91536303D01*
X289971422Y-91536303D02*
X289971422Y-91812786D01*
X289971422Y-91812786D02*
X290155237Y-91812786D01*
X290155237Y-91812786D02*
X290155237Y-91010681D01*
X290155237Y-91010681D02*
X290063329Y-91010681D01*
X290063329Y-91010681D02*
X290008149Y-91012863D01*
X290008149Y-91012863D02*
X289979680Y-91020611D01*
X289979680Y-91020611D02*
X289971425Y-91035728D01*
X289971425Y-91035728D02*
X289971422Y-91036176D01*
X289971422Y-91036176D02*
X289967592Y-91050980D01*
X289967592Y-91050980D02*
X289950699Y-91049300D01*
X289950699Y-91049300D02*
X289917112Y-91033033D01*
X289917112Y-91033033D02*
X289840937Y-91009100D01*
X289840937Y-91009100D02*
X289753800Y-91006438D01*
X289753800Y-91006438D02*
X289670043Y-91024486D01*
X289670043Y-91024486D02*
X289670043Y-91024486D01*
G36*
X289840937Y-91009100D02*
G01*
X289917112Y-91033033D01*
X289950699Y-91049300D01*
X289967592Y-91050980D01*
X289971422Y-91036176D01*
X289971425Y-91035728D01*
X289979680Y-91020611D01*
X290008149Y-91012863D01*
X290063329Y-91010681D01*
X290155237Y-91010681D01*
X290155237Y-91812786D01*
X289971422Y-91812786D01*
X289971422Y-91536303D01*
X289971296Y-91442940D01*
X289970436Y-91366248D01*
X289968137Y-91312582D01*
X289963690Y-91276472D01*
X289956390Y-91252451D01*
X289945530Y-91235051D01*
X289930405Y-91218803D01*
X289909801Y-91201521D01*
X289850555Y-91178302D01*
X289788366Y-91185117D01*
X289731398Y-91221841D01*
X289715115Y-91238933D01*
X289703426Y-91256231D01*
X289695586Y-91279250D01*
X289690827Y-91313531D01*
X289688379Y-91364613D01*
X289687473Y-91438037D01*
X289687343Y-91539341D01*
X289687343Y-91812786D01*
X289503527Y-91812786D01*
X289503894Y-91516174D01*
X289503919Y-91502962D01*
X289505513Y-91376795D01*
X289510408Y-91278788D01*
X289519864Y-91204175D01*
X289535139Y-91148191D01*
X289557490Y-91106069D01*
X289588175Y-91073044D01*
X289628454Y-91044350D01*
X289670043Y-91024486D01*
X289753800Y-91006438D01*
X289840937Y-91009100D01*
G37*
X289840937Y-91009100D02*
X289917112Y-91033033D01*
X289950699Y-91049300D01*
X289967592Y-91050980D01*
X289971422Y-91036176D01*
X289971425Y-91035728D01*
X289979680Y-91020611D01*
X290008149Y-91012863D01*
X290063329Y-91010681D01*
X290155237Y-91010681D01*
X290155237Y-91812786D01*
X289971422Y-91812786D01*
X289971422Y-91536303D01*
X289971296Y-91442940D01*
X289970436Y-91366248D01*
X289968137Y-91312582D01*
X289963690Y-91276472D01*
X289956390Y-91252451D01*
X289945530Y-91235051D01*
X289930405Y-91218803D01*
X289909801Y-91201521D01*
X289850555Y-91178302D01*
X289788366Y-91185117D01*
X289731398Y-91221841D01*
X289715115Y-91238933D01*
X289703426Y-91256231D01*
X289695586Y-91279250D01*
X289690827Y-91313531D01*
X289688379Y-91364613D01*
X289687473Y-91438037D01*
X289687343Y-91539341D01*
X289687343Y-91812786D01*
X289503527Y-91812786D01*
X289503894Y-91516174D01*
X289503919Y-91502962D01*
X289505513Y-91376795D01*
X289510408Y-91278788D01*
X289519864Y-91204175D01*
X289535139Y-91148191D01*
X289557490Y-91106069D01*
X289588175Y-91073044D01*
X289628454Y-91044350D01*
X289670043Y-91024486D01*
X289753800Y-91006438D01*
X289840937Y-91009100D01*
X285721424Y-91017679D02*
X285624605Y-91058809D01*
X285624605Y-91058809D02*
X285594110Y-91078831D01*
X285594110Y-91078831D02*
X285555135Y-91109600D01*
X285555135Y-91109600D02*
X285530669Y-91133793D01*
X285530669Y-91133793D02*
X285526422Y-91141673D01*
X285526422Y-91141673D02*
X285538416Y-91159159D01*
X285538416Y-91159159D02*
X285569113Y-91188830D01*
X285569113Y-91188830D02*
X285593688Y-91209539D01*
X285593688Y-91209539D02*
X285660954Y-91263596D01*
X285660954Y-91263596D02*
X285714070Y-91218902D01*
X285714070Y-91218902D02*
X285755116Y-91190049D01*
X285755116Y-91190049D02*
X285795137Y-91180089D01*
X285795137Y-91180089D02*
X285840941Y-91182521D01*
X285840941Y-91182521D02*
X285913676Y-91200605D01*
X285913676Y-91200605D02*
X285963744Y-91238141D01*
X285963744Y-91238141D02*
X285994171Y-91298822D01*
X285994171Y-91298822D02*
X286007983Y-91386341D01*
X286007983Y-91386341D02*
X286007987Y-91386396D01*
X286007987Y-91386396D02*
X286006792Y-91484218D01*
X286006792Y-91484218D02*
X285988228Y-91555990D01*
X285988228Y-91555990D02*
X285951196Y-91604855D01*
X285951196Y-91604855D02*
X285925950Y-91621403D01*
X285925950Y-91621403D02*
X285858903Y-91642009D01*
X285858903Y-91642009D02*
X285787291Y-91642022D01*
X285787291Y-91642022D02*
X285724985Y-91622028D01*
X285724985Y-91622028D02*
X285710237Y-91612260D01*
X285710237Y-91612260D02*
X285673250Y-91587307D01*
X285673250Y-91587307D02*
X285644332Y-91583218D01*
X285644332Y-91583218D02*
X285613144Y-91601790D01*
X285613144Y-91601790D02*
X285578664Y-91635147D01*
X285578664Y-91635147D02*
X285524088Y-91691456D01*
X285524088Y-91691456D02*
X285584682Y-91741402D01*
X285584682Y-91741402D02*
X285678302Y-91797773D01*
X285678302Y-91797773D02*
X285783875Y-91825553D01*
X285783875Y-91825553D02*
X285894202Y-91823542D01*
X285894202Y-91823542D02*
X285966657Y-91805122D01*
X285966657Y-91805122D02*
X286051344Y-91759570D01*
X286051344Y-91759570D02*
X286119073Y-91687910D01*
X286119073Y-91687910D02*
X286149843Y-91637326D01*
X286149843Y-91637326D02*
X286174764Y-91564748D01*
X286174764Y-91564748D02*
X286187234Y-91472829D01*
X286187234Y-91472829D02*
X286187330Y-91373208D01*
X286187330Y-91373208D02*
X286175130Y-91277527D01*
X286175130Y-91277527D02*
X286150710Y-91197429D01*
X286150710Y-91197429D02*
X286146864Y-91189216D01*
X286146864Y-91189216D02*
X286089907Y-91108673D01*
X286089907Y-91108673D02*
X286012791Y-91050031D01*
X286012791Y-91050031D02*
X285921610Y-91014507D01*
X285921610Y-91014507D02*
X285822457Y-91003317D01*
X285822457Y-91003317D02*
X285721424Y-91017679D01*
X285721424Y-91017679D02*
X285721424Y-91017679D01*
G36*
X285921610Y-91014507D02*
G01*
X286012791Y-91050031D01*
X286089907Y-91108673D01*
X286146864Y-91189216D01*
X286150710Y-91197429D01*
X286175130Y-91277527D01*
X286187330Y-91373208D01*
X286187234Y-91472829D01*
X286174764Y-91564748D01*
X286149843Y-91637326D01*
X286119073Y-91687910D01*
X286051344Y-91759570D01*
X285966657Y-91805122D01*
X285894202Y-91823542D01*
X285783875Y-91825553D01*
X285678302Y-91797773D01*
X285584682Y-91741402D01*
X285524088Y-91691456D01*
X285578664Y-91635147D01*
X285613144Y-91601790D01*
X285644332Y-91583218D01*
X285673250Y-91587307D01*
X285710237Y-91612260D01*
X285724985Y-91622028D01*
X285787291Y-91642022D01*
X285858903Y-91642009D01*
X285925950Y-91621403D01*
X285951196Y-91604855D01*
X285988228Y-91555990D01*
X286006792Y-91484218D01*
X286007987Y-91386396D01*
X286007983Y-91386341D01*
X285994171Y-91298822D01*
X285963744Y-91238141D01*
X285913676Y-91200605D01*
X285840941Y-91182521D01*
X285795137Y-91180089D01*
X285755116Y-91190049D01*
X285714070Y-91218902D01*
X285660954Y-91263596D01*
X285593688Y-91209539D01*
X285569113Y-91188830D01*
X285538416Y-91159159D01*
X285526422Y-91141673D01*
X285530669Y-91133793D01*
X285555135Y-91109600D01*
X285594110Y-91078831D01*
X285624605Y-91058809D01*
X285721424Y-91017679D01*
X285822457Y-91003317D01*
X285921610Y-91014507D01*
G37*
X285921610Y-91014507D02*
X286012791Y-91050031D01*
X286089907Y-91108673D01*
X286146864Y-91189216D01*
X286150710Y-91197429D01*
X286175130Y-91277527D01*
X286187330Y-91373208D01*
X286187234Y-91472829D01*
X286174764Y-91564748D01*
X286149843Y-91637326D01*
X286119073Y-91687910D01*
X286051344Y-91759570D01*
X285966657Y-91805122D01*
X285894202Y-91823542D01*
X285783875Y-91825553D01*
X285678302Y-91797773D01*
X285584682Y-91741402D01*
X285524088Y-91691456D01*
X285578664Y-91635147D01*
X285613144Y-91601790D01*
X285644332Y-91583218D01*
X285673250Y-91587307D01*
X285710237Y-91612260D01*
X285724985Y-91622028D01*
X285787291Y-91642022D01*
X285858903Y-91642009D01*
X285925950Y-91621403D01*
X285951196Y-91604855D01*
X285988228Y-91555990D01*
X286006792Y-91484218D01*
X286007987Y-91386396D01*
X286007983Y-91386341D01*
X285994171Y-91298822D01*
X285963744Y-91238141D01*
X285913676Y-91200605D01*
X285840941Y-91182521D01*
X285795137Y-91180089D01*
X285755116Y-91190049D01*
X285714070Y-91218902D01*
X285660954Y-91263596D01*
X285593688Y-91209539D01*
X285569113Y-91188830D01*
X285538416Y-91159159D01*
X285526422Y-91141673D01*
X285530669Y-91133793D01*
X285555135Y-91109600D01*
X285594110Y-91078831D01*
X285624605Y-91058809D01*
X285721424Y-91017679D01*
X285822457Y-91003317D01*
X285921610Y-91014507D01*
X286276612Y-91009905D02*
X286219135Y-91027466D01*
X286219135Y-91027466D02*
X286182128Y-91049655D01*
X286182128Y-91049655D02*
X286170073Y-91067202D01*
X286170073Y-91067202D02*
X286173391Y-91088002D01*
X286173391Y-91088002D02*
X286194921Y-91120679D01*
X286194921Y-91120679D02*
X286213126Y-91143822D01*
X286213126Y-91143822D02*
X286250656Y-91185662D01*
X286250656Y-91185662D02*
X286278852Y-91203265D01*
X286278852Y-91203265D02*
X286302889Y-91202116D01*
X286302889Y-91202116D02*
X286374192Y-91183970D01*
X286374192Y-91183970D02*
X286426558Y-91184794D01*
X286426558Y-91184794D02*
X286469082Y-91205358D01*
X286469082Y-91205358D02*
X286483358Y-91217394D01*
X286483358Y-91217394D02*
X286529053Y-91259743D01*
X286529053Y-91259743D02*
X286529053Y-91812786D01*
X286529053Y-91812786D02*
X286712869Y-91812786D01*
X286712869Y-91812786D02*
X286712869Y-91010681D01*
X286712869Y-91010681D02*
X286620961Y-91010681D01*
X286620961Y-91010681D02*
X286565781Y-91012863D01*
X286565781Y-91012863D02*
X286537312Y-91020611D01*
X286537312Y-91020611D02*
X286529057Y-91035728D01*
X286529057Y-91035728D02*
X286529053Y-91036176D01*
X286529053Y-91036176D02*
X286525155Y-91052009D01*
X286525155Y-91052009D02*
X286507526Y-91049944D01*
X286507526Y-91049944D02*
X286483099Y-91038521D01*
X286483099Y-91038521D02*
X286432650Y-91017265D01*
X286432650Y-91017265D02*
X286391684Y-91004476D01*
X286391684Y-91004476D02*
X286338972Y-91001198D01*
X286338972Y-91001198D02*
X286276612Y-91009905D01*
X286276612Y-91009905D02*
X286276612Y-91009905D01*
G36*
X286391684Y-91004476D02*
G01*
X286432650Y-91017265D01*
X286483099Y-91038521D01*
X286507526Y-91049944D01*
X286525155Y-91052009D01*
X286529053Y-91036176D01*
X286529057Y-91035728D01*
X286537312Y-91020611D01*
X286565781Y-91012863D01*
X286620961Y-91010681D01*
X286712869Y-91010681D01*
X286712869Y-91812786D01*
X286529053Y-91812786D01*
X286529053Y-91259743D01*
X286483358Y-91217394D01*
X286469082Y-91205358D01*
X286426558Y-91184794D01*
X286374192Y-91183970D01*
X286302889Y-91202116D01*
X286278852Y-91203265D01*
X286250656Y-91185662D01*
X286213126Y-91143822D01*
X286194921Y-91120679D01*
X286173391Y-91088002D01*
X286170073Y-91067202D01*
X286182128Y-91049655D01*
X286219135Y-91027466D01*
X286276612Y-91009905D01*
X286338972Y-91001198D01*
X286391684Y-91004476D01*
G37*
X286391684Y-91004476D02*
X286432650Y-91017265D01*
X286483099Y-91038521D01*
X286507526Y-91049944D01*
X286525155Y-91052009D01*
X286529053Y-91036176D01*
X286529057Y-91035728D01*
X286537312Y-91020611D01*
X286565781Y-91012863D01*
X286620961Y-91010681D01*
X286712869Y-91010681D01*
X286712869Y-91812786D01*
X286529053Y-91812786D01*
X286529053Y-91259743D01*
X286483358Y-91217394D01*
X286469082Y-91205358D01*
X286426558Y-91184794D01*
X286374192Y-91183970D01*
X286302889Y-91202116D01*
X286278852Y-91203265D01*
X286250656Y-91185662D01*
X286213126Y-91143822D01*
X286194921Y-91120679D01*
X286173391Y-91088002D01*
X286170073Y-91067202D01*
X286182128Y-91049655D01*
X286219135Y-91027466D01*
X286276612Y-91009905D01*
X286338972Y-91001198D01*
X286391684Y-91004476D01*
X286494833Y-92263707D02*
X286430592Y-92276372D01*
X286430592Y-92276372D02*
X286394020Y-92295124D01*
X286394020Y-92295124D02*
X286355547Y-92326277D01*
X286355547Y-92326277D02*
X286410283Y-92395387D01*
X286410283Y-92395387D02*
X286444031Y-92437239D01*
X286444031Y-92437239D02*
X286466947Y-92457658D01*
X286466947Y-92457658D02*
X286489721Y-92460777D01*
X286489721Y-92460777D02*
X286523044Y-92450732D01*
X286523044Y-92450732D02*
X286538686Y-92445049D01*
X286538686Y-92445049D02*
X286602458Y-92436664D01*
X286602458Y-92436664D02*
X286660860Y-92454638D01*
X286660860Y-92454638D02*
X286703736Y-92495242D01*
X286703736Y-92495242D02*
X286710701Y-92508189D01*
X286710701Y-92508189D02*
X286718287Y-92542484D01*
X286718287Y-92542484D02*
X286724141Y-92605687D01*
X286724141Y-92605687D02*
X286727989Y-92693320D01*
X286727989Y-92693320D02*
X286729557Y-92800900D01*
X286729557Y-92800900D02*
X286729579Y-92816204D01*
X286729579Y-92816204D02*
X286729579Y-93082786D01*
X286729579Y-93082786D02*
X286913395Y-93082786D01*
X286913395Y-93082786D02*
X286913395Y-92263970D01*
X286913395Y-92263970D02*
X286821487Y-92263970D01*
X286821487Y-92263970D02*
X286768493Y-92265354D01*
X286768493Y-92265354D02*
X286740885Y-92271512D01*
X286740885Y-92271512D02*
X286730676Y-92285454D01*
X286730676Y-92285454D02*
X286729579Y-92298604D01*
X286729579Y-92298604D02*
X286729579Y-92333238D01*
X286729579Y-92333238D02*
X286685550Y-92298604D01*
X286685550Y-92298604D02*
X286635063Y-92274976D01*
X286635063Y-92274976D02*
X286567240Y-92263293D01*
X286567240Y-92263293D02*
X286494833Y-92263707D01*
X286494833Y-92263707D02*
X286494833Y-92263707D01*
G36*
X286635063Y-92274976D02*
G01*
X286685550Y-92298604D01*
X286729579Y-92333238D01*
X286729579Y-92298604D01*
X286730676Y-92285454D01*
X286740885Y-92271512D01*
X286768493Y-92265354D01*
X286821487Y-92263970D01*
X286913395Y-92263970D01*
X286913395Y-93082786D01*
X286729579Y-93082786D01*
X286729579Y-92816204D01*
X286729557Y-92800900D01*
X286727989Y-92693320D01*
X286724141Y-92605687D01*
X286718287Y-92542484D01*
X286710701Y-92508189D01*
X286703736Y-92495242D01*
X286660860Y-92454638D01*
X286602458Y-92436664D01*
X286538686Y-92445049D01*
X286523044Y-92450732D01*
X286489721Y-92460777D01*
X286466947Y-92457658D01*
X286444031Y-92437239D01*
X286410283Y-92395387D01*
X286355547Y-92326277D01*
X286394020Y-92295124D01*
X286430592Y-92276372D01*
X286494833Y-92263707D01*
X286567240Y-92263293D01*
X286635063Y-92274976D01*
G37*
X286635063Y-92274976D02*
X286685550Y-92298604D01*
X286729579Y-92333238D01*
X286729579Y-92298604D01*
X286730676Y-92285454D01*
X286740885Y-92271512D01*
X286768493Y-92265354D01*
X286821487Y-92263970D01*
X286913395Y-92263970D01*
X286913395Y-93082786D01*
X286729579Y-93082786D01*
X286729579Y-92816204D01*
X286729557Y-92800900D01*
X286727989Y-92693320D01*
X286724141Y-92605687D01*
X286718287Y-92542484D01*
X286710701Y-92508189D01*
X286703736Y-92495242D01*
X286660860Y-92454638D01*
X286602458Y-92436664D01*
X286538686Y-92445049D01*
X286523044Y-92450732D01*
X286489721Y-92460777D01*
X286466947Y-92457658D01*
X286444031Y-92437239D01*
X286410283Y-92395387D01*
X286355547Y-92326277D01*
X286394020Y-92295124D01*
X286430592Y-92276372D01*
X286494833Y-92263707D01*
X286567240Y-92263293D01*
X286635063Y-92274976D01*
X290470982Y-91029287D02*
X290454330Y-91037126D01*
X290454330Y-91037126D02*
X290396695Y-91079346D01*
X290396695Y-91079346D02*
X290342195Y-91140960D01*
X290342195Y-91140960D02*
X290301501Y-91208803D01*
X290301501Y-91208803D02*
X290289926Y-91239994D01*
X290289926Y-91239994D02*
X290279366Y-91295709D01*
X290279366Y-91295709D02*
X290273069Y-91363041D01*
X290273069Y-91363041D02*
X290272304Y-91390845D01*
X290272304Y-91390845D02*
X290272211Y-91478576D01*
X290272211Y-91478576D02*
X290777150Y-91478576D01*
X290777150Y-91478576D02*
X290766387Y-91524530D01*
X290766387Y-91524530D02*
X290739967Y-91578880D01*
X290739967Y-91578880D02*
X290693778Y-91625851D01*
X290693778Y-91625851D02*
X290638828Y-91656108D01*
X290638828Y-91656108D02*
X290603811Y-91662391D01*
X290603811Y-91662391D02*
X290556323Y-91654766D01*
X290556323Y-91654766D02*
X290499665Y-91635643D01*
X290499665Y-91635643D02*
X290480418Y-91626844D01*
X290480418Y-91626844D02*
X290409241Y-91591296D01*
X290409241Y-91591296D02*
X290348498Y-91637627D01*
X290348498Y-91637627D02*
X290313448Y-91668963D01*
X290313448Y-91668963D02*
X290294798Y-91694827D01*
X290294798Y-91694827D02*
X290293853Y-91702418D01*
X290293853Y-91702418D02*
X290310515Y-91720816D01*
X290310515Y-91720816D02*
X290347030Y-91748775D01*
X290347030Y-91748775D02*
X290380172Y-91770587D01*
X290380172Y-91770587D02*
X290469607Y-91809797D01*
X290469607Y-91809797D02*
X290569871Y-91827545D01*
X290569871Y-91827545D02*
X290669246Y-91822930D01*
X290669246Y-91822930D02*
X290748461Y-91798811D01*
X290748461Y-91798811D02*
X290830120Y-91747144D01*
X290830120Y-91747144D02*
X290888151Y-91679116D01*
X290888151Y-91679116D02*
X290924454Y-91591103D01*
X290924454Y-91591103D02*
X290940928Y-91479476D01*
X290940928Y-91479476D02*
X290942389Y-91428398D01*
X290942389Y-91428398D02*
X290936543Y-91311351D01*
X290936543Y-91311351D02*
X290935825Y-91307946D01*
X290935825Y-91307946D02*
X290768511Y-91307946D01*
X290768511Y-91307946D02*
X290763903Y-91318922D01*
X290763903Y-91318922D02*
X290744964Y-91324975D01*
X290744964Y-91324975D02*
X290705902Y-91327570D01*
X290705902Y-91327570D02*
X290640923Y-91328170D01*
X290640923Y-91328170D02*
X290615903Y-91328181D01*
X290615903Y-91328181D02*
X290539779Y-91327274D01*
X290539779Y-91327274D02*
X290491504Y-91323980D01*
X290491504Y-91323980D02*
X290465540Y-91317441D01*
X290465540Y-91317441D02*
X290456352Y-91306797D01*
X290456352Y-91306797D02*
X290456027Y-91303379D01*
X290456027Y-91303379D02*
X290466513Y-91276216D01*
X290466513Y-91276216D02*
X290492758Y-91238163D01*
X290492758Y-91238163D02*
X290504041Y-91224839D01*
X290504041Y-91224839D02*
X290545928Y-91187156D01*
X290545928Y-91187156D02*
X290589591Y-91172340D01*
X290589591Y-91172340D02*
X290613115Y-91171102D01*
X290613115Y-91171102D02*
X290676757Y-91186589D01*
X290676757Y-91186589D02*
X290730127Y-91228190D01*
X290730127Y-91228190D02*
X290763981Y-91288613D01*
X290763981Y-91288613D02*
X290764581Y-91290582D01*
X290764581Y-91290582D02*
X290768511Y-91307946D01*
X290768511Y-91307946D02*
X290935825Y-91307946D01*
X290935825Y-91307946D02*
X290917101Y-91219188D01*
X290917101Y-91219188D02*
X290882078Y-91145450D01*
X290882078Y-91145450D02*
X290839244Y-91093108D01*
X290839244Y-91093108D02*
X290760052Y-91036352D01*
X290760052Y-91036352D02*
X290666960Y-91006022D01*
X290666960Y-91006022D02*
X290567945Y-91003281D01*
X290567945Y-91003281D02*
X290470982Y-91029287D01*
X290470982Y-91029287D02*
X290470982Y-91029287D01*
G36*
X290942389Y-91428398D02*
G01*
X290940928Y-91479476D01*
X290924454Y-91591103D01*
X290888151Y-91679116D01*
X290830120Y-91747144D01*
X290748461Y-91798811D01*
X290669246Y-91822930D01*
X290569871Y-91827545D01*
X290469607Y-91809797D01*
X290380172Y-91770587D01*
X290347030Y-91748775D01*
X290310515Y-91720816D01*
X290293853Y-91702418D01*
X290294798Y-91694827D01*
X290313448Y-91668963D01*
X290348498Y-91637627D01*
X290409241Y-91591296D01*
X290480418Y-91626844D01*
X290499665Y-91635643D01*
X290556323Y-91654766D01*
X290603811Y-91662391D01*
X290638828Y-91656108D01*
X290693778Y-91625851D01*
X290739967Y-91578880D01*
X290766387Y-91524530D01*
X290777150Y-91478576D01*
X290272211Y-91478576D01*
X290272304Y-91390845D01*
X290273069Y-91363041D01*
X290278649Y-91303379D01*
X290456027Y-91303379D01*
X290456352Y-91306797D01*
X290465540Y-91317441D01*
X290491504Y-91323980D01*
X290539779Y-91327274D01*
X290615903Y-91328181D01*
X290640923Y-91328170D01*
X290705902Y-91327570D01*
X290744964Y-91324975D01*
X290763903Y-91318922D01*
X290768511Y-91307946D01*
X290764581Y-91290582D01*
X290763981Y-91288613D01*
X290730127Y-91228190D01*
X290676757Y-91186589D01*
X290613115Y-91171102D01*
X290589591Y-91172340D01*
X290545928Y-91187156D01*
X290504041Y-91224839D01*
X290492758Y-91238163D01*
X290466513Y-91276216D01*
X290456027Y-91303379D01*
X290278649Y-91303379D01*
X290279366Y-91295709D01*
X290289926Y-91239994D01*
X290301501Y-91208803D01*
X290342195Y-91140960D01*
X290396695Y-91079346D01*
X290454330Y-91037126D01*
X290470982Y-91029287D01*
X290567945Y-91003281D01*
X290666960Y-91006022D01*
X290760052Y-91036352D01*
X290839244Y-91093108D01*
X290882078Y-91145450D01*
X290917101Y-91219188D01*
X290935825Y-91307946D01*
X290936543Y-91311351D01*
X290942389Y-91428398D01*
G37*
X290942389Y-91428398D02*
X290940928Y-91479476D01*
X290924454Y-91591103D01*
X290888151Y-91679116D01*
X290830120Y-91747144D01*
X290748461Y-91798811D01*
X290669246Y-91822930D01*
X290569871Y-91827545D01*
X290469607Y-91809797D01*
X290380172Y-91770587D01*
X290347030Y-91748775D01*
X290310515Y-91720816D01*
X290293853Y-91702418D01*
X290294798Y-91694827D01*
X290313448Y-91668963D01*
X290348498Y-91637627D01*
X290409241Y-91591296D01*
X290480418Y-91626844D01*
X290499665Y-91635643D01*
X290556323Y-91654766D01*
X290603811Y-91662391D01*
X290638828Y-91656108D01*
X290693778Y-91625851D01*
X290739967Y-91578880D01*
X290766387Y-91524530D01*
X290777150Y-91478576D01*
X290272211Y-91478576D01*
X290272304Y-91390845D01*
X290273069Y-91363041D01*
X290278649Y-91303379D01*
X290456027Y-91303379D01*
X290456352Y-91306797D01*
X290465540Y-91317441D01*
X290491504Y-91323980D01*
X290539779Y-91327274D01*
X290615903Y-91328181D01*
X290640923Y-91328170D01*
X290705902Y-91327570D01*
X290744964Y-91324975D01*
X290763903Y-91318922D01*
X290768511Y-91307946D01*
X290764581Y-91290582D01*
X290763981Y-91288613D01*
X290730127Y-91228190D01*
X290676757Y-91186589D01*
X290613115Y-91171102D01*
X290589591Y-91172340D01*
X290545928Y-91187156D01*
X290504041Y-91224839D01*
X290492758Y-91238163D01*
X290466513Y-91276216D01*
X290456027Y-91303379D01*
X290278649Y-91303379D01*
X290279366Y-91295709D01*
X290289926Y-91239994D01*
X290301501Y-91208803D01*
X290342195Y-91140960D01*
X290396695Y-91079346D01*
X290454330Y-91037126D01*
X290470982Y-91029287D01*
X290567945Y-91003281D01*
X290666960Y-91006022D01*
X290760052Y-91036352D01*
X290839244Y-91093108D01*
X290882078Y-91145450D01*
X290917101Y-91219188D01*
X290935825Y-91307946D01*
X290936543Y-91311351D01*
X290942389Y-91428398D01*
X288293870Y-92267364D02*
X288227780Y-92272326D01*
X288227780Y-92272326D02*
X288141374Y-92531339D01*
X288141374Y-92531339D02*
X288054969Y-92790352D01*
X288054969Y-92790352D02*
X288027876Y-92698444D01*
X288027876Y-92698444D02*
X288011572Y-92641644D01*
X288011572Y-92641644D02*
X287990125Y-92564885D01*
X287990125Y-92564885D02*
X287966965Y-92480511D01*
X287966965Y-92480511D02*
X287954720Y-92435253D01*
X287954720Y-92435253D02*
X287908656Y-92263970D01*
X287908656Y-92263970D02*
X287718613Y-92263970D01*
X287718613Y-92263970D02*
X287775418Y-92443609D01*
X287775418Y-92443609D02*
X287803393Y-92531964D01*
X287803393Y-92531964D02*
X287837187Y-92638541D01*
X287837187Y-92638541D02*
X287872480Y-92749714D01*
X287872480Y-92749714D02*
X287903987Y-92848839D01*
X287903987Y-92848839D02*
X287975750Y-93074431D01*
X287975750Y-93074431D02*
X288130714Y-93084513D01*
X288130714Y-93084513D02*
X288172730Y-92945788D01*
X288172730Y-92945788D02*
X288198641Y-92859611D01*
X288198641Y-92859611D02*
X288226917Y-92764607D01*
X288226917Y-92764607D02*
X288251631Y-92680701D01*
X288251631Y-92680701D02*
X288252606Y-92677362D01*
X288252606Y-92677362D02*
X288271065Y-92620508D01*
X288271065Y-92620508D02*
X288287351Y-92581716D01*
X288287351Y-92581716D02*
X288298758Y-92567047D01*
X288298758Y-92567047D02*
X288301102Y-92568743D01*
X288301102Y-92568743D02*
X288309329Y-92591485D01*
X288309329Y-92591485D02*
X288324962Y-92640200D01*
X288324962Y-92640200D02*
X288346096Y-92708762D01*
X288346096Y-92708762D02*
X288370830Y-92791045D01*
X288370830Y-92791045D02*
X288384213Y-92836306D01*
X288384213Y-92836306D02*
X288456689Y-93082786D01*
X288456689Y-93082786D02*
X288610505Y-93082786D01*
X288610505Y-93082786D02*
X288733469Y-92694266D01*
X288733469Y-92694266D02*
X288768012Y-92585282D01*
X288768012Y-92585282D02*
X288799479Y-92486308D01*
X288799479Y-92486308D02*
X288826384Y-92401996D01*
X288826384Y-92401996D02*
X288847241Y-92336994D01*
X288847241Y-92336994D02*
X288860562Y-92295952D01*
X288860562Y-92295952D02*
X288864612Y-92283961D01*
X288864612Y-92283961D02*
X288861406Y-92271683D01*
X288861406Y-92271683D02*
X288836235Y-92266306D01*
X288836235Y-92266306D02*
X288783854Y-92266844D01*
X288783854Y-92266844D02*
X288775655Y-92267250D01*
X288775655Y-92267250D02*
X288678518Y-92272326D01*
X288678518Y-92272326D02*
X288614900Y-92506273D01*
X288614900Y-92506273D02*
X288591516Y-92591593D01*
X288591516Y-92591593D02*
X288570619Y-92666595D01*
X288570619Y-92666595D02*
X288554049Y-92724767D01*
X288554049Y-92724767D02*
X288543646Y-92759597D01*
X288543646Y-92759597D02*
X288541724Y-92765276D01*
X288541724Y-92765276D02*
X288533759Y-92758746D01*
X288533759Y-92758746D02*
X288517696Y-92724914D01*
X288517696Y-92724914D02*
X288495379Y-92668387D01*
X288495379Y-92668387D02*
X288468655Y-92593770D01*
X288468655Y-92593770D02*
X288446063Y-92526367D01*
X288446063Y-92526367D02*
X288359959Y-92262403D01*
X288359959Y-92262403D02*
X288293870Y-92267364D01*
X288293870Y-92267364D02*
X288293870Y-92267364D01*
G36*
X288446063Y-92526367D02*
G01*
X288468655Y-92593770D01*
X288495379Y-92668387D01*
X288517696Y-92724914D01*
X288533759Y-92758746D01*
X288541724Y-92765276D01*
X288543646Y-92759597D01*
X288554049Y-92724767D01*
X288570619Y-92666595D01*
X288591516Y-92591593D01*
X288614900Y-92506273D01*
X288678518Y-92272326D01*
X288775655Y-92267250D01*
X288783854Y-92266844D01*
X288836235Y-92266306D01*
X288861406Y-92271683D01*
X288864612Y-92283961D01*
X288860562Y-92295952D01*
X288847241Y-92336994D01*
X288826384Y-92401996D01*
X288799479Y-92486308D01*
X288768012Y-92585282D01*
X288733469Y-92694266D01*
X288610505Y-93082786D01*
X288456689Y-93082786D01*
X288384213Y-92836306D01*
X288370830Y-92791045D01*
X288346096Y-92708762D01*
X288324962Y-92640200D01*
X288309329Y-92591485D01*
X288301102Y-92568743D01*
X288298758Y-92567047D01*
X288287351Y-92581716D01*
X288271065Y-92620508D01*
X288252606Y-92677362D01*
X288251631Y-92680701D01*
X288226917Y-92764607D01*
X288198641Y-92859611D01*
X288172730Y-92945788D01*
X288130714Y-93084513D01*
X287975750Y-93074431D01*
X287903987Y-92848839D01*
X287872480Y-92749714D01*
X287837187Y-92638541D01*
X287803393Y-92531964D01*
X287775418Y-92443609D01*
X287718613Y-92263970D01*
X287908656Y-92263970D01*
X287954720Y-92435253D01*
X287966965Y-92480511D01*
X287990125Y-92564885D01*
X288011572Y-92641644D01*
X288027876Y-92698444D01*
X288054969Y-92790352D01*
X288141374Y-92531339D01*
X288227780Y-92272326D01*
X288293870Y-92267364D01*
X288359959Y-92262403D01*
X288446063Y-92526367D01*
G37*
X288446063Y-92526367D02*
X288468655Y-92593770D01*
X288495379Y-92668387D01*
X288517696Y-92724914D01*
X288533759Y-92758746D01*
X288541724Y-92765276D01*
X288543646Y-92759597D01*
X288554049Y-92724767D01*
X288570619Y-92666595D01*
X288591516Y-92591593D01*
X288614900Y-92506273D01*
X288678518Y-92272326D01*
X288775655Y-92267250D01*
X288783854Y-92266844D01*
X288836235Y-92266306D01*
X288861406Y-92271683D01*
X288864612Y-92283961D01*
X288860562Y-92295952D01*
X288847241Y-92336994D01*
X288826384Y-92401996D01*
X288799479Y-92486308D01*
X288768012Y-92585282D01*
X288733469Y-92694266D01*
X288610505Y-93082786D01*
X288456689Y-93082786D01*
X288384213Y-92836306D01*
X288370830Y-92791045D01*
X288346096Y-92708762D01*
X288324962Y-92640200D01*
X288309329Y-92591485D01*
X288301102Y-92568743D01*
X288298758Y-92567047D01*
X288287351Y-92581716D01*
X288271065Y-92620508D01*
X288252606Y-92677362D01*
X288251631Y-92680701D01*
X288226917Y-92764607D01*
X288198641Y-92859611D01*
X288172730Y-92945788D01*
X288130714Y-93084513D01*
X287975750Y-93074431D01*
X287903987Y-92848839D01*
X287872480Y-92749714D01*
X287837187Y-92638541D01*
X287803393Y-92531964D01*
X287775418Y-92443609D01*
X287718613Y-92263970D01*
X287908656Y-92263970D01*
X287954720Y-92435253D01*
X287966965Y-92480511D01*
X287990125Y-92564885D01*
X288011572Y-92641644D01*
X288027876Y-92698444D01*
X288054969Y-92790352D01*
X288141374Y-92531339D01*
X288227780Y-92272326D01*
X288293870Y-92267364D01*
X288359959Y-92262403D01*
X288446063Y-92526367D01*
X287347869Y-91270793D02*
X287346290Y-91393349D01*
X287346290Y-91393349D02*
X287340519Y-91486439D01*
X287340519Y-91486439D02*
X287329009Y-91553911D01*
X287329009Y-91553911D02*
X287310210Y-91599615D01*
X287310210Y-91599615D02*
X287282574Y-91627399D01*
X287282574Y-91627399D02*
X287244552Y-91641114D01*
X287244552Y-91641114D02*
X287197474Y-91644618D01*
X287197474Y-91644618D02*
X287148168Y-91640692D01*
X287148168Y-91640692D02*
X287110717Y-91626349D01*
X287110717Y-91626349D02*
X287083572Y-91597738D01*
X287083572Y-91597738D02*
X287065185Y-91551011D01*
X287065185Y-91551011D02*
X287054007Y-91482318D01*
X287054007Y-91482318D02*
X287048489Y-91387810D01*
X287048489Y-91387810D02*
X287047079Y-91270793D01*
X287047079Y-91270793D02*
X287047079Y-91010681D01*
X287047079Y-91010681D02*
X286863264Y-91010681D01*
X286863264Y-91010681D02*
X286863264Y-91812786D01*
X286863264Y-91812786D02*
X286955172Y-91812786D01*
X286955172Y-91812786D02*
X287010578Y-91810541D01*
X287010578Y-91810541D02*
X287039109Y-91802656D01*
X287039109Y-91802656D02*
X287047079Y-91787688D01*
X287047079Y-91787688D02*
X287051880Y-91774357D01*
X287051880Y-91774357D02*
X287070986Y-91777177D01*
X287070986Y-91777177D02*
X287109496Y-91796043D01*
X287109496Y-91796043D02*
X287197761Y-91825147D01*
X287197761Y-91825147D02*
X287291377Y-91823085D01*
X287291377Y-91823085D02*
X287381079Y-91791481D01*
X287381079Y-91791481D02*
X287423796Y-91766517D01*
X287423796Y-91766517D02*
X287456379Y-91739486D01*
X287456379Y-91739486D02*
X287480183Y-91705665D01*
X287480183Y-91705665D02*
X287496561Y-91660328D01*
X287496561Y-91660328D02*
X287506869Y-91598749D01*
X287506869Y-91598749D02*
X287512459Y-91516203D01*
X287512459Y-91516203D02*
X287514688Y-91407965D01*
X287514688Y-91407965D02*
X287514974Y-91324264D01*
X287514974Y-91324264D02*
X287514974Y-91010681D01*
X287514974Y-91010681D02*
X287347869Y-91010681D01*
X287347869Y-91010681D02*
X287347869Y-91270793D01*
X287347869Y-91270793D02*
X287347869Y-91270793D01*
G36*
X287047079Y-91270793D02*
G01*
X287048489Y-91387810D01*
X287054007Y-91482318D01*
X287065185Y-91551011D01*
X287083572Y-91597738D01*
X287110717Y-91626349D01*
X287148168Y-91640692D01*
X287197474Y-91644618D01*
X287244552Y-91641114D01*
X287282574Y-91627399D01*
X287310210Y-91599615D01*
X287329009Y-91553911D01*
X287340519Y-91486439D01*
X287346290Y-91393349D01*
X287347869Y-91270793D01*
X287347869Y-91010681D01*
X287514974Y-91010681D01*
X287514974Y-91324264D01*
X287514688Y-91407965D01*
X287512459Y-91516203D01*
X287506869Y-91598749D01*
X287496561Y-91660328D01*
X287480183Y-91705665D01*
X287456379Y-91739486D01*
X287423796Y-91766517D01*
X287381079Y-91791481D01*
X287291377Y-91823085D01*
X287197761Y-91825147D01*
X287109496Y-91796043D01*
X287070986Y-91777177D01*
X287051880Y-91774357D01*
X287047079Y-91787688D01*
X287039109Y-91802656D01*
X287010578Y-91810541D01*
X286955172Y-91812786D01*
X286863264Y-91812786D01*
X286863264Y-91010681D01*
X287047079Y-91010681D01*
X287047079Y-91270793D01*
G37*
X287047079Y-91270793D02*
X287048489Y-91387810D01*
X287054007Y-91482318D01*
X287065185Y-91551011D01*
X287083572Y-91597738D01*
X287110717Y-91626349D01*
X287148168Y-91640692D01*
X287197474Y-91644618D01*
X287244552Y-91641114D01*
X287282574Y-91627399D01*
X287310210Y-91599615D01*
X287329009Y-91553911D01*
X287340519Y-91486439D01*
X287346290Y-91393349D01*
X287347869Y-91270793D01*
X287347869Y-91010681D01*
X287514974Y-91010681D01*
X287514974Y-91324264D01*
X287514688Y-91407965D01*
X287512459Y-91516203D01*
X287506869Y-91598749D01*
X287496561Y-91660328D01*
X287480183Y-91705665D01*
X287456379Y-91739486D01*
X287423796Y-91766517D01*
X287381079Y-91791481D01*
X287291377Y-91823085D01*
X287197761Y-91825147D01*
X287109496Y-91796043D01*
X287070986Y-91777177D01*
X287051880Y-91774357D01*
X287047079Y-91787688D01*
X287039109Y-91802656D01*
X287010578Y-91810541D01*
X286955172Y-91812786D01*
X286863264Y-91812786D01*
X286863264Y-91010681D01*
X287047079Y-91010681D01*
X287047079Y-91270793D01*
X292041216Y-91019364D02*
X291953795Y-91058014D01*
X291953795Y-91058014D02*
X291887430Y-91122550D01*
X291887430Y-91122550D02*
X291842024Y-91213072D01*
X291842024Y-91213072D02*
X291817482Y-91329678D01*
X291817482Y-91329678D02*
X291815723Y-91347884D01*
X291815723Y-91347884D02*
X291814344Y-91476244D01*
X291814344Y-91476244D02*
X291832216Y-91588756D01*
X291832216Y-91588756D02*
X291868250Y-91679948D01*
X291868250Y-91679948D02*
X291887545Y-91709282D01*
X291887545Y-91709282D02*
X291954755Y-91771366D01*
X291954755Y-91771366D02*
X292040350Y-91811576D01*
X292040350Y-91811576D02*
X292136110Y-91828263D01*
X292136110Y-91828263D02*
X292233813Y-91819777D01*
X292233813Y-91819777D02*
X292308083Y-91793640D01*
X292308083Y-91793640D02*
X292371953Y-91749595D01*
X292371953Y-91749595D02*
X292424154Y-91691847D01*
X292424154Y-91691847D02*
X292425057Y-91690496D01*
X292425057Y-91690496D02*
X292446256Y-91654853D01*
X292446256Y-91654853D02*
X292460033Y-91619012D01*
X292460033Y-91619012D02*
X292468376Y-91573779D01*
X292468376Y-91573779D02*
X292473273Y-91509961D01*
X292473273Y-91509961D02*
X292475431Y-91457628D01*
X292475431Y-91457628D02*
X292476329Y-91410170D01*
X292476329Y-91410170D02*
X292309257Y-91410170D01*
X292309257Y-91410170D02*
X292307624Y-91457414D01*
X292307624Y-91457414D02*
X292301696Y-91520306D01*
X292301696Y-91520306D02*
X292291239Y-91560667D01*
X292291239Y-91560667D02*
X292272381Y-91589382D01*
X292272381Y-91589382D02*
X292254719Y-91606156D01*
X292254719Y-91606156D02*
X292192106Y-91641276D01*
X292192106Y-91641276D02*
X292126592Y-91645970D01*
X292126592Y-91645970D02*
X292065579Y-91620700D01*
X292065579Y-91620700D02*
X292035072Y-91592384D01*
X292035072Y-91592384D02*
X292013089Y-91563849D01*
X292013089Y-91563849D02*
X292000231Y-91536544D01*
X292000231Y-91536544D02*
X291994588Y-91501010D01*
X291994588Y-91501010D02*
X291994249Y-91447784D01*
X291994249Y-91447784D02*
X291995988Y-91398766D01*
X291995988Y-91398766D02*
X291999729Y-91328742D01*
X291999729Y-91328742D02*
X292005659Y-91283324D01*
X292005659Y-91283324D02*
X292016347Y-91253700D01*
X292016347Y-91253700D02*
X292034361Y-91231057D01*
X292034361Y-91231057D02*
X292048637Y-91218115D01*
X292048637Y-91218115D02*
X292108349Y-91184120D01*
X292108349Y-91184120D02*
X292172766Y-91182425D01*
X292172766Y-91182425D02*
X292226781Y-91202561D01*
X292226781Y-91202561D02*
X292272860Y-91244612D01*
X292272860Y-91244612D02*
X292300311Y-91313688D01*
X292300311Y-91313688D02*
X292309257Y-91410170D01*
X292309257Y-91410170D02*
X292476329Y-91410170D01*
X292476329Y-91410170D02*
X292477401Y-91353559D01*
X292477401Y-91353559D02*
X292474036Y-91275728D01*
X292474036Y-91275728D02*
X292463955Y-91217190D01*
X292463955Y-91217190D02*
X292445774Y-91170997D01*
X292445774Y-91170997D02*
X292418110Y-91130202D01*
X292418110Y-91130202D02*
X292407854Y-91118088D01*
X292407854Y-91118088D02*
X292343722Y-91057734D01*
X292343722Y-91057734D02*
X292274934Y-91022480D01*
X292274934Y-91022480D02*
X292190811Y-91007710D01*
X292190811Y-91007710D02*
X292149791Y-91006503D01*
X292149791Y-91006503D02*
X292041216Y-91019364D01*
X292041216Y-91019364D02*
X292041216Y-91019364D01*
G36*
X292473273Y-91509961D02*
G01*
X292468376Y-91573779D01*
X292460033Y-91619012D01*
X292446256Y-91654853D01*
X292425057Y-91690496D01*
X292424154Y-91691847D01*
X292371953Y-91749595D01*
X292308083Y-91793640D01*
X292233813Y-91819777D01*
X292136110Y-91828263D01*
X292040350Y-91811576D01*
X291954755Y-91771366D01*
X291887545Y-91709282D01*
X291868250Y-91679948D01*
X291832216Y-91588756D01*
X291814344Y-91476244D01*
X291814650Y-91447784D01*
X291994249Y-91447784D01*
X291994588Y-91501010D01*
X292000231Y-91536544D01*
X292013089Y-91563849D01*
X292035072Y-91592384D01*
X292065579Y-91620700D01*
X292126592Y-91645970D01*
X292192106Y-91641276D01*
X292254719Y-91606156D01*
X292272381Y-91589382D01*
X292291239Y-91560667D01*
X292301696Y-91520306D01*
X292307624Y-91457414D01*
X292309257Y-91410170D01*
X292300311Y-91313688D01*
X292272860Y-91244612D01*
X292226781Y-91202561D01*
X292172766Y-91182425D01*
X292108349Y-91184120D01*
X292048637Y-91218115D01*
X292034361Y-91231057D01*
X292016347Y-91253700D01*
X292005659Y-91283324D01*
X291999729Y-91328742D01*
X291995988Y-91398766D01*
X291994249Y-91447784D01*
X291814650Y-91447784D01*
X291815723Y-91347884D01*
X291817482Y-91329678D01*
X291842024Y-91213072D01*
X291887430Y-91122550D01*
X291953795Y-91058014D01*
X292041216Y-91019364D01*
X292149791Y-91006503D01*
X292190811Y-91007710D01*
X292274934Y-91022480D01*
X292343722Y-91057734D01*
X292407854Y-91118088D01*
X292418110Y-91130202D01*
X292445774Y-91170997D01*
X292463955Y-91217190D01*
X292474036Y-91275728D01*
X292477401Y-91353559D01*
X292476329Y-91410170D01*
X292475431Y-91457628D01*
X292473273Y-91509961D01*
G37*
X292473273Y-91509961D02*
X292468376Y-91573779D01*
X292460033Y-91619012D01*
X292446256Y-91654853D01*
X292425057Y-91690496D01*
X292424154Y-91691847D01*
X292371953Y-91749595D01*
X292308083Y-91793640D01*
X292233813Y-91819777D01*
X292136110Y-91828263D01*
X292040350Y-91811576D01*
X291954755Y-91771366D01*
X291887545Y-91709282D01*
X291868250Y-91679948D01*
X291832216Y-91588756D01*
X291814344Y-91476244D01*
X291814650Y-91447784D01*
X291994249Y-91447784D01*
X291994588Y-91501010D01*
X292000231Y-91536544D01*
X292013089Y-91563849D01*
X292035072Y-91592384D01*
X292065579Y-91620700D01*
X292126592Y-91645970D01*
X292192106Y-91641276D01*
X292254719Y-91606156D01*
X292272381Y-91589382D01*
X292291239Y-91560667D01*
X292301696Y-91520306D01*
X292307624Y-91457414D01*
X292309257Y-91410170D01*
X292300311Y-91313688D01*
X292272860Y-91244612D01*
X292226781Y-91202561D01*
X292172766Y-91182425D01*
X292108349Y-91184120D01*
X292048637Y-91218115D01*
X292034361Y-91231057D01*
X292016347Y-91253700D01*
X292005659Y-91283324D01*
X291999729Y-91328742D01*
X291995988Y-91398766D01*
X291994249Y-91447784D01*
X291814650Y-91447784D01*
X291815723Y-91347884D01*
X291817482Y-91329678D01*
X291842024Y-91213072D01*
X291887430Y-91122550D01*
X291953795Y-91058014D01*
X292041216Y-91019364D01*
X292149791Y-91006503D01*
X292190811Y-91007710D01*
X292274934Y-91022480D01*
X292343722Y-91057734D01*
X292407854Y-91118088D01*
X292418110Y-91130202D01*
X292445774Y-91170997D01*
X292463955Y-91217190D01*
X292474036Y-91275728D01*
X292477401Y-91353559D01*
X292476329Y-91410170D01*
X292475431Y-91457628D01*
X292473273Y-91509961D01*
X288649372Y-91007807D02*
X288586092Y-91019808D01*
X288586092Y-91019808D02*
X288520443Y-91044908D01*
X288520443Y-91044908D02*
X288513428Y-91048108D01*
X288513428Y-91048108D02*
X288463644Y-91074286D01*
X288463644Y-91074286D02*
X288429166Y-91098613D01*
X288429166Y-91098613D02*
X288418022Y-91114197D01*
X288418022Y-91114197D02*
X288428634Y-91139613D01*
X288428634Y-91139613D02*
X288454412Y-91177113D01*
X288454412Y-91177113D02*
X288465854Y-91191112D01*
X288465854Y-91191112D02*
X288513008Y-91246214D01*
X288513008Y-91246214D02*
X288573799Y-91210346D01*
X288573799Y-91210346D02*
X288631653Y-91186452D01*
X288631653Y-91186452D02*
X288698500Y-91173680D01*
X288698500Y-91173680D02*
X288762606Y-91172873D01*
X288762606Y-91172873D02*
X288812236Y-91184875D01*
X288812236Y-91184875D02*
X288824146Y-91192365D01*
X288824146Y-91192365D02*
X288846828Y-91226710D01*
X288846828Y-91226710D02*
X288849584Y-91266273D01*
X288849584Y-91266273D02*
X288832612Y-91297180D01*
X288832612Y-91297180D02*
X288822573Y-91303173D01*
X288822573Y-91303173D02*
X288792490Y-91310617D01*
X288792490Y-91310617D02*
X288739611Y-91319366D01*
X288739611Y-91319366D02*
X288674425Y-91327727D01*
X288674425Y-91327727D02*
X288662400Y-91329038D01*
X288662400Y-91329038D02*
X288557703Y-91347148D01*
X288557703Y-91347148D02*
X288481768Y-91377911D01*
X288481768Y-91377911D02*
X288431408Y-91424167D01*
X288431408Y-91424167D02*
X288403436Y-91488757D01*
X288403436Y-91488757D02*
X288394722Y-91567647D01*
X288394722Y-91567647D02*
X288406760Y-91657325D01*
X288406760Y-91657325D02*
X288445849Y-91727746D01*
X288445849Y-91727746D02*
X288512145Y-91779037D01*
X288512145Y-91779037D02*
X288605806Y-91811327D01*
X288605806Y-91811327D02*
X288709777Y-91824067D01*
X288709777Y-91824067D02*
X288794562Y-91823914D01*
X288794562Y-91823914D02*
X288863335Y-91812343D01*
X288863335Y-91812343D02*
X288910303Y-91796369D01*
X288910303Y-91796369D02*
X288969650Y-91768535D01*
X288969650Y-91768535D02*
X289024494Y-91736233D01*
X289024494Y-91736233D02*
X289043987Y-91722015D01*
X289043987Y-91722015D02*
X289094119Y-91681095D01*
X289094119Y-91681095D02*
X288973197Y-91558737D01*
X288973197Y-91558737D02*
X288904457Y-91604227D01*
X288904457Y-91604227D02*
X288835512Y-91638393D01*
X288835512Y-91638393D02*
X288761889Y-91656264D01*
X288761889Y-91656264D02*
X288691117Y-91658149D01*
X288691117Y-91658149D02*
X288630726Y-91644361D01*
X288630726Y-91644361D02*
X288588243Y-91615209D01*
X288588243Y-91615209D02*
X288574526Y-91590612D01*
X288574526Y-91590612D02*
X288576583Y-91551164D01*
X288576583Y-91551164D02*
X288610670Y-91520997D01*
X288610670Y-91520997D02*
X288676692Y-91500166D01*
X288676692Y-91500166D02*
X288749026Y-91490539D01*
X288749026Y-91490539D02*
X288860348Y-91472170D01*
X288860348Y-91472170D02*
X288943048Y-91437514D01*
X288943048Y-91437514D02*
X288998235Y-91385557D01*
X288998235Y-91385557D02*
X289027012Y-91315283D01*
X289027012Y-91315283D02*
X289030999Y-91231967D01*
X289030999Y-91231967D02*
X289011307Y-91144941D01*
X289011307Y-91144941D02*
X288966411Y-91079162D01*
X288966411Y-91079162D02*
X288895909Y-91034328D01*
X288895909Y-91034328D02*
X288799399Y-91010139D01*
X288799399Y-91010139D02*
X288727900Y-91005397D01*
X288727900Y-91005397D02*
X288649372Y-91007807D01*
X288649372Y-91007807D02*
X288649372Y-91007807D01*
G36*
X288799399Y-91010139D02*
G01*
X288895909Y-91034328D01*
X288966411Y-91079162D01*
X289011307Y-91144941D01*
X289030999Y-91231967D01*
X289027012Y-91315283D01*
X288998235Y-91385557D01*
X288943048Y-91437514D01*
X288860348Y-91472170D01*
X288749026Y-91490539D01*
X288676692Y-91500166D01*
X288610670Y-91520997D01*
X288576583Y-91551164D01*
X288574526Y-91590612D01*
X288588243Y-91615209D01*
X288630726Y-91644361D01*
X288691117Y-91658149D01*
X288761889Y-91656264D01*
X288835512Y-91638393D01*
X288904457Y-91604227D01*
X288973197Y-91558737D01*
X289094119Y-91681095D01*
X289043987Y-91722015D01*
X289024494Y-91736233D01*
X288969650Y-91768535D01*
X288910303Y-91796369D01*
X288863335Y-91812343D01*
X288794562Y-91823914D01*
X288709777Y-91824067D01*
X288605806Y-91811327D01*
X288512145Y-91779037D01*
X288445849Y-91727746D01*
X288406760Y-91657325D01*
X288394722Y-91567647D01*
X288403436Y-91488757D01*
X288431408Y-91424167D01*
X288481768Y-91377911D01*
X288557703Y-91347148D01*
X288662400Y-91329038D01*
X288674425Y-91327727D01*
X288739611Y-91319366D01*
X288792490Y-91310617D01*
X288822573Y-91303173D01*
X288832612Y-91297180D01*
X288849584Y-91266273D01*
X288846828Y-91226710D01*
X288824146Y-91192365D01*
X288812236Y-91184875D01*
X288762606Y-91172873D01*
X288698500Y-91173680D01*
X288631653Y-91186452D01*
X288573799Y-91210346D01*
X288513008Y-91246214D01*
X288465854Y-91191112D01*
X288454412Y-91177113D01*
X288428634Y-91139613D01*
X288418022Y-91114197D01*
X288429166Y-91098613D01*
X288463644Y-91074286D01*
X288513428Y-91048108D01*
X288520443Y-91044908D01*
X288586092Y-91019808D01*
X288649372Y-91007807D01*
X288727900Y-91005397D01*
X288799399Y-91010139D01*
G37*
X288799399Y-91010139D02*
X288895909Y-91034328D01*
X288966411Y-91079162D01*
X289011307Y-91144941D01*
X289030999Y-91231967D01*
X289027012Y-91315283D01*
X288998235Y-91385557D01*
X288943048Y-91437514D01*
X288860348Y-91472170D01*
X288749026Y-91490539D01*
X288676692Y-91500166D01*
X288610670Y-91520997D01*
X288576583Y-91551164D01*
X288574526Y-91590612D01*
X288588243Y-91615209D01*
X288630726Y-91644361D01*
X288691117Y-91658149D01*
X288761889Y-91656264D01*
X288835512Y-91638393D01*
X288904457Y-91604227D01*
X288973197Y-91558737D01*
X289094119Y-91681095D01*
X289043987Y-91722015D01*
X289024494Y-91736233D01*
X288969650Y-91768535D01*
X288910303Y-91796369D01*
X288863335Y-91812343D01*
X288794562Y-91823914D01*
X288709777Y-91824067D01*
X288605806Y-91811327D01*
X288512145Y-91779037D01*
X288445849Y-91727746D01*
X288406760Y-91657325D01*
X288394722Y-91567647D01*
X288403436Y-91488757D01*
X288431408Y-91424167D01*
X288481768Y-91377911D01*
X288557703Y-91347148D01*
X288662400Y-91329038D01*
X288674425Y-91327727D01*
X288739611Y-91319366D01*
X288792490Y-91310617D01*
X288822573Y-91303173D01*
X288832612Y-91297180D01*
X288849584Y-91266273D01*
X288846828Y-91226710D01*
X288824146Y-91192365D01*
X288812236Y-91184875D01*
X288762606Y-91172873D01*
X288698500Y-91173680D01*
X288631653Y-91186452D01*
X288573799Y-91210346D01*
X288513008Y-91246214D01*
X288465854Y-91191112D01*
X288454412Y-91177113D01*
X288428634Y-91139613D01*
X288418022Y-91114197D01*
X288429166Y-91098613D01*
X288463644Y-91074286D01*
X288513428Y-91048108D01*
X288520443Y-91044908D01*
X288586092Y-91019808D01*
X288649372Y-91007807D01*
X288727900Y-91005397D01*
X288799399Y-91010139D01*
X289988119Y-92265746D02*
X289963112Y-92273242D01*
X289963112Y-92273242D02*
X289955050Y-92289711D01*
X289955050Y-92289711D02*
X289954711Y-92297146D01*
X289954711Y-92297146D02*
X289953264Y-92317854D01*
X289953264Y-92317854D02*
X289943302Y-92321105D01*
X289943302Y-92321105D02*
X289916388Y-92306908D01*
X289916388Y-92306908D02*
X289900402Y-92297208D01*
X289900402Y-92297208D02*
X289849967Y-92276435D01*
X289849967Y-92276435D02*
X289789728Y-92266164D01*
X289789728Y-92266164D02*
X289726566Y-92265374D01*
X289726566Y-92265374D02*
X289667363Y-92273046D01*
X289667363Y-92273046D02*
X289618998Y-92288158D01*
X289618998Y-92288158D02*
X289588354Y-92309692D01*
X289588354Y-92309692D02*
X289582311Y-92336626D01*
X289582311Y-92336626D02*
X289585361Y-92343920D01*
X289585361Y-92343920D02*
X289607594Y-92374197D01*
X289607594Y-92374197D02*
X289642070Y-92411435D01*
X289642070Y-92411435D02*
X289648306Y-92417455D01*
X289648306Y-92417455D02*
X289681167Y-92445135D01*
X289681167Y-92445135D02*
X289709520Y-92454078D01*
X289709520Y-92454078D02*
X289749173Y-92447836D01*
X289749173Y-92447836D02*
X289765058Y-92443689D01*
X289765058Y-92443689D02*
X289814491Y-92433727D01*
X289814491Y-92433727D02*
X289849248Y-92438207D01*
X289849248Y-92438207D02*
X289878600Y-92454006D01*
X289878600Y-92454006D02*
X289905487Y-92475209D01*
X289905487Y-92475209D02*
X289925290Y-92501874D01*
X289925290Y-92501874D02*
X289939052Y-92539087D01*
X289939052Y-92539087D02*
X289947816Y-92591933D01*
X289947816Y-92591933D02*
X289952626Y-92665497D01*
X289952626Y-92665497D02*
X289954526Y-92764865D01*
X289954526Y-92764865D02*
X289954711Y-92824861D01*
X289954711Y-92824861D02*
X289954711Y-93082786D01*
X289954711Y-93082786D02*
X290121816Y-93082786D01*
X290121816Y-93082786D02*
X290121816Y-92263970D01*
X290121816Y-92263970D02*
X290038264Y-92263970D01*
X290038264Y-92263970D02*
X289988119Y-92265746D01*
X289988119Y-92265746D02*
X289988119Y-92265746D01*
G36*
X290121816Y-93082786D02*
G01*
X289954711Y-93082786D01*
X289954711Y-92824861D01*
X289954526Y-92764865D01*
X289952626Y-92665497D01*
X289947816Y-92591933D01*
X289939052Y-92539087D01*
X289925290Y-92501874D01*
X289905487Y-92475209D01*
X289878600Y-92454006D01*
X289849248Y-92438207D01*
X289814491Y-92433727D01*
X289765058Y-92443689D01*
X289749173Y-92447836D01*
X289709520Y-92454078D01*
X289681167Y-92445135D01*
X289648306Y-92417455D01*
X289642070Y-92411435D01*
X289607594Y-92374197D01*
X289585361Y-92343920D01*
X289582311Y-92336626D01*
X289588354Y-92309692D01*
X289618998Y-92288158D01*
X289667363Y-92273046D01*
X289726566Y-92265374D01*
X289789728Y-92266164D01*
X289849967Y-92276435D01*
X289900402Y-92297208D01*
X289916388Y-92306908D01*
X289943302Y-92321105D01*
X289953264Y-92317854D01*
X289954711Y-92297146D01*
X289955050Y-92289711D01*
X289963112Y-92273242D01*
X289988119Y-92265746D01*
X290038264Y-92263970D01*
X290121816Y-92263970D01*
X290121816Y-93082786D01*
G37*
X290121816Y-93082786D02*
X289954711Y-93082786D01*
X289954711Y-92824861D01*
X289954526Y-92764865D01*
X289952626Y-92665497D01*
X289947816Y-92591933D01*
X289939052Y-92539087D01*
X289925290Y-92501874D01*
X289905487Y-92475209D01*
X289878600Y-92454006D01*
X289849248Y-92438207D01*
X289814491Y-92433727D01*
X289765058Y-92443689D01*
X289749173Y-92447836D01*
X289709520Y-92454078D01*
X289681167Y-92445135D01*
X289648306Y-92417455D01*
X289642070Y-92411435D01*
X289607594Y-92374197D01*
X289585361Y-92343920D01*
X289582311Y-92336626D01*
X289588354Y-92309692D01*
X289618998Y-92288158D01*
X289667363Y-92273046D01*
X289726566Y-92265374D01*
X289789728Y-92266164D01*
X289849967Y-92276435D01*
X289900402Y-92297208D01*
X289916388Y-92306908D01*
X289943302Y-92321105D01*
X289953264Y-92317854D01*
X289954711Y-92297146D01*
X289955050Y-92289711D01*
X289963112Y-92273242D01*
X289988119Y-92265746D01*
X290038264Y-92263970D01*
X290121816Y-92263970D01*
X290121816Y-93082786D01*
X288167036Y-85470836D02*
X288091487Y-85871582D01*
X288091487Y-85871582D02*
X287533959Y-86101414D01*
X287533959Y-86101414D02*
X287199535Y-85874008D01*
X287199535Y-85874008D02*
X287105878Y-85810691D01*
X287105878Y-85810691D02*
X287021218Y-85754156D01*
X287021218Y-85754156D02*
X286949505Y-85706987D01*
X286949505Y-85706987D02*
X286894689Y-85671762D01*
X286894689Y-85671762D02*
X286860720Y-85651065D01*
X286860720Y-85651065D02*
X286851470Y-85646602D01*
X286851470Y-85646602D02*
X286834805Y-85658080D01*
X286834805Y-85658080D02*
X286799194Y-85689811D01*
X286799194Y-85689811D02*
X286748629Y-85737743D01*
X286748629Y-85737743D02*
X286687100Y-85797822D01*
X286687100Y-85797822D02*
X286618601Y-85865993D01*
X286618601Y-85865993D02*
X286547121Y-85938205D01*
X286547121Y-85938205D02*
X286476653Y-86010402D01*
X286476653Y-86010402D02*
X286411189Y-86078533D01*
X286411189Y-86078533D02*
X286354720Y-86138543D01*
X286354720Y-86138543D02*
X286311237Y-86186379D01*
X286311237Y-86186379D02*
X286284732Y-86217987D01*
X286284732Y-86217987D02*
X286278395Y-86228565D01*
X286278395Y-86228565D02*
X286287514Y-86248066D01*
X286287514Y-86248066D02*
X286313080Y-86290791D01*
X286313080Y-86290791D02*
X286352403Y-86352558D01*
X286352403Y-86352558D02*
X286402797Y-86429191D01*
X286402797Y-86429191D02*
X286461573Y-86516508D01*
X286461573Y-86516508D02*
X286495632Y-86566312D01*
X286495632Y-86566312D02*
X286557711Y-86657253D01*
X286557711Y-86657253D02*
X286612874Y-86739319D01*
X286612874Y-86739319D02*
X286658446Y-86808423D01*
X286658446Y-86808423D02*
X286691750Y-86860482D01*
X286691750Y-86860482D02*
X286710110Y-86891410D01*
X286710110Y-86891410D02*
X286712869Y-86897910D01*
X286712869Y-86897910D02*
X286706615Y-86916381D01*
X286706615Y-86916381D02*
X286689566Y-86959432D01*
X286689566Y-86959432D02*
X286664297Y-87021009D01*
X286664297Y-87021009D02*
X286633378Y-87095059D01*
X286633378Y-87095059D02*
X286599382Y-87175530D01*
X286599382Y-87175530D02*
X286564882Y-87256367D01*
X286564882Y-87256367D02*
X286532449Y-87331518D01*
X286532449Y-87331518D02*
X286504657Y-87394931D01*
X286504657Y-87394931D02*
X286484077Y-87440553D01*
X286484077Y-87440553D02*
X286473281Y-87462329D01*
X286473281Y-87462329D02*
X286472644Y-87463186D01*
X286472644Y-87463186D02*
X286455693Y-87467344D01*
X286455693Y-87467344D02*
X286410549Y-87476621D01*
X286410549Y-87476621D02*
X286341890Y-87490104D01*
X286341890Y-87490104D02*
X286254398Y-87506881D01*
X286254398Y-87506881D02*
X286152750Y-87526041D01*
X286152750Y-87526041D02*
X286093444Y-87537090D01*
X286093444Y-87537090D02*
X285984828Y-87557770D01*
X285984828Y-87557770D02*
X285886723Y-87577449D01*
X285886723Y-87577449D02*
X285804091Y-87595049D01*
X285804091Y-87595049D02*
X285741896Y-87609493D01*
X285741896Y-87609493D02*
X285705101Y-87619706D01*
X285705101Y-87619706D02*
X285697704Y-87622946D01*
X285697704Y-87622946D02*
X285690460Y-87644877D01*
X285690460Y-87644877D02*
X285684615Y-87694407D01*
X285684615Y-87694407D02*
X285680165Y-87765745D01*
X285680165Y-87765745D02*
X285677107Y-87853099D01*
X285677107Y-87853099D02*
X285675435Y-87950677D01*
X285675435Y-87950677D02*
X285675147Y-88052686D01*
X285675147Y-88052686D02*
X285676239Y-88153335D01*
X285676239Y-88153335D02*
X285678706Y-88246832D01*
X285678706Y-88246832D02*
X285682544Y-88327385D01*
X285682544Y-88327385D02*
X285687750Y-88389202D01*
X285687750Y-88389202D02*
X285694319Y-88426490D01*
X285694319Y-88426490D02*
X285698259Y-88434253D01*
X285698259Y-88434253D02*
X285721812Y-88443558D01*
X285721812Y-88443558D02*
X285771718Y-88456860D01*
X285771718Y-88456860D02*
X285841377Y-88472597D01*
X285841377Y-88472597D02*
X285924187Y-88489206D01*
X285924187Y-88489206D02*
X285953095Y-88494579D01*
X285953095Y-88494579D02*
X286092469Y-88520108D01*
X286092469Y-88520108D02*
X286202564Y-88540668D01*
X286202564Y-88540668D02*
X286287018Y-88557075D01*
X286287018Y-88557075D02*
X286349470Y-88570147D01*
X286349470Y-88570147D02*
X286393556Y-88580701D01*
X286393556Y-88580701D02*
X286422915Y-88589554D01*
X286422915Y-88589554D02*
X286441185Y-88597523D01*
X286441185Y-88597523D02*
X286452002Y-88605425D01*
X286452002Y-88605425D02*
X286453515Y-88606987D01*
X286453515Y-88606987D02*
X286468623Y-88632146D01*
X286468623Y-88632146D02*
X286491671Y-88681110D01*
X286491671Y-88681110D02*
X286520356Y-88747881D01*
X286520356Y-88747881D02*
X286552378Y-88826465D01*
X286552378Y-88826465D02*
X286585435Y-88910867D01*
X286585435Y-88910867D02*
X286617227Y-88995090D01*
X286617227Y-88995090D02*
X286645451Y-89073139D01*
X286645451Y-89073139D02*
X286667807Y-89139019D01*
X286667807Y-89139019D02*
X286681993Y-89186733D01*
X286681993Y-89186733D02*
X286685707Y-89210287D01*
X286685707Y-89210287D02*
X286685398Y-89211112D01*
X286685398Y-89211112D02*
X286672811Y-89230364D01*
X286672811Y-89230364D02*
X286644256Y-89272723D01*
X286644256Y-89272723D02*
X286602733Y-89333781D01*
X286602733Y-89333781D02*
X286551244Y-89409128D01*
X286551244Y-89409128D02*
X286492789Y-89494356D01*
X286492789Y-89494356D02*
X286476142Y-89518575D01*
X286476142Y-89518575D02*
X286416785Y-89606383D01*
X286416785Y-89606383D02*
X286364553Y-89686498D01*
X286364553Y-89686498D02*
X286322292Y-89754322D01*
X286322292Y-89754322D02*
X286292847Y-89805253D01*
X286292847Y-89805253D02*
X286279063Y-89834691D01*
X286279063Y-89834691D02*
X286278395Y-89838308D01*
X286278395Y-89838308D02*
X286289976Y-89857317D01*
X286289976Y-89857317D02*
X286321976Y-89894974D01*
X286321976Y-89894974D02*
X286370282Y-89947233D01*
X286370282Y-89947233D02*
X286430780Y-90010046D01*
X286430780Y-90010046D02*
X286499356Y-90079366D01*
X286499356Y-90079366D02*
X286571896Y-90151145D01*
X286571896Y-90151145D02*
X286644288Y-90221337D01*
X286644288Y-90221337D02*
X286712416Y-90285895D01*
X286712416Y-90285895D02*
X286772168Y-90340770D01*
X286772168Y-90340770D02*
X286819429Y-90381916D01*
X286819429Y-90381916D02*
X286850087Y-90405286D01*
X286850087Y-90405286D02*
X286858568Y-90409102D01*
X286858568Y-90409102D02*
X286878309Y-90400115D01*
X286878309Y-90400115D02*
X286918726Y-90375876D01*
X286918726Y-90375876D02*
X286973237Y-90340469D01*
X286973237Y-90340469D02*
X287015177Y-90311971D01*
X287015177Y-90311971D02*
X287091171Y-90259678D01*
X287091171Y-90259678D02*
X287181166Y-90198105D01*
X287181166Y-90198105D02*
X287271436Y-90136630D01*
X287271436Y-90136630D02*
X287319968Y-90103729D01*
X287319968Y-90103729D02*
X287484238Y-89992619D01*
X287484238Y-89992619D02*
X287622131Y-90067176D01*
X287622131Y-90067176D02*
X287684951Y-90099838D01*
X287684951Y-90099838D02*
X287738371Y-90125226D01*
X287738371Y-90125226D02*
X287774516Y-90139706D01*
X287774516Y-90139706D02*
X287783716Y-90141720D01*
X287783716Y-90141720D02*
X287794779Y-90126844D01*
X287794779Y-90126844D02*
X287816606Y-90084807D01*
X287816606Y-90084807D02*
X287847566Y-90019487D01*
X287847566Y-90019487D02*
X287886030Y-89934760D01*
X287886030Y-89934760D02*
X287930368Y-89834505D01*
X287930368Y-89834505D02*
X287978953Y-89722599D01*
X287978953Y-89722599D02*
X288030154Y-89602919D01*
X288030154Y-89602919D02*
X288082341Y-89479344D01*
X288082341Y-89479344D02*
X288133887Y-89355751D01*
X288133887Y-89355751D02*
X288183160Y-89236017D01*
X288183160Y-89236017D02*
X288228533Y-89124019D01*
X288228533Y-89124019D02*
X288268375Y-89023637D01*
X288268375Y-89023637D02*
X288301058Y-88938746D01*
X288301058Y-88938746D02*
X288324951Y-88873225D01*
X288324951Y-88873225D02*
X288338426Y-88830950D01*
X288338426Y-88830950D02*
X288340594Y-88816432D01*
X288340594Y-88816432D02*
X288323417Y-88797913D01*
X288323417Y-88797913D02*
X288285810Y-88767850D01*
X288285810Y-88767850D02*
X288235634Y-88732492D01*
X288235634Y-88732492D02*
X288231422Y-88729694D01*
X288231422Y-88729694D02*
X288101736Y-88625885D01*
X288101736Y-88625885D02*
X287997166Y-88504775D01*
X287997166Y-88504775D02*
X287918619Y-88370236D01*
X287918619Y-88370236D02*
X287867001Y-88226142D01*
X287867001Y-88226142D02*
X287843218Y-88076365D01*
X287843218Y-88076365D02*
X287848177Y-87924777D01*
X287848177Y-87924777D02*
X287882783Y-87775252D01*
X287882783Y-87775252D02*
X287947943Y-87631660D01*
X287947943Y-87631660D02*
X287967114Y-87600244D01*
X287967114Y-87600244D02*
X288066826Y-87473385D01*
X288066826Y-87473385D02*
X288184623Y-87371515D01*
X288184623Y-87371515D02*
X288316429Y-87295164D01*
X288316429Y-87295164D02*
X288458167Y-87244862D01*
X288458167Y-87244862D02*
X288605758Y-87221139D01*
X288605758Y-87221139D02*
X288755127Y-87224525D01*
X288755127Y-87224525D02*
X288902197Y-87255548D01*
X288902197Y-87255548D02*
X289042889Y-87314740D01*
X289042889Y-87314740D02*
X289173127Y-87402629D01*
X289173127Y-87402629D02*
X289213414Y-87438302D01*
X289213414Y-87438302D02*
X289315945Y-87549966D01*
X289315945Y-87549966D02*
X289390659Y-87667517D01*
X289390659Y-87667517D02*
X289441910Y-87799280D01*
X289441910Y-87799280D02*
X289470454Y-87929767D01*
X289470454Y-87929767D02*
X289477500Y-88076476D01*
X289477500Y-88076476D02*
X289454004Y-88223913D01*
X289454004Y-88223913D02*
X289402351Y-88367094D01*
X289402351Y-88367094D02*
X289324929Y-88501037D01*
X289324929Y-88501037D02*
X289224125Y-88620758D01*
X289224125Y-88620758D02*
X289102324Y-88721274D01*
X289102324Y-88721274D02*
X289086316Y-88731869D01*
X289086316Y-88731869D02*
X289035602Y-88766566D01*
X289035602Y-88766566D02*
X288997050Y-88796630D01*
X288997050Y-88796630D02*
X288978619Y-88815825D01*
X288978619Y-88815825D02*
X288978351Y-88816432D01*
X288978351Y-88816432D02*
X288982308Y-88837196D01*
X288982308Y-88837196D02*
X288997993Y-88884322D01*
X288997993Y-88884322D02*
X289023778Y-88953933D01*
X289023778Y-88953933D02*
X289058031Y-89042153D01*
X289058031Y-89042153D02*
X289099123Y-89145104D01*
X289099123Y-89145104D02*
X289145424Y-89258910D01*
X289145424Y-89258910D02*
X289195304Y-89379695D01*
X289195304Y-89379695D02*
X289247133Y-89503581D01*
X289247133Y-89503581D02*
X289299281Y-89626692D01*
X289299281Y-89626692D02*
X289350118Y-89745151D01*
X289350118Y-89745151D02*
X289398013Y-89855083D01*
X289398013Y-89855083D02*
X289441338Y-89952609D01*
X289441338Y-89952609D02*
X289478462Y-90033853D01*
X289478462Y-90033853D02*
X289507756Y-90094939D01*
X289507756Y-90094939D02*
X289527588Y-90131990D01*
X289527588Y-90131990D02*
X289535574Y-90141720D01*
X289535574Y-90141720D02*
X289559979Y-90134143D01*
X289559979Y-90134143D02*
X289605642Y-90113820D01*
X289605642Y-90113820D02*
X289664690Y-90084385D01*
X289664690Y-90084385D02*
X289697160Y-90067176D01*
X289697160Y-90067176D02*
X289835053Y-89992619D01*
X289835053Y-89992619D02*
X289999323Y-90103729D01*
X289999323Y-90103729D02*
X290083179Y-90160650D01*
X290083179Y-90160650D02*
X290174987Y-90223290D01*
X290174987Y-90223290D02*
X290261020Y-90282271D01*
X290261020Y-90282271D02*
X290304113Y-90311971D01*
X290304113Y-90311971D02*
X290364723Y-90352670D01*
X290364723Y-90352670D02*
X290416045Y-90384923D01*
X290416045Y-90384923D02*
X290451385Y-90404644D01*
X290451385Y-90404644D02*
X290462863Y-90408814D01*
X290462863Y-90408814D02*
X290479570Y-90397567D01*
X290479570Y-90397567D02*
X290516546Y-90366171D01*
X290516546Y-90366171D02*
X290570205Y-90317884D01*
X290570205Y-90317884D02*
X290636962Y-90255968D01*
X290636962Y-90255968D02*
X290713234Y-90183681D01*
X290713234Y-90183681D02*
X290761473Y-90137268D01*
X290761473Y-90137268D02*
X290845867Y-90054347D01*
X290845867Y-90054347D02*
X290918803Y-89980180D01*
X290918803Y-89980180D02*
X290977331Y-89917940D01*
X290977331Y-89917940D02*
X291018503Y-89870801D01*
X291018503Y-89870801D02*
X291039372Y-89841933D01*
X291039372Y-89841933D02*
X291041374Y-89836075D01*
X291041374Y-89836075D02*
X291032083Y-89813792D01*
X291032083Y-89813792D02*
X291006409Y-89768737D01*
X291006409Y-89768737D02*
X290967200Y-89705471D01*
X290967200Y-89705471D02*
X290917303Y-89628555D01*
X290917303Y-89628555D02*
X290859567Y-89542552D01*
X290859567Y-89542552D02*
X290843149Y-89518575D01*
X290843149Y-89518575D02*
X290783323Y-89431430D01*
X290783323Y-89431430D02*
X290729650Y-89352970D01*
X290729650Y-89352970D02*
X290685130Y-89287605D01*
X290685130Y-89287605D02*
X290652765Y-89239744D01*
X290652765Y-89239744D02*
X290635555Y-89213795D01*
X290635555Y-89213795D02*
X290633893Y-89211112D01*
X290633893Y-89211112D02*
X290636379Y-89190432D01*
X290636379Y-89190432D02*
X290649577Y-89144964D01*
X290649577Y-89144964D02*
X290671186Y-89080704D01*
X290671186Y-89080704D02*
X290698904Y-89003647D01*
X290698904Y-89003647D02*
X290730430Y-88919789D01*
X290730430Y-88919789D02*
X290763463Y-88835126D01*
X290763463Y-88835126D02*
X290795701Y-88755652D01*
X290795701Y-88755652D02*
X290824843Y-88687364D01*
X290824843Y-88687364D02*
X290848588Y-88636257D01*
X290848588Y-88636257D02*
X290864635Y-88608327D01*
X290864635Y-88608327D02*
X290865775Y-88606987D01*
X290865775Y-88606987D02*
X290875588Y-88599005D01*
X290875588Y-88599005D02*
X290892161Y-88591111D01*
X290892161Y-88591111D02*
X290919132Y-88582489D01*
X290919132Y-88582489D02*
X290960139Y-88572322D01*
X290960139Y-88572322D02*
X291018820Y-88559791D01*
X291018820Y-88559791D02*
X291098813Y-88544081D01*
X291098813Y-88544081D02*
X291203755Y-88524373D01*
X291203755Y-88524373D02*
X291337285Y-88499852D01*
X291337285Y-88499852D02*
X291366196Y-88494579D01*
X291366196Y-88494579D02*
X291451882Y-88478024D01*
X291451882Y-88478024D02*
X291526582Y-88461829D01*
X291526582Y-88461829D02*
X291583694Y-88447556D01*
X291583694Y-88447556D02*
X291616617Y-88436768D01*
X291616617Y-88436768D02*
X291621031Y-88434253D01*
X291621031Y-88434253D02*
X291628306Y-88411956D01*
X291628306Y-88411956D02*
X291634219Y-88362129D01*
X291634219Y-88362129D02*
X291638766Y-88290564D01*
X291638766Y-88290564D02*
X291641945Y-88203053D01*
X291641945Y-88203053D02*
X291643749Y-88105388D01*
X291643749Y-88105388D02*
X291644177Y-88003361D01*
X291644177Y-88003361D02*
X291643223Y-87902763D01*
X291643223Y-87902763D02*
X291640884Y-87809387D01*
X291640884Y-87809387D02*
X291637156Y-87729025D01*
X291637156Y-87729025D02*
X291632034Y-87667469D01*
X291632034Y-87667469D02*
X291625516Y-87630510D01*
X291625516Y-87630510D02*
X291621586Y-87622946D01*
X291621586Y-87622946D02*
X291599708Y-87615316D01*
X291599708Y-87615316D02*
X291549891Y-87602902D01*
X291549891Y-87602902D02*
X291477097Y-87586782D01*
X291477097Y-87586782D02*
X291386289Y-87568033D01*
X291386289Y-87568033D02*
X291282431Y-87547731D01*
X291282431Y-87547731D02*
X291225846Y-87537090D01*
X291225846Y-87537090D02*
X291118486Y-87517020D01*
X291118486Y-87517020D02*
X291022746Y-87498840D01*
X291022746Y-87498840D02*
X290943306Y-87483459D01*
X290943306Y-87483459D02*
X290884846Y-87471791D01*
X290884846Y-87471791D02*
X290852045Y-87464748D01*
X290852045Y-87464748D02*
X290846646Y-87463186D01*
X290846646Y-87463186D02*
X290837522Y-87445582D01*
X290837522Y-87445582D02*
X290818235Y-87403178D01*
X290818235Y-87403178D02*
X290791355Y-87342032D01*
X290791355Y-87342032D02*
X290759454Y-87268203D01*
X290759454Y-87268203D02*
X290725102Y-87187749D01*
X290725102Y-87187749D02*
X290690871Y-87106728D01*
X290690871Y-87106728D02*
X290659331Y-87031197D01*
X290659331Y-87031197D02*
X290633054Y-86967215D01*
X290633054Y-86967215D02*
X290614611Y-86920840D01*
X290614611Y-86920840D02*
X290606571Y-86898129D01*
X290606571Y-86898129D02*
X290606422Y-86897136D01*
X290606422Y-86897136D02*
X290615535Y-86879221D01*
X290615535Y-86879221D02*
X290641086Y-86837993D01*
X290641086Y-86837993D02*
X290680388Y-86777551D01*
X290680388Y-86777551D02*
X290730757Y-86701991D01*
X290730757Y-86701991D02*
X290789506Y-86615412D01*
X290789506Y-86615412D02*
X290823658Y-86565681D01*
X290823658Y-86565681D02*
X290885890Y-86474496D01*
X290885890Y-86474496D02*
X290941164Y-86391709D01*
X290941164Y-86391709D02*
X290986782Y-86321509D01*
X290986782Y-86321509D02*
X291020048Y-86268084D01*
X291020048Y-86268084D02*
X291038264Y-86235621D01*
X291038264Y-86235621D02*
X291040895Y-86228343D01*
X291040895Y-86228343D02*
X291029586Y-86211405D01*
X291029586Y-86211405D02*
X290998319Y-86175238D01*
X290998319Y-86175238D02*
X290951090Y-86123895D01*
X290951090Y-86123895D02*
X290891892Y-86061427D01*
X290891892Y-86061427D02*
X290824719Y-85991886D01*
X290824719Y-85991886D02*
X290753566Y-85919325D01*
X290753566Y-85919325D02*
X290682426Y-85847795D01*
X290682426Y-85847795D02*
X290615293Y-85781347D01*
X290615293Y-85781347D02*
X290556161Y-85724034D01*
X290556161Y-85724034D02*
X290509025Y-85679907D01*
X290509025Y-85679907D02*
X290477877Y-85653019D01*
X290477877Y-85653019D02*
X290467457Y-85646602D01*
X290467457Y-85646602D02*
X290450491Y-85655625D01*
X290450491Y-85655625D02*
X290409911Y-85680975D01*
X290409911Y-85680975D02*
X290349663Y-85720070D01*
X290349663Y-85720070D02*
X290273693Y-85770331D01*
X290273693Y-85770331D02*
X290185946Y-85829177D01*
X290185946Y-85829177D02*
X290119756Y-85874008D01*
X290119756Y-85874008D02*
X289785332Y-86101414D01*
X289785332Y-86101414D02*
X289506567Y-85986498D01*
X289506567Y-85986498D02*
X289227803Y-85871582D01*
X289227803Y-85871582D02*
X289152254Y-85470836D01*
X289152254Y-85470836D02*
X289076706Y-85070089D01*
X289076706Y-85070089D02*
X288242585Y-85070089D01*
X288242585Y-85070089D02*
X288167036Y-85470836D01*
X288167036Y-85470836D02*
X288167036Y-85470836D01*
G36*
X289152254Y-85470836D02*
G01*
X289227803Y-85871582D01*
X289506567Y-85986498D01*
X289785332Y-86101414D01*
X290119756Y-85874008D01*
X290185946Y-85829177D01*
X290273693Y-85770331D01*
X290349663Y-85720070D01*
X290409911Y-85680975D01*
X290450491Y-85655625D01*
X290467457Y-85646602D01*
X290477877Y-85653019D01*
X290509025Y-85679907D01*
X290556161Y-85724034D01*
X290615293Y-85781347D01*
X290682426Y-85847795D01*
X290753566Y-85919325D01*
X290824719Y-85991886D01*
X290891892Y-86061427D01*
X290951090Y-86123895D01*
X290998319Y-86175238D01*
X291029586Y-86211405D01*
X291040895Y-86228343D01*
X291038264Y-86235621D01*
X291020048Y-86268084D01*
X290986782Y-86321509D01*
X290941164Y-86391709D01*
X290885890Y-86474496D01*
X290823658Y-86565681D01*
X290789506Y-86615412D01*
X290730757Y-86701991D01*
X290680388Y-86777551D01*
X290641086Y-86837993D01*
X290615535Y-86879221D01*
X290606422Y-86897136D01*
X290606571Y-86898129D01*
X290614611Y-86920840D01*
X290633054Y-86967215D01*
X290659331Y-87031197D01*
X290690871Y-87106728D01*
X290725102Y-87187749D01*
X290759454Y-87268203D01*
X290791355Y-87342032D01*
X290818235Y-87403178D01*
X290837522Y-87445582D01*
X290846646Y-87463186D01*
X290852045Y-87464748D01*
X290884846Y-87471791D01*
X290943306Y-87483459D01*
X291022746Y-87498840D01*
X291118486Y-87517020D01*
X291225846Y-87537090D01*
X291282431Y-87547731D01*
X291386289Y-87568033D01*
X291477097Y-87586782D01*
X291549891Y-87602902D01*
X291599708Y-87615316D01*
X291621586Y-87622946D01*
X291625516Y-87630510D01*
X291632034Y-87667469D01*
X291637156Y-87729025D01*
X291640884Y-87809387D01*
X291643223Y-87902763D01*
X291644177Y-88003361D01*
X291643749Y-88105388D01*
X291641945Y-88203053D01*
X291638766Y-88290564D01*
X291634219Y-88362129D01*
X291628306Y-88411956D01*
X291621031Y-88434253D01*
X291616617Y-88436768D01*
X291583694Y-88447556D01*
X291526582Y-88461829D01*
X291451882Y-88478024D01*
X291366196Y-88494579D01*
X291337285Y-88499852D01*
X291203755Y-88524373D01*
X291098813Y-88544081D01*
X291018820Y-88559791D01*
X290960139Y-88572322D01*
X290919132Y-88582489D01*
X290892161Y-88591111D01*
X290875588Y-88599005D01*
X290865775Y-88606987D01*
X290864635Y-88608327D01*
X290848588Y-88636257D01*
X290824843Y-88687364D01*
X290795701Y-88755652D01*
X290763463Y-88835126D01*
X290730430Y-88919789D01*
X290698904Y-89003647D01*
X290671186Y-89080704D01*
X290649577Y-89144964D01*
X290636379Y-89190432D01*
X290633893Y-89211112D01*
X290635555Y-89213795D01*
X290652765Y-89239744D01*
X290685130Y-89287605D01*
X290729650Y-89352970D01*
X290783323Y-89431430D01*
X290843149Y-89518575D01*
X290859567Y-89542552D01*
X290917303Y-89628555D01*
X290967200Y-89705471D01*
X291006409Y-89768737D01*
X291032083Y-89813792D01*
X291041374Y-89836075D01*
X291039372Y-89841933D01*
X291018503Y-89870801D01*
X290977331Y-89917940D01*
X290918803Y-89980180D01*
X290845867Y-90054347D01*
X290761473Y-90137268D01*
X290713234Y-90183681D01*
X290636962Y-90255968D01*
X290570205Y-90317884D01*
X290516546Y-90366171D01*
X290479570Y-90397567D01*
X290462863Y-90408814D01*
X290451385Y-90404644D01*
X290416045Y-90384923D01*
X290364723Y-90352670D01*
X290304113Y-90311971D01*
X290261020Y-90282271D01*
X290174987Y-90223290D01*
X290083179Y-90160650D01*
X289999323Y-90103729D01*
X289835053Y-89992619D01*
X289697160Y-90067176D01*
X289664690Y-90084385D01*
X289605642Y-90113820D01*
X289559979Y-90134143D01*
X289535574Y-90141720D01*
X289527588Y-90131990D01*
X289507756Y-90094939D01*
X289478462Y-90033853D01*
X289441338Y-89952609D01*
X289398013Y-89855083D01*
X289350118Y-89745151D01*
X289299281Y-89626692D01*
X289247133Y-89503581D01*
X289195304Y-89379695D01*
X289145424Y-89258910D01*
X289099123Y-89145104D01*
X289058031Y-89042153D01*
X289023778Y-88953933D01*
X288997993Y-88884322D01*
X288982308Y-88837196D01*
X288978351Y-88816432D01*
X288978619Y-88815825D01*
X288997050Y-88796630D01*
X289035602Y-88766566D01*
X289086316Y-88731869D01*
X289102324Y-88721274D01*
X289224125Y-88620758D01*
X289324929Y-88501037D01*
X289402351Y-88367094D01*
X289454004Y-88223913D01*
X289477500Y-88076476D01*
X289470454Y-87929767D01*
X289441910Y-87799280D01*
X289390659Y-87667517D01*
X289315945Y-87549966D01*
X289213414Y-87438302D01*
X289173127Y-87402629D01*
X289042889Y-87314740D01*
X288902197Y-87255548D01*
X288755127Y-87224525D01*
X288605758Y-87221139D01*
X288458167Y-87244862D01*
X288316429Y-87295164D01*
X288184623Y-87371515D01*
X288066826Y-87473385D01*
X287967114Y-87600244D01*
X287947943Y-87631660D01*
X287882783Y-87775252D01*
X287848177Y-87924777D01*
X287843218Y-88076365D01*
X287867001Y-88226142D01*
X287918619Y-88370236D01*
X287997166Y-88504775D01*
X288101736Y-88625885D01*
X288231422Y-88729694D01*
X288235634Y-88732492D01*
X288285810Y-88767850D01*
X288323417Y-88797913D01*
X288340594Y-88816432D01*
X288338426Y-88830950D01*
X288324951Y-88873225D01*
X288301058Y-88938746D01*
X288268375Y-89023637D01*
X288228533Y-89124019D01*
X288183160Y-89236017D01*
X288133887Y-89355751D01*
X288082341Y-89479344D01*
X288030154Y-89602919D01*
X287978953Y-89722599D01*
X287930368Y-89834505D01*
X287886030Y-89934760D01*
X287847566Y-90019487D01*
X287816606Y-90084807D01*
X287794779Y-90126844D01*
X287783716Y-90141720D01*
X287774516Y-90139706D01*
X287738371Y-90125226D01*
X287684951Y-90099838D01*
X287622131Y-90067176D01*
X287484238Y-89992619D01*
X287319968Y-90103729D01*
X287271436Y-90136630D01*
X287181166Y-90198105D01*
X287091171Y-90259678D01*
X287015177Y-90311971D01*
X286973237Y-90340469D01*
X286918726Y-90375876D01*
X286878309Y-90400115D01*
X286858568Y-90409102D01*
X286850087Y-90405286D01*
X286819429Y-90381916D01*
X286772168Y-90340770D01*
X286712416Y-90285895D01*
X286644288Y-90221337D01*
X286571896Y-90151145D01*
X286499356Y-90079366D01*
X286430780Y-90010046D01*
X286370282Y-89947233D01*
X286321976Y-89894974D01*
X286289976Y-89857317D01*
X286278395Y-89838308D01*
X286279063Y-89834691D01*
X286292847Y-89805253D01*
X286322292Y-89754322D01*
X286364553Y-89686498D01*
X286416785Y-89606383D01*
X286476142Y-89518575D01*
X286492789Y-89494356D01*
X286551244Y-89409128D01*
X286602733Y-89333781D01*
X286644256Y-89272723D01*
X286672811Y-89230364D01*
X286685398Y-89211112D01*
X286685707Y-89210287D01*
X286681993Y-89186733D01*
X286667807Y-89139019D01*
X286645451Y-89073139D01*
X286617227Y-88995090D01*
X286585435Y-88910867D01*
X286552378Y-88826465D01*
X286520356Y-88747881D01*
X286491671Y-88681110D01*
X286468623Y-88632146D01*
X286453515Y-88606987D01*
X286452002Y-88605425D01*
X286441185Y-88597523D01*
X286422915Y-88589554D01*
X286393556Y-88580701D01*
X286349470Y-88570147D01*
X286287018Y-88557075D01*
X286202564Y-88540668D01*
X286092469Y-88520108D01*
X285953095Y-88494579D01*
X285924187Y-88489206D01*
X285841377Y-88472597D01*
X285771718Y-88456860D01*
X285721812Y-88443558D01*
X285698259Y-88434253D01*
X285694319Y-88426490D01*
X285687750Y-88389202D01*
X285682544Y-88327385D01*
X285678706Y-88246832D01*
X285676239Y-88153335D01*
X285675147Y-88052686D01*
X285675435Y-87950677D01*
X285677107Y-87853099D01*
X285680165Y-87765745D01*
X285684615Y-87694407D01*
X285690460Y-87644877D01*
X285697704Y-87622946D01*
X285705101Y-87619706D01*
X285741896Y-87609493D01*
X285804091Y-87595049D01*
X285886723Y-87577449D01*
X285984828Y-87557770D01*
X286093444Y-87537090D01*
X286152750Y-87526041D01*
X286254398Y-87506881D01*
X286341890Y-87490104D01*
X286410549Y-87476621D01*
X286455693Y-87467344D01*
X286472644Y-87463186D01*
X286473281Y-87462329D01*
X286484077Y-87440553D01*
X286504657Y-87394931D01*
X286532449Y-87331518D01*
X286564882Y-87256367D01*
X286599382Y-87175530D01*
X286633378Y-87095059D01*
X286664297Y-87021009D01*
X286689566Y-86959432D01*
X286706615Y-86916381D01*
X286712869Y-86897910D01*
X286710110Y-86891410D01*
X286691750Y-86860482D01*
X286658446Y-86808423D01*
X286612874Y-86739319D01*
X286557711Y-86657253D01*
X286495632Y-86566312D01*
X286461573Y-86516508D01*
X286402797Y-86429191D01*
X286352403Y-86352558D01*
X286313080Y-86290791D01*
X286287514Y-86248066D01*
X286278395Y-86228565D01*
X286284732Y-86217987D01*
X286311237Y-86186379D01*
X286354720Y-86138543D01*
X286411189Y-86078533D01*
X286476653Y-86010402D01*
X286547121Y-85938205D01*
X286618601Y-85865993D01*
X286687100Y-85797822D01*
X286748629Y-85737743D01*
X286799194Y-85689811D01*
X286834805Y-85658080D01*
X286851470Y-85646602D01*
X286860720Y-85651065D01*
X286894689Y-85671762D01*
X286949505Y-85706987D01*
X287021218Y-85754156D01*
X287105878Y-85810691D01*
X287199535Y-85874008D01*
X287533959Y-86101414D01*
X288091487Y-85871582D01*
X288167036Y-85470836D01*
X288242585Y-85070089D01*
X289076706Y-85070089D01*
X289152254Y-85470836D01*
G37*
X289152254Y-85470836D02*
X289227803Y-85871582D01*
X289506567Y-85986498D01*
X289785332Y-86101414D01*
X290119756Y-85874008D01*
X290185946Y-85829177D01*
X290273693Y-85770331D01*
X290349663Y-85720070D01*
X290409911Y-85680975D01*
X290450491Y-85655625D01*
X290467457Y-85646602D01*
X290477877Y-85653019D01*
X290509025Y-85679907D01*
X290556161Y-85724034D01*
X290615293Y-85781347D01*
X290682426Y-85847795D01*
X290753566Y-85919325D01*
X290824719Y-85991886D01*
X290891892Y-86061427D01*
X290951090Y-86123895D01*
X290998319Y-86175238D01*
X291029586Y-86211405D01*
X291040895Y-86228343D01*
X291038264Y-86235621D01*
X291020048Y-86268084D01*
X290986782Y-86321509D01*
X290941164Y-86391709D01*
X290885890Y-86474496D01*
X290823658Y-86565681D01*
X290789506Y-86615412D01*
X290730757Y-86701991D01*
X290680388Y-86777551D01*
X290641086Y-86837993D01*
X290615535Y-86879221D01*
X290606422Y-86897136D01*
X290606571Y-86898129D01*
X290614611Y-86920840D01*
X290633054Y-86967215D01*
X290659331Y-87031197D01*
X290690871Y-87106728D01*
X290725102Y-87187749D01*
X290759454Y-87268203D01*
X290791355Y-87342032D01*
X290818235Y-87403178D01*
X290837522Y-87445582D01*
X290846646Y-87463186D01*
X290852045Y-87464748D01*
X290884846Y-87471791D01*
X290943306Y-87483459D01*
X291022746Y-87498840D01*
X291118486Y-87517020D01*
X291225846Y-87537090D01*
X291282431Y-87547731D01*
X291386289Y-87568033D01*
X291477097Y-87586782D01*
X291549891Y-87602902D01*
X291599708Y-87615316D01*
X291621586Y-87622946D01*
X291625516Y-87630510D01*
X291632034Y-87667469D01*
X291637156Y-87729025D01*
X291640884Y-87809387D01*
X291643223Y-87902763D01*
X291644177Y-88003361D01*
X291643749Y-88105388D01*
X291641945Y-88203053D01*
X291638766Y-88290564D01*
X291634219Y-88362129D01*
X291628306Y-88411956D01*
X291621031Y-88434253D01*
X291616617Y-88436768D01*
X291583694Y-88447556D01*
X291526582Y-88461829D01*
X291451882Y-88478024D01*
X291366196Y-88494579D01*
X291337285Y-88499852D01*
X291203755Y-88524373D01*
X291098813Y-88544081D01*
X291018820Y-88559791D01*
X290960139Y-88572322D01*
X290919132Y-88582489D01*
X290892161Y-88591111D01*
X290875588Y-88599005D01*
X290865775Y-88606987D01*
X290864635Y-88608327D01*
X290848588Y-88636257D01*
X290824843Y-88687364D01*
X290795701Y-88755652D01*
X290763463Y-88835126D01*
X290730430Y-88919789D01*
X290698904Y-89003647D01*
X290671186Y-89080704D01*
X290649577Y-89144964D01*
X290636379Y-89190432D01*
X290633893Y-89211112D01*
X290635555Y-89213795D01*
X290652765Y-89239744D01*
X290685130Y-89287605D01*
X290729650Y-89352970D01*
X290783323Y-89431430D01*
X290843149Y-89518575D01*
X290859567Y-89542552D01*
X290917303Y-89628555D01*
X290967200Y-89705471D01*
X291006409Y-89768737D01*
X291032083Y-89813792D01*
X291041374Y-89836075D01*
X291039372Y-89841933D01*
X291018503Y-89870801D01*
X290977331Y-89917940D01*
X290918803Y-89980180D01*
X290845867Y-90054347D01*
X290761473Y-90137268D01*
X290713234Y-90183681D01*
X290636962Y-90255968D01*
X290570205Y-90317884D01*
X290516546Y-90366171D01*
X290479570Y-90397567D01*
X290462863Y-90408814D01*
X290451385Y-90404644D01*
X290416045Y-90384923D01*
X290364723Y-90352670D01*
X290304113Y-90311971D01*
X290261020Y-90282271D01*
X290174987Y-90223290D01*
X290083179Y-90160650D01*
X289999323Y-90103729D01*
X289835053Y-89992619D01*
X289697160Y-90067176D01*
X289664690Y-90084385D01*
X289605642Y-90113820D01*
X289559979Y-90134143D01*
X289535574Y-90141720D01*
X289527588Y-90131990D01*
X289507756Y-90094939D01*
X289478462Y-90033853D01*
X289441338Y-89952609D01*
X289398013Y-89855083D01*
X289350118Y-89745151D01*
X289299281Y-89626692D01*
X289247133Y-89503581D01*
X289195304Y-89379695D01*
X289145424Y-89258910D01*
X289099123Y-89145104D01*
X289058031Y-89042153D01*
X289023778Y-88953933D01*
X288997993Y-88884322D01*
X288982308Y-88837196D01*
X288978351Y-88816432D01*
X288978619Y-88815825D01*
X288997050Y-88796630D01*
X289035602Y-88766566D01*
X289086316Y-88731869D01*
X289102324Y-88721274D01*
X289224125Y-88620758D01*
X289324929Y-88501037D01*
X289402351Y-88367094D01*
X289454004Y-88223913D01*
X289477500Y-88076476D01*
X289470454Y-87929767D01*
X289441910Y-87799280D01*
X289390659Y-87667517D01*
X289315945Y-87549966D01*
X289213414Y-87438302D01*
X289173127Y-87402629D01*
X289042889Y-87314740D01*
X288902197Y-87255548D01*
X288755127Y-87224525D01*
X288605758Y-87221139D01*
X288458167Y-87244862D01*
X288316429Y-87295164D01*
X288184623Y-87371515D01*
X288066826Y-87473385D01*
X287967114Y-87600244D01*
X287947943Y-87631660D01*
X287882783Y-87775252D01*
X287848177Y-87924777D01*
X287843218Y-88076365D01*
X287867001Y-88226142D01*
X287918619Y-88370236D01*
X287997166Y-88504775D01*
X288101736Y-88625885D01*
X288231422Y-88729694D01*
X288235634Y-88732492D01*
X288285810Y-88767850D01*
X288323417Y-88797913D01*
X288340594Y-88816432D01*
X288338426Y-88830950D01*
X288324951Y-88873225D01*
X288301058Y-88938746D01*
X288268375Y-89023637D01*
X288228533Y-89124019D01*
X288183160Y-89236017D01*
X288133887Y-89355751D01*
X288082341Y-89479344D01*
X288030154Y-89602919D01*
X287978953Y-89722599D01*
X287930368Y-89834505D01*
X287886030Y-89934760D01*
X287847566Y-90019487D01*
X287816606Y-90084807D01*
X287794779Y-90126844D01*
X287783716Y-90141720D01*
X287774516Y-90139706D01*
X287738371Y-90125226D01*
X287684951Y-90099838D01*
X287622131Y-90067176D01*
X287484238Y-89992619D01*
X287319968Y-90103729D01*
X287271436Y-90136630D01*
X287181166Y-90198105D01*
X287091171Y-90259678D01*
X287015177Y-90311971D01*
X286973237Y-90340469D01*
X286918726Y-90375876D01*
X286878309Y-90400115D01*
X286858568Y-90409102D01*
X286850087Y-90405286D01*
X286819429Y-90381916D01*
X286772168Y-90340770D01*
X286712416Y-90285895D01*
X286644288Y-90221337D01*
X286571896Y-90151145D01*
X286499356Y-90079366D01*
X286430780Y-90010046D01*
X286370282Y-89947233D01*
X286321976Y-89894974D01*
X286289976Y-89857317D01*
X286278395Y-89838308D01*
X286279063Y-89834691D01*
X286292847Y-89805253D01*
X286322292Y-89754322D01*
X286364553Y-89686498D01*
X286416785Y-89606383D01*
X286476142Y-89518575D01*
X286492789Y-89494356D01*
X286551244Y-89409128D01*
X286602733Y-89333781D01*
X286644256Y-89272723D01*
X286672811Y-89230364D01*
X286685398Y-89211112D01*
X286685707Y-89210287D01*
X286681993Y-89186733D01*
X286667807Y-89139019D01*
X286645451Y-89073139D01*
X286617227Y-88995090D01*
X286585435Y-88910867D01*
X286552378Y-88826465D01*
X286520356Y-88747881D01*
X286491671Y-88681110D01*
X286468623Y-88632146D01*
X286453515Y-88606987D01*
X286452002Y-88605425D01*
X286441185Y-88597523D01*
X286422915Y-88589554D01*
X286393556Y-88580701D01*
X286349470Y-88570147D01*
X286287018Y-88557075D01*
X286202564Y-88540668D01*
X286092469Y-88520108D01*
X285953095Y-88494579D01*
X285924187Y-88489206D01*
X285841377Y-88472597D01*
X285771718Y-88456860D01*
X285721812Y-88443558D01*
X285698259Y-88434253D01*
X285694319Y-88426490D01*
X285687750Y-88389202D01*
X285682544Y-88327385D01*
X285678706Y-88246832D01*
X285676239Y-88153335D01*
X285675147Y-88052686D01*
X285675435Y-87950677D01*
X285677107Y-87853099D01*
X285680165Y-87765745D01*
X285684615Y-87694407D01*
X285690460Y-87644877D01*
X285697704Y-87622946D01*
X285705101Y-87619706D01*
X285741896Y-87609493D01*
X285804091Y-87595049D01*
X285886723Y-87577449D01*
X285984828Y-87557770D01*
X286093444Y-87537090D01*
X286152750Y-87526041D01*
X286254398Y-87506881D01*
X286341890Y-87490104D01*
X286410549Y-87476621D01*
X286455693Y-87467344D01*
X286472644Y-87463186D01*
X286473281Y-87462329D01*
X286484077Y-87440553D01*
X286504657Y-87394931D01*
X286532449Y-87331518D01*
X286564882Y-87256367D01*
X286599382Y-87175530D01*
X286633378Y-87095059D01*
X286664297Y-87021009D01*
X286689566Y-86959432D01*
X286706615Y-86916381D01*
X286712869Y-86897910D01*
X286710110Y-86891410D01*
X286691750Y-86860482D01*
X286658446Y-86808423D01*
X286612874Y-86739319D01*
X286557711Y-86657253D01*
X286495632Y-86566312D01*
X286461573Y-86516508D01*
X286402797Y-86429191D01*
X286352403Y-86352558D01*
X286313080Y-86290791D01*
X286287514Y-86248066D01*
X286278395Y-86228565D01*
X286284732Y-86217987D01*
X286311237Y-86186379D01*
X286354720Y-86138543D01*
X286411189Y-86078533D01*
X286476653Y-86010402D01*
X286547121Y-85938205D01*
X286618601Y-85865993D01*
X286687100Y-85797822D01*
X286748629Y-85737743D01*
X286799194Y-85689811D01*
X286834805Y-85658080D01*
X286851470Y-85646602D01*
X286860720Y-85651065D01*
X286894689Y-85671762D01*
X286949505Y-85706987D01*
X287021218Y-85754156D01*
X287105878Y-85810691D01*
X287199535Y-85874008D01*
X287533959Y-86101414D01*
X288091487Y-85871582D01*
X288167036Y-85470836D01*
X288242585Y-85070089D01*
X289076706Y-85070089D01*
X289152254Y-85470836D01*
X285109216Y-91007814D02*
X285066426Y-91018209D01*
X285066426Y-91018209D02*
X284984391Y-91056273D01*
X284984391Y-91056273D02*
X284914243Y-91114409D01*
X284914243Y-91114409D02*
X284865695Y-91184112D01*
X284865695Y-91184112D02*
X284859025Y-91199762D01*
X284859025Y-91199762D02*
X284849876Y-91240756D01*
X284849876Y-91240756D02*
X284843471Y-91301398D01*
X284843471Y-91301398D02*
X284841290Y-91362690D01*
X284841290Y-91362690D02*
X284841290Y-91478576D01*
X284841290Y-91478576D02*
X285083593Y-91478576D01*
X285083593Y-91478576D02*
X285183529Y-91478953D01*
X285183529Y-91478953D02*
X285253931Y-91481247D01*
X285253931Y-91481247D02*
X285298687Y-91487198D01*
X285298687Y-91487198D02*
X285321685Y-91498545D01*
X285321685Y-91498545D02*
X285326811Y-91517031D01*
X285326811Y-91517031D02*
X285317952Y-91544396D01*
X285317952Y-91544396D02*
X285302083Y-91576415D01*
X285302083Y-91576415D02*
X285257816Y-91629852D01*
X285257816Y-91629852D02*
X285196301Y-91656475D01*
X285196301Y-91656475D02*
X285121115Y-91655607D01*
X285121115Y-91655607D02*
X285035947Y-91626631D01*
X285035947Y-91626631D02*
X284962341Y-91590871D01*
X284962341Y-91590871D02*
X284901266Y-91639164D01*
X284901266Y-91639164D02*
X284840190Y-91687457D01*
X284840190Y-91687457D02*
X284897649Y-91740545D01*
X284897649Y-91740545D02*
X284974359Y-91790705D01*
X284974359Y-91790705D02*
X285068698Y-91820948D01*
X285068698Y-91820948D02*
X285170173Y-91829411D01*
X285170173Y-91829411D02*
X285268289Y-91814234D01*
X285268289Y-91814234D02*
X285284119Y-91809084D01*
X285284119Y-91809084D02*
X285370353Y-91764051D01*
X285370353Y-91764051D02*
X285434499Y-91696912D01*
X285434499Y-91696912D02*
X285477909Y-91605665D01*
X285477909Y-91605665D02*
X285501936Y-91488304D01*
X285501936Y-91488304D02*
X285502216Y-91485789D01*
X285502216Y-91485789D02*
X285504367Y-91357887D01*
X285504367Y-91357887D02*
X285495671Y-91312257D01*
X285495671Y-91312257D02*
X285325895Y-91312257D01*
X285325895Y-91312257D02*
X285310303Y-91319273D01*
X285310303Y-91319273D02*
X285267971Y-91324648D01*
X285267971Y-91324648D02*
X285205566Y-91327717D01*
X285205566Y-91327717D02*
X285166019Y-91328181D01*
X285166019Y-91328181D02*
X285092272Y-91327890D01*
X285092272Y-91327890D02*
X285046160Y-91326043D01*
X285046160Y-91326043D02*
X285021900Y-91321172D01*
X285021900Y-91321172D02*
X285013706Y-91311815D01*
X285013706Y-91311815D02*
X285015794Y-91296505D01*
X285015794Y-91296505D02*
X285017545Y-91290582D01*
X285017545Y-91290582D02*
X285047440Y-91234928D01*
X285047440Y-91234928D02*
X285094458Y-91190075D01*
X285094458Y-91190075D02*
X285135951Y-91170365D01*
X285135951Y-91170365D02*
X285191074Y-91171555D01*
X285191074Y-91171555D02*
X285246932Y-91196135D01*
X285246932Y-91196135D02*
X285293788Y-91236830D01*
X285293788Y-91236830D02*
X285321906Y-91286368D01*
X285321906Y-91286368D02*
X285325895Y-91312257D01*
X285325895Y-91312257D02*
X285495671Y-91312257D01*
X285495671Y-91312257D02*
X285482926Y-91245393D01*
X285482926Y-91245393D02*
X285440389Y-91150987D01*
X285440389Y-91150987D02*
X285379253Y-91077348D01*
X285379253Y-91077348D02*
X285302015Y-91027153D01*
X285302015Y-91027153D02*
X285211170Y-91003082D01*
X285211170Y-91003082D02*
X285109216Y-91007814D01*
X285109216Y-91007814D02*
X285109216Y-91007814D01*
G36*
X285502216Y-91485789D02*
G01*
X285501936Y-91488304D01*
X285477909Y-91605665D01*
X285434499Y-91696912D01*
X285370353Y-91764051D01*
X285284119Y-91809084D01*
X285268289Y-91814234D01*
X285170173Y-91829411D01*
X285068698Y-91820948D01*
X284974359Y-91790705D01*
X284897649Y-91740545D01*
X284840190Y-91687457D01*
X284901266Y-91639164D01*
X284962341Y-91590871D01*
X285035947Y-91626631D01*
X285121115Y-91655607D01*
X285196301Y-91656475D01*
X285257816Y-91629852D01*
X285302083Y-91576415D01*
X285317952Y-91544396D01*
X285326811Y-91517031D01*
X285321685Y-91498545D01*
X285298687Y-91487198D01*
X285253931Y-91481247D01*
X285183529Y-91478953D01*
X285083593Y-91478576D01*
X284841290Y-91478576D01*
X284841290Y-91362690D01*
X284843100Y-91311815D01*
X285013706Y-91311815D01*
X285021900Y-91321172D01*
X285046160Y-91326043D01*
X285092272Y-91327890D01*
X285166019Y-91328181D01*
X285205566Y-91327717D01*
X285267971Y-91324648D01*
X285310303Y-91319273D01*
X285325895Y-91312257D01*
X285321906Y-91286368D01*
X285293788Y-91236830D01*
X285246932Y-91196135D01*
X285191074Y-91171555D01*
X285135951Y-91170365D01*
X285094458Y-91190075D01*
X285047440Y-91234928D01*
X285017545Y-91290582D01*
X285015794Y-91296505D01*
X285013706Y-91311815D01*
X284843100Y-91311815D01*
X284843471Y-91301398D01*
X284849876Y-91240756D01*
X284859025Y-91199762D01*
X284865695Y-91184112D01*
X284914243Y-91114409D01*
X284984391Y-91056273D01*
X285066426Y-91018209D01*
X285109216Y-91007814D01*
X285211170Y-91003082D01*
X285302015Y-91027153D01*
X285379253Y-91077348D01*
X285440389Y-91150987D01*
X285482926Y-91245393D01*
X285495671Y-91312257D01*
X285504367Y-91357887D01*
X285502216Y-91485789D01*
G37*
X285502216Y-91485789D02*
X285501936Y-91488304D01*
X285477909Y-91605665D01*
X285434499Y-91696912D01*
X285370353Y-91764051D01*
X285284119Y-91809084D01*
X285268289Y-91814234D01*
X285170173Y-91829411D01*
X285068698Y-91820948D01*
X284974359Y-91790705D01*
X284897649Y-91740545D01*
X284840190Y-91687457D01*
X284901266Y-91639164D01*
X284962341Y-91590871D01*
X285035947Y-91626631D01*
X285121115Y-91655607D01*
X285196301Y-91656475D01*
X285257816Y-91629852D01*
X285302083Y-91576415D01*
X285317952Y-91544396D01*
X285326811Y-91517031D01*
X285321685Y-91498545D01*
X285298687Y-91487198D01*
X285253931Y-91481247D01*
X285183529Y-91478953D01*
X285083593Y-91478576D01*
X284841290Y-91478576D01*
X284841290Y-91362690D01*
X284843100Y-91311815D01*
X285013706Y-91311815D01*
X285021900Y-91321172D01*
X285046160Y-91326043D01*
X285092272Y-91327890D01*
X285166019Y-91328181D01*
X285205566Y-91327717D01*
X285267971Y-91324648D01*
X285310303Y-91319273D01*
X285325895Y-91312257D01*
X285321906Y-91286368D01*
X285293788Y-91236830D01*
X285246932Y-91196135D01*
X285191074Y-91171555D01*
X285135951Y-91170365D01*
X285094458Y-91190075D01*
X285047440Y-91234928D01*
X285017545Y-91290582D01*
X285015794Y-91296505D01*
X285013706Y-91311815D01*
X284843100Y-91311815D01*
X284843471Y-91301398D01*
X284849876Y-91240756D01*
X284859025Y-91199762D01*
X284865695Y-91184112D01*
X284914243Y-91114409D01*
X284984391Y-91056273D01*
X285066426Y-91018209D01*
X285109216Y-91007814D01*
X285211170Y-91003082D01*
X285302015Y-91027153D01*
X285379253Y-91077348D01*
X285440389Y-91150987D01*
X285482926Y-91245393D01*
X285495671Y-91312257D01*
X285504367Y-91357887D01*
X285502216Y-91485789D01*
X287856331Y-91020570D02*
X287771808Y-91066600D01*
X287771808Y-91066600D02*
X287705679Y-91139266D01*
X287705679Y-91139266D02*
X287674522Y-91198366D01*
X287674522Y-91198366D02*
X287661145Y-91250565D01*
X287661145Y-91250565D02*
X287652478Y-91324979D01*
X287652478Y-91324979D02*
X287648763Y-91410702D01*
X287648763Y-91410702D02*
X287650246Y-91496829D01*
X287650246Y-91496829D02*
X287657169Y-91572453D01*
X287657169Y-91572453D02*
X287665255Y-91612844D01*
X287665255Y-91612844D02*
X287692535Y-91668100D01*
X287692535Y-91668100D02*
X287739780Y-91726790D01*
X287739780Y-91726790D02*
X287796718Y-91778112D01*
X287796718Y-91778112D02*
X287853076Y-91811265D01*
X287853076Y-91811265D02*
X287854450Y-91811791D01*
X287854450Y-91811791D02*
X287924384Y-91826278D01*
X287924384Y-91826278D02*
X288007263Y-91826637D01*
X288007263Y-91826637D02*
X288086023Y-91813448D01*
X288086023Y-91813448D02*
X288116434Y-91802877D01*
X288116434Y-91802877D02*
X288194761Y-91758461D01*
X288194761Y-91758461D02*
X288250857Y-91700267D01*
X288250857Y-91700267D02*
X288287714Y-91623225D01*
X288287714Y-91623225D02*
X288308320Y-91522261D01*
X288308320Y-91522261D02*
X288312982Y-91469376D01*
X288312982Y-91469376D02*
X288312387Y-91402923D01*
X288312387Y-91402923D02*
X288133264Y-91402923D01*
X288133264Y-91402923D02*
X288127230Y-91499890D01*
X288127230Y-91499890D02*
X288109862Y-91573783D01*
X288109862Y-91573783D02*
X288082260Y-91620996D01*
X288082260Y-91620996D02*
X288062596Y-91634497D01*
X288062596Y-91634497D02*
X288012213Y-91643911D01*
X288012213Y-91643911D02*
X287952327Y-91641124D01*
X287952327Y-91641124D02*
X287900551Y-91627576D01*
X287900551Y-91627576D02*
X287886973Y-91620122D01*
X287886973Y-91620122D02*
X287851151Y-91576711D01*
X287851151Y-91576711D02*
X287827507Y-91510274D01*
X287827507Y-91510274D02*
X287817442Y-91429421D01*
X287817442Y-91429421D02*
X287822358Y-91342762D01*
X287822358Y-91342762D02*
X287833345Y-91290609D01*
X287833345Y-91290609D02*
X287864891Y-91230211D01*
X287864891Y-91230211D02*
X287914689Y-91192457D01*
X287914689Y-91192457D02*
X287974663Y-91179403D01*
X287974663Y-91179403D02*
X288036736Y-91193109D01*
X288036736Y-91193109D02*
X288084418Y-91226632D01*
X288084418Y-91226632D02*
X288109475Y-91254291D01*
X288109475Y-91254291D02*
X288124100Y-91281554D01*
X288124100Y-91281554D02*
X288131071Y-91318450D01*
X288131071Y-91318450D02*
X288133167Y-91375010D01*
X288133167Y-91375010D02*
X288133264Y-91402923D01*
X288133264Y-91402923D02*
X288312387Y-91402923D01*
X288312387Y-91402923D02*
X288311718Y-91328254D01*
X288311718Y-91328254D02*
X288288735Y-91212531D01*
X288288735Y-91212531D02*
X288244028Y-91122201D01*
X288244028Y-91122201D02*
X288177595Y-91057260D01*
X288177595Y-91057260D02*
X288089435Y-91017705D01*
X288089435Y-91017705D02*
X288070505Y-91013118D01*
X288070505Y-91013118D02*
X287956734Y-91002350D01*
X287956734Y-91002350D02*
X287856331Y-91020570D01*
X287856331Y-91020570D02*
X287856331Y-91020570D01*
G36*
X288308320Y-91522261D02*
G01*
X288287714Y-91623225D01*
X288250857Y-91700267D01*
X288194761Y-91758461D01*
X288116434Y-91802877D01*
X288086023Y-91813448D01*
X288007263Y-91826637D01*
X287924384Y-91826278D01*
X287854450Y-91811791D01*
X287853076Y-91811265D01*
X287796718Y-91778112D01*
X287739780Y-91726790D01*
X287692535Y-91668100D01*
X287665255Y-91612844D01*
X287657169Y-91572453D01*
X287650246Y-91496829D01*
X287649085Y-91429421D01*
X287817442Y-91429421D01*
X287827507Y-91510274D01*
X287851151Y-91576711D01*
X287886973Y-91620122D01*
X287900551Y-91627576D01*
X287952327Y-91641124D01*
X288012213Y-91643911D01*
X288062596Y-91634497D01*
X288082260Y-91620996D01*
X288109862Y-91573783D01*
X288127230Y-91499890D01*
X288133264Y-91402923D01*
X288133167Y-91375010D01*
X288131071Y-91318450D01*
X288124100Y-91281554D01*
X288109475Y-91254291D01*
X288084418Y-91226632D01*
X288036736Y-91193109D01*
X287974663Y-91179403D01*
X287914689Y-91192457D01*
X287864891Y-91230211D01*
X287833345Y-91290609D01*
X287822358Y-91342762D01*
X287817442Y-91429421D01*
X287649085Y-91429421D01*
X287648763Y-91410702D01*
X287652478Y-91324979D01*
X287661145Y-91250565D01*
X287674522Y-91198366D01*
X287705679Y-91139266D01*
X287771808Y-91066600D01*
X287856331Y-91020570D01*
X287956734Y-91002350D01*
X288070505Y-91013118D01*
X288089435Y-91017705D01*
X288177595Y-91057260D01*
X288244028Y-91122201D01*
X288288735Y-91212531D01*
X288311718Y-91328254D01*
X288312387Y-91402923D01*
X288312982Y-91469376D01*
X288308320Y-91522261D01*
G37*
X288308320Y-91522261D02*
X288287714Y-91623225D01*
X288250857Y-91700267D01*
X288194761Y-91758461D01*
X288116434Y-91802877D01*
X288086023Y-91813448D01*
X288007263Y-91826637D01*
X287924384Y-91826278D01*
X287854450Y-91811791D01*
X287853076Y-91811265D01*
X287796718Y-91778112D01*
X287739780Y-91726790D01*
X287692535Y-91668100D01*
X287665255Y-91612844D01*
X287657169Y-91572453D01*
X287650246Y-91496829D01*
X287649085Y-91429421D01*
X287817442Y-91429421D01*
X287827507Y-91510274D01*
X287851151Y-91576711D01*
X287886973Y-91620122D01*
X287900551Y-91627576D01*
X287952327Y-91641124D01*
X288012213Y-91643911D01*
X288062596Y-91634497D01*
X288082260Y-91620996D01*
X288109862Y-91573783D01*
X288127230Y-91499890D01*
X288133264Y-91402923D01*
X288133167Y-91375010D01*
X288131071Y-91318450D01*
X288124100Y-91281554D01*
X288109475Y-91254291D01*
X288084418Y-91226632D01*
X288036736Y-91193109D01*
X287974663Y-91179403D01*
X287914689Y-91192457D01*
X287864891Y-91230211D01*
X287833345Y-91290609D01*
X287822358Y-91342762D01*
X287817442Y-91429421D01*
X287649085Y-91429421D01*
X287648763Y-91410702D01*
X287652478Y-91324979D01*
X287661145Y-91250565D01*
X287674522Y-91198366D01*
X287705679Y-91139266D01*
X287771808Y-91066600D01*
X287856331Y-91020570D01*
X287956734Y-91002350D01*
X288070505Y-91013118D01*
X288089435Y-91017705D01*
X288177595Y-91057260D01*
X288244028Y-91122201D01*
X288288735Y-91212531D01*
X288311718Y-91328254D01*
X288312387Y-91402923D01*
X288312982Y-91469376D01*
X288308320Y-91522261D01*
X291204640Y-91024728D02*
X291169408Y-91042134D01*
X291169408Y-91042134D02*
X291125960Y-91072466D01*
X291125960Y-91072466D02*
X291094294Y-91105543D01*
X291094294Y-91105543D02*
X291072606Y-91147077D01*
X291072606Y-91147077D02*
X291059097Y-91202782D01*
X291059097Y-91202782D02*
X291051962Y-91278371D01*
X291051962Y-91278371D02*
X291049400Y-91379556D01*
X291049400Y-91379556D02*
X291049250Y-91423057D01*
X291049250Y-91423057D02*
X291049688Y-91518395D01*
X291049688Y-91518395D02*
X291051504Y-91586531D01*
X291051504Y-91586531D02*
X291055455Y-91633678D01*
X291055455Y-91633678D02*
X291062298Y-91666050D01*
X291062298Y-91666050D02*
X291072789Y-91689860D01*
X291072789Y-91689860D02*
X291083704Y-91706103D01*
X291083704Y-91706103D02*
X291153381Y-91775212D01*
X291153381Y-91775212D02*
X291235434Y-91816781D01*
X291235434Y-91816781D02*
X291323950Y-91829283D01*
X291323950Y-91829283D02*
X291413019Y-91811194D01*
X291413019Y-91811194D02*
X291441237Y-91798402D01*
X291441237Y-91798402D02*
X291508790Y-91763191D01*
X291508790Y-91763191D02*
X291508790Y-92314960D01*
X291508790Y-92314960D02*
X291459488Y-92289465D01*
X291459488Y-92289465D02*
X291394527Y-92269740D01*
X291394527Y-92269740D02*
X291314680Y-92264687D01*
X291314680Y-92264687D02*
X291234948Y-92274016D01*
X291234948Y-92274016D02*
X291174735Y-92294974D01*
X291174735Y-92294974D02*
X291124792Y-92334887D01*
X291124792Y-92334887D02*
X291082119Y-92392001D01*
X291082119Y-92392001D02*
X291078910Y-92397865D01*
X291078910Y-92397865D02*
X291065378Y-92425487D01*
X291065378Y-92425487D02*
X291055495Y-92453328D01*
X291055495Y-92453328D02*
X291048691Y-92487054D01*
X291048691Y-92487054D02*
X291044399Y-92532331D01*
X291044399Y-92532331D02*
X291042049Y-92594822D01*
X291042049Y-92594822D02*
X291041072Y-92680195D01*
X291041072Y-92680195D02*
X291040895Y-92776270D01*
X291040895Y-92776270D02*
X291040895Y-93082786D01*
X291040895Y-93082786D02*
X291224711Y-93082786D01*
X291224711Y-93082786D02*
X291224711Y-92517599D01*
X291224711Y-92517599D02*
X291276125Y-92474337D01*
X291276125Y-92474337D02*
X291329534Y-92439732D01*
X291329534Y-92439732D02*
X291380112Y-92433440D01*
X291380112Y-92433440D02*
X291430970Y-92449632D01*
X291430970Y-92449632D02*
X291458075Y-92465487D01*
X291458075Y-92465487D02*
X291478249Y-92488070D01*
X291478249Y-92488070D02*
X291492597Y-92522200D01*
X291492597Y-92522200D02*
X291502224Y-92572694D01*
X291502224Y-92572694D02*
X291508237Y-92644371D01*
X291508237Y-92644371D02*
X291511740Y-92742048D01*
X291511740Y-92742048D02*
X291512974Y-92807062D01*
X291512974Y-92807062D02*
X291517145Y-93074431D01*
X291517145Y-93074431D02*
X291604875Y-93079482D01*
X291604875Y-93079482D02*
X291692606Y-93084533D01*
X291692606Y-93084533D02*
X291692606Y-91425361D01*
X291692606Y-91425361D02*
X291508790Y-91425361D01*
X291508790Y-91425361D02*
X291504104Y-91517860D01*
X291504104Y-91517860D02*
X291488312Y-91582069D01*
X291488312Y-91582069D02*
X291458817Y-91622019D01*
X291458817Y-91622019D02*
X291413020Y-91641740D01*
X291413020Y-91641740D02*
X291366750Y-91645681D01*
X291366750Y-91645681D02*
X291314372Y-91641152D01*
X291314372Y-91641152D02*
X291279610Y-91623329D01*
X291279610Y-91623329D02*
X291257872Y-91599779D01*
X291257872Y-91599779D02*
X291240760Y-91574449D01*
X291240760Y-91574449D02*
X291230573Y-91546229D01*
X291230573Y-91546229D02*
X291226040Y-91506691D01*
X291226040Y-91506691D02*
X291225891Y-91447402D01*
X291225891Y-91447402D02*
X291227416Y-91397758D01*
X291227416Y-91397758D02*
X291230919Y-91322970D01*
X291230919Y-91322970D02*
X291236133Y-91273871D01*
X291236133Y-91273871D02*
X291244913Y-91242727D01*
X291244913Y-91242727D02*
X291259114Y-91221805D01*
X291259114Y-91221805D02*
X291272516Y-91209712D01*
X291272516Y-91209712D02*
X291328513Y-91183341D01*
X291328513Y-91183341D02*
X291394789Y-91179082D01*
X291394789Y-91179082D02*
X291432844Y-91188166D01*
X291432844Y-91188166D02*
X291470523Y-91220456D01*
X291470523Y-91220456D02*
X291495481Y-91283266D01*
X291495481Y-91283266D02*
X291507578Y-91376154D01*
X291507578Y-91376154D02*
X291508790Y-91425361D01*
X291508790Y-91425361D02*
X291692606Y-91425361D01*
X291692606Y-91425361D02*
X291692606Y-91010681D01*
X291692606Y-91010681D02*
X291600698Y-91010681D01*
X291600698Y-91010681D02*
X291545517Y-91012863D01*
X291545517Y-91012863D02*
X291517048Y-91020611D01*
X291517048Y-91020611D02*
X291508794Y-91035728D01*
X291508794Y-91035728D02*
X291508790Y-91036176D01*
X291508790Y-91036176D02*
X291504960Y-91050980D01*
X291504960Y-91050980D02*
X291488067Y-91049299D01*
X291488067Y-91049299D02*
X291454481Y-91033032D01*
X291454481Y-91033032D02*
X291376222Y-91008147D01*
X291376222Y-91008147D02*
X291288173Y-91005531D01*
X291288173Y-91005531D02*
X291204640Y-91024728D01*
X291204640Y-91024728D02*
X291204640Y-91024728D01*
G36*
X291604875Y-93079482D02*
G01*
X291517145Y-93074431D01*
X291512974Y-92807062D01*
X291511740Y-92742048D01*
X291508237Y-92644371D01*
X291502224Y-92572694D01*
X291492597Y-92522200D01*
X291478249Y-92488070D01*
X291458075Y-92465487D01*
X291430970Y-92449632D01*
X291380112Y-92433440D01*
X291329534Y-92439732D01*
X291276125Y-92474337D01*
X291224711Y-92517599D01*
X291224711Y-93082786D01*
X291040895Y-93082786D01*
X291040895Y-92776270D01*
X291041072Y-92680195D01*
X291042049Y-92594822D01*
X291044399Y-92532331D01*
X291048691Y-92487054D01*
X291055495Y-92453328D01*
X291065378Y-92425487D01*
X291078910Y-92397865D01*
X291082119Y-92392001D01*
X291124792Y-92334887D01*
X291174735Y-92294974D01*
X291234948Y-92274016D01*
X291314680Y-92264687D01*
X291394527Y-92269740D01*
X291459488Y-92289465D01*
X291508790Y-92314960D01*
X291508790Y-91763191D01*
X291441237Y-91798402D01*
X291413019Y-91811194D01*
X291323950Y-91829283D01*
X291235434Y-91816781D01*
X291153381Y-91775212D01*
X291083704Y-91706103D01*
X291072789Y-91689860D01*
X291062298Y-91666050D01*
X291055455Y-91633678D01*
X291051504Y-91586531D01*
X291049688Y-91518395D01*
X291049362Y-91447402D01*
X291225891Y-91447402D01*
X291226040Y-91506691D01*
X291230573Y-91546229D01*
X291240760Y-91574449D01*
X291257872Y-91599779D01*
X291279610Y-91623329D01*
X291314372Y-91641152D01*
X291366750Y-91645681D01*
X291413020Y-91641740D01*
X291458817Y-91622019D01*
X291488312Y-91582069D01*
X291504104Y-91517860D01*
X291508790Y-91425361D01*
X291507578Y-91376154D01*
X291495481Y-91283266D01*
X291470523Y-91220456D01*
X291432844Y-91188166D01*
X291394789Y-91179082D01*
X291328513Y-91183341D01*
X291272516Y-91209712D01*
X291259114Y-91221805D01*
X291244913Y-91242727D01*
X291236133Y-91273871D01*
X291230919Y-91322970D01*
X291227416Y-91397758D01*
X291225891Y-91447402D01*
X291049362Y-91447402D01*
X291049250Y-91423057D01*
X291049400Y-91379556D01*
X291051962Y-91278371D01*
X291059097Y-91202782D01*
X291072606Y-91147077D01*
X291094294Y-91105543D01*
X291125960Y-91072466D01*
X291169408Y-91042134D01*
X291204640Y-91024728D01*
X291288173Y-91005531D01*
X291376222Y-91008147D01*
X291454481Y-91033032D01*
X291488067Y-91049299D01*
X291504960Y-91050980D01*
X291508790Y-91036176D01*
X291508794Y-91035728D01*
X291517048Y-91020611D01*
X291545517Y-91012863D01*
X291600698Y-91010681D01*
X291692606Y-91010681D01*
X291692606Y-93084533D01*
X291604875Y-93079482D01*
G37*
X291604875Y-93079482D02*
X291517145Y-93074431D01*
X291512974Y-92807062D01*
X291511740Y-92742048D01*
X291508237Y-92644371D01*
X291502224Y-92572694D01*
X291492597Y-92522200D01*
X291478249Y-92488070D01*
X291458075Y-92465487D01*
X291430970Y-92449632D01*
X291380112Y-92433440D01*
X291329534Y-92439732D01*
X291276125Y-92474337D01*
X291224711Y-92517599D01*
X291224711Y-93082786D01*
X291040895Y-93082786D01*
X291040895Y-92776270D01*
X291041072Y-92680195D01*
X291042049Y-92594822D01*
X291044399Y-92532331D01*
X291048691Y-92487054D01*
X291055495Y-92453328D01*
X291065378Y-92425487D01*
X291078910Y-92397865D01*
X291082119Y-92392001D01*
X291124792Y-92334887D01*
X291174735Y-92294974D01*
X291234948Y-92274016D01*
X291314680Y-92264687D01*
X291394527Y-92269740D01*
X291459488Y-92289465D01*
X291508790Y-92314960D01*
X291508790Y-91763191D01*
X291441237Y-91798402D01*
X291413019Y-91811194D01*
X291323950Y-91829283D01*
X291235434Y-91816781D01*
X291153381Y-91775212D01*
X291083704Y-91706103D01*
X291072789Y-91689860D01*
X291062298Y-91666050D01*
X291055455Y-91633678D01*
X291051504Y-91586531D01*
X291049688Y-91518395D01*
X291049362Y-91447402D01*
X291225891Y-91447402D01*
X291226040Y-91506691D01*
X291230573Y-91546229D01*
X291240760Y-91574449D01*
X291257872Y-91599779D01*
X291279610Y-91623329D01*
X291314372Y-91641152D01*
X291366750Y-91645681D01*
X291413020Y-91641740D01*
X291458817Y-91622019D01*
X291488312Y-91582069D01*
X291504104Y-91517860D01*
X291508790Y-91425361D01*
X291507578Y-91376154D01*
X291495481Y-91283266D01*
X291470523Y-91220456D01*
X291432844Y-91188166D01*
X291394789Y-91179082D01*
X291328513Y-91183341D01*
X291272516Y-91209712D01*
X291259114Y-91221805D01*
X291244913Y-91242727D01*
X291236133Y-91273871D01*
X291230919Y-91322970D01*
X291227416Y-91397758D01*
X291225891Y-91447402D01*
X291049362Y-91447402D01*
X291049250Y-91423057D01*
X291049400Y-91379556D01*
X291051962Y-91278371D01*
X291059097Y-91202782D01*
X291072606Y-91147077D01*
X291094294Y-91105543D01*
X291125960Y-91072466D01*
X291169408Y-91042134D01*
X291204640Y-91024728D01*
X291288173Y-91005531D01*
X291376222Y-91008147D01*
X291454481Y-91033032D01*
X291488067Y-91049299D01*
X291504960Y-91050980D01*
X291508790Y-91036176D01*
X291508794Y-91035728D01*
X291517048Y-91020611D01*
X291545517Y-91012863D01*
X291600698Y-91010681D01*
X291692606Y-91010681D01*
X291692606Y-93084533D01*
X291604875Y-93079482D01*
X287288008Y-92268933D02*
X287217573Y-92286040D01*
X287217573Y-92286040D02*
X287197213Y-92295104D01*
X287197213Y-92295104D02*
X287157747Y-92318843D01*
X287157747Y-92318843D02*
X287127459Y-92345581D01*
X287127459Y-92345581D02*
X287105048Y-92379959D01*
X287105048Y-92379959D02*
X287089214Y-92426620D01*
X287089214Y-92426620D02*
X287078657Y-92490206D01*
X287078657Y-92490206D02*
X287072076Y-92575359D01*
X287072076Y-92575359D02*
X287068172Y-92686722D01*
X287068172Y-92686722D02*
X287066690Y-92761109D01*
X287066690Y-92761109D02*
X287061235Y-93082786D01*
X287061235Y-93082786D02*
X287154420Y-93082786D01*
X287154420Y-93082786D02*
X287210953Y-93080416D01*
X287210953Y-93080416D02*
X287240078Y-93072315D01*
X287240078Y-93072315D02*
X287247606Y-93058711D01*
X287247606Y-93058711D02*
X287251580Y-93044001D01*
X287251580Y-93044001D02*
X287269348Y-93046814D01*
X287269348Y-93046814D02*
X287293560Y-93058608D01*
X287293560Y-93058608D02*
X287354172Y-93076687D01*
X287354172Y-93076687D02*
X287432071Y-93081559D01*
X287432071Y-93081559D02*
X287514005Y-93073590D01*
X287514005Y-93073590D02*
X287586719Y-93053149D01*
X287586719Y-93053149D02*
X287593241Y-93050311D01*
X287593241Y-93050311D02*
X287659698Y-93003625D01*
X287659698Y-93003625D02*
X287703509Y-92938724D01*
X287703509Y-92938724D02*
X287723668Y-92862860D01*
X287723668Y-92862860D02*
X287722128Y-92835604D01*
X287722128Y-92835604D02*
X287557655Y-92835604D01*
X287557655Y-92835604D02*
X287543163Y-92872284D01*
X287543163Y-92872284D02*
X287500195Y-92898569D01*
X287500195Y-92898569D02*
X287430871Y-92912677D01*
X287430871Y-92912677D02*
X287393823Y-92914550D01*
X287393823Y-92914550D02*
X287332081Y-92909754D01*
X287332081Y-92909754D02*
X287291040Y-92891118D01*
X287291040Y-92891118D02*
X287281027Y-92882260D01*
X287281027Y-92882260D02*
X287253900Y-92834066D01*
X287253900Y-92834066D02*
X287247606Y-92790352D01*
X287247606Y-92790352D02*
X287247606Y-92731865D01*
X287247606Y-92731865D02*
X287329070Y-92731865D01*
X287329070Y-92731865D02*
X287423766Y-92736692D01*
X287423766Y-92736692D02*
X287490187Y-92751873D01*
X287490187Y-92751873D02*
X287532154Y-92778460D01*
X287532154Y-92778460D02*
X287541551Y-92790312D01*
X287541551Y-92790312D02*
X287557655Y-92835604D01*
X287557655Y-92835604D02*
X287722128Y-92835604D01*
X287722128Y-92835604D02*
X287719171Y-92783286D01*
X287719171Y-92783286D02*
X287689015Y-92707255D01*
X287689015Y-92707255D02*
X287647869Y-92655872D01*
X287647869Y-92655872D02*
X287622948Y-92633657D01*
X287622948Y-92633657D02*
X287598552Y-92619058D01*
X287598552Y-92619058D02*
X287566809Y-92610157D01*
X287566809Y-92610157D02*
X287519848Y-92605035D01*
X287519848Y-92605035D02*
X287449796Y-92601775D01*
X287449796Y-92601775D02*
X287422010Y-92600837D01*
X287422010Y-92600837D02*
X287247606Y-92595139D01*
X287247606Y-92595139D02*
X287247862Y-92542351D01*
X287247862Y-92542351D02*
X287254616Y-92486863D01*
X287254616Y-92486863D02*
X287279036Y-92453312D01*
X287279036Y-92453312D02*
X287328370Y-92431878D01*
X287328370Y-92431878D02*
X287329694Y-92431496D01*
X287329694Y-92431496D02*
X287399640Y-92423068D01*
X287399640Y-92423068D02*
X287468086Y-92434076D01*
X287468086Y-92434076D02*
X287518953Y-92460845D01*
X287518953Y-92460845D02*
X287539363Y-92474063D01*
X287539363Y-92474063D02*
X287561346Y-92472234D01*
X287561346Y-92472234D02*
X287595174Y-92453084D01*
X287595174Y-92453084D02*
X287615039Y-92439568D01*
X287615039Y-92439568D02*
X287653894Y-92410692D01*
X287653894Y-92410692D02*
X287677962Y-92389046D01*
X287677962Y-92389046D02*
X287681824Y-92382849D01*
X287681824Y-92382849D02*
X287665921Y-92350779D01*
X287665921Y-92350779D02*
X287618935Y-92312479D01*
X287618935Y-92312479D02*
X287598527Y-92299557D01*
X287598527Y-92299557D02*
X287539857Y-92277301D01*
X287539857Y-92277301D02*
X287460788Y-92264692D01*
X287460788Y-92264692D02*
X287372959Y-92261860D01*
X287372959Y-92261860D02*
X287288008Y-92268933D01*
X287288008Y-92268933D02*
X287288008Y-92268933D01*
G36*
X287703509Y-92938724D02*
G01*
X287659698Y-93003625D01*
X287593241Y-93050311D01*
X287586719Y-93053149D01*
X287514005Y-93073590D01*
X287432071Y-93081559D01*
X287354172Y-93076687D01*
X287293560Y-93058608D01*
X287269348Y-93046814D01*
X287251580Y-93044001D01*
X287247606Y-93058711D01*
X287240078Y-93072315D01*
X287210953Y-93080416D01*
X287154420Y-93082786D01*
X287061235Y-93082786D01*
X287066194Y-92790352D01*
X287247606Y-92790352D01*
X287253900Y-92834066D01*
X287281027Y-92882260D01*
X287291040Y-92891118D01*
X287332081Y-92909754D01*
X287393823Y-92914550D01*
X287430871Y-92912677D01*
X287500195Y-92898569D01*
X287543163Y-92872284D01*
X287557655Y-92835604D01*
X287541551Y-92790312D01*
X287532154Y-92778460D01*
X287490187Y-92751873D01*
X287423766Y-92736692D01*
X287329070Y-92731865D01*
X287247606Y-92731865D01*
X287247606Y-92790352D01*
X287066194Y-92790352D01*
X287066690Y-92761109D01*
X287068172Y-92686722D01*
X287072076Y-92575359D01*
X287078657Y-92490206D01*
X287089214Y-92426620D01*
X287105048Y-92379959D01*
X287127459Y-92345581D01*
X287157747Y-92318843D01*
X287197213Y-92295104D01*
X287217573Y-92286040D01*
X287288008Y-92268933D01*
X287372959Y-92261860D01*
X287460788Y-92264692D01*
X287539857Y-92277301D01*
X287598527Y-92299557D01*
X287618935Y-92312479D01*
X287665921Y-92350779D01*
X287681824Y-92382849D01*
X287677962Y-92389046D01*
X287653894Y-92410692D01*
X287615039Y-92439568D01*
X287595174Y-92453084D01*
X287561346Y-92472234D01*
X287539363Y-92474063D01*
X287518953Y-92460845D01*
X287468086Y-92434076D01*
X287399640Y-92423068D01*
X287329694Y-92431496D01*
X287328370Y-92431878D01*
X287279036Y-92453312D01*
X287254616Y-92486863D01*
X287247862Y-92542351D01*
X287247606Y-92595139D01*
X287422010Y-92600837D01*
X287449796Y-92601775D01*
X287519848Y-92605035D01*
X287566809Y-92610157D01*
X287598552Y-92619058D01*
X287622948Y-92633657D01*
X287647869Y-92655872D01*
X287689015Y-92707255D01*
X287719171Y-92783286D01*
X287722128Y-92835604D01*
X287723668Y-92862860D01*
X287703509Y-92938724D01*
G37*
X287703509Y-92938724D02*
X287659698Y-93003625D01*
X287593241Y-93050311D01*
X287586719Y-93053149D01*
X287514005Y-93073590D01*
X287432071Y-93081559D01*
X287354172Y-93076687D01*
X287293560Y-93058608D01*
X287269348Y-93046814D01*
X287251580Y-93044001D01*
X287247606Y-93058711D01*
X287240078Y-93072315D01*
X287210953Y-93080416D01*
X287154420Y-93082786D01*
X287061235Y-93082786D01*
X287066194Y-92790352D01*
X287247606Y-92790352D01*
X287253900Y-92834066D01*
X287281027Y-92882260D01*
X287291040Y-92891118D01*
X287332081Y-92909754D01*
X287393823Y-92914550D01*
X287430871Y-92912677D01*
X287500195Y-92898569D01*
X287543163Y-92872284D01*
X287557655Y-92835604D01*
X287541551Y-92790312D01*
X287532154Y-92778460D01*
X287490187Y-92751873D01*
X287423766Y-92736692D01*
X287329070Y-92731865D01*
X287247606Y-92731865D01*
X287247606Y-92790352D01*
X287066194Y-92790352D01*
X287066690Y-92761109D01*
X287068172Y-92686722D01*
X287072076Y-92575359D01*
X287078657Y-92490206D01*
X287089214Y-92426620D01*
X287105048Y-92379959D01*
X287127459Y-92345581D01*
X287157747Y-92318843D01*
X287197213Y-92295104D01*
X287217573Y-92286040D01*
X287288008Y-92268933D01*
X287372959Y-92261860D01*
X287460788Y-92264692D01*
X287539857Y-92277301D01*
X287598527Y-92299557D01*
X287618935Y-92312479D01*
X287665921Y-92350779D01*
X287681824Y-92382849D01*
X287677962Y-92389046D01*
X287653894Y-92410692D01*
X287615039Y-92439568D01*
X287595174Y-92453084D01*
X287561346Y-92472234D01*
X287539363Y-92474063D01*
X287518953Y-92460845D01*
X287468086Y-92434076D01*
X287399640Y-92423068D01*
X287329694Y-92431496D01*
X287328370Y-92431878D01*
X287279036Y-92453312D01*
X287254616Y-92486863D01*
X287247862Y-92542351D01*
X287247606Y-92595139D01*
X287422010Y-92600837D01*
X287449796Y-92601775D01*
X287519848Y-92605035D01*
X287566809Y-92610157D01*
X287598552Y-92619058D01*
X287622948Y-92633657D01*
X287647869Y-92655872D01*
X287689015Y-92707255D01*
X287719171Y-92783286D01*
X287722128Y-92835604D01*
X287723668Y-92862860D01*
X287703509Y-92938724D01*
X288935369Y-93082786D02*
X289027277Y-93082786D01*
X289027277Y-93082786D02*
X289080623Y-93081222D01*
X289080623Y-93081222D02*
X289108407Y-93074745D01*
X289108407Y-93074745D02*
X289118410Y-93060678D01*
X289118410Y-93060678D02*
X289119185Y-93051166D01*
X289119185Y-93051166D02*
X289120872Y-93032092D01*
X289120872Y-93032092D02*
X289131510Y-93028434D01*
X289131510Y-93028434D02*
X289159465Y-93040192D01*
X289159465Y-93040192D02*
X289181205Y-93051166D01*
X289181205Y-93051166D02*
X289264668Y-93077171D01*
X289264668Y-93077171D02*
X289355396Y-93078676D01*
X289355396Y-93078676D02*
X289429158Y-93059281D01*
X289429158Y-93059281D02*
X289497846Y-93012425D01*
X289497846Y-93012425D02*
X289550206Y-92943264D01*
X289550206Y-92943264D02*
X289578878Y-92861687D01*
X289578878Y-92861687D02*
X289579608Y-92857126D01*
X289579608Y-92857126D02*
X289583868Y-92807361D01*
X289583868Y-92807361D02*
X289585986Y-92735919D01*
X289585986Y-92735919D02*
X289585816Y-92681886D01*
X289585816Y-92681886D02*
X289403280Y-92681886D01*
X289403280Y-92681886D02*
X289399051Y-92753701D01*
X289399051Y-92753701D02*
X289389432Y-92812894D01*
X289389432Y-92812894D02*
X289376410Y-92846320D01*
X289376410Y-92846320D02*
X289327144Y-92892000D01*
X289327144Y-92892000D02*
X289268650Y-92908375D01*
X289268650Y-92908375D02*
X289208329Y-92895133D01*
X289208329Y-92895133D02*
X289156783Y-92855633D01*
X289156783Y-92855633D02*
X289137262Y-92829067D01*
X289137262Y-92829067D02*
X289125848Y-92797366D01*
X289125848Y-92797366D02*
X289120502Y-92751092D01*
X289120502Y-92751092D02*
X289119185Y-92681588D01*
X289119185Y-92681588D02*
X289121542Y-92612759D01*
X289121542Y-92612759D02*
X289127767Y-92552286D01*
X289127767Y-92552286D02*
X289136592Y-92511816D01*
X289136592Y-92511816D02*
X289138063Y-92508189D01*
X289138063Y-92508189D02*
X289173653Y-92465062D01*
X289173653Y-92465062D02*
X289225600Y-92441384D01*
X289225600Y-92441384D02*
X289283722Y-92437561D01*
X289283722Y-92437561D02*
X289337840Y-92453998D01*
X289337840Y-92453998D02*
X289377774Y-92491100D01*
X289377774Y-92491100D02*
X289381917Y-92498482D01*
X289381917Y-92498482D02*
X289394884Y-92543499D01*
X289394884Y-92543499D02*
X289401948Y-92608227D01*
X289401948Y-92608227D02*
X289403280Y-92681886D01*
X289403280Y-92681886D02*
X289585816Y-92681886D01*
X289585816Y-92681886D02*
X289585729Y-92654490D01*
X289585729Y-92654490D02*
X289584528Y-92610665D01*
X289584528Y-92610665D02*
X289576355Y-92502248D01*
X289576355Y-92502248D02*
X289559370Y-92420848D01*
X289559370Y-92420848D02*
X289531113Y-92360672D01*
X289531113Y-92360672D02*
X289489128Y-92315926D01*
X289489128Y-92315926D02*
X289448368Y-92289660D01*
X289448368Y-92289660D02*
X289391419Y-92271195D01*
X289391419Y-92271195D02*
X289320589Y-92264862D01*
X289320589Y-92264862D02*
X289248059Y-92270020D01*
X289248059Y-92270020D02*
X289186014Y-92286029D01*
X289186014Y-92286029D02*
X289153232Y-92305180D01*
X289153232Y-92305180D02*
X289119185Y-92335992D01*
X289119185Y-92335992D02*
X289119185Y-91946470D01*
X289119185Y-91946470D02*
X288935369Y-91946470D01*
X288935369Y-91946470D02*
X288935369Y-93082786D01*
X288935369Y-93082786D02*
X288935369Y-93082786D01*
G36*
X289583868Y-92807361D02*
G01*
X289579608Y-92857126D01*
X289578878Y-92861687D01*
X289550206Y-92943264D01*
X289497846Y-93012425D01*
X289429158Y-93059281D01*
X289355396Y-93078676D01*
X289264668Y-93077171D01*
X289181205Y-93051166D01*
X289159465Y-93040192D01*
X289131510Y-93028434D01*
X289120872Y-93032092D01*
X289119185Y-93051166D01*
X289118410Y-93060678D01*
X289108407Y-93074745D01*
X289080623Y-93081222D01*
X289027277Y-93082786D01*
X288935369Y-93082786D01*
X288935369Y-92681588D01*
X289119185Y-92681588D01*
X289120502Y-92751092D01*
X289125848Y-92797366D01*
X289137262Y-92829067D01*
X289156783Y-92855633D01*
X289208329Y-92895133D01*
X289268650Y-92908375D01*
X289327144Y-92892000D01*
X289376410Y-92846320D01*
X289389432Y-92812894D01*
X289399051Y-92753701D01*
X289403280Y-92681886D01*
X289401948Y-92608227D01*
X289394884Y-92543499D01*
X289381917Y-92498482D01*
X289377774Y-92491100D01*
X289337840Y-92453998D01*
X289283722Y-92437561D01*
X289225600Y-92441384D01*
X289173653Y-92465062D01*
X289138063Y-92508189D01*
X289136592Y-92511816D01*
X289127767Y-92552286D01*
X289121542Y-92612759D01*
X289119185Y-92681588D01*
X288935369Y-92681588D01*
X288935369Y-91946470D01*
X289119185Y-91946470D01*
X289119185Y-92335992D01*
X289153232Y-92305180D01*
X289186014Y-92286029D01*
X289248059Y-92270020D01*
X289320589Y-92264862D01*
X289391419Y-92271195D01*
X289448368Y-92289660D01*
X289489128Y-92315926D01*
X289531113Y-92360672D01*
X289559370Y-92420848D01*
X289576355Y-92502248D01*
X289584528Y-92610665D01*
X289585729Y-92654490D01*
X289585816Y-92681886D01*
X289585986Y-92735919D01*
X289583868Y-92807361D01*
G37*
X289583868Y-92807361D02*
X289579608Y-92857126D01*
X289578878Y-92861687D01*
X289550206Y-92943264D01*
X289497846Y-93012425D01*
X289429158Y-93059281D01*
X289355396Y-93078676D01*
X289264668Y-93077171D01*
X289181205Y-93051166D01*
X289159465Y-93040192D01*
X289131510Y-93028434D01*
X289120872Y-93032092D01*
X289119185Y-93051166D01*
X289118410Y-93060678D01*
X289108407Y-93074745D01*
X289080623Y-93081222D01*
X289027277Y-93082786D01*
X288935369Y-93082786D01*
X288935369Y-92681588D01*
X289119185Y-92681588D01*
X289120502Y-92751092D01*
X289125848Y-92797366D01*
X289137262Y-92829067D01*
X289156783Y-92855633D01*
X289208329Y-92895133D01*
X289268650Y-92908375D01*
X289327144Y-92892000D01*
X289376410Y-92846320D01*
X289389432Y-92812894D01*
X289399051Y-92753701D01*
X289403280Y-92681886D01*
X289401948Y-92608227D01*
X289394884Y-92543499D01*
X289381917Y-92498482D01*
X289377774Y-92491100D01*
X289337840Y-92453998D01*
X289283722Y-92437561D01*
X289225600Y-92441384D01*
X289173653Y-92465062D01*
X289138063Y-92508189D01*
X289136592Y-92511816D01*
X289127767Y-92552286D01*
X289121542Y-92612759D01*
X289119185Y-92681588D01*
X288935369Y-92681588D01*
X288935369Y-91946470D01*
X289119185Y-91946470D01*
X289119185Y-92335992D01*
X289153232Y-92305180D01*
X289186014Y-92286029D01*
X289248059Y-92270020D01*
X289320589Y-92264862D01*
X289391419Y-92271195D01*
X289448368Y-92289660D01*
X289489128Y-92315926D01*
X289531113Y-92360672D01*
X289559370Y-92420848D01*
X289576355Y-92502248D01*
X289584528Y-92610665D01*
X289585729Y-92654490D01*
X289585816Y-92681886D01*
X289585986Y-92735919D01*
X289583868Y-92807361D01*
X285966807Y-92268338D02*
X285886932Y-92289105D01*
X285886932Y-92289105D02*
X285820038Y-92331965D01*
X285820038Y-92331965D02*
X285787649Y-92363983D01*
X285787649Y-92363983D02*
X285734555Y-92439673D01*
X285734555Y-92439673D02*
X285704127Y-92527476D01*
X285704127Y-92527476D02*
X285693673Y-92635410D01*
X285693673Y-92635410D02*
X285693620Y-92644135D01*
X285693620Y-92644135D02*
X285693527Y-92731865D01*
X285693527Y-92731865D02*
X286198466Y-92731865D01*
X286198466Y-92731865D02*
X286187702Y-92777819D01*
X286187702Y-92777819D02*
X286168268Y-92819438D01*
X286168268Y-92819438D02*
X286134255Y-92862804D01*
X286134255Y-92862804D02*
X286127140Y-92869727D01*
X286127140Y-92869727D02*
X286065997Y-92907195D01*
X286065997Y-92907195D02*
X285996271Y-92913549D01*
X285996271Y-92913549D02*
X285916013Y-92888898D01*
X285916013Y-92888898D02*
X285902408Y-92882260D01*
X285902408Y-92882260D02*
X285860681Y-92862079D01*
X285860681Y-92862079D02*
X285832732Y-92850581D01*
X285832732Y-92850581D02*
X285827855Y-92849518D01*
X285827855Y-92849518D02*
X285810832Y-92859843D01*
X285810832Y-92859843D02*
X285778367Y-92885105D01*
X285778367Y-92885105D02*
X285761886Y-92898910D01*
X285761886Y-92898910D02*
X285727736Y-92930621D01*
X285727736Y-92930621D02*
X285716522Y-92951559D01*
X285716522Y-92951559D02*
X285724305Y-92970820D01*
X285724305Y-92970820D02*
X285728465Y-92976087D01*
X285728465Y-92976087D02*
X285756643Y-92999138D01*
X285756643Y-92999138D02*
X285803138Y-93027152D01*
X285803138Y-93027152D02*
X285835566Y-93043506D01*
X285835566Y-93043506D02*
X285927615Y-93072319D01*
X285927615Y-93072319D02*
X286029524Y-93081655D01*
X286029524Y-93081655D02*
X286126037Y-93070592D01*
X286126037Y-93070592D02*
X286153066Y-93062672D01*
X286153066Y-93062672D02*
X286236724Y-93017841D01*
X286236724Y-93017841D02*
X286298734Y-92948858D01*
X286298734Y-92948858D02*
X286339455Y-92855054D01*
X286339455Y-92855054D02*
X286359245Y-92735758D01*
X286359245Y-92735758D02*
X286361418Y-92673378D01*
X286361418Y-92673378D02*
X286355074Y-92582558D01*
X286355074Y-92582558D02*
X286194843Y-92582558D01*
X286194843Y-92582558D02*
X286179345Y-92589272D01*
X286179345Y-92589272D02*
X286137688Y-92594540D01*
X286137688Y-92594540D02*
X286077124Y-92597649D01*
X286077124Y-92597649D02*
X286036093Y-92598181D01*
X286036093Y-92598181D02*
X285962289Y-92597668D01*
X285962289Y-92597668D02*
X285915707Y-92595266D01*
X285915707Y-92595266D02*
X285890152Y-92589682D01*
X285890152Y-92589682D02*
X285879431Y-92579621D01*
X285879431Y-92579621D02*
X285877343Y-92565023D01*
X285877343Y-92565023D02*
X285891669Y-92520056D01*
X285891669Y-92520056D02*
X285927738Y-92475613D01*
X285927738Y-92475613D02*
X285975185Y-92441502D01*
X285975185Y-92441502D02*
X286022651Y-92427548D01*
X286022651Y-92427548D02*
X286087121Y-92439926D01*
X286087121Y-92439926D02*
X286142930Y-92475712D01*
X286142930Y-92475712D02*
X286181626Y-92527293D01*
X286181626Y-92527293D02*
X286194843Y-92582558D01*
X286194843Y-92582558D02*
X286355074Y-92582558D01*
X286355074Y-92582558D02*
X286352179Y-92541126D01*
X286352179Y-92541126D02*
X286323664Y-92435758D01*
X286323664Y-92435758D02*
X286275271Y-92356438D01*
X286275271Y-92356438D02*
X286206396Y-92302331D01*
X286206396Y-92302331D02*
X286116435Y-92272603D01*
X286116435Y-92272603D02*
X286067700Y-92266878D01*
X286067700Y-92266878D02*
X285966807Y-92268338D01*
X285966807Y-92268338D02*
X285966807Y-92268338D01*
G36*
X286359245Y-92735758D02*
G01*
X286339455Y-92855054D01*
X286298734Y-92948858D01*
X286236724Y-93017841D01*
X286153066Y-93062672D01*
X286126037Y-93070592D01*
X286029524Y-93081655D01*
X285927615Y-93072319D01*
X285835566Y-93043506D01*
X285803138Y-93027152D01*
X285756643Y-92999138D01*
X285728465Y-92976087D01*
X285724305Y-92970820D01*
X285716522Y-92951559D01*
X285727736Y-92930621D01*
X285761886Y-92898910D01*
X285778367Y-92885105D01*
X285810832Y-92859843D01*
X285827855Y-92849518D01*
X285832732Y-92850581D01*
X285860681Y-92862079D01*
X285902408Y-92882260D01*
X285916013Y-92888898D01*
X285996271Y-92913549D01*
X286065997Y-92907195D01*
X286127140Y-92869727D01*
X286134255Y-92862804D01*
X286168268Y-92819438D01*
X286187702Y-92777819D01*
X286198466Y-92731865D01*
X285693527Y-92731865D01*
X285693620Y-92644135D01*
X285693673Y-92635410D01*
X285700490Y-92565023D01*
X285877343Y-92565023D01*
X285879431Y-92579621D01*
X285890152Y-92589682D01*
X285915707Y-92595266D01*
X285962289Y-92597668D01*
X286036093Y-92598181D01*
X286077124Y-92597649D01*
X286137688Y-92594540D01*
X286179345Y-92589272D01*
X286194843Y-92582558D01*
X286181626Y-92527293D01*
X286142930Y-92475712D01*
X286087121Y-92439926D01*
X286022651Y-92427548D01*
X285975185Y-92441502D01*
X285927738Y-92475613D01*
X285891669Y-92520056D01*
X285877343Y-92565023D01*
X285700490Y-92565023D01*
X285704127Y-92527476D01*
X285734555Y-92439673D01*
X285787649Y-92363983D01*
X285820038Y-92331965D01*
X285886932Y-92289105D01*
X285966807Y-92268338D01*
X286067700Y-92266878D01*
X286116435Y-92272603D01*
X286206396Y-92302331D01*
X286275271Y-92356438D01*
X286323664Y-92435758D01*
X286352179Y-92541126D01*
X286355074Y-92582558D01*
X286361418Y-92673378D01*
X286359245Y-92735758D01*
G37*
X286359245Y-92735758D02*
X286339455Y-92855054D01*
X286298734Y-92948858D01*
X286236724Y-93017841D01*
X286153066Y-93062672D01*
X286126037Y-93070592D01*
X286029524Y-93081655D01*
X285927615Y-93072319D01*
X285835566Y-93043506D01*
X285803138Y-93027152D01*
X285756643Y-92999138D01*
X285728465Y-92976087D01*
X285724305Y-92970820D01*
X285716522Y-92951559D01*
X285727736Y-92930621D01*
X285761886Y-92898910D01*
X285778367Y-92885105D01*
X285810832Y-92859843D01*
X285827855Y-92849518D01*
X285832732Y-92850581D01*
X285860681Y-92862079D01*
X285902408Y-92882260D01*
X285916013Y-92888898D01*
X285996271Y-92913549D01*
X286065997Y-92907195D01*
X286127140Y-92869727D01*
X286134255Y-92862804D01*
X286168268Y-92819438D01*
X286187702Y-92777819D01*
X286198466Y-92731865D01*
X285693527Y-92731865D01*
X285693620Y-92644135D01*
X285693673Y-92635410D01*
X285700490Y-92565023D01*
X285877343Y-92565023D01*
X285879431Y-92579621D01*
X285890152Y-92589682D01*
X285915707Y-92595266D01*
X285962289Y-92597668D01*
X286036093Y-92598181D01*
X286077124Y-92597649D01*
X286137688Y-92594540D01*
X286179345Y-92589272D01*
X286194843Y-92582558D01*
X286181626Y-92527293D01*
X286142930Y-92475712D01*
X286087121Y-92439926D01*
X286022651Y-92427548D01*
X285975185Y-92441502D01*
X285927738Y-92475613D01*
X285891669Y-92520056D01*
X285877343Y-92565023D01*
X285700490Y-92565023D01*
X285704127Y-92527476D01*
X285734555Y-92439673D01*
X285787649Y-92363983D01*
X285820038Y-92331965D01*
X285886932Y-92289105D01*
X285966807Y-92268338D01*
X286067700Y-92266878D01*
X286116435Y-92272603D01*
X286206396Y-92302331D01*
X286275271Y-92356438D01*
X286323664Y-92435758D01*
X286352179Y-92541126D01*
X286355074Y-92582558D01*
X286361418Y-92673378D01*
X286359245Y-92735758D01*
X290507543Y-92270444D02*
X290428930Y-92291420D01*
X290428930Y-92291420D02*
X290369084Y-92329440D01*
X290369084Y-92329440D02*
X290326853Y-92379238D01*
X290326853Y-92379238D02*
X290313725Y-92400490D01*
X290313725Y-92400490D02*
X290304032Y-92422752D01*
X290304032Y-92422752D02*
X290297256Y-92451230D01*
X290297256Y-92451230D02*
X290292877Y-92491131D01*
X290292877Y-92491131D02*
X290290376Y-92547661D01*
X290290376Y-92547661D02*
X290289232Y-92626027D01*
X290289232Y-92626027D02*
X290288928Y-92731436D01*
X290288928Y-92731436D02*
X290288922Y-92759402D01*
X290288922Y-92759402D02*
X290288922Y-93082786D01*
X290288922Y-93082786D02*
X290369132Y-93082786D01*
X290369132Y-93082786D02*
X290420294Y-93079203D01*
X290420294Y-93079203D02*
X290458123Y-93070126D01*
X290458123Y-93070126D02*
X290467601Y-93064528D01*
X290467601Y-93064528D02*
X290493512Y-93054866D01*
X290493512Y-93054866D02*
X290519976Y-93064528D01*
X290519976Y-93064528D02*
X290563548Y-93076590D01*
X290563548Y-93076590D02*
X290626840Y-93081445D01*
X290626840Y-93081445D02*
X290696990Y-93079338D01*
X290696990Y-93079338D02*
X290761140Y-93070516D01*
X290761140Y-93070516D02*
X290798593Y-93059197D01*
X290798593Y-93059197D02*
X290871067Y-93012672D01*
X290871067Y-93012672D02*
X290916360Y-92948106D01*
X290916360Y-92948106D02*
X290936722Y-92862260D01*
X290936722Y-92862260D02*
X290936912Y-92860056D01*
X290936912Y-92860056D02*
X290935125Y-92821973D01*
X290935125Y-92821973D02*
X290773527Y-92821973D01*
X290773527Y-92821973D02*
X290759399Y-92865290D01*
X290759399Y-92865290D02*
X290736388Y-92889668D01*
X290736388Y-92889668D02*
X290690196Y-92908105D01*
X290690196Y-92908105D02*
X290629225Y-92915465D01*
X290629225Y-92915465D02*
X290567051Y-92911843D01*
X290567051Y-92911843D02*
X290517249Y-92897334D01*
X290517249Y-92897334D02*
X290503297Y-92888025D01*
X290503297Y-92888025D02*
X290478915Y-92845013D01*
X290478915Y-92845013D02*
X290472737Y-92796117D01*
X290472737Y-92796117D02*
X290472737Y-92731865D01*
X290472737Y-92731865D02*
X290565182Y-92731865D01*
X290565182Y-92731865D02*
X290653005Y-92738626D01*
X290653005Y-92738626D02*
X290719582Y-92757780D01*
X290719582Y-92757780D02*
X290760998Y-92787636D01*
X290760998Y-92787636D02*
X290773527Y-92821973D01*
X290773527Y-92821973D02*
X290935125Y-92821973D01*
X290935125Y-92821973D02*
X290932510Y-92766264D01*
X290932510Y-92766264D02*
X290901576Y-92692107D01*
X290901576Y-92692107D02*
X290843419Y-92636027D01*
X290843419Y-92636027D02*
X290835380Y-92630925D01*
X290835380Y-92630925D02*
X290800837Y-92614315D01*
X290800837Y-92614315D02*
X290758082Y-92604256D01*
X290758082Y-92604256D02*
X290698314Y-92599367D01*
X290698314Y-92599367D02*
X290627310Y-92598243D01*
X290627310Y-92598243D02*
X290472737Y-92598181D01*
X290472737Y-92598181D02*
X290472737Y-92533385D01*
X290472737Y-92533385D02*
X290479294Y-92483110D01*
X290479294Y-92483110D02*
X290496025Y-92449429D01*
X290496025Y-92449429D02*
X290497984Y-92447636D01*
X290497984Y-92447636D02*
X290535217Y-92432902D01*
X290535217Y-92432902D02*
X290591420Y-92427191D01*
X290591420Y-92427191D02*
X290653533Y-92429997D01*
X290653533Y-92429997D02*
X290708490Y-92440816D01*
X290708490Y-92440816D02*
X290741101Y-92457042D01*
X290741101Y-92457042D02*
X290758772Y-92470040D01*
X290758772Y-92470040D02*
X290777431Y-92472522D01*
X290777431Y-92472522D02*
X290803181Y-92461873D01*
X290803181Y-92461873D02*
X290842127Y-92435478D01*
X290842127Y-92435478D02*
X290900370Y-92390725D01*
X290900370Y-92390725D02*
X290905716Y-92386533D01*
X290905716Y-92386533D02*
X290902977Y-92371020D01*
X290902977Y-92371020D02*
X290880124Y-92345220D01*
X290880124Y-92345220D02*
X290845391Y-92316549D01*
X290845391Y-92316549D02*
X290807010Y-92292426D01*
X290807010Y-92292426D02*
X290794952Y-92286730D01*
X290794952Y-92286730D02*
X290750966Y-92275363D01*
X290750966Y-92275363D02*
X290686513Y-92267255D01*
X290686513Y-92267255D02*
X290614503Y-92264003D01*
X290614503Y-92264003D02*
X290611136Y-92263996D01*
X290611136Y-92263996D02*
X290507543Y-92270444D01*
X290507543Y-92270444D02*
X290507543Y-92270444D01*
G36*
X290936722Y-92862260D02*
G01*
X290916360Y-92948106D01*
X290871067Y-93012672D01*
X290798593Y-93059197D01*
X290761140Y-93070516D01*
X290696990Y-93079338D01*
X290626840Y-93081445D01*
X290563548Y-93076590D01*
X290519976Y-93064528D01*
X290493512Y-93054866D01*
X290467601Y-93064528D01*
X290458123Y-93070126D01*
X290420294Y-93079203D01*
X290369132Y-93082786D01*
X290288922Y-93082786D01*
X290288922Y-92796117D01*
X290472737Y-92796117D01*
X290478915Y-92845013D01*
X290503297Y-92888025D01*
X290517249Y-92897334D01*
X290567051Y-92911843D01*
X290629225Y-92915465D01*
X290690196Y-92908105D01*
X290736388Y-92889668D01*
X290759399Y-92865290D01*
X290773527Y-92821973D01*
X290760998Y-92787636D01*
X290719582Y-92757780D01*
X290653005Y-92738626D01*
X290565182Y-92731865D01*
X290472737Y-92731865D01*
X290472737Y-92796117D01*
X290288922Y-92796117D01*
X290288922Y-92759402D01*
X290288928Y-92731436D01*
X290289232Y-92626027D01*
X290290376Y-92547661D01*
X290292877Y-92491131D01*
X290297256Y-92451230D01*
X290304032Y-92422752D01*
X290313725Y-92400490D01*
X290326853Y-92379238D01*
X290369084Y-92329440D01*
X290428930Y-92291420D01*
X290507543Y-92270444D01*
X290611136Y-92263996D01*
X290614503Y-92264003D01*
X290686513Y-92267255D01*
X290750966Y-92275363D01*
X290794952Y-92286730D01*
X290807010Y-92292426D01*
X290845391Y-92316549D01*
X290880124Y-92345220D01*
X290902977Y-92371020D01*
X290905716Y-92386533D01*
X290900370Y-92390725D01*
X290842127Y-92435478D01*
X290803181Y-92461873D01*
X290777431Y-92472522D01*
X290758772Y-92470040D01*
X290741101Y-92457042D01*
X290708490Y-92440816D01*
X290653533Y-92429997D01*
X290591420Y-92427191D01*
X290535217Y-92432902D01*
X290497984Y-92447636D01*
X290496025Y-92449429D01*
X290479294Y-92483110D01*
X290472737Y-92533385D01*
X290472737Y-92598181D01*
X290627310Y-92598243D01*
X290698314Y-92599367D01*
X290758082Y-92604256D01*
X290800837Y-92614315D01*
X290835380Y-92630925D01*
X290843419Y-92636027D01*
X290901576Y-92692107D01*
X290932510Y-92766264D01*
X290935125Y-92821973D01*
X290936912Y-92860056D01*
X290936722Y-92862260D01*
G37*
X290936722Y-92862260D02*
X290916360Y-92948106D01*
X290871067Y-93012672D01*
X290798593Y-93059197D01*
X290761140Y-93070516D01*
X290696990Y-93079338D01*
X290626840Y-93081445D01*
X290563548Y-93076590D01*
X290519976Y-93064528D01*
X290493512Y-93054866D01*
X290467601Y-93064528D01*
X290458123Y-93070126D01*
X290420294Y-93079203D01*
X290369132Y-93082786D01*
X290288922Y-93082786D01*
X290288922Y-92796117D01*
X290472737Y-92796117D01*
X290478915Y-92845013D01*
X290503297Y-92888025D01*
X290517249Y-92897334D01*
X290567051Y-92911843D01*
X290629225Y-92915465D01*
X290690196Y-92908105D01*
X290736388Y-92889668D01*
X290759399Y-92865290D01*
X290773527Y-92821973D01*
X290760998Y-92787636D01*
X290719582Y-92757780D01*
X290653005Y-92738626D01*
X290565182Y-92731865D01*
X290472737Y-92731865D01*
X290472737Y-92796117D01*
X290288922Y-92796117D01*
X290288922Y-92759402D01*
X290288928Y-92731436D01*
X290289232Y-92626027D01*
X290290376Y-92547661D01*
X290292877Y-92491131D01*
X290297256Y-92451230D01*
X290304032Y-92422752D01*
X290313725Y-92400490D01*
X290326853Y-92379238D01*
X290369084Y-92329440D01*
X290428930Y-92291420D01*
X290507543Y-92270444D01*
X290611136Y-92263996D01*
X290614503Y-92264003D01*
X290686513Y-92267255D01*
X290750966Y-92275363D01*
X290794952Y-92286730D01*
X290807010Y-92292426D01*
X290845391Y-92316549D01*
X290880124Y-92345220D01*
X290902977Y-92371020D01*
X290905716Y-92386533D01*
X290900370Y-92390725D01*
X290842127Y-92435478D01*
X290803181Y-92461873D01*
X290777431Y-92472522D01*
X290758772Y-92470040D01*
X290741101Y-92457042D01*
X290708490Y-92440816D01*
X290653533Y-92429997D01*
X290591420Y-92427191D01*
X290535217Y-92432902D01*
X290497984Y-92447636D01*
X290496025Y-92449429D01*
X290479294Y-92483110D01*
X290472737Y-92533385D01*
X290472737Y-92598181D01*
X290627310Y-92598243D01*
X290698314Y-92599367D01*
X290758082Y-92604256D01*
X290800837Y-92614315D01*
X290835380Y-92630925D01*
X290843419Y-92636027D01*
X290901576Y-92692107D01*
X290932510Y-92766264D01*
X290935125Y-92821973D01*
X290936912Y-92860056D01*
X290936722Y-92862260D01*
D12*
X272053600Y-86516860D02*
X265353600Y-86506860D01*
D15*
X173755346Y-90015314D03*
X173755346Y-92515314D03*
X173755346Y-84657497D03*
X173755346Y-87157497D03*
D16*
X189233484Y-59654351D03*
D17*
X186693484Y-59654351D03*
D18*
X184470980Y-65012168D03*
D19*
X184470980Y-67552168D03*
X184470980Y-70092168D03*
X184470980Y-72632168D03*
X184470980Y-75172168D03*
X184470980Y-77712168D03*
X184470980Y-80252168D03*
X184470980Y-82792168D03*
X184470980Y-85332168D03*
X184470980Y-87872168D03*
X184470980Y-90412168D03*
X184470980Y-92952168D03*
X184470980Y-95492168D03*
X184470980Y-98032168D03*
X192090980Y-98032168D03*
X192090980Y-95492168D03*
X192090980Y-92952168D03*
X192090980Y-90412168D03*
X192090980Y-87872168D03*
X192090980Y-85332168D03*
X192090980Y-82792168D03*
X192090980Y-80252168D03*
X192090980Y-77712168D03*
X192090980Y-75172168D03*
X192090980Y-72632168D03*
X192090980Y-70092168D03*
X192090980Y-67552168D03*
X192090980Y-65012168D03*
D20*
X170183468Y-109501895D03*
X170183468Y-114581895D03*
D18*
X166016277Y-78704367D03*
D19*
X158396277Y-78704367D03*
D18*
X166016277Y-114423147D03*
D19*
X158396277Y-114423147D03*
D18*
X180303789Y-130496598D03*
D19*
X180303789Y-138116598D03*
D18*
X177327224Y-132877850D03*
D19*
X177327224Y-140497850D03*
D18*
X174350659Y-130496598D03*
D19*
X174350659Y-138116598D03*
D18*
X168397529Y-130496598D03*
D19*
X168397529Y-138116598D03*
D21*
X176731911Y-123948155D03*
D22*
X175231911Y-123948155D03*
D18*
X166016277Y-72751237D03*
D19*
X158396277Y-72751237D03*
D23*
X173755346Y-103112200D03*
X173755346Y-96612200D03*
X178255346Y-103112200D03*
X178255346Y-96612200D03*
D24*
X158277208Y-55487160D03*
X205902248Y-55487160D03*
X158277208Y-140616919D03*
X205902248Y-140616919D03*
D25*
X42786486Y-107279391D03*
X321392970Y-107279391D03*
D18*
X195781927Y-130496598D03*
D19*
X195781927Y-138116598D03*
D16*
X177485972Y-59654351D03*
D17*
X174945972Y-59654351D03*
D18*
X166016277Y-126329407D03*
D19*
X158396277Y-126329407D03*
D18*
X166016277Y-120376277D03*
D19*
X158396277Y-120376277D03*
D18*
X163635025Y-111446582D03*
D19*
X156015025Y-111446582D03*
D18*
X166016277Y-108470017D03*
D19*
X158396277Y-108470017D03*
D18*
X163635025Y-105493452D03*
D19*
X156015025Y-105493452D03*
D18*
X163635025Y-117399712D03*
D19*
X156015025Y-117399712D03*
D18*
X163635025Y-93587192D03*
D19*
X156015025Y-93587192D03*
D18*
X166016277Y-90610627D03*
D19*
X158396277Y-90610627D03*
D18*
X163635025Y-99540322D03*
D19*
X156015025Y-99540322D03*
D18*
X163635025Y-87634062D03*
D19*
X156015025Y-87634062D03*
D18*
X166016277Y-84657497D03*
D19*
X158396277Y-84657497D03*
D18*
X163635025Y-81680932D03*
D19*
X156015025Y-81680932D03*
D18*
X198163179Y-72751237D03*
D19*
X205783179Y-72751237D03*
D18*
X163635025Y-69774672D03*
D19*
X156015025Y-69774672D03*
D18*
X200544431Y-69774672D03*
D19*
X208164431Y-69774672D03*
D18*
X163635025Y-63821542D03*
D19*
X156015025Y-63821542D03*
D18*
X192805362Y-132877850D03*
D19*
X192805362Y-140497850D03*
D23*
X173755346Y-65060611D03*
X173755346Y-71560611D03*
X178255346Y-71560611D03*
X178255346Y-65060611D03*
D15*
X185424110Y-122757529D03*
X190424110Y-122757529D03*
D18*
X165420964Y-132877850D03*
D19*
X165420964Y-140497850D03*
D18*
X200544431Y-111446582D03*
D19*
X208164431Y-111446582D03*
D18*
X198758492Y-132877850D03*
D19*
X198758492Y-140497850D03*
D18*
X200544431Y-75727802D03*
D19*
X208164431Y-75727802D03*
D18*
X198163179Y-60844977D03*
D19*
X205783179Y-60844977D03*
D18*
X200544431Y-63821542D03*
D19*
X208164431Y-63821542D03*
D18*
X198163179Y-78704367D03*
D19*
X205783179Y-78704367D03*
D18*
X200544431Y-93587192D03*
D19*
X208164431Y-93587192D03*
D18*
X200544431Y-87634062D03*
D19*
X208164431Y-87634062D03*
D18*
X198163179Y-90610627D03*
D19*
X205783179Y-90610627D03*
D18*
X198163179Y-102516887D03*
D19*
X205783179Y-102516887D03*
D18*
X200544431Y-99540322D03*
D19*
X208164431Y-99540322D03*
D18*
X198163179Y-96563757D03*
D19*
X205783179Y-96563757D03*
D18*
X200544431Y-81680932D03*
D19*
X208164431Y-81680932D03*
D18*
X198163179Y-108470017D03*
D19*
X205783179Y-108470017D03*
D18*
X200544431Y-105493452D03*
D19*
X208164431Y-105493452D03*
D18*
X198163179Y-114423147D03*
D19*
X205783179Y-114423147D03*
D18*
X198163179Y-84657497D03*
D19*
X205783179Y-84657497D03*
D18*
X198163179Y-66798107D03*
D19*
X205783179Y-66798107D03*
D18*
X200544431Y-129305972D03*
D19*
X208164431Y-129305972D03*
D18*
X198163179Y-120376277D03*
D19*
X205783179Y-120376277D03*
D18*
X183875667Y-130496598D03*
D19*
X183875667Y-138116598D03*
D18*
X200544431Y-117399712D03*
D19*
X208164431Y-117399712D03*
D18*
X200544431Y-123352842D03*
D19*
X208164431Y-123352842D03*
D18*
X198163179Y-126329407D03*
D19*
X205783179Y-126329407D03*
D18*
X186852232Y-132877850D03*
D19*
X186852232Y-140497850D03*
D26*
X227174768Y-141529728D03*
X233524768Y-138989728D03*
D27*
X241652768Y-143434728D03*
X217776768Y-143434728D03*
D28*
X224634768Y-136449728D03*
D29*
X241652768Y-128194728D03*
D28*
X234794768Y-136449728D03*
D29*
X229714768Y-136449728D03*
X217776768Y-128194728D03*
D30*
X236709768Y-139611728D03*
D31*
X236799768Y-138989728D03*
D30*
X236699768Y-138481728D03*
D31*
X223872768Y-141529728D03*
D30*
X223882768Y-142151728D03*
X223872768Y-141021728D03*
D29*
X134464688Y-136449728D03*
X146402688Y-128194728D03*
D26*
X138274688Y-138989728D03*
X131924688Y-141529728D03*
D28*
X139544688Y-136449728D03*
D27*
X146402688Y-143434728D03*
D29*
X122526688Y-128194728D03*
D27*
X122526688Y-143434728D03*
D28*
X129384688Y-136449728D03*
D30*
X141449688Y-138481728D03*
D31*
X141549688Y-138989728D03*
D30*
X141459688Y-139611728D03*
D31*
X128622688Y-141529728D03*
D30*
X128622688Y-141021728D03*
X128632688Y-142151728D03*
D15*
X185424110Y-125734094D03*
X190424110Y-125734094D03*
D32*
X173755346Y-78704367D03*
D33*
X173755346Y-76164367D03*
X176295346Y-78704367D03*
X176295346Y-76164367D03*
X178835346Y-78704367D03*
X178835346Y-76164367D03*
D24*
X167802216Y-98349696D03*
D18*
X189828797Y-130496598D03*
D19*
X189828797Y-138116598D03*
D18*
X163635025Y-129305972D03*
D19*
X156015025Y-129305972D03*
D18*
X166016277Y-102516887D03*
D19*
X158396277Y-102516887D03*
D18*
X163635025Y-96563757D03*
D19*
X156015025Y-96563757D03*
D18*
X163635025Y-75727802D03*
D19*
X156015025Y-75727802D03*
D34*
X192090980Y-102516887D03*
D35*
X184470980Y-102516887D03*
D36*
X178517850Y-85848123D03*
X178517850Y-90728123D03*
D18*
X163635025Y-123352842D03*
D19*
X156015025Y-123352842D03*
D34*
X184470980Y-109660643D03*
D35*
X192090980Y-109660643D03*
D34*
X179708476Y-54296534D03*
D35*
X172088476Y-54296534D03*
D34*
X192090980Y-54296534D03*
D35*
X184470980Y-54296534D03*
D34*
X184470980Y-107279391D03*
D35*
X192090980Y-107279391D03*
D18*
X184590049Y-117399712D03*
D19*
X192210049Y-117399712D03*
D18*
X184590049Y-114423147D03*
D19*
X192210049Y-114423147D03*
D34*
X45167738Y-69774672D03*
D35*
X52787738Y-69774672D03*
D34*
X71361510Y-69774672D03*
D35*
X63741510Y-69774672D03*
D34*
X184470980Y-104898139D03*
D35*
X192090980Y-104898139D03*
D18*
X166016277Y-60844977D03*
D19*
X158396277Y-60844977D03*
D18*
X166016277Y-66798107D03*
D19*
X158396277Y-66798107D03*
D18*
X171374094Y-132877850D03*
D19*
X171374094Y-140497850D03*
D37*
X48739616Y-79299680D03*
D38*
X43659616Y-79299680D03*
X53819616Y-79299680D03*
D26*
X44929616Y-76759680D03*
X51279616Y-74219680D03*
D30*
X41719616Y-77269680D03*
D31*
X41654616Y-76759680D03*
D30*
X41699616Y-76289680D03*
X54569616Y-73709680D03*
D31*
X54581616Y-74219680D03*
D30*
X54589616Y-74789680D03*
D26*
X51279616Y-93269696D03*
X44929616Y-95809696D03*
D38*
X43659616Y-98349696D03*
X53819616Y-98349696D03*
D37*
X48739616Y-98349696D03*
D30*
X41699616Y-95339696D03*
X41719616Y-96319696D03*
D31*
X41654616Y-95809696D03*
D30*
X54569616Y-92759696D03*
D31*
X54581616Y-93269696D03*
D30*
X54589616Y-93839696D03*
D38*
X53819616Y-117399712D03*
D26*
X44929616Y-114859712D03*
D37*
X48739616Y-117399712D03*
D38*
X43659616Y-117399712D03*
D26*
X51279616Y-112319712D03*
D31*
X41654616Y-114859712D03*
D30*
X41719616Y-115369712D03*
X41699616Y-114389712D03*
D31*
X54581616Y-112319712D03*
D30*
X54589616Y-112889712D03*
X54569616Y-111809712D03*
D37*
X48739616Y-136449728D03*
D38*
X43659616Y-136449728D03*
X53819616Y-136449728D03*
D26*
X51279616Y-131369728D03*
X44929616Y-133909728D03*
D30*
X41699616Y-133439728D03*
X41719616Y-134419728D03*
D31*
X41654616Y-133909728D03*
D30*
X54569616Y-130859728D03*
X54589616Y-131939728D03*
D31*
X54581616Y-131369728D03*
D26*
X70329632Y-131369728D03*
X63979632Y-133909728D03*
D37*
X67789632Y-136449728D03*
D38*
X62709632Y-136449728D03*
X72869632Y-136449728D03*
D30*
X60769632Y-134419728D03*
X60749632Y-133439728D03*
D31*
X60704632Y-133909728D03*
X73631632Y-131369728D03*
D30*
X73639632Y-131939728D03*
X73619632Y-130859728D03*
D38*
X62709632Y-60249664D03*
X72869632Y-60249664D03*
D26*
X71599632Y-62789664D03*
D37*
X67789632Y-60249664D03*
D26*
X65249632Y-65329664D03*
D31*
X74874632Y-62789664D03*
D30*
X74809632Y-62279664D03*
X74829632Y-63259664D03*
X61939632Y-64759664D03*
X61959632Y-65839664D03*
D31*
X61947632Y-65329664D03*
D38*
X72869632Y-79299680D03*
D26*
X70329632Y-74219680D03*
D37*
X67789632Y-79299680D03*
D38*
X62709632Y-79299680D03*
D26*
X63979632Y-76759680D03*
D30*
X60749632Y-76289680D03*
D31*
X60704632Y-76759680D03*
D30*
X60769632Y-77269680D03*
X73619632Y-73709680D03*
X73639632Y-74789680D03*
D31*
X73631632Y-74219680D03*
D38*
X62709632Y-98349696D03*
D26*
X70329632Y-93269696D03*
D37*
X67789632Y-98349696D03*
D26*
X63979632Y-95809696D03*
D38*
X72869632Y-98349696D03*
D31*
X60704632Y-95809696D03*
D30*
X60749632Y-95339696D03*
X60769632Y-96319696D03*
X73619632Y-92759696D03*
X73639632Y-93839696D03*
D31*
X73631632Y-93269696D03*
D26*
X70329632Y-112319712D03*
X63979632Y-114859712D03*
D37*
X67789632Y-117399712D03*
D38*
X62709632Y-117399712D03*
X72869632Y-117399712D03*
D30*
X60749632Y-114389712D03*
X60769632Y-115369712D03*
D31*
X60704632Y-114859712D03*
X73631632Y-112319712D03*
D30*
X73619632Y-111809712D03*
X73639632Y-112889712D03*
D37*
X86839648Y-117399712D03*
D26*
X83029648Y-114859712D03*
D38*
X81759648Y-117399712D03*
X91919648Y-117399712D03*
D26*
X89379648Y-112319712D03*
D31*
X79754648Y-114859712D03*
D30*
X79819648Y-115369712D03*
X79799648Y-114389712D03*
X92669648Y-111809712D03*
D31*
X92681648Y-112319712D03*
D30*
X92689648Y-112889712D03*
D26*
X83029648Y-133909728D03*
D38*
X81759648Y-136449728D03*
X91919648Y-136449728D03*
D26*
X89379648Y-131369728D03*
D37*
X86839648Y-136449728D03*
D30*
X79799648Y-133439728D03*
D31*
X79754648Y-133909728D03*
D30*
X79819648Y-134419728D03*
X92669648Y-130859728D03*
X92689648Y-131939728D03*
D31*
X92681648Y-131369728D03*
D26*
X83029648Y-95809696D03*
D37*
X86839648Y-98349696D03*
D38*
X91919648Y-98349696D03*
X81759648Y-98349696D03*
D26*
X89379648Y-93269696D03*
D30*
X79819648Y-96319696D03*
D31*
X79754648Y-95809696D03*
D30*
X79799648Y-95339696D03*
D31*
X92681648Y-93269696D03*
D30*
X92689648Y-93839696D03*
X92669648Y-92759696D03*
D26*
X102079664Y-95809696D03*
D38*
X110969664Y-98349696D03*
X100809664Y-98349696D03*
D37*
X105889664Y-98349696D03*
D26*
X108429664Y-93269696D03*
D30*
X98849664Y-95339696D03*
X98869664Y-96319696D03*
D31*
X98804664Y-95809696D03*
X111731664Y-93269696D03*
D30*
X111719664Y-92759696D03*
X111739664Y-93839696D03*
D26*
X102079664Y-114859712D03*
D37*
X105889664Y-117399712D03*
D38*
X100809664Y-117399712D03*
D26*
X108429664Y-112319712D03*
D38*
X110969664Y-117399712D03*
D30*
X98849664Y-114389712D03*
D31*
X98804664Y-114859712D03*
D30*
X98869664Y-115369712D03*
X111739664Y-112889712D03*
X111719664Y-111809712D03*
D31*
X111731664Y-112319712D03*
D38*
X100809664Y-136449728D03*
D26*
X108429664Y-131369728D03*
D37*
X105889664Y-136449728D03*
D38*
X110969664Y-136449728D03*
D26*
X102079664Y-133909728D03*
D30*
X98869664Y-134419728D03*
D31*
X98804664Y-133909728D03*
D30*
X98849664Y-133439728D03*
X111739664Y-131939728D03*
X111719664Y-130859728D03*
D31*
X111731664Y-131369728D03*
D37*
X105889664Y-60249664D03*
D26*
X102079664Y-57709664D03*
D38*
X100809664Y-60249664D03*
X110969664Y-60249664D03*
D26*
X108429664Y-55169664D03*
D31*
X98804664Y-57709664D03*
D30*
X98849664Y-57239664D03*
X98869664Y-58219664D03*
D31*
X111731664Y-55169664D03*
D30*
X111719664Y-54659664D03*
X111739664Y-55739664D03*
D26*
X102079664Y-76759680D03*
D37*
X105889664Y-79299680D03*
D38*
X100809664Y-79299680D03*
D26*
X108429664Y-74219680D03*
D38*
X110969664Y-79299680D03*
D30*
X98849664Y-76289680D03*
X98869664Y-77269680D03*
D31*
X98804664Y-76759680D03*
X111731664Y-74219680D03*
D30*
X111739664Y-74789680D03*
X111719664Y-73709680D03*
D38*
X119859680Y-79299680D03*
D26*
X127479680Y-74219680D03*
D38*
X130019680Y-79299680D03*
D26*
X121129680Y-76759680D03*
D37*
X124939680Y-79299680D03*
D30*
X117899680Y-76289680D03*
X117919680Y-77269680D03*
D31*
X117854680Y-76759680D03*
D30*
X130769680Y-73709680D03*
D31*
X130781680Y-74219680D03*
D30*
X130789680Y-74789680D03*
D38*
X130019680Y-98349696D03*
X119859680Y-98349696D03*
D26*
X121129680Y-95809696D03*
X127479680Y-93269696D03*
D37*
X124939680Y-98349696D03*
D30*
X117919680Y-96319696D03*
D31*
X117854680Y-95809696D03*
D30*
X117899680Y-95339696D03*
D31*
X130781680Y-93269696D03*
D30*
X130769680Y-92759696D03*
X130789680Y-93839696D03*
D26*
X127479680Y-112319712D03*
X121129680Y-114859712D03*
D37*
X124939680Y-117399712D03*
D38*
X130019680Y-117399712D03*
X119859680Y-117399712D03*
D31*
X117854680Y-114859712D03*
D30*
X117919680Y-115369712D03*
X117899680Y-114389712D03*
X130789680Y-112889712D03*
D31*
X130781680Y-112319712D03*
D30*
X130769680Y-111809712D03*
D37*
X124939680Y-136449728D03*
D38*
X119859680Y-136449728D03*
D26*
X127479680Y-131369728D03*
D38*
X130019680Y-136449728D03*
D26*
X121129680Y-133909728D03*
D30*
X117919680Y-134419728D03*
D31*
X117854680Y-133909728D03*
D30*
X117899680Y-133439728D03*
X130789680Y-131939728D03*
D31*
X130781680Y-131369728D03*
D30*
X130769680Y-130859728D03*
D38*
X119859680Y-60249664D03*
D37*
X124939680Y-60249664D03*
D38*
X130019680Y-60249664D03*
D26*
X121129680Y-57709664D03*
X127479680Y-55169664D03*
D31*
X117854680Y-57709664D03*
D30*
X117919680Y-58219664D03*
X117899680Y-57239664D03*
X130769680Y-54659664D03*
X130789680Y-55739664D03*
D31*
X130781680Y-55169664D03*
D26*
X140179696Y-57709664D03*
D38*
X149069696Y-60249664D03*
D26*
X146529696Y-55169664D03*
D37*
X143989696Y-60249664D03*
D38*
X138909696Y-60249664D03*
D30*
X136969696Y-58219664D03*
D31*
X136904696Y-57709664D03*
D30*
X136949696Y-57239664D03*
X149819696Y-54659664D03*
X149839696Y-55739664D03*
D31*
X149831696Y-55169664D03*
D26*
X140179696Y-76759680D03*
D38*
X149069696Y-79299680D03*
D26*
X146529696Y-74219680D03*
D38*
X138909696Y-79299680D03*
D37*
X143989696Y-79299680D03*
D30*
X136949696Y-76289680D03*
D31*
X136904696Y-76759680D03*
D30*
X136969696Y-77269680D03*
X149819696Y-73709680D03*
D31*
X149831696Y-74219680D03*
D30*
X149839696Y-74789680D03*
D38*
X149069696Y-98349696D03*
D26*
X146529696Y-93269696D03*
D38*
X138909696Y-98349696D03*
D26*
X140179696Y-95809696D03*
D37*
X143989696Y-98349696D03*
D31*
X136904696Y-95809696D03*
D30*
X136969696Y-96319696D03*
X136949696Y-95339696D03*
D31*
X149831696Y-93269696D03*
D30*
X149819696Y-92759696D03*
X149839696Y-93839696D03*
D26*
X146529696Y-112319712D03*
D37*
X143989696Y-117399712D03*
D38*
X149069696Y-117399712D03*
X138909696Y-117399712D03*
D26*
X140179696Y-114859712D03*
D31*
X136904696Y-114859712D03*
D30*
X136969696Y-115369712D03*
X136949696Y-114389712D03*
X149839696Y-112889712D03*
X149819696Y-111809712D03*
D31*
X149831696Y-112319712D03*
D26*
X146529696Y-131369728D03*
D38*
X138909696Y-136449728D03*
D26*
X140179696Y-133909728D03*
D38*
X149069696Y-136449728D03*
D37*
X143989696Y-136449728D03*
D30*
X136949696Y-133439728D03*
D31*
X136904696Y-133909728D03*
D30*
X136969696Y-134419728D03*
D31*
X149831696Y-131369728D03*
D30*
X149819696Y-130859728D03*
X149839696Y-131939728D03*
D37*
X315439840Y-60249664D03*
D26*
X317979840Y-55169664D03*
D38*
X310359840Y-60249664D03*
D26*
X311629840Y-57709664D03*
D38*
X320519840Y-60249664D03*
D31*
X308354840Y-57709664D03*
D30*
X308419840Y-58219664D03*
X308399840Y-57239664D03*
D31*
X321281840Y-55169664D03*
D30*
X321269840Y-54659664D03*
X321289840Y-55739664D03*
D38*
X310359840Y-79299680D03*
D26*
X311629840Y-76759680D03*
D38*
X320519840Y-79299680D03*
D37*
X315439840Y-79299680D03*
D26*
X317979840Y-74219680D03*
D31*
X308354840Y-76759680D03*
D30*
X308399840Y-76289680D03*
X308419840Y-77269680D03*
X321289840Y-74789680D03*
D31*
X321281840Y-74219680D03*
D30*
X321269840Y-73709680D03*
D26*
X317979840Y-93269696D03*
D37*
X315439840Y-98349696D03*
D26*
X311629840Y-95809696D03*
D38*
X310359840Y-98349696D03*
X320519840Y-98349696D03*
D30*
X308419840Y-96319696D03*
X308399840Y-95339696D03*
D31*
X308354840Y-95809696D03*
D30*
X321269840Y-92759696D03*
X321289840Y-93839696D03*
D31*
X321281840Y-93269696D03*
D38*
X320519840Y-117399712D03*
D26*
X317979840Y-112319712D03*
D38*
X310359840Y-117399712D03*
D26*
X311629840Y-114859712D03*
D37*
X315439840Y-117399712D03*
D30*
X308399840Y-114389712D03*
D31*
X308354840Y-114859712D03*
D30*
X308419840Y-115369712D03*
X321269840Y-111809712D03*
X321289840Y-112889712D03*
D31*
X321281840Y-112319712D03*
D38*
X320519840Y-136449728D03*
D37*
X315439840Y-136449728D03*
D26*
X317979840Y-131369728D03*
X311629840Y-133909728D03*
D38*
X310359840Y-136449728D03*
D30*
X308399840Y-133439728D03*
D31*
X308354840Y-133909728D03*
D30*
X308419840Y-134419728D03*
X321269840Y-130859728D03*
X321289840Y-131939728D03*
D31*
X321281840Y-131369728D03*
D38*
X301469824Y-136449728D03*
D37*
X296389824Y-136449728D03*
D26*
X298929824Y-131369728D03*
X292579824Y-133909728D03*
D38*
X291309824Y-136449728D03*
D31*
X289304824Y-133909728D03*
D30*
X289369824Y-134419728D03*
X289349824Y-133439728D03*
X302219824Y-130859728D03*
D31*
X302231824Y-131369728D03*
D30*
X302239824Y-131939728D03*
D26*
X298929824Y-55169664D03*
D37*
X296389824Y-60249664D03*
D38*
X291309824Y-60249664D03*
D26*
X292579824Y-57709664D03*
D38*
X301469824Y-60249664D03*
D30*
X289349824Y-57239664D03*
X289369824Y-58219664D03*
D31*
X289304824Y-57709664D03*
D30*
X302239824Y-55739664D03*
D31*
X302231824Y-55169664D03*
D30*
X302219824Y-54659664D03*
D38*
X291309824Y-79299680D03*
D37*
X296389824Y-79299680D03*
D26*
X292579824Y-76759680D03*
D38*
X301469824Y-79299680D03*
D26*
X298929824Y-74219680D03*
D30*
X289349824Y-76289680D03*
D31*
X289304824Y-76759680D03*
D30*
X289369824Y-77269680D03*
X302219824Y-73709680D03*
D31*
X302231824Y-74219680D03*
D30*
X302239824Y-74789680D03*
D38*
X301469824Y-98349696D03*
D26*
X298929824Y-93269696D03*
D37*
X296389824Y-98349696D03*
D26*
X292579824Y-95809696D03*
D38*
X291309824Y-98349696D03*
D30*
X289369824Y-96319696D03*
D31*
X289304824Y-95809696D03*
D30*
X289349824Y-95339696D03*
X302239824Y-93839696D03*
X302219824Y-92759696D03*
D31*
X302231824Y-93269696D03*
D38*
X291309824Y-117399712D03*
D26*
X298929824Y-112319712D03*
X292579824Y-114859712D03*
D37*
X296389824Y-117399712D03*
D38*
X301469824Y-117399712D03*
D30*
X289349824Y-114389712D03*
X289369824Y-115369712D03*
D31*
X289304824Y-114859712D03*
D30*
X302219824Y-111809712D03*
X302239824Y-112889712D03*
D31*
X302231824Y-112319712D03*
D38*
X282419808Y-117399712D03*
X272259808Y-117399712D03*
D26*
X273529808Y-114859712D03*
D37*
X277339808Y-117399712D03*
D26*
X279879808Y-112319712D03*
D30*
X270299808Y-114389712D03*
D31*
X270254808Y-114859712D03*
D30*
X270319808Y-115369712D03*
X283169808Y-111809712D03*
X283189808Y-112889712D03*
D31*
X283181808Y-112319712D03*
D38*
X272259808Y-136449728D03*
X282419808Y-136449728D03*
D26*
X279879808Y-131369728D03*
X273529808Y-133909728D03*
D37*
X277339808Y-136449728D03*
D30*
X270299808Y-133439728D03*
X270319808Y-134419728D03*
D31*
X270254808Y-133909728D03*
D30*
X283189808Y-131939728D03*
X283169808Y-130859728D03*
D31*
X283181808Y-131369728D03*
D26*
X273529808Y-57709664D03*
D38*
X272259808Y-60249664D03*
D26*
X279879808Y-55169664D03*
D38*
X282419808Y-60249664D03*
D37*
X277339808Y-60249664D03*
D30*
X270299808Y-57239664D03*
D31*
X270254808Y-57709664D03*
D30*
X270319808Y-58219664D03*
X283169808Y-54659664D03*
D31*
X283181808Y-55169664D03*
D30*
X283189808Y-55739664D03*
D26*
X279879808Y-74219680D03*
D38*
X282419808Y-79299680D03*
X272259808Y-79299680D03*
D37*
X277339808Y-79299680D03*
D26*
X273529808Y-76759680D03*
D30*
X270319808Y-77269680D03*
X270299808Y-76289680D03*
D31*
X270254808Y-76759680D03*
D30*
X283189808Y-74789680D03*
X283169808Y-73709680D03*
D31*
X283181808Y-74219680D03*
D38*
X282419808Y-98349696D03*
X272259808Y-98349696D03*
D26*
X279879808Y-93269696D03*
D37*
X277339808Y-98349696D03*
D26*
X273529808Y-95809696D03*
D30*
X270319808Y-96319696D03*
X270299808Y-95339696D03*
D31*
X270254808Y-95809696D03*
X283181808Y-93269696D03*
D30*
X283189808Y-93839696D03*
X283169808Y-92759696D03*
D38*
X253209792Y-98349696D03*
D37*
X258289792Y-98349696D03*
D26*
X260829792Y-93269696D03*
X254479792Y-95809696D03*
D38*
X263369792Y-98349696D03*
D31*
X251204792Y-95809696D03*
D30*
X251249792Y-95339696D03*
X251269792Y-96319696D03*
X264119792Y-92759696D03*
D31*
X264131792Y-93269696D03*
D30*
X264139792Y-93839696D03*
D26*
X254479792Y-114859712D03*
X260829792Y-112319712D03*
D38*
X253209792Y-117399712D03*
X263369792Y-117399712D03*
D37*
X258289792Y-117399712D03*
D30*
X251249792Y-114389712D03*
X251269792Y-115369712D03*
D31*
X251204792Y-114859712D03*
X264131792Y-112319712D03*
D30*
X264139792Y-112889712D03*
X264119792Y-111809712D03*
D26*
X254479792Y-133909728D03*
D38*
X263369792Y-136449728D03*
D37*
X258289792Y-136449728D03*
D38*
X253209792Y-136449728D03*
D26*
X260829792Y-131369728D03*
D31*
X251204792Y-133909728D03*
D30*
X251269792Y-134419728D03*
X251249792Y-133439728D03*
X264139792Y-131939728D03*
D31*
X264131792Y-131369728D03*
D30*
X264119792Y-130859728D03*
D26*
X260829792Y-55169664D03*
D38*
X253209792Y-60249664D03*
D37*
X258289792Y-60249664D03*
D26*
X254479792Y-57709664D03*
D38*
X263369792Y-60249664D03*
D31*
X251204792Y-57709664D03*
D30*
X251249792Y-57239664D03*
X251269792Y-58219664D03*
X264139792Y-55739664D03*
D31*
X264131792Y-55169664D03*
D30*
X264119792Y-54659664D03*
D38*
X253209792Y-79299680D03*
D26*
X260829792Y-74219680D03*
X254479792Y-76759680D03*
D38*
X263369792Y-79299680D03*
D37*
X258289792Y-79299680D03*
D31*
X251204792Y-76759680D03*
D30*
X251269792Y-77269680D03*
X251249792Y-76289680D03*
X264139792Y-74789680D03*
D31*
X264131792Y-74219680D03*
D30*
X264119792Y-73709680D03*
D26*
X241779776Y-74219680D03*
D37*
X239239776Y-79299680D03*
D38*
X234159776Y-79299680D03*
X244319776Y-79299680D03*
D26*
X235429776Y-76759680D03*
D30*
X232199776Y-76289680D03*
D31*
X232154776Y-76759680D03*
D30*
X232219776Y-77269680D03*
D31*
X245081776Y-74219680D03*
D30*
X245069776Y-73709680D03*
X245089776Y-74789680D03*
D38*
X244319776Y-98349696D03*
X234159776Y-98349696D03*
D26*
X235429776Y-95809696D03*
X241779776Y-93269696D03*
D37*
X239239776Y-98349696D03*
D30*
X232199776Y-95339696D03*
D31*
X232154776Y-95809696D03*
D30*
X232219776Y-96319696D03*
X245089776Y-93839696D03*
X245069776Y-92759696D03*
D31*
X245081776Y-93269696D03*
D38*
X244319776Y-117399712D03*
D26*
X235429776Y-114859712D03*
D38*
X234159776Y-117399712D03*
D26*
X241779776Y-112319712D03*
D37*
X239239776Y-117399712D03*
D31*
X232154776Y-114859712D03*
D30*
X232199776Y-114389712D03*
X232219776Y-115369712D03*
X245069776Y-111809712D03*
X245089776Y-112889712D03*
D31*
X245081776Y-112319712D03*
D26*
X241779776Y-131369728D03*
X235429776Y-133909728D03*
D38*
X244319776Y-136449728D03*
X234159776Y-136449728D03*
D37*
X239239776Y-136449728D03*
D31*
X232154776Y-133909728D03*
D30*
X232219776Y-134419728D03*
X232199776Y-133439728D03*
X245089776Y-131939728D03*
X245069776Y-130859728D03*
D31*
X245081776Y-131369728D03*
D26*
X235429776Y-57709664D03*
D38*
X244319776Y-60249664D03*
D26*
X241779776Y-55169664D03*
D38*
X234159776Y-60249664D03*
D37*
X239239776Y-60249664D03*
D30*
X232199776Y-57239664D03*
X232219776Y-58219664D03*
D31*
X232154776Y-57709664D03*
X245081776Y-55169664D03*
D30*
X245069776Y-54659664D03*
X245089776Y-55739664D03*
D38*
X215109760Y-60249664D03*
D26*
X216379760Y-57709664D03*
D38*
X225269760Y-60249664D03*
D37*
X220189760Y-60249664D03*
D26*
X222729760Y-55169664D03*
D31*
X213104760Y-57709664D03*
D30*
X213169760Y-58219664D03*
X213149760Y-57239664D03*
X226039760Y-55739664D03*
D31*
X226031760Y-55169664D03*
D30*
X226019760Y-54659664D03*
D26*
X222729760Y-74219680D03*
D38*
X215109760Y-79299680D03*
D26*
X216379760Y-76759680D03*
D37*
X220189760Y-79299680D03*
D38*
X225269760Y-79299680D03*
D30*
X213149760Y-76289680D03*
D31*
X213104760Y-76759680D03*
D30*
X213169760Y-77269680D03*
X226039760Y-74789680D03*
D31*
X226031760Y-74219680D03*
D30*
X226019760Y-73709680D03*
D37*
X220189760Y-98349696D03*
D38*
X225269760Y-98349696D03*
X215109760Y-98349696D03*
D26*
X216379760Y-95809696D03*
X222729760Y-93269696D03*
D30*
X213169760Y-96319696D03*
X213149760Y-95339696D03*
D31*
X213104760Y-95809696D03*
D30*
X226039760Y-93839696D03*
D31*
X226031760Y-93269696D03*
D30*
X226019760Y-92759696D03*
D26*
X222729760Y-112319712D03*
X216379760Y-114859712D03*
D38*
X225269760Y-117399712D03*
D37*
X220189760Y-117399712D03*
D38*
X215109760Y-117399712D03*
D30*
X213169760Y-115369712D03*
X213149760Y-114389712D03*
D31*
X213104760Y-114859712D03*
X226031760Y-112319712D03*
D30*
X226019760Y-111809712D03*
X226039760Y-112889712D03*
D26*
X222729760Y-131369728D03*
D38*
X225269760Y-136449728D03*
D26*
X216379760Y-133909728D03*
D38*
X215109760Y-136449728D03*
D37*
X220189760Y-136449728D03*
D30*
X213169760Y-134419728D03*
D31*
X213104760Y-133909728D03*
D30*
X213149760Y-133439728D03*
X226019760Y-130859728D03*
D31*
X226031760Y-131369728D03*
D30*
X226039760Y-131939728D03*
D37*
X86839648Y-60249664D03*
D38*
X91919648Y-60249664D03*
X81759648Y-60249664D03*
D26*
X89379648Y-55169664D03*
X83029648Y-57709664D03*
D31*
X79754648Y-57709664D03*
D30*
X79799648Y-57239664D03*
X79819648Y-58219664D03*
D31*
X92681648Y-55169664D03*
D30*
X92669648Y-54659664D03*
X92689648Y-55739664D03*
D38*
X91919648Y-79299680D03*
D37*
X86839648Y-79299680D03*
D26*
X89379648Y-74219680D03*
D38*
X81759648Y-79299680D03*
D26*
X83029648Y-76759680D03*
D31*
X79754648Y-76759680D03*
D30*
X79819648Y-77269680D03*
X79799648Y-76289680D03*
X92669648Y-73709680D03*
X92689648Y-74789680D03*
D31*
X92681648Y-74219680D03*
D24*
X58264624Y-126924720D03*
X305914832Y-69774672D03*
X305914832Y-126924720D03*
X58264624Y-69774672D03*
D37*
X48739568Y-60249610D03*
D26*
X52549568Y-62789610D03*
D38*
X43659568Y-60249610D03*
D26*
X46199568Y-65329610D03*
D38*
X53819568Y-60249610D03*
D30*
X55759568Y-62279610D03*
X55779568Y-63259610D03*
D31*
X55824568Y-62789610D03*
D30*
X42889568Y-64759610D03*
D31*
X42897568Y-65329610D03*
D30*
X42909568Y-65839610D03*
D37*
X220189760Y-98349696D03*
D26*
X216379760Y-95809696D03*
D38*
X215109760Y-98349696D03*
D26*
X222729760Y-93269696D03*
D38*
X225269760Y-98349696D03*
D31*
X213104760Y-95809696D03*
D30*
X213169760Y-96319696D03*
X213149760Y-95339696D03*
D31*
X226031760Y-93269696D03*
D30*
X226019760Y-92759696D03*
X226039760Y-93839696D03*
D39*
X59067600Y-56615860D03*
D40*
X58589600Y-58015860D03*
D41*
X56517600Y-55315860D03*
D39*
X56517600Y-56615860D03*
D41*
X59067600Y-55315860D03*
D39*
X57367600Y-56615860D03*
D41*
X58217600Y-55315860D03*
D42*
X57789600Y-59565860D03*
D41*
X57367600Y-55315860D03*
D39*
X58217600Y-56615860D03*
D40*
X56989600Y-58015860D03*
D41*
X60767600Y-56665860D03*
D43*
X59389600Y-59565860D03*
D41*
X54817600Y-55315860D03*
X54817600Y-56665860D03*
X60767600Y-55315860D03*
D44*
X53467600Y-56045860D03*
D45*
X53689600Y-57605860D03*
X61889600Y-57605860D03*
D44*
X62117600Y-56045860D03*
D46*
X53467600Y-52665860D03*
D45*
X53889600Y-52905860D03*
X61689600Y-52905860D03*
D46*
X62117600Y-52665860D03*
D41*
X55667600Y-56665860D03*
D42*
X56189600Y-59565860D03*
D41*
X59917600Y-55315860D03*
X59917600Y-56665860D03*
X55667600Y-55315860D03*
D47*
X79379600Y-68265860D03*
X79379600Y-69265860D03*
X79379600Y-70265860D03*
X79379600Y-71265860D03*
D48*
X83254600Y-66965860D03*
X83254600Y-72565860D03*
D49*
X96364600Y-72030860D03*
X96364600Y-70530861D03*
X96364600Y-69030859D03*
X96364600Y-67530859D03*
M02*
