%FSLAX45Y45*%
G04 Gerber Fmt 4.5, Leading zero omitted, Abs format (unit mm)*
G04 Created by KiCad (PCBNEW (6.0.0)) date 2022-12-30 20:57:39*
%MOMM*%
%LPD*%
G01*
G04 APERTURE LIST*
%TA.AperFunction,Profile*%
%ADD10C,0.200000*%
%TD*%
%ADD11C,0.200000*%
%ADD12C,0.175000*%
%ADD13C,0.190000*%
%ADD14C,0.220000*%
%ADD15C,0.300000*%
%ADD16C,0.304800*%
%ADD17C,0.398780*%
%ADD18C,0.410000*%
G04 APERTURE END LIST*
D10*
X32443960Y-14319961D02*
X32443960Y-5349961D01*
X4198960Y-5124961D02*
G75*
G03*
X3973960Y-5349961I0J-225000D01*
G01*
X3973960Y-14319961D02*
X3973960Y-5349961D01*
X32443960Y-5349961D02*
G75*
G03*
X32218960Y-5124961I-225000J0D01*
G01*
X32218960Y-14544961D02*
G75*
G03*
X32443960Y-14319961I0J225000D01*
G01*
X3973960Y-14319961D02*
G75*
G03*
X4198960Y-14544961I225000J0D01*
G01*
X5414150Y-5124961D02*
X4198960Y-5124961D01*
X32218960Y-5124961D02*
X31003770Y-5124961D01*
X19225399Y-5124961D02*
X17192521Y-5124961D01*
X4713715Y-5205606D02*
G75*
G03*
X5272329Y-5205606I279307J145645D01*
G01*
X22815957Y-14464941D02*
G75*
G03*
X22257342Y-14464941I-279307J-145645D01*
G01*
X8747900Y-14544961D02*
X5583926Y-14544961D01*
X7452153Y-5205606D02*
G75*
G03*
X7319149Y-5124961I-133003J-69355D01*
G01*
X31658615Y-5124961D02*
X32218960Y-5124961D01*
X28407153Y-5205606D02*
G75*
G03*
X28965767Y-5205606I279307J145645D01*
G01*
X13468960Y-14545586D02*
G75*
G03*
X13601963Y-14464941I0J150000D01*
G01*
X4759305Y-14544961D02*
X4198960Y-14544961D01*
X14160578Y-14464941D02*
G75*
G03*
X14293581Y-14545586I133004J69355D01*
G01*
X30966997Y-5205606D02*
G75*
G03*
X31525611Y-5205606I279307J145645D01*
G01*
X22124339Y-14545586D02*
G75*
G03*
X22257342Y-14464941I0J150000D01*
G01*
X30833994Y-14544961D02*
X27670021Y-14544961D01*
X5450923Y-14464316D02*
G75*
G03*
X5583926Y-14544961I133004J69355D01*
G01*
X31525611Y-14464316D02*
G75*
G03*
X31658615Y-14544961I133003J69355D01*
G01*
X4759305Y-14544961D02*
G75*
G03*
X4892309Y-14464316I0J150000D01*
G01*
X20050021Y-5124961D02*
X22144339Y-5125586D01*
X4198960Y-5124961D02*
G75*
G03*
X3973960Y-5349961I0J-225000D01*
G01*
X19358403Y-5205606D02*
G75*
G03*
X19917017Y-5205606I279307J145645D01*
G01*
X16367899Y-5124961D02*
X14273581Y-5125586D01*
X4580711Y-5124961D02*
X4198960Y-5124961D01*
X9439517Y-14464316D02*
G75*
G03*
X8880903Y-14464316I-279307J-145645D01*
G01*
X13448960Y-5125586D02*
X8143770Y-5124961D01*
X13581963Y-5206231D02*
G75*
G03*
X14140578Y-5206231I279307J145645D01*
G01*
X32443960Y-14319961D02*
X32443960Y-5349961D01*
X5450923Y-14464316D02*
G75*
G03*
X4892309Y-14464316I-279307J-145645D01*
G01*
X31658615Y-5124961D02*
G75*
G03*
X31525611Y-5205606I0J-150000D01*
G01*
X22968960Y-5125586D02*
G75*
G03*
X22835956Y-5206231I0J-150000D01*
G01*
X26845399Y-14544961D02*
G75*
G03*
X26978403Y-14464316I0J150000D01*
G01*
X28407153Y-5205606D02*
G75*
G03*
X28274149Y-5124961I-133003J-69355D01*
G01*
X32218960Y-14544961D02*
G75*
G03*
X32443960Y-14319961I0J225000D01*
G01*
X27537017Y-14464316D02*
G75*
G03*
X27670021Y-14544961I133004J69355D01*
G01*
X14273581Y-5125586D02*
G75*
G03*
X14140578Y-5206231I0J-150000D01*
G01*
X30833994Y-5124961D02*
X29098771Y-5124961D01*
X30833994Y-14544961D02*
G75*
G03*
X30966997Y-14464316I0J150000D01*
G01*
X14160578Y-14464941D02*
G75*
G03*
X13601963Y-14464941I-279307J-145645D01*
G01*
X4713715Y-5205606D02*
G75*
G03*
X4580711Y-5124961I-133003J-69355D01*
G01*
X13581963Y-5206231D02*
G75*
G03*
X13448960Y-5125586I-133003J-69355D01*
G01*
X16500903Y-5205606D02*
G75*
G03*
X17059517Y-5205606I279307J145645D01*
G01*
X30966997Y-5205606D02*
G75*
G03*
X30833994Y-5124961I-133004J-69355D01*
G01*
X27537017Y-14464316D02*
G75*
G03*
X26978403Y-14464316I-279307J-145645D01*
G01*
X20050021Y-5124961D02*
G75*
G03*
X19917017Y-5205606I0J-150000D01*
G01*
X31658615Y-14544961D02*
X32218960Y-14544961D01*
X3973960Y-14319961D02*
G75*
G03*
X4198960Y-14544961I225000J0D01*
G01*
X8143770Y-5124961D02*
G75*
G03*
X8010767Y-5205606I0J-150000D01*
G01*
X29098771Y-5124961D02*
G75*
G03*
X28965767Y-5205606I0J-150000D01*
G01*
X22815957Y-14464941D02*
G75*
G03*
X22948960Y-14545586I133004J69355D01*
G01*
X22277342Y-5206231D02*
G75*
G03*
X22835956Y-5206231I279307J145645D01*
G01*
X16500903Y-5205606D02*
G75*
G03*
X16367899Y-5124961I-133003J-69355D01*
G01*
X7319149Y-5124961D02*
X5405332Y-5124961D01*
X19358403Y-5205606D02*
G75*
G03*
X19225399Y-5124961I-133003J-69355D01*
G01*
X17192521Y-5124961D02*
G75*
G03*
X17059517Y-5205606I0J-150000D01*
G01*
X32443960Y-5349961D02*
G75*
G03*
X32218960Y-5124961I-225000J0D01*
G01*
X7452153Y-5205606D02*
G75*
G03*
X8010767Y-5205606I279307J145645D01*
G01*
X3973960Y-14319961D02*
X3973960Y-5349961D01*
X31525611Y-14464316D02*
G75*
G03*
X30966997Y-14464316I-279307J-145645D01*
G01*
X22277342Y-5206231D02*
G75*
G03*
X22144339Y-5125586I-133004J-69355D01*
G01*
X28274149Y-5124961D02*
X22968960Y-5125586D01*
X22948960Y-14545586D02*
X26845399Y-14544961D01*
X22124339Y-14545586D02*
X14293581Y-14545586D01*
X9439517Y-14464316D02*
G75*
G03*
X9572521Y-14544961I133004J69355D01*
G01*
X13468960Y-14545586D02*
X9572521Y-14544961D01*
X8747900Y-14544961D02*
G75*
G03*
X8880903Y-14464316I0J150000D01*
G01*
X5405332Y-5124961D02*
G75*
G03*
X5272329Y-5205606I0J-150000D01*
G01*
D11*
D12*
X12850969Y-13557473D02*
X13025969Y-13732473D01*
X13025969Y-13557473D02*
X12850969Y-13732473D01*
X13866969Y-13557473D02*
X14041969Y-13732473D01*
X14041969Y-13557473D02*
X13866969Y-13732473D01*
X22375977Y-13557473D02*
X22550977Y-13732473D01*
X22550977Y-13557473D02*
X22375977Y-13732473D01*
X23391977Y-13557473D02*
X23566977Y-13732473D01*
X23566977Y-13557473D02*
X23391977Y-13732473D01*
D13*
X4460957Y-6024961D02*
G75*
G03*
X4460957Y-6024961I-95000J0D01*
G01*
X4460962Y-7929968D02*
G75*
G03*
X4460962Y-7929968I-95000J0D01*
G01*
X4460962Y-9834970D02*
G75*
G03*
X4460962Y-9834970I-95000J0D01*
G01*
X4460962Y-11739971D02*
G75*
G03*
X4460962Y-11739971I-95000J0D01*
G01*
X4460962Y-13644973D02*
G75*
G03*
X4460962Y-13644973I-95000J0D01*
G01*
X5476957Y-6024961D02*
G75*
G03*
X5476957Y-6024961I-95000J0D01*
G01*
X5476962Y-7929968D02*
G75*
G03*
X5476962Y-7929968I-95000J0D01*
G01*
X5476962Y-9834970D02*
G75*
G03*
X5476962Y-9834970I-95000J0D01*
G01*
X5476962Y-11739971D02*
G75*
G03*
X5476962Y-11739971I-95000J0D01*
G01*
X5476962Y-13644973D02*
G75*
G03*
X5476962Y-13644973I-95000J0D01*
G01*
X6365963Y-6024966D02*
G75*
G03*
X6365963Y-6024966I-95000J0D01*
G01*
X6365963Y-7929968D02*
G75*
G03*
X6365963Y-7929968I-95000J0D01*
G01*
X6365963Y-9834970D02*
G75*
G03*
X6365963Y-9834970I-95000J0D01*
G01*
X6365963Y-11739971D02*
G75*
G03*
X6365963Y-11739971I-95000J0D01*
G01*
X6365963Y-13644973D02*
G75*
G03*
X6365963Y-13644973I-95000J0D01*
G01*
X7381963Y-6024966D02*
G75*
G03*
X7381963Y-6024966I-95000J0D01*
G01*
X7381963Y-7929968D02*
G75*
G03*
X7381963Y-7929968I-95000J0D01*
G01*
X7381963Y-9834970D02*
G75*
G03*
X7381963Y-9834970I-95000J0D01*
G01*
X7381963Y-11739971D02*
G75*
G03*
X7381963Y-11739971I-95000J0D01*
G01*
X7381963Y-13644973D02*
G75*
G03*
X7381963Y-13644973I-95000J0D01*
G01*
X8270965Y-6024966D02*
G75*
G03*
X8270965Y-6024966I-95000J0D01*
G01*
X8270965Y-7929968D02*
G75*
G03*
X8270965Y-7929968I-95000J0D01*
G01*
X8270965Y-9834970D02*
G75*
G03*
X8270965Y-9834970I-95000J0D01*
G01*
X8270965Y-11739971D02*
G75*
G03*
X8270965Y-11739971I-95000J0D01*
G01*
X8270965Y-13644973D02*
G75*
G03*
X8270965Y-13644973I-95000J0D01*
G01*
X9286965Y-6024966D02*
G75*
G03*
X9286965Y-6024966I-95000J0D01*
G01*
X9286965Y-7929968D02*
G75*
G03*
X9286965Y-7929968I-95000J0D01*
G01*
X9286965Y-9834970D02*
G75*
G03*
X9286965Y-9834970I-95000J0D01*
G01*
X9286965Y-11739971D02*
G75*
G03*
X9286965Y-11739971I-95000J0D01*
G01*
X9286965Y-13644973D02*
G75*
G03*
X9286965Y-13644973I-95000J0D01*
G01*
X10175966Y-6024966D02*
G75*
G03*
X10175966Y-6024966I-95000J0D01*
G01*
X10175966Y-7929968D02*
G75*
G03*
X10175966Y-7929968I-95000J0D01*
G01*
X10175966Y-9834970D02*
G75*
G03*
X10175966Y-9834970I-95000J0D01*
G01*
X10175966Y-11739971D02*
G75*
G03*
X10175966Y-11739971I-95000J0D01*
G01*
X10175966Y-13644973D02*
G75*
G03*
X10175966Y-13644973I-95000J0D01*
G01*
X11191966Y-6024966D02*
G75*
G03*
X11191966Y-6024966I-95000J0D01*
G01*
X11191966Y-7929968D02*
G75*
G03*
X11191966Y-7929968I-95000J0D01*
G01*
X11191966Y-9834970D02*
G75*
G03*
X11191966Y-9834970I-95000J0D01*
G01*
X11191966Y-11739971D02*
G75*
G03*
X11191966Y-11739971I-95000J0D01*
G01*
X11191966Y-13644973D02*
G75*
G03*
X11191966Y-13644973I-95000J0D01*
G01*
X12080968Y-6024966D02*
G75*
G03*
X12080968Y-6024966I-95000J0D01*
G01*
X12080968Y-7929968D02*
G75*
G03*
X12080968Y-7929968I-95000J0D01*
G01*
X12080968Y-9834970D02*
G75*
G03*
X12080968Y-9834970I-95000J0D01*
G01*
X12080968Y-11739971D02*
G75*
G03*
X12080968Y-11739971I-95000J0D01*
G01*
X12080968Y-13644973D02*
G75*
G03*
X12080968Y-13644973I-95000J0D01*
G01*
X13096968Y-6024966D02*
G75*
G03*
X13096968Y-6024966I-95000J0D01*
G01*
X13096968Y-7929968D02*
G75*
G03*
X13096968Y-7929968I-95000J0D01*
G01*
X13096968Y-9834970D02*
G75*
G03*
X13096968Y-9834970I-95000J0D01*
G01*
X13096968Y-11739971D02*
G75*
G03*
X13096968Y-11739971I-95000J0D01*
G01*
X13096968Y-13644973D02*
G75*
G03*
X13096968Y-13644973I-95000J0D01*
G01*
X13985970Y-6024966D02*
G75*
G03*
X13985970Y-6024966I-95000J0D01*
G01*
X13985970Y-7929968D02*
G75*
G03*
X13985970Y-7929968I-95000J0D01*
G01*
X13985970Y-9834970D02*
G75*
G03*
X13985970Y-9834970I-95000J0D01*
G01*
X13985970Y-11739971D02*
G75*
G03*
X13985970Y-11739971I-95000J0D01*
G01*
X13985970Y-13644973D02*
G75*
G03*
X13985970Y-13644973I-95000J0D01*
G01*
X15001970Y-6024966D02*
G75*
G03*
X15001970Y-6024966I-95000J0D01*
G01*
X15001970Y-7929968D02*
G75*
G03*
X15001970Y-7929968I-95000J0D01*
G01*
X15001970Y-9834970D02*
G75*
G03*
X15001970Y-9834970I-95000J0D01*
G01*
X15001970Y-11739971D02*
G75*
G03*
X15001970Y-11739971I-95000J0D01*
G01*
X15001970Y-13644973D02*
G75*
G03*
X15001970Y-13644973I-95000J0D01*
G01*
X21605976Y-6024966D02*
G75*
G03*
X21605976Y-6024966I-95000J0D01*
G01*
X21605976Y-7929968D02*
G75*
G03*
X21605976Y-7929968I-95000J0D01*
G01*
X21605976Y-9834970D02*
G75*
G03*
X21605976Y-9834970I-95000J0D01*
G01*
X21605976Y-9834970D02*
G75*
G03*
X21605976Y-9834970I-95000J0D01*
G01*
X21605976Y-11739971D02*
G75*
G03*
X21605976Y-11739971I-95000J0D01*
G01*
X21605976Y-13644973D02*
G75*
G03*
X21605976Y-13644973I-95000J0D01*
G01*
X22621976Y-6024966D02*
G75*
G03*
X22621976Y-6024966I-95000J0D01*
G01*
X22621976Y-7929968D02*
G75*
G03*
X22621976Y-7929968I-95000J0D01*
G01*
X22621976Y-9834970D02*
G75*
G03*
X22621976Y-9834970I-95000J0D01*
G01*
X22621976Y-9834970D02*
G75*
G03*
X22621976Y-9834970I-95000J0D01*
G01*
X22621976Y-11739971D02*
G75*
G03*
X22621976Y-11739971I-95000J0D01*
G01*
X22621976Y-13644973D02*
G75*
G03*
X22621976Y-13644973I-95000J0D01*
G01*
X23510978Y-6024966D02*
G75*
G03*
X23510978Y-6024966I-95000J0D01*
G01*
X23510978Y-7929968D02*
G75*
G03*
X23510978Y-7929968I-95000J0D01*
G01*
X23510978Y-9834970D02*
G75*
G03*
X23510978Y-9834970I-95000J0D01*
G01*
X23510978Y-11739971D02*
G75*
G03*
X23510978Y-11739971I-95000J0D01*
G01*
X23510978Y-13644973D02*
G75*
G03*
X23510978Y-13644973I-95000J0D01*
G01*
X24526978Y-6024966D02*
G75*
G03*
X24526978Y-6024966I-95000J0D01*
G01*
X24526978Y-7929968D02*
G75*
G03*
X24526978Y-7929968I-95000J0D01*
G01*
X24526978Y-9834970D02*
G75*
G03*
X24526978Y-9834970I-95000J0D01*
G01*
X24526978Y-11739971D02*
G75*
G03*
X24526978Y-11739971I-95000J0D01*
G01*
X24526978Y-13644973D02*
G75*
G03*
X24526978Y-13644973I-95000J0D01*
G01*
X25415979Y-6024966D02*
G75*
G03*
X25415979Y-6024966I-95000J0D01*
G01*
X25415979Y-7929968D02*
G75*
G03*
X25415979Y-7929968I-95000J0D01*
G01*
X25415979Y-9834970D02*
G75*
G03*
X25415979Y-9834970I-95000J0D01*
G01*
X25415979Y-11739971D02*
G75*
G03*
X25415979Y-11739971I-95000J0D01*
G01*
X25415979Y-13644973D02*
G75*
G03*
X25415979Y-13644973I-95000J0D01*
G01*
X26431979Y-6024966D02*
G75*
G03*
X26431979Y-6024966I-95000J0D01*
G01*
X26431979Y-7929968D02*
G75*
G03*
X26431979Y-7929968I-95000J0D01*
G01*
X26431979Y-9834970D02*
G75*
G03*
X26431979Y-9834970I-95000J0D01*
G01*
X26431979Y-11739971D02*
G75*
G03*
X26431979Y-11739971I-95000J0D01*
G01*
X26431979Y-13644973D02*
G75*
G03*
X26431979Y-13644973I-95000J0D01*
G01*
X27320981Y-6024966D02*
G75*
G03*
X27320981Y-6024966I-95000J0D01*
G01*
X27320981Y-7929968D02*
G75*
G03*
X27320981Y-7929968I-95000J0D01*
G01*
X27320981Y-9834970D02*
G75*
G03*
X27320981Y-9834970I-95000J0D01*
G01*
X27320981Y-11739971D02*
G75*
G03*
X27320981Y-11739971I-95000J0D01*
G01*
X27320981Y-13644973D02*
G75*
G03*
X27320981Y-13644973I-95000J0D01*
G01*
X28336981Y-6024966D02*
G75*
G03*
X28336981Y-6024966I-95000J0D01*
G01*
X28336981Y-7929968D02*
G75*
G03*
X28336981Y-7929968I-95000J0D01*
G01*
X28336981Y-9834970D02*
G75*
G03*
X28336981Y-9834970I-95000J0D01*
G01*
X28336981Y-11739971D02*
G75*
G03*
X28336981Y-11739971I-95000J0D01*
G01*
X28336981Y-13644973D02*
G75*
G03*
X28336981Y-13644973I-95000J0D01*
G01*
X29225982Y-6024966D02*
G75*
G03*
X29225982Y-6024966I-95000J0D01*
G01*
X29225982Y-7929968D02*
G75*
G03*
X29225982Y-7929968I-95000J0D01*
G01*
X29225982Y-9834970D02*
G75*
G03*
X29225982Y-9834970I-95000J0D01*
G01*
X29225982Y-11739971D02*
G75*
G03*
X29225982Y-11739971I-95000J0D01*
G01*
X29225982Y-13644973D02*
G75*
G03*
X29225982Y-13644973I-95000J0D01*
G01*
X30241982Y-6024966D02*
G75*
G03*
X30241982Y-6024966I-95000J0D01*
G01*
X30241982Y-7929968D02*
G75*
G03*
X30241982Y-7929968I-95000J0D01*
G01*
X30241982Y-9834970D02*
G75*
G03*
X30241982Y-9834970I-95000J0D01*
G01*
X30241982Y-11739971D02*
G75*
G03*
X30241982Y-11739971I-95000J0D01*
G01*
X30241982Y-13644973D02*
G75*
G03*
X30241982Y-13644973I-95000J0D01*
G01*
X31130984Y-6024966D02*
G75*
G03*
X31130984Y-6024966I-95000J0D01*
G01*
X31130984Y-7929968D02*
G75*
G03*
X31130984Y-7929968I-95000J0D01*
G01*
X31130984Y-9834970D02*
G75*
G03*
X31130984Y-9834970I-95000J0D01*
G01*
X31130984Y-11739971D02*
G75*
G03*
X31130984Y-11739971I-95000J0D01*
G01*
X31130984Y-13644973D02*
G75*
G03*
X31130984Y-13644973I-95000J0D01*
G01*
X32146984Y-6024966D02*
G75*
G03*
X32146984Y-6024966I-95000J0D01*
G01*
X32146984Y-7929968D02*
G75*
G03*
X32146984Y-7929968I-95000J0D01*
G01*
X32146984Y-9834970D02*
G75*
G03*
X32146984Y-9834970I-95000J0D01*
G01*
X32146984Y-11739971D02*
G75*
G03*
X32146984Y-11739971I-95000J0D01*
G01*
X32146984Y-13644973D02*
G75*
G03*
X32146984Y-13644973I-95000J0D01*
G01*
D14*
X4278649Y-10617939D02*
X4278649Y-10837939D01*
X4168649Y-10727939D02*
X4388649Y-10727939D01*
D11*
X3948649Y-10827939D02*
X4608649Y-10827939D01*
X3948649Y-10627939D02*
X4608649Y-10627939D01*
X4608649Y-10827939D02*
G75*
G03*
X4608649Y-10627939I0J100000D01*
G01*
X3948649Y-10627939D02*
G75*
G03*
X3948649Y-10827939I0J-100000D01*
G01*
D14*
X5826462Y-6867467D02*
X5826462Y-7087467D01*
X5716462Y-6977467D02*
X5936462Y-6977467D01*
X5826462Y-12582472D02*
X5826462Y-12802472D01*
X5716462Y-12692472D02*
X5936462Y-12692472D01*
X15827721Y-5438716D02*
X15827721Y-5658716D01*
X15717721Y-5548716D02*
X15937721Y-5548716D01*
X15827721Y-13951692D02*
X15827721Y-14171692D01*
X15717721Y-14061692D02*
X15937721Y-14061692D01*
X16780222Y-9724970D02*
X16780222Y-9944970D01*
X16670222Y-9834970D02*
X16890222Y-9834970D01*
D11*
X16880222Y-9934970D02*
X16880222Y-9734970D01*
X16680222Y-9934970D02*
X16680222Y-9734970D01*
X16880222Y-9734970D02*
G75*
G03*
X16680222Y-9734970I-100000J0D01*
G01*
X16680222Y-9934970D02*
G75*
G03*
X16880222Y-9934970I100000J0D01*
G01*
D14*
X20590225Y-5438716D02*
X20590225Y-5658716D01*
X20480225Y-5548716D02*
X20700225Y-5548716D01*
X20590225Y-13951692D02*
X20590225Y-14171692D01*
X20480225Y-14061692D02*
X20700225Y-14061692D01*
X30591483Y-6867467D02*
X30591483Y-7087467D01*
X30481483Y-6977467D02*
X30701483Y-6977467D01*
X30591483Y-12582472D02*
X30591483Y-12802472D01*
X30481483Y-12692472D02*
X30701483Y-12692472D01*
X32139297Y-10617939D02*
X32139297Y-10837939D01*
X32029297Y-10727939D02*
X32249297Y-10727939D01*
D11*
X31809297Y-10827939D02*
X32469297Y-10827939D01*
X31809297Y-10627939D02*
X32469297Y-10627939D01*
X32469297Y-10827939D02*
G75*
G03*
X32469297Y-10627939I0J100000D01*
G01*
X31809297Y-10627939D02*
G75*
G03*
X31809297Y-10827939I0J-100000D01*
G01*
D15*
X4599029Y-7782035D02*
X4599029Y-7569901D01*
X4386895Y-7569901D01*
X4386895Y-7782035D01*
X4599029Y-7782035D01*
X4599029Y-9687037D02*
X4599029Y-9474903D01*
X4386895Y-9474903D01*
X4386895Y-9687037D01*
X4599029Y-9687037D01*
X4599029Y-11592038D02*
X4599029Y-11379904D01*
X4386895Y-11379904D01*
X4386895Y-11592038D01*
X4599029Y-11592038D01*
X4599029Y-13497040D02*
X4599029Y-13284906D01*
X4386895Y-13284906D01*
X4386895Y-13497040D01*
X4599029Y-13497040D01*
X4726024Y-6639028D02*
X4726024Y-6426894D01*
X4513890Y-6426894D01*
X4513890Y-6639028D01*
X4726024Y-6639028D01*
X5234029Y-7528035D02*
X5234029Y-7315901D01*
X5021895Y-7315901D01*
X5021895Y-7528035D01*
X5234029Y-7528035D01*
X5234029Y-9433037D02*
X5234029Y-9220903D01*
X5021895Y-9220903D01*
X5021895Y-9433037D01*
X5234029Y-9433037D01*
X5234029Y-11338038D02*
X5234029Y-11125904D01*
X5021895Y-11125904D01*
X5021895Y-11338038D01*
X5234029Y-11338038D01*
X5234029Y-13243040D02*
X5234029Y-13030906D01*
X5021895Y-13030906D01*
X5021895Y-13243040D01*
X5234029Y-13243040D01*
X5361024Y-6385028D02*
X5361024Y-6172894D01*
X5148890Y-6172894D01*
X5148890Y-6385028D01*
X5361024Y-6385028D01*
X6504030Y-7782035D02*
X6504030Y-7569901D01*
X6291896Y-7569901D01*
X6291896Y-7782035D01*
X6504030Y-7782035D01*
X6504030Y-9687037D02*
X6504030Y-9474903D01*
X6291896Y-9474903D01*
X6291896Y-9687037D01*
X6504030Y-9687037D01*
X6504030Y-11592038D02*
X6504030Y-11379904D01*
X6291896Y-11379904D01*
X6291896Y-11592038D01*
X6504030Y-11592038D01*
X6504030Y-13497040D02*
X6504030Y-13284906D01*
X6291896Y-13284906D01*
X6291896Y-13497040D01*
X6504030Y-13497040D01*
X6631030Y-6639033D02*
X6631030Y-6426899D01*
X6418896Y-6426899D01*
X6418896Y-6639033D01*
X6631030Y-6639033D01*
X7139030Y-7528035D02*
X7139030Y-7315901D01*
X6926896Y-7315901D01*
X6926896Y-7528035D01*
X7139030Y-7528035D01*
X7139030Y-9433037D02*
X7139030Y-9220903D01*
X6926896Y-9220903D01*
X6926896Y-9433037D01*
X7139030Y-9433037D01*
X7139030Y-11338038D02*
X7139030Y-11125904D01*
X6926896Y-11125904D01*
X6926896Y-11338038D01*
X7139030Y-11338038D01*
X7139030Y-13243040D02*
X7139030Y-13030906D01*
X6926896Y-13030906D01*
X6926896Y-13243040D01*
X7139030Y-13243040D01*
X7266030Y-6385033D02*
X7266030Y-6172899D01*
X7053896Y-6172899D01*
X7053896Y-6385033D01*
X7266030Y-6385033D01*
X8409032Y-5877033D02*
X8409032Y-5664899D01*
X8196898Y-5664899D01*
X8196898Y-5877033D01*
X8409032Y-5877033D01*
X8409032Y-7782035D02*
X8409032Y-7569901D01*
X8196898Y-7569901D01*
X8196898Y-7782035D01*
X8409032Y-7782035D01*
X8409032Y-9687037D02*
X8409032Y-9474903D01*
X8196898Y-9474903D01*
X8196898Y-9687037D01*
X8409032Y-9687037D01*
X8409032Y-11592038D02*
X8409032Y-11379904D01*
X8196898Y-11379904D01*
X8196898Y-11592038D01*
X8409032Y-11592038D01*
X8409032Y-13497040D02*
X8409032Y-13284906D01*
X8196898Y-13284906D01*
X8196898Y-13497040D01*
X8409032Y-13497040D01*
X9044032Y-5623033D02*
X9044032Y-5410899D01*
X8831898Y-5410899D01*
X8831898Y-5623033D01*
X9044032Y-5623033D01*
X9044032Y-7528035D02*
X9044032Y-7315901D01*
X8831898Y-7315901D01*
X8831898Y-7528035D01*
X9044032Y-7528035D01*
X9044032Y-9433037D02*
X9044032Y-9220903D01*
X8831898Y-9220903D01*
X8831898Y-9433037D01*
X9044032Y-9433037D01*
X9044032Y-11338038D02*
X9044032Y-11125904D01*
X8831898Y-11125904D01*
X8831898Y-11338038D01*
X9044032Y-11338038D01*
X9044032Y-13243040D02*
X9044032Y-13030906D01*
X8831898Y-13030906D01*
X8831898Y-13243040D01*
X9044032Y-13243040D01*
X10314033Y-5877033D02*
X10314033Y-5664899D01*
X10101899Y-5664899D01*
X10101899Y-5877033D01*
X10314033Y-5877033D01*
X10314033Y-7782035D02*
X10314033Y-7569901D01*
X10101899Y-7569901D01*
X10101899Y-7782035D01*
X10314033Y-7782035D01*
X10314033Y-9687037D02*
X10314033Y-9474903D01*
X10101899Y-9474903D01*
X10101899Y-9687037D01*
X10314033Y-9687037D01*
X10314033Y-11592038D02*
X10314033Y-11379904D01*
X10101899Y-11379904D01*
X10101899Y-11592038D01*
X10314033Y-11592038D01*
X10314033Y-13497040D02*
X10314033Y-13284906D01*
X10101899Y-13284906D01*
X10101899Y-13497040D01*
X10314033Y-13497040D01*
X10949033Y-5623033D02*
X10949033Y-5410899D01*
X10736899Y-5410899D01*
X10736899Y-5623033D01*
X10949033Y-5623033D01*
X10949033Y-7528035D02*
X10949033Y-7315901D01*
X10736899Y-7315901D01*
X10736899Y-7528035D01*
X10949033Y-7528035D01*
X10949033Y-9433037D02*
X10949033Y-9220903D01*
X10736899Y-9220903D01*
X10736899Y-9433037D01*
X10949033Y-9433037D01*
X10949033Y-11338038D02*
X10949033Y-11125904D01*
X10736899Y-11125904D01*
X10736899Y-11338038D01*
X10949033Y-11338038D01*
X10949033Y-13243040D02*
X10949033Y-13030906D01*
X10736899Y-13030906D01*
X10736899Y-13243040D01*
X10949033Y-13243040D01*
X12219035Y-5877033D02*
X12219035Y-5664899D01*
X12006901Y-5664899D01*
X12006901Y-5877033D01*
X12219035Y-5877033D01*
X12219035Y-7782035D02*
X12219035Y-7569901D01*
X12006901Y-7569901D01*
X12006901Y-7782035D01*
X12219035Y-7782035D01*
X12219035Y-9687037D02*
X12219035Y-9474903D01*
X12006901Y-9474903D01*
X12006901Y-9687037D01*
X12219035Y-9687037D01*
X12219035Y-11592038D02*
X12219035Y-11379904D01*
X12006901Y-11379904D01*
X12006901Y-11592038D01*
X12219035Y-11592038D01*
X12219035Y-13497040D02*
X12219035Y-13284906D01*
X12006901Y-13284906D01*
X12006901Y-13497040D01*
X12219035Y-13497040D01*
X12854035Y-5623033D02*
X12854035Y-5410899D01*
X12641901Y-5410899D01*
X12641901Y-5623033D01*
X12854035Y-5623033D01*
X12854035Y-7528035D02*
X12854035Y-7315901D01*
X12641901Y-7315901D01*
X12641901Y-7528035D01*
X12854035Y-7528035D01*
X12854035Y-9433037D02*
X12854035Y-9220903D01*
X12641901Y-9220903D01*
X12641901Y-9433037D01*
X12854035Y-9433037D01*
X12854035Y-11338038D02*
X12854035Y-11125904D01*
X12641901Y-11125904D01*
X12641901Y-11338038D01*
X12854035Y-11338038D01*
X12854035Y-13243040D02*
X12854035Y-13030906D01*
X12641901Y-13030906D01*
X12641901Y-13243040D01*
X12854035Y-13243040D01*
X13298536Y-14259040D02*
X13298536Y-14046906D01*
X13086402Y-14046906D01*
X13086402Y-14259040D01*
X13298536Y-14259040D01*
X13933536Y-14005040D02*
X13933536Y-13792906D01*
X13721402Y-13792906D01*
X13721402Y-14005040D01*
X13933536Y-14005040D01*
X14124037Y-5877033D02*
X14124037Y-5664899D01*
X13911903Y-5664899D01*
X13911903Y-5877033D01*
X14124037Y-5877033D01*
X14124037Y-7782035D02*
X14124037Y-7569901D01*
X13911903Y-7569901D01*
X13911903Y-7782035D01*
X14124037Y-7782035D01*
X14124037Y-9687037D02*
X14124037Y-9474903D01*
X13911903Y-9474903D01*
X13911903Y-9687037D01*
X14124037Y-9687037D01*
X14124037Y-11592038D02*
X14124037Y-11379904D01*
X13911903Y-11379904D01*
X13911903Y-11592038D01*
X14124037Y-11592038D01*
X14124037Y-13497040D02*
X14124037Y-13284906D01*
X13911903Y-13284906D01*
X13911903Y-13497040D01*
X14124037Y-13497040D01*
X14759037Y-5623033D02*
X14759037Y-5410899D01*
X14546903Y-5410899D01*
X14546903Y-5623033D01*
X14759037Y-5623033D01*
X14759037Y-7528035D02*
X14759037Y-7315901D01*
X14546903Y-7315901D01*
X14546903Y-7528035D01*
X14759037Y-7528035D01*
X14759037Y-9433037D02*
X14759037Y-9220903D01*
X14546903Y-9220903D01*
X14546903Y-9433037D01*
X14759037Y-9433037D01*
X14759037Y-11338038D02*
X14759037Y-11125904D01*
X14546903Y-11125904D01*
X14546903Y-11338038D01*
X14759037Y-11338038D01*
X14759037Y-13243040D02*
X14759037Y-13030906D01*
X14546903Y-13030906D01*
X14546903Y-13243040D01*
X14759037Y-13243040D01*
X21744043Y-5877033D02*
X21744043Y-5664899D01*
X21531909Y-5664899D01*
X21531909Y-5877033D01*
X21744043Y-5877033D01*
X21744043Y-7782035D02*
X21744043Y-7569901D01*
X21531909Y-7569901D01*
X21531909Y-7782035D01*
X21744043Y-7782035D01*
X21744043Y-9687037D02*
X21744043Y-9474903D01*
X21531909Y-9474903D01*
X21531909Y-9687037D01*
X21744043Y-9687037D01*
X21744043Y-9687037D02*
X21744043Y-9474903D01*
X21531909Y-9474903D01*
X21531909Y-9687037D01*
X21744043Y-9687037D01*
X21744043Y-11592038D02*
X21744043Y-11379904D01*
X21531909Y-11379904D01*
X21531909Y-11592038D01*
X21744043Y-11592038D01*
X21744043Y-13497040D02*
X21744043Y-13284906D01*
X21531909Y-13284906D01*
X21531909Y-13497040D01*
X21744043Y-13497040D01*
X22379043Y-5623033D02*
X22379043Y-5410899D01*
X22166909Y-5410899D01*
X22166909Y-5623033D01*
X22379043Y-5623033D01*
X22379043Y-7528035D02*
X22379043Y-7315901D01*
X22166909Y-7315901D01*
X22166909Y-7528035D01*
X22379043Y-7528035D01*
X22379043Y-9433037D02*
X22379043Y-9220903D01*
X22166909Y-9220903D01*
X22166909Y-9433037D01*
X22379043Y-9433037D01*
X22379043Y-9433037D02*
X22379043Y-9220903D01*
X22166909Y-9220903D01*
X22166909Y-9433037D01*
X22379043Y-9433037D01*
X22379043Y-11338038D02*
X22379043Y-11125904D01*
X22166909Y-11125904D01*
X22166909Y-11338038D01*
X22379043Y-11338038D01*
X22379043Y-13243040D02*
X22379043Y-13030906D01*
X22166909Y-13030906D01*
X22166909Y-13243040D01*
X22379043Y-13243040D01*
X22823544Y-14259040D02*
X22823544Y-14046906D01*
X22611410Y-14046906D01*
X22611410Y-14259040D01*
X22823544Y-14259040D01*
X23458544Y-14005040D02*
X23458544Y-13792906D01*
X23246410Y-13792906D01*
X23246410Y-14005040D01*
X23458544Y-14005040D01*
X23649045Y-5877033D02*
X23649045Y-5664899D01*
X23436911Y-5664899D01*
X23436911Y-5877033D01*
X23649045Y-5877033D01*
X23649045Y-7782035D02*
X23649045Y-7569901D01*
X23436911Y-7569901D01*
X23436911Y-7782035D01*
X23649045Y-7782035D01*
X23649045Y-9687037D02*
X23649045Y-9474903D01*
X23436911Y-9474903D01*
X23436911Y-9687037D01*
X23649045Y-9687037D01*
X23649045Y-11592038D02*
X23649045Y-11379904D01*
X23436911Y-11379904D01*
X23436911Y-11592038D01*
X23649045Y-11592038D01*
X23649045Y-13497040D02*
X23649045Y-13284906D01*
X23436911Y-13284906D01*
X23436911Y-13497040D01*
X23649045Y-13497040D01*
X24284045Y-5623033D02*
X24284045Y-5410899D01*
X24071911Y-5410899D01*
X24071911Y-5623033D01*
X24284045Y-5623033D01*
X24284045Y-7528035D02*
X24284045Y-7315901D01*
X24071911Y-7315901D01*
X24071911Y-7528035D01*
X24284045Y-7528035D01*
X24284045Y-9433037D02*
X24284045Y-9220903D01*
X24071911Y-9220903D01*
X24071911Y-9433037D01*
X24284045Y-9433037D01*
X24284045Y-11338038D02*
X24284045Y-11125904D01*
X24071911Y-11125904D01*
X24071911Y-11338038D01*
X24284045Y-11338038D01*
X24284045Y-13243040D02*
X24284045Y-13030906D01*
X24071911Y-13030906D01*
X24071911Y-13243040D01*
X24284045Y-13243040D01*
X25554046Y-5877033D02*
X25554046Y-5664899D01*
X25341912Y-5664899D01*
X25341912Y-5877033D01*
X25554046Y-5877033D01*
X25554046Y-7782035D02*
X25554046Y-7569901D01*
X25341912Y-7569901D01*
X25341912Y-7782035D01*
X25554046Y-7782035D01*
X25554046Y-9687037D02*
X25554046Y-9474903D01*
X25341912Y-9474903D01*
X25341912Y-9687037D01*
X25554046Y-9687037D01*
X25554046Y-11592038D02*
X25554046Y-11379904D01*
X25341912Y-11379904D01*
X25341912Y-11592038D01*
X25554046Y-11592038D01*
X25554046Y-13497040D02*
X25554046Y-13284906D01*
X25341912Y-13284906D01*
X25341912Y-13497040D01*
X25554046Y-13497040D01*
X26189046Y-5623033D02*
X26189046Y-5410899D01*
X25976912Y-5410899D01*
X25976912Y-5623033D01*
X26189046Y-5623033D01*
X26189046Y-7528035D02*
X26189046Y-7315901D01*
X25976912Y-7315901D01*
X25976912Y-7528035D01*
X26189046Y-7528035D01*
X26189046Y-9433037D02*
X26189046Y-9220903D01*
X25976912Y-9220903D01*
X25976912Y-9433037D01*
X26189046Y-9433037D01*
X26189046Y-11338038D02*
X26189046Y-11125904D01*
X25976912Y-11125904D01*
X25976912Y-11338038D01*
X26189046Y-11338038D01*
X26189046Y-13243040D02*
X26189046Y-13030906D01*
X25976912Y-13030906D01*
X25976912Y-13243040D01*
X26189046Y-13243040D01*
X27459048Y-5877033D02*
X27459048Y-5664899D01*
X27246914Y-5664899D01*
X27246914Y-5877033D01*
X27459048Y-5877033D01*
X27459048Y-7782035D02*
X27459048Y-7569901D01*
X27246914Y-7569901D01*
X27246914Y-7782035D01*
X27459048Y-7782035D01*
X27459048Y-9687037D02*
X27459048Y-9474903D01*
X27246914Y-9474903D01*
X27246914Y-9687037D01*
X27459048Y-9687037D01*
X27459048Y-11592038D02*
X27459048Y-11379904D01*
X27246914Y-11379904D01*
X27246914Y-11592038D01*
X27459048Y-11592038D01*
X27459048Y-13497040D02*
X27459048Y-13284906D01*
X27246914Y-13284906D01*
X27246914Y-13497040D01*
X27459048Y-13497040D01*
X28094048Y-5623033D02*
X28094048Y-5410899D01*
X27881914Y-5410899D01*
X27881914Y-5623033D01*
X28094048Y-5623033D01*
X28094048Y-7528035D02*
X28094048Y-7315901D01*
X27881914Y-7315901D01*
X27881914Y-7528035D01*
X28094048Y-7528035D01*
X28094048Y-9433037D02*
X28094048Y-9220903D01*
X27881914Y-9220903D01*
X27881914Y-9433037D01*
X28094048Y-9433037D01*
X28094048Y-11338038D02*
X28094048Y-11125904D01*
X27881914Y-11125904D01*
X27881914Y-11338038D01*
X28094048Y-11338038D01*
X28094048Y-13243040D02*
X28094048Y-13030906D01*
X27881914Y-13030906D01*
X27881914Y-13243040D01*
X28094048Y-13243040D01*
X29364049Y-5877033D02*
X29364049Y-5664899D01*
X29151915Y-5664899D01*
X29151915Y-5877033D01*
X29364049Y-5877033D01*
X29364049Y-7782035D02*
X29364049Y-7569901D01*
X29151915Y-7569901D01*
X29151915Y-7782035D01*
X29364049Y-7782035D01*
X29364049Y-9687037D02*
X29364049Y-9474903D01*
X29151915Y-9474903D01*
X29151915Y-9687037D01*
X29364049Y-9687037D01*
X29364049Y-11592038D02*
X29364049Y-11379904D01*
X29151915Y-11379904D01*
X29151915Y-11592038D01*
X29364049Y-11592038D01*
X29364049Y-13497040D02*
X29364049Y-13284906D01*
X29151915Y-13284906D01*
X29151915Y-13497040D01*
X29364049Y-13497040D01*
X29999049Y-5623033D02*
X29999049Y-5410899D01*
X29786915Y-5410899D01*
X29786915Y-5623033D01*
X29999049Y-5623033D01*
X29999049Y-7528035D02*
X29999049Y-7315901D01*
X29786915Y-7315901D01*
X29786915Y-7528035D01*
X29999049Y-7528035D01*
X29999049Y-9433037D02*
X29999049Y-9220903D01*
X29786915Y-9220903D01*
X29786915Y-9433037D01*
X29999049Y-9433037D01*
X29999049Y-11338038D02*
X29999049Y-11125904D01*
X29786915Y-11125904D01*
X29786915Y-11338038D01*
X29999049Y-11338038D01*
X29999049Y-13243040D02*
X29999049Y-13030906D01*
X29786915Y-13030906D01*
X29786915Y-13243040D01*
X29999049Y-13243040D01*
X31269051Y-5877033D02*
X31269051Y-5664899D01*
X31056917Y-5664899D01*
X31056917Y-5877033D01*
X31269051Y-5877033D01*
X31269051Y-7782035D02*
X31269051Y-7569901D01*
X31056917Y-7569901D01*
X31056917Y-7782035D01*
X31269051Y-7782035D01*
X31269051Y-9687037D02*
X31269051Y-9474903D01*
X31056917Y-9474903D01*
X31056917Y-9687037D01*
X31269051Y-9687037D01*
X31269051Y-11592038D02*
X31269051Y-11379904D01*
X31056917Y-11379904D01*
X31056917Y-11592038D01*
X31269051Y-11592038D01*
X31269051Y-13497040D02*
X31269051Y-13284906D01*
X31056917Y-13284906D01*
X31056917Y-13497040D01*
X31269051Y-13497040D01*
X31904051Y-5623033D02*
X31904051Y-5410899D01*
X31691917Y-5410899D01*
X31691917Y-5623033D01*
X31904051Y-5623033D01*
X31904051Y-7528035D02*
X31904051Y-7315901D01*
X31691917Y-7315901D01*
X31691917Y-7528035D01*
X31904051Y-7528035D01*
X31904051Y-9433037D02*
X31904051Y-9220903D01*
X31691917Y-9220903D01*
X31691917Y-9433037D01*
X31904051Y-9433037D01*
X31904051Y-11338038D02*
X31904051Y-11125904D01*
X31691917Y-11125904D01*
X31691917Y-11338038D01*
X31904051Y-11338038D01*
X31904051Y-13243040D02*
X31904051Y-13030906D01*
X31691917Y-13030906D01*
X31691917Y-13243040D01*
X31904051Y-13243040D01*
D16*
X12252669Y-14495873D02*
X12405069Y-14343473D01*
X12252669Y-14191073D01*
X12100269Y-14343473D01*
X12252669Y-14495873D01*
X14640269Y-14495873D02*
X14792669Y-14343473D01*
X14640269Y-14191073D01*
X14487869Y-14343473D01*
X14640269Y-14495873D01*
X21777677Y-14495873D02*
X21930077Y-14343473D01*
X21777677Y-14191073D01*
X21625277Y-14343473D01*
X21777677Y-14495873D01*
X24165277Y-14495873D02*
X24317677Y-14343473D01*
X24165277Y-14191073D01*
X24012877Y-14343473D01*
X24165277Y-14495873D01*
D17*
X12053279Y-12620083D02*
X12452059Y-13018863D01*
X12452059Y-12620083D02*
X12053279Y-13018863D01*
X12452059Y-12819473D02*
G75*
G03*
X12452059Y-12819473I-199390J0D01*
G01*
X13247079Y-13445583D02*
X13645859Y-13844363D01*
X13645859Y-13445583D02*
X13247079Y-13844363D01*
X13645859Y-13644973D02*
G75*
G03*
X13645859Y-13644973I-199390J0D01*
G01*
X14440879Y-12620083D02*
X14839659Y-13018863D01*
X14839659Y-12620083D02*
X14440879Y-13018863D01*
X14839659Y-12819473D02*
G75*
G03*
X14839659Y-12819473I-199390J0D01*
G01*
X21578287Y-12620083D02*
X21977067Y-13018863D01*
X21977067Y-12620083D02*
X21578287Y-13018863D01*
X21977067Y-12819473D02*
G75*
G03*
X21977067Y-12819473I-199390J0D01*
G01*
X22772087Y-13445583D02*
X23170867Y-13844363D01*
X23170867Y-13445583D02*
X22772087Y-13844363D01*
X23170867Y-13644973D02*
G75*
G03*
X23170867Y-13644973I-199390J0D01*
G01*
X23965887Y-12620083D02*
X24364667Y-13018863D01*
X24364667Y-12620083D02*
X23965887Y-13018863D01*
X24364667Y-12819473D02*
G75*
G03*
X24364667Y-12819473I-199390J0D01*
G01*
D18*
X4668957Y-5819961D02*
X5078957Y-6229961D01*
X5078957Y-5819961D02*
X4668957Y-6229961D01*
X4873957Y-5819961D02*
X4873957Y-6229961D01*
X4668957Y-6024961D02*
X5078957Y-6024961D01*
X4668962Y-7724968D02*
X5078962Y-8134968D01*
X5078962Y-7724968D02*
X4668962Y-8134968D01*
X4873962Y-7724968D02*
X4873962Y-8134968D01*
X4668962Y-7929968D02*
X5078962Y-7929968D01*
X4668962Y-9629970D02*
X5078962Y-10039970D01*
X5078962Y-9629970D02*
X4668962Y-10039970D01*
X4873962Y-9629970D02*
X4873962Y-10039970D01*
X4668962Y-9834970D02*
X5078962Y-9834970D01*
X4668962Y-11534971D02*
X5078962Y-11944971D01*
X5078962Y-11534971D02*
X4668962Y-11944971D01*
X4873962Y-11534971D02*
X4873962Y-11944971D01*
X4668962Y-11739971D02*
X5078962Y-11739971D01*
X4668962Y-13439973D02*
X5078962Y-13849973D01*
X5078962Y-13439973D02*
X4668962Y-13849973D01*
X4873962Y-13439973D02*
X4873962Y-13849973D01*
X4668962Y-13644973D02*
X5078962Y-13644973D01*
X6573963Y-5819966D02*
X6983963Y-6229966D01*
X6983963Y-5819966D02*
X6573963Y-6229966D01*
X6778963Y-5819966D02*
X6778963Y-6229966D01*
X6573963Y-6024966D02*
X6983963Y-6024966D01*
X6573963Y-7724968D02*
X6983963Y-8134968D01*
X6983963Y-7724968D02*
X6573963Y-8134968D01*
X6778963Y-7724968D02*
X6778963Y-8134968D01*
X6573963Y-7929968D02*
X6983963Y-7929968D01*
X6573963Y-9629970D02*
X6983963Y-10039970D01*
X6983963Y-9629970D02*
X6573963Y-10039970D01*
X6778963Y-9629970D02*
X6778963Y-10039970D01*
X6573963Y-9834970D02*
X6983963Y-9834970D01*
X6573963Y-11534971D02*
X6983963Y-11944971D01*
X6983963Y-11534971D02*
X6573963Y-11944971D01*
X6778963Y-11534971D02*
X6778963Y-11944971D01*
X6573963Y-11739971D02*
X6983963Y-11739971D01*
X6573963Y-13439973D02*
X6983963Y-13849973D01*
X6983963Y-13439973D02*
X6573963Y-13849973D01*
X6778963Y-13439973D02*
X6778963Y-13849973D01*
X6573963Y-13644973D02*
X6983963Y-13644973D01*
X8478965Y-5819966D02*
X8888965Y-6229966D01*
X8888965Y-5819966D02*
X8478965Y-6229966D01*
X8683965Y-5819966D02*
X8683965Y-6229966D01*
X8478965Y-6024966D02*
X8888965Y-6024966D01*
X8478965Y-7724968D02*
X8888965Y-8134968D01*
X8888965Y-7724968D02*
X8478965Y-8134968D01*
X8683965Y-7724968D02*
X8683965Y-8134968D01*
X8478965Y-7929968D02*
X8888965Y-7929968D01*
X8478965Y-9629970D02*
X8888965Y-10039970D01*
X8888965Y-9629970D02*
X8478965Y-10039970D01*
X8683965Y-9629970D02*
X8683965Y-10039970D01*
X8478965Y-9834970D02*
X8888965Y-9834970D01*
X8478965Y-11534971D02*
X8888965Y-11944971D01*
X8888965Y-11534971D02*
X8478965Y-11944971D01*
X8683965Y-11534971D02*
X8683965Y-11944971D01*
X8478965Y-11739971D02*
X8888965Y-11739971D01*
X8478965Y-13439973D02*
X8888965Y-13849973D01*
X8888965Y-13439973D02*
X8478965Y-13849973D01*
X8683965Y-13439973D02*
X8683965Y-13849973D01*
X8478965Y-13644973D02*
X8888965Y-13644973D01*
X10383966Y-5819966D02*
X10793966Y-6229966D01*
X10793966Y-5819966D02*
X10383966Y-6229966D01*
X10588966Y-5819966D02*
X10588966Y-6229966D01*
X10383966Y-6024966D02*
X10793966Y-6024966D01*
X10383966Y-7724968D02*
X10793966Y-8134968D01*
X10793966Y-7724968D02*
X10383966Y-8134968D01*
X10588966Y-7724968D02*
X10588966Y-8134968D01*
X10383966Y-7929968D02*
X10793966Y-7929968D01*
X10383966Y-9629970D02*
X10793966Y-10039970D01*
X10793966Y-9629970D02*
X10383966Y-10039970D01*
X10588966Y-9629970D02*
X10588966Y-10039970D01*
X10383966Y-9834970D02*
X10793966Y-9834970D01*
X10383966Y-11534971D02*
X10793966Y-11944971D01*
X10793966Y-11534971D02*
X10383966Y-11944971D01*
X10588966Y-11534971D02*
X10588966Y-11944971D01*
X10383966Y-11739971D02*
X10793966Y-11739971D01*
X10383966Y-13439973D02*
X10793966Y-13849973D01*
X10793966Y-13439973D02*
X10383966Y-13849973D01*
X10588966Y-13439973D02*
X10588966Y-13849973D01*
X10383966Y-13644973D02*
X10793966Y-13644973D01*
X12288968Y-5819966D02*
X12698968Y-6229966D01*
X12698968Y-5819966D02*
X12288968Y-6229966D01*
X12493968Y-5819966D02*
X12493968Y-6229966D01*
X12288968Y-6024966D02*
X12698968Y-6024966D01*
X12288968Y-7724968D02*
X12698968Y-8134968D01*
X12698968Y-7724968D02*
X12288968Y-8134968D01*
X12493968Y-7724968D02*
X12493968Y-8134968D01*
X12288968Y-7929968D02*
X12698968Y-7929968D01*
X12288968Y-9629970D02*
X12698968Y-10039970D01*
X12698968Y-9629970D02*
X12288968Y-10039970D01*
X12493968Y-9629970D02*
X12493968Y-10039970D01*
X12288968Y-9834970D02*
X12698968Y-9834970D01*
X12288968Y-11534971D02*
X12698968Y-11944971D01*
X12698968Y-11534971D02*
X12288968Y-11944971D01*
X12493968Y-11534971D02*
X12493968Y-11944971D01*
X12288968Y-11739971D02*
X12698968Y-11739971D01*
X12288968Y-13439973D02*
X12698968Y-13849973D01*
X12698968Y-13439973D02*
X12288968Y-13849973D01*
X12493968Y-13439973D02*
X12493968Y-13849973D01*
X12288968Y-13644973D02*
X12698968Y-13644973D01*
X14193970Y-5819966D02*
X14603970Y-6229966D01*
X14603970Y-5819966D02*
X14193970Y-6229966D01*
X14398970Y-5819966D02*
X14398970Y-6229966D01*
X14193970Y-6024966D02*
X14603970Y-6024966D01*
X14193970Y-7724968D02*
X14603970Y-8134968D01*
X14603970Y-7724968D02*
X14193970Y-8134968D01*
X14398970Y-7724968D02*
X14398970Y-8134968D01*
X14193970Y-7929968D02*
X14603970Y-7929968D01*
X14193970Y-9629970D02*
X14603970Y-10039970D01*
X14603970Y-9629970D02*
X14193970Y-10039970D01*
X14398970Y-9629970D02*
X14398970Y-10039970D01*
X14193970Y-9834970D02*
X14603970Y-9834970D01*
X14193970Y-11534971D02*
X14603970Y-11944971D01*
X14603970Y-11534971D02*
X14193970Y-11944971D01*
X14398970Y-11534971D02*
X14398970Y-11944971D01*
X14193970Y-11739971D02*
X14603970Y-11739971D01*
X14193970Y-13439973D02*
X14603970Y-13849973D01*
X14603970Y-13439973D02*
X14193970Y-13849973D01*
X14398970Y-13439973D02*
X14398970Y-13849973D01*
X14193970Y-13644973D02*
X14603970Y-13644973D01*
X21813976Y-5819966D02*
X22223976Y-6229966D01*
X22223976Y-5819966D02*
X21813976Y-6229966D01*
X22018976Y-5819966D02*
X22018976Y-6229966D01*
X21813976Y-6024966D02*
X22223976Y-6024966D01*
X21813976Y-7724968D02*
X22223976Y-8134968D01*
X22223976Y-7724968D02*
X21813976Y-8134968D01*
X22018976Y-7724968D02*
X22018976Y-8134968D01*
X21813976Y-7929968D02*
X22223976Y-7929968D01*
X21813976Y-9629970D02*
X22223976Y-10039970D01*
X22223976Y-9629970D02*
X21813976Y-10039970D01*
X22018976Y-9629970D02*
X22018976Y-10039970D01*
X21813976Y-9834970D02*
X22223976Y-9834970D01*
X21813976Y-9629970D02*
X22223976Y-10039970D01*
X22223976Y-9629970D02*
X21813976Y-10039970D01*
X22018976Y-9629970D02*
X22018976Y-10039970D01*
X21813976Y-9834970D02*
X22223976Y-9834970D01*
X21813976Y-11534971D02*
X22223976Y-11944971D01*
X22223976Y-11534971D02*
X21813976Y-11944971D01*
X22018976Y-11534971D02*
X22018976Y-11944971D01*
X21813976Y-11739971D02*
X22223976Y-11739971D01*
X21813976Y-13439973D02*
X22223976Y-13849973D01*
X22223976Y-13439973D02*
X21813976Y-13849973D01*
X22018976Y-13439973D02*
X22018976Y-13849973D01*
X21813976Y-13644973D02*
X22223976Y-13644973D01*
X23718978Y-5819966D02*
X24128978Y-6229966D01*
X24128978Y-5819966D02*
X23718978Y-6229966D01*
X23923978Y-5819966D02*
X23923978Y-6229966D01*
X23718978Y-6024966D02*
X24128978Y-6024966D01*
X23718978Y-7724968D02*
X24128978Y-8134968D01*
X24128978Y-7724968D02*
X23718978Y-8134968D01*
X23923978Y-7724968D02*
X23923978Y-8134968D01*
X23718978Y-7929968D02*
X24128978Y-7929968D01*
X23718978Y-9629970D02*
X24128978Y-10039970D01*
X24128978Y-9629970D02*
X23718978Y-10039970D01*
X23923978Y-9629970D02*
X23923978Y-10039970D01*
X23718978Y-9834970D02*
X24128978Y-9834970D01*
X23718978Y-11534971D02*
X24128978Y-11944971D01*
X24128978Y-11534971D02*
X23718978Y-11944971D01*
X23923978Y-11534971D02*
X23923978Y-11944971D01*
X23718978Y-11739971D02*
X24128978Y-11739971D01*
X23718978Y-13439973D02*
X24128978Y-13849973D01*
X24128978Y-13439973D02*
X23718978Y-13849973D01*
X23923978Y-13439973D02*
X23923978Y-13849973D01*
X23718978Y-13644973D02*
X24128978Y-13644973D01*
X25623979Y-5819966D02*
X26033979Y-6229966D01*
X26033979Y-5819966D02*
X25623979Y-6229966D01*
X25828979Y-5819966D02*
X25828979Y-6229966D01*
X25623979Y-6024966D02*
X26033979Y-6024966D01*
X25623979Y-7724968D02*
X26033979Y-8134968D01*
X26033979Y-7724968D02*
X25623979Y-8134968D01*
X25828979Y-7724968D02*
X25828979Y-8134968D01*
X25623979Y-7929968D02*
X26033979Y-7929968D01*
X25623979Y-9629970D02*
X26033979Y-10039970D01*
X26033979Y-9629970D02*
X25623979Y-10039970D01*
X25828979Y-9629970D02*
X25828979Y-10039970D01*
X25623979Y-9834970D02*
X26033979Y-9834970D01*
X25623979Y-11534971D02*
X26033979Y-11944971D01*
X26033979Y-11534971D02*
X25623979Y-11944971D01*
X25828979Y-11534971D02*
X25828979Y-11944971D01*
X25623979Y-11739971D02*
X26033979Y-11739971D01*
X25623979Y-13439973D02*
X26033979Y-13849973D01*
X26033979Y-13439973D02*
X25623979Y-13849973D01*
X25828979Y-13439973D02*
X25828979Y-13849973D01*
X25623979Y-13644973D02*
X26033979Y-13644973D01*
X27528981Y-5819966D02*
X27938981Y-6229966D01*
X27938981Y-5819966D02*
X27528981Y-6229966D01*
X27733981Y-5819966D02*
X27733981Y-6229966D01*
X27528981Y-6024966D02*
X27938981Y-6024966D01*
X27528981Y-7724968D02*
X27938981Y-8134968D01*
X27938981Y-7724968D02*
X27528981Y-8134968D01*
X27733981Y-7724968D02*
X27733981Y-8134968D01*
X27528981Y-7929968D02*
X27938981Y-7929968D01*
X27528981Y-9629970D02*
X27938981Y-10039970D01*
X27938981Y-9629970D02*
X27528981Y-10039970D01*
X27733981Y-9629970D02*
X27733981Y-10039970D01*
X27528981Y-9834970D02*
X27938981Y-9834970D01*
X27528981Y-11534971D02*
X27938981Y-11944971D01*
X27938981Y-11534971D02*
X27528981Y-11944971D01*
X27733981Y-11534971D02*
X27733981Y-11944971D01*
X27528981Y-11739971D02*
X27938981Y-11739971D01*
X27528981Y-13439973D02*
X27938981Y-13849973D01*
X27938981Y-13439973D02*
X27528981Y-13849973D01*
X27733981Y-13439973D02*
X27733981Y-13849973D01*
X27528981Y-13644973D02*
X27938981Y-13644973D01*
X29433982Y-5819966D02*
X29843982Y-6229966D01*
X29843982Y-5819966D02*
X29433982Y-6229966D01*
X29638982Y-5819966D02*
X29638982Y-6229966D01*
X29433982Y-6024966D02*
X29843982Y-6024966D01*
X29433982Y-7724968D02*
X29843982Y-8134968D01*
X29843982Y-7724968D02*
X29433982Y-8134968D01*
X29638982Y-7724968D02*
X29638982Y-8134968D01*
X29433982Y-7929968D02*
X29843982Y-7929968D01*
X29433982Y-9629970D02*
X29843982Y-10039970D01*
X29843982Y-9629970D02*
X29433982Y-10039970D01*
X29638982Y-9629970D02*
X29638982Y-10039970D01*
X29433982Y-9834970D02*
X29843982Y-9834970D01*
X29433982Y-11534971D02*
X29843982Y-11944971D01*
X29843982Y-11534971D02*
X29433982Y-11944971D01*
X29638982Y-11534971D02*
X29638982Y-11944971D01*
X29433982Y-11739971D02*
X29843982Y-11739971D01*
X29433982Y-13439973D02*
X29843982Y-13849973D01*
X29843982Y-13439973D02*
X29433982Y-13849973D01*
X29638982Y-13439973D02*
X29638982Y-13849973D01*
X29433982Y-13644973D02*
X29843982Y-13644973D01*
X31338984Y-5819966D02*
X31748984Y-6229966D01*
X31748984Y-5819966D02*
X31338984Y-6229966D01*
X31543984Y-5819966D02*
X31543984Y-6229966D01*
X31338984Y-6024966D02*
X31748984Y-6024966D01*
X31338984Y-7724968D02*
X31748984Y-8134968D01*
X31748984Y-7724968D02*
X31338984Y-8134968D01*
X31543984Y-7724968D02*
X31543984Y-8134968D01*
X31338984Y-7929968D02*
X31748984Y-7929968D01*
X31338984Y-9629970D02*
X31748984Y-10039970D01*
X31748984Y-9629970D02*
X31338984Y-10039970D01*
X31543984Y-9629970D02*
X31543984Y-10039970D01*
X31338984Y-9834970D02*
X31748984Y-9834970D01*
X31338984Y-11534971D02*
X31748984Y-11944971D01*
X31748984Y-11534971D02*
X31338984Y-11944971D01*
X31543984Y-11534971D02*
X31543984Y-11944971D01*
X31338984Y-11739971D02*
X31748984Y-11739971D01*
X31338984Y-13439973D02*
X31748984Y-13849973D01*
X31748984Y-13439973D02*
X31338984Y-13849973D01*
X31543984Y-13439973D02*
X31543984Y-13849973D01*
X31338984Y-13644973D02*
X31748984Y-13644973D01*
D11*
X4221579Y-14866062D02*
X4221579Y-14666062D01*
X4269198Y-14666062D01*
X4297770Y-14675586D01*
X4316817Y-14694634D01*
X4326341Y-14713681D01*
X4335865Y-14751776D01*
X4335865Y-14780348D01*
X4326341Y-14818443D01*
X4316817Y-14837491D01*
X4297770Y-14856538D01*
X4269198Y-14866062D01*
X4221579Y-14866062D01*
X4421579Y-14866062D02*
X4421579Y-14732729D01*
X4421579Y-14770824D02*
X4431103Y-14751776D01*
X4440627Y-14742253D01*
X4459674Y-14732729D01*
X4478722Y-14732729D01*
X4545389Y-14866062D02*
X4545389Y-14732729D01*
X4545389Y-14666062D02*
X4535865Y-14675586D01*
X4545389Y-14685110D01*
X4554912Y-14675586D01*
X4545389Y-14666062D01*
X4545389Y-14685110D01*
X4669198Y-14866062D02*
X4650150Y-14856538D01*
X4640627Y-14837491D01*
X4640627Y-14666062D01*
X4773960Y-14866062D02*
X4754912Y-14856538D01*
X4745389Y-14837491D01*
X4745389Y-14666062D01*
X5002531Y-14866062D02*
X5002531Y-14666062D01*
X5069198Y-14808919D01*
X5135865Y-14666062D01*
X5135865Y-14866062D01*
X5316817Y-14866062D02*
X5316817Y-14761300D01*
X5307293Y-14742253D01*
X5288246Y-14732729D01*
X5250150Y-14732729D01*
X5231103Y-14742253D01*
X5316817Y-14856538D02*
X5297770Y-14866062D01*
X5250150Y-14866062D01*
X5231103Y-14856538D01*
X5221579Y-14837491D01*
X5221579Y-14818443D01*
X5231103Y-14799395D01*
X5250150Y-14789872D01*
X5297770Y-14789872D01*
X5316817Y-14780348D01*
X5412055Y-14732729D02*
X5412055Y-14932729D01*
X5412055Y-14742253D02*
X5431103Y-14732729D01*
X5469198Y-14732729D01*
X5488246Y-14742253D01*
X5497770Y-14751776D01*
X5507293Y-14770824D01*
X5507293Y-14827967D01*
X5497770Y-14847014D01*
X5488246Y-14856538D01*
X5469198Y-14866062D01*
X5431103Y-14866062D01*
X5412055Y-14856538D01*
X5593008Y-14847014D02*
X5602531Y-14856538D01*
X5593008Y-14866062D01*
X5583484Y-14856538D01*
X5593008Y-14847014D01*
X5593008Y-14866062D01*
X5593008Y-14742253D02*
X5602531Y-14751776D01*
X5593008Y-14761300D01*
X5583484Y-14751776D01*
X5593008Y-14742253D01*
X5593008Y-14761300D01*
D12*
X3788960Y-15108086D02*
X3963960Y-15283086D01*
X3963960Y-15108086D02*
X3788960Y-15283086D01*
D11*
X4326341Y-15286062D02*
X4212055Y-15286062D01*
X4269198Y-15286062D02*
X4269198Y-15086062D01*
X4250150Y-15114634D01*
X4231103Y-15133681D01*
X4212055Y-15143205D01*
X4412055Y-15267014D02*
X4421579Y-15276538D01*
X4412055Y-15286062D01*
X4402531Y-15276538D01*
X4412055Y-15267014D01*
X4412055Y-15286062D01*
X4488246Y-15086062D02*
X4621579Y-15086062D01*
X4535865Y-15286062D01*
X4793008Y-15086062D02*
X4697770Y-15086062D01*
X4688246Y-15181300D01*
X4697770Y-15171776D01*
X4716817Y-15162253D01*
X4764436Y-15162253D01*
X4783484Y-15171776D01*
X4793008Y-15181300D01*
X4802531Y-15200348D01*
X4802531Y-15247967D01*
X4793008Y-15267014D01*
X4783484Y-15276538D01*
X4764436Y-15286062D01*
X4716817Y-15286062D01*
X4697770Y-15276538D01*
X4688246Y-15267014D01*
X4926341Y-15086062D02*
X4945389Y-15086062D01*
X4964436Y-15095586D01*
X4973960Y-15105110D01*
X4983484Y-15124157D01*
X4993008Y-15162253D01*
X4993008Y-15209872D01*
X4983484Y-15247967D01*
X4973960Y-15267014D01*
X4964436Y-15276538D01*
X4945389Y-15286062D01*
X4926341Y-15286062D01*
X4907293Y-15276538D01*
X4897770Y-15267014D01*
X4888246Y-15247967D01*
X4878722Y-15209872D01*
X4878722Y-15162253D01*
X4888246Y-15124157D01*
X4897770Y-15105110D01*
X4907293Y-15095586D01*
X4926341Y-15086062D01*
X5078722Y-15286062D02*
X5078722Y-15152729D01*
X5078722Y-15171776D02*
X5088246Y-15162253D01*
X5107293Y-15152729D01*
X5135865Y-15152729D01*
X5154912Y-15162253D01*
X5164436Y-15181300D01*
X5164436Y-15286062D01*
X5164436Y-15181300D02*
X5173960Y-15162253D01*
X5193008Y-15152729D01*
X5221579Y-15152729D01*
X5240627Y-15162253D01*
X5250150Y-15181300D01*
X5250150Y-15286062D01*
X5345389Y-15286062D02*
X5345389Y-15152729D01*
X5345389Y-15171776D02*
X5354912Y-15162253D01*
X5373960Y-15152729D01*
X5402531Y-15152729D01*
X5421579Y-15162253D01*
X5431103Y-15181300D01*
X5431103Y-15286062D01*
X5431103Y-15181300D02*
X5440627Y-15162253D01*
X5459674Y-15152729D01*
X5488246Y-15152729D01*
X5507293Y-15162253D01*
X5516817Y-15181300D01*
X5516817Y-15286062D01*
X5907293Y-15076538D02*
X5735865Y-15333681D01*
X6164436Y-15086062D02*
X6183484Y-15086062D01*
X6202531Y-15095586D01*
X6212055Y-15105110D01*
X6221579Y-15124157D01*
X6231103Y-15162253D01*
X6231103Y-15209872D01*
X6221579Y-15247967D01*
X6212055Y-15267014D01*
X6202531Y-15276538D01*
X6183484Y-15286062D01*
X6164436Y-15286062D01*
X6145388Y-15276538D01*
X6135865Y-15267014D01*
X6126341Y-15247967D01*
X6116817Y-15209872D01*
X6116817Y-15162253D01*
X6126341Y-15124157D01*
X6135865Y-15105110D01*
X6145388Y-15095586D01*
X6164436Y-15086062D01*
X6316817Y-15267014D02*
X6326341Y-15276538D01*
X6316817Y-15286062D01*
X6307293Y-15276538D01*
X6316817Y-15267014D01*
X6316817Y-15286062D01*
X6450150Y-15086062D02*
X6469198Y-15086062D01*
X6488246Y-15095586D01*
X6497769Y-15105110D01*
X6507293Y-15124157D01*
X6516817Y-15162253D01*
X6516817Y-15209872D01*
X6507293Y-15247967D01*
X6497769Y-15267014D01*
X6488246Y-15276538D01*
X6469198Y-15286062D01*
X6450150Y-15286062D01*
X6431103Y-15276538D01*
X6421579Y-15267014D01*
X6412055Y-15247967D01*
X6402531Y-15209872D01*
X6402531Y-15162253D01*
X6412055Y-15124157D01*
X6421579Y-15105110D01*
X6431103Y-15095586D01*
X6450150Y-15086062D01*
X6688246Y-15086062D02*
X6650150Y-15086062D01*
X6631103Y-15095586D01*
X6621579Y-15105110D01*
X6602531Y-15133681D01*
X6593008Y-15171776D01*
X6593008Y-15247967D01*
X6602531Y-15267014D01*
X6612055Y-15276538D01*
X6631103Y-15286062D01*
X6669198Y-15286062D01*
X6688246Y-15276538D01*
X6697769Y-15267014D01*
X6707293Y-15247967D01*
X6707293Y-15200348D01*
X6697769Y-15181300D01*
X6688246Y-15171776D01*
X6669198Y-15162253D01*
X6631103Y-15162253D01*
X6612055Y-15171776D01*
X6602531Y-15181300D01*
X6593008Y-15200348D01*
X6821579Y-15171776D02*
X6802531Y-15162253D01*
X6793008Y-15152729D01*
X6783484Y-15133681D01*
X6783484Y-15124157D01*
X6793008Y-15105110D01*
X6802531Y-15095586D01*
X6821579Y-15086062D01*
X6859674Y-15086062D01*
X6878722Y-15095586D01*
X6888246Y-15105110D01*
X6897769Y-15124157D01*
X6897769Y-15133681D01*
X6888246Y-15152729D01*
X6878722Y-15162253D01*
X6859674Y-15171776D01*
X6821579Y-15171776D01*
X6802531Y-15181300D01*
X6793008Y-15190824D01*
X6783484Y-15209872D01*
X6783484Y-15247967D01*
X6793008Y-15267014D01*
X6802531Y-15276538D01*
X6821579Y-15286062D01*
X6859674Y-15286062D01*
X6878722Y-15276538D01*
X6888246Y-15267014D01*
X6897769Y-15247967D01*
X6897769Y-15209872D01*
X6888246Y-15190824D01*
X6878722Y-15181300D01*
X6859674Y-15171776D01*
X6993008Y-15286062D02*
X7031103Y-15286062D01*
X7050150Y-15276538D01*
X7059674Y-15267014D01*
X7078722Y-15238443D01*
X7088246Y-15200348D01*
X7088246Y-15124157D01*
X7078722Y-15105110D01*
X7069198Y-15095586D01*
X7050150Y-15086062D01*
X7012055Y-15086062D01*
X6993008Y-15095586D01*
X6983484Y-15105110D01*
X6973960Y-15124157D01*
X6973960Y-15171776D01*
X6983484Y-15190824D01*
X6993008Y-15200348D01*
X7012055Y-15209872D01*
X7050150Y-15209872D01*
X7069198Y-15200348D01*
X7078722Y-15190824D01*
X7088246Y-15171776D01*
X7164436Y-15086062D02*
X7164436Y-15124157D01*
X7240627Y-15086062D02*
X7240627Y-15124157D01*
X7535865Y-15362253D02*
X7526341Y-15352729D01*
X7507293Y-15324157D01*
X7497769Y-15305110D01*
X7488246Y-15276538D01*
X7478722Y-15228919D01*
X7478722Y-15190824D01*
X7488246Y-15143205D01*
X7497769Y-15114634D01*
X7507293Y-15095586D01*
X7526341Y-15067014D01*
X7535865Y-15057491D01*
X7697769Y-15152729D02*
X7697769Y-15286062D01*
X7650150Y-15076538D02*
X7602531Y-15219395D01*
X7726341Y-15219395D01*
X7954912Y-15286062D02*
X7954912Y-15086062D01*
X8040627Y-15286062D02*
X8040627Y-15181300D01*
X8031103Y-15162253D01*
X8012055Y-15152729D01*
X7983484Y-15152729D01*
X7964436Y-15162253D01*
X7954912Y-15171776D01*
X8164436Y-15286062D02*
X8145388Y-15276538D01*
X8135865Y-15267014D01*
X8126341Y-15247967D01*
X8126341Y-15190824D01*
X8135865Y-15171776D01*
X8145388Y-15162253D01*
X8164436Y-15152729D01*
X8193008Y-15152729D01*
X8212055Y-15162253D01*
X8221579Y-15171776D01*
X8231103Y-15190824D01*
X8231103Y-15247967D01*
X8221579Y-15267014D01*
X8212055Y-15276538D01*
X8193008Y-15286062D01*
X8164436Y-15286062D01*
X8345388Y-15286062D02*
X8326341Y-15276538D01*
X8316817Y-15257491D01*
X8316817Y-15086062D01*
X8497770Y-15276538D02*
X8478722Y-15286062D01*
X8440627Y-15286062D01*
X8421579Y-15276538D01*
X8412055Y-15257491D01*
X8412055Y-15181300D01*
X8421579Y-15162253D01*
X8440627Y-15152729D01*
X8478722Y-15152729D01*
X8497770Y-15162253D01*
X8507293Y-15181300D01*
X8507293Y-15200348D01*
X8412055Y-15219395D01*
X8583484Y-15276538D02*
X8602531Y-15286062D01*
X8640627Y-15286062D01*
X8659674Y-15276538D01*
X8669198Y-15257491D01*
X8669198Y-15247967D01*
X8659674Y-15228919D01*
X8640627Y-15219395D01*
X8612055Y-15219395D01*
X8593008Y-15209872D01*
X8583484Y-15190824D01*
X8583484Y-15181300D01*
X8593008Y-15162253D01*
X8612055Y-15152729D01*
X8640627Y-15152729D01*
X8659674Y-15162253D01*
X8735865Y-15362253D02*
X8745389Y-15352729D01*
X8764436Y-15324157D01*
X8773960Y-15305110D01*
X8783484Y-15276538D01*
X8793008Y-15228919D01*
X8793008Y-15190824D01*
X8783484Y-15143205D01*
X8773960Y-15114634D01*
X8764436Y-15095586D01*
X8745389Y-15067014D01*
X8735865Y-15057491D01*
X9097770Y-15362253D02*
X9088246Y-15352729D01*
X9069198Y-15324157D01*
X9059674Y-15305110D01*
X9050150Y-15276538D01*
X9040627Y-15228919D01*
X9040627Y-15190824D01*
X9050150Y-15143205D01*
X9059674Y-15114634D01*
X9069198Y-15095586D01*
X9088246Y-15067014D01*
X9097770Y-15057491D01*
X9173960Y-15152729D02*
X9173960Y-15286062D01*
X9173960Y-15171776D02*
X9183484Y-15162253D01*
X9202531Y-15152729D01*
X9231103Y-15152729D01*
X9250150Y-15162253D01*
X9259674Y-15181300D01*
X9259674Y-15286062D01*
X9383484Y-15286062D02*
X9364436Y-15276538D01*
X9354912Y-15267014D01*
X9345389Y-15247967D01*
X9345389Y-15190824D01*
X9354912Y-15171776D01*
X9364436Y-15162253D01*
X9383484Y-15152729D01*
X9412055Y-15152729D01*
X9431103Y-15162253D01*
X9440627Y-15171776D01*
X9450150Y-15190824D01*
X9450150Y-15247967D01*
X9440627Y-15267014D01*
X9431103Y-15276538D01*
X9412055Y-15286062D01*
X9383484Y-15286062D01*
X9507293Y-15152729D02*
X9583484Y-15152729D01*
X9535865Y-15086062D02*
X9535865Y-15257491D01*
X9545389Y-15276538D01*
X9564436Y-15286062D01*
X9583484Y-15286062D01*
X9802531Y-15152729D02*
X9802531Y-15352729D01*
X9802531Y-15162253D02*
X9821579Y-15152729D01*
X9859674Y-15152729D01*
X9878722Y-15162253D01*
X9888246Y-15171776D01*
X9897770Y-15190824D01*
X9897770Y-15247967D01*
X9888246Y-15267014D01*
X9878722Y-15276538D01*
X9859674Y-15286062D01*
X9821579Y-15286062D01*
X9802531Y-15276538D01*
X10012055Y-15286062D02*
X9993008Y-15276538D01*
X9983484Y-15257491D01*
X9983484Y-15086062D01*
X10173960Y-15286062D02*
X10173960Y-15181300D01*
X10164436Y-15162253D01*
X10145389Y-15152729D01*
X10107293Y-15152729D01*
X10088246Y-15162253D01*
X10173960Y-15276538D02*
X10154912Y-15286062D01*
X10107293Y-15286062D01*
X10088246Y-15276538D01*
X10078722Y-15257491D01*
X10078722Y-15238443D01*
X10088246Y-15219395D01*
X10107293Y-15209872D01*
X10154912Y-15209872D01*
X10173960Y-15200348D01*
X10240627Y-15152729D02*
X10316817Y-15152729D01*
X10269198Y-15086062D02*
X10269198Y-15257491D01*
X10278722Y-15276538D01*
X10297770Y-15286062D01*
X10316817Y-15286062D01*
X10459674Y-15276538D02*
X10440627Y-15286062D01*
X10402531Y-15286062D01*
X10383484Y-15276538D01*
X10373960Y-15257491D01*
X10373960Y-15181300D01*
X10383484Y-15162253D01*
X10402531Y-15152729D01*
X10440627Y-15152729D01*
X10459674Y-15162253D01*
X10469198Y-15181300D01*
X10469198Y-15200348D01*
X10373960Y-15219395D01*
X10640627Y-15286062D02*
X10640627Y-15086062D01*
X10640627Y-15276538D02*
X10621579Y-15286062D01*
X10583484Y-15286062D01*
X10564436Y-15276538D01*
X10554912Y-15267014D01*
X10545389Y-15247967D01*
X10545389Y-15190824D01*
X10554912Y-15171776D01*
X10564436Y-15162253D01*
X10583484Y-15152729D01*
X10621579Y-15152729D01*
X10640627Y-15162253D01*
X10716817Y-15362253D02*
X10726341Y-15352729D01*
X10745389Y-15324157D01*
X10754912Y-15305110D01*
X10764436Y-15276538D01*
X10773960Y-15228919D01*
X10773960Y-15190824D01*
X10764436Y-15143205D01*
X10754912Y-15114634D01*
X10745389Y-15095586D01*
X10726341Y-15067014D01*
X10716817Y-15057491D01*
D13*
X3963960Y-15490586D02*
G75*
G03*
X3963960Y-15490586I-95000J0D01*
G01*
D11*
X4326341Y-15581062D02*
X4212055Y-15581062D01*
X4269198Y-15581062D02*
X4269198Y-15381062D01*
X4250150Y-15409634D01*
X4231103Y-15428681D01*
X4212055Y-15438205D01*
X4412055Y-15562014D02*
X4421579Y-15571538D01*
X4412055Y-15581062D01*
X4402531Y-15571538D01*
X4412055Y-15562014D01*
X4412055Y-15581062D01*
X4516817Y-15581062D02*
X4554912Y-15581062D01*
X4573960Y-15571538D01*
X4583484Y-15562014D01*
X4602531Y-15533443D01*
X4612055Y-15495348D01*
X4612055Y-15419157D01*
X4602531Y-15400110D01*
X4593008Y-15390586D01*
X4573960Y-15381062D01*
X4535865Y-15381062D01*
X4516817Y-15390586D01*
X4507293Y-15400110D01*
X4497770Y-15419157D01*
X4497770Y-15466776D01*
X4507293Y-15485824D01*
X4516817Y-15495348D01*
X4535865Y-15504872D01*
X4573960Y-15504872D01*
X4593008Y-15495348D01*
X4602531Y-15485824D01*
X4612055Y-15466776D01*
X4735865Y-15381062D02*
X4754912Y-15381062D01*
X4773960Y-15390586D01*
X4783484Y-15400110D01*
X4793008Y-15419157D01*
X4802531Y-15457253D01*
X4802531Y-15504872D01*
X4793008Y-15542967D01*
X4783484Y-15562014D01*
X4773960Y-15571538D01*
X4754912Y-15581062D01*
X4735865Y-15581062D01*
X4716817Y-15571538D01*
X4707293Y-15562014D01*
X4697770Y-15542967D01*
X4688246Y-15504872D01*
X4688246Y-15457253D01*
X4697770Y-15419157D01*
X4707293Y-15400110D01*
X4716817Y-15390586D01*
X4735865Y-15381062D01*
X4926341Y-15381062D02*
X4945389Y-15381062D01*
X4964436Y-15390586D01*
X4973960Y-15400110D01*
X4983484Y-15419157D01*
X4993008Y-15457253D01*
X4993008Y-15504872D01*
X4983484Y-15542967D01*
X4973960Y-15562014D01*
X4964436Y-15571538D01*
X4945389Y-15581062D01*
X4926341Y-15581062D01*
X4907293Y-15571538D01*
X4897770Y-15562014D01*
X4888246Y-15542967D01*
X4878722Y-15504872D01*
X4878722Y-15457253D01*
X4888246Y-15419157D01*
X4897770Y-15400110D01*
X4907293Y-15390586D01*
X4926341Y-15381062D01*
X5078722Y-15581062D02*
X5078722Y-15447729D01*
X5078722Y-15466776D02*
X5088246Y-15457253D01*
X5107293Y-15447729D01*
X5135865Y-15447729D01*
X5154912Y-15457253D01*
X5164436Y-15476300D01*
X5164436Y-15581062D01*
X5164436Y-15476300D02*
X5173960Y-15457253D01*
X5193008Y-15447729D01*
X5221579Y-15447729D01*
X5240627Y-15457253D01*
X5250150Y-15476300D01*
X5250150Y-15581062D01*
X5345389Y-15581062D02*
X5345389Y-15447729D01*
X5345389Y-15466776D02*
X5354912Y-15457253D01*
X5373960Y-15447729D01*
X5402531Y-15447729D01*
X5421579Y-15457253D01*
X5431103Y-15476300D01*
X5431103Y-15581062D01*
X5431103Y-15476300D02*
X5440627Y-15457253D01*
X5459674Y-15447729D01*
X5488246Y-15447729D01*
X5507293Y-15457253D01*
X5516817Y-15476300D01*
X5516817Y-15581062D01*
X5907293Y-15371538D02*
X5735865Y-15628681D01*
X6164436Y-15381062D02*
X6183484Y-15381062D01*
X6202531Y-15390586D01*
X6212055Y-15400110D01*
X6221579Y-15419157D01*
X6231103Y-15457253D01*
X6231103Y-15504872D01*
X6221579Y-15542967D01*
X6212055Y-15562014D01*
X6202531Y-15571538D01*
X6183484Y-15581062D01*
X6164436Y-15581062D01*
X6145388Y-15571538D01*
X6135865Y-15562014D01*
X6126341Y-15542967D01*
X6116817Y-15504872D01*
X6116817Y-15457253D01*
X6126341Y-15419157D01*
X6135865Y-15400110D01*
X6145388Y-15390586D01*
X6164436Y-15381062D01*
X6316817Y-15562014D02*
X6326341Y-15571538D01*
X6316817Y-15581062D01*
X6307293Y-15571538D01*
X6316817Y-15562014D01*
X6316817Y-15581062D01*
X6450150Y-15381062D02*
X6469198Y-15381062D01*
X6488246Y-15390586D01*
X6497769Y-15400110D01*
X6507293Y-15419157D01*
X6516817Y-15457253D01*
X6516817Y-15504872D01*
X6507293Y-15542967D01*
X6497769Y-15562014D01*
X6488246Y-15571538D01*
X6469198Y-15581062D01*
X6450150Y-15581062D01*
X6431103Y-15571538D01*
X6421579Y-15562014D01*
X6412055Y-15542967D01*
X6402531Y-15504872D01*
X6402531Y-15457253D01*
X6412055Y-15419157D01*
X6421579Y-15400110D01*
X6431103Y-15390586D01*
X6450150Y-15381062D01*
X6583484Y-15381062D02*
X6716817Y-15381062D01*
X6631103Y-15581062D01*
X6878722Y-15447729D02*
X6878722Y-15581062D01*
X6831103Y-15371538D02*
X6783484Y-15514395D01*
X6907293Y-15514395D01*
X7012055Y-15466776D02*
X6993008Y-15457253D01*
X6983484Y-15447729D01*
X6973960Y-15428681D01*
X6973960Y-15419157D01*
X6983484Y-15400110D01*
X6993008Y-15390586D01*
X7012055Y-15381062D01*
X7050150Y-15381062D01*
X7069198Y-15390586D01*
X7078722Y-15400110D01*
X7088246Y-15419157D01*
X7088246Y-15428681D01*
X7078722Y-15447729D01*
X7069198Y-15457253D01*
X7050150Y-15466776D01*
X7012055Y-15466776D01*
X6993008Y-15476300D01*
X6983484Y-15485824D01*
X6973960Y-15504872D01*
X6973960Y-15542967D01*
X6983484Y-15562014D01*
X6993008Y-15571538D01*
X7012055Y-15581062D01*
X7050150Y-15581062D01*
X7069198Y-15571538D01*
X7078722Y-15562014D01*
X7088246Y-15542967D01*
X7088246Y-15504872D01*
X7078722Y-15485824D01*
X7069198Y-15476300D01*
X7050150Y-15466776D01*
X7164436Y-15381062D02*
X7164436Y-15419157D01*
X7240627Y-15381062D02*
X7240627Y-15419157D01*
X7535865Y-15657253D02*
X7526341Y-15647729D01*
X7507293Y-15619157D01*
X7497769Y-15600110D01*
X7488246Y-15571538D01*
X7478722Y-15523919D01*
X7478722Y-15485824D01*
X7488246Y-15438205D01*
X7497769Y-15409634D01*
X7507293Y-15390586D01*
X7526341Y-15362014D01*
X7535865Y-15352491D01*
X7716817Y-15581062D02*
X7602531Y-15581062D01*
X7659674Y-15581062D02*
X7659674Y-15381062D01*
X7640627Y-15409634D01*
X7621579Y-15428681D01*
X7602531Y-15438205D01*
X7793008Y-15400110D02*
X7802531Y-15390586D01*
X7821579Y-15381062D01*
X7869198Y-15381062D01*
X7888246Y-15390586D01*
X7897769Y-15400110D01*
X7907293Y-15419157D01*
X7907293Y-15438205D01*
X7897769Y-15466776D01*
X7783484Y-15581062D01*
X7907293Y-15581062D01*
X7983484Y-15400110D02*
X7993008Y-15390586D01*
X8012055Y-15381062D01*
X8059674Y-15381062D01*
X8078722Y-15390586D01*
X8088246Y-15400110D01*
X8097769Y-15419157D01*
X8097769Y-15438205D01*
X8088246Y-15466776D01*
X7973960Y-15581062D01*
X8097769Y-15581062D01*
X8335865Y-15581062D02*
X8335865Y-15381062D01*
X8421579Y-15581062D02*
X8421579Y-15476300D01*
X8412055Y-15457253D01*
X8393008Y-15447729D01*
X8364436Y-15447729D01*
X8345388Y-15457253D01*
X8335865Y-15466776D01*
X8545389Y-15581062D02*
X8526341Y-15571538D01*
X8516817Y-15562014D01*
X8507293Y-15542967D01*
X8507293Y-15485824D01*
X8516817Y-15466776D01*
X8526341Y-15457253D01*
X8545389Y-15447729D01*
X8573960Y-15447729D01*
X8593008Y-15457253D01*
X8602531Y-15466776D01*
X8612055Y-15485824D01*
X8612055Y-15542967D01*
X8602531Y-15562014D01*
X8593008Y-15571538D01*
X8573960Y-15581062D01*
X8545389Y-15581062D01*
X8726341Y-15581062D02*
X8707293Y-15571538D01*
X8697770Y-15552491D01*
X8697770Y-15381062D01*
X8878722Y-15571538D02*
X8859674Y-15581062D01*
X8821579Y-15581062D01*
X8802531Y-15571538D01*
X8793008Y-15552491D01*
X8793008Y-15476300D01*
X8802531Y-15457253D01*
X8821579Y-15447729D01*
X8859674Y-15447729D01*
X8878722Y-15457253D01*
X8888246Y-15476300D01*
X8888246Y-15495348D01*
X8793008Y-15514395D01*
X8964436Y-15571538D02*
X8983484Y-15581062D01*
X9021579Y-15581062D01*
X9040627Y-15571538D01*
X9050150Y-15552491D01*
X9050150Y-15542967D01*
X9040627Y-15523919D01*
X9021579Y-15514395D01*
X8993008Y-15514395D01*
X8973960Y-15504872D01*
X8964436Y-15485824D01*
X8964436Y-15476300D01*
X8973960Y-15457253D01*
X8993008Y-15447729D01*
X9021579Y-15447729D01*
X9040627Y-15457253D01*
X9116817Y-15657253D02*
X9126341Y-15647729D01*
X9145389Y-15619157D01*
X9154912Y-15600110D01*
X9164436Y-15571538D01*
X9173960Y-15523919D01*
X9173960Y-15485824D01*
X9164436Y-15438205D01*
X9154912Y-15409634D01*
X9145389Y-15390586D01*
X9126341Y-15362014D01*
X9116817Y-15352491D01*
X9478722Y-15657253D02*
X9469198Y-15647729D01*
X9450150Y-15619157D01*
X9440627Y-15600110D01*
X9431103Y-15571538D01*
X9421579Y-15523919D01*
X9421579Y-15485824D01*
X9431103Y-15438205D01*
X9440627Y-15409634D01*
X9450150Y-15390586D01*
X9469198Y-15362014D01*
X9478722Y-15352491D01*
X9554912Y-15447729D02*
X9554912Y-15581062D01*
X9554912Y-15466776D02*
X9564436Y-15457253D01*
X9583484Y-15447729D01*
X9612055Y-15447729D01*
X9631103Y-15457253D01*
X9640627Y-15476300D01*
X9640627Y-15581062D01*
X9764436Y-15581062D02*
X9745389Y-15571538D01*
X9735865Y-15562014D01*
X9726341Y-15542967D01*
X9726341Y-15485824D01*
X9735865Y-15466776D01*
X9745389Y-15457253D01*
X9764436Y-15447729D01*
X9793008Y-15447729D01*
X9812055Y-15457253D01*
X9821579Y-15466776D01*
X9831103Y-15485824D01*
X9831103Y-15542967D01*
X9821579Y-15562014D01*
X9812055Y-15571538D01*
X9793008Y-15581062D01*
X9764436Y-15581062D01*
X9888246Y-15447729D02*
X9964436Y-15447729D01*
X9916817Y-15381062D02*
X9916817Y-15552491D01*
X9926341Y-15571538D01*
X9945389Y-15581062D01*
X9964436Y-15581062D01*
X10183484Y-15447729D02*
X10183484Y-15647729D01*
X10183484Y-15457253D02*
X10202531Y-15447729D01*
X10240627Y-15447729D01*
X10259674Y-15457253D01*
X10269198Y-15466776D01*
X10278722Y-15485824D01*
X10278722Y-15542967D01*
X10269198Y-15562014D01*
X10259674Y-15571538D01*
X10240627Y-15581062D01*
X10202531Y-15581062D01*
X10183484Y-15571538D01*
X10393008Y-15581062D02*
X10373960Y-15571538D01*
X10364436Y-15552491D01*
X10364436Y-15381062D01*
X10554912Y-15581062D02*
X10554912Y-15476300D01*
X10545389Y-15457253D01*
X10526341Y-15447729D01*
X10488246Y-15447729D01*
X10469198Y-15457253D01*
X10554912Y-15571538D02*
X10535865Y-15581062D01*
X10488246Y-15581062D01*
X10469198Y-15571538D01*
X10459674Y-15552491D01*
X10459674Y-15533443D01*
X10469198Y-15514395D01*
X10488246Y-15504872D01*
X10535865Y-15504872D01*
X10554912Y-15495348D01*
X10621579Y-15447729D02*
X10697770Y-15447729D01*
X10650150Y-15381062D02*
X10650150Y-15552491D01*
X10659674Y-15571538D01*
X10678722Y-15581062D01*
X10697770Y-15581062D01*
X10840627Y-15571538D02*
X10821579Y-15581062D01*
X10783484Y-15581062D01*
X10764436Y-15571538D01*
X10754912Y-15552491D01*
X10754912Y-15476300D01*
X10764436Y-15457253D01*
X10783484Y-15447729D01*
X10821579Y-15447729D01*
X10840627Y-15457253D01*
X10850150Y-15476300D01*
X10850150Y-15495348D01*
X10754912Y-15514395D01*
X11021579Y-15581062D02*
X11021579Y-15381062D01*
X11021579Y-15571538D02*
X11002531Y-15581062D01*
X10964436Y-15581062D01*
X10945389Y-15571538D01*
X10935865Y-15562014D01*
X10926341Y-15542967D01*
X10926341Y-15485824D01*
X10935865Y-15466776D01*
X10945389Y-15457253D01*
X10964436Y-15447729D01*
X11002531Y-15447729D01*
X11021579Y-15457253D01*
X11097770Y-15657253D02*
X11107293Y-15647729D01*
X11126341Y-15619157D01*
X11135865Y-15600110D01*
X11145389Y-15571538D01*
X11154912Y-15523919D01*
X11154912Y-15485824D01*
X11145389Y-15438205D01*
X11135865Y-15409634D01*
X11126341Y-15390586D01*
X11107293Y-15362014D01*
X11097770Y-15352491D01*
X3863960Y-15700586D02*
X3863960Y-15900586D01*
X3763960Y-15800586D02*
X3963960Y-15800586D01*
X4212055Y-15710110D02*
X4221579Y-15700586D01*
X4240627Y-15691062D01*
X4288246Y-15691062D01*
X4307293Y-15700586D01*
X4316817Y-15710110D01*
X4326341Y-15729157D01*
X4326341Y-15748205D01*
X4316817Y-15776776D01*
X4202531Y-15891062D01*
X4326341Y-15891062D01*
X4412055Y-15872014D02*
X4421579Y-15881538D01*
X4412055Y-15891062D01*
X4402531Y-15881538D01*
X4412055Y-15872014D01*
X4412055Y-15891062D01*
X4497770Y-15710110D02*
X4507293Y-15700586D01*
X4526341Y-15691062D01*
X4573960Y-15691062D01*
X4593008Y-15700586D01*
X4602531Y-15710110D01*
X4612055Y-15729157D01*
X4612055Y-15748205D01*
X4602531Y-15776776D01*
X4488246Y-15891062D01*
X4612055Y-15891062D01*
X4735865Y-15691062D02*
X4754912Y-15691062D01*
X4773960Y-15700586D01*
X4783484Y-15710110D01*
X4793008Y-15729157D01*
X4802531Y-15767253D01*
X4802531Y-15814872D01*
X4793008Y-15852967D01*
X4783484Y-15872014D01*
X4773960Y-15881538D01*
X4754912Y-15891062D01*
X4735865Y-15891062D01*
X4716817Y-15881538D01*
X4707293Y-15872014D01*
X4697770Y-15852967D01*
X4688246Y-15814872D01*
X4688246Y-15767253D01*
X4697770Y-15729157D01*
X4707293Y-15710110D01*
X4716817Y-15700586D01*
X4735865Y-15691062D01*
X4926341Y-15691062D02*
X4945389Y-15691062D01*
X4964436Y-15700586D01*
X4973960Y-15710110D01*
X4983484Y-15729157D01*
X4993008Y-15767253D01*
X4993008Y-15814872D01*
X4983484Y-15852967D01*
X4973960Y-15872014D01*
X4964436Y-15881538D01*
X4945389Y-15891062D01*
X4926341Y-15891062D01*
X4907293Y-15881538D01*
X4897770Y-15872014D01*
X4888246Y-15852967D01*
X4878722Y-15814872D01*
X4878722Y-15767253D01*
X4888246Y-15729157D01*
X4897770Y-15710110D01*
X4907293Y-15700586D01*
X4926341Y-15691062D01*
X5078722Y-15891062D02*
X5078722Y-15757729D01*
X5078722Y-15776776D02*
X5088246Y-15767253D01*
X5107293Y-15757729D01*
X5135865Y-15757729D01*
X5154912Y-15767253D01*
X5164436Y-15786300D01*
X5164436Y-15891062D01*
X5164436Y-15786300D02*
X5173960Y-15767253D01*
X5193008Y-15757729D01*
X5221579Y-15757729D01*
X5240627Y-15767253D01*
X5250150Y-15786300D01*
X5250150Y-15891062D01*
X5345389Y-15891062D02*
X5345389Y-15757729D01*
X5345389Y-15776776D02*
X5354912Y-15767253D01*
X5373960Y-15757729D01*
X5402531Y-15757729D01*
X5421579Y-15767253D01*
X5431103Y-15786300D01*
X5431103Y-15891062D01*
X5431103Y-15786300D02*
X5440627Y-15767253D01*
X5459674Y-15757729D01*
X5488246Y-15757729D01*
X5507293Y-15767253D01*
X5516817Y-15786300D01*
X5516817Y-15891062D01*
X5907293Y-15681538D02*
X5735865Y-15938681D01*
X6164436Y-15691062D02*
X6183484Y-15691062D01*
X6202531Y-15700586D01*
X6212055Y-15710110D01*
X6221579Y-15729157D01*
X6231103Y-15767253D01*
X6231103Y-15814872D01*
X6221579Y-15852967D01*
X6212055Y-15872014D01*
X6202531Y-15881538D01*
X6183484Y-15891062D01*
X6164436Y-15891062D01*
X6145388Y-15881538D01*
X6135865Y-15872014D01*
X6126341Y-15852967D01*
X6116817Y-15814872D01*
X6116817Y-15767253D01*
X6126341Y-15729157D01*
X6135865Y-15710110D01*
X6145388Y-15700586D01*
X6164436Y-15691062D01*
X6316817Y-15872014D02*
X6326341Y-15881538D01*
X6316817Y-15891062D01*
X6307293Y-15881538D01*
X6316817Y-15872014D01*
X6316817Y-15891062D01*
X6450150Y-15691062D02*
X6469198Y-15691062D01*
X6488246Y-15700586D01*
X6497769Y-15710110D01*
X6507293Y-15729157D01*
X6516817Y-15767253D01*
X6516817Y-15814872D01*
X6507293Y-15852967D01*
X6497769Y-15872014D01*
X6488246Y-15881538D01*
X6469198Y-15891062D01*
X6450150Y-15891062D01*
X6431103Y-15881538D01*
X6421579Y-15872014D01*
X6412055Y-15852967D01*
X6402531Y-15814872D01*
X6402531Y-15767253D01*
X6412055Y-15729157D01*
X6421579Y-15710110D01*
X6431103Y-15700586D01*
X6450150Y-15691062D01*
X6631103Y-15776776D02*
X6612055Y-15767253D01*
X6602531Y-15757729D01*
X6593008Y-15738681D01*
X6593008Y-15729157D01*
X6602531Y-15710110D01*
X6612055Y-15700586D01*
X6631103Y-15691062D01*
X6669198Y-15691062D01*
X6688246Y-15700586D01*
X6697769Y-15710110D01*
X6707293Y-15729157D01*
X6707293Y-15738681D01*
X6697769Y-15757729D01*
X6688246Y-15767253D01*
X6669198Y-15776776D01*
X6631103Y-15776776D01*
X6612055Y-15786300D01*
X6602531Y-15795824D01*
X6593008Y-15814872D01*
X6593008Y-15852967D01*
X6602531Y-15872014D01*
X6612055Y-15881538D01*
X6631103Y-15891062D01*
X6669198Y-15891062D01*
X6688246Y-15881538D01*
X6697769Y-15872014D01*
X6707293Y-15852967D01*
X6707293Y-15814872D01*
X6697769Y-15795824D01*
X6688246Y-15786300D01*
X6669198Y-15776776D01*
X6878722Y-15691062D02*
X6840627Y-15691062D01*
X6821579Y-15700586D01*
X6812055Y-15710110D01*
X6793008Y-15738681D01*
X6783484Y-15776776D01*
X6783484Y-15852967D01*
X6793008Y-15872014D01*
X6802531Y-15881538D01*
X6821579Y-15891062D01*
X6859674Y-15891062D01*
X6878722Y-15881538D01*
X6888246Y-15872014D01*
X6897769Y-15852967D01*
X6897769Y-15805348D01*
X6888246Y-15786300D01*
X6878722Y-15776776D01*
X6859674Y-15767253D01*
X6821579Y-15767253D01*
X6802531Y-15776776D01*
X6793008Y-15786300D01*
X6783484Y-15805348D01*
X7069198Y-15691062D02*
X7031103Y-15691062D01*
X7012055Y-15700586D01*
X7002531Y-15710110D01*
X6983484Y-15738681D01*
X6973960Y-15776776D01*
X6973960Y-15852967D01*
X6983484Y-15872014D01*
X6993008Y-15881538D01*
X7012055Y-15891062D01*
X7050150Y-15891062D01*
X7069198Y-15881538D01*
X7078722Y-15872014D01*
X7088246Y-15852967D01*
X7088246Y-15805348D01*
X7078722Y-15786300D01*
X7069198Y-15776776D01*
X7050150Y-15767253D01*
X7012055Y-15767253D01*
X6993008Y-15776776D01*
X6983484Y-15786300D01*
X6973960Y-15805348D01*
X7164436Y-15691062D02*
X7164436Y-15729157D01*
X7240627Y-15691062D02*
X7240627Y-15729157D01*
X7535865Y-15967253D02*
X7526341Y-15957729D01*
X7507293Y-15929157D01*
X7497769Y-15910110D01*
X7488246Y-15881538D01*
X7478722Y-15833919D01*
X7478722Y-15795824D01*
X7488246Y-15748205D01*
X7497769Y-15719634D01*
X7507293Y-15700586D01*
X7526341Y-15672014D01*
X7535865Y-15662491D01*
X7640627Y-15776776D02*
X7621579Y-15767253D01*
X7612055Y-15757729D01*
X7602531Y-15738681D01*
X7602531Y-15729157D01*
X7612055Y-15710110D01*
X7621579Y-15700586D01*
X7640627Y-15691062D01*
X7678722Y-15691062D01*
X7697769Y-15700586D01*
X7707293Y-15710110D01*
X7716817Y-15729157D01*
X7716817Y-15738681D01*
X7707293Y-15757729D01*
X7697769Y-15767253D01*
X7678722Y-15776776D01*
X7640627Y-15776776D01*
X7621579Y-15786300D01*
X7612055Y-15795824D01*
X7602531Y-15814872D01*
X7602531Y-15852967D01*
X7612055Y-15872014D01*
X7621579Y-15881538D01*
X7640627Y-15891062D01*
X7678722Y-15891062D01*
X7697769Y-15881538D01*
X7707293Y-15872014D01*
X7716817Y-15852967D01*
X7716817Y-15814872D01*
X7707293Y-15795824D01*
X7697769Y-15786300D01*
X7678722Y-15776776D01*
X7954912Y-15891062D02*
X7954912Y-15691062D01*
X8040627Y-15891062D02*
X8040627Y-15786300D01*
X8031103Y-15767253D01*
X8012055Y-15757729D01*
X7983484Y-15757729D01*
X7964436Y-15767253D01*
X7954912Y-15776776D01*
X8164436Y-15891062D02*
X8145388Y-15881538D01*
X8135865Y-15872014D01*
X8126341Y-15852967D01*
X8126341Y-15795824D01*
X8135865Y-15776776D01*
X8145388Y-15767253D01*
X8164436Y-15757729D01*
X8193008Y-15757729D01*
X8212055Y-15767253D01*
X8221579Y-15776776D01*
X8231103Y-15795824D01*
X8231103Y-15852967D01*
X8221579Y-15872014D01*
X8212055Y-15881538D01*
X8193008Y-15891062D01*
X8164436Y-15891062D01*
X8345388Y-15891062D02*
X8326341Y-15881538D01*
X8316817Y-15862491D01*
X8316817Y-15691062D01*
X8497770Y-15881538D02*
X8478722Y-15891062D01*
X8440627Y-15891062D01*
X8421579Y-15881538D01*
X8412055Y-15862491D01*
X8412055Y-15786300D01*
X8421579Y-15767253D01*
X8440627Y-15757729D01*
X8478722Y-15757729D01*
X8497770Y-15767253D01*
X8507293Y-15786300D01*
X8507293Y-15805348D01*
X8412055Y-15824395D01*
X8583484Y-15881538D02*
X8602531Y-15891062D01*
X8640627Y-15891062D01*
X8659674Y-15881538D01*
X8669198Y-15862491D01*
X8669198Y-15852967D01*
X8659674Y-15833919D01*
X8640627Y-15824395D01*
X8612055Y-15824395D01*
X8593008Y-15814872D01*
X8583484Y-15795824D01*
X8583484Y-15786300D01*
X8593008Y-15767253D01*
X8612055Y-15757729D01*
X8640627Y-15757729D01*
X8659674Y-15767253D01*
X8907293Y-15814872D02*
X9059674Y-15814872D01*
X8983484Y-15891062D02*
X8983484Y-15738681D01*
X9288246Y-15691062D02*
X9412055Y-15691062D01*
X9345389Y-15767253D01*
X9373960Y-15767253D01*
X9393008Y-15776776D01*
X9402531Y-15786300D01*
X9412055Y-15805348D01*
X9412055Y-15852967D01*
X9402531Y-15872014D01*
X9393008Y-15881538D01*
X9373960Y-15891062D01*
X9316817Y-15891062D01*
X9297770Y-15881538D01*
X9288246Y-15872014D01*
X9640627Y-15881538D02*
X9659674Y-15891062D01*
X9697770Y-15891062D01*
X9716817Y-15881538D01*
X9726341Y-15862491D01*
X9726341Y-15852967D01*
X9716817Y-15833919D01*
X9697770Y-15824395D01*
X9669198Y-15824395D01*
X9650150Y-15814872D01*
X9640627Y-15795824D01*
X9640627Y-15786300D01*
X9650150Y-15767253D01*
X9669198Y-15757729D01*
X9697770Y-15757729D01*
X9716817Y-15767253D01*
X9840627Y-15891062D02*
X9821579Y-15881538D01*
X9812055Y-15862491D01*
X9812055Y-15691062D01*
X9945389Y-15891062D02*
X9926341Y-15881538D01*
X9916817Y-15872014D01*
X9907293Y-15852967D01*
X9907293Y-15795824D01*
X9916817Y-15776776D01*
X9926341Y-15767253D01*
X9945389Y-15757729D01*
X9973960Y-15757729D01*
X9993008Y-15767253D01*
X10002531Y-15776776D01*
X10012055Y-15795824D01*
X10012055Y-15852967D01*
X10002531Y-15872014D01*
X9993008Y-15881538D01*
X9973960Y-15891062D01*
X9945389Y-15891062D01*
X10069198Y-15757729D02*
X10145389Y-15757729D01*
X10097770Y-15691062D02*
X10097770Y-15862491D01*
X10107293Y-15881538D01*
X10126341Y-15891062D01*
X10145389Y-15891062D01*
X10202531Y-15881538D02*
X10221579Y-15891062D01*
X10259674Y-15891062D01*
X10278722Y-15881538D01*
X10288246Y-15862491D01*
X10288246Y-15852967D01*
X10278722Y-15833919D01*
X10259674Y-15824395D01*
X10231103Y-15824395D01*
X10212055Y-15814872D01*
X10202531Y-15795824D01*
X10202531Y-15786300D01*
X10212055Y-15767253D01*
X10231103Y-15757729D01*
X10259674Y-15757729D01*
X10278722Y-15767253D01*
X10354912Y-15967253D02*
X10364436Y-15957729D01*
X10383484Y-15929157D01*
X10393008Y-15910110D01*
X10402531Y-15881538D01*
X10412055Y-15833919D01*
X10412055Y-15795824D01*
X10402531Y-15748205D01*
X10393008Y-15719634D01*
X10383484Y-15700586D01*
X10364436Y-15672014D01*
X10354912Y-15662491D01*
X10716817Y-15967253D02*
X10707293Y-15957729D01*
X10688246Y-15929157D01*
X10678722Y-15910110D01*
X10669198Y-15881538D01*
X10659674Y-15833919D01*
X10659674Y-15795824D01*
X10669198Y-15748205D01*
X10678722Y-15719634D01*
X10688246Y-15700586D01*
X10707293Y-15672014D01*
X10716817Y-15662491D01*
X10793008Y-15757729D02*
X10793008Y-15891062D01*
X10793008Y-15776776D02*
X10802531Y-15767253D01*
X10821579Y-15757729D01*
X10850150Y-15757729D01*
X10869198Y-15767253D01*
X10878722Y-15786300D01*
X10878722Y-15891062D01*
X11002531Y-15891062D02*
X10983484Y-15881538D01*
X10973960Y-15872014D01*
X10964436Y-15852967D01*
X10964436Y-15795824D01*
X10973960Y-15776776D01*
X10983484Y-15767253D01*
X11002531Y-15757729D01*
X11031103Y-15757729D01*
X11050150Y-15767253D01*
X11059674Y-15776776D01*
X11069198Y-15795824D01*
X11069198Y-15852967D01*
X11059674Y-15872014D01*
X11050150Y-15881538D01*
X11031103Y-15891062D01*
X11002531Y-15891062D01*
X11126341Y-15757729D02*
X11202531Y-15757729D01*
X11154912Y-15691062D02*
X11154912Y-15862491D01*
X11164436Y-15881538D01*
X11183484Y-15891062D01*
X11202531Y-15891062D01*
X11421579Y-15757729D02*
X11421579Y-15957729D01*
X11421579Y-15767253D02*
X11440627Y-15757729D01*
X11478722Y-15757729D01*
X11497769Y-15767253D01*
X11507293Y-15776776D01*
X11516817Y-15795824D01*
X11516817Y-15852967D01*
X11507293Y-15872014D01*
X11497769Y-15881538D01*
X11478722Y-15891062D01*
X11440627Y-15891062D01*
X11421579Y-15881538D01*
X11631103Y-15891062D02*
X11612055Y-15881538D01*
X11602531Y-15862491D01*
X11602531Y-15691062D01*
X11793008Y-15891062D02*
X11793008Y-15786300D01*
X11783484Y-15767253D01*
X11764436Y-15757729D01*
X11726341Y-15757729D01*
X11707293Y-15767253D01*
X11793008Y-15881538D02*
X11773960Y-15891062D01*
X11726341Y-15891062D01*
X11707293Y-15881538D01*
X11697769Y-15862491D01*
X11697769Y-15843443D01*
X11707293Y-15824395D01*
X11726341Y-15814872D01*
X11773960Y-15814872D01*
X11793008Y-15805348D01*
X11859674Y-15757729D02*
X11935865Y-15757729D01*
X11888246Y-15691062D02*
X11888246Y-15862491D01*
X11897769Y-15881538D01*
X11916817Y-15891062D01*
X11935865Y-15891062D01*
X12078722Y-15881538D02*
X12059674Y-15891062D01*
X12021579Y-15891062D01*
X12002531Y-15881538D01*
X11993008Y-15862491D01*
X11993008Y-15786300D01*
X12002531Y-15767253D01*
X12021579Y-15757729D01*
X12059674Y-15757729D01*
X12078722Y-15767253D01*
X12088246Y-15786300D01*
X12088246Y-15805348D01*
X11993008Y-15824395D01*
X12259674Y-15891062D02*
X12259674Y-15691062D01*
X12259674Y-15881538D02*
X12240627Y-15891062D01*
X12202531Y-15891062D01*
X12183484Y-15881538D01*
X12173960Y-15872014D01*
X12164436Y-15852967D01*
X12164436Y-15795824D01*
X12173960Y-15776776D01*
X12183484Y-15767253D01*
X12202531Y-15757729D01*
X12240627Y-15757729D01*
X12259674Y-15767253D01*
X12335865Y-15967253D02*
X12345388Y-15957729D01*
X12364436Y-15929157D01*
X12373960Y-15910110D01*
X12383484Y-15881538D01*
X12393008Y-15833919D01*
X12393008Y-15795824D01*
X12383484Y-15748205D01*
X12373960Y-15719634D01*
X12364436Y-15700586D01*
X12345388Y-15672014D01*
X12335865Y-15662491D01*
X3934671Y-16191297D02*
X3934671Y-16049875D01*
X3793249Y-16049875D01*
X3793249Y-16191297D01*
X3934671Y-16191297D01*
X4202531Y-16011062D02*
X4326341Y-16011062D01*
X4259674Y-16087253D01*
X4288246Y-16087253D01*
X4307293Y-16096776D01*
X4316817Y-16106300D01*
X4326341Y-16125348D01*
X4326341Y-16172967D01*
X4316817Y-16192014D01*
X4307293Y-16201538D01*
X4288246Y-16211062D01*
X4231103Y-16211062D01*
X4212055Y-16201538D01*
X4202531Y-16192014D01*
X4412055Y-16192014D02*
X4421579Y-16201538D01*
X4412055Y-16211062D01*
X4402531Y-16201538D01*
X4412055Y-16192014D01*
X4412055Y-16211062D01*
X4545389Y-16011062D02*
X4564436Y-16011062D01*
X4583484Y-16020586D01*
X4593008Y-16030110D01*
X4602531Y-16049157D01*
X4612055Y-16087253D01*
X4612055Y-16134872D01*
X4602531Y-16172967D01*
X4593008Y-16192014D01*
X4583484Y-16201538D01*
X4564436Y-16211062D01*
X4545389Y-16211062D01*
X4526341Y-16201538D01*
X4516817Y-16192014D01*
X4507293Y-16172967D01*
X4497770Y-16134872D01*
X4497770Y-16087253D01*
X4507293Y-16049157D01*
X4516817Y-16030110D01*
X4526341Y-16020586D01*
X4545389Y-16011062D01*
X4735865Y-16011062D02*
X4754912Y-16011062D01*
X4773960Y-16020586D01*
X4783484Y-16030110D01*
X4793008Y-16049157D01*
X4802531Y-16087253D01*
X4802531Y-16134872D01*
X4793008Y-16172967D01*
X4783484Y-16192014D01*
X4773960Y-16201538D01*
X4754912Y-16211062D01*
X4735865Y-16211062D01*
X4716817Y-16201538D01*
X4707293Y-16192014D01*
X4697770Y-16172967D01*
X4688246Y-16134872D01*
X4688246Y-16087253D01*
X4697770Y-16049157D01*
X4707293Y-16030110D01*
X4716817Y-16020586D01*
X4735865Y-16011062D01*
X4926341Y-16011062D02*
X4945389Y-16011062D01*
X4964436Y-16020586D01*
X4973960Y-16030110D01*
X4983484Y-16049157D01*
X4993008Y-16087253D01*
X4993008Y-16134872D01*
X4983484Y-16172967D01*
X4973960Y-16192014D01*
X4964436Y-16201538D01*
X4945389Y-16211062D01*
X4926341Y-16211062D01*
X4907293Y-16201538D01*
X4897770Y-16192014D01*
X4888246Y-16172967D01*
X4878722Y-16134872D01*
X4878722Y-16087253D01*
X4888246Y-16049157D01*
X4897770Y-16030110D01*
X4907293Y-16020586D01*
X4926341Y-16011062D01*
X5078722Y-16211062D02*
X5078722Y-16077729D01*
X5078722Y-16096776D02*
X5088246Y-16087253D01*
X5107293Y-16077729D01*
X5135865Y-16077729D01*
X5154912Y-16087253D01*
X5164436Y-16106300D01*
X5164436Y-16211062D01*
X5164436Y-16106300D02*
X5173960Y-16087253D01*
X5193008Y-16077729D01*
X5221579Y-16077729D01*
X5240627Y-16087253D01*
X5250150Y-16106300D01*
X5250150Y-16211062D01*
X5345389Y-16211062D02*
X5345389Y-16077729D01*
X5345389Y-16096776D02*
X5354912Y-16087253D01*
X5373960Y-16077729D01*
X5402531Y-16077729D01*
X5421579Y-16087253D01*
X5431103Y-16106300D01*
X5431103Y-16211062D01*
X5431103Y-16106300D02*
X5440627Y-16087253D01*
X5459674Y-16077729D01*
X5488246Y-16077729D01*
X5507293Y-16087253D01*
X5516817Y-16106300D01*
X5516817Y-16211062D01*
X5907293Y-16001538D02*
X5735865Y-16258681D01*
X6164436Y-16011062D02*
X6183484Y-16011062D01*
X6202531Y-16020586D01*
X6212055Y-16030110D01*
X6221579Y-16049157D01*
X6231103Y-16087253D01*
X6231103Y-16134872D01*
X6221579Y-16172967D01*
X6212055Y-16192014D01*
X6202531Y-16201538D01*
X6183484Y-16211062D01*
X6164436Y-16211062D01*
X6145388Y-16201538D01*
X6135865Y-16192014D01*
X6126341Y-16172967D01*
X6116817Y-16134872D01*
X6116817Y-16087253D01*
X6126341Y-16049157D01*
X6135865Y-16030110D01*
X6145388Y-16020586D01*
X6164436Y-16011062D01*
X6316817Y-16192014D02*
X6326341Y-16201538D01*
X6316817Y-16211062D01*
X6307293Y-16201538D01*
X6316817Y-16192014D01*
X6316817Y-16211062D01*
X6516817Y-16211062D02*
X6402531Y-16211062D01*
X6459674Y-16211062D02*
X6459674Y-16011062D01*
X6440627Y-16039634D01*
X6421579Y-16058681D01*
X6402531Y-16068205D01*
X6707293Y-16211062D02*
X6593008Y-16211062D01*
X6650150Y-16211062D02*
X6650150Y-16011062D01*
X6631103Y-16039634D01*
X6612055Y-16058681D01*
X6593008Y-16068205D01*
X6821579Y-16096776D02*
X6802531Y-16087253D01*
X6793008Y-16077729D01*
X6783484Y-16058681D01*
X6783484Y-16049157D01*
X6793008Y-16030110D01*
X6802531Y-16020586D01*
X6821579Y-16011062D01*
X6859674Y-16011062D01*
X6878722Y-16020586D01*
X6888246Y-16030110D01*
X6897769Y-16049157D01*
X6897769Y-16058681D01*
X6888246Y-16077729D01*
X6878722Y-16087253D01*
X6859674Y-16096776D01*
X6821579Y-16096776D01*
X6802531Y-16106300D01*
X6793008Y-16115824D01*
X6783484Y-16134872D01*
X6783484Y-16172967D01*
X6793008Y-16192014D01*
X6802531Y-16201538D01*
X6821579Y-16211062D01*
X6859674Y-16211062D01*
X6878722Y-16201538D01*
X6888246Y-16192014D01*
X6897769Y-16172967D01*
X6897769Y-16134872D01*
X6888246Y-16115824D01*
X6878722Y-16106300D01*
X6859674Y-16096776D01*
X7088246Y-16211062D02*
X6973960Y-16211062D01*
X7031103Y-16211062D02*
X7031103Y-16011062D01*
X7012055Y-16039634D01*
X6993008Y-16058681D01*
X6973960Y-16068205D01*
X7164436Y-16011062D02*
X7164436Y-16049157D01*
X7240627Y-16011062D02*
X7240627Y-16049157D01*
X7535865Y-16287253D02*
X7526341Y-16277729D01*
X7507293Y-16249157D01*
X7497769Y-16230110D01*
X7488246Y-16201538D01*
X7478722Y-16153919D01*
X7478722Y-16115824D01*
X7488246Y-16068205D01*
X7497769Y-16039634D01*
X7507293Y-16020586D01*
X7526341Y-15992014D01*
X7535865Y-15982491D01*
X7716817Y-16211062D02*
X7602531Y-16211062D01*
X7659674Y-16211062D02*
X7659674Y-16011062D01*
X7640627Y-16039634D01*
X7621579Y-16058681D01*
X7602531Y-16068205D01*
X7793008Y-16030110D02*
X7802531Y-16020586D01*
X7821579Y-16011062D01*
X7869198Y-16011062D01*
X7888246Y-16020586D01*
X7897769Y-16030110D01*
X7907293Y-16049157D01*
X7907293Y-16068205D01*
X7897769Y-16096776D01*
X7783484Y-16211062D01*
X7907293Y-16211062D01*
X8078722Y-16011062D02*
X8040627Y-16011062D01*
X8021579Y-16020586D01*
X8012055Y-16030110D01*
X7993008Y-16058681D01*
X7983484Y-16096776D01*
X7983484Y-16172967D01*
X7993008Y-16192014D01*
X8002531Y-16201538D01*
X8021579Y-16211062D01*
X8059674Y-16211062D01*
X8078722Y-16201538D01*
X8088246Y-16192014D01*
X8097769Y-16172967D01*
X8097769Y-16125348D01*
X8088246Y-16106300D01*
X8078722Y-16096776D01*
X8059674Y-16087253D01*
X8021579Y-16087253D01*
X8002531Y-16096776D01*
X7993008Y-16106300D01*
X7983484Y-16125348D01*
X8335865Y-16211062D02*
X8335865Y-16011062D01*
X8421579Y-16211062D02*
X8421579Y-16106300D01*
X8412055Y-16087253D01*
X8393008Y-16077729D01*
X8364436Y-16077729D01*
X8345388Y-16087253D01*
X8335865Y-16096776D01*
X8545389Y-16211062D02*
X8526341Y-16201538D01*
X8516817Y-16192014D01*
X8507293Y-16172967D01*
X8507293Y-16115824D01*
X8516817Y-16096776D01*
X8526341Y-16087253D01*
X8545389Y-16077729D01*
X8573960Y-16077729D01*
X8593008Y-16087253D01*
X8602531Y-16096776D01*
X8612055Y-16115824D01*
X8612055Y-16172967D01*
X8602531Y-16192014D01*
X8593008Y-16201538D01*
X8573960Y-16211062D01*
X8545389Y-16211062D01*
X8726341Y-16211062D02*
X8707293Y-16201538D01*
X8697770Y-16182491D01*
X8697770Y-16011062D01*
X8878722Y-16201538D02*
X8859674Y-16211062D01*
X8821579Y-16211062D01*
X8802531Y-16201538D01*
X8793008Y-16182491D01*
X8793008Y-16106300D01*
X8802531Y-16087253D01*
X8821579Y-16077729D01*
X8859674Y-16077729D01*
X8878722Y-16087253D01*
X8888246Y-16106300D01*
X8888246Y-16125348D01*
X8793008Y-16144395D01*
X8964436Y-16201538D02*
X8983484Y-16211062D01*
X9021579Y-16211062D01*
X9040627Y-16201538D01*
X9050150Y-16182491D01*
X9050150Y-16172967D01*
X9040627Y-16153919D01*
X9021579Y-16144395D01*
X8993008Y-16144395D01*
X8973960Y-16134872D01*
X8964436Y-16115824D01*
X8964436Y-16106300D01*
X8973960Y-16087253D01*
X8993008Y-16077729D01*
X9021579Y-16077729D01*
X9040627Y-16087253D01*
X9116817Y-16287253D02*
X9126341Y-16277729D01*
X9145389Y-16249157D01*
X9154912Y-16230110D01*
X9164436Y-16201538D01*
X9173960Y-16153919D01*
X9173960Y-16115824D01*
X9164436Y-16068205D01*
X9154912Y-16039634D01*
X9145389Y-16020586D01*
X9126341Y-15992014D01*
X9116817Y-15982491D01*
X9478722Y-16287253D02*
X9469198Y-16277729D01*
X9450150Y-16249157D01*
X9440627Y-16230110D01*
X9431103Y-16201538D01*
X9421579Y-16153919D01*
X9421579Y-16115824D01*
X9431103Y-16068205D01*
X9440627Y-16039634D01*
X9450150Y-16020586D01*
X9469198Y-15992014D01*
X9478722Y-15982491D01*
X9554912Y-16077729D02*
X9554912Y-16211062D01*
X9554912Y-16096776D02*
X9564436Y-16087253D01*
X9583484Y-16077729D01*
X9612055Y-16077729D01*
X9631103Y-16087253D01*
X9640627Y-16106300D01*
X9640627Y-16211062D01*
X9764436Y-16211062D02*
X9745389Y-16201538D01*
X9735865Y-16192014D01*
X9726341Y-16172967D01*
X9726341Y-16115824D01*
X9735865Y-16096776D01*
X9745389Y-16087253D01*
X9764436Y-16077729D01*
X9793008Y-16077729D01*
X9812055Y-16087253D01*
X9821579Y-16096776D01*
X9831103Y-16115824D01*
X9831103Y-16172967D01*
X9821579Y-16192014D01*
X9812055Y-16201538D01*
X9793008Y-16211062D01*
X9764436Y-16211062D01*
X9888246Y-16077729D02*
X9964436Y-16077729D01*
X9916817Y-16011062D02*
X9916817Y-16182491D01*
X9926341Y-16201538D01*
X9945389Y-16211062D01*
X9964436Y-16211062D01*
X10183484Y-16077729D02*
X10183484Y-16277729D01*
X10183484Y-16087253D02*
X10202531Y-16077729D01*
X10240627Y-16077729D01*
X10259674Y-16087253D01*
X10269198Y-16096776D01*
X10278722Y-16115824D01*
X10278722Y-16172967D01*
X10269198Y-16192014D01*
X10259674Y-16201538D01*
X10240627Y-16211062D01*
X10202531Y-16211062D01*
X10183484Y-16201538D01*
X10393008Y-16211062D02*
X10373960Y-16201538D01*
X10364436Y-16182491D01*
X10364436Y-16011062D01*
X10554912Y-16211062D02*
X10554912Y-16106300D01*
X10545389Y-16087253D01*
X10526341Y-16077729D01*
X10488246Y-16077729D01*
X10469198Y-16087253D01*
X10554912Y-16201538D02*
X10535865Y-16211062D01*
X10488246Y-16211062D01*
X10469198Y-16201538D01*
X10459674Y-16182491D01*
X10459674Y-16163443D01*
X10469198Y-16144395D01*
X10488246Y-16134872D01*
X10535865Y-16134872D01*
X10554912Y-16125348D01*
X10621579Y-16077729D02*
X10697770Y-16077729D01*
X10650150Y-16011062D02*
X10650150Y-16182491D01*
X10659674Y-16201538D01*
X10678722Y-16211062D01*
X10697770Y-16211062D01*
X10840627Y-16201538D02*
X10821579Y-16211062D01*
X10783484Y-16211062D01*
X10764436Y-16201538D01*
X10754912Y-16182491D01*
X10754912Y-16106300D01*
X10764436Y-16087253D01*
X10783484Y-16077729D01*
X10821579Y-16077729D01*
X10840627Y-16087253D01*
X10850150Y-16106300D01*
X10850150Y-16125348D01*
X10754912Y-16144395D01*
X11021579Y-16211062D02*
X11021579Y-16011062D01*
X11021579Y-16201538D02*
X11002531Y-16211062D01*
X10964436Y-16211062D01*
X10945389Y-16201538D01*
X10935865Y-16192014D01*
X10926341Y-16172967D01*
X10926341Y-16115824D01*
X10935865Y-16096776D01*
X10945389Y-16087253D01*
X10964436Y-16077729D01*
X11002531Y-16077729D01*
X11021579Y-16087253D01*
X11097770Y-16287253D02*
X11107293Y-16277729D01*
X11126341Y-16249157D01*
X11135865Y-16230110D01*
X11145389Y-16201538D01*
X11154912Y-16153919D01*
X11154912Y-16115824D01*
X11145389Y-16068205D01*
X11135865Y-16039634D01*
X11126341Y-16020586D01*
X11107293Y-15992014D01*
X11097770Y-15982491D01*
X3863960Y-16540586D02*
X3963960Y-16440586D01*
X3863960Y-16340586D01*
X3763960Y-16440586D01*
X3863960Y-16540586D01*
X4202531Y-16331062D02*
X4326341Y-16331062D01*
X4259674Y-16407253D01*
X4288246Y-16407253D01*
X4307293Y-16416776D01*
X4316817Y-16426300D01*
X4326341Y-16445348D01*
X4326341Y-16492967D01*
X4316817Y-16512014D01*
X4307293Y-16521538D01*
X4288246Y-16531062D01*
X4231103Y-16531062D01*
X4212055Y-16521538D01*
X4202531Y-16512014D01*
X4412055Y-16512014D02*
X4421579Y-16521538D01*
X4412055Y-16531062D01*
X4402531Y-16521538D01*
X4412055Y-16512014D01*
X4412055Y-16531062D01*
X4545389Y-16331062D02*
X4564436Y-16331062D01*
X4583484Y-16340586D01*
X4593008Y-16350110D01*
X4602531Y-16369157D01*
X4612055Y-16407253D01*
X4612055Y-16454872D01*
X4602531Y-16492967D01*
X4593008Y-16512014D01*
X4583484Y-16521538D01*
X4564436Y-16531062D01*
X4545389Y-16531062D01*
X4526341Y-16521538D01*
X4516817Y-16512014D01*
X4507293Y-16492967D01*
X4497770Y-16454872D01*
X4497770Y-16407253D01*
X4507293Y-16369157D01*
X4516817Y-16350110D01*
X4526341Y-16340586D01*
X4545389Y-16331062D01*
X4783484Y-16397729D02*
X4783484Y-16531062D01*
X4735865Y-16321538D02*
X4688246Y-16464395D01*
X4812055Y-16464395D01*
X4916817Y-16416776D02*
X4897770Y-16407253D01*
X4888246Y-16397729D01*
X4878722Y-16378681D01*
X4878722Y-16369157D01*
X4888246Y-16350110D01*
X4897770Y-16340586D01*
X4916817Y-16331062D01*
X4954912Y-16331062D01*
X4973960Y-16340586D01*
X4983484Y-16350110D01*
X4993008Y-16369157D01*
X4993008Y-16378681D01*
X4983484Y-16397729D01*
X4973960Y-16407253D01*
X4954912Y-16416776D01*
X4916817Y-16416776D01*
X4897770Y-16426300D01*
X4888246Y-16435824D01*
X4878722Y-16454872D01*
X4878722Y-16492967D01*
X4888246Y-16512014D01*
X4897770Y-16521538D01*
X4916817Y-16531062D01*
X4954912Y-16531062D01*
X4973960Y-16521538D01*
X4983484Y-16512014D01*
X4993008Y-16492967D01*
X4993008Y-16454872D01*
X4983484Y-16435824D01*
X4973960Y-16426300D01*
X4954912Y-16416776D01*
X5078722Y-16531062D02*
X5078722Y-16397729D01*
X5078722Y-16416776D02*
X5088246Y-16407253D01*
X5107293Y-16397729D01*
X5135865Y-16397729D01*
X5154912Y-16407253D01*
X5164436Y-16426300D01*
X5164436Y-16531062D01*
X5164436Y-16426300D02*
X5173960Y-16407253D01*
X5193008Y-16397729D01*
X5221579Y-16397729D01*
X5240627Y-16407253D01*
X5250150Y-16426300D01*
X5250150Y-16531062D01*
X5345389Y-16531062D02*
X5345389Y-16397729D01*
X5345389Y-16416776D02*
X5354912Y-16407253D01*
X5373960Y-16397729D01*
X5402531Y-16397729D01*
X5421579Y-16407253D01*
X5431103Y-16426300D01*
X5431103Y-16531062D01*
X5431103Y-16426300D02*
X5440627Y-16407253D01*
X5459674Y-16397729D01*
X5488246Y-16397729D01*
X5507293Y-16407253D01*
X5516817Y-16426300D01*
X5516817Y-16531062D01*
X5907293Y-16321538D02*
X5735865Y-16578681D01*
X6164436Y-16331062D02*
X6183484Y-16331062D01*
X6202531Y-16340586D01*
X6212055Y-16350110D01*
X6221579Y-16369157D01*
X6231103Y-16407253D01*
X6231103Y-16454872D01*
X6221579Y-16492967D01*
X6212055Y-16512014D01*
X6202531Y-16521538D01*
X6183484Y-16531062D01*
X6164436Y-16531062D01*
X6145388Y-16521538D01*
X6135865Y-16512014D01*
X6126341Y-16492967D01*
X6116817Y-16454872D01*
X6116817Y-16407253D01*
X6126341Y-16369157D01*
X6135865Y-16350110D01*
X6145388Y-16340586D01*
X6164436Y-16331062D01*
X6316817Y-16512014D02*
X6326341Y-16521538D01*
X6316817Y-16531062D01*
X6307293Y-16521538D01*
X6316817Y-16512014D01*
X6316817Y-16531062D01*
X6516817Y-16531062D02*
X6402531Y-16531062D01*
X6459674Y-16531062D02*
X6459674Y-16331062D01*
X6440627Y-16359634D01*
X6421579Y-16378681D01*
X6402531Y-16388205D01*
X6593008Y-16350110D02*
X6602531Y-16340586D01*
X6621579Y-16331062D01*
X6669198Y-16331062D01*
X6688246Y-16340586D01*
X6697769Y-16350110D01*
X6707293Y-16369157D01*
X6707293Y-16388205D01*
X6697769Y-16416776D01*
X6583484Y-16531062D01*
X6707293Y-16531062D01*
X6831103Y-16331062D02*
X6850150Y-16331062D01*
X6869198Y-16340586D01*
X6878722Y-16350110D01*
X6888246Y-16369157D01*
X6897769Y-16407253D01*
X6897769Y-16454872D01*
X6888246Y-16492967D01*
X6878722Y-16512014D01*
X6869198Y-16521538D01*
X6850150Y-16531062D01*
X6831103Y-16531062D01*
X6812055Y-16521538D01*
X6802531Y-16512014D01*
X6793008Y-16492967D01*
X6783484Y-16454872D01*
X6783484Y-16407253D01*
X6793008Y-16369157D01*
X6802531Y-16350110D01*
X6812055Y-16340586D01*
X6831103Y-16331062D01*
X7021579Y-16331062D02*
X7040627Y-16331062D01*
X7059674Y-16340586D01*
X7069198Y-16350110D01*
X7078722Y-16369157D01*
X7088246Y-16407253D01*
X7088246Y-16454872D01*
X7078722Y-16492967D01*
X7069198Y-16512014D01*
X7059674Y-16521538D01*
X7040627Y-16531062D01*
X7021579Y-16531062D01*
X7002531Y-16521538D01*
X6993008Y-16512014D01*
X6983484Y-16492967D01*
X6973960Y-16454872D01*
X6973960Y-16407253D01*
X6983484Y-16369157D01*
X6993008Y-16350110D01*
X7002531Y-16340586D01*
X7021579Y-16331062D01*
X7164436Y-16331062D02*
X7164436Y-16369157D01*
X7240627Y-16331062D02*
X7240627Y-16369157D01*
X7535865Y-16607253D02*
X7526341Y-16597729D01*
X7507293Y-16569157D01*
X7497769Y-16550110D01*
X7488246Y-16521538D01*
X7478722Y-16473919D01*
X7478722Y-16435824D01*
X7488246Y-16388205D01*
X7497769Y-16359634D01*
X7507293Y-16340586D01*
X7526341Y-16312014D01*
X7535865Y-16302491D01*
X7697769Y-16397729D02*
X7697769Y-16531062D01*
X7650150Y-16321538D02*
X7602531Y-16464395D01*
X7726341Y-16464395D01*
X7954912Y-16531062D02*
X7954912Y-16331062D01*
X8040627Y-16531062D02*
X8040627Y-16426300D01*
X8031103Y-16407253D01*
X8012055Y-16397729D01*
X7983484Y-16397729D01*
X7964436Y-16407253D01*
X7954912Y-16416776D01*
X8164436Y-16531062D02*
X8145388Y-16521538D01*
X8135865Y-16512014D01*
X8126341Y-16492967D01*
X8126341Y-16435824D01*
X8135865Y-16416776D01*
X8145388Y-16407253D01*
X8164436Y-16397729D01*
X8193008Y-16397729D01*
X8212055Y-16407253D01*
X8221579Y-16416776D01*
X8231103Y-16435824D01*
X8231103Y-16492967D01*
X8221579Y-16512014D01*
X8212055Y-16521538D01*
X8193008Y-16531062D01*
X8164436Y-16531062D01*
X8345388Y-16531062D02*
X8326341Y-16521538D01*
X8316817Y-16502491D01*
X8316817Y-16331062D01*
X8497770Y-16521538D02*
X8478722Y-16531062D01*
X8440627Y-16531062D01*
X8421579Y-16521538D01*
X8412055Y-16502491D01*
X8412055Y-16426300D01*
X8421579Y-16407253D01*
X8440627Y-16397729D01*
X8478722Y-16397729D01*
X8497770Y-16407253D01*
X8507293Y-16426300D01*
X8507293Y-16445348D01*
X8412055Y-16464395D01*
X8583484Y-16521538D02*
X8602531Y-16531062D01*
X8640627Y-16531062D01*
X8659674Y-16521538D01*
X8669198Y-16502491D01*
X8669198Y-16492967D01*
X8659674Y-16473919D01*
X8640627Y-16464395D01*
X8612055Y-16464395D01*
X8593008Y-16454872D01*
X8583484Y-16435824D01*
X8583484Y-16426300D01*
X8593008Y-16407253D01*
X8612055Y-16397729D01*
X8640627Y-16397729D01*
X8659674Y-16407253D01*
X8735865Y-16607253D02*
X8745389Y-16597729D01*
X8764436Y-16569157D01*
X8773960Y-16550110D01*
X8783484Y-16521538D01*
X8793008Y-16473919D01*
X8793008Y-16435824D01*
X8783484Y-16388205D01*
X8773960Y-16359634D01*
X8764436Y-16340586D01*
X8745389Y-16312014D01*
X8735865Y-16302491D01*
X9097770Y-16607253D02*
X9088246Y-16597729D01*
X9069198Y-16569157D01*
X9059674Y-16550110D01*
X9050150Y-16521538D01*
X9040627Y-16473919D01*
X9040627Y-16435824D01*
X9050150Y-16388205D01*
X9059674Y-16359634D01*
X9069198Y-16340586D01*
X9088246Y-16312014D01*
X9097770Y-16302491D01*
X9173960Y-16397729D02*
X9173960Y-16531062D01*
X9173960Y-16416776D02*
X9183484Y-16407253D01*
X9202531Y-16397729D01*
X9231103Y-16397729D01*
X9250150Y-16407253D01*
X9259674Y-16426300D01*
X9259674Y-16531062D01*
X9383484Y-16531062D02*
X9364436Y-16521538D01*
X9354912Y-16512014D01*
X9345389Y-16492967D01*
X9345389Y-16435824D01*
X9354912Y-16416776D01*
X9364436Y-16407253D01*
X9383484Y-16397729D01*
X9412055Y-16397729D01*
X9431103Y-16407253D01*
X9440627Y-16416776D01*
X9450150Y-16435824D01*
X9450150Y-16492967D01*
X9440627Y-16512014D01*
X9431103Y-16521538D01*
X9412055Y-16531062D01*
X9383484Y-16531062D01*
X9507293Y-16397729D02*
X9583484Y-16397729D01*
X9535865Y-16331062D02*
X9535865Y-16502491D01*
X9545389Y-16521538D01*
X9564436Y-16531062D01*
X9583484Y-16531062D01*
X9802531Y-16397729D02*
X9802531Y-16597729D01*
X9802531Y-16407253D02*
X9821579Y-16397729D01*
X9859674Y-16397729D01*
X9878722Y-16407253D01*
X9888246Y-16416776D01*
X9897770Y-16435824D01*
X9897770Y-16492967D01*
X9888246Y-16512014D01*
X9878722Y-16521538D01*
X9859674Y-16531062D01*
X9821579Y-16531062D01*
X9802531Y-16521538D01*
X10012055Y-16531062D02*
X9993008Y-16521538D01*
X9983484Y-16502491D01*
X9983484Y-16331062D01*
X10173960Y-16531062D02*
X10173960Y-16426300D01*
X10164436Y-16407253D01*
X10145389Y-16397729D01*
X10107293Y-16397729D01*
X10088246Y-16407253D01*
X10173960Y-16521538D02*
X10154912Y-16531062D01*
X10107293Y-16531062D01*
X10088246Y-16521538D01*
X10078722Y-16502491D01*
X10078722Y-16483443D01*
X10088246Y-16464395D01*
X10107293Y-16454872D01*
X10154912Y-16454872D01*
X10173960Y-16445348D01*
X10240627Y-16397729D02*
X10316817Y-16397729D01*
X10269198Y-16331062D02*
X10269198Y-16502491D01*
X10278722Y-16521538D01*
X10297770Y-16531062D01*
X10316817Y-16531062D01*
X10459674Y-16521538D02*
X10440627Y-16531062D01*
X10402531Y-16531062D01*
X10383484Y-16521538D01*
X10373960Y-16502491D01*
X10373960Y-16426300D01*
X10383484Y-16407253D01*
X10402531Y-16397729D01*
X10440627Y-16397729D01*
X10459674Y-16407253D01*
X10469198Y-16426300D01*
X10469198Y-16445348D01*
X10373960Y-16464395D01*
X10640627Y-16531062D02*
X10640627Y-16331062D01*
X10640627Y-16521538D02*
X10621579Y-16531062D01*
X10583484Y-16531062D01*
X10564436Y-16521538D01*
X10554912Y-16512014D01*
X10545389Y-16492967D01*
X10545389Y-16435824D01*
X10554912Y-16416776D01*
X10564436Y-16407253D01*
X10583484Y-16397729D01*
X10621579Y-16397729D01*
X10640627Y-16407253D01*
X10716817Y-16607253D02*
X10726341Y-16597729D01*
X10745389Y-16569157D01*
X10754912Y-16550110D01*
X10764436Y-16521538D01*
X10773960Y-16473919D01*
X10773960Y-16435824D01*
X10764436Y-16388205D01*
X10754912Y-16359634D01*
X10745389Y-16340586D01*
X10726341Y-16312014D01*
X10716817Y-16302491D01*
X3763960Y-16660586D02*
X3963960Y-16860586D01*
X3963960Y-16660586D02*
X3763960Y-16860586D01*
X3963960Y-16760586D02*
G75*
G03*
X3963960Y-16760586I-100000J0D01*
G01*
X4202531Y-16651062D02*
X4326341Y-16651062D01*
X4259674Y-16727253D01*
X4288246Y-16727253D01*
X4307293Y-16736776D01*
X4316817Y-16746300D01*
X4326341Y-16765348D01*
X4326341Y-16812967D01*
X4316817Y-16832015D01*
X4307293Y-16841538D01*
X4288246Y-16851062D01*
X4231103Y-16851062D01*
X4212055Y-16841538D01*
X4202531Y-16832015D01*
X4412055Y-16832015D02*
X4421579Y-16841538D01*
X4412055Y-16851062D01*
X4402531Y-16841538D01*
X4412055Y-16832015D01*
X4412055Y-16851062D01*
X4516817Y-16851062D02*
X4554912Y-16851062D01*
X4573960Y-16841538D01*
X4583484Y-16832015D01*
X4602531Y-16803443D01*
X4612055Y-16765348D01*
X4612055Y-16689157D01*
X4602531Y-16670110D01*
X4593008Y-16660586D01*
X4573960Y-16651062D01*
X4535865Y-16651062D01*
X4516817Y-16660586D01*
X4507293Y-16670110D01*
X4497770Y-16689157D01*
X4497770Y-16736776D01*
X4507293Y-16755824D01*
X4516817Y-16765348D01*
X4535865Y-16774872D01*
X4573960Y-16774872D01*
X4593008Y-16765348D01*
X4602531Y-16755824D01*
X4612055Y-16736776D01*
X4726341Y-16736776D02*
X4707293Y-16727253D01*
X4697770Y-16717729D01*
X4688246Y-16698681D01*
X4688246Y-16689157D01*
X4697770Y-16670110D01*
X4707293Y-16660586D01*
X4726341Y-16651062D01*
X4764436Y-16651062D01*
X4783484Y-16660586D01*
X4793008Y-16670110D01*
X4802531Y-16689157D01*
X4802531Y-16698681D01*
X4793008Y-16717729D01*
X4783484Y-16727253D01*
X4764436Y-16736776D01*
X4726341Y-16736776D01*
X4707293Y-16746300D01*
X4697770Y-16755824D01*
X4688246Y-16774872D01*
X4688246Y-16812967D01*
X4697770Y-16832015D01*
X4707293Y-16841538D01*
X4726341Y-16851062D01*
X4764436Y-16851062D01*
X4783484Y-16841538D01*
X4793008Y-16832015D01*
X4802531Y-16812967D01*
X4802531Y-16774872D01*
X4793008Y-16755824D01*
X4783484Y-16746300D01*
X4764436Y-16736776D01*
X4916817Y-16736776D02*
X4897770Y-16727253D01*
X4888246Y-16717729D01*
X4878722Y-16698681D01*
X4878722Y-16689157D01*
X4888246Y-16670110D01*
X4897770Y-16660586D01*
X4916817Y-16651062D01*
X4954912Y-16651062D01*
X4973960Y-16660586D01*
X4983484Y-16670110D01*
X4993008Y-16689157D01*
X4993008Y-16698681D01*
X4983484Y-16717729D01*
X4973960Y-16727253D01*
X4954912Y-16736776D01*
X4916817Y-16736776D01*
X4897770Y-16746300D01*
X4888246Y-16755824D01*
X4878722Y-16774872D01*
X4878722Y-16812967D01*
X4888246Y-16832015D01*
X4897770Y-16841538D01*
X4916817Y-16851062D01*
X4954912Y-16851062D01*
X4973960Y-16841538D01*
X4983484Y-16832015D01*
X4993008Y-16812967D01*
X4993008Y-16774872D01*
X4983484Y-16755824D01*
X4973960Y-16746300D01*
X4954912Y-16736776D01*
X5078722Y-16851062D02*
X5078722Y-16717729D01*
X5078722Y-16736776D02*
X5088246Y-16727253D01*
X5107293Y-16717729D01*
X5135865Y-16717729D01*
X5154912Y-16727253D01*
X5164436Y-16746300D01*
X5164436Y-16851062D01*
X5164436Y-16746300D02*
X5173960Y-16727253D01*
X5193008Y-16717729D01*
X5221579Y-16717729D01*
X5240627Y-16727253D01*
X5250150Y-16746300D01*
X5250150Y-16851062D01*
X5345389Y-16851062D02*
X5345389Y-16717729D01*
X5345389Y-16736776D02*
X5354912Y-16727253D01*
X5373960Y-16717729D01*
X5402531Y-16717729D01*
X5421579Y-16727253D01*
X5431103Y-16746300D01*
X5431103Y-16851062D01*
X5431103Y-16746300D02*
X5440627Y-16727253D01*
X5459674Y-16717729D01*
X5488246Y-16717729D01*
X5507293Y-16727253D01*
X5516817Y-16746300D01*
X5516817Y-16851062D01*
X5907293Y-16641538D02*
X5735865Y-16898681D01*
X6164436Y-16651062D02*
X6183484Y-16651062D01*
X6202531Y-16660586D01*
X6212055Y-16670110D01*
X6221579Y-16689157D01*
X6231103Y-16727253D01*
X6231103Y-16774872D01*
X6221579Y-16812967D01*
X6212055Y-16832015D01*
X6202531Y-16841538D01*
X6183484Y-16851062D01*
X6164436Y-16851062D01*
X6145388Y-16841538D01*
X6135865Y-16832015D01*
X6126341Y-16812967D01*
X6116817Y-16774872D01*
X6116817Y-16727253D01*
X6126341Y-16689157D01*
X6135865Y-16670110D01*
X6145388Y-16660586D01*
X6164436Y-16651062D01*
X6316817Y-16832015D02*
X6326341Y-16841538D01*
X6316817Y-16851062D01*
X6307293Y-16841538D01*
X6316817Y-16832015D01*
X6316817Y-16851062D01*
X6516817Y-16851062D02*
X6402531Y-16851062D01*
X6459674Y-16851062D02*
X6459674Y-16651062D01*
X6440627Y-16679634D01*
X6421579Y-16698681D01*
X6402531Y-16708205D01*
X6697769Y-16651062D02*
X6602531Y-16651062D01*
X6593008Y-16746300D01*
X6602531Y-16736776D01*
X6621579Y-16727253D01*
X6669198Y-16727253D01*
X6688246Y-16736776D01*
X6697769Y-16746300D01*
X6707293Y-16765348D01*
X6707293Y-16812967D01*
X6697769Y-16832015D01*
X6688246Y-16841538D01*
X6669198Y-16851062D01*
X6621579Y-16851062D01*
X6602531Y-16841538D01*
X6593008Y-16832015D01*
X6773960Y-16651062D02*
X6907293Y-16651062D01*
X6821579Y-16851062D01*
X7021579Y-16651062D02*
X7040627Y-16651062D01*
X7059674Y-16660586D01*
X7069198Y-16670110D01*
X7078722Y-16689157D01*
X7088246Y-16727253D01*
X7088246Y-16774872D01*
X7078722Y-16812967D01*
X7069198Y-16832015D01*
X7059674Y-16841538D01*
X7040627Y-16851062D01*
X7021579Y-16851062D01*
X7002531Y-16841538D01*
X6993008Y-16832015D01*
X6983484Y-16812967D01*
X6973960Y-16774872D01*
X6973960Y-16727253D01*
X6983484Y-16689157D01*
X6993008Y-16670110D01*
X7002531Y-16660586D01*
X7021579Y-16651062D01*
X7164436Y-16651062D02*
X7164436Y-16689157D01*
X7240627Y-16651062D02*
X7240627Y-16689157D01*
X7535865Y-16927253D02*
X7526341Y-16917729D01*
X7507293Y-16889157D01*
X7497769Y-16870110D01*
X7488246Y-16841538D01*
X7478722Y-16793919D01*
X7478722Y-16755824D01*
X7488246Y-16708205D01*
X7497769Y-16679634D01*
X7507293Y-16660586D01*
X7526341Y-16632014D01*
X7535865Y-16622491D01*
X7697769Y-16651062D02*
X7659674Y-16651062D01*
X7640627Y-16660586D01*
X7631103Y-16670110D01*
X7612055Y-16698681D01*
X7602531Y-16736776D01*
X7602531Y-16812967D01*
X7612055Y-16832015D01*
X7621579Y-16841538D01*
X7640627Y-16851062D01*
X7678722Y-16851062D01*
X7697769Y-16841538D01*
X7707293Y-16832015D01*
X7716817Y-16812967D01*
X7716817Y-16765348D01*
X7707293Y-16746300D01*
X7697769Y-16736776D01*
X7678722Y-16727253D01*
X7640627Y-16727253D01*
X7621579Y-16736776D01*
X7612055Y-16746300D01*
X7602531Y-16765348D01*
X7954912Y-16851062D02*
X7954912Y-16651062D01*
X8040627Y-16851062D02*
X8040627Y-16746300D01*
X8031103Y-16727253D01*
X8012055Y-16717729D01*
X7983484Y-16717729D01*
X7964436Y-16727253D01*
X7954912Y-16736776D01*
X8164436Y-16851062D02*
X8145388Y-16841538D01*
X8135865Y-16832015D01*
X8126341Y-16812967D01*
X8126341Y-16755824D01*
X8135865Y-16736776D01*
X8145388Y-16727253D01*
X8164436Y-16717729D01*
X8193008Y-16717729D01*
X8212055Y-16727253D01*
X8221579Y-16736776D01*
X8231103Y-16755824D01*
X8231103Y-16812967D01*
X8221579Y-16832015D01*
X8212055Y-16841538D01*
X8193008Y-16851062D01*
X8164436Y-16851062D01*
X8345388Y-16851062D02*
X8326341Y-16841538D01*
X8316817Y-16822491D01*
X8316817Y-16651062D01*
X8497770Y-16841538D02*
X8478722Y-16851062D01*
X8440627Y-16851062D01*
X8421579Y-16841538D01*
X8412055Y-16822491D01*
X8412055Y-16746300D01*
X8421579Y-16727253D01*
X8440627Y-16717729D01*
X8478722Y-16717729D01*
X8497770Y-16727253D01*
X8507293Y-16746300D01*
X8507293Y-16765348D01*
X8412055Y-16784396D01*
X8583484Y-16841538D02*
X8602531Y-16851062D01*
X8640627Y-16851062D01*
X8659674Y-16841538D01*
X8669198Y-16822491D01*
X8669198Y-16812967D01*
X8659674Y-16793919D01*
X8640627Y-16784396D01*
X8612055Y-16784396D01*
X8593008Y-16774872D01*
X8583484Y-16755824D01*
X8583484Y-16746300D01*
X8593008Y-16727253D01*
X8612055Y-16717729D01*
X8640627Y-16717729D01*
X8659674Y-16727253D01*
X8735865Y-16927253D02*
X8745389Y-16917729D01*
X8764436Y-16889157D01*
X8773960Y-16870110D01*
X8783484Y-16841538D01*
X8793008Y-16793919D01*
X8793008Y-16755824D01*
X8783484Y-16708205D01*
X8773960Y-16679634D01*
X8764436Y-16660586D01*
X8745389Y-16632014D01*
X8735865Y-16622491D01*
X9097770Y-16927253D02*
X9088246Y-16917729D01*
X9069198Y-16889157D01*
X9059674Y-16870110D01*
X9050150Y-16841538D01*
X9040627Y-16793919D01*
X9040627Y-16755824D01*
X9050150Y-16708205D01*
X9059674Y-16679634D01*
X9069198Y-16660586D01*
X9088246Y-16632014D01*
X9097770Y-16622491D01*
X9173960Y-16717729D02*
X9173960Y-16851062D01*
X9173960Y-16736776D02*
X9183484Y-16727253D01*
X9202531Y-16717729D01*
X9231103Y-16717729D01*
X9250150Y-16727253D01*
X9259674Y-16746300D01*
X9259674Y-16851062D01*
X9383484Y-16851062D02*
X9364436Y-16841538D01*
X9354912Y-16832015D01*
X9345389Y-16812967D01*
X9345389Y-16755824D01*
X9354912Y-16736776D01*
X9364436Y-16727253D01*
X9383484Y-16717729D01*
X9412055Y-16717729D01*
X9431103Y-16727253D01*
X9440627Y-16736776D01*
X9450150Y-16755824D01*
X9450150Y-16812967D01*
X9440627Y-16832015D01*
X9431103Y-16841538D01*
X9412055Y-16851062D01*
X9383484Y-16851062D01*
X9507293Y-16717729D02*
X9583484Y-16717729D01*
X9535865Y-16651062D02*
X9535865Y-16822491D01*
X9545389Y-16841538D01*
X9564436Y-16851062D01*
X9583484Y-16851062D01*
X9802531Y-16717729D02*
X9802531Y-16917729D01*
X9802531Y-16727253D02*
X9821579Y-16717729D01*
X9859674Y-16717729D01*
X9878722Y-16727253D01*
X9888246Y-16736776D01*
X9897770Y-16755824D01*
X9897770Y-16812967D01*
X9888246Y-16832015D01*
X9878722Y-16841538D01*
X9859674Y-16851062D01*
X9821579Y-16851062D01*
X9802531Y-16841538D01*
X10012055Y-16851062D02*
X9993008Y-16841538D01*
X9983484Y-16822491D01*
X9983484Y-16651062D01*
X10173960Y-16851062D02*
X10173960Y-16746300D01*
X10164436Y-16727253D01*
X10145389Y-16717729D01*
X10107293Y-16717729D01*
X10088246Y-16727253D01*
X10173960Y-16841538D02*
X10154912Y-16851062D01*
X10107293Y-16851062D01*
X10088246Y-16841538D01*
X10078722Y-16822491D01*
X10078722Y-16803443D01*
X10088246Y-16784396D01*
X10107293Y-16774872D01*
X10154912Y-16774872D01*
X10173960Y-16765348D01*
X10240627Y-16717729D02*
X10316817Y-16717729D01*
X10269198Y-16651062D02*
X10269198Y-16822491D01*
X10278722Y-16841538D01*
X10297770Y-16851062D01*
X10316817Y-16851062D01*
X10459674Y-16841538D02*
X10440627Y-16851062D01*
X10402531Y-16851062D01*
X10383484Y-16841538D01*
X10373960Y-16822491D01*
X10373960Y-16746300D01*
X10383484Y-16727253D01*
X10402531Y-16717729D01*
X10440627Y-16717729D01*
X10459674Y-16727253D01*
X10469198Y-16746300D01*
X10469198Y-16765348D01*
X10373960Y-16784396D01*
X10640627Y-16851062D02*
X10640627Y-16651062D01*
X10640627Y-16841538D02*
X10621579Y-16851062D01*
X10583484Y-16851062D01*
X10564436Y-16841538D01*
X10554912Y-16832015D01*
X10545389Y-16812967D01*
X10545389Y-16755824D01*
X10554912Y-16736776D01*
X10564436Y-16727253D01*
X10583484Y-16717729D01*
X10621579Y-16717729D01*
X10640627Y-16727253D01*
X10716817Y-16927253D02*
X10726341Y-16917729D01*
X10745389Y-16889157D01*
X10754912Y-16870110D01*
X10764436Y-16841538D01*
X10773960Y-16793919D01*
X10773960Y-16755824D01*
X10764436Y-16708205D01*
X10754912Y-16679634D01*
X10745389Y-16660586D01*
X10726341Y-16632014D01*
X10716817Y-16622491D01*
X3763960Y-16980586D02*
X3963960Y-17180586D01*
X3963960Y-16980586D02*
X3763960Y-17180586D01*
X3863960Y-16980586D02*
X3863960Y-17180586D01*
X3763960Y-17080586D02*
X3963960Y-17080586D01*
X4307293Y-17037729D02*
X4307293Y-17171062D01*
X4259674Y-16961538D02*
X4212055Y-17104396D01*
X4335865Y-17104396D01*
X4412055Y-17152015D02*
X4421579Y-17161538D01*
X4412055Y-17171062D01*
X4402531Y-17161538D01*
X4412055Y-17152015D01*
X4412055Y-17171062D01*
X4612055Y-17171062D02*
X4497770Y-17171062D01*
X4554912Y-17171062D02*
X4554912Y-16971062D01*
X4535865Y-16999634D01*
X4516817Y-17018681D01*
X4497770Y-17028205D01*
X4735865Y-16971062D02*
X4754912Y-16971062D01*
X4773960Y-16980586D01*
X4783484Y-16990110D01*
X4793008Y-17009157D01*
X4802531Y-17047253D01*
X4802531Y-17094872D01*
X4793008Y-17132967D01*
X4783484Y-17152015D01*
X4773960Y-17161538D01*
X4754912Y-17171062D01*
X4735865Y-17171062D01*
X4716817Y-17161538D01*
X4707293Y-17152015D01*
X4697770Y-17132967D01*
X4688246Y-17094872D01*
X4688246Y-17047253D01*
X4697770Y-17009157D01*
X4707293Y-16990110D01*
X4716817Y-16980586D01*
X4735865Y-16971062D01*
X4926341Y-16971062D02*
X4945389Y-16971062D01*
X4964436Y-16980586D01*
X4973960Y-16990110D01*
X4983484Y-17009157D01*
X4993008Y-17047253D01*
X4993008Y-17094872D01*
X4983484Y-17132967D01*
X4973960Y-17152015D01*
X4964436Y-17161538D01*
X4945389Y-17171062D01*
X4926341Y-17171062D01*
X4907293Y-17161538D01*
X4897770Y-17152015D01*
X4888246Y-17132967D01*
X4878722Y-17094872D01*
X4878722Y-17047253D01*
X4888246Y-17009157D01*
X4897770Y-16990110D01*
X4907293Y-16980586D01*
X4926341Y-16971062D01*
X5078722Y-17171062D02*
X5078722Y-17037729D01*
X5078722Y-17056776D02*
X5088246Y-17047253D01*
X5107293Y-17037729D01*
X5135865Y-17037729D01*
X5154912Y-17047253D01*
X5164436Y-17066300D01*
X5164436Y-17171062D01*
X5164436Y-17066300D02*
X5173960Y-17047253D01*
X5193008Y-17037729D01*
X5221579Y-17037729D01*
X5240627Y-17047253D01*
X5250150Y-17066300D01*
X5250150Y-17171062D01*
X5345389Y-17171062D02*
X5345389Y-17037729D01*
X5345389Y-17056776D02*
X5354912Y-17047253D01*
X5373960Y-17037729D01*
X5402531Y-17037729D01*
X5421579Y-17047253D01*
X5431103Y-17066300D01*
X5431103Y-17171062D01*
X5431103Y-17066300D02*
X5440627Y-17047253D01*
X5459674Y-17037729D01*
X5488246Y-17037729D01*
X5507293Y-17047253D01*
X5516817Y-17066300D01*
X5516817Y-17171062D01*
X5907293Y-16961538D02*
X5735865Y-17218681D01*
X6164436Y-16971062D02*
X6183484Y-16971062D01*
X6202531Y-16980586D01*
X6212055Y-16990110D01*
X6221579Y-17009157D01*
X6231103Y-17047253D01*
X6231103Y-17094872D01*
X6221579Y-17132967D01*
X6212055Y-17152015D01*
X6202531Y-17161538D01*
X6183484Y-17171062D01*
X6164436Y-17171062D01*
X6145388Y-17161538D01*
X6135865Y-17152015D01*
X6126341Y-17132967D01*
X6116817Y-17094872D01*
X6116817Y-17047253D01*
X6126341Y-17009157D01*
X6135865Y-16990110D01*
X6145388Y-16980586D01*
X6164436Y-16971062D01*
X6316817Y-17152015D02*
X6326341Y-17161538D01*
X6316817Y-17171062D01*
X6307293Y-17161538D01*
X6316817Y-17152015D01*
X6316817Y-17171062D01*
X6516817Y-17171062D02*
X6402531Y-17171062D01*
X6459674Y-17171062D02*
X6459674Y-16971062D01*
X6440627Y-16999634D01*
X6421579Y-17018681D01*
X6402531Y-17028205D01*
X6688246Y-16971062D02*
X6650150Y-16971062D01*
X6631103Y-16980586D01*
X6621579Y-16990110D01*
X6602531Y-17018681D01*
X6593008Y-17056776D01*
X6593008Y-17132967D01*
X6602531Y-17152015D01*
X6612055Y-17161538D01*
X6631103Y-17171062D01*
X6669198Y-17171062D01*
X6688246Y-17161538D01*
X6697769Y-17152015D01*
X6707293Y-17132967D01*
X6707293Y-17085348D01*
X6697769Y-17066300D01*
X6688246Y-17056776D01*
X6669198Y-17047253D01*
X6631103Y-17047253D01*
X6612055Y-17056776D01*
X6602531Y-17066300D01*
X6593008Y-17085348D01*
X6897769Y-17171062D02*
X6783484Y-17171062D01*
X6840627Y-17171062D02*
X6840627Y-16971062D01*
X6821579Y-16999634D01*
X6802531Y-17018681D01*
X6783484Y-17028205D01*
X7069198Y-17037729D02*
X7069198Y-17171062D01*
X7021579Y-16961538D02*
X6973960Y-17104396D01*
X7097769Y-17104396D01*
X7164436Y-16971062D02*
X7164436Y-17009157D01*
X7240627Y-16971062D02*
X7240627Y-17009157D01*
X7535865Y-17247253D02*
X7526341Y-17237729D01*
X7507293Y-17209157D01*
X7497769Y-17190110D01*
X7488246Y-17161538D01*
X7478722Y-17113919D01*
X7478722Y-17075824D01*
X7488246Y-17028205D01*
X7497769Y-16999634D01*
X7507293Y-16980586D01*
X7526341Y-16952015D01*
X7535865Y-16942491D01*
X7697769Y-16971062D02*
X7659674Y-16971062D01*
X7640627Y-16980586D01*
X7631103Y-16990110D01*
X7612055Y-17018681D01*
X7602531Y-17056776D01*
X7602531Y-17132967D01*
X7612055Y-17152015D01*
X7621579Y-17161538D01*
X7640627Y-17171062D01*
X7678722Y-17171062D01*
X7697769Y-17161538D01*
X7707293Y-17152015D01*
X7716817Y-17132967D01*
X7716817Y-17085348D01*
X7707293Y-17066300D01*
X7697769Y-17056776D01*
X7678722Y-17047253D01*
X7640627Y-17047253D01*
X7621579Y-17056776D01*
X7612055Y-17066300D01*
X7602531Y-17085348D01*
X7907293Y-17171062D02*
X7793008Y-17171062D01*
X7850150Y-17171062D02*
X7850150Y-16971062D01*
X7831103Y-16999634D01*
X7812055Y-17018681D01*
X7793008Y-17028205D01*
X8145388Y-17171062D02*
X8145388Y-16971062D01*
X8231103Y-17171062D02*
X8231103Y-17066300D01*
X8221579Y-17047253D01*
X8202531Y-17037729D01*
X8173960Y-17037729D01*
X8154912Y-17047253D01*
X8145388Y-17056776D01*
X8354912Y-17171062D02*
X8335865Y-17161538D01*
X8326341Y-17152015D01*
X8316817Y-17132967D01*
X8316817Y-17075824D01*
X8326341Y-17056776D01*
X8335865Y-17047253D01*
X8354912Y-17037729D01*
X8383484Y-17037729D01*
X8402531Y-17047253D01*
X8412055Y-17056776D01*
X8421579Y-17075824D01*
X8421579Y-17132967D01*
X8412055Y-17152015D01*
X8402531Y-17161538D01*
X8383484Y-17171062D01*
X8354912Y-17171062D01*
X8535865Y-17171062D02*
X8516817Y-17161538D01*
X8507293Y-17142491D01*
X8507293Y-16971062D01*
X8688246Y-17161538D02*
X8669198Y-17171062D01*
X8631103Y-17171062D01*
X8612055Y-17161538D01*
X8602531Y-17142491D01*
X8602531Y-17066300D01*
X8612055Y-17047253D01*
X8631103Y-17037729D01*
X8669198Y-17037729D01*
X8688246Y-17047253D01*
X8697770Y-17066300D01*
X8697770Y-17085348D01*
X8602531Y-17104396D01*
X8773960Y-17161538D02*
X8793008Y-17171062D01*
X8831103Y-17171062D01*
X8850150Y-17161538D01*
X8859674Y-17142491D01*
X8859674Y-17132967D01*
X8850150Y-17113919D01*
X8831103Y-17104396D01*
X8802531Y-17104396D01*
X8783484Y-17094872D01*
X8773960Y-17075824D01*
X8773960Y-17066300D01*
X8783484Y-17047253D01*
X8802531Y-17037729D01*
X8831103Y-17037729D01*
X8850150Y-17047253D01*
X8926341Y-17247253D02*
X8935865Y-17237729D01*
X8954912Y-17209157D01*
X8964436Y-17190110D01*
X8973960Y-17161538D01*
X8983484Y-17113919D01*
X8983484Y-17075824D01*
X8973960Y-17028205D01*
X8964436Y-16999634D01*
X8954912Y-16980586D01*
X8935865Y-16952015D01*
X8926341Y-16942491D01*
X9288246Y-17247253D02*
X9278722Y-17237729D01*
X9259674Y-17209157D01*
X9250150Y-17190110D01*
X9240627Y-17161538D01*
X9231103Y-17113919D01*
X9231103Y-17075824D01*
X9240627Y-17028205D01*
X9250150Y-16999634D01*
X9259674Y-16980586D01*
X9278722Y-16952015D01*
X9288246Y-16942491D01*
X9364436Y-17037729D02*
X9364436Y-17171062D01*
X9364436Y-17056776D02*
X9373960Y-17047253D01*
X9393008Y-17037729D01*
X9421579Y-17037729D01*
X9440627Y-17047253D01*
X9450150Y-17066300D01*
X9450150Y-17171062D01*
X9573960Y-17171062D02*
X9554912Y-17161538D01*
X9545389Y-17152015D01*
X9535865Y-17132967D01*
X9535865Y-17075824D01*
X9545389Y-17056776D01*
X9554912Y-17047253D01*
X9573960Y-17037729D01*
X9602531Y-17037729D01*
X9621579Y-17047253D01*
X9631103Y-17056776D01*
X9640627Y-17075824D01*
X9640627Y-17132967D01*
X9631103Y-17152015D01*
X9621579Y-17161538D01*
X9602531Y-17171062D01*
X9573960Y-17171062D01*
X9697770Y-17037729D02*
X9773960Y-17037729D01*
X9726341Y-16971062D02*
X9726341Y-17142491D01*
X9735865Y-17161538D01*
X9754912Y-17171062D01*
X9773960Y-17171062D01*
X9993008Y-17037729D02*
X9993008Y-17237729D01*
X9993008Y-17047253D02*
X10012055Y-17037729D01*
X10050150Y-17037729D01*
X10069198Y-17047253D01*
X10078722Y-17056776D01*
X10088246Y-17075824D01*
X10088246Y-17132967D01*
X10078722Y-17152015D01*
X10069198Y-17161538D01*
X10050150Y-17171062D01*
X10012055Y-17171062D01*
X9993008Y-17161538D01*
X10202531Y-17171062D02*
X10183484Y-17161538D01*
X10173960Y-17142491D01*
X10173960Y-16971062D01*
X10364436Y-17171062D02*
X10364436Y-17066300D01*
X10354912Y-17047253D01*
X10335865Y-17037729D01*
X10297770Y-17037729D01*
X10278722Y-17047253D01*
X10364436Y-17161538D02*
X10345389Y-17171062D01*
X10297770Y-17171062D01*
X10278722Y-17161538D01*
X10269198Y-17142491D01*
X10269198Y-17123443D01*
X10278722Y-17104396D01*
X10297770Y-17094872D01*
X10345389Y-17094872D01*
X10364436Y-17085348D01*
X10431103Y-17037729D02*
X10507293Y-17037729D01*
X10459674Y-16971062D02*
X10459674Y-17142491D01*
X10469198Y-17161538D01*
X10488246Y-17171062D01*
X10507293Y-17171062D01*
X10650150Y-17161538D02*
X10631103Y-17171062D01*
X10593008Y-17171062D01*
X10573960Y-17161538D01*
X10564436Y-17142491D01*
X10564436Y-17066300D01*
X10573960Y-17047253D01*
X10593008Y-17037729D01*
X10631103Y-17037729D01*
X10650150Y-17047253D01*
X10659674Y-17066300D01*
X10659674Y-17085348D01*
X10564436Y-17104396D01*
X10831103Y-17171062D02*
X10831103Y-16971062D01*
X10831103Y-17161538D02*
X10812055Y-17171062D01*
X10773960Y-17171062D01*
X10754912Y-17161538D01*
X10745389Y-17152015D01*
X10735865Y-17132967D01*
X10735865Y-17075824D01*
X10745389Y-17056776D01*
X10754912Y-17047253D01*
X10773960Y-17037729D01*
X10812055Y-17037729D01*
X10831103Y-17047253D01*
X10907293Y-17247253D02*
X10916817Y-17237729D01*
X10935865Y-17209157D01*
X10945389Y-17190110D01*
X10954912Y-17161538D01*
X10964436Y-17113919D01*
X10964436Y-17075824D01*
X10954912Y-17028205D01*
X10945389Y-16999634D01*
X10935865Y-16980586D01*
X10916817Y-16952015D01*
X10907293Y-16942491D01*
M02*
