M48
; DRILL file {KiCad (6.0.0)} date Fri Dec 30 20:57:37 2022
; FORMAT={-:-/ absolute / metric / decimal}
; #@! TF.CreationDate,2022-12-30T20:57:37+07:00
; #@! TF.GenerationSoftware,Kicad,Pcbnew,(6.0.0)
; #@! TF.FileFunction,NonPlated,1,2,NPTH
FMAT,2
METRIC
; #@! TA.AperFunction,NonPlated,NPTH,ComponentDrill
T1C1.750
; #@! TA.AperFunction,NonPlated,NPTH,ComponentDrill
T2C1.900
; #@! TA.AperFunction,NonPlated,NPTH,ComponentDrill
T3C2.200
; #@! TA.AperFunction,NonPlated,NPTH,ComponentDrill
T4C3.000
; #@! TA.AperFunction,NonPlated,NPTH,ComponentDrill
T5C3.048
; #@! TA.AperFunction,NonPlated,NPTH,ComponentDrill
T6C3.988
; #@! TA.AperFunction,NonPlated,NPTH,ComponentDrill
T7C4.100
%
G90
G05
T1
X129.385Y-136.45
X139.545Y-136.45
X224.635Y-136.45
X234.795Y-136.45
T2
X43.66Y-60.25
X43.66Y-79.3
X43.66Y-98.35
X43.66Y-117.4
X43.66Y-136.45
X53.82Y-60.25
X53.82Y-79.3
X53.82Y-98.35
X53.82Y-117.4
X53.82Y-136.45
X62.71Y-60.25
X62.71Y-79.3
X62.71Y-98.35
X62.71Y-117.4
X62.71Y-136.45
X72.87Y-60.25
X72.87Y-79.3
X72.87Y-98.35
X72.87Y-117.4
X72.87Y-136.45
X81.76Y-60.25
X81.76Y-79.3
X81.76Y-98.35
X81.76Y-117.4
X81.76Y-136.45
X91.92Y-60.25
X91.92Y-79.3
X91.92Y-98.35
X91.92Y-117.4
X91.92Y-136.45
X100.81Y-60.25
X100.81Y-79.3
X100.81Y-98.35
X100.81Y-117.4
X100.81Y-136.45
X110.97Y-60.25
X110.97Y-79.3
X110.97Y-98.35
X110.97Y-117.4
X110.97Y-136.45
X119.86Y-60.25
X119.86Y-79.3
X119.86Y-98.35
X119.86Y-117.4
X119.86Y-136.45
X130.02Y-60.25
X130.02Y-79.3
X130.02Y-98.35
X130.02Y-117.4
X130.02Y-136.45
X138.91Y-60.25
X138.91Y-79.3
X138.91Y-98.35
X138.91Y-117.4
X138.91Y-136.45
X149.07Y-60.25
X149.07Y-79.3
X149.07Y-98.35
X149.07Y-117.4
X149.07Y-136.45
X215.11Y-60.25
X215.11Y-79.3
X215.11Y-98.35
X215.11Y-98.35
X215.11Y-117.4
X215.11Y-136.45
X225.27Y-60.25
X225.27Y-79.3
X225.27Y-98.35
X225.27Y-98.35
X225.27Y-117.4
X225.27Y-136.45
X234.16Y-60.25
X234.16Y-79.3
X234.16Y-98.35
X234.16Y-117.4
X234.16Y-136.45
X244.32Y-60.25
X244.32Y-79.3
X244.32Y-98.35
X244.32Y-117.4
X244.32Y-136.45
X253.21Y-60.25
X253.21Y-79.3
X253.21Y-98.35
X253.21Y-117.4
X253.21Y-136.45
X263.37Y-60.25
X263.37Y-79.3
X263.37Y-98.35
X263.37Y-117.4
X263.37Y-136.45
X272.26Y-60.25
X272.26Y-79.3
X272.26Y-98.35
X272.26Y-117.4
X272.26Y-136.45
X282.42Y-60.25
X282.42Y-79.3
X282.42Y-98.35
X282.42Y-117.4
X282.42Y-136.45
X291.31Y-60.25
X291.31Y-79.3
X291.31Y-98.35
X291.31Y-117.4
X291.31Y-136.45
X301.47Y-60.25
X301.47Y-79.3
X301.47Y-98.35
X301.47Y-117.4
X301.47Y-136.45
X310.36Y-60.25
X310.36Y-79.3
X310.36Y-98.35
X310.36Y-117.4
X310.36Y-136.45
X320.52Y-60.25
X320.52Y-79.3
X320.52Y-98.35
X320.52Y-117.4
X320.52Y-136.45
T3
X58.265Y-69.775
X58.265Y-126.925
X158.277Y-55.487
X158.277Y-140.617
X205.902Y-55.487
X205.902Y-140.617
X305.915Y-69.775
X305.915Y-126.925
T4
X44.93Y-76.76
X44.93Y-95.81
X44.93Y-114.86
X44.93Y-133.91
X46.2Y-65.33
X51.28Y-74.22
X51.28Y-93.27
X51.28Y-112.32
X51.28Y-131.37
X52.55Y-62.79
X63.98Y-76.76
X63.98Y-95.81
X63.98Y-114.86
X63.98Y-133.91
X65.25Y-65.33
X70.33Y-74.22
X70.33Y-93.27
X70.33Y-112.32
X70.33Y-131.37
X71.6Y-62.79
X83.03Y-57.71
X83.03Y-76.76
X83.03Y-95.81
X83.03Y-114.86
X83.03Y-133.91
X89.38Y-55.17
X89.38Y-74.22
X89.38Y-93.27
X89.38Y-112.32
X89.38Y-131.37
X102.08Y-57.71
X102.08Y-76.76
X102.08Y-95.81
X102.08Y-114.86
X102.08Y-133.91
X108.43Y-55.17
X108.43Y-74.22
X108.43Y-93.27
X108.43Y-112.32
X108.43Y-131.37
X121.13Y-57.71
X121.13Y-76.76
X121.13Y-95.81
X121.13Y-114.86
X121.13Y-133.91
X127.48Y-55.17
X127.48Y-74.22
X127.48Y-93.27
X127.48Y-112.32
X127.48Y-131.37
X131.925Y-141.53
X138.275Y-138.99
X140.18Y-57.71
X140.18Y-76.76
X140.18Y-95.81
X140.18Y-114.86
X140.18Y-133.91
X146.53Y-55.17
X146.53Y-74.22
X146.53Y-93.27
X146.53Y-112.32
X146.53Y-131.37
X216.38Y-57.71
X216.38Y-76.76
X216.38Y-95.81
X216.38Y-95.81
X216.38Y-114.86
X216.38Y-133.91
X222.73Y-55.17
X222.73Y-74.22
X222.73Y-93.27
X222.73Y-93.27
X222.73Y-112.32
X222.73Y-131.37
X227.175Y-141.53
X233.525Y-138.99
X235.43Y-57.71
X235.43Y-76.76
X235.43Y-95.81
X235.43Y-114.86
X235.43Y-133.91
X241.78Y-55.17
X241.78Y-74.22
X241.78Y-93.27
X241.78Y-112.32
X241.78Y-131.37
X254.48Y-57.71
X254.48Y-76.76
X254.48Y-95.81
X254.48Y-114.86
X254.48Y-133.91
X260.83Y-55.17
X260.83Y-74.22
X260.83Y-93.27
X260.83Y-112.32
X260.83Y-131.37
X273.53Y-57.71
X273.53Y-76.76
X273.53Y-95.81
X273.53Y-114.86
X273.53Y-133.91
X279.88Y-55.17
X279.88Y-74.22
X279.88Y-93.27
X279.88Y-112.32
X279.88Y-131.37
X292.58Y-57.71
X292.58Y-76.76
X292.58Y-95.81
X292.58Y-114.86
X292.58Y-133.91
X298.93Y-55.17
X298.93Y-74.22
X298.93Y-93.27
X298.93Y-112.32
X298.93Y-131.37
X311.63Y-57.71
X311.63Y-76.76
X311.63Y-95.81
X311.63Y-114.86
X311.63Y-133.91
X317.98Y-55.17
X317.98Y-74.22
X317.98Y-93.27
X317.98Y-112.32
X317.98Y-131.37
T5
X122.527Y-143.435
X146.403Y-143.435
X217.777Y-143.435
X241.653Y-143.435
T6
X122.527Y-128.195
X134.465Y-136.45
X146.403Y-128.195
X217.777Y-128.195
X229.715Y-136.45
X241.653Y-128.195
T7
X48.74Y-60.25
X48.74Y-79.3
X48.74Y-98.35
X48.74Y-117.4
X48.74Y-136.45
X67.79Y-60.25
X67.79Y-79.3
X67.79Y-98.35
X67.79Y-117.4
X67.79Y-136.45
X86.84Y-60.25
X86.84Y-79.3
X86.84Y-98.35
X86.84Y-117.4
X86.84Y-136.45
X105.89Y-60.25
X105.89Y-79.3
X105.89Y-98.35
X105.89Y-117.4
X105.89Y-136.45
X124.94Y-60.25
X124.94Y-79.3
X124.94Y-98.35
X124.94Y-117.4
X124.94Y-136.45
X143.99Y-60.25
X143.99Y-79.3
X143.99Y-98.35
X143.99Y-117.4
X143.99Y-136.45
X220.19Y-60.25
X220.19Y-79.3
X220.19Y-98.35
X220.19Y-98.35
X220.19Y-117.4
X220.19Y-136.45
X239.24Y-60.25
X239.24Y-79.3
X239.24Y-98.35
X239.24Y-117.4
X239.24Y-136.45
X258.29Y-60.25
X258.29Y-79.3
X258.29Y-98.35
X258.29Y-117.4
X258.29Y-136.45
X277.34Y-60.25
X277.34Y-79.3
X277.34Y-98.35
X277.34Y-117.4
X277.34Y-136.45
X296.39Y-60.25
X296.39Y-79.3
X296.39Y-98.35
X296.39Y-117.4
X296.39Y-136.45
X315.44Y-60.25
X315.44Y-79.3
X315.44Y-98.35
X315.44Y-117.4
X315.44Y-136.45
T3
X39.486Y-107.279G85X46.086Y-107.279
G05
X167.802Y-99.35G85X167.802Y-97.35
G05
X318.093Y-107.279G85X324.693Y-107.279
G05
T0
M30
