M48
; DRILL file {KiCad (6.0.0)} date Fri Dec 30 20:57:37 2022
; FORMAT={-:-/ absolute / metric / decimal}
; #@! TF.CreationDate,2022-12-30T20:57:37+07:00
; #@! TF.GenerationSoftware,Kicad,Pcbnew,(6.0.0)
; #@! TF.FileFunction,Plated,1,2,PTH
FMAT,2
METRIC
; #@! TA.AperFunction,Plated,PTH,ViaDrill
T1C0.300
; #@! TA.AperFunction,Plated,PTH,ComponentDrill
T2C0.300
; #@! TA.AperFunction,Plated,PTH,ViaDrill
T3C0.400
; #@! TA.AperFunction,Plated,PTH,ComponentDrill
T4C0.400
; #@! TA.AperFunction,Plated,PTH,ComponentDrill
T5C0.450
; #@! TA.AperFunction,Plated,PTH,ComponentDrill
T6C0.600
; #@! TA.AperFunction,Plated,PTH,ComponentDrill
T7C0.700
; #@! TA.AperFunction,Plated,PTH,ComponentDrill
T8C0.710
; #@! TA.AperFunction,Plated,PTH,ComponentDrill
T9C0.737
; #@! TA.AperFunction,Plated,PTH,ComponentDrill
T10C0.800
; #@! TA.AperFunction,Plated,PTH,ComponentDrill
T11C0.900
; #@! TA.AperFunction,Plated,PTH,ComponentDrill
T12C1.000
; #@! TA.AperFunction,Plated,PTH,ComponentDrill
T13C1.100
%
G90
G05
T1
X264.132Y-88.356
T2
X41.7Y-76.29
X41.7Y-95.34
X41.7Y-114.39
X41.7Y-133.44
X41.72Y-77.27
X41.72Y-96.32
X41.72Y-115.37
X41.72Y-134.42
X42.89Y-64.76
X42.91Y-65.84
X54.57Y-73.71
X54.57Y-92.76
X54.57Y-111.81
X54.57Y-130.86
X54.59Y-74.79
X54.59Y-93.84
X54.59Y-112.89
X54.59Y-131.94
X55.76Y-62.28
X55.78Y-63.26
X60.75Y-76.29
X60.75Y-95.34
X60.75Y-114.39
X60.75Y-133.44
X60.77Y-77.27
X60.77Y-96.32
X60.77Y-115.37
X60.77Y-134.42
X61.94Y-64.76
X61.96Y-65.84
X73.62Y-73.71
X73.62Y-92.76
X73.62Y-111.81
X73.62Y-130.86
X73.64Y-74.79
X73.64Y-93.84
X73.64Y-112.89
X73.64Y-131.94
X74.81Y-62.28
X74.83Y-63.26
X79.8Y-57.24
X79.8Y-76.29
X79.8Y-95.34
X79.8Y-114.39
X79.8Y-133.44
X79.82Y-58.22
X79.82Y-77.27
X79.82Y-96.32
X79.82Y-115.37
X79.82Y-134.42
X92.67Y-54.66
X92.67Y-73.71
X92.67Y-92.76
X92.67Y-111.81
X92.67Y-130.86
X92.69Y-55.74
X92.69Y-74.79
X92.69Y-93.84
X92.69Y-112.89
X92.69Y-131.94
X98.85Y-57.24
X98.85Y-76.29
X98.85Y-95.34
X98.85Y-114.39
X98.85Y-133.44
X98.87Y-58.22
X98.87Y-77.27
X98.87Y-96.32
X98.87Y-115.37
X98.87Y-134.42
X111.72Y-54.66
X111.72Y-73.71
X111.72Y-92.76
X111.72Y-111.81
X111.72Y-130.86
X111.74Y-55.74
X111.74Y-74.79
X111.74Y-93.84
X111.74Y-112.89
X111.74Y-131.94
X117.9Y-57.24
X117.9Y-76.29
X117.9Y-95.34
X117.9Y-114.39
X117.9Y-133.44
X117.92Y-58.22
X117.92Y-77.27
X117.92Y-96.32
X117.92Y-115.37
X117.92Y-134.42
X128.623Y-141.022
X128.633Y-142.152
X130.77Y-54.66
X130.77Y-73.71
X130.77Y-92.76
X130.77Y-111.81
X130.77Y-130.86
X130.79Y-55.74
X130.79Y-74.79
X130.79Y-93.84
X130.79Y-112.89
X130.79Y-131.94
X136.95Y-57.24
X136.95Y-76.29
X136.95Y-95.34
X136.95Y-114.39
X136.95Y-133.44
X136.97Y-58.22
X136.97Y-77.27
X136.97Y-96.32
X136.97Y-115.37
X136.97Y-134.42
X141.45Y-138.482
X141.46Y-139.612
X149.82Y-54.66
X149.82Y-73.71
X149.82Y-92.76
X149.82Y-111.81
X149.82Y-130.86
X149.84Y-55.74
X149.84Y-74.79
X149.84Y-93.84
X149.84Y-112.89
X149.84Y-131.94
X213.15Y-57.24
X213.15Y-76.29
X213.15Y-95.34
X213.15Y-95.34
X213.15Y-114.39
X213.15Y-133.44
X213.17Y-58.22
X213.17Y-77.27
X213.17Y-96.32
X213.17Y-96.32
X213.17Y-115.37
X213.17Y-134.42
X223.873Y-141.022
X223.883Y-142.152
X226.02Y-54.66
X226.02Y-73.71
X226.02Y-92.76
X226.02Y-92.76
X226.02Y-111.81
X226.02Y-130.86
X226.04Y-55.74
X226.04Y-74.79
X226.04Y-93.84
X226.04Y-93.84
X226.04Y-112.89
X226.04Y-131.94
X232.2Y-57.24
X232.2Y-76.29
X232.2Y-95.34
X232.2Y-114.39
X232.2Y-133.44
X232.22Y-58.22
X232.22Y-77.27
X232.22Y-96.32
X232.22Y-115.37
X232.22Y-134.42
X236.7Y-138.482
X236.71Y-139.612
X245.07Y-54.66
X245.07Y-73.71
X245.07Y-92.76
X245.07Y-111.81
X245.07Y-130.86
X245.09Y-55.74
X245.09Y-74.79
X245.09Y-93.84
X245.09Y-112.89
X245.09Y-131.94
X251.25Y-57.24
X251.25Y-76.29
X251.25Y-95.34
X251.25Y-114.39
X251.25Y-133.44
X251.27Y-58.22
X251.27Y-77.27
X251.27Y-96.32
X251.27Y-115.37
X251.27Y-134.42
X264.12Y-54.66
X264.12Y-73.71
X264.12Y-92.76
X264.12Y-111.81
X264.12Y-130.86
X264.14Y-55.74
X264.14Y-74.79
X264.14Y-93.84
X264.14Y-112.89
X264.14Y-131.94
X270.3Y-57.24
X270.3Y-76.29
X270.3Y-95.34
X270.3Y-114.39
X270.3Y-133.44
X270.32Y-58.22
X270.32Y-77.27
X270.32Y-96.32
X270.32Y-115.37
X270.32Y-134.42
X283.17Y-54.66
X283.17Y-73.71
X283.17Y-92.76
X283.17Y-111.81
X283.17Y-130.86
X283.19Y-55.74
X283.19Y-74.79
X283.19Y-93.84
X283.19Y-112.89
X283.19Y-131.94
X289.35Y-57.24
X289.35Y-76.29
X289.35Y-95.34
X289.35Y-114.39
X289.35Y-133.44
X289.37Y-58.22
X289.37Y-77.27
X289.37Y-96.32
X289.37Y-115.37
X289.37Y-134.42
X302.22Y-54.66
X302.22Y-73.71
X302.22Y-92.76
X302.22Y-111.81
X302.22Y-130.86
X302.24Y-55.74
X302.24Y-74.79
X302.24Y-93.84
X302.24Y-112.89
X302.24Y-131.94
X308.4Y-57.24
X308.4Y-76.29
X308.4Y-95.34
X308.4Y-114.39
X308.4Y-133.44
X308.42Y-58.22
X308.42Y-77.27
X308.42Y-96.32
X308.42Y-115.37
X308.42Y-134.42
X321.27Y-54.66
X321.27Y-73.71
X321.27Y-92.76
X321.27Y-111.81
X321.27Y-130.86
X321.29Y-55.74
X321.29Y-74.79
X321.29Y-93.84
X321.29Y-112.89
X321.29Y-131.94
T3
X47.571Y-84.322
X48.359Y-73.172
X51.35Y-54.3
X51.635Y-67.482
X57.223Y-64.708
X58.341Y-73.578
X61.1Y-73.0
X70.228Y-64.485
X77.315Y-79.3
X98.298Y-72.136
X171.45Y-67.564
X179.578Y-93.218
X182.626Y-101.346
X188.043Y-76.918
X206.067Y-74.696
T4
X54.818Y-55.466
X54.818Y-56.816
X55.668Y-55.466
X55.668Y-56.816
X56.518Y-55.466
X56.518Y-56.816
X57.368Y-55.466
X57.368Y-56.816
X58.218Y-55.466
X58.218Y-56.816
X59.068Y-55.466
X59.068Y-56.816
X59.918Y-55.466
X59.918Y-56.816
X60.768Y-55.466
X60.768Y-56.816
T6
X175.232Y-123.948
X176.732Y-123.948
T7
X45.168Y-69.775
X52.788Y-69.775
X56.19Y-59.566
X56.99Y-57.816
X57.79Y-59.566
X58.59Y-57.816
X59.39Y-59.566
X63.742Y-69.775
X71.362Y-69.775
X172.088Y-54.297
X179.708Y-54.297
X184.471Y-54.297
X184.471Y-102.517
X184.471Y-104.898
X184.471Y-107.279
X184.471Y-109.661
X192.091Y-54.297
X192.091Y-102.517
X192.091Y-104.898
X192.091Y-107.279
X192.091Y-109.661
T8
X170.183Y-109.502
X170.183Y-114.582
T9
X96.365Y-67.531
X96.365Y-69.031
X96.365Y-70.531
X96.365Y-72.031
T10
X156.015Y-63.822
X156.015Y-69.775
X156.015Y-75.728
X156.015Y-81.681
X156.015Y-87.634
X156.015Y-93.587
X156.015Y-96.564
X156.015Y-99.54
X156.015Y-105.493
X156.015Y-111.447
X156.015Y-117.4
X156.015Y-123.353
X156.015Y-129.306
X158.396Y-60.845
X158.396Y-66.798
X158.396Y-72.751
X158.396Y-78.704
X158.396Y-84.657
X158.396Y-90.611
X158.396Y-102.517
X158.396Y-108.47
X158.396Y-114.423
X158.396Y-120.376
X158.396Y-126.329
X163.635Y-63.822
X163.635Y-69.775
X163.635Y-75.728
X163.635Y-81.681
X163.635Y-87.634
X163.635Y-93.587
X163.635Y-96.564
X163.635Y-99.54
X163.635Y-105.493
X163.635Y-111.447
X163.635Y-117.4
X163.635Y-123.353
X163.635Y-129.306
X165.421Y-132.878
X165.421Y-140.498
X166.016Y-60.845
X166.016Y-66.798
X166.016Y-72.751
X166.016Y-78.704
X166.016Y-84.657
X166.016Y-90.611
X166.016Y-102.517
X166.016Y-108.47
X166.016Y-114.423
X166.016Y-120.376
X166.016Y-126.329
X168.398Y-130.497
X168.398Y-138.117
X171.374Y-132.878
X171.374Y-140.498
X173.755Y-84.657
X173.755Y-87.157
X173.755Y-90.015
X173.755Y-92.515
X174.351Y-130.497
X174.351Y-138.117
X177.327Y-132.878
X177.327Y-140.498
X178.518Y-85.848
X178.518Y-90.728
X180.304Y-130.497
X180.304Y-138.117
X183.876Y-130.497
X183.876Y-138.117
X184.471Y-65.012
X184.471Y-67.552
X184.471Y-70.092
X184.471Y-72.632
X184.471Y-75.172
X184.471Y-77.712
X184.471Y-80.252
X184.471Y-82.792
X184.471Y-85.332
X184.471Y-87.872
X184.471Y-90.412
X184.471Y-92.952
X184.471Y-95.492
X184.471Y-98.032
X184.59Y-114.423
X184.59Y-117.4
X185.424Y-122.758
X185.424Y-125.734
X186.852Y-132.878
X186.852Y-140.498
X189.829Y-130.497
X189.829Y-138.117
X190.424Y-122.758
X190.424Y-125.734
X192.091Y-65.012
X192.091Y-67.552
X192.091Y-70.092
X192.091Y-72.632
X192.091Y-75.172
X192.091Y-77.712
X192.091Y-80.252
X192.091Y-82.792
X192.091Y-85.332
X192.091Y-87.872
X192.091Y-90.412
X192.091Y-92.952
X192.091Y-95.492
X192.091Y-98.032
X192.21Y-114.423
X192.21Y-117.4
X192.805Y-132.878
X192.805Y-140.498
X195.782Y-130.497
X195.782Y-138.117
X198.163Y-60.845
X198.163Y-66.798
X198.163Y-72.751
X198.163Y-78.704
X198.163Y-84.657
X198.163Y-90.611
X198.163Y-96.564
X198.163Y-102.517
X198.163Y-108.47
X198.163Y-114.423
X198.163Y-120.376
X198.163Y-126.329
X198.758Y-132.878
X198.758Y-140.498
X200.544Y-63.822
X200.544Y-69.775
X200.544Y-75.728
X200.544Y-81.681
X200.544Y-87.634
X200.544Y-93.587
X200.544Y-99.54
X200.544Y-105.493
X200.544Y-111.447
X200.544Y-117.4
X200.544Y-123.353
X200.544Y-129.306
X205.783Y-60.845
X205.783Y-66.798
X205.783Y-72.751
X205.783Y-78.704
X205.783Y-84.657
X205.783Y-90.611
X205.783Y-96.564
X205.783Y-102.517
X205.783Y-108.47
X205.783Y-114.423
X205.783Y-120.376
X205.783Y-126.329
X208.164Y-63.822
X208.164Y-69.775
X208.164Y-75.728
X208.164Y-81.681
X208.164Y-87.634
X208.164Y-93.587
X208.164Y-99.54
X208.164Y-105.493
X208.164Y-111.447
X208.164Y-117.4
X208.164Y-123.353
X208.164Y-129.306
T11
X174.946Y-59.654
X177.486Y-59.654
X186.693Y-59.654
X189.233Y-59.654
T12
X173.755Y-76.164
X173.755Y-78.704
X176.295Y-76.164
X176.295Y-78.704
X178.835Y-76.164
X178.835Y-78.704
T13
X173.755Y-65.061
X173.755Y-71.561
X173.755Y-96.612
X173.755Y-103.112
X178.255Y-65.061
X178.255Y-71.561
X178.255Y-96.612
X178.255Y-103.112
T5
X53.89Y-53.481G85X53.89Y-52.331
G05
X53.89Y-58.181G85X53.89Y-57.031
G05
X61.69Y-53.481G85X61.69Y-52.331
G05
X61.69Y-58.181G85X61.69Y-57.031
G05
T6
X53.468Y-52.266G85X53.468Y-53.066
G05
X53.468Y-55.296G85X53.468Y-56.796
G05
X62.118Y-52.266G85X62.118Y-53.066
G05
X62.118Y-55.296G85X62.118Y-56.796
G05
T0
M30
