G04 #@! TF.GenerationSoftware,KiCad,Pcbnew,(6.0.0)*
G04 #@! TF.CreationDate,2022-03-13T10:48:28+07:00*
G04 #@! TF.ProjectId,lumberjack,6c756d62-6572-46a6-9163-6b2e6b696361,1.6*
G04 #@! TF.SameCoordinates,Original*
G04 #@! TF.FileFunction,Soldermask,Top*
G04 #@! TF.FilePolarity,Negative*
%FSLAX46Y46*%
G04 Gerber Fmt 4.6, Leading zero omitted, Abs format (unit mm)*
G04 Created by KiCad (PCBNEW (6.0.0)) date 2022-03-13 10:48:28*
%MOMM*%
%LPD*%
G01*
G04 APERTURE LIST*
%ADD10C,1.600000*%
%ADD11R,1.800000X1.800000*%
%ADD12C,1.800000*%
%ADD13R,1.600000X1.600000*%
%ADD14O,1.600000X1.600000*%
%ADD15C,1.710000*%
%ADD16R,1.200000X1.200000*%
%ADD17C,1.200000*%
%ADD18C,2.000000*%
%ADD19C,5.000000*%
%ADD20O,11.600000X5.000000*%
%ADD21C,3.000000*%
%ADD22C,3.048000*%
%ADD23C,1.750000*%
%ADD24C,3.987800*%
%ADD25C,0.600000*%
%ADD26R,1.700000X1.700000*%
%ADD27O,1.700000X1.700000*%
%ADD28C,1.400000*%
%ADD29O,1.400000X1.400000*%
%ADD30C,1.500000*%
%ADD31C,4.100000*%
%ADD32C,1.900000*%
%ADD33O,0.700000X0.900000*%
%ADD34O,1.100000X1.100000*%
%ADD35O,0.700000X1.000000*%
%ADD36C,1.100000*%
%ADD37R,1.100000X1.100000*%
%ADD38O,0.900000X2.400000*%
%ADD39O,0.850000X2.000000*%
%ADD40O,0.900000X1.700000*%
%ADD41C,1.244600*%
G04 APERTURE END LIST*
D10*
X144065746Y-94059454D03*
X144065746Y-96559454D03*
X144065746Y-88701637D03*
X144065746Y-91201637D03*
D11*
X159543884Y-63698491D03*
D12*
X157003884Y-63698491D03*
D13*
X154781380Y-69056308D03*
D14*
X154781380Y-71596308D03*
X154781380Y-74136308D03*
X154781380Y-76676308D03*
X154781380Y-79216308D03*
X154781380Y-81756308D03*
X154781380Y-84296308D03*
X154781380Y-86836308D03*
X154781380Y-89376308D03*
X154781380Y-91916308D03*
X154781380Y-94456308D03*
X154781380Y-96996308D03*
X154781380Y-99536308D03*
X154781380Y-102076308D03*
X162401380Y-102076308D03*
X162401380Y-99536308D03*
X162401380Y-96996308D03*
X162401380Y-94456308D03*
X162401380Y-91916308D03*
X162401380Y-89376308D03*
X162401380Y-86836308D03*
X162401380Y-84296308D03*
X162401380Y-81756308D03*
X162401380Y-79216308D03*
X162401380Y-76676308D03*
X162401380Y-74136308D03*
X162401380Y-71596308D03*
X162401380Y-69056308D03*
D15*
X140493868Y-113546035D03*
X140493868Y-118626035D03*
D13*
X136326677Y-82748507D03*
D14*
X128706677Y-82748507D03*
D13*
X136326677Y-118467287D03*
D14*
X128706677Y-118467287D03*
D13*
X150614189Y-134540738D03*
D14*
X150614189Y-142160738D03*
D13*
X147637624Y-136921990D03*
D14*
X147637624Y-144541990D03*
D13*
X144661059Y-134540738D03*
D14*
X144661059Y-142160738D03*
D13*
X138707929Y-134540738D03*
D14*
X138707929Y-142160738D03*
D16*
X147042311Y-127992295D03*
D17*
X145542311Y-127992295D03*
D13*
X136326677Y-76795377D03*
D14*
X128706677Y-76795377D03*
D18*
X144065746Y-107156340D03*
X144065746Y-100656340D03*
X148565746Y-107156340D03*
X148565746Y-100656340D03*
D19*
X128587608Y-59531300D03*
X176212648Y-59531300D03*
X128587608Y-144661059D03*
X176212648Y-144661059D03*
D20*
X13096886Y-111323531D03*
X291703370Y-111323531D03*
D13*
X166092327Y-134540738D03*
D14*
X166092327Y-142160738D03*
D11*
X147796372Y-63698491D03*
D12*
X145256372Y-63698491D03*
D13*
X136326677Y-130373547D03*
D14*
X128706677Y-130373547D03*
D13*
X136326677Y-124420417D03*
D14*
X128706677Y-124420417D03*
D13*
X133945425Y-115490722D03*
D14*
X126325425Y-115490722D03*
D13*
X136326677Y-112514157D03*
D14*
X128706677Y-112514157D03*
D13*
X133945425Y-109537592D03*
D14*
X126325425Y-109537592D03*
D13*
X133945425Y-121443852D03*
D14*
X126325425Y-121443852D03*
D13*
X133945425Y-97631332D03*
D14*
X126325425Y-97631332D03*
D13*
X136326677Y-94654767D03*
D14*
X128706677Y-94654767D03*
D13*
X133945425Y-103584462D03*
D14*
X126325425Y-103584462D03*
D13*
X133945425Y-91678202D03*
D14*
X126325425Y-91678202D03*
D13*
X136326677Y-88701637D03*
D14*
X128706677Y-88701637D03*
D13*
X133945425Y-85725072D03*
D14*
X126325425Y-85725072D03*
D13*
X168473579Y-76795377D03*
D14*
X176093579Y-76795377D03*
D13*
X133945425Y-73818812D03*
D14*
X126325425Y-73818812D03*
D13*
X170854831Y-73818812D03*
D14*
X178474831Y-73818812D03*
D13*
X133945425Y-67865682D03*
D14*
X126325425Y-67865682D03*
D13*
X163115762Y-136921990D03*
D14*
X163115762Y-144541990D03*
D18*
X144065746Y-69104751D03*
X144065746Y-75604751D03*
X148565746Y-75604751D03*
X148565746Y-69104751D03*
D10*
X155734510Y-126801669D03*
X160734510Y-126801669D03*
D13*
X135731364Y-136921990D03*
D14*
X135731364Y-144541990D03*
D13*
X170854831Y-115490722D03*
D14*
X178474831Y-115490722D03*
D13*
X169068892Y-136921990D03*
D14*
X169068892Y-144541990D03*
D13*
X170854831Y-79771942D03*
D14*
X178474831Y-79771942D03*
D13*
X168473579Y-64889117D03*
D14*
X176093579Y-64889117D03*
D13*
X170854831Y-67865682D03*
D14*
X178474831Y-67865682D03*
D13*
X168473579Y-82748507D03*
D14*
X176093579Y-82748507D03*
D13*
X170854831Y-97631332D03*
D14*
X178474831Y-97631332D03*
D13*
X170854831Y-91678202D03*
D14*
X178474831Y-91678202D03*
D13*
X168473579Y-94654767D03*
D14*
X176093579Y-94654767D03*
D13*
X168473579Y-106561027D03*
D14*
X176093579Y-106561027D03*
D13*
X170854831Y-103584462D03*
D14*
X178474831Y-103584462D03*
D13*
X168473579Y-100607897D03*
D14*
X176093579Y-100607897D03*
D13*
X170854831Y-85725072D03*
D14*
X178474831Y-85725072D03*
D13*
X168473579Y-112514157D03*
D14*
X176093579Y-112514157D03*
D13*
X170854831Y-109537592D03*
D14*
X178474831Y-109537592D03*
D13*
X168473579Y-118467287D03*
D14*
X176093579Y-118467287D03*
D13*
X168473579Y-88701637D03*
D14*
X176093579Y-88701637D03*
D13*
X168473579Y-70842247D03*
D14*
X176093579Y-70842247D03*
D13*
X170854831Y-133350112D03*
D14*
X178474831Y-133350112D03*
D13*
X168473579Y-124420417D03*
D14*
X176093579Y-124420417D03*
D13*
X154186067Y-134540738D03*
D14*
X154186067Y-142160738D03*
D13*
X170854831Y-121443852D03*
D14*
X178474831Y-121443852D03*
D13*
X170854831Y-127396982D03*
D14*
X178474831Y-127396982D03*
D13*
X168473579Y-130373547D03*
D14*
X176093579Y-130373547D03*
D13*
X157162632Y-136921990D03*
D14*
X157162632Y-144541990D03*
D21*
X197485168Y-145573868D03*
X203835168Y-143033868D03*
D22*
X211963168Y-147478868D03*
X188087168Y-147478868D03*
D23*
X194945168Y-140493868D03*
D24*
X211963168Y-132238868D03*
D23*
X205105168Y-140493868D03*
D24*
X200025168Y-140493868D03*
X188087168Y-132238868D03*
D25*
X207020168Y-143655868D03*
X207010168Y-142525868D03*
X194193168Y-146195868D03*
X194183168Y-145065868D03*
D24*
X104775088Y-140493868D03*
X116713088Y-132238868D03*
D21*
X108585088Y-143033868D03*
X102235088Y-145573868D03*
D23*
X109855088Y-140493868D03*
D22*
X116713088Y-147478868D03*
D24*
X92837088Y-132238868D03*
D22*
X92837088Y-147478868D03*
D23*
X99695088Y-140493868D03*
D25*
X111760088Y-142525868D03*
X111770088Y-143655868D03*
X98933088Y-145065868D03*
X98943088Y-146195868D03*
D10*
X155734510Y-129778234D03*
X160734510Y-129778234D03*
D26*
X144065746Y-82748507D03*
D27*
X144065746Y-80208507D03*
X146605746Y-82748507D03*
X146605746Y-80208507D03*
X149145746Y-82748507D03*
X149145746Y-80208507D03*
D19*
X138112616Y-102393836D03*
D13*
X160139197Y-134540738D03*
D14*
X160139197Y-142160738D03*
D13*
X133945425Y-133350112D03*
D14*
X126325425Y-133350112D03*
D13*
X136326677Y-106561027D03*
D14*
X128706677Y-106561027D03*
D13*
X133945425Y-100607897D03*
D14*
X126325425Y-100607897D03*
D13*
X133945425Y-79771942D03*
D14*
X126325425Y-79771942D03*
D28*
X162401380Y-106561027D03*
D29*
X154781380Y-106561027D03*
D30*
X148828250Y-89892263D03*
X148828250Y-94772263D03*
D13*
X133945425Y-127396982D03*
D14*
X126325425Y-127396982D03*
D28*
X154781380Y-113704783D03*
D29*
X162401380Y-113704783D03*
D28*
X150018876Y-58340674D03*
D29*
X142398876Y-58340674D03*
D28*
X162401380Y-58340674D03*
D29*
X154781380Y-58340674D03*
D28*
X154781380Y-111323531D03*
D29*
X162401380Y-111323531D03*
D13*
X154900449Y-121443852D03*
D14*
X162520449Y-121443852D03*
D13*
X154900449Y-118467287D03*
D14*
X162520449Y-118467287D03*
D28*
X15478138Y-73818812D03*
D29*
X23098138Y-73818812D03*
D28*
X41671910Y-73818812D03*
D29*
X34051910Y-73818812D03*
D28*
X154781380Y-108942279D03*
D29*
X162401380Y-108942279D03*
D13*
X136326677Y-64889117D03*
D14*
X128706677Y-64889117D03*
D13*
X136326677Y-70842247D03*
D14*
X128706677Y-70842247D03*
D13*
X141684494Y-136921990D03*
D14*
X141684494Y-144541990D03*
D31*
X19050016Y-83343820D03*
D32*
X13970016Y-83343820D03*
X24130016Y-83343820D03*
D21*
X15240016Y-80803820D03*
X21590016Y-78263820D03*
D25*
X12030016Y-81313820D03*
X12010016Y-80333820D03*
X24880016Y-77753820D03*
X24900016Y-78833820D03*
D21*
X21590016Y-97313836D03*
X15240016Y-99853836D03*
D32*
X13970016Y-102393836D03*
X24130016Y-102393836D03*
D31*
X19050016Y-102393836D03*
D25*
X12010016Y-99383836D03*
X12030016Y-100363836D03*
X24880016Y-96803836D03*
X24900016Y-97883836D03*
D32*
X24130016Y-121443852D03*
D21*
X15240016Y-118903852D03*
D31*
X19050016Y-121443852D03*
D32*
X13970016Y-121443852D03*
D21*
X21590016Y-116363852D03*
D25*
X12030016Y-119413852D03*
X12010016Y-118433852D03*
X24900016Y-116933852D03*
X24880016Y-115853852D03*
D31*
X19050016Y-140493868D03*
D32*
X13970016Y-140493868D03*
X24130016Y-140493868D03*
D21*
X21590016Y-135413868D03*
X15240016Y-137953868D03*
D25*
X12010016Y-137483868D03*
X12030016Y-138463868D03*
X24880016Y-134903868D03*
X24900016Y-135983868D03*
D21*
X40640032Y-135413868D03*
X34290032Y-137953868D03*
D31*
X38100032Y-140493868D03*
D32*
X33020032Y-140493868D03*
X43180032Y-140493868D03*
D25*
X31080032Y-138463868D03*
X31060032Y-137483868D03*
X43950032Y-135983868D03*
X43930032Y-134903868D03*
D32*
X33020032Y-64293804D03*
X43180032Y-64293804D03*
D21*
X41910032Y-66833804D03*
D31*
X38100032Y-64293804D03*
D21*
X35560032Y-69373804D03*
D25*
X45120032Y-66323804D03*
X45140032Y-67303804D03*
X32250032Y-68803804D03*
X32270032Y-69883804D03*
D32*
X43180032Y-83343820D03*
D21*
X40640032Y-78263820D03*
D31*
X38100032Y-83343820D03*
D32*
X33020032Y-83343820D03*
D21*
X34290032Y-80803820D03*
D25*
X31060032Y-80333820D03*
X31080032Y-81313820D03*
X43930032Y-77753820D03*
X43950032Y-78833820D03*
D32*
X33020032Y-102393836D03*
D21*
X40640032Y-97313836D03*
D31*
X38100032Y-102393836D03*
D21*
X34290032Y-99853836D03*
D32*
X43180032Y-102393836D03*
D25*
X31060032Y-99383836D03*
X31080032Y-100363836D03*
X43930032Y-96803836D03*
X43950032Y-97883836D03*
D21*
X40640032Y-116363852D03*
X34290032Y-118903852D03*
D31*
X38100032Y-121443852D03*
D32*
X33020032Y-121443852D03*
X43180032Y-121443852D03*
D25*
X31060032Y-118433852D03*
X31080032Y-119413852D03*
X43930032Y-115853852D03*
X43950032Y-116933852D03*
D31*
X57150048Y-121443852D03*
D21*
X53340048Y-118903852D03*
D32*
X52070048Y-121443852D03*
X62230048Y-121443852D03*
D21*
X59690048Y-116363852D03*
D25*
X50130048Y-119413852D03*
X50110048Y-118433852D03*
X62980048Y-115853852D03*
X63000048Y-116933852D03*
D21*
X53340048Y-137953868D03*
D32*
X52070048Y-140493868D03*
X62230048Y-140493868D03*
D21*
X59690048Y-135413868D03*
D31*
X57150048Y-140493868D03*
D25*
X50110048Y-137483868D03*
X50130048Y-138463868D03*
X62980048Y-134903868D03*
X63000048Y-135983868D03*
D21*
X53340048Y-99853836D03*
D31*
X57150048Y-102393836D03*
D32*
X62230048Y-102393836D03*
X52070048Y-102393836D03*
D21*
X59690048Y-97313836D03*
D25*
X50130048Y-100363836D03*
X50110048Y-99383836D03*
X63000048Y-97883836D03*
X62980048Y-96803836D03*
D21*
X72390064Y-99853836D03*
D32*
X81280064Y-102393836D03*
X71120064Y-102393836D03*
D31*
X76200064Y-102393836D03*
D21*
X78740064Y-97313836D03*
D25*
X69160064Y-99383836D03*
X69180064Y-100363836D03*
X82030064Y-96803836D03*
X82050064Y-97883836D03*
D21*
X72390064Y-118903852D03*
D31*
X76200064Y-121443852D03*
D32*
X71120064Y-121443852D03*
D21*
X78740064Y-116363852D03*
D32*
X81280064Y-121443852D03*
D25*
X69160064Y-118433852D03*
X69180064Y-119413852D03*
X82050064Y-116933852D03*
X82030064Y-115853852D03*
D32*
X71120064Y-140493868D03*
D21*
X78740064Y-135413868D03*
D31*
X76200064Y-140493868D03*
D32*
X81280064Y-140493868D03*
D21*
X72390064Y-137953868D03*
D25*
X69180064Y-138463868D03*
X69160064Y-137483868D03*
X82050064Y-135983868D03*
X82030064Y-134903868D03*
D31*
X76200064Y-64293804D03*
D21*
X72390064Y-61753804D03*
D32*
X71120064Y-64293804D03*
X81280064Y-64293804D03*
D21*
X78740064Y-59213804D03*
D25*
X69160064Y-61283804D03*
X69180064Y-62263804D03*
X82030064Y-58703804D03*
X82050064Y-59783804D03*
D21*
X72390064Y-80803820D03*
D31*
X76200064Y-83343820D03*
D32*
X71120064Y-83343820D03*
D21*
X78740064Y-78263820D03*
D32*
X81280064Y-83343820D03*
D25*
X69160064Y-80333820D03*
X69180064Y-81313820D03*
X82050064Y-78833820D03*
X82030064Y-77753820D03*
D32*
X90170080Y-83343820D03*
D21*
X97790080Y-78263820D03*
D32*
X100330080Y-83343820D03*
D21*
X91440080Y-80803820D03*
D31*
X95250080Y-83343820D03*
D25*
X88210080Y-80333820D03*
X88230080Y-81313820D03*
X101080080Y-77753820D03*
X101100080Y-78833820D03*
D32*
X100330080Y-102393836D03*
X90170080Y-102393836D03*
D21*
X91440080Y-99853836D03*
X97790080Y-97313836D03*
D31*
X95250080Y-102393836D03*
D25*
X88230080Y-100363836D03*
X88210080Y-99383836D03*
X101080080Y-96803836D03*
X101100080Y-97883836D03*
D21*
X97790080Y-116363852D03*
X91440080Y-118903852D03*
D31*
X95250080Y-121443852D03*
D32*
X100330080Y-121443852D03*
X90170080Y-121443852D03*
D25*
X88230080Y-119413852D03*
X88210080Y-118433852D03*
X101100080Y-116933852D03*
X101080080Y-115853852D03*
D31*
X95250080Y-140493868D03*
D32*
X90170080Y-140493868D03*
D21*
X97790080Y-135413868D03*
D32*
X100330080Y-140493868D03*
D21*
X91440080Y-137953868D03*
D25*
X88230080Y-138463868D03*
X88210080Y-137483868D03*
X101100080Y-135983868D03*
X101080080Y-134903868D03*
D32*
X90170080Y-64293804D03*
D31*
X95250080Y-64293804D03*
D32*
X100330080Y-64293804D03*
D21*
X91440080Y-61753804D03*
X97790080Y-59213804D03*
D25*
X88230080Y-62263804D03*
X88210080Y-61283804D03*
X101080080Y-58703804D03*
X101100080Y-59783804D03*
D21*
X110490096Y-61753804D03*
D32*
X119380096Y-64293804D03*
D21*
X116840096Y-59213804D03*
D31*
X114300096Y-64293804D03*
D32*
X109220096Y-64293804D03*
D25*
X107280096Y-62263804D03*
X107260096Y-61283804D03*
X120130096Y-58703804D03*
X120150096Y-59783804D03*
D21*
X110490096Y-80803820D03*
D32*
X119380096Y-83343820D03*
D21*
X116840096Y-78263820D03*
D32*
X109220096Y-83343820D03*
D31*
X114300096Y-83343820D03*
D25*
X107260096Y-80333820D03*
X107280096Y-81313820D03*
X120130096Y-77753820D03*
X120150096Y-78833820D03*
D32*
X119380096Y-102393836D03*
D21*
X116840096Y-97313836D03*
D32*
X109220096Y-102393836D03*
D21*
X110490096Y-99853836D03*
D31*
X114300096Y-102393836D03*
D25*
X107280096Y-100363836D03*
X107260096Y-99383836D03*
X120130096Y-96803836D03*
X120150096Y-97883836D03*
D21*
X116840096Y-116363852D03*
D31*
X114300096Y-121443852D03*
D32*
X119380096Y-121443852D03*
X109220096Y-121443852D03*
D21*
X110490096Y-118903852D03*
D25*
X107280096Y-119413852D03*
X107260096Y-118433852D03*
X120150096Y-116933852D03*
X120130096Y-115853852D03*
D21*
X116840096Y-135413868D03*
D32*
X109220096Y-140493868D03*
D21*
X110490096Y-137953868D03*
D32*
X119380096Y-140493868D03*
D31*
X114300096Y-140493868D03*
D25*
X107260096Y-137483868D03*
X107280096Y-138463868D03*
X120130096Y-134903868D03*
X120150096Y-135983868D03*
D31*
X285750240Y-64293804D03*
D21*
X288290240Y-59213804D03*
D32*
X280670240Y-64293804D03*
D21*
X281940240Y-61753804D03*
D32*
X290830240Y-64293804D03*
D25*
X278730240Y-62263804D03*
X278710240Y-61283804D03*
X291580240Y-58703804D03*
X291600240Y-59783804D03*
D32*
X280670240Y-83343820D03*
D21*
X281940240Y-80803820D03*
D32*
X290830240Y-83343820D03*
D31*
X285750240Y-83343820D03*
D21*
X288290240Y-78263820D03*
D25*
X278710240Y-80333820D03*
X278730240Y-81313820D03*
X291600240Y-78833820D03*
X291580240Y-77753820D03*
D21*
X288290240Y-97313836D03*
D31*
X285750240Y-102393836D03*
D21*
X281940240Y-99853836D03*
D32*
X280670240Y-102393836D03*
X290830240Y-102393836D03*
D25*
X278730240Y-100363836D03*
X278710240Y-99383836D03*
X291580240Y-96803836D03*
X291600240Y-97883836D03*
D32*
X290830240Y-121443852D03*
D21*
X288290240Y-116363852D03*
D32*
X280670240Y-121443852D03*
D21*
X281940240Y-118903852D03*
D31*
X285750240Y-121443852D03*
D25*
X278710240Y-118433852D03*
X278730240Y-119413852D03*
X291580240Y-115853852D03*
X291600240Y-116933852D03*
D32*
X290830240Y-140493868D03*
D31*
X285750240Y-140493868D03*
D21*
X288290240Y-135413868D03*
X281940240Y-137953868D03*
D32*
X280670240Y-140493868D03*
D25*
X278710240Y-137483868D03*
X278730240Y-138463868D03*
X291580240Y-134903868D03*
X291600240Y-135983868D03*
D32*
X271780224Y-140493868D03*
D31*
X266700224Y-140493868D03*
D21*
X269240224Y-135413868D03*
X262890224Y-137953868D03*
D32*
X261620224Y-140493868D03*
D25*
X259680224Y-138463868D03*
X259660224Y-137483868D03*
X272530224Y-134903868D03*
X272550224Y-135983868D03*
D21*
X269240224Y-59213804D03*
D31*
X266700224Y-64293804D03*
D32*
X261620224Y-64293804D03*
D21*
X262890224Y-61753804D03*
D32*
X271780224Y-64293804D03*
D25*
X259660224Y-61283804D03*
X259680224Y-62263804D03*
X272550224Y-59783804D03*
X272530224Y-58703804D03*
D32*
X261620224Y-83343820D03*
D31*
X266700224Y-83343820D03*
D21*
X262890224Y-80803820D03*
D32*
X271780224Y-83343820D03*
D21*
X269240224Y-78263820D03*
D25*
X259660224Y-80333820D03*
X259680224Y-81313820D03*
X272530224Y-77753820D03*
X272550224Y-78833820D03*
D32*
X271780224Y-102393836D03*
D21*
X269240224Y-97313836D03*
D31*
X266700224Y-102393836D03*
D21*
X262890224Y-99853836D03*
D32*
X261620224Y-102393836D03*
D25*
X259680224Y-100363836D03*
X259660224Y-99383836D03*
X272550224Y-97883836D03*
X272530224Y-96803836D03*
D32*
X261620224Y-121443852D03*
D21*
X269240224Y-116363852D03*
X262890224Y-118903852D03*
D31*
X266700224Y-121443852D03*
D32*
X271780224Y-121443852D03*
D25*
X259660224Y-118433852D03*
X259680224Y-119413852D03*
X272530224Y-115853852D03*
X272550224Y-116933852D03*
D32*
X252730208Y-121443852D03*
X242570208Y-121443852D03*
D21*
X243840208Y-118903852D03*
D31*
X247650208Y-121443852D03*
D21*
X250190208Y-116363852D03*
D25*
X240610208Y-118433852D03*
X240630208Y-119413852D03*
X253480208Y-115853852D03*
X253500208Y-116933852D03*
D32*
X242570208Y-140493868D03*
X252730208Y-140493868D03*
D21*
X250190208Y-135413868D03*
X243840208Y-137953868D03*
D31*
X247650208Y-140493868D03*
D25*
X240610208Y-137483868D03*
X240630208Y-138463868D03*
X253500208Y-135983868D03*
X253480208Y-134903868D03*
D21*
X243840208Y-61753804D03*
D32*
X242570208Y-64293804D03*
D21*
X250190208Y-59213804D03*
D32*
X252730208Y-64293804D03*
D31*
X247650208Y-64293804D03*
D25*
X240610208Y-61283804D03*
X240630208Y-62263804D03*
X253480208Y-58703804D03*
X253500208Y-59783804D03*
D21*
X250190208Y-78263820D03*
D32*
X252730208Y-83343820D03*
X242570208Y-83343820D03*
D31*
X247650208Y-83343820D03*
D21*
X243840208Y-80803820D03*
D25*
X240630208Y-81313820D03*
X240610208Y-80333820D03*
X253500208Y-78833820D03*
X253480208Y-77753820D03*
D32*
X252730208Y-102393836D03*
X242570208Y-102393836D03*
D21*
X250190208Y-97313836D03*
D31*
X247650208Y-102393836D03*
D21*
X243840208Y-99853836D03*
D25*
X240630208Y-100363836D03*
X240610208Y-99383836D03*
X253500208Y-97883836D03*
X253480208Y-96803836D03*
D32*
X223520192Y-102393836D03*
D31*
X228600192Y-102393836D03*
D21*
X231140192Y-97313836D03*
X224790192Y-99853836D03*
D32*
X233680192Y-102393836D03*
D25*
X221560192Y-99383836D03*
X221580192Y-100363836D03*
X234430192Y-96803836D03*
X234450192Y-97883836D03*
D21*
X224790192Y-118903852D03*
X231140192Y-116363852D03*
D32*
X223520192Y-121443852D03*
X233680192Y-121443852D03*
D31*
X228600192Y-121443852D03*
D25*
X221560192Y-118433852D03*
X221580192Y-119413852D03*
X234450192Y-116933852D03*
X234430192Y-115853852D03*
D21*
X224790192Y-137953868D03*
D32*
X233680192Y-140493868D03*
D31*
X228600192Y-140493868D03*
D32*
X223520192Y-140493868D03*
D21*
X231140192Y-135413868D03*
D25*
X221580192Y-138463868D03*
X221560192Y-137483868D03*
X234450192Y-135983868D03*
X234430192Y-134903868D03*
D21*
X231140192Y-59213804D03*
D32*
X223520192Y-64293804D03*
D31*
X228600192Y-64293804D03*
D21*
X224790192Y-61753804D03*
D32*
X233680192Y-64293804D03*
D25*
X221560192Y-61283804D03*
X221580192Y-62263804D03*
X234450192Y-59783804D03*
X234430192Y-58703804D03*
D32*
X223520192Y-83343820D03*
D21*
X231140192Y-78263820D03*
X224790192Y-80803820D03*
D32*
X233680192Y-83343820D03*
D31*
X228600192Y-83343820D03*
D25*
X221580192Y-81313820D03*
X221560192Y-80333820D03*
X234450192Y-78833820D03*
X234430192Y-77753820D03*
D21*
X212090176Y-78263820D03*
D31*
X209550176Y-83343820D03*
D32*
X204470176Y-83343820D03*
X214630176Y-83343820D03*
D21*
X205740176Y-80803820D03*
D25*
X202510176Y-80333820D03*
X202530176Y-81313820D03*
X215380176Y-77753820D03*
X215400176Y-78833820D03*
D32*
X214630176Y-102393836D03*
X204470176Y-102393836D03*
D21*
X205740176Y-99853836D03*
X212090176Y-97313836D03*
D31*
X209550176Y-102393836D03*
D25*
X202510176Y-99383836D03*
X202530176Y-100363836D03*
X215400176Y-97883836D03*
X215380176Y-96803836D03*
D32*
X214630176Y-121443852D03*
D21*
X205740176Y-118903852D03*
D32*
X204470176Y-121443852D03*
D21*
X212090176Y-116363852D03*
D31*
X209550176Y-121443852D03*
D25*
X202510176Y-118433852D03*
X202530176Y-119413852D03*
X215380176Y-115853852D03*
X215400176Y-116933852D03*
D21*
X212090176Y-135413868D03*
X205740176Y-137953868D03*
D32*
X214630176Y-140493868D03*
X204470176Y-140493868D03*
D31*
X209550176Y-140493868D03*
D25*
X202530176Y-138463868D03*
X202510176Y-137483868D03*
X215400176Y-135983868D03*
X215380176Y-134903868D03*
D21*
X205740176Y-61753804D03*
D32*
X214630176Y-64293804D03*
D21*
X212090176Y-59213804D03*
D32*
X204470176Y-64293804D03*
D31*
X209550176Y-64293804D03*
D25*
X202510176Y-61283804D03*
X202530176Y-62263804D03*
X215380176Y-58703804D03*
X215400176Y-59783804D03*
D32*
X185420160Y-64293804D03*
D21*
X186690160Y-61753804D03*
D32*
X195580160Y-64293804D03*
D31*
X190500160Y-64293804D03*
D21*
X193040160Y-59213804D03*
D25*
X183480160Y-62263804D03*
X183460160Y-61283804D03*
X196350160Y-59783804D03*
X196330160Y-58703804D03*
D21*
X193040160Y-78263820D03*
D32*
X185420160Y-83343820D03*
D21*
X186690160Y-80803820D03*
D31*
X190500160Y-83343820D03*
D32*
X195580160Y-83343820D03*
D25*
X183460160Y-80333820D03*
X183480160Y-81313820D03*
X196350160Y-78833820D03*
X196330160Y-77753820D03*
D31*
X190500160Y-102393836D03*
D32*
X195580160Y-102393836D03*
X185420160Y-102393836D03*
D21*
X186690160Y-99853836D03*
X193040160Y-97313836D03*
D25*
X183480160Y-100363836D03*
X183460160Y-99383836D03*
X196350160Y-97883836D03*
X196330160Y-96803836D03*
D21*
X193040160Y-116363852D03*
X186690160Y-118903852D03*
D32*
X195580160Y-121443852D03*
D31*
X190500160Y-121443852D03*
D32*
X185420160Y-121443852D03*
D25*
X183480160Y-119413852D03*
X183460160Y-118433852D03*
X196330160Y-115853852D03*
X196350160Y-116933852D03*
D21*
X193040160Y-135413868D03*
D32*
X195580160Y-140493868D03*
D21*
X186690160Y-137953868D03*
D32*
X185420160Y-140493868D03*
D31*
X190500160Y-140493868D03*
D25*
X183480160Y-138463868D03*
X183460160Y-137483868D03*
X196330160Y-134903868D03*
X196350160Y-135983868D03*
D31*
X57150048Y-64293804D03*
D32*
X62230048Y-64293804D03*
X52070048Y-64293804D03*
D21*
X59690048Y-59213804D03*
X53340048Y-61753804D03*
D25*
X50110048Y-61283804D03*
X50130048Y-62263804D03*
X62980048Y-58703804D03*
X63000048Y-59783804D03*
D32*
X62230048Y-83343820D03*
D31*
X57150048Y-83343820D03*
D21*
X59690048Y-78263820D03*
D32*
X52070048Y-83343820D03*
D21*
X53340048Y-80803820D03*
D25*
X50130048Y-81313820D03*
X50110048Y-80333820D03*
X62980048Y-77753820D03*
X63000048Y-78833820D03*
D19*
X28575024Y-130968860D03*
X276225232Y-73818812D03*
X276225232Y-130968860D03*
X28575024Y-73818812D03*
D31*
X19049968Y-64293750D03*
D21*
X22859968Y-66833750D03*
D32*
X13969968Y-64293750D03*
D21*
X16509968Y-69373750D03*
D32*
X24129968Y-64293750D03*
D25*
X26069968Y-66323750D03*
X26089968Y-67303750D03*
X13199968Y-68803750D03*
X13219968Y-69883750D03*
D33*
X29378000Y-60660000D03*
D34*
X28900000Y-62060000D03*
D35*
X26828000Y-59360000D03*
D33*
X26828000Y-60660000D03*
D35*
X29378000Y-59360000D03*
D33*
X27678000Y-60660000D03*
D35*
X28528000Y-59360000D03*
D36*
X28100000Y-63610000D03*
D35*
X27678000Y-59360000D03*
D33*
X28528000Y-60660000D03*
D34*
X27300000Y-62060000D03*
D35*
X31078000Y-60710000D03*
D37*
X29700000Y-63610000D03*
D35*
X25128000Y-59360000D03*
X25128000Y-60710000D03*
X31078000Y-59360000D03*
D38*
X23778000Y-60090000D03*
D39*
X24000000Y-61650000D03*
X32200000Y-61650000D03*
D38*
X32428000Y-60090000D03*
D40*
X23778000Y-56710000D03*
D39*
X24200000Y-56950000D03*
X32000000Y-56950000D03*
D40*
X32428000Y-56710000D03*
D35*
X25978000Y-60710000D03*
D36*
X26500000Y-63610000D03*
D35*
X30228000Y-59360000D03*
X30228000Y-60710000D03*
X25978000Y-59360000D03*
D41*
X66675000Y-76075000D03*
X66675000Y-74575001D03*
X66675000Y-73074999D03*
X66675000Y-71574999D03*
M02*
