M48
; DRILL file {KiCad (6.0.0)} date Sun Mar 13 10:48:48 2022
; FORMAT={-:-/ absolute / metric / decimal}
; #@! TF.CreationDate,2022-03-13T10:48:48+07:00
; #@! TF.GenerationSoftware,Kicad,Pcbnew,(6.0.0)
; #@! TF.FileFunction,Plated,1,2,PTH
FMAT,2
METRIC
; #@! TA.AperFunction,Plated,PTH,ViaDrill
T1C0.300
; #@! TA.AperFunction,Plated,PTH,ComponentDrill
T2C0.300
; #@! TA.AperFunction,Plated,PTH,ViaDrill
T3C0.400
; #@! TA.AperFunction,Plated,PTH,ComponentDrill
T4C0.400
; #@! TA.AperFunction,Plated,PTH,ComponentDrill
T5C0.450
; #@! TA.AperFunction,Plated,PTH,ComponentDrill
T6C0.600
; #@! TA.AperFunction,Plated,PTH,ComponentDrill
T7C0.700
; #@! TA.AperFunction,Plated,PTH,ComponentDrill
T8C0.710
; #@! TA.AperFunction,Plated,PTH,ComponentDrill
T9C0.737
; #@! TA.AperFunction,Plated,PTH,ComponentDrill
T10C0.800
; #@! TA.AperFunction,Plated,PTH,ComponentDrill
T11C0.900
; #@! TA.AperFunction,Plated,PTH,ComponentDrill
T12C1.000
; #@! TA.AperFunction,Plated,PTH,ComponentDrill
T13C1.100
%
G90
G05
T1
X234.442Y-92.401
T2
X12.01Y-80.334
X12.01Y-99.384
X12.01Y-118.434
X12.01Y-137.484
X12.03Y-81.314
X12.03Y-100.364
X12.03Y-119.414
X12.03Y-138.464
X13.2Y-68.804
X13.22Y-69.884
X24.88Y-77.754
X24.88Y-96.804
X24.88Y-115.854
X24.88Y-134.904
X24.9Y-78.834
X24.9Y-97.884
X24.9Y-116.934
X24.9Y-135.984
X26.07Y-66.324
X26.09Y-67.304
X31.06Y-80.334
X31.06Y-99.384
X31.06Y-118.434
X31.06Y-137.484
X31.08Y-81.314
X31.08Y-100.364
X31.08Y-119.414
X31.08Y-138.464
X32.25Y-68.804
X32.27Y-69.884
X43.93Y-77.754
X43.93Y-96.804
X43.93Y-115.854
X43.93Y-134.904
X43.95Y-78.834
X43.95Y-97.884
X43.95Y-116.934
X43.95Y-135.984
X45.12Y-66.324
X45.14Y-67.304
X50.11Y-61.284
X50.11Y-80.334
X50.11Y-99.384
X50.11Y-118.434
X50.11Y-137.484
X50.13Y-62.264
X50.13Y-81.314
X50.13Y-100.364
X50.13Y-119.414
X50.13Y-138.464
X62.98Y-58.704
X62.98Y-77.754
X62.98Y-96.804
X62.98Y-115.854
X62.98Y-134.904
X63.0Y-59.784
X63.0Y-78.834
X63.0Y-97.884
X63.0Y-116.934
X63.0Y-135.984
X69.16Y-61.284
X69.16Y-80.334
X69.16Y-99.384
X69.16Y-118.434
X69.16Y-137.484
X69.18Y-62.264
X69.18Y-81.314
X69.18Y-100.364
X69.18Y-119.414
X69.18Y-138.464
X82.03Y-58.704
X82.03Y-77.754
X82.03Y-96.804
X82.03Y-115.854
X82.03Y-134.904
X82.05Y-59.784
X82.05Y-78.834
X82.05Y-97.884
X82.05Y-116.934
X82.05Y-135.984
X88.21Y-61.284
X88.21Y-80.334
X88.21Y-99.384
X88.21Y-118.434
X88.21Y-137.484
X88.23Y-62.264
X88.23Y-81.314
X88.23Y-100.364
X88.23Y-119.414
X88.23Y-138.464
X98.933Y-145.066
X98.943Y-146.196
X101.08Y-58.704
X101.08Y-77.754
X101.08Y-96.804
X101.08Y-115.854
X101.08Y-134.904
X101.1Y-59.784
X101.1Y-78.834
X101.1Y-97.884
X101.1Y-116.934
X101.1Y-135.984
X107.26Y-61.284
X107.26Y-80.334
X107.26Y-99.384
X107.26Y-118.434
X107.26Y-137.484
X107.28Y-62.264
X107.28Y-81.314
X107.28Y-100.364
X107.28Y-119.414
X107.28Y-138.464
X111.76Y-142.526
X111.77Y-143.656
X120.13Y-58.704
X120.13Y-77.754
X120.13Y-96.804
X120.13Y-115.854
X120.13Y-134.904
X120.15Y-59.784
X120.15Y-78.834
X120.15Y-97.884
X120.15Y-116.934
X120.15Y-135.984
X183.46Y-61.284
X183.46Y-80.334
X183.46Y-99.384
X183.46Y-118.434
X183.46Y-137.484
X183.48Y-62.264
X183.48Y-81.314
X183.48Y-100.364
X183.48Y-119.414
X183.48Y-138.464
X194.183Y-145.066
X194.193Y-146.196
X196.33Y-58.704
X196.33Y-77.754
X196.33Y-96.804
X196.33Y-115.854
X196.33Y-134.904
X196.35Y-59.784
X196.35Y-78.834
X196.35Y-97.884
X196.35Y-116.934
X196.35Y-135.984
X202.51Y-61.284
X202.51Y-80.334
X202.51Y-99.384
X202.51Y-118.434
X202.51Y-137.484
X202.53Y-62.264
X202.53Y-81.314
X202.53Y-100.364
X202.53Y-119.414
X202.53Y-138.464
X207.01Y-142.526
X207.02Y-143.656
X215.38Y-58.704
X215.38Y-77.754
X215.38Y-96.804
X215.38Y-115.854
X215.38Y-134.904
X215.4Y-59.784
X215.4Y-78.834
X215.4Y-97.884
X215.4Y-116.934
X215.4Y-135.984
X221.56Y-61.284
X221.56Y-80.334
X221.56Y-99.384
X221.56Y-118.434
X221.56Y-137.484
X221.58Y-62.264
X221.58Y-81.314
X221.58Y-100.364
X221.58Y-119.414
X221.58Y-138.464
X234.43Y-58.704
X234.43Y-77.754
X234.43Y-96.804
X234.43Y-115.854
X234.43Y-134.904
X234.45Y-59.784
X234.45Y-78.834
X234.45Y-97.884
X234.45Y-116.934
X234.45Y-135.984
X240.61Y-61.284
X240.61Y-80.334
X240.61Y-99.384
X240.61Y-118.434
X240.61Y-137.484
X240.63Y-62.264
X240.63Y-81.314
X240.63Y-100.364
X240.63Y-119.414
X240.63Y-138.464
X253.48Y-58.704
X253.48Y-77.754
X253.48Y-96.804
X253.48Y-115.854
X253.48Y-134.904
X253.5Y-59.784
X253.5Y-78.834
X253.5Y-97.884
X253.5Y-116.934
X253.5Y-135.984
X259.66Y-61.284
X259.66Y-80.334
X259.66Y-99.384
X259.66Y-118.434
X259.66Y-137.484
X259.68Y-62.264
X259.68Y-81.314
X259.68Y-100.364
X259.68Y-119.414
X259.68Y-138.464
X272.53Y-58.704
X272.53Y-77.754
X272.53Y-96.804
X272.53Y-115.854
X272.53Y-134.904
X272.55Y-59.784
X272.55Y-78.834
X272.55Y-97.884
X272.55Y-116.934
X272.55Y-135.984
X278.71Y-61.284
X278.71Y-80.334
X278.71Y-99.384
X278.71Y-118.434
X278.71Y-137.484
X278.73Y-62.264
X278.73Y-81.314
X278.73Y-100.364
X278.73Y-119.414
X278.73Y-138.464
X291.58Y-58.704
X291.58Y-77.754
X291.58Y-96.804
X291.58Y-115.854
X291.58Y-134.904
X291.6Y-59.784
X291.6Y-78.834
X291.6Y-97.884
X291.6Y-116.934
X291.6Y-135.984
T3
X17.882Y-88.367
X18.669Y-77.216
X21.431Y-56.674
X21.946Y-71.526
X27.534Y-68.752
X28.651Y-77.622
X31.655Y-77.494
X40.538Y-68.529
X47.625Y-83.344
X66.437Y-88.106
X66.675Y-103.108
X69.056Y-76.2
X83.3Y-126.7
X84.7Y-138.1
X84.8Y-119.0
X122.039Y-89.297
X132.588Y-102.108
X158.353Y-80.963
X176.378Y-78.74
X182.761Y-144.066
X236.5Y-110.4
X256.7Y-127.7
T4
X25.128Y-59.51
X25.128Y-60.86
X25.978Y-59.51
X25.978Y-60.86
X26.828Y-59.51
X26.828Y-60.86
X27.678Y-59.51
X27.678Y-60.86
X28.528Y-59.51
X28.528Y-60.86
X29.378Y-59.51
X29.378Y-60.86
X30.228Y-59.51
X30.228Y-60.86
X31.078Y-59.51
X31.078Y-60.86
T6
X145.542Y-127.992
X147.042Y-127.992
T7
X15.478Y-73.819
X23.098Y-73.819
X26.5Y-63.61
X27.3Y-61.86
X28.1Y-63.61
X28.9Y-61.86
X29.7Y-63.61
X34.052Y-73.819
X41.672Y-73.819
X142.399Y-58.341
X150.019Y-58.341
X154.781Y-58.341
X154.781Y-106.561
X154.781Y-108.942
X154.781Y-111.324
X154.781Y-113.705
X162.401Y-58.341
X162.401Y-106.561
X162.401Y-108.942
X162.401Y-111.324
X162.401Y-113.705
T8
X140.494Y-113.546
X140.494Y-118.626
T9
X66.675Y-71.575
X66.675Y-73.075
X66.675Y-74.575
X66.675Y-76.075
T10
X126.325Y-67.866
X126.325Y-73.819
X126.325Y-79.772
X126.325Y-85.725
X126.325Y-91.678
X126.325Y-97.631
X126.325Y-100.608
X126.325Y-103.584
X126.325Y-109.538
X126.325Y-115.491
X126.325Y-121.444
X126.325Y-127.397
X126.325Y-133.35
X128.707Y-64.889
X128.707Y-70.842
X128.707Y-76.795
X128.707Y-82.749
X128.707Y-88.702
X128.707Y-94.655
X128.707Y-106.561
X128.707Y-112.514
X128.707Y-118.467
X128.707Y-124.42
X128.707Y-130.374
X133.945Y-67.866
X133.945Y-73.819
X133.945Y-79.772
X133.945Y-85.725
X133.945Y-91.678
X133.945Y-97.631
X133.945Y-100.608
X133.945Y-103.584
X133.945Y-109.538
X133.945Y-115.491
X133.945Y-121.444
X133.945Y-127.397
X133.945Y-133.35
X135.731Y-136.922
X135.731Y-144.542
X136.327Y-64.889
X136.327Y-70.842
X136.327Y-76.795
X136.327Y-82.749
X136.327Y-88.702
X136.327Y-94.655
X136.327Y-106.561
X136.327Y-112.514
X136.327Y-118.467
X136.327Y-124.42
X136.327Y-130.374
X138.708Y-134.541
X138.708Y-142.161
X141.684Y-136.922
X141.684Y-144.542
X144.066Y-88.702
X144.066Y-91.202
X144.066Y-94.059
X144.066Y-96.559
X144.661Y-134.541
X144.661Y-142.161
X147.638Y-136.922
X147.638Y-144.542
X148.828Y-89.892
X148.828Y-94.772
X150.614Y-134.541
X150.614Y-142.161
X154.186Y-134.541
X154.186Y-142.161
X154.781Y-69.056
X154.781Y-71.596
X154.781Y-74.136
X154.781Y-76.676
X154.781Y-79.216
X154.781Y-81.756
X154.781Y-84.296
X154.781Y-86.836
X154.781Y-89.376
X154.781Y-91.916
X154.781Y-94.456
X154.781Y-96.996
X154.781Y-99.536
X154.781Y-102.076
X154.9Y-118.467
X154.9Y-121.444
X155.735Y-126.802
X155.735Y-129.778
X157.163Y-136.922
X157.163Y-144.542
X160.139Y-134.541
X160.139Y-142.161
X160.735Y-126.802
X160.735Y-129.778
X162.401Y-69.056
X162.401Y-71.596
X162.401Y-74.136
X162.401Y-76.676
X162.401Y-79.216
X162.401Y-81.756
X162.401Y-84.296
X162.401Y-86.836
X162.401Y-89.376
X162.401Y-91.916
X162.401Y-94.456
X162.401Y-96.996
X162.401Y-99.536
X162.401Y-102.076
X162.52Y-118.467
X162.52Y-121.444
X163.116Y-136.922
X163.116Y-144.542
X166.092Y-134.541
X166.092Y-142.161
X168.474Y-64.889
X168.474Y-70.842
X168.474Y-76.795
X168.474Y-82.749
X168.474Y-88.702
X168.474Y-94.655
X168.474Y-100.608
X168.474Y-106.561
X168.474Y-112.514
X168.474Y-118.467
X168.474Y-124.42
X168.474Y-130.374
X169.069Y-136.922
X169.069Y-144.542
X170.855Y-67.866
X170.855Y-73.819
X170.855Y-79.772
X170.855Y-85.725
X170.855Y-91.678
X170.855Y-97.631
X170.855Y-103.584
X170.855Y-109.538
X170.855Y-115.491
X170.855Y-121.444
X170.855Y-127.397
X170.855Y-133.35
X176.094Y-64.889
X176.094Y-70.842
X176.094Y-76.795
X176.094Y-82.749
X176.094Y-88.702
X176.094Y-94.655
X176.094Y-100.608
X176.094Y-106.561
X176.094Y-112.514
X176.094Y-118.467
X176.094Y-124.42
X176.094Y-130.374
X178.475Y-67.866
X178.475Y-73.819
X178.475Y-79.772
X178.475Y-85.725
X178.475Y-91.678
X178.475Y-97.631
X178.475Y-103.584
X178.475Y-109.538
X178.475Y-115.491
X178.475Y-121.444
X178.475Y-127.397
X178.475Y-133.35
T11
X145.256Y-63.698
X147.796Y-63.698
X157.004Y-63.698
X159.544Y-63.698
T12
X144.066Y-80.209
X144.066Y-82.749
X146.606Y-80.209
X146.606Y-82.749
X149.146Y-80.209
X149.146Y-82.749
T13
X144.066Y-69.105
X144.066Y-75.605
X144.066Y-100.656
X144.066Y-107.156
X148.566Y-69.105
X148.566Y-75.605
X148.566Y-100.656
X148.566Y-107.156
T5
X24.2Y-57.525G85X24.2Y-56.375
G05
X24.2Y-62.225G85X24.2Y-61.075
G05
X32.0Y-57.525G85X32.0Y-56.375
G05
X32.0Y-62.225G85X32.0Y-61.075
G05
T6
X23.778Y-56.31G85X23.778Y-57.11
G05
X23.778Y-59.34G85X23.778Y-60.84
G05
X32.428Y-56.31G85X32.428Y-57.11
G05
X32.428Y-59.34G85X32.428Y-60.84
G05
T0
M30
