%FSLAX45Y45*%
G04 Gerber Fmt 4.5, Leading zero omitted, Abs format (unit mm)*
G04 Created by KiCad (PCBNEW (6.0.0)) date 2022-03-13 10:48:54*
%MOMM*%
%LPD*%
G01*
G04 APERTURE LIST*
%TA.AperFunction,Profile*%
%ADD10C,0.200000*%
%TD*%
%ADD11C,0.200000*%
%ADD12C,0.030000*%
%ADD13C,0.040000*%
%ADD14C,0.045000*%
%ADD15C,0.060000*%
%ADD16C,0.070000*%
%ADD17C,0.071000*%
%ADD18C,0.073660*%
%ADD19C,0.080000*%
%ADD20C,0.090000*%
%ADD21C,0.100000*%
%ADD22C,0.110000*%
G04 APERTURE END LIST*
D10*
X23876439Y-14949375D02*
X6603561Y-14949375D01*
X29475000Y-14724375D02*
X29475000Y-5754375D01*
X27210189Y-5529375D02*
X26129811Y-5529375D01*
X29250000Y-14949375D02*
X24701061Y-14949375D01*
X16389443Y-5610020D02*
G75*
G03*
X16256439Y-5529375I-133003J-69355D01*
G01*
X2578193Y-5610020D02*
G75*
G03*
X3136807Y-5610020I279307J145645D01*
G01*
X16256439Y-5529375D02*
X14223561Y-5529375D01*
X13531943Y-5610020D02*
G75*
G03*
X13398939Y-5529375I-133003J-69355D01*
G01*
X5778939Y-14949375D02*
X1230000Y-14949375D01*
X13531943Y-5610020D02*
G75*
G03*
X14090557Y-5610020I279307J145645D01*
G01*
X3269811Y-5529375D02*
G75*
G03*
X3136807Y-5610020I0J-150000D01*
G01*
X1230000Y-5529375D02*
G75*
G03*
X1005000Y-5754375I0J-225000D01*
G01*
X13398939Y-5529375D02*
X5174811Y-5529375D01*
X2578193Y-5610020D02*
G75*
G03*
X2445189Y-5529375I-133003J-69355D01*
G01*
X14223561Y-5529375D02*
G75*
G03*
X14090557Y-5610020I0J-150000D01*
G01*
X25305189Y-5529375D02*
X17081061Y-5529375D01*
X16389443Y-5610020D02*
G75*
G03*
X16948057Y-5610020I279307J145645D01*
G01*
X25438193Y-5610020D02*
G75*
G03*
X25996807Y-5610020I279307J145645D01*
G01*
X25438193Y-5610020D02*
G75*
G03*
X25305189Y-5529375I-133003J-69355D01*
G01*
X17081061Y-5529375D02*
G75*
G03*
X16948057Y-5610020I0J-150000D01*
G01*
X1005000Y-14724375D02*
X1005000Y-5754375D01*
X29475000Y-5754375D02*
G75*
G03*
X29250000Y-5529375I-225000J0D01*
G01*
X6470557Y-14868730D02*
G75*
G03*
X6603561Y-14949375I133004J69355D01*
G01*
X23876439Y-14949375D02*
G75*
G03*
X24009443Y-14868730I0J150000D01*
G01*
X24568057Y-14868730D02*
G75*
G03*
X24701061Y-14949375I133004J69355D01*
G01*
X24568057Y-14868730D02*
G75*
G03*
X24009443Y-14868730I-279307J-145645D01*
G01*
X29250000Y-14949375D02*
G75*
G03*
X29475000Y-14724375I0J225000D01*
G01*
X26129811Y-5529375D02*
G75*
G03*
X25996807Y-5610020I0J-150000D01*
G01*
X5778939Y-14949375D02*
G75*
G03*
X5911943Y-14868730I0J150000D01*
G01*
X6470557Y-14868730D02*
G75*
G03*
X5911943Y-14868730I-279307J-145645D01*
G01*
X1005000Y-14724375D02*
G75*
G03*
X1230000Y-14949375I225000J0D01*
G01*
X4350189Y-5529375D02*
X3269811Y-5529375D01*
X2445190Y-5529375D02*
X1230000Y-5529375D01*
X5174811Y-5529375D02*
G75*
G03*
X5041807Y-5610020I0J-150000D01*
G01*
X4483193Y-5610020D02*
G75*
G03*
X5041807Y-5610020I279307J145645D01*
G01*
X4483193Y-5610020D02*
G75*
G03*
X4350189Y-5529375I-133003J-69355D01*
G01*
X29250000Y-5529375D02*
X28034810Y-5529375D01*
X28034810Y-5529375D02*
G75*
G03*
X27901807Y-5610020I0J-150000D01*
G01*
X27343193Y-5610020D02*
G75*
G03*
X27210189Y-5529375I-133003J-69355D01*
G01*
X27343193Y-5610020D02*
G75*
G03*
X27901807Y-5610020I279307J145645D01*
G01*
D11*
D12*
X23429200Y-9225051D02*
X23459200Y-9255051D01*
X23459200Y-9225051D02*
X23429200Y-9255051D01*
X1216002Y-8033382D02*
G75*
G03*
X1216002Y-8033382I-15000J0D01*
G01*
X1216002Y-9938384D02*
G75*
G03*
X1216002Y-9938384I-15000J0D01*
G01*
X1216002Y-11843385D02*
G75*
G03*
X1216002Y-11843385I-15000J0D01*
G01*
X1216002Y-13748387D02*
G75*
G03*
X1216002Y-13748387I-15000J0D01*
G01*
X1218002Y-8131382D02*
G75*
G03*
X1218002Y-8131382I-15000J0D01*
G01*
X1218002Y-10036384D02*
G75*
G03*
X1218002Y-10036384I-15000J0D01*
G01*
X1218002Y-11941385D02*
G75*
G03*
X1218002Y-11941385I-15000J0D01*
G01*
X1218002Y-13846387D02*
G75*
G03*
X1218002Y-13846387I-15000J0D01*
G01*
X1334997Y-6880375D02*
G75*
G03*
X1334997Y-6880375I-15000J0D01*
G01*
X1336997Y-6988375D02*
G75*
G03*
X1336997Y-6988375I-15000J0D01*
G01*
X2503002Y-7775382D02*
G75*
G03*
X2503002Y-7775382I-15000J0D01*
G01*
X2503002Y-9680384D02*
G75*
G03*
X2503002Y-9680384I-15000J0D01*
G01*
X2503002Y-11585385D02*
G75*
G03*
X2503002Y-11585385I-15000J0D01*
G01*
X2503002Y-13490387D02*
G75*
G03*
X2503002Y-13490387I-15000J0D01*
G01*
X2505002Y-7883382D02*
G75*
G03*
X2505002Y-7883382I-15000J0D01*
G01*
X2505002Y-9788384D02*
G75*
G03*
X2505002Y-9788384I-15000J0D01*
G01*
X2505002Y-11693385D02*
G75*
G03*
X2505002Y-11693385I-15000J0D01*
G01*
X2505002Y-13598387D02*
G75*
G03*
X2505002Y-13598387I-15000J0D01*
G01*
X2621997Y-6632375D02*
G75*
G03*
X2621997Y-6632375I-15000J0D01*
G01*
X2623997Y-6730375D02*
G75*
G03*
X2623997Y-6730375I-15000J0D01*
G01*
X3121003Y-8033382D02*
G75*
G03*
X3121003Y-8033382I-15000J0D01*
G01*
X3121003Y-9938384D02*
G75*
G03*
X3121003Y-9938384I-15000J0D01*
G01*
X3121003Y-11843385D02*
G75*
G03*
X3121003Y-11843385I-15000J0D01*
G01*
X3121003Y-13748387D02*
G75*
G03*
X3121003Y-13748387I-15000J0D01*
G01*
X3123003Y-8131382D02*
G75*
G03*
X3123003Y-8131382I-15000J0D01*
G01*
X3123003Y-10036384D02*
G75*
G03*
X3123003Y-10036384I-15000J0D01*
G01*
X3123003Y-11941385D02*
G75*
G03*
X3123003Y-11941385I-15000J0D01*
G01*
X3123003Y-13846387D02*
G75*
G03*
X3123003Y-13846387I-15000J0D01*
G01*
X3240003Y-6880380D02*
G75*
G03*
X3240003Y-6880380I-15000J0D01*
G01*
X3242003Y-6988380D02*
G75*
G03*
X3242003Y-6988380I-15000J0D01*
G01*
X4408003Y-7775382D02*
G75*
G03*
X4408003Y-7775382I-15000J0D01*
G01*
X4408003Y-9680384D02*
G75*
G03*
X4408003Y-9680384I-15000J0D01*
G01*
X4408003Y-11585385D02*
G75*
G03*
X4408003Y-11585385I-15000J0D01*
G01*
X4408003Y-13490387D02*
G75*
G03*
X4408003Y-13490387I-15000J0D01*
G01*
X4410003Y-7883382D02*
G75*
G03*
X4410003Y-7883382I-15000J0D01*
G01*
X4410003Y-9788384D02*
G75*
G03*
X4410003Y-9788384I-15000J0D01*
G01*
X4410003Y-11693385D02*
G75*
G03*
X4410003Y-11693385I-15000J0D01*
G01*
X4410003Y-13598387D02*
G75*
G03*
X4410003Y-13598387I-15000J0D01*
G01*
X4527003Y-6632380D02*
G75*
G03*
X4527003Y-6632380I-15000J0D01*
G01*
X4529003Y-6730380D02*
G75*
G03*
X4529003Y-6730380I-15000J0D01*
G01*
X5026005Y-6128380D02*
G75*
G03*
X5026005Y-6128380I-15000J0D01*
G01*
X5026005Y-8033382D02*
G75*
G03*
X5026005Y-8033382I-15000J0D01*
G01*
X5026005Y-9938384D02*
G75*
G03*
X5026005Y-9938384I-15000J0D01*
G01*
X5026005Y-11843385D02*
G75*
G03*
X5026005Y-11843385I-15000J0D01*
G01*
X5026005Y-13748387D02*
G75*
G03*
X5026005Y-13748387I-15000J0D01*
G01*
X5028005Y-6226380D02*
G75*
G03*
X5028005Y-6226380I-15000J0D01*
G01*
X5028005Y-8131382D02*
G75*
G03*
X5028005Y-8131382I-15000J0D01*
G01*
X5028005Y-10036384D02*
G75*
G03*
X5028005Y-10036384I-15000J0D01*
G01*
X5028005Y-11941385D02*
G75*
G03*
X5028005Y-11941385I-15000J0D01*
G01*
X5028005Y-13846387D02*
G75*
G03*
X5028005Y-13846387I-15000J0D01*
G01*
X6313005Y-5870380D02*
G75*
G03*
X6313005Y-5870380I-15000J0D01*
G01*
X6313005Y-7775382D02*
G75*
G03*
X6313005Y-7775382I-15000J0D01*
G01*
X6313005Y-9680384D02*
G75*
G03*
X6313005Y-9680384I-15000J0D01*
G01*
X6313005Y-11585385D02*
G75*
G03*
X6313005Y-11585385I-15000J0D01*
G01*
X6313005Y-13490387D02*
G75*
G03*
X6313005Y-13490387I-15000J0D01*
G01*
X6315005Y-5978380D02*
G75*
G03*
X6315005Y-5978380I-15000J0D01*
G01*
X6315005Y-7883382D02*
G75*
G03*
X6315005Y-7883382I-15000J0D01*
G01*
X6315005Y-9788384D02*
G75*
G03*
X6315005Y-9788384I-15000J0D01*
G01*
X6315005Y-11693385D02*
G75*
G03*
X6315005Y-11693385I-15000J0D01*
G01*
X6315005Y-13598387D02*
G75*
G03*
X6315005Y-13598387I-15000J0D01*
G01*
X6931006Y-6128380D02*
G75*
G03*
X6931006Y-6128380I-15000J0D01*
G01*
X6931006Y-8033382D02*
G75*
G03*
X6931006Y-8033382I-15000J0D01*
G01*
X6931006Y-9938384D02*
G75*
G03*
X6931006Y-9938384I-15000J0D01*
G01*
X6931006Y-11843385D02*
G75*
G03*
X6931006Y-11843385I-15000J0D01*
G01*
X6931006Y-13748387D02*
G75*
G03*
X6931006Y-13748387I-15000J0D01*
G01*
X6933006Y-6226380D02*
G75*
G03*
X6933006Y-6226380I-15000J0D01*
G01*
X6933006Y-8131382D02*
G75*
G03*
X6933006Y-8131382I-15000J0D01*
G01*
X6933006Y-10036384D02*
G75*
G03*
X6933006Y-10036384I-15000J0D01*
G01*
X6933006Y-11941385D02*
G75*
G03*
X6933006Y-11941385I-15000J0D01*
G01*
X6933006Y-13846387D02*
G75*
G03*
X6933006Y-13846387I-15000J0D01*
G01*
X8218006Y-5870380D02*
G75*
G03*
X8218006Y-5870380I-15000J0D01*
G01*
X8218006Y-7775382D02*
G75*
G03*
X8218006Y-7775382I-15000J0D01*
G01*
X8218006Y-9680384D02*
G75*
G03*
X8218006Y-9680384I-15000J0D01*
G01*
X8218006Y-11585385D02*
G75*
G03*
X8218006Y-11585385I-15000J0D01*
G01*
X8218006Y-13490387D02*
G75*
G03*
X8218006Y-13490387I-15000J0D01*
G01*
X8220006Y-5978380D02*
G75*
G03*
X8220006Y-5978380I-15000J0D01*
G01*
X8220006Y-7883382D02*
G75*
G03*
X8220006Y-7883382I-15000J0D01*
G01*
X8220006Y-9788384D02*
G75*
G03*
X8220006Y-9788384I-15000J0D01*
G01*
X8220006Y-11693385D02*
G75*
G03*
X8220006Y-11693385I-15000J0D01*
G01*
X8220006Y-13598387D02*
G75*
G03*
X8220006Y-13598387I-15000J0D01*
G01*
X8836008Y-6128380D02*
G75*
G03*
X8836008Y-6128380I-15000J0D01*
G01*
X8836008Y-8033382D02*
G75*
G03*
X8836008Y-8033382I-15000J0D01*
G01*
X8836008Y-9938384D02*
G75*
G03*
X8836008Y-9938384I-15000J0D01*
G01*
X8836008Y-11843385D02*
G75*
G03*
X8836008Y-11843385I-15000J0D01*
G01*
X8836008Y-13748387D02*
G75*
G03*
X8836008Y-13748387I-15000J0D01*
G01*
X8838008Y-6226380D02*
G75*
G03*
X8838008Y-6226380I-15000J0D01*
G01*
X8838008Y-8131382D02*
G75*
G03*
X8838008Y-8131382I-15000J0D01*
G01*
X8838008Y-10036384D02*
G75*
G03*
X8838008Y-10036384I-15000J0D01*
G01*
X8838008Y-11941385D02*
G75*
G03*
X8838008Y-11941385I-15000J0D01*
G01*
X8838008Y-13846387D02*
G75*
G03*
X8838008Y-13846387I-15000J0D01*
G01*
X9908309Y-14506587D02*
G75*
G03*
X9908309Y-14506587I-15000J0D01*
G01*
X9909309Y-14619587D02*
G75*
G03*
X9909309Y-14619587I-15000J0D01*
G01*
X10123008Y-5870380D02*
G75*
G03*
X10123008Y-5870380I-15000J0D01*
G01*
X10123008Y-7775382D02*
G75*
G03*
X10123008Y-7775382I-15000J0D01*
G01*
X10123008Y-9680384D02*
G75*
G03*
X10123008Y-9680384I-15000J0D01*
G01*
X10123008Y-11585385D02*
G75*
G03*
X10123008Y-11585385I-15000J0D01*
G01*
X10123008Y-13490387D02*
G75*
G03*
X10123008Y-13490387I-15000J0D01*
G01*
X10125008Y-5978380D02*
G75*
G03*
X10125008Y-5978380I-15000J0D01*
G01*
X10125008Y-7883382D02*
G75*
G03*
X10125008Y-7883382I-15000J0D01*
G01*
X10125008Y-9788384D02*
G75*
G03*
X10125008Y-9788384I-15000J0D01*
G01*
X10125008Y-11693385D02*
G75*
G03*
X10125008Y-11693385I-15000J0D01*
G01*
X10125008Y-13598387D02*
G75*
G03*
X10125008Y-13598387I-15000J0D01*
G01*
X10741010Y-6128380D02*
G75*
G03*
X10741010Y-6128380I-15000J0D01*
G01*
X10741010Y-8033382D02*
G75*
G03*
X10741010Y-8033382I-15000J0D01*
G01*
X10741010Y-9938384D02*
G75*
G03*
X10741010Y-9938384I-15000J0D01*
G01*
X10741010Y-11843385D02*
G75*
G03*
X10741010Y-11843385I-15000J0D01*
G01*
X10741010Y-13748387D02*
G75*
G03*
X10741010Y-13748387I-15000J0D01*
G01*
X10743010Y-6226380D02*
G75*
G03*
X10743010Y-6226380I-15000J0D01*
G01*
X10743010Y-8131382D02*
G75*
G03*
X10743010Y-8131382I-15000J0D01*
G01*
X10743010Y-10036384D02*
G75*
G03*
X10743010Y-10036384I-15000J0D01*
G01*
X10743010Y-11941385D02*
G75*
G03*
X10743010Y-11941385I-15000J0D01*
G01*
X10743010Y-13846387D02*
G75*
G03*
X10743010Y-13846387I-15000J0D01*
G01*
X11191009Y-14252587D02*
G75*
G03*
X11191009Y-14252587I-15000J0D01*
G01*
X11192009Y-14365587D02*
G75*
G03*
X11192009Y-14365587I-15000J0D01*
G01*
X12028010Y-5870380D02*
G75*
G03*
X12028010Y-5870380I-15000J0D01*
G01*
X12028010Y-7775382D02*
G75*
G03*
X12028010Y-7775382I-15000J0D01*
G01*
X12028010Y-9680384D02*
G75*
G03*
X12028010Y-9680384I-15000J0D01*
G01*
X12028010Y-11585385D02*
G75*
G03*
X12028010Y-11585385I-15000J0D01*
G01*
X12028010Y-13490387D02*
G75*
G03*
X12028010Y-13490387I-15000J0D01*
G01*
X12030010Y-5978380D02*
G75*
G03*
X12030010Y-5978380I-15000J0D01*
G01*
X12030010Y-7883382D02*
G75*
G03*
X12030010Y-7883382I-15000J0D01*
G01*
X12030010Y-9788384D02*
G75*
G03*
X12030010Y-9788384I-15000J0D01*
G01*
X12030010Y-11693385D02*
G75*
G03*
X12030010Y-11693385I-15000J0D01*
G01*
X12030010Y-13598387D02*
G75*
G03*
X12030010Y-13598387I-15000J0D01*
G01*
X18361016Y-6128380D02*
G75*
G03*
X18361016Y-6128380I-15000J0D01*
G01*
X18361016Y-8033382D02*
G75*
G03*
X18361016Y-8033382I-15000J0D01*
G01*
X18361016Y-9938384D02*
G75*
G03*
X18361016Y-9938384I-15000J0D01*
G01*
X18361016Y-11843385D02*
G75*
G03*
X18361016Y-11843385I-15000J0D01*
G01*
X18361016Y-13748387D02*
G75*
G03*
X18361016Y-13748387I-15000J0D01*
G01*
X18363016Y-6226380D02*
G75*
G03*
X18363016Y-6226380I-15000J0D01*
G01*
X18363016Y-8131382D02*
G75*
G03*
X18363016Y-8131382I-15000J0D01*
G01*
X18363016Y-10036384D02*
G75*
G03*
X18363016Y-10036384I-15000J0D01*
G01*
X18363016Y-11941385D02*
G75*
G03*
X18363016Y-11941385I-15000J0D01*
G01*
X18363016Y-13846387D02*
G75*
G03*
X18363016Y-13846387I-15000J0D01*
G01*
X19433317Y-14506587D02*
G75*
G03*
X19433317Y-14506587I-15000J0D01*
G01*
X19434317Y-14619587D02*
G75*
G03*
X19434317Y-14619587I-15000J0D01*
G01*
X19648016Y-5870380D02*
G75*
G03*
X19648016Y-5870380I-15000J0D01*
G01*
X19648016Y-7775382D02*
G75*
G03*
X19648016Y-7775382I-15000J0D01*
G01*
X19648016Y-9680384D02*
G75*
G03*
X19648016Y-9680384I-15000J0D01*
G01*
X19648016Y-11585385D02*
G75*
G03*
X19648016Y-11585385I-15000J0D01*
G01*
X19648016Y-13490387D02*
G75*
G03*
X19648016Y-13490387I-15000J0D01*
G01*
X19650016Y-5978380D02*
G75*
G03*
X19650016Y-5978380I-15000J0D01*
G01*
X19650016Y-7883382D02*
G75*
G03*
X19650016Y-7883382I-15000J0D01*
G01*
X19650016Y-9788384D02*
G75*
G03*
X19650016Y-9788384I-15000J0D01*
G01*
X19650016Y-11693385D02*
G75*
G03*
X19650016Y-11693385I-15000J0D01*
G01*
X19650016Y-13598387D02*
G75*
G03*
X19650016Y-13598387I-15000J0D01*
G01*
X20266018Y-6128380D02*
G75*
G03*
X20266018Y-6128380I-15000J0D01*
G01*
X20266018Y-8033382D02*
G75*
G03*
X20266018Y-8033382I-15000J0D01*
G01*
X20266018Y-9938384D02*
G75*
G03*
X20266018Y-9938384I-15000J0D01*
G01*
X20266018Y-11843385D02*
G75*
G03*
X20266018Y-11843385I-15000J0D01*
G01*
X20266018Y-13748387D02*
G75*
G03*
X20266018Y-13748387I-15000J0D01*
G01*
X20268018Y-6226380D02*
G75*
G03*
X20268018Y-6226380I-15000J0D01*
G01*
X20268018Y-8131382D02*
G75*
G03*
X20268018Y-8131382I-15000J0D01*
G01*
X20268018Y-10036384D02*
G75*
G03*
X20268018Y-10036384I-15000J0D01*
G01*
X20268018Y-11941385D02*
G75*
G03*
X20268018Y-11941385I-15000J0D01*
G01*
X20268018Y-13846387D02*
G75*
G03*
X20268018Y-13846387I-15000J0D01*
G01*
X20716017Y-14252587D02*
G75*
G03*
X20716017Y-14252587I-15000J0D01*
G01*
X20717017Y-14365587D02*
G75*
G03*
X20717017Y-14365587I-15000J0D01*
G01*
X21553018Y-5870380D02*
G75*
G03*
X21553018Y-5870380I-15000J0D01*
G01*
X21553018Y-7775382D02*
G75*
G03*
X21553018Y-7775382I-15000J0D01*
G01*
X21553018Y-9680384D02*
G75*
G03*
X21553018Y-9680384I-15000J0D01*
G01*
X21553018Y-11585385D02*
G75*
G03*
X21553018Y-11585385I-15000J0D01*
G01*
X21553018Y-13490387D02*
G75*
G03*
X21553018Y-13490387I-15000J0D01*
G01*
X21555018Y-5978380D02*
G75*
G03*
X21555018Y-5978380I-15000J0D01*
G01*
X21555018Y-7883382D02*
G75*
G03*
X21555018Y-7883382I-15000J0D01*
G01*
X21555018Y-9788384D02*
G75*
G03*
X21555018Y-9788384I-15000J0D01*
G01*
X21555018Y-11693385D02*
G75*
G03*
X21555018Y-11693385I-15000J0D01*
G01*
X21555018Y-13598387D02*
G75*
G03*
X21555018Y-13598387I-15000J0D01*
G01*
X22171019Y-6128380D02*
G75*
G03*
X22171019Y-6128380I-15000J0D01*
G01*
X22171019Y-8033382D02*
G75*
G03*
X22171019Y-8033382I-15000J0D01*
G01*
X22171019Y-9938384D02*
G75*
G03*
X22171019Y-9938384I-15000J0D01*
G01*
X22171019Y-11843385D02*
G75*
G03*
X22171019Y-11843385I-15000J0D01*
G01*
X22171019Y-13748387D02*
G75*
G03*
X22171019Y-13748387I-15000J0D01*
G01*
X22173019Y-6226380D02*
G75*
G03*
X22173019Y-6226380I-15000J0D01*
G01*
X22173019Y-8131382D02*
G75*
G03*
X22173019Y-8131382I-15000J0D01*
G01*
X22173019Y-10036384D02*
G75*
G03*
X22173019Y-10036384I-15000J0D01*
G01*
X22173019Y-11941385D02*
G75*
G03*
X22173019Y-11941385I-15000J0D01*
G01*
X22173019Y-13846387D02*
G75*
G03*
X22173019Y-13846387I-15000J0D01*
G01*
X23458019Y-5870380D02*
G75*
G03*
X23458019Y-5870380I-15000J0D01*
G01*
X23458019Y-7775382D02*
G75*
G03*
X23458019Y-7775382I-15000J0D01*
G01*
X23458019Y-9680384D02*
G75*
G03*
X23458019Y-9680384I-15000J0D01*
G01*
X23458019Y-11585385D02*
G75*
G03*
X23458019Y-11585385I-15000J0D01*
G01*
X23458019Y-13490387D02*
G75*
G03*
X23458019Y-13490387I-15000J0D01*
G01*
X23460019Y-5978380D02*
G75*
G03*
X23460019Y-5978380I-15000J0D01*
G01*
X23460019Y-7883382D02*
G75*
G03*
X23460019Y-7883382I-15000J0D01*
G01*
X23460019Y-9788384D02*
G75*
G03*
X23460019Y-9788384I-15000J0D01*
G01*
X23460019Y-11693385D02*
G75*
G03*
X23460019Y-11693385I-15000J0D01*
G01*
X23460019Y-13598387D02*
G75*
G03*
X23460019Y-13598387I-15000J0D01*
G01*
X24076021Y-6128380D02*
G75*
G03*
X24076021Y-6128380I-15000J0D01*
G01*
X24076021Y-8033382D02*
G75*
G03*
X24076021Y-8033382I-15000J0D01*
G01*
X24076021Y-9938384D02*
G75*
G03*
X24076021Y-9938384I-15000J0D01*
G01*
X24076021Y-11843385D02*
G75*
G03*
X24076021Y-11843385I-15000J0D01*
G01*
X24076021Y-13748387D02*
G75*
G03*
X24076021Y-13748387I-15000J0D01*
G01*
X24078021Y-6226380D02*
G75*
G03*
X24078021Y-6226380I-15000J0D01*
G01*
X24078021Y-8131382D02*
G75*
G03*
X24078021Y-8131382I-15000J0D01*
G01*
X24078021Y-10036384D02*
G75*
G03*
X24078021Y-10036384I-15000J0D01*
G01*
X24078021Y-11941385D02*
G75*
G03*
X24078021Y-11941385I-15000J0D01*
G01*
X24078021Y-13846387D02*
G75*
G03*
X24078021Y-13846387I-15000J0D01*
G01*
X25363021Y-5870380D02*
G75*
G03*
X25363021Y-5870380I-15000J0D01*
G01*
X25363021Y-7775382D02*
G75*
G03*
X25363021Y-7775382I-15000J0D01*
G01*
X25363021Y-9680384D02*
G75*
G03*
X25363021Y-9680384I-15000J0D01*
G01*
X25363021Y-11585385D02*
G75*
G03*
X25363021Y-11585385I-15000J0D01*
G01*
X25363021Y-13490387D02*
G75*
G03*
X25363021Y-13490387I-15000J0D01*
G01*
X25365021Y-5978380D02*
G75*
G03*
X25365021Y-5978380I-15000J0D01*
G01*
X25365021Y-7883382D02*
G75*
G03*
X25365021Y-7883382I-15000J0D01*
G01*
X25365021Y-9788384D02*
G75*
G03*
X25365021Y-9788384I-15000J0D01*
G01*
X25365021Y-11693385D02*
G75*
G03*
X25365021Y-11693385I-15000J0D01*
G01*
X25365021Y-13598387D02*
G75*
G03*
X25365021Y-13598387I-15000J0D01*
G01*
X25981022Y-6128380D02*
G75*
G03*
X25981022Y-6128380I-15000J0D01*
G01*
X25981022Y-8033382D02*
G75*
G03*
X25981022Y-8033382I-15000J0D01*
G01*
X25981022Y-9938384D02*
G75*
G03*
X25981022Y-9938384I-15000J0D01*
G01*
X25981022Y-11843385D02*
G75*
G03*
X25981022Y-11843385I-15000J0D01*
G01*
X25981022Y-13748387D02*
G75*
G03*
X25981022Y-13748387I-15000J0D01*
G01*
X25983022Y-6226380D02*
G75*
G03*
X25983022Y-6226380I-15000J0D01*
G01*
X25983022Y-8131382D02*
G75*
G03*
X25983022Y-8131382I-15000J0D01*
G01*
X25983022Y-10036384D02*
G75*
G03*
X25983022Y-10036384I-15000J0D01*
G01*
X25983022Y-11941385D02*
G75*
G03*
X25983022Y-11941385I-15000J0D01*
G01*
X25983022Y-13846387D02*
G75*
G03*
X25983022Y-13846387I-15000J0D01*
G01*
X27268022Y-5870380D02*
G75*
G03*
X27268022Y-5870380I-15000J0D01*
G01*
X27268022Y-7775382D02*
G75*
G03*
X27268022Y-7775382I-15000J0D01*
G01*
X27268022Y-9680384D02*
G75*
G03*
X27268022Y-9680384I-15000J0D01*
G01*
X27268022Y-11585385D02*
G75*
G03*
X27268022Y-11585385I-15000J0D01*
G01*
X27268022Y-13490387D02*
G75*
G03*
X27268022Y-13490387I-15000J0D01*
G01*
X27270022Y-5978380D02*
G75*
G03*
X27270022Y-5978380I-15000J0D01*
G01*
X27270022Y-7883382D02*
G75*
G03*
X27270022Y-7883382I-15000J0D01*
G01*
X27270022Y-9788384D02*
G75*
G03*
X27270022Y-9788384I-15000J0D01*
G01*
X27270022Y-11693385D02*
G75*
G03*
X27270022Y-11693385I-15000J0D01*
G01*
X27270022Y-13598387D02*
G75*
G03*
X27270022Y-13598387I-15000J0D01*
G01*
X27886024Y-6128380D02*
G75*
G03*
X27886024Y-6128380I-15000J0D01*
G01*
X27886024Y-8033382D02*
G75*
G03*
X27886024Y-8033382I-15000J0D01*
G01*
X27886024Y-9938384D02*
G75*
G03*
X27886024Y-9938384I-15000J0D01*
G01*
X27886024Y-11843385D02*
G75*
G03*
X27886024Y-11843385I-15000J0D01*
G01*
X27886024Y-13748387D02*
G75*
G03*
X27886024Y-13748387I-15000J0D01*
G01*
X27888024Y-6226380D02*
G75*
G03*
X27888024Y-6226380I-15000J0D01*
G01*
X27888024Y-8131382D02*
G75*
G03*
X27888024Y-8131382I-15000J0D01*
G01*
X27888024Y-10036384D02*
G75*
G03*
X27888024Y-10036384I-15000J0D01*
G01*
X27888024Y-11941385D02*
G75*
G03*
X27888024Y-11941385I-15000J0D01*
G01*
X27888024Y-13846387D02*
G75*
G03*
X27888024Y-13846387I-15000J0D01*
G01*
X29173024Y-5870380D02*
G75*
G03*
X29173024Y-5870380I-15000J0D01*
G01*
X29173024Y-7775382D02*
G75*
G03*
X29173024Y-7775382I-15000J0D01*
G01*
X29173024Y-9680384D02*
G75*
G03*
X29173024Y-9680384I-15000J0D01*
G01*
X29173024Y-11585385D02*
G75*
G03*
X29173024Y-11585385I-15000J0D01*
G01*
X29173024Y-13490387D02*
G75*
G03*
X29173024Y-13490387I-15000J0D01*
G01*
X29175024Y-5978380D02*
G75*
G03*
X29175024Y-5978380I-15000J0D01*
G01*
X29175024Y-7883382D02*
G75*
G03*
X29175024Y-7883382I-15000J0D01*
G01*
X29175024Y-9788384D02*
G75*
G03*
X29175024Y-9788384I-15000J0D01*
G01*
X29175024Y-11693385D02*
G75*
G03*
X29175024Y-11693385I-15000J0D01*
G01*
X29175024Y-13598387D02*
G75*
G03*
X29175024Y-13598387I-15000J0D01*
G01*
D13*
X1788160Y-8816660D02*
X1788160Y-8856660D01*
X1768160Y-8836660D02*
X1808160Y-8836660D01*
X1866900Y-7701600D02*
X1866900Y-7741600D01*
X1846900Y-7721600D02*
X1886900Y-7721600D01*
X2143125Y-5647375D02*
X2143125Y-5687375D01*
X2123125Y-5667375D02*
X2163125Y-5667375D01*
X2194560Y-7132640D02*
X2194560Y-7172640D01*
X2174560Y-7152640D02*
X2214560Y-7152640D01*
X2753360Y-6855212D02*
X2753360Y-6895212D01*
X2733360Y-6875212D02*
X2773360Y-6875212D01*
X2865120Y-7742240D02*
X2865120Y-7782240D01*
X2845120Y-7762240D02*
X2885120Y-7762240D01*
X3165466Y-7729376D02*
X3165466Y-7769376D01*
X3145466Y-7749376D02*
X3185466Y-7749376D01*
X4053840Y-6832920D02*
X4053840Y-6872920D01*
X4033840Y-6852920D02*
X4073840Y-6852920D01*
X4762500Y-8314375D02*
X4762500Y-8354375D01*
X4742500Y-8334375D02*
X4782500Y-8334375D01*
X6643687Y-8790625D02*
X6643687Y-8830625D01*
X6623687Y-8810625D02*
X6663687Y-8810625D01*
X6667500Y-10290813D02*
X6667500Y-10330813D01*
X6647500Y-10310813D02*
X6687500Y-10310813D01*
X6905631Y-7600006D02*
X6905631Y-7640006D01*
X6885631Y-7620006D02*
X6925631Y-7620006D01*
X8330000Y-12650000D02*
X8330000Y-12690000D01*
X8310000Y-12670000D02*
X8350000Y-12670000D01*
X8470000Y-13790000D02*
X8470000Y-13830000D01*
X8450000Y-13810000D02*
X8490000Y-13810000D01*
X8480000Y-11880000D02*
X8480000Y-11920000D01*
X8460000Y-11900000D02*
X8500000Y-11900000D01*
X12203916Y-8909695D02*
X12203916Y-8949695D01*
X12183916Y-8929695D02*
X12223916Y-8929695D01*
X13258800Y-10190800D02*
X13258800Y-10230800D01*
X13238800Y-10210800D02*
X13278800Y-10210800D01*
X15835326Y-8076257D02*
X15835326Y-8116257D01*
X15815326Y-8096257D02*
X15855326Y-8096257D01*
X17637760Y-7854000D02*
X17637760Y-7894000D01*
X17617760Y-7874000D02*
X17657760Y-7874000D01*
X18276109Y-14386575D02*
X18276109Y-14426575D01*
X18256109Y-14406575D02*
X18296109Y-14406575D01*
X23650000Y-11020000D02*
X23650000Y-11060000D01*
X23630000Y-11040000D02*
X23670000Y-11040000D01*
X25670000Y-12750000D02*
X25670000Y-12790000D01*
X25650000Y-12770000D02*
X25690000Y-12770000D01*
X2526942Y-5965142D02*
X2526942Y-5936858D01*
X2498658Y-5936858D01*
X2498658Y-5965142D01*
X2526942Y-5965142D01*
X2526942Y-6100142D02*
X2526942Y-6071858D01*
X2498658Y-6071858D01*
X2498658Y-6100142D01*
X2526942Y-6100142D01*
X2611942Y-5965142D02*
X2611942Y-5936858D01*
X2583658Y-5936858D01*
X2583658Y-5965142D01*
X2611942Y-5965142D01*
X2611942Y-6100142D02*
X2611942Y-6071858D01*
X2583658Y-6071858D01*
X2583658Y-6100142D01*
X2611942Y-6100142D01*
X2696942Y-5965142D02*
X2696942Y-5936858D01*
X2668658Y-5936858D01*
X2668658Y-5965142D01*
X2696942Y-5965142D01*
X2696942Y-6100142D02*
X2696942Y-6071858D01*
X2668658Y-6071858D01*
X2668658Y-6100142D01*
X2696942Y-6100142D01*
X2781942Y-5965142D02*
X2781942Y-5936858D01*
X2753658Y-5936858D01*
X2753658Y-5965142D01*
X2781942Y-5965142D01*
X2781942Y-6100142D02*
X2781942Y-6071858D01*
X2753658Y-6071858D01*
X2753658Y-6100142D01*
X2781942Y-6100142D01*
X2866942Y-5965142D02*
X2866942Y-5936858D01*
X2838658Y-5936858D01*
X2838658Y-5965142D01*
X2866942Y-5965142D01*
X2866942Y-6100142D02*
X2866942Y-6071858D01*
X2838658Y-6071858D01*
X2838658Y-6100142D01*
X2866942Y-6100142D01*
X2951942Y-5965142D02*
X2951942Y-5936858D01*
X2923658Y-5936858D01*
X2923658Y-5965142D01*
X2951942Y-5965142D01*
X2951942Y-6100142D02*
X2951942Y-6071858D01*
X2923658Y-6071858D01*
X2923658Y-6100142D01*
X2951942Y-6100142D01*
X3036942Y-5965142D02*
X3036942Y-5936858D01*
X3008658Y-5936858D01*
X3008658Y-5965142D01*
X3036942Y-5965142D01*
X3036942Y-6100142D02*
X3036942Y-6071858D01*
X3008658Y-6071858D01*
X3008658Y-6100142D01*
X3036942Y-6100142D01*
X3121942Y-5965142D02*
X3121942Y-5936858D01*
X3093658Y-5936858D01*
X3093658Y-5965142D01*
X3121942Y-5965142D01*
X3121942Y-6100142D02*
X3121942Y-6071858D01*
X3093658Y-6071858D01*
X3093658Y-6100142D01*
X3121942Y-6100142D01*
D14*
X2420000Y-5717500D02*
X2442500Y-5695000D01*
X2420000Y-5672500D01*
X2397500Y-5695000D01*
X2420000Y-5717500D01*
D11*
X2432500Y-5752500D02*
X2432500Y-5637500D01*
X2407500Y-5752500D02*
X2407500Y-5637500D01*
X2432500Y-5637500D02*
G75*
G03*
X2407500Y-5637500I-12500J0D01*
G01*
X2407500Y-5752500D02*
G75*
G03*
X2432500Y-5752500I12500J0D01*
G01*
D14*
X2420000Y-6187500D02*
X2442500Y-6165000D01*
X2420000Y-6142500D01*
X2397500Y-6165000D01*
X2420000Y-6187500D01*
D11*
X2432500Y-6222500D02*
X2432500Y-6107500D01*
X2407500Y-6222500D02*
X2407500Y-6107500D01*
X2432500Y-6107500D02*
G75*
G03*
X2407500Y-6107500I-12500J0D01*
G01*
X2407500Y-6222500D02*
G75*
G03*
X2432500Y-6222500I12500J0D01*
G01*
D14*
X3200000Y-5717500D02*
X3222500Y-5695000D01*
X3200000Y-5672500D01*
X3177500Y-5695000D01*
X3200000Y-5717500D01*
D11*
X3212500Y-5752500D02*
X3212500Y-5637500D01*
X3187500Y-5752500D02*
X3187500Y-5637500D01*
X3212500Y-5637500D02*
G75*
G03*
X3187500Y-5637500I-12500J0D01*
G01*
X3187500Y-5752500D02*
G75*
G03*
X3212500Y-5752500I12500J0D01*
G01*
D14*
X3200000Y-6187500D02*
X3222500Y-6165000D01*
X3200000Y-6142500D01*
X3177500Y-6165000D01*
X3200000Y-6187500D01*
D11*
X3212500Y-6222500D02*
X3212500Y-6107500D01*
X3187500Y-6222500D02*
X3187500Y-6107500D01*
X3212500Y-6107500D02*
G75*
G03*
X3187500Y-6107500I-12500J0D01*
G01*
X3187500Y-6222500D02*
G75*
G03*
X3212500Y-6222500I12500J0D01*
G01*
D15*
X2347800Y-5641000D02*
X2407800Y-5701000D01*
X2407800Y-5641000D02*
X2347800Y-5701000D01*
X2407800Y-5671000D02*
G75*
G03*
X2407800Y-5671000I-30000J0D01*
G01*
D11*
X2357800Y-5631000D02*
X2357800Y-5711000D01*
X2397800Y-5631000D02*
X2397800Y-5711000D01*
X2357800Y-5711000D02*
G75*
G03*
X2397800Y-5711000I20000J0D01*
G01*
X2397800Y-5631000D02*
G75*
G03*
X2357800Y-5631000I-20000J0D01*
G01*
D15*
X2347800Y-5979000D02*
X2407800Y-6039000D01*
X2407800Y-5979000D02*
X2347800Y-6039000D01*
X2407800Y-6009000D02*
G75*
G03*
X2407800Y-6009000I-30000J0D01*
G01*
D11*
X2357800Y-5934000D02*
X2357800Y-6084000D01*
X2397800Y-5934000D02*
X2397800Y-6084000D01*
X2357800Y-6084000D02*
G75*
G03*
X2397800Y-6084000I20000J0D01*
G01*
X2397800Y-5934000D02*
G75*
G03*
X2357800Y-5934000I-20000J0D01*
G01*
D15*
X3212800Y-5641000D02*
X3272800Y-5701000D01*
X3272800Y-5641000D02*
X3212800Y-5701000D01*
X3272800Y-5671000D02*
G75*
G03*
X3272800Y-5671000I-30000J0D01*
G01*
D11*
X3222800Y-5631000D02*
X3222800Y-5711000D01*
X3262800Y-5631000D02*
X3262800Y-5711000D01*
X3222800Y-5711000D02*
G75*
G03*
X3262800Y-5711000I20000J0D01*
G01*
X3262800Y-5631000D02*
G75*
G03*
X3222800Y-5631000I-20000J0D01*
G01*
D15*
X3212800Y-5979000D02*
X3272800Y-6039000D01*
X3272800Y-5979000D02*
X3212800Y-6039000D01*
X3272800Y-6009000D02*
G75*
G03*
X3272800Y-6009000I-30000J0D01*
G01*
D11*
X3222800Y-5934000D02*
X3222800Y-6084000D01*
X3262800Y-5934000D02*
X3262800Y-6084000D01*
X3222800Y-6084000D02*
G75*
G03*
X3262800Y-6084000I20000J0D01*
G01*
X3262800Y-5934000D02*
G75*
G03*
X3222800Y-5934000I-20000J0D01*
G01*
D15*
X14524231Y-12769229D02*
X14584231Y-12829229D01*
X14584231Y-12769229D02*
X14524231Y-12829229D01*
X14584231Y-12799229D02*
G75*
G03*
X14584231Y-12799229I-30000J0D01*
G01*
X14674231Y-12769229D02*
X14734231Y-12829229D01*
X14734231Y-12769229D02*
X14674231Y-12829229D01*
X14734231Y-12799229D02*
G75*
G03*
X14734231Y-12799229I-30000J0D01*
G01*
D16*
X1512814Y-7346881D02*
X1582814Y-7416881D01*
X1582814Y-7346881D02*
X1512814Y-7416881D01*
X1547814Y-7346881D02*
X1547814Y-7416881D01*
X1512814Y-7381881D02*
X1582814Y-7381881D01*
X2274814Y-7346881D02*
X2344814Y-7416881D01*
X2344814Y-7346881D02*
X2274814Y-7416881D01*
X2309814Y-7346881D02*
X2309814Y-7416881D01*
X2274814Y-7381881D02*
X2344814Y-7381881D01*
X2615000Y-6326000D02*
X2685000Y-6396000D01*
X2685000Y-6326000D02*
X2615000Y-6396000D01*
X2650000Y-6326000D02*
X2650000Y-6396000D01*
X2615000Y-6361000D02*
X2685000Y-6361000D01*
X2695000Y-6151000D02*
X2765000Y-6221000D01*
X2765000Y-6151000D02*
X2695000Y-6221000D01*
X2730000Y-6151000D02*
X2730000Y-6221000D01*
X2695000Y-6186000D02*
X2765000Y-6186000D01*
X2775000Y-6326000D02*
X2845000Y-6396000D01*
X2845000Y-6326000D02*
X2775000Y-6396000D01*
X2810000Y-6326000D02*
X2810000Y-6396000D01*
X2775000Y-6361000D02*
X2845000Y-6361000D01*
X2855000Y-6151000D02*
X2925000Y-6221000D01*
X2925000Y-6151000D02*
X2855000Y-6221000D01*
X2890000Y-6151000D02*
X2890000Y-6221000D01*
X2855000Y-6186000D02*
X2925000Y-6186000D01*
X2935000Y-6326000D02*
X3005000Y-6396000D01*
X3005000Y-6326000D02*
X2935000Y-6396000D01*
X2970000Y-6326000D02*
X2970000Y-6396000D01*
X2935000Y-6361000D02*
X3005000Y-6361000D01*
X3370191Y-7346881D02*
X3440191Y-7416881D01*
X3440191Y-7346881D02*
X3370191Y-7416881D01*
X3405191Y-7346881D02*
X3405191Y-7416881D01*
X3370191Y-7381881D02*
X3440191Y-7381881D01*
X4132191Y-7346881D02*
X4202191Y-7416881D01*
X4202191Y-7346881D02*
X4132191Y-7416881D01*
X4167191Y-7346881D02*
X4167191Y-7416881D01*
X4132191Y-7381881D02*
X4202191Y-7381881D01*
X14204888Y-5799067D02*
X14274888Y-5869067D01*
X14274888Y-5799067D02*
X14204888Y-5869067D01*
X14239888Y-5799067D02*
X14239888Y-5869067D01*
X14204888Y-5834067D02*
X14274888Y-5834067D01*
X14966888Y-5799067D02*
X15036888Y-5869067D01*
X15036888Y-5799067D02*
X14966888Y-5869067D01*
X15001888Y-5799067D02*
X15001888Y-5869067D01*
X14966888Y-5834067D02*
X15036888Y-5834067D01*
X15443138Y-5799067D02*
X15513138Y-5869067D01*
X15513138Y-5799067D02*
X15443138Y-5869067D01*
X15478138Y-5799067D02*
X15478138Y-5869067D01*
X15443138Y-5834067D02*
X15513138Y-5834067D01*
X15443138Y-10621103D02*
X15513138Y-10691103D01*
X15513138Y-10621103D02*
X15443138Y-10691103D01*
X15478138Y-10621103D02*
X15478138Y-10691103D01*
X15443138Y-10656103D02*
X15513138Y-10656103D01*
X15443138Y-10859228D02*
X15513138Y-10929228D01*
X15513138Y-10859228D02*
X15443138Y-10929228D01*
X15478138Y-10859228D02*
X15478138Y-10929228D01*
X15443138Y-10894228D02*
X15513138Y-10894228D01*
X15443138Y-11097353D02*
X15513138Y-11167353D01*
X15513138Y-11097353D02*
X15443138Y-11167353D01*
X15478138Y-11097353D02*
X15478138Y-11167353D01*
X15443138Y-11132353D02*
X15513138Y-11132353D01*
X15443138Y-11335478D02*
X15513138Y-11405478D01*
X15513138Y-11335478D02*
X15443138Y-11405478D01*
X15478138Y-11335478D02*
X15478138Y-11405478D01*
X15443138Y-11370478D02*
X15513138Y-11370478D01*
X16205138Y-5799067D02*
X16275138Y-5869067D01*
X16275138Y-5799067D02*
X16205138Y-5869067D01*
X16240138Y-5799067D02*
X16240138Y-5869067D01*
X16205138Y-5834067D02*
X16275138Y-5834067D01*
X16205138Y-10621103D02*
X16275138Y-10691103D01*
X16275138Y-10621103D02*
X16205138Y-10691103D01*
X16240138Y-10621103D02*
X16240138Y-10691103D01*
X16205138Y-10656103D02*
X16275138Y-10656103D01*
X16205138Y-10859228D02*
X16275138Y-10929228D01*
X16275138Y-10859228D02*
X16205138Y-10929228D01*
X16240138Y-10859228D02*
X16240138Y-10929228D01*
X16205138Y-10894228D02*
X16275138Y-10894228D01*
X16205138Y-11097353D02*
X16275138Y-11167353D01*
X16275138Y-11097353D02*
X16205138Y-11167353D01*
X16240138Y-11097353D02*
X16240138Y-11167353D01*
X16205138Y-11132353D02*
X16275138Y-11132353D01*
X16205138Y-11335478D02*
X16275138Y-11405478D01*
X16275138Y-11335478D02*
X16205138Y-11405478D01*
X16240138Y-11335478D02*
X16240138Y-11405478D01*
X16205138Y-11370478D02*
X16275138Y-11370478D01*
D17*
X14013887Y-11319103D02*
X14084887Y-11390103D01*
X14084887Y-11319103D02*
X14013887Y-11390103D01*
X14074489Y-11379706D02*
X14074489Y-11329501D01*
X14024284Y-11329501D01*
X14024284Y-11379706D01*
X14074489Y-11379706D01*
X14013887Y-11827103D02*
X14084887Y-11898103D01*
X14084887Y-11827103D02*
X14013887Y-11898103D01*
X14074489Y-11887706D02*
X14074489Y-11837501D01*
X14024284Y-11837501D01*
X14024284Y-11887706D01*
X14074489Y-11887706D01*
D18*
X6630670Y-7120670D02*
X6704330Y-7194330D01*
X6704330Y-7120670D02*
X6630670Y-7194330D01*
X6667500Y-7194330D02*
X6704330Y-7157500D01*
X6667500Y-7120670D01*
X6630670Y-7157500D01*
X6667500Y-7194330D01*
X6630670Y-7270670D02*
X6704330Y-7344330D01*
X6704330Y-7270670D02*
X6630670Y-7344330D01*
X6667500Y-7344330D02*
X6704330Y-7307500D01*
X6667500Y-7270670D01*
X6630670Y-7307500D01*
X6667500Y-7344330D01*
X6630670Y-7420670D02*
X6704330Y-7494330D01*
X6704330Y-7420670D02*
X6630670Y-7494330D01*
X6667500Y-7494330D02*
X6704330Y-7457500D01*
X6667500Y-7420670D01*
X6630670Y-7457500D01*
X6667500Y-7494330D01*
X6630670Y-7570670D02*
X6704330Y-7644330D01*
X6704330Y-7570670D02*
X6630670Y-7644330D01*
X6667500Y-7644330D02*
X6704330Y-7607500D01*
X6667500Y-7570670D01*
X6630670Y-7607500D01*
X6667500Y-7644330D01*
D19*
X12632542Y-6746568D02*
X12632542Y-6826568D01*
X12592542Y-6786568D02*
X12672542Y-6786568D01*
X12672542Y-6786568D02*
G75*
G03*
X12672542Y-6786568I-40000J0D01*
G01*
X12632542Y-7341881D02*
X12632542Y-7421881D01*
X12592542Y-7381881D02*
X12672542Y-7381881D01*
X12672542Y-7381881D02*
G75*
G03*
X12672542Y-7381881I-40000J0D01*
G01*
X12632542Y-7937194D02*
X12632542Y-8017194D01*
X12592542Y-7977194D02*
X12672542Y-7977194D01*
X12672542Y-7977194D02*
G75*
G03*
X12672542Y-7977194I-40000J0D01*
G01*
X12632542Y-8532507D02*
X12632542Y-8612507D01*
X12592542Y-8572507D02*
X12672542Y-8572507D01*
X12672542Y-8572507D02*
G75*
G03*
X12672542Y-8572507I-40000J0D01*
G01*
X12632542Y-9127820D02*
X12632542Y-9207820D01*
X12592542Y-9167820D02*
X12672542Y-9167820D01*
X12672542Y-9167820D02*
G75*
G03*
X12672542Y-9167820I-40000J0D01*
G01*
X12632542Y-9723133D02*
X12632542Y-9803133D01*
X12592542Y-9763133D02*
X12672542Y-9763133D01*
X12672542Y-9763133D02*
G75*
G03*
X12672542Y-9763133I-40000J0D01*
G01*
X12632542Y-10020790D02*
X12632542Y-10100790D01*
X12592542Y-10060790D02*
X12672542Y-10060790D01*
X12672542Y-10060790D02*
G75*
G03*
X12672542Y-10060790I-40000J0D01*
G01*
X12632542Y-10318446D02*
X12632542Y-10398446D01*
X12592542Y-10358446D02*
X12672542Y-10358446D01*
X12672542Y-10358446D02*
G75*
G03*
X12672542Y-10358446I-40000J0D01*
G01*
X12632542Y-10913759D02*
X12632542Y-10993759D01*
X12592542Y-10953759D02*
X12672542Y-10953759D01*
X12672542Y-10953759D02*
G75*
G03*
X12672542Y-10953759I-40000J0D01*
G01*
X12632542Y-11509072D02*
X12632542Y-11589072D01*
X12592542Y-11549072D02*
X12672542Y-11549072D01*
X12672542Y-11549072D02*
G75*
G03*
X12672542Y-11549072I-40000J0D01*
G01*
X12632542Y-12104385D02*
X12632542Y-12184385D01*
X12592542Y-12144385D02*
X12672542Y-12144385D01*
X12672542Y-12144385D02*
G75*
G03*
X12672542Y-12144385I-40000J0D01*
G01*
X12632542Y-12699698D02*
X12632542Y-12779698D01*
X12592542Y-12739698D02*
X12672542Y-12739698D01*
X12672542Y-12739698D02*
G75*
G03*
X12672542Y-12739698I-40000J0D01*
G01*
X12632542Y-13295011D02*
X12632542Y-13375011D01*
X12592542Y-13335011D02*
X12672542Y-13335011D01*
X12672542Y-13335011D02*
G75*
G03*
X12672542Y-13335011I-40000J0D01*
G01*
X12870668Y-6448912D02*
X12870668Y-6528912D01*
X12830668Y-6488912D02*
X12910668Y-6488912D01*
X12910668Y-6488912D02*
G75*
G03*
X12910668Y-6488912I-40000J0D01*
G01*
X12870668Y-7044225D02*
X12870668Y-7124225D01*
X12830668Y-7084225D02*
X12910668Y-7084225D01*
X12910668Y-7084225D02*
G75*
G03*
X12910668Y-7084225I-40000J0D01*
G01*
X12870668Y-7639538D02*
X12870668Y-7719538D01*
X12830668Y-7679538D02*
X12910668Y-7679538D01*
X12910668Y-7679538D02*
G75*
G03*
X12910668Y-7679538I-40000J0D01*
G01*
X12870668Y-8234851D02*
X12870668Y-8314851D01*
X12830668Y-8274851D02*
X12910668Y-8274851D01*
X12910668Y-8274851D02*
G75*
G03*
X12910668Y-8274851I-40000J0D01*
G01*
X12870668Y-8830164D02*
X12870668Y-8910164D01*
X12830668Y-8870164D02*
X12910668Y-8870164D01*
X12910668Y-8870164D02*
G75*
G03*
X12910668Y-8870164I-40000J0D01*
G01*
X12870668Y-9425477D02*
X12870668Y-9505477D01*
X12830668Y-9465477D02*
X12910668Y-9465477D01*
X12910668Y-9465477D02*
G75*
G03*
X12910668Y-9465477I-40000J0D01*
G01*
X12870668Y-10616103D02*
X12870668Y-10696103D01*
X12830668Y-10656103D02*
X12910668Y-10656103D01*
X12910668Y-10656103D02*
G75*
G03*
X12910668Y-10656103I-40000J0D01*
G01*
X12870668Y-11211416D02*
X12870668Y-11291416D01*
X12830668Y-11251416D02*
X12910668Y-11251416D01*
X12910668Y-11251416D02*
G75*
G03*
X12910668Y-11251416I-40000J0D01*
G01*
X12870668Y-11806729D02*
X12870668Y-11886729D01*
X12830668Y-11846729D02*
X12910668Y-11846729D01*
X12910668Y-11846729D02*
G75*
G03*
X12910668Y-11846729I-40000J0D01*
G01*
X12870668Y-12402042D02*
X12870668Y-12482042D01*
X12830668Y-12442042D02*
X12910668Y-12442042D01*
X12910668Y-12442042D02*
G75*
G03*
X12910668Y-12442042I-40000J0D01*
G01*
X12870668Y-12997355D02*
X12870668Y-13077355D01*
X12830668Y-13037355D02*
X12910668Y-13037355D01*
X12910668Y-13037355D02*
G75*
G03*
X12910668Y-13037355I-40000J0D01*
G01*
X13394542Y-6746568D02*
X13394542Y-6826568D01*
X13354542Y-6786568D02*
X13434542Y-6786568D01*
X13434542Y-6786568D02*
G75*
G03*
X13434542Y-6786568I-40000J0D01*
G01*
X13394542Y-7341881D02*
X13394542Y-7421881D01*
X13354542Y-7381881D02*
X13434542Y-7381881D01*
X13434542Y-7381881D02*
G75*
G03*
X13434542Y-7381881I-40000J0D01*
G01*
X13394542Y-7937194D02*
X13394542Y-8017194D01*
X13354542Y-7977194D02*
X13434542Y-7977194D01*
X13434542Y-7977194D02*
G75*
G03*
X13434542Y-7977194I-40000J0D01*
G01*
X13394542Y-8532507D02*
X13394542Y-8612507D01*
X13354542Y-8572507D02*
X13434542Y-8572507D01*
X13434542Y-8572507D02*
G75*
G03*
X13434542Y-8572507I-40000J0D01*
G01*
X13394542Y-9127820D02*
X13394542Y-9207820D01*
X13354542Y-9167820D02*
X13434542Y-9167820D01*
X13434542Y-9167820D02*
G75*
G03*
X13434542Y-9167820I-40000J0D01*
G01*
X13394542Y-9723133D02*
X13394542Y-9803133D01*
X13354542Y-9763133D02*
X13434542Y-9763133D01*
X13434542Y-9763133D02*
G75*
G03*
X13434542Y-9763133I-40000J0D01*
G01*
X13394542Y-10020790D02*
X13394542Y-10100790D01*
X13354542Y-10060790D02*
X13434542Y-10060790D01*
X13434542Y-10060790D02*
G75*
G03*
X13434542Y-10060790I-40000J0D01*
G01*
X13394542Y-10318446D02*
X13394542Y-10398446D01*
X13354542Y-10358446D02*
X13434542Y-10358446D01*
X13434542Y-10358446D02*
G75*
G03*
X13434542Y-10358446I-40000J0D01*
G01*
X13394542Y-10913759D02*
X13394542Y-10993759D01*
X13354542Y-10953759D02*
X13434542Y-10953759D01*
X13434542Y-10953759D02*
G75*
G03*
X13434542Y-10953759I-40000J0D01*
G01*
X13394542Y-11509072D02*
X13394542Y-11589072D01*
X13354542Y-11549072D02*
X13434542Y-11549072D01*
X13434542Y-11549072D02*
G75*
G03*
X13434542Y-11549072I-40000J0D01*
G01*
X13394542Y-12104385D02*
X13394542Y-12184385D01*
X13354542Y-12144385D02*
X13434542Y-12144385D01*
X13434542Y-12144385D02*
G75*
G03*
X13434542Y-12144385I-40000J0D01*
G01*
X13394542Y-12699698D02*
X13394542Y-12779698D01*
X13354542Y-12739698D02*
X13434542Y-12739698D01*
X13434542Y-12739698D02*
G75*
G03*
X13434542Y-12739698I-40000J0D01*
G01*
X13394542Y-13295011D02*
X13394542Y-13375011D01*
X13354542Y-13335011D02*
X13434542Y-13335011D01*
X13434542Y-13335011D02*
G75*
G03*
X13434542Y-13335011I-40000J0D01*
G01*
X13573136Y-13652199D02*
X13573136Y-13732199D01*
X13533136Y-13692199D02*
X13613136Y-13692199D01*
X13613136Y-13692199D02*
G75*
G03*
X13613136Y-13692199I-40000J0D01*
G01*
X13573136Y-14414199D02*
X13573136Y-14494199D01*
X13533136Y-14454199D02*
X13613136Y-14454199D01*
X13613136Y-14454199D02*
G75*
G03*
X13613136Y-14454199I-40000J0D01*
G01*
X13632668Y-6448912D02*
X13632668Y-6528912D01*
X13592668Y-6488912D02*
X13672668Y-6488912D01*
X13672668Y-6488912D02*
G75*
G03*
X13672668Y-6488912I-40000J0D01*
G01*
X13632668Y-7044225D02*
X13632668Y-7124225D01*
X13592668Y-7084225D02*
X13672668Y-7084225D01*
X13672668Y-7084225D02*
G75*
G03*
X13672668Y-7084225I-40000J0D01*
G01*
X13632668Y-7639538D02*
X13632668Y-7719538D01*
X13592668Y-7679538D02*
X13672668Y-7679538D01*
X13672668Y-7679538D02*
G75*
G03*
X13672668Y-7679538I-40000J0D01*
G01*
X13632668Y-8234851D02*
X13632668Y-8314851D01*
X13592668Y-8274851D02*
X13672668Y-8274851D01*
X13672668Y-8274851D02*
G75*
G03*
X13672668Y-8274851I-40000J0D01*
G01*
X13632668Y-8830164D02*
X13632668Y-8910164D01*
X13592668Y-8870164D02*
X13672668Y-8870164D01*
X13672668Y-8870164D02*
G75*
G03*
X13672668Y-8870164I-40000J0D01*
G01*
X13632668Y-9425477D02*
X13632668Y-9505477D01*
X13592668Y-9465477D02*
X13672668Y-9465477D01*
X13672668Y-9465477D02*
G75*
G03*
X13672668Y-9465477I-40000J0D01*
G01*
X13632668Y-10616103D02*
X13632668Y-10696103D01*
X13592668Y-10656103D02*
X13672668Y-10656103D01*
X13672668Y-10656103D02*
G75*
G03*
X13672668Y-10656103I-40000J0D01*
G01*
X13632668Y-11211416D02*
X13632668Y-11291416D01*
X13592668Y-11251416D02*
X13672668Y-11251416D01*
X13672668Y-11251416D02*
G75*
G03*
X13672668Y-11251416I-40000J0D01*
G01*
X13632668Y-11806729D02*
X13632668Y-11886729D01*
X13592668Y-11846729D02*
X13672668Y-11846729D01*
X13672668Y-11846729D02*
G75*
G03*
X13672668Y-11846729I-40000J0D01*
G01*
X13632668Y-12402042D02*
X13632668Y-12482042D01*
X13592668Y-12442042D02*
X13672668Y-12442042D01*
X13672668Y-12442042D02*
G75*
G03*
X13672668Y-12442042I-40000J0D01*
G01*
X13632668Y-12997355D02*
X13632668Y-13077355D01*
X13592668Y-13037355D02*
X13672668Y-13037355D01*
X13672668Y-13037355D02*
G75*
G03*
X13672668Y-13037355I-40000J0D01*
G01*
X13870793Y-13414074D02*
X13870793Y-13494074D01*
X13830793Y-13454074D02*
X13910793Y-13454074D01*
X13910793Y-13454074D02*
G75*
G03*
X13910793Y-13454074I-40000J0D01*
G01*
X13870793Y-14176074D02*
X13870793Y-14256074D01*
X13830793Y-14216074D02*
X13910793Y-14216074D01*
X13910793Y-14216074D02*
G75*
G03*
X13910793Y-14216074I-40000J0D01*
G01*
X14168449Y-13652199D02*
X14168449Y-13732199D01*
X14128449Y-13692199D02*
X14208449Y-13692199D01*
X14208449Y-13692199D02*
G75*
G03*
X14208449Y-13692199I-40000J0D01*
G01*
X14168449Y-14414199D02*
X14168449Y-14494199D01*
X14128449Y-14454199D02*
X14208449Y-14454199D01*
X14208449Y-14454199D02*
G75*
G03*
X14208449Y-14454199I-40000J0D01*
G01*
X14406575Y-8830164D02*
X14406575Y-8910164D01*
X14366575Y-8870164D02*
X14446575Y-8870164D01*
X14446575Y-8870164D02*
G75*
G03*
X14446575Y-8870164I-40000J0D01*
G01*
X14406575Y-9080164D02*
X14406575Y-9160164D01*
X14366575Y-9120164D02*
X14446575Y-9120164D01*
X14446575Y-9120164D02*
G75*
G03*
X14446575Y-9120164I-40000J0D01*
G01*
X14406575Y-9365945D02*
X14406575Y-9445945D01*
X14366575Y-9405945D02*
X14446575Y-9405945D01*
X14446575Y-9405945D02*
G75*
G03*
X14446575Y-9405945I-40000J0D01*
G01*
X14406575Y-9615945D02*
X14406575Y-9695945D01*
X14366575Y-9655945D02*
X14446575Y-9655945D01*
X14446575Y-9655945D02*
G75*
G03*
X14446575Y-9655945I-40000J0D01*
G01*
X14466106Y-13414074D02*
X14466106Y-13494074D01*
X14426106Y-13454074D02*
X14506106Y-13454074D01*
X14506106Y-13454074D02*
G75*
G03*
X14506106Y-13454074I-40000J0D01*
G01*
X14466106Y-14176074D02*
X14466106Y-14256074D01*
X14426106Y-14216074D02*
X14506106Y-14216074D01*
X14506106Y-14216074D02*
G75*
G03*
X14506106Y-14216074I-40000J0D01*
G01*
X14763762Y-13652199D02*
X14763762Y-13732199D01*
X14723762Y-13692199D02*
X14803762Y-13692199D01*
X14803762Y-13692199D02*
G75*
G03*
X14803762Y-13692199I-40000J0D01*
G01*
X14763762Y-14414199D02*
X14763762Y-14494199D01*
X14723762Y-14454199D02*
X14803762Y-14454199D01*
X14803762Y-14454199D02*
G75*
G03*
X14803762Y-14454199I-40000J0D01*
G01*
X14882825Y-8949226D02*
X14882825Y-9029226D01*
X14842825Y-8989226D02*
X14922825Y-8989226D01*
X14922825Y-8989226D02*
G75*
G03*
X14922825Y-8989226I-40000J0D01*
G01*
X14882825Y-9437226D02*
X14882825Y-9517226D01*
X14842825Y-9477226D02*
X14922825Y-9477226D01*
X14922825Y-9477226D02*
G75*
G03*
X14922825Y-9477226I-40000J0D01*
G01*
X15061419Y-13414074D02*
X15061419Y-13494074D01*
X15021419Y-13454074D02*
X15101419Y-13454074D01*
X15101419Y-13454074D02*
G75*
G03*
X15101419Y-13454074I-40000J0D01*
G01*
X15061419Y-14176074D02*
X15061419Y-14256074D01*
X15021419Y-14216074D02*
X15101419Y-14216074D01*
X15101419Y-14216074D02*
G75*
G03*
X15101419Y-14216074I-40000J0D01*
G01*
X15418607Y-13414074D02*
X15418607Y-13494074D01*
X15378607Y-13454074D02*
X15458607Y-13454074D01*
X15458607Y-13454074D02*
G75*
G03*
X15458607Y-13454074I-40000J0D01*
G01*
X15418607Y-14176074D02*
X15418607Y-14256074D01*
X15378607Y-14216074D02*
X15458607Y-14216074D01*
X15458607Y-14216074D02*
G75*
G03*
X15458607Y-14216074I-40000J0D01*
G01*
X15478138Y-6865631D02*
X15478138Y-6945631D01*
X15438138Y-6905631D02*
X15518138Y-6905631D01*
X15518138Y-6905631D02*
G75*
G03*
X15518138Y-6905631I-40000J0D01*
G01*
X15478138Y-7119631D02*
X15478138Y-7199631D01*
X15438138Y-7159631D02*
X15518138Y-7159631D01*
X15518138Y-7159631D02*
G75*
G03*
X15518138Y-7159631I-40000J0D01*
G01*
X15478138Y-7373631D02*
X15478138Y-7453631D01*
X15438138Y-7413631D02*
X15518138Y-7413631D01*
X15518138Y-7413631D02*
G75*
G03*
X15518138Y-7413631I-40000J0D01*
G01*
X15478138Y-7627631D02*
X15478138Y-7707631D01*
X15438138Y-7667631D02*
X15518138Y-7667631D01*
X15518138Y-7667631D02*
G75*
G03*
X15518138Y-7667631I-40000J0D01*
G01*
X15478138Y-7881631D02*
X15478138Y-7961631D01*
X15438138Y-7921631D02*
X15518138Y-7921631D01*
X15518138Y-7921631D02*
G75*
G03*
X15518138Y-7921631I-40000J0D01*
G01*
X15478138Y-8135631D02*
X15478138Y-8215631D01*
X15438138Y-8175631D02*
X15518138Y-8175631D01*
X15518138Y-8175631D02*
G75*
G03*
X15518138Y-8175631I-40000J0D01*
G01*
X15478138Y-8389631D02*
X15478138Y-8469631D01*
X15438138Y-8429631D02*
X15518138Y-8429631D01*
X15518138Y-8429631D02*
G75*
G03*
X15518138Y-8429631I-40000J0D01*
G01*
X15478138Y-8643631D02*
X15478138Y-8723631D01*
X15438138Y-8683631D02*
X15518138Y-8683631D01*
X15518138Y-8683631D02*
G75*
G03*
X15518138Y-8683631I-40000J0D01*
G01*
X15478138Y-8897631D02*
X15478138Y-8977631D01*
X15438138Y-8937631D02*
X15518138Y-8937631D01*
X15518138Y-8937631D02*
G75*
G03*
X15518138Y-8937631I-40000J0D01*
G01*
X15478138Y-9151631D02*
X15478138Y-9231631D01*
X15438138Y-9191631D02*
X15518138Y-9191631D01*
X15518138Y-9191631D02*
G75*
G03*
X15518138Y-9191631I-40000J0D01*
G01*
X15478138Y-9405631D02*
X15478138Y-9485631D01*
X15438138Y-9445631D02*
X15518138Y-9445631D01*
X15518138Y-9445631D02*
G75*
G03*
X15518138Y-9445631I-40000J0D01*
G01*
X15478138Y-9659631D02*
X15478138Y-9739631D01*
X15438138Y-9699631D02*
X15518138Y-9699631D01*
X15518138Y-9699631D02*
G75*
G03*
X15518138Y-9699631I-40000J0D01*
G01*
X15478138Y-9913631D02*
X15478138Y-9993631D01*
X15438138Y-9953631D02*
X15518138Y-9953631D01*
X15518138Y-9953631D02*
G75*
G03*
X15518138Y-9953631I-40000J0D01*
G01*
X15478138Y-10167631D02*
X15478138Y-10247631D01*
X15438138Y-10207631D02*
X15518138Y-10207631D01*
X15518138Y-10207631D02*
G75*
G03*
X15518138Y-10207631I-40000J0D01*
G01*
X15490045Y-11806729D02*
X15490045Y-11886729D01*
X15450045Y-11846729D02*
X15530045Y-11846729D01*
X15530045Y-11846729D02*
G75*
G03*
X15530045Y-11846729I-40000J0D01*
G01*
X15490045Y-12104385D02*
X15490045Y-12184385D01*
X15450045Y-12144385D02*
X15530045Y-12144385D01*
X15530045Y-12144385D02*
G75*
G03*
X15530045Y-12144385I-40000J0D01*
G01*
X15573451Y-12640167D02*
X15573451Y-12720167D01*
X15533451Y-12680167D02*
X15613451Y-12680167D01*
X15613451Y-12680167D02*
G75*
G03*
X15613451Y-12680167I-40000J0D01*
G01*
X15573451Y-12937823D02*
X15573451Y-13017823D01*
X15533451Y-12977823D02*
X15613451Y-12977823D01*
X15613451Y-12977823D02*
G75*
G03*
X15613451Y-12977823I-40000J0D01*
G01*
X15716263Y-13652199D02*
X15716263Y-13732199D01*
X15676263Y-13692199D02*
X15756263Y-13692199D01*
X15756263Y-13692199D02*
G75*
G03*
X15756263Y-13692199I-40000J0D01*
G01*
X15716263Y-14414199D02*
X15716263Y-14494199D01*
X15676263Y-14454199D02*
X15756263Y-14454199D01*
X15756263Y-14454199D02*
G75*
G03*
X15756263Y-14454199I-40000J0D01*
G01*
X16013920Y-13414074D02*
X16013920Y-13494074D01*
X15973920Y-13454074D02*
X16053920Y-13454074D01*
X16053920Y-13454074D02*
G75*
G03*
X16053920Y-13454074I-40000J0D01*
G01*
X16013920Y-14176074D02*
X16013920Y-14256074D01*
X15973920Y-14216074D02*
X16053920Y-14216074D01*
X16053920Y-14216074D02*
G75*
G03*
X16053920Y-14216074I-40000J0D01*
G01*
X16073451Y-12640167D02*
X16073451Y-12720167D01*
X16033451Y-12680167D02*
X16113451Y-12680167D01*
X16113451Y-12680167D02*
G75*
G03*
X16113451Y-12680167I-40000J0D01*
G01*
X16073451Y-12937823D02*
X16073451Y-13017823D01*
X16033451Y-12977823D02*
X16113451Y-12977823D01*
X16113451Y-12977823D02*
G75*
G03*
X16113451Y-12977823I-40000J0D01*
G01*
X16240138Y-6865631D02*
X16240138Y-6945631D01*
X16200138Y-6905631D02*
X16280138Y-6905631D01*
X16280138Y-6905631D02*
G75*
G03*
X16280138Y-6905631I-40000J0D01*
G01*
X16240138Y-7119631D02*
X16240138Y-7199631D01*
X16200138Y-7159631D02*
X16280138Y-7159631D01*
X16280138Y-7159631D02*
G75*
G03*
X16280138Y-7159631I-40000J0D01*
G01*
X16240138Y-7373631D02*
X16240138Y-7453631D01*
X16200138Y-7413631D02*
X16280138Y-7413631D01*
X16280138Y-7413631D02*
G75*
G03*
X16280138Y-7413631I-40000J0D01*
G01*
X16240138Y-7627631D02*
X16240138Y-7707631D01*
X16200138Y-7667631D02*
X16280138Y-7667631D01*
X16280138Y-7667631D02*
G75*
G03*
X16280138Y-7667631I-40000J0D01*
G01*
X16240138Y-7881631D02*
X16240138Y-7961631D01*
X16200138Y-7921631D02*
X16280138Y-7921631D01*
X16280138Y-7921631D02*
G75*
G03*
X16280138Y-7921631I-40000J0D01*
G01*
X16240138Y-8135631D02*
X16240138Y-8215631D01*
X16200138Y-8175631D02*
X16280138Y-8175631D01*
X16280138Y-8175631D02*
G75*
G03*
X16280138Y-8175631I-40000J0D01*
G01*
X16240138Y-8389631D02*
X16240138Y-8469631D01*
X16200138Y-8429631D02*
X16280138Y-8429631D01*
X16280138Y-8429631D02*
G75*
G03*
X16280138Y-8429631I-40000J0D01*
G01*
X16240138Y-8643631D02*
X16240138Y-8723631D01*
X16200138Y-8683631D02*
X16280138Y-8683631D01*
X16280138Y-8683631D02*
G75*
G03*
X16280138Y-8683631I-40000J0D01*
G01*
X16240138Y-8897631D02*
X16240138Y-8977631D01*
X16200138Y-8937631D02*
X16280138Y-8937631D01*
X16280138Y-8937631D02*
G75*
G03*
X16280138Y-8937631I-40000J0D01*
G01*
X16240138Y-9151631D02*
X16240138Y-9231631D01*
X16200138Y-9191631D02*
X16280138Y-9191631D01*
X16280138Y-9191631D02*
G75*
G03*
X16280138Y-9191631I-40000J0D01*
G01*
X16240138Y-9405631D02*
X16240138Y-9485631D01*
X16200138Y-9445631D02*
X16280138Y-9445631D01*
X16280138Y-9445631D02*
G75*
G03*
X16280138Y-9445631I-40000J0D01*
G01*
X16240138Y-9659631D02*
X16240138Y-9739631D01*
X16200138Y-9699631D02*
X16280138Y-9699631D01*
X16280138Y-9699631D02*
G75*
G03*
X16280138Y-9699631I-40000J0D01*
G01*
X16240138Y-9913631D02*
X16240138Y-9993631D01*
X16200138Y-9953631D02*
X16280138Y-9953631D01*
X16280138Y-9953631D02*
G75*
G03*
X16280138Y-9953631I-40000J0D01*
G01*
X16240138Y-10167631D02*
X16240138Y-10247631D01*
X16200138Y-10207631D02*
X16280138Y-10207631D01*
X16280138Y-10207631D02*
G75*
G03*
X16280138Y-10207631I-40000J0D01*
G01*
X16252045Y-11806729D02*
X16252045Y-11886729D01*
X16212045Y-11846729D02*
X16292045Y-11846729D01*
X16292045Y-11846729D02*
G75*
G03*
X16292045Y-11846729I-40000J0D01*
G01*
X16252045Y-12104385D02*
X16252045Y-12184385D01*
X16212045Y-12144385D02*
X16292045Y-12144385D01*
X16292045Y-12144385D02*
G75*
G03*
X16292045Y-12144385I-40000J0D01*
G01*
X16311576Y-13652199D02*
X16311576Y-13732199D01*
X16271576Y-13692199D02*
X16351576Y-13692199D01*
X16351576Y-13692199D02*
G75*
G03*
X16351576Y-13692199I-40000J0D01*
G01*
X16311576Y-14414199D02*
X16311576Y-14494199D01*
X16271576Y-14454199D02*
X16351576Y-14454199D01*
X16351576Y-14454199D02*
G75*
G03*
X16351576Y-14454199I-40000J0D01*
G01*
X16609233Y-13414074D02*
X16609233Y-13494074D01*
X16569233Y-13454074D02*
X16649233Y-13454074D01*
X16649233Y-13454074D02*
G75*
G03*
X16649233Y-13454074I-40000J0D01*
G01*
X16609233Y-14176074D02*
X16609233Y-14256074D01*
X16569233Y-14216074D02*
X16649233Y-14216074D01*
X16649233Y-14216074D02*
G75*
G03*
X16649233Y-14216074I-40000J0D01*
G01*
X16847358Y-6448912D02*
X16847358Y-6528912D01*
X16807358Y-6488912D02*
X16887358Y-6488912D01*
X16887358Y-6488912D02*
G75*
G03*
X16887358Y-6488912I-40000J0D01*
G01*
X16847358Y-7044225D02*
X16847358Y-7124225D01*
X16807358Y-7084225D02*
X16887358Y-7084225D01*
X16887358Y-7084225D02*
G75*
G03*
X16887358Y-7084225I-40000J0D01*
G01*
X16847358Y-7639538D02*
X16847358Y-7719538D01*
X16807358Y-7679538D02*
X16887358Y-7679538D01*
X16887358Y-7679538D02*
G75*
G03*
X16887358Y-7679538I-40000J0D01*
G01*
X16847358Y-8234851D02*
X16847358Y-8314851D01*
X16807358Y-8274851D02*
X16887358Y-8274851D01*
X16887358Y-8274851D02*
G75*
G03*
X16887358Y-8274851I-40000J0D01*
G01*
X16847358Y-8830164D02*
X16847358Y-8910164D01*
X16807358Y-8870164D02*
X16887358Y-8870164D01*
X16887358Y-8870164D02*
G75*
G03*
X16887358Y-8870164I-40000J0D01*
G01*
X16847358Y-9425477D02*
X16847358Y-9505477D01*
X16807358Y-9465477D02*
X16887358Y-9465477D01*
X16887358Y-9465477D02*
G75*
G03*
X16887358Y-9465477I-40000J0D01*
G01*
X16847358Y-10020790D02*
X16847358Y-10100790D01*
X16807358Y-10060790D02*
X16887358Y-10060790D01*
X16887358Y-10060790D02*
G75*
G03*
X16887358Y-10060790I-40000J0D01*
G01*
X16847358Y-10616103D02*
X16847358Y-10696103D01*
X16807358Y-10656103D02*
X16887358Y-10656103D01*
X16887358Y-10656103D02*
G75*
G03*
X16887358Y-10656103I-40000J0D01*
G01*
X16847358Y-11211416D02*
X16847358Y-11291416D01*
X16807358Y-11251416D02*
X16887358Y-11251416D01*
X16887358Y-11251416D02*
G75*
G03*
X16887358Y-11251416I-40000J0D01*
G01*
X16847358Y-11806729D02*
X16847358Y-11886729D01*
X16807358Y-11846729D02*
X16887358Y-11846729D01*
X16887358Y-11846729D02*
G75*
G03*
X16887358Y-11846729I-40000J0D01*
G01*
X16847358Y-12402042D02*
X16847358Y-12482042D01*
X16807358Y-12442042D02*
X16887358Y-12442042D01*
X16887358Y-12442042D02*
G75*
G03*
X16887358Y-12442042I-40000J0D01*
G01*
X16847358Y-12997355D02*
X16847358Y-13077355D01*
X16807358Y-13037355D02*
X16887358Y-13037355D01*
X16887358Y-13037355D02*
G75*
G03*
X16887358Y-13037355I-40000J0D01*
G01*
X16906889Y-13652199D02*
X16906889Y-13732199D01*
X16866889Y-13692199D02*
X16946889Y-13692199D01*
X16946889Y-13692199D02*
G75*
G03*
X16946889Y-13692199I-40000J0D01*
G01*
X16906889Y-14414199D02*
X16906889Y-14494199D01*
X16866889Y-14454199D02*
X16946889Y-14454199D01*
X16946889Y-14454199D02*
G75*
G03*
X16946889Y-14454199I-40000J0D01*
G01*
X17085483Y-6746568D02*
X17085483Y-6826568D01*
X17045483Y-6786568D02*
X17125483Y-6786568D01*
X17125483Y-6786568D02*
G75*
G03*
X17125483Y-6786568I-40000J0D01*
G01*
X17085483Y-7341881D02*
X17085483Y-7421881D01*
X17045483Y-7381881D02*
X17125483Y-7381881D01*
X17125483Y-7381881D02*
G75*
G03*
X17125483Y-7381881I-40000J0D01*
G01*
X17085483Y-7937194D02*
X17085483Y-8017194D01*
X17045483Y-7977194D02*
X17125483Y-7977194D01*
X17125483Y-7977194D02*
G75*
G03*
X17125483Y-7977194I-40000J0D01*
G01*
X17085483Y-8532507D02*
X17085483Y-8612507D01*
X17045483Y-8572507D02*
X17125483Y-8572507D01*
X17125483Y-8572507D02*
G75*
G03*
X17125483Y-8572507I-40000J0D01*
G01*
X17085483Y-9127820D02*
X17085483Y-9207820D01*
X17045483Y-9167820D02*
X17125483Y-9167820D01*
X17125483Y-9167820D02*
G75*
G03*
X17125483Y-9167820I-40000J0D01*
G01*
X17085483Y-9723133D02*
X17085483Y-9803133D01*
X17045483Y-9763133D02*
X17125483Y-9763133D01*
X17125483Y-9763133D02*
G75*
G03*
X17125483Y-9763133I-40000J0D01*
G01*
X17085483Y-10318446D02*
X17085483Y-10398446D01*
X17045483Y-10358446D02*
X17125483Y-10358446D01*
X17125483Y-10358446D02*
G75*
G03*
X17125483Y-10358446I-40000J0D01*
G01*
X17085483Y-10913759D02*
X17085483Y-10993759D01*
X17045483Y-10953759D02*
X17125483Y-10953759D01*
X17125483Y-10953759D02*
G75*
G03*
X17125483Y-10953759I-40000J0D01*
G01*
X17085483Y-11509072D02*
X17085483Y-11589072D01*
X17045483Y-11549072D02*
X17125483Y-11549072D01*
X17125483Y-11549072D02*
G75*
G03*
X17125483Y-11549072I-40000J0D01*
G01*
X17085483Y-12104385D02*
X17085483Y-12184385D01*
X17045483Y-12144385D02*
X17125483Y-12144385D01*
X17125483Y-12144385D02*
G75*
G03*
X17125483Y-12144385I-40000J0D01*
G01*
X17085483Y-12699698D02*
X17085483Y-12779698D01*
X17045483Y-12739698D02*
X17125483Y-12739698D01*
X17125483Y-12739698D02*
G75*
G03*
X17125483Y-12739698I-40000J0D01*
G01*
X17085483Y-13295011D02*
X17085483Y-13375011D01*
X17045483Y-13335011D02*
X17125483Y-13335011D01*
X17125483Y-13335011D02*
G75*
G03*
X17125483Y-13335011I-40000J0D01*
G01*
X17609358Y-6448912D02*
X17609358Y-6528912D01*
X17569358Y-6488912D02*
X17649358Y-6488912D01*
X17649358Y-6488912D02*
G75*
G03*
X17649358Y-6488912I-40000J0D01*
G01*
X17609358Y-7044225D02*
X17609358Y-7124225D01*
X17569358Y-7084225D02*
X17649358Y-7084225D01*
X17649358Y-7084225D02*
G75*
G03*
X17649358Y-7084225I-40000J0D01*
G01*
X17609358Y-7639538D02*
X17609358Y-7719538D01*
X17569358Y-7679538D02*
X17649358Y-7679538D01*
X17649358Y-7679538D02*
G75*
G03*
X17649358Y-7679538I-40000J0D01*
G01*
X17609358Y-8234851D02*
X17609358Y-8314851D01*
X17569358Y-8274851D02*
X17649358Y-8274851D01*
X17649358Y-8274851D02*
G75*
G03*
X17649358Y-8274851I-40000J0D01*
G01*
X17609358Y-8830164D02*
X17609358Y-8910164D01*
X17569358Y-8870164D02*
X17649358Y-8870164D01*
X17649358Y-8870164D02*
G75*
G03*
X17649358Y-8870164I-40000J0D01*
G01*
X17609358Y-9425477D02*
X17609358Y-9505477D01*
X17569358Y-9465477D02*
X17649358Y-9465477D01*
X17649358Y-9465477D02*
G75*
G03*
X17649358Y-9465477I-40000J0D01*
G01*
X17609358Y-10020790D02*
X17609358Y-10100790D01*
X17569358Y-10060790D02*
X17649358Y-10060790D01*
X17649358Y-10060790D02*
G75*
G03*
X17649358Y-10060790I-40000J0D01*
G01*
X17609358Y-10616103D02*
X17609358Y-10696103D01*
X17569358Y-10656103D02*
X17649358Y-10656103D01*
X17649358Y-10656103D02*
G75*
G03*
X17649358Y-10656103I-40000J0D01*
G01*
X17609358Y-11211416D02*
X17609358Y-11291416D01*
X17569358Y-11251416D02*
X17649358Y-11251416D01*
X17649358Y-11251416D02*
G75*
G03*
X17649358Y-11251416I-40000J0D01*
G01*
X17609358Y-11806729D02*
X17609358Y-11886729D01*
X17569358Y-11846729D02*
X17649358Y-11846729D01*
X17649358Y-11846729D02*
G75*
G03*
X17649358Y-11846729I-40000J0D01*
G01*
X17609358Y-12402042D02*
X17609358Y-12482042D01*
X17569358Y-12442042D02*
X17649358Y-12442042D01*
X17649358Y-12442042D02*
G75*
G03*
X17649358Y-12442042I-40000J0D01*
G01*
X17609358Y-12997355D02*
X17609358Y-13077355D01*
X17569358Y-13037355D02*
X17649358Y-13037355D01*
X17649358Y-13037355D02*
G75*
G03*
X17649358Y-13037355I-40000J0D01*
G01*
X17847483Y-6746568D02*
X17847483Y-6826568D01*
X17807483Y-6786568D02*
X17887483Y-6786568D01*
X17887483Y-6786568D02*
G75*
G03*
X17887483Y-6786568I-40000J0D01*
G01*
X17847483Y-7341881D02*
X17847483Y-7421881D01*
X17807483Y-7381881D02*
X17887483Y-7381881D01*
X17887483Y-7381881D02*
G75*
G03*
X17887483Y-7381881I-40000J0D01*
G01*
X17847483Y-7937194D02*
X17847483Y-8017194D01*
X17807483Y-7977194D02*
X17887483Y-7977194D01*
X17887483Y-7977194D02*
G75*
G03*
X17887483Y-7977194I-40000J0D01*
G01*
X17847483Y-8532507D02*
X17847483Y-8612507D01*
X17807483Y-8572507D02*
X17887483Y-8572507D01*
X17887483Y-8572507D02*
G75*
G03*
X17887483Y-8572507I-40000J0D01*
G01*
X17847483Y-9127820D02*
X17847483Y-9207820D01*
X17807483Y-9167820D02*
X17887483Y-9167820D01*
X17887483Y-9167820D02*
G75*
G03*
X17887483Y-9167820I-40000J0D01*
G01*
X17847483Y-9723133D02*
X17847483Y-9803133D01*
X17807483Y-9763133D02*
X17887483Y-9763133D01*
X17887483Y-9763133D02*
G75*
G03*
X17887483Y-9763133I-40000J0D01*
G01*
X17847483Y-10318446D02*
X17847483Y-10398446D01*
X17807483Y-10358446D02*
X17887483Y-10358446D01*
X17887483Y-10358446D02*
G75*
G03*
X17887483Y-10358446I-40000J0D01*
G01*
X17847483Y-10913759D02*
X17847483Y-10993759D01*
X17807483Y-10953759D02*
X17887483Y-10953759D01*
X17887483Y-10953759D02*
G75*
G03*
X17887483Y-10953759I-40000J0D01*
G01*
X17847483Y-11509072D02*
X17847483Y-11589072D01*
X17807483Y-11549072D02*
X17887483Y-11549072D01*
X17887483Y-11549072D02*
G75*
G03*
X17887483Y-11549072I-40000J0D01*
G01*
X17847483Y-12104385D02*
X17847483Y-12184385D01*
X17807483Y-12144385D02*
X17887483Y-12144385D01*
X17887483Y-12144385D02*
G75*
G03*
X17887483Y-12144385I-40000J0D01*
G01*
X17847483Y-12699698D02*
X17847483Y-12779698D01*
X17807483Y-12739698D02*
X17887483Y-12739698D01*
X17887483Y-12739698D02*
G75*
G03*
X17887483Y-12739698I-40000J0D01*
G01*
X17847483Y-13295011D02*
X17847483Y-13375011D01*
X17807483Y-13335011D02*
X17887483Y-13335011D01*
X17887483Y-13335011D02*
G75*
G03*
X17887483Y-13335011I-40000J0D01*
G01*
D20*
X14557457Y-6401669D02*
X14557457Y-6338029D01*
X14493817Y-6338029D01*
X14493817Y-6401669D01*
X14557457Y-6401669D01*
X14570637Y-6369849D02*
G75*
G03*
X14570637Y-6369849I-45000J0D01*
G01*
X14811457Y-6401669D02*
X14811457Y-6338029D01*
X14747817Y-6338029D01*
X14747817Y-6401669D01*
X14811457Y-6401669D01*
X14824637Y-6369849D02*
G75*
G03*
X14824637Y-6369849I-45000J0D01*
G01*
X15732208Y-6401669D02*
X15732208Y-6338029D01*
X15668568Y-6338029D01*
X15668568Y-6401669D01*
X15732208Y-6401669D01*
X15745388Y-6369849D02*
G75*
G03*
X15745388Y-6369849I-45000J0D01*
G01*
X15986208Y-6401669D02*
X15986208Y-6338029D01*
X15922568Y-6338029D01*
X15922568Y-6401669D01*
X15986208Y-6401669D01*
X15999388Y-6369849D02*
G75*
G03*
X15999388Y-6369849I-45000J0D01*
G01*
D21*
X14406575Y-8070851D02*
X14456575Y-8020851D01*
X14406575Y-7970851D01*
X14356575Y-8020851D01*
X14406575Y-8070851D01*
X14456575Y-8020851D02*
G75*
G03*
X14456575Y-8020851I-50000J0D01*
G01*
X14406575Y-8324851D02*
X14456575Y-8274851D01*
X14406575Y-8224851D01*
X14356575Y-8274851D01*
X14406575Y-8324851D01*
X14456575Y-8274851D02*
G75*
G03*
X14456575Y-8274851I-50000J0D01*
G01*
X14660575Y-8070851D02*
X14710575Y-8020851D01*
X14660575Y-7970851D01*
X14610575Y-8020851D01*
X14660575Y-8070851D01*
X14710575Y-8020851D02*
G75*
G03*
X14710575Y-8020851I-50000J0D01*
G01*
X14660575Y-8324851D02*
X14710575Y-8274851D01*
X14660575Y-8224851D01*
X14610575Y-8274851D01*
X14660575Y-8324851D01*
X14710575Y-8274851D02*
G75*
G03*
X14710575Y-8274851I-50000J0D01*
G01*
X14914575Y-8070851D02*
X14964575Y-8020851D01*
X14914575Y-7970851D01*
X14864575Y-8020851D01*
X14914575Y-8070851D01*
X14964575Y-8020851D02*
G75*
G03*
X14964575Y-8020851I-50000J0D01*
G01*
X14914575Y-8324851D02*
X14964575Y-8274851D01*
X14914575Y-8224851D01*
X14864575Y-8274851D01*
X14914575Y-8324851D01*
X14964575Y-8274851D02*
G75*
G03*
X14964575Y-8274851I-50000J0D01*
G01*
D22*
X14406575Y-6855475D02*
X14406575Y-6965475D01*
X14351575Y-6910475D02*
X14461575Y-6910475D01*
X14445466Y-6949366D02*
X14445466Y-6871584D01*
X14367683Y-6871584D01*
X14367683Y-6949366D01*
X14445466Y-6949366D01*
X14406575Y-7505475D02*
X14406575Y-7615475D01*
X14351575Y-7560475D02*
X14461575Y-7560475D01*
X14445466Y-7599366D02*
X14445466Y-7521584D01*
X14367683Y-7521584D01*
X14367683Y-7599366D01*
X14445466Y-7599366D01*
X14406575Y-10010634D02*
X14406575Y-10120634D01*
X14351575Y-10065634D02*
X14461575Y-10065634D01*
X14445466Y-10104525D02*
X14445466Y-10026743D01*
X14367683Y-10026743D01*
X14367683Y-10104525D01*
X14445466Y-10104525D01*
X14406575Y-10660634D02*
X14406575Y-10770634D01*
X14351575Y-10715634D02*
X14461575Y-10715634D01*
X14445466Y-10754525D02*
X14445466Y-10676743D01*
X14367683Y-10676743D01*
X14367683Y-10754525D01*
X14445466Y-10754525D01*
X14856575Y-6855475D02*
X14856575Y-6965475D01*
X14801575Y-6910475D02*
X14911575Y-6910475D01*
X14895466Y-6949366D02*
X14895466Y-6871584D01*
X14817683Y-6871584D01*
X14817683Y-6949366D01*
X14895466Y-6949366D01*
X14856575Y-7505475D02*
X14856575Y-7615475D01*
X14801575Y-7560475D02*
X14911575Y-7560475D01*
X14895466Y-7599366D02*
X14895466Y-7521584D01*
X14817683Y-7521584D01*
X14817683Y-7599366D01*
X14895466Y-7599366D01*
X14856575Y-10010634D02*
X14856575Y-10120634D01*
X14801575Y-10065634D02*
X14911575Y-10065634D01*
X14895466Y-10104525D02*
X14895466Y-10026743D01*
X14817683Y-10026743D01*
X14817683Y-10104525D01*
X14895466Y-10104525D01*
X14856575Y-10660634D02*
X14856575Y-10770634D01*
X14801575Y-10715634D02*
X14911575Y-10715634D01*
X14895466Y-10754525D02*
X14895466Y-10676743D01*
X14817683Y-10676743D01*
X14817683Y-10754525D01*
X14895466Y-10754525D01*
D11*
X1252619Y-15269851D02*
X1252619Y-15069851D01*
X1300238Y-15069851D01*
X1328810Y-15079375D01*
X1347857Y-15098423D01*
X1357381Y-15117470D01*
X1366905Y-15155565D01*
X1366905Y-15184137D01*
X1357381Y-15222232D01*
X1347857Y-15241280D01*
X1328810Y-15260327D01*
X1300238Y-15269851D01*
X1252619Y-15269851D01*
X1452619Y-15269851D02*
X1452619Y-15136518D01*
X1452619Y-15174613D02*
X1462143Y-15155565D01*
X1471667Y-15146042D01*
X1490714Y-15136518D01*
X1509762Y-15136518D01*
X1576428Y-15269851D02*
X1576428Y-15136518D01*
X1576428Y-15069851D02*
X1566905Y-15079375D01*
X1576428Y-15088899D01*
X1585952Y-15079375D01*
X1576428Y-15069851D01*
X1576428Y-15088899D01*
X1700238Y-15269851D02*
X1681190Y-15260327D01*
X1671667Y-15241280D01*
X1671667Y-15069851D01*
X1805000Y-15269851D02*
X1785952Y-15260327D01*
X1776428Y-15241280D01*
X1776428Y-15069851D01*
X2033571Y-15269851D02*
X2033571Y-15069851D01*
X2100238Y-15212708D01*
X2166905Y-15069851D01*
X2166905Y-15269851D01*
X2347857Y-15269851D02*
X2347857Y-15165089D01*
X2338333Y-15146042D01*
X2319286Y-15136518D01*
X2281190Y-15136518D01*
X2262143Y-15146042D01*
X2347857Y-15260327D02*
X2328810Y-15269851D01*
X2281190Y-15269851D01*
X2262143Y-15260327D01*
X2252619Y-15241280D01*
X2252619Y-15222232D01*
X2262143Y-15203184D01*
X2281190Y-15193661D01*
X2328810Y-15193661D01*
X2347857Y-15184137D01*
X2443095Y-15136518D02*
X2443095Y-15336518D01*
X2443095Y-15146042D02*
X2462143Y-15136518D01*
X2500238Y-15136518D01*
X2519286Y-15146042D01*
X2528810Y-15155565D01*
X2538333Y-15174613D01*
X2538333Y-15231756D01*
X2528810Y-15250803D01*
X2519286Y-15260327D01*
X2500238Y-15269851D01*
X2462143Y-15269851D01*
X2443095Y-15260327D01*
X2624048Y-15250803D02*
X2633571Y-15260327D01*
X2624048Y-15269851D01*
X2614524Y-15260327D01*
X2624048Y-15250803D01*
X2624048Y-15269851D01*
X2624048Y-15146042D02*
X2633571Y-15155565D01*
X2624048Y-15165089D01*
X2614524Y-15155565D01*
X2624048Y-15146042D01*
X2624048Y-15165089D01*
D12*
X965000Y-15584375D02*
X995000Y-15614375D01*
X995000Y-15584375D02*
X965000Y-15614375D01*
D11*
X1290714Y-15489851D02*
X1309762Y-15489851D01*
X1328810Y-15499375D01*
X1338333Y-15508899D01*
X1347857Y-15527946D01*
X1357381Y-15566042D01*
X1357381Y-15613661D01*
X1347857Y-15651756D01*
X1338333Y-15670803D01*
X1328810Y-15680327D01*
X1309762Y-15689851D01*
X1290714Y-15689851D01*
X1271667Y-15680327D01*
X1262143Y-15670803D01*
X1252619Y-15651756D01*
X1243095Y-15613661D01*
X1243095Y-15566042D01*
X1252619Y-15527946D01*
X1262143Y-15508899D01*
X1271667Y-15499375D01*
X1290714Y-15489851D01*
X1443095Y-15670803D02*
X1452619Y-15680327D01*
X1443095Y-15689851D01*
X1433571Y-15680327D01*
X1443095Y-15670803D01*
X1443095Y-15689851D01*
X1519286Y-15489851D02*
X1643095Y-15489851D01*
X1576428Y-15566042D01*
X1605000Y-15566042D01*
X1624048Y-15575565D01*
X1633571Y-15585089D01*
X1643095Y-15604137D01*
X1643095Y-15651756D01*
X1633571Y-15670803D01*
X1624048Y-15680327D01*
X1605000Y-15689851D01*
X1547857Y-15689851D01*
X1528809Y-15680327D01*
X1519286Y-15670803D01*
X1766905Y-15489851D02*
X1785952Y-15489851D01*
X1805000Y-15499375D01*
X1814524Y-15508899D01*
X1824048Y-15527946D01*
X1833571Y-15566042D01*
X1833571Y-15613661D01*
X1824048Y-15651756D01*
X1814524Y-15670803D01*
X1805000Y-15680327D01*
X1785952Y-15689851D01*
X1766905Y-15689851D01*
X1747857Y-15680327D01*
X1738333Y-15670803D01*
X1728809Y-15651756D01*
X1719286Y-15613661D01*
X1719286Y-15566042D01*
X1728809Y-15527946D01*
X1738333Y-15508899D01*
X1747857Y-15499375D01*
X1766905Y-15489851D01*
X1957381Y-15489851D02*
X1976428Y-15489851D01*
X1995476Y-15499375D01*
X2005000Y-15508899D01*
X2014524Y-15527946D01*
X2024048Y-15566042D01*
X2024048Y-15613661D01*
X2014524Y-15651756D01*
X2005000Y-15670803D01*
X1995476Y-15680327D01*
X1976428Y-15689851D01*
X1957381Y-15689851D01*
X1938333Y-15680327D01*
X1928809Y-15670803D01*
X1919286Y-15651756D01*
X1909762Y-15613661D01*
X1909762Y-15566042D01*
X1919286Y-15527946D01*
X1928809Y-15508899D01*
X1938333Y-15499375D01*
X1957381Y-15489851D01*
X2109762Y-15689851D02*
X2109762Y-15556518D01*
X2109762Y-15575565D02*
X2119286Y-15566042D01*
X2138333Y-15556518D01*
X2166905Y-15556518D01*
X2185952Y-15566042D01*
X2195476Y-15585089D01*
X2195476Y-15689851D01*
X2195476Y-15585089D02*
X2205000Y-15566042D01*
X2224048Y-15556518D01*
X2252619Y-15556518D01*
X2271667Y-15566042D01*
X2281190Y-15585089D01*
X2281190Y-15689851D01*
X2376429Y-15689851D02*
X2376429Y-15556518D01*
X2376429Y-15575565D02*
X2385952Y-15566042D01*
X2405000Y-15556518D01*
X2433571Y-15556518D01*
X2452619Y-15566042D01*
X2462143Y-15585089D01*
X2462143Y-15689851D01*
X2462143Y-15585089D02*
X2471667Y-15566042D01*
X2490714Y-15556518D01*
X2519286Y-15556518D01*
X2538333Y-15566042D01*
X2547857Y-15585089D01*
X2547857Y-15689851D01*
X2938333Y-15480327D02*
X2766905Y-15737470D01*
X3195476Y-15489851D02*
X3214524Y-15489851D01*
X3233571Y-15499375D01*
X3243095Y-15508899D01*
X3252619Y-15527946D01*
X3262143Y-15566042D01*
X3262143Y-15613661D01*
X3252619Y-15651756D01*
X3243095Y-15670803D01*
X3233571Y-15680327D01*
X3214524Y-15689851D01*
X3195476Y-15689851D01*
X3176428Y-15680327D01*
X3166905Y-15670803D01*
X3157381Y-15651756D01*
X3147857Y-15613661D01*
X3147857Y-15566042D01*
X3157381Y-15527946D01*
X3166905Y-15508899D01*
X3176428Y-15499375D01*
X3195476Y-15489851D01*
X3347857Y-15670803D02*
X3357381Y-15680327D01*
X3347857Y-15689851D01*
X3338333Y-15680327D01*
X3347857Y-15670803D01*
X3347857Y-15689851D01*
X3481190Y-15489851D02*
X3500238Y-15489851D01*
X3519286Y-15499375D01*
X3528809Y-15508899D01*
X3538333Y-15527946D01*
X3547857Y-15566042D01*
X3547857Y-15613661D01*
X3538333Y-15651756D01*
X3528809Y-15670803D01*
X3519286Y-15680327D01*
X3500238Y-15689851D01*
X3481190Y-15689851D01*
X3462143Y-15680327D01*
X3452619Y-15670803D01*
X3443095Y-15651756D01*
X3433571Y-15613661D01*
X3433571Y-15566042D01*
X3443095Y-15527946D01*
X3452619Y-15508899D01*
X3462143Y-15499375D01*
X3481190Y-15489851D01*
X3738333Y-15689851D02*
X3624048Y-15689851D01*
X3681190Y-15689851D02*
X3681190Y-15489851D01*
X3662143Y-15518423D01*
X3643095Y-15537470D01*
X3624048Y-15546994D01*
X3928809Y-15689851D02*
X3814524Y-15689851D01*
X3871667Y-15689851D02*
X3871667Y-15489851D01*
X3852619Y-15518423D01*
X3833571Y-15537470D01*
X3814524Y-15546994D01*
X4043095Y-15575565D02*
X4024048Y-15566042D01*
X4014524Y-15556518D01*
X4005000Y-15537470D01*
X4005000Y-15527946D01*
X4014524Y-15508899D01*
X4024048Y-15499375D01*
X4043095Y-15489851D01*
X4081190Y-15489851D01*
X4100238Y-15499375D01*
X4109762Y-15508899D01*
X4119286Y-15527946D01*
X4119286Y-15537470D01*
X4109762Y-15556518D01*
X4100238Y-15566042D01*
X4081190Y-15575565D01*
X4043095Y-15575565D01*
X4024048Y-15585089D01*
X4014524Y-15594613D01*
X4005000Y-15613661D01*
X4005000Y-15651756D01*
X4014524Y-15670803D01*
X4024048Y-15680327D01*
X4043095Y-15689851D01*
X4081190Y-15689851D01*
X4100238Y-15680327D01*
X4109762Y-15670803D01*
X4119286Y-15651756D01*
X4119286Y-15613661D01*
X4109762Y-15594613D01*
X4100238Y-15585089D01*
X4081190Y-15575565D01*
X4195476Y-15489851D02*
X4195476Y-15527946D01*
X4271667Y-15489851D02*
X4271667Y-15527946D01*
X4566905Y-15766042D02*
X4557381Y-15756518D01*
X4538333Y-15727946D01*
X4528810Y-15708899D01*
X4519286Y-15680327D01*
X4509762Y-15632708D01*
X4509762Y-15594613D01*
X4519286Y-15546994D01*
X4528810Y-15518423D01*
X4538333Y-15499375D01*
X4557381Y-15470803D01*
X4566905Y-15461280D01*
X4747857Y-15689851D02*
X4633571Y-15689851D01*
X4690714Y-15689851D02*
X4690714Y-15489851D01*
X4671667Y-15518423D01*
X4652619Y-15537470D01*
X4633571Y-15546994D01*
X4985952Y-15689851D02*
X4985952Y-15489851D01*
X5071667Y-15689851D02*
X5071667Y-15585089D01*
X5062143Y-15566042D01*
X5043095Y-15556518D01*
X5014524Y-15556518D01*
X4995476Y-15566042D01*
X4985952Y-15575565D01*
X5195476Y-15689851D02*
X5176429Y-15680327D01*
X5166905Y-15670803D01*
X5157381Y-15651756D01*
X5157381Y-15594613D01*
X5166905Y-15575565D01*
X5176429Y-15566042D01*
X5195476Y-15556518D01*
X5224048Y-15556518D01*
X5243095Y-15566042D01*
X5252619Y-15575565D01*
X5262143Y-15594613D01*
X5262143Y-15651756D01*
X5252619Y-15670803D01*
X5243095Y-15680327D01*
X5224048Y-15689851D01*
X5195476Y-15689851D01*
X5376429Y-15689851D02*
X5357381Y-15680327D01*
X5347857Y-15661280D01*
X5347857Y-15489851D01*
X5528810Y-15680327D02*
X5509762Y-15689851D01*
X5471667Y-15689851D01*
X5452619Y-15680327D01*
X5443095Y-15661280D01*
X5443095Y-15585089D01*
X5452619Y-15566042D01*
X5471667Y-15556518D01*
X5509762Y-15556518D01*
X5528810Y-15566042D01*
X5538333Y-15585089D01*
X5538333Y-15604137D01*
X5443095Y-15623184D01*
X5605000Y-15766042D02*
X5614524Y-15756518D01*
X5633571Y-15727946D01*
X5643095Y-15708899D01*
X5652619Y-15680327D01*
X5662143Y-15632708D01*
X5662143Y-15594613D01*
X5652619Y-15546994D01*
X5643095Y-15518423D01*
X5633571Y-15499375D01*
X5614524Y-15470803D01*
X5605000Y-15461280D01*
D12*
X995000Y-15863375D02*
G75*
G03*
X995000Y-15863375I-15000J0D01*
G01*
D11*
X1290714Y-15753851D02*
X1309762Y-15753851D01*
X1328810Y-15763375D01*
X1338333Y-15772899D01*
X1347857Y-15791946D01*
X1357381Y-15830042D01*
X1357381Y-15877661D01*
X1347857Y-15915756D01*
X1338333Y-15934803D01*
X1328810Y-15944327D01*
X1309762Y-15953851D01*
X1290714Y-15953851D01*
X1271667Y-15944327D01*
X1262143Y-15934803D01*
X1252619Y-15915756D01*
X1243095Y-15877661D01*
X1243095Y-15830042D01*
X1252619Y-15791946D01*
X1262143Y-15772899D01*
X1271667Y-15763375D01*
X1290714Y-15753851D01*
X1443095Y-15934803D02*
X1452619Y-15944327D01*
X1443095Y-15953851D01*
X1433571Y-15944327D01*
X1443095Y-15934803D01*
X1443095Y-15953851D01*
X1519286Y-15753851D02*
X1643095Y-15753851D01*
X1576428Y-15830042D01*
X1605000Y-15830042D01*
X1624048Y-15839565D01*
X1633571Y-15849089D01*
X1643095Y-15868137D01*
X1643095Y-15915756D01*
X1633571Y-15934803D01*
X1624048Y-15944327D01*
X1605000Y-15953851D01*
X1547857Y-15953851D01*
X1528809Y-15944327D01*
X1519286Y-15934803D01*
X1766905Y-15753851D02*
X1785952Y-15753851D01*
X1805000Y-15763375D01*
X1814524Y-15772899D01*
X1824048Y-15791946D01*
X1833571Y-15830042D01*
X1833571Y-15877661D01*
X1824048Y-15915756D01*
X1814524Y-15934803D01*
X1805000Y-15944327D01*
X1785952Y-15953851D01*
X1766905Y-15953851D01*
X1747857Y-15944327D01*
X1738333Y-15934803D01*
X1728809Y-15915756D01*
X1719286Y-15877661D01*
X1719286Y-15830042D01*
X1728809Y-15791946D01*
X1738333Y-15772899D01*
X1747857Y-15763375D01*
X1766905Y-15753851D01*
X1957381Y-15753851D02*
X1976428Y-15753851D01*
X1995476Y-15763375D01*
X2005000Y-15772899D01*
X2014524Y-15791946D01*
X2024048Y-15830042D01*
X2024048Y-15877661D01*
X2014524Y-15915756D01*
X2005000Y-15934803D01*
X1995476Y-15944327D01*
X1976428Y-15953851D01*
X1957381Y-15953851D01*
X1938333Y-15944327D01*
X1928809Y-15934803D01*
X1919286Y-15915756D01*
X1909762Y-15877661D01*
X1909762Y-15830042D01*
X1919286Y-15791946D01*
X1928809Y-15772899D01*
X1938333Y-15763375D01*
X1957381Y-15753851D01*
X2109762Y-15953851D02*
X2109762Y-15820518D01*
X2109762Y-15839565D02*
X2119286Y-15830042D01*
X2138333Y-15820518D01*
X2166905Y-15820518D01*
X2185952Y-15830042D01*
X2195476Y-15849089D01*
X2195476Y-15953851D01*
X2195476Y-15849089D02*
X2205000Y-15830042D01*
X2224048Y-15820518D01*
X2252619Y-15820518D01*
X2271667Y-15830042D01*
X2281190Y-15849089D01*
X2281190Y-15953851D01*
X2376429Y-15953851D02*
X2376429Y-15820518D01*
X2376429Y-15839565D02*
X2385952Y-15830042D01*
X2405000Y-15820518D01*
X2433571Y-15820518D01*
X2452619Y-15830042D01*
X2462143Y-15849089D01*
X2462143Y-15953851D01*
X2462143Y-15849089D02*
X2471667Y-15830042D01*
X2490714Y-15820518D01*
X2519286Y-15820518D01*
X2538333Y-15830042D01*
X2547857Y-15849089D01*
X2547857Y-15953851D01*
X2938333Y-15744327D02*
X2766905Y-16001470D01*
X3195476Y-15753851D02*
X3214524Y-15753851D01*
X3233571Y-15763375D01*
X3243095Y-15772899D01*
X3252619Y-15791946D01*
X3262143Y-15830042D01*
X3262143Y-15877661D01*
X3252619Y-15915756D01*
X3243095Y-15934803D01*
X3233571Y-15944327D01*
X3214524Y-15953851D01*
X3195476Y-15953851D01*
X3176428Y-15944327D01*
X3166905Y-15934803D01*
X3157381Y-15915756D01*
X3147857Y-15877661D01*
X3147857Y-15830042D01*
X3157381Y-15791946D01*
X3166905Y-15772899D01*
X3176428Y-15763375D01*
X3195476Y-15753851D01*
X3347857Y-15934803D02*
X3357381Y-15944327D01*
X3347857Y-15953851D01*
X3338333Y-15944327D01*
X3347857Y-15934803D01*
X3347857Y-15953851D01*
X3481190Y-15753851D02*
X3500238Y-15753851D01*
X3519286Y-15763375D01*
X3528809Y-15772899D01*
X3538333Y-15791946D01*
X3547857Y-15830042D01*
X3547857Y-15877661D01*
X3538333Y-15915756D01*
X3528809Y-15934803D01*
X3519286Y-15944327D01*
X3500238Y-15953851D01*
X3481190Y-15953851D01*
X3462143Y-15944327D01*
X3452619Y-15934803D01*
X3443095Y-15915756D01*
X3433571Y-15877661D01*
X3433571Y-15830042D01*
X3443095Y-15791946D01*
X3452619Y-15772899D01*
X3462143Y-15763375D01*
X3481190Y-15753851D01*
X3738333Y-15953851D02*
X3624048Y-15953851D01*
X3681190Y-15953851D02*
X3681190Y-15753851D01*
X3662143Y-15782423D01*
X3643095Y-15801470D01*
X3624048Y-15810994D01*
X3928809Y-15953851D02*
X3814524Y-15953851D01*
X3871667Y-15953851D02*
X3871667Y-15753851D01*
X3852619Y-15782423D01*
X3833571Y-15801470D01*
X3814524Y-15810994D01*
X4043095Y-15839565D02*
X4024048Y-15830042D01*
X4014524Y-15820518D01*
X4005000Y-15801470D01*
X4005000Y-15791946D01*
X4014524Y-15772899D01*
X4024048Y-15763375D01*
X4043095Y-15753851D01*
X4081190Y-15753851D01*
X4100238Y-15763375D01*
X4109762Y-15772899D01*
X4119286Y-15791946D01*
X4119286Y-15801470D01*
X4109762Y-15820518D01*
X4100238Y-15830042D01*
X4081190Y-15839565D01*
X4043095Y-15839565D01*
X4024048Y-15849089D01*
X4014524Y-15858613D01*
X4005000Y-15877661D01*
X4005000Y-15915756D01*
X4014524Y-15934803D01*
X4024048Y-15944327D01*
X4043095Y-15953851D01*
X4081190Y-15953851D01*
X4100238Y-15944327D01*
X4109762Y-15934803D01*
X4119286Y-15915756D01*
X4119286Y-15877661D01*
X4109762Y-15858613D01*
X4100238Y-15849089D01*
X4081190Y-15839565D01*
X4195476Y-15753851D02*
X4195476Y-15791946D01*
X4271667Y-15753851D02*
X4271667Y-15791946D01*
X4566905Y-16030042D02*
X4557381Y-16020518D01*
X4538333Y-15991946D01*
X4528810Y-15972899D01*
X4519286Y-15944327D01*
X4509762Y-15896708D01*
X4509762Y-15858613D01*
X4519286Y-15810994D01*
X4528810Y-15782423D01*
X4538333Y-15763375D01*
X4557381Y-15734803D01*
X4566905Y-15725280D01*
X4633571Y-15772899D02*
X4643095Y-15763375D01*
X4662143Y-15753851D01*
X4709762Y-15753851D01*
X4728810Y-15763375D01*
X4738333Y-15772899D01*
X4747857Y-15791946D01*
X4747857Y-15810994D01*
X4738333Y-15839565D01*
X4624048Y-15953851D01*
X4747857Y-15953851D01*
X4919286Y-15820518D02*
X4919286Y-15953851D01*
X4871667Y-15744327D02*
X4824048Y-15887184D01*
X4947857Y-15887184D01*
X5052619Y-15839565D02*
X5033571Y-15830042D01*
X5024048Y-15820518D01*
X5014524Y-15801470D01*
X5014524Y-15791946D01*
X5024048Y-15772899D01*
X5033571Y-15763375D01*
X5052619Y-15753851D01*
X5090714Y-15753851D01*
X5109762Y-15763375D01*
X5119286Y-15772899D01*
X5128810Y-15791946D01*
X5128810Y-15801470D01*
X5119286Y-15820518D01*
X5109762Y-15830042D01*
X5090714Y-15839565D01*
X5052619Y-15839565D01*
X5033571Y-15849089D01*
X5024048Y-15858613D01*
X5014524Y-15877661D01*
X5014524Y-15915756D01*
X5024048Y-15934803D01*
X5033571Y-15944327D01*
X5052619Y-15953851D01*
X5090714Y-15953851D01*
X5109762Y-15944327D01*
X5119286Y-15934803D01*
X5128810Y-15915756D01*
X5128810Y-15877661D01*
X5119286Y-15858613D01*
X5109762Y-15849089D01*
X5090714Y-15839565D01*
X5366905Y-15953851D02*
X5366905Y-15753851D01*
X5452619Y-15953851D02*
X5452619Y-15849089D01*
X5443095Y-15830042D01*
X5424048Y-15820518D01*
X5395476Y-15820518D01*
X5376429Y-15830042D01*
X5366905Y-15839565D01*
X5576429Y-15953851D02*
X5557381Y-15944327D01*
X5547857Y-15934803D01*
X5538333Y-15915756D01*
X5538333Y-15858613D01*
X5547857Y-15839565D01*
X5557381Y-15830042D01*
X5576429Y-15820518D01*
X5605000Y-15820518D01*
X5624048Y-15830042D01*
X5633571Y-15839565D01*
X5643095Y-15858613D01*
X5643095Y-15915756D01*
X5633571Y-15934803D01*
X5624048Y-15944327D01*
X5605000Y-15953851D01*
X5576429Y-15953851D01*
X5757381Y-15953851D02*
X5738333Y-15944327D01*
X5728809Y-15925280D01*
X5728809Y-15753851D01*
X5909762Y-15944327D02*
X5890714Y-15953851D01*
X5852619Y-15953851D01*
X5833571Y-15944327D01*
X5824048Y-15925280D01*
X5824048Y-15849089D01*
X5833571Y-15830042D01*
X5852619Y-15820518D01*
X5890714Y-15820518D01*
X5909762Y-15830042D01*
X5919286Y-15849089D01*
X5919286Y-15868137D01*
X5824048Y-15887184D01*
X5995476Y-15944327D02*
X6014524Y-15953851D01*
X6052619Y-15953851D01*
X6071667Y-15944327D01*
X6081190Y-15925280D01*
X6081190Y-15915756D01*
X6071667Y-15896708D01*
X6052619Y-15887184D01*
X6024048Y-15887184D01*
X6005000Y-15877661D01*
X5995476Y-15858613D01*
X5995476Y-15849089D01*
X6005000Y-15830042D01*
X6024048Y-15820518D01*
X6052619Y-15820518D01*
X6071667Y-15830042D01*
X6147857Y-16030042D02*
X6157381Y-16020518D01*
X6176428Y-15991946D01*
X6185952Y-15972899D01*
X6195476Y-15944327D01*
X6205000Y-15896708D01*
X6205000Y-15858613D01*
X6195476Y-15810994D01*
X6185952Y-15782423D01*
X6176428Y-15763375D01*
X6157381Y-15734803D01*
X6147857Y-15725280D01*
D13*
X975000Y-16107375D02*
X975000Y-16147375D01*
X955000Y-16127375D02*
X995000Y-16127375D01*
D11*
X1290714Y-16017851D02*
X1309762Y-16017851D01*
X1328810Y-16027375D01*
X1338333Y-16036899D01*
X1347857Y-16055946D01*
X1357381Y-16094042D01*
X1357381Y-16141661D01*
X1347857Y-16179756D01*
X1338333Y-16198803D01*
X1328810Y-16208327D01*
X1309762Y-16217851D01*
X1290714Y-16217851D01*
X1271667Y-16208327D01*
X1262143Y-16198803D01*
X1252619Y-16179756D01*
X1243095Y-16141661D01*
X1243095Y-16094042D01*
X1252619Y-16055946D01*
X1262143Y-16036899D01*
X1271667Y-16027375D01*
X1290714Y-16017851D01*
X1443095Y-16198803D02*
X1452619Y-16208327D01*
X1443095Y-16217851D01*
X1433571Y-16208327D01*
X1443095Y-16198803D01*
X1443095Y-16217851D01*
X1624048Y-16084518D02*
X1624048Y-16217851D01*
X1576428Y-16008327D02*
X1528809Y-16151184D01*
X1652619Y-16151184D01*
X1766905Y-16017851D02*
X1785952Y-16017851D01*
X1805000Y-16027375D01*
X1814524Y-16036899D01*
X1824048Y-16055946D01*
X1833571Y-16094042D01*
X1833571Y-16141661D01*
X1824048Y-16179756D01*
X1814524Y-16198803D01*
X1805000Y-16208327D01*
X1785952Y-16217851D01*
X1766905Y-16217851D01*
X1747857Y-16208327D01*
X1738333Y-16198803D01*
X1728809Y-16179756D01*
X1719286Y-16141661D01*
X1719286Y-16094042D01*
X1728809Y-16055946D01*
X1738333Y-16036899D01*
X1747857Y-16027375D01*
X1766905Y-16017851D01*
X1957381Y-16017851D02*
X1976428Y-16017851D01*
X1995476Y-16027375D01*
X2005000Y-16036899D01*
X2014524Y-16055946D01*
X2024048Y-16094042D01*
X2024048Y-16141661D01*
X2014524Y-16179756D01*
X2005000Y-16198803D01*
X1995476Y-16208327D01*
X1976428Y-16217851D01*
X1957381Y-16217851D01*
X1938333Y-16208327D01*
X1928809Y-16198803D01*
X1919286Y-16179756D01*
X1909762Y-16141661D01*
X1909762Y-16094042D01*
X1919286Y-16055946D01*
X1928809Y-16036899D01*
X1938333Y-16027375D01*
X1957381Y-16017851D01*
X2109762Y-16217851D02*
X2109762Y-16084518D01*
X2109762Y-16103565D02*
X2119286Y-16094042D01*
X2138333Y-16084518D01*
X2166905Y-16084518D01*
X2185952Y-16094042D01*
X2195476Y-16113089D01*
X2195476Y-16217851D01*
X2195476Y-16113089D02*
X2205000Y-16094042D01*
X2224048Y-16084518D01*
X2252619Y-16084518D01*
X2271667Y-16094042D01*
X2281190Y-16113089D01*
X2281190Y-16217851D01*
X2376429Y-16217851D02*
X2376429Y-16084518D01*
X2376429Y-16103565D02*
X2385952Y-16094042D01*
X2405000Y-16084518D01*
X2433571Y-16084518D01*
X2452619Y-16094042D01*
X2462143Y-16113089D01*
X2462143Y-16217851D01*
X2462143Y-16113089D02*
X2471667Y-16094042D01*
X2490714Y-16084518D01*
X2519286Y-16084518D01*
X2538333Y-16094042D01*
X2547857Y-16113089D01*
X2547857Y-16217851D01*
X2938333Y-16008327D02*
X2766905Y-16265470D01*
X3195476Y-16017851D02*
X3214524Y-16017851D01*
X3233571Y-16027375D01*
X3243095Y-16036899D01*
X3252619Y-16055946D01*
X3262143Y-16094042D01*
X3262143Y-16141661D01*
X3252619Y-16179756D01*
X3243095Y-16198803D01*
X3233571Y-16208327D01*
X3214524Y-16217851D01*
X3195476Y-16217851D01*
X3176428Y-16208327D01*
X3166905Y-16198803D01*
X3157381Y-16179756D01*
X3147857Y-16141661D01*
X3147857Y-16094042D01*
X3157381Y-16055946D01*
X3166905Y-16036899D01*
X3176428Y-16027375D01*
X3195476Y-16017851D01*
X3347857Y-16198803D02*
X3357381Y-16208327D01*
X3347857Y-16217851D01*
X3338333Y-16208327D01*
X3347857Y-16198803D01*
X3347857Y-16217851D01*
X3481190Y-16017851D02*
X3500238Y-16017851D01*
X3519286Y-16027375D01*
X3528809Y-16036899D01*
X3538333Y-16055946D01*
X3547857Y-16094042D01*
X3547857Y-16141661D01*
X3538333Y-16179756D01*
X3528809Y-16198803D01*
X3519286Y-16208327D01*
X3500238Y-16217851D01*
X3481190Y-16217851D01*
X3462143Y-16208327D01*
X3452619Y-16198803D01*
X3443095Y-16179756D01*
X3433571Y-16141661D01*
X3433571Y-16094042D01*
X3443095Y-16055946D01*
X3452619Y-16036899D01*
X3462143Y-16027375D01*
X3481190Y-16017851D01*
X3738333Y-16217851D02*
X3624048Y-16217851D01*
X3681190Y-16217851D02*
X3681190Y-16017851D01*
X3662143Y-16046423D01*
X3643095Y-16065470D01*
X3624048Y-16074994D01*
X3919286Y-16017851D02*
X3824048Y-16017851D01*
X3814524Y-16113089D01*
X3824048Y-16103565D01*
X3843095Y-16094042D01*
X3890714Y-16094042D01*
X3909762Y-16103565D01*
X3919286Y-16113089D01*
X3928809Y-16132137D01*
X3928809Y-16179756D01*
X3919286Y-16198803D01*
X3909762Y-16208327D01*
X3890714Y-16217851D01*
X3843095Y-16217851D01*
X3824048Y-16208327D01*
X3814524Y-16198803D01*
X3995476Y-16017851D02*
X4128809Y-16017851D01*
X4043095Y-16217851D01*
X4195476Y-16017851D02*
X4195476Y-16055946D01*
X4271667Y-16017851D02*
X4271667Y-16055946D01*
X4566905Y-16294042D02*
X4557381Y-16284518D01*
X4538333Y-16255946D01*
X4528810Y-16236899D01*
X4519286Y-16208327D01*
X4509762Y-16160708D01*
X4509762Y-16122613D01*
X4519286Y-16074994D01*
X4528810Y-16046423D01*
X4538333Y-16027375D01*
X4557381Y-15998803D01*
X4566905Y-15989280D01*
X4633571Y-16036899D02*
X4643095Y-16027375D01*
X4662143Y-16017851D01*
X4709762Y-16017851D01*
X4728810Y-16027375D01*
X4738333Y-16036899D01*
X4747857Y-16055946D01*
X4747857Y-16074994D01*
X4738333Y-16103565D01*
X4624048Y-16217851D01*
X4747857Y-16217851D01*
X4824048Y-16036899D02*
X4833571Y-16027375D01*
X4852619Y-16017851D01*
X4900238Y-16017851D01*
X4919286Y-16027375D01*
X4928810Y-16036899D01*
X4938333Y-16055946D01*
X4938333Y-16074994D01*
X4928810Y-16103565D01*
X4814524Y-16217851D01*
X4938333Y-16217851D01*
X5176429Y-16217851D02*
X5176429Y-16017851D01*
X5262143Y-16217851D02*
X5262143Y-16113089D01*
X5252619Y-16094042D01*
X5233571Y-16084518D01*
X5205000Y-16084518D01*
X5185952Y-16094042D01*
X5176429Y-16103565D01*
X5385952Y-16217851D02*
X5366905Y-16208327D01*
X5357381Y-16198803D01*
X5347857Y-16179756D01*
X5347857Y-16122613D01*
X5357381Y-16103565D01*
X5366905Y-16094042D01*
X5385952Y-16084518D01*
X5414524Y-16084518D01*
X5433571Y-16094042D01*
X5443095Y-16103565D01*
X5452619Y-16122613D01*
X5452619Y-16179756D01*
X5443095Y-16198803D01*
X5433571Y-16208327D01*
X5414524Y-16217851D01*
X5385952Y-16217851D01*
X5566905Y-16217851D02*
X5547857Y-16208327D01*
X5538333Y-16189280D01*
X5538333Y-16017851D01*
X5719286Y-16208327D02*
X5700238Y-16217851D01*
X5662143Y-16217851D01*
X5643095Y-16208327D01*
X5633571Y-16189280D01*
X5633571Y-16113089D01*
X5643095Y-16094042D01*
X5662143Y-16084518D01*
X5700238Y-16084518D01*
X5719286Y-16094042D01*
X5728809Y-16113089D01*
X5728809Y-16132137D01*
X5633571Y-16151184D01*
X5805000Y-16208327D02*
X5824048Y-16217851D01*
X5862143Y-16217851D01*
X5881190Y-16208327D01*
X5890714Y-16189280D01*
X5890714Y-16179756D01*
X5881190Y-16160708D01*
X5862143Y-16151184D01*
X5833571Y-16151184D01*
X5814524Y-16141661D01*
X5805000Y-16122613D01*
X5805000Y-16113089D01*
X5814524Y-16094042D01*
X5833571Y-16084518D01*
X5862143Y-16084518D01*
X5881190Y-16094042D01*
X5957381Y-16294042D02*
X5966905Y-16284518D01*
X5985952Y-16255946D01*
X5995476Y-16236899D01*
X6005000Y-16208327D01*
X6014524Y-16160708D01*
X6014524Y-16122613D01*
X6005000Y-16074994D01*
X5995476Y-16046423D01*
X5985952Y-16027375D01*
X5966905Y-15998803D01*
X5957381Y-15989280D01*
D13*
X989142Y-16405517D02*
X989142Y-16377233D01*
X960858Y-16377233D01*
X960858Y-16405517D01*
X989142Y-16405517D01*
D11*
X1290714Y-16281851D02*
X1309762Y-16281851D01*
X1328810Y-16291375D01*
X1338333Y-16300899D01*
X1347857Y-16319946D01*
X1357381Y-16358042D01*
X1357381Y-16405661D01*
X1347857Y-16443756D01*
X1338333Y-16462803D01*
X1328810Y-16472327D01*
X1309762Y-16481851D01*
X1290714Y-16481851D01*
X1271667Y-16472327D01*
X1262143Y-16462803D01*
X1252619Y-16443756D01*
X1243095Y-16405661D01*
X1243095Y-16358042D01*
X1252619Y-16319946D01*
X1262143Y-16300899D01*
X1271667Y-16291375D01*
X1290714Y-16281851D01*
X1443095Y-16462803D02*
X1452619Y-16472327D01*
X1443095Y-16481851D01*
X1433571Y-16472327D01*
X1443095Y-16462803D01*
X1443095Y-16481851D01*
X1624048Y-16348518D02*
X1624048Y-16481851D01*
X1576428Y-16272327D02*
X1528809Y-16415184D01*
X1652619Y-16415184D01*
X1766905Y-16281851D02*
X1785952Y-16281851D01*
X1805000Y-16291375D01*
X1814524Y-16300899D01*
X1824048Y-16319946D01*
X1833571Y-16358042D01*
X1833571Y-16405661D01*
X1824048Y-16443756D01*
X1814524Y-16462803D01*
X1805000Y-16472327D01*
X1785952Y-16481851D01*
X1766905Y-16481851D01*
X1747857Y-16472327D01*
X1738333Y-16462803D01*
X1728809Y-16443756D01*
X1719286Y-16405661D01*
X1719286Y-16358042D01*
X1728809Y-16319946D01*
X1738333Y-16300899D01*
X1747857Y-16291375D01*
X1766905Y-16281851D01*
X1957381Y-16281851D02*
X1976428Y-16281851D01*
X1995476Y-16291375D01*
X2005000Y-16300899D01*
X2014524Y-16319946D01*
X2024048Y-16358042D01*
X2024048Y-16405661D01*
X2014524Y-16443756D01*
X2005000Y-16462803D01*
X1995476Y-16472327D01*
X1976428Y-16481851D01*
X1957381Y-16481851D01*
X1938333Y-16472327D01*
X1928809Y-16462803D01*
X1919286Y-16443756D01*
X1909762Y-16405661D01*
X1909762Y-16358042D01*
X1919286Y-16319946D01*
X1928809Y-16300899D01*
X1938333Y-16291375D01*
X1957381Y-16281851D01*
X2109762Y-16481851D02*
X2109762Y-16348518D01*
X2109762Y-16367565D02*
X2119286Y-16358042D01*
X2138333Y-16348518D01*
X2166905Y-16348518D01*
X2185952Y-16358042D01*
X2195476Y-16377089D01*
X2195476Y-16481851D01*
X2195476Y-16377089D02*
X2205000Y-16358042D01*
X2224048Y-16348518D01*
X2252619Y-16348518D01*
X2271667Y-16358042D01*
X2281190Y-16377089D01*
X2281190Y-16481851D01*
X2376429Y-16481851D02*
X2376429Y-16348518D01*
X2376429Y-16367565D02*
X2385952Y-16358042D01*
X2405000Y-16348518D01*
X2433571Y-16348518D01*
X2452619Y-16358042D01*
X2462143Y-16377089D01*
X2462143Y-16481851D01*
X2462143Y-16377089D02*
X2471667Y-16358042D01*
X2490714Y-16348518D01*
X2519286Y-16348518D01*
X2538333Y-16358042D01*
X2547857Y-16377089D01*
X2547857Y-16481851D01*
X2938333Y-16272327D02*
X2766905Y-16529470D01*
X3195476Y-16281851D02*
X3214524Y-16281851D01*
X3233571Y-16291375D01*
X3243095Y-16300899D01*
X3252619Y-16319946D01*
X3262143Y-16358042D01*
X3262143Y-16405661D01*
X3252619Y-16443756D01*
X3243095Y-16462803D01*
X3233571Y-16472327D01*
X3214524Y-16481851D01*
X3195476Y-16481851D01*
X3176428Y-16472327D01*
X3166905Y-16462803D01*
X3157381Y-16443756D01*
X3147857Y-16405661D01*
X3147857Y-16358042D01*
X3157381Y-16319946D01*
X3166905Y-16300899D01*
X3176428Y-16291375D01*
X3195476Y-16281851D01*
X3347857Y-16462803D02*
X3357381Y-16472327D01*
X3347857Y-16481851D01*
X3338333Y-16472327D01*
X3347857Y-16462803D01*
X3347857Y-16481851D01*
X3481190Y-16281851D02*
X3500238Y-16281851D01*
X3519286Y-16291375D01*
X3528809Y-16300899D01*
X3538333Y-16319946D01*
X3547857Y-16358042D01*
X3547857Y-16405661D01*
X3538333Y-16443756D01*
X3528809Y-16462803D01*
X3519286Y-16472327D01*
X3500238Y-16481851D01*
X3481190Y-16481851D01*
X3462143Y-16472327D01*
X3452619Y-16462803D01*
X3443095Y-16443756D01*
X3433571Y-16405661D01*
X3433571Y-16358042D01*
X3443095Y-16319946D01*
X3452619Y-16300899D01*
X3462143Y-16291375D01*
X3481190Y-16281851D01*
X3738333Y-16481851D02*
X3624048Y-16481851D01*
X3681190Y-16481851D02*
X3681190Y-16281851D01*
X3662143Y-16310423D01*
X3643095Y-16329470D01*
X3624048Y-16338994D01*
X3919286Y-16281851D02*
X3824048Y-16281851D01*
X3814524Y-16377089D01*
X3824048Y-16367565D01*
X3843095Y-16358042D01*
X3890714Y-16358042D01*
X3909762Y-16367565D01*
X3919286Y-16377089D01*
X3928809Y-16396137D01*
X3928809Y-16443756D01*
X3919286Y-16462803D01*
X3909762Y-16472327D01*
X3890714Y-16481851D01*
X3843095Y-16481851D01*
X3824048Y-16472327D01*
X3814524Y-16462803D01*
X3995476Y-16281851D02*
X4128809Y-16281851D01*
X4043095Y-16481851D01*
X4195476Y-16281851D02*
X4195476Y-16319946D01*
X4271667Y-16281851D02*
X4271667Y-16319946D01*
X4566905Y-16558042D02*
X4557381Y-16548518D01*
X4538333Y-16519946D01*
X4528810Y-16500899D01*
X4519286Y-16472327D01*
X4509762Y-16424708D01*
X4509762Y-16386613D01*
X4519286Y-16338994D01*
X4528810Y-16310423D01*
X4538333Y-16291375D01*
X4557381Y-16262803D01*
X4566905Y-16253280D01*
X4747857Y-16481851D02*
X4633571Y-16481851D01*
X4690714Y-16481851D02*
X4690714Y-16281851D01*
X4671667Y-16310423D01*
X4652619Y-16329470D01*
X4633571Y-16338994D01*
X4919286Y-16281851D02*
X4881190Y-16281851D01*
X4862143Y-16291375D01*
X4852619Y-16300899D01*
X4833571Y-16329470D01*
X4824048Y-16367565D01*
X4824048Y-16443756D01*
X4833571Y-16462803D01*
X4843095Y-16472327D01*
X4862143Y-16481851D01*
X4900238Y-16481851D01*
X4919286Y-16472327D01*
X4928810Y-16462803D01*
X4938333Y-16443756D01*
X4938333Y-16396137D01*
X4928810Y-16377089D01*
X4919286Y-16367565D01*
X4900238Y-16358042D01*
X4862143Y-16358042D01*
X4843095Y-16367565D01*
X4833571Y-16377089D01*
X4824048Y-16396137D01*
X5176429Y-16481851D02*
X5176429Y-16281851D01*
X5262143Y-16481851D02*
X5262143Y-16377089D01*
X5252619Y-16358042D01*
X5233571Y-16348518D01*
X5205000Y-16348518D01*
X5185952Y-16358042D01*
X5176429Y-16367565D01*
X5385952Y-16481851D02*
X5366905Y-16472327D01*
X5357381Y-16462803D01*
X5347857Y-16443756D01*
X5347857Y-16386613D01*
X5357381Y-16367565D01*
X5366905Y-16358042D01*
X5385952Y-16348518D01*
X5414524Y-16348518D01*
X5433571Y-16358042D01*
X5443095Y-16367565D01*
X5452619Y-16386613D01*
X5452619Y-16443756D01*
X5443095Y-16462803D01*
X5433571Y-16472327D01*
X5414524Y-16481851D01*
X5385952Y-16481851D01*
X5566905Y-16481851D02*
X5547857Y-16472327D01*
X5538333Y-16453280D01*
X5538333Y-16281851D01*
X5719286Y-16472327D02*
X5700238Y-16481851D01*
X5662143Y-16481851D01*
X5643095Y-16472327D01*
X5633571Y-16453280D01*
X5633571Y-16377089D01*
X5643095Y-16358042D01*
X5662143Y-16348518D01*
X5700238Y-16348518D01*
X5719286Y-16358042D01*
X5728809Y-16377089D01*
X5728809Y-16396137D01*
X5633571Y-16415184D01*
X5805000Y-16472327D02*
X5824048Y-16481851D01*
X5862143Y-16481851D01*
X5881190Y-16472327D01*
X5890714Y-16453280D01*
X5890714Y-16443756D01*
X5881190Y-16424708D01*
X5862143Y-16415184D01*
X5833571Y-16415184D01*
X5814524Y-16405661D01*
X5805000Y-16386613D01*
X5805000Y-16377089D01*
X5814524Y-16358042D01*
X5833571Y-16348518D01*
X5862143Y-16348518D01*
X5881190Y-16358042D01*
X5957381Y-16558042D02*
X5966905Y-16548518D01*
X5985952Y-16519946D01*
X5995476Y-16500899D01*
X6005000Y-16472327D01*
X6014524Y-16424708D01*
X6014524Y-16386613D01*
X6005000Y-16338994D01*
X5995476Y-16310423D01*
X5985952Y-16291375D01*
X5966905Y-16262803D01*
X5957381Y-16253280D01*
D14*
X972500Y-16677875D02*
X995000Y-16655375D01*
X972500Y-16632875D01*
X950000Y-16655375D01*
X972500Y-16677875D01*
D11*
X1290714Y-16545851D02*
X1309762Y-16545851D01*
X1328810Y-16555375D01*
X1338333Y-16564899D01*
X1347857Y-16583946D01*
X1357381Y-16622042D01*
X1357381Y-16669661D01*
X1347857Y-16707756D01*
X1338333Y-16726803D01*
X1328810Y-16736327D01*
X1309762Y-16745851D01*
X1290714Y-16745851D01*
X1271667Y-16736327D01*
X1262143Y-16726803D01*
X1252619Y-16707756D01*
X1243095Y-16669661D01*
X1243095Y-16622042D01*
X1252619Y-16583946D01*
X1262143Y-16564899D01*
X1271667Y-16555375D01*
X1290714Y-16545851D01*
X1443095Y-16726803D02*
X1452619Y-16736327D01*
X1443095Y-16745851D01*
X1433571Y-16736327D01*
X1443095Y-16726803D01*
X1443095Y-16745851D01*
X1624048Y-16612518D02*
X1624048Y-16745851D01*
X1576428Y-16536327D02*
X1528809Y-16679184D01*
X1652619Y-16679184D01*
X1824048Y-16545851D02*
X1728809Y-16545851D01*
X1719286Y-16641089D01*
X1728809Y-16631565D01*
X1747857Y-16622042D01*
X1795476Y-16622042D01*
X1814524Y-16631565D01*
X1824048Y-16641089D01*
X1833571Y-16660137D01*
X1833571Y-16707756D01*
X1824048Y-16726803D01*
X1814524Y-16736327D01*
X1795476Y-16745851D01*
X1747857Y-16745851D01*
X1728809Y-16736327D01*
X1719286Y-16726803D01*
X1957381Y-16545851D02*
X1976428Y-16545851D01*
X1995476Y-16555375D01*
X2005000Y-16564899D01*
X2014524Y-16583946D01*
X2024048Y-16622042D01*
X2024048Y-16669661D01*
X2014524Y-16707756D01*
X2005000Y-16726803D01*
X1995476Y-16736327D01*
X1976428Y-16745851D01*
X1957381Y-16745851D01*
X1938333Y-16736327D01*
X1928809Y-16726803D01*
X1919286Y-16707756D01*
X1909762Y-16669661D01*
X1909762Y-16622042D01*
X1919286Y-16583946D01*
X1928809Y-16564899D01*
X1938333Y-16555375D01*
X1957381Y-16545851D01*
X2109762Y-16745851D02*
X2109762Y-16612518D01*
X2109762Y-16631565D02*
X2119286Y-16622042D01*
X2138333Y-16612518D01*
X2166905Y-16612518D01*
X2185952Y-16622042D01*
X2195476Y-16641089D01*
X2195476Y-16745851D01*
X2195476Y-16641089D02*
X2205000Y-16622042D01*
X2224048Y-16612518D01*
X2252619Y-16612518D01*
X2271667Y-16622042D01*
X2281190Y-16641089D01*
X2281190Y-16745851D01*
X2376429Y-16745851D02*
X2376429Y-16612518D01*
X2376429Y-16631565D02*
X2385952Y-16622042D01*
X2405000Y-16612518D01*
X2433571Y-16612518D01*
X2452619Y-16622042D01*
X2462143Y-16641089D01*
X2462143Y-16745851D01*
X2462143Y-16641089D02*
X2471667Y-16622042D01*
X2490714Y-16612518D01*
X2519286Y-16612518D01*
X2538333Y-16622042D01*
X2547857Y-16641089D01*
X2547857Y-16745851D01*
X2938333Y-16536327D02*
X2766905Y-16793470D01*
X3195476Y-16545851D02*
X3214524Y-16545851D01*
X3233571Y-16555375D01*
X3243095Y-16564899D01*
X3252619Y-16583946D01*
X3262143Y-16622042D01*
X3262143Y-16669661D01*
X3252619Y-16707756D01*
X3243095Y-16726803D01*
X3233571Y-16736327D01*
X3214524Y-16745851D01*
X3195476Y-16745851D01*
X3176428Y-16736327D01*
X3166905Y-16726803D01*
X3157381Y-16707756D01*
X3147857Y-16669661D01*
X3147857Y-16622042D01*
X3157381Y-16583946D01*
X3166905Y-16564899D01*
X3176428Y-16555375D01*
X3195476Y-16545851D01*
X3347857Y-16726803D02*
X3357381Y-16736327D01*
X3347857Y-16745851D01*
X3338333Y-16736327D01*
X3347857Y-16726803D01*
X3347857Y-16745851D01*
X3481190Y-16545851D02*
X3500238Y-16545851D01*
X3519286Y-16555375D01*
X3528809Y-16564899D01*
X3538333Y-16583946D01*
X3547857Y-16622042D01*
X3547857Y-16669661D01*
X3538333Y-16707756D01*
X3528809Y-16726803D01*
X3519286Y-16736327D01*
X3500238Y-16745851D01*
X3481190Y-16745851D01*
X3462143Y-16736327D01*
X3452619Y-16726803D01*
X3443095Y-16707756D01*
X3433571Y-16669661D01*
X3433571Y-16622042D01*
X3443095Y-16583946D01*
X3452619Y-16564899D01*
X3462143Y-16555375D01*
X3481190Y-16545851D01*
X3738333Y-16745851D02*
X3624048Y-16745851D01*
X3681190Y-16745851D02*
X3681190Y-16545851D01*
X3662143Y-16574423D01*
X3643095Y-16593470D01*
X3624048Y-16602994D01*
X3805000Y-16545851D02*
X3938333Y-16545851D01*
X3852619Y-16745851D01*
X3995476Y-16545851D02*
X4128809Y-16545851D01*
X4043095Y-16745851D01*
X4195476Y-16545851D02*
X4195476Y-16583946D01*
X4271667Y-16545851D02*
X4271667Y-16583946D01*
X4566905Y-16822042D02*
X4557381Y-16812518D01*
X4538333Y-16783946D01*
X4528810Y-16764899D01*
X4519286Y-16736327D01*
X4509762Y-16688708D01*
X4509762Y-16650613D01*
X4519286Y-16602994D01*
X4528810Y-16574423D01*
X4538333Y-16555375D01*
X4557381Y-16526803D01*
X4566905Y-16517280D01*
X4681190Y-16545851D02*
X4700238Y-16545851D01*
X4719286Y-16555375D01*
X4728810Y-16564899D01*
X4738333Y-16583946D01*
X4747857Y-16622042D01*
X4747857Y-16669661D01*
X4738333Y-16707756D01*
X4728810Y-16726803D01*
X4719286Y-16736327D01*
X4700238Y-16745851D01*
X4681190Y-16745851D01*
X4662143Y-16736327D01*
X4652619Y-16726803D01*
X4643095Y-16707756D01*
X4633571Y-16669661D01*
X4633571Y-16622042D01*
X4643095Y-16583946D01*
X4652619Y-16564899D01*
X4662143Y-16555375D01*
X4681190Y-16545851D01*
X4985952Y-16745851D02*
X4985952Y-16545851D01*
X5071667Y-16745851D02*
X5071667Y-16641089D01*
X5062143Y-16622042D01*
X5043095Y-16612518D01*
X5014524Y-16612518D01*
X4995476Y-16622042D01*
X4985952Y-16631565D01*
X5195476Y-16745851D02*
X5176429Y-16736327D01*
X5166905Y-16726803D01*
X5157381Y-16707756D01*
X5157381Y-16650613D01*
X5166905Y-16631565D01*
X5176429Y-16622042D01*
X5195476Y-16612518D01*
X5224048Y-16612518D01*
X5243095Y-16622042D01*
X5252619Y-16631565D01*
X5262143Y-16650613D01*
X5262143Y-16707756D01*
X5252619Y-16726803D01*
X5243095Y-16736327D01*
X5224048Y-16745851D01*
X5195476Y-16745851D01*
X5376429Y-16745851D02*
X5357381Y-16736327D01*
X5347857Y-16717280D01*
X5347857Y-16545851D01*
X5528810Y-16736327D02*
X5509762Y-16745851D01*
X5471667Y-16745851D01*
X5452619Y-16736327D01*
X5443095Y-16717280D01*
X5443095Y-16641089D01*
X5452619Y-16622042D01*
X5471667Y-16612518D01*
X5509762Y-16612518D01*
X5528810Y-16622042D01*
X5538333Y-16641089D01*
X5538333Y-16660137D01*
X5443095Y-16679184D01*
X5614524Y-16736327D02*
X5633571Y-16745851D01*
X5671667Y-16745851D01*
X5690714Y-16736327D01*
X5700238Y-16717280D01*
X5700238Y-16707756D01*
X5690714Y-16688708D01*
X5671667Y-16679184D01*
X5643095Y-16679184D01*
X5624048Y-16669661D01*
X5614524Y-16650613D01*
X5614524Y-16641089D01*
X5624048Y-16622042D01*
X5643095Y-16612518D01*
X5671667Y-16612518D01*
X5690714Y-16622042D01*
X5938333Y-16669661D02*
X6090714Y-16669661D01*
X6014524Y-16745851D02*
X6014524Y-16593470D01*
X6424048Y-16612518D02*
X6424048Y-16745851D01*
X6376428Y-16536327D02*
X6328809Y-16679184D01*
X6452619Y-16679184D01*
X6671667Y-16736327D02*
X6690714Y-16745851D01*
X6728809Y-16745851D01*
X6747857Y-16736327D01*
X6757381Y-16717280D01*
X6757381Y-16707756D01*
X6747857Y-16688708D01*
X6728809Y-16679184D01*
X6700238Y-16679184D01*
X6681190Y-16669661D01*
X6671667Y-16650613D01*
X6671667Y-16641089D01*
X6681190Y-16622042D01*
X6700238Y-16612518D01*
X6728809Y-16612518D01*
X6747857Y-16622042D01*
X6871667Y-16745851D02*
X6852619Y-16736327D01*
X6843095Y-16717280D01*
X6843095Y-16545851D01*
X6976428Y-16745851D02*
X6957381Y-16736327D01*
X6947857Y-16726803D01*
X6938333Y-16707756D01*
X6938333Y-16650613D01*
X6947857Y-16631565D01*
X6957381Y-16622042D01*
X6976428Y-16612518D01*
X7005000Y-16612518D01*
X7024048Y-16622042D01*
X7033571Y-16631565D01*
X7043095Y-16650613D01*
X7043095Y-16707756D01*
X7033571Y-16726803D01*
X7024048Y-16736327D01*
X7005000Y-16745851D01*
X6976428Y-16745851D01*
X7100238Y-16612518D02*
X7176428Y-16612518D01*
X7128809Y-16545851D02*
X7128809Y-16717280D01*
X7138333Y-16736327D01*
X7157381Y-16745851D01*
X7176428Y-16745851D01*
X7233571Y-16736327D02*
X7252619Y-16745851D01*
X7290714Y-16745851D01*
X7309762Y-16736327D01*
X7319286Y-16717280D01*
X7319286Y-16707756D01*
X7309762Y-16688708D01*
X7290714Y-16679184D01*
X7262143Y-16679184D01*
X7243095Y-16669661D01*
X7233571Y-16650613D01*
X7233571Y-16641089D01*
X7243095Y-16622042D01*
X7262143Y-16612518D01*
X7290714Y-16612518D01*
X7309762Y-16622042D01*
X7385952Y-16822042D02*
X7395476Y-16812518D01*
X7414524Y-16783946D01*
X7424048Y-16764899D01*
X7433571Y-16736327D01*
X7443095Y-16688708D01*
X7443095Y-16650613D01*
X7433571Y-16602994D01*
X7424048Y-16574423D01*
X7414524Y-16555375D01*
X7395476Y-16526803D01*
X7385952Y-16517280D01*
D15*
X935000Y-16889375D02*
X995000Y-16949375D01*
X995000Y-16889375D02*
X935000Y-16949375D01*
X995000Y-16919375D02*
G75*
G03*
X995000Y-16919375I-30000J0D01*
G01*
D11*
X1290714Y-16809851D02*
X1309762Y-16809851D01*
X1328810Y-16819375D01*
X1338333Y-16828899D01*
X1347857Y-16847946D01*
X1357381Y-16886042D01*
X1357381Y-16933661D01*
X1347857Y-16971756D01*
X1338333Y-16990804D01*
X1328810Y-17000327D01*
X1309762Y-17009851D01*
X1290714Y-17009851D01*
X1271667Y-17000327D01*
X1262143Y-16990804D01*
X1252619Y-16971756D01*
X1243095Y-16933661D01*
X1243095Y-16886042D01*
X1252619Y-16847946D01*
X1262143Y-16828899D01*
X1271667Y-16819375D01*
X1290714Y-16809851D01*
X1443095Y-16990804D02*
X1452619Y-17000327D01*
X1443095Y-17009851D01*
X1433571Y-17000327D01*
X1443095Y-16990804D01*
X1443095Y-17009851D01*
X1624048Y-16809851D02*
X1585952Y-16809851D01*
X1566905Y-16819375D01*
X1557381Y-16828899D01*
X1538333Y-16857470D01*
X1528809Y-16895565D01*
X1528809Y-16971756D01*
X1538333Y-16990804D01*
X1547857Y-17000327D01*
X1566905Y-17009851D01*
X1605000Y-17009851D01*
X1624048Y-17000327D01*
X1633571Y-16990804D01*
X1643095Y-16971756D01*
X1643095Y-16924137D01*
X1633571Y-16905089D01*
X1624048Y-16895565D01*
X1605000Y-16886042D01*
X1566905Y-16886042D01*
X1547857Y-16895565D01*
X1538333Y-16905089D01*
X1528809Y-16924137D01*
X1766905Y-16809851D02*
X1785952Y-16809851D01*
X1805000Y-16819375D01*
X1814524Y-16828899D01*
X1824048Y-16847946D01*
X1833571Y-16886042D01*
X1833571Y-16933661D01*
X1824048Y-16971756D01*
X1814524Y-16990804D01*
X1805000Y-17000327D01*
X1785952Y-17009851D01*
X1766905Y-17009851D01*
X1747857Y-17000327D01*
X1738333Y-16990804D01*
X1728809Y-16971756D01*
X1719286Y-16933661D01*
X1719286Y-16886042D01*
X1728809Y-16847946D01*
X1738333Y-16828899D01*
X1747857Y-16819375D01*
X1766905Y-16809851D01*
X1957381Y-16809851D02*
X1976428Y-16809851D01*
X1995476Y-16819375D01*
X2005000Y-16828899D01*
X2014524Y-16847946D01*
X2024048Y-16886042D01*
X2024048Y-16933661D01*
X2014524Y-16971756D01*
X2005000Y-16990804D01*
X1995476Y-17000327D01*
X1976428Y-17009851D01*
X1957381Y-17009851D01*
X1938333Y-17000327D01*
X1928809Y-16990804D01*
X1919286Y-16971756D01*
X1909762Y-16933661D01*
X1909762Y-16886042D01*
X1919286Y-16847946D01*
X1928809Y-16828899D01*
X1938333Y-16819375D01*
X1957381Y-16809851D01*
X2109762Y-17009851D02*
X2109762Y-16876518D01*
X2109762Y-16895565D02*
X2119286Y-16886042D01*
X2138333Y-16876518D01*
X2166905Y-16876518D01*
X2185952Y-16886042D01*
X2195476Y-16905089D01*
X2195476Y-17009851D01*
X2195476Y-16905089D02*
X2205000Y-16886042D01*
X2224048Y-16876518D01*
X2252619Y-16876518D01*
X2271667Y-16886042D01*
X2281190Y-16905089D01*
X2281190Y-17009851D01*
X2376429Y-17009851D02*
X2376429Y-16876518D01*
X2376429Y-16895565D02*
X2385952Y-16886042D01*
X2405000Y-16876518D01*
X2433571Y-16876518D01*
X2452619Y-16886042D01*
X2462143Y-16905089D01*
X2462143Y-17009851D01*
X2462143Y-16905089D02*
X2471667Y-16886042D01*
X2490714Y-16876518D01*
X2519286Y-16876518D01*
X2538333Y-16886042D01*
X2547857Y-16905089D01*
X2547857Y-17009851D01*
X2938333Y-16800327D02*
X2766905Y-17057470D01*
X3195476Y-16809851D02*
X3214524Y-16809851D01*
X3233571Y-16819375D01*
X3243095Y-16828899D01*
X3252619Y-16847946D01*
X3262143Y-16886042D01*
X3262143Y-16933661D01*
X3252619Y-16971756D01*
X3243095Y-16990804D01*
X3233571Y-17000327D01*
X3214524Y-17009851D01*
X3195476Y-17009851D01*
X3176428Y-17000327D01*
X3166905Y-16990804D01*
X3157381Y-16971756D01*
X3147857Y-16933661D01*
X3147857Y-16886042D01*
X3157381Y-16847946D01*
X3166905Y-16828899D01*
X3176428Y-16819375D01*
X3195476Y-16809851D01*
X3347857Y-16990804D02*
X3357381Y-17000327D01*
X3347857Y-17009851D01*
X3338333Y-17000327D01*
X3347857Y-16990804D01*
X3347857Y-17009851D01*
X3481190Y-16809851D02*
X3500238Y-16809851D01*
X3519286Y-16819375D01*
X3528809Y-16828899D01*
X3538333Y-16847946D01*
X3547857Y-16886042D01*
X3547857Y-16933661D01*
X3538333Y-16971756D01*
X3528809Y-16990804D01*
X3519286Y-17000327D01*
X3500238Y-17009851D01*
X3481190Y-17009851D01*
X3462143Y-17000327D01*
X3452619Y-16990804D01*
X3443095Y-16971756D01*
X3433571Y-16933661D01*
X3433571Y-16886042D01*
X3443095Y-16847946D01*
X3452619Y-16828899D01*
X3462143Y-16819375D01*
X3481190Y-16809851D01*
X3624048Y-16828899D02*
X3633571Y-16819375D01*
X3652619Y-16809851D01*
X3700238Y-16809851D01*
X3719286Y-16819375D01*
X3728809Y-16828899D01*
X3738333Y-16847946D01*
X3738333Y-16866994D01*
X3728809Y-16895565D01*
X3614524Y-17009851D01*
X3738333Y-17009851D01*
X3805000Y-16809851D02*
X3928809Y-16809851D01*
X3862143Y-16886042D01*
X3890714Y-16886042D01*
X3909762Y-16895565D01*
X3919286Y-16905089D01*
X3928809Y-16924137D01*
X3928809Y-16971756D01*
X3919286Y-16990804D01*
X3909762Y-17000327D01*
X3890714Y-17009851D01*
X3833571Y-17009851D01*
X3814524Y-17000327D01*
X3805000Y-16990804D01*
X4100238Y-16809851D02*
X4062143Y-16809851D01*
X4043095Y-16819375D01*
X4033571Y-16828899D01*
X4014524Y-16857470D01*
X4005000Y-16895565D01*
X4005000Y-16971756D01*
X4014524Y-16990804D01*
X4024048Y-17000327D01*
X4043095Y-17009851D01*
X4081190Y-17009851D01*
X4100238Y-17000327D01*
X4109762Y-16990804D01*
X4119286Y-16971756D01*
X4119286Y-16924137D01*
X4109762Y-16905089D01*
X4100238Y-16895565D01*
X4081190Y-16886042D01*
X4043095Y-16886042D01*
X4024048Y-16895565D01*
X4014524Y-16905089D01*
X4005000Y-16924137D01*
X4195476Y-16809851D02*
X4195476Y-16847946D01*
X4271667Y-16809851D02*
X4271667Y-16847946D01*
X4566905Y-17086042D02*
X4557381Y-17076518D01*
X4538333Y-17047946D01*
X4528810Y-17028899D01*
X4519286Y-17000327D01*
X4509762Y-16952708D01*
X4509762Y-16914613D01*
X4519286Y-16866994D01*
X4528810Y-16838423D01*
X4538333Y-16819375D01*
X4557381Y-16790804D01*
X4566905Y-16781280D01*
X4633571Y-16828899D02*
X4643095Y-16819375D01*
X4662143Y-16809851D01*
X4709762Y-16809851D01*
X4728810Y-16819375D01*
X4738333Y-16828899D01*
X4747857Y-16847946D01*
X4747857Y-16866994D01*
X4738333Y-16895565D01*
X4624048Y-17009851D01*
X4747857Y-17009851D01*
X4985952Y-17009851D02*
X4985952Y-16809851D01*
X5071667Y-17009851D02*
X5071667Y-16905089D01*
X5062143Y-16886042D01*
X5043095Y-16876518D01*
X5014524Y-16876518D01*
X4995476Y-16886042D01*
X4985952Y-16895565D01*
X5195476Y-17009851D02*
X5176429Y-17000327D01*
X5166905Y-16990804D01*
X5157381Y-16971756D01*
X5157381Y-16914613D01*
X5166905Y-16895565D01*
X5176429Y-16886042D01*
X5195476Y-16876518D01*
X5224048Y-16876518D01*
X5243095Y-16886042D01*
X5252619Y-16895565D01*
X5262143Y-16914613D01*
X5262143Y-16971756D01*
X5252619Y-16990804D01*
X5243095Y-17000327D01*
X5224048Y-17009851D01*
X5195476Y-17009851D01*
X5376429Y-17009851D02*
X5357381Y-17000327D01*
X5347857Y-16981280D01*
X5347857Y-16809851D01*
X5528810Y-17000327D02*
X5509762Y-17009851D01*
X5471667Y-17009851D01*
X5452619Y-17000327D01*
X5443095Y-16981280D01*
X5443095Y-16905089D01*
X5452619Y-16886042D01*
X5471667Y-16876518D01*
X5509762Y-16876518D01*
X5528810Y-16886042D01*
X5538333Y-16905089D01*
X5538333Y-16924137D01*
X5443095Y-16943185D01*
X5614524Y-17000327D02*
X5633571Y-17009851D01*
X5671667Y-17009851D01*
X5690714Y-17000327D01*
X5700238Y-16981280D01*
X5700238Y-16971756D01*
X5690714Y-16952708D01*
X5671667Y-16943185D01*
X5643095Y-16943185D01*
X5624048Y-16933661D01*
X5614524Y-16914613D01*
X5614524Y-16905089D01*
X5624048Y-16886042D01*
X5643095Y-16876518D01*
X5671667Y-16876518D01*
X5690714Y-16886042D01*
X5938333Y-16933661D02*
X6090714Y-16933661D01*
X6014524Y-17009851D02*
X6014524Y-16857470D01*
X6424048Y-16876518D02*
X6424048Y-17009851D01*
X6376428Y-16800327D02*
X6328809Y-16943185D01*
X6452619Y-16943185D01*
X6671667Y-17000327D02*
X6690714Y-17009851D01*
X6728809Y-17009851D01*
X6747857Y-17000327D01*
X6757381Y-16981280D01*
X6757381Y-16971756D01*
X6747857Y-16952708D01*
X6728809Y-16943185D01*
X6700238Y-16943185D01*
X6681190Y-16933661D01*
X6671667Y-16914613D01*
X6671667Y-16905089D01*
X6681190Y-16886042D01*
X6700238Y-16876518D01*
X6728809Y-16876518D01*
X6747857Y-16886042D01*
X6871667Y-17009851D02*
X6852619Y-17000327D01*
X6843095Y-16981280D01*
X6843095Y-16809851D01*
X6976428Y-17009851D02*
X6957381Y-17000327D01*
X6947857Y-16990804D01*
X6938333Y-16971756D01*
X6938333Y-16914613D01*
X6947857Y-16895565D01*
X6957381Y-16886042D01*
X6976428Y-16876518D01*
X7005000Y-16876518D01*
X7024048Y-16886042D01*
X7033571Y-16895565D01*
X7043095Y-16914613D01*
X7043095Y-16971756D01*
X7033571Y-16990804D01*
X7024048Y-17000327D01*
X7005000Y-17009851D01*
X6976428Y-17009851D01*
X7100238Y-16876518D02*
X7176428Y-16876518D01*
X7128809Y-16809851D02*
X7128809Y-16981280D01*
X7138333Y-17000327D01*
X7157381Y-17009851D01*
X7176428Y-17009851D01*
X7233571Y-17000327D02*
X7252619Y-17009851D01*
X7290714Y-17009851D01*
X7309762Y-17000327D01*
X7319286Y-16981280D01*
X7319286Y-16971756D01*
X7309762Y-16952708D01*
X7290714Y-16943185D01*
X7262143Y-16943185D01*
X7243095Y-16933661D01*
X7233571Y-16914613D01*
X7233571Y-16905089D01*
X7243095Y-16886042D01*
X7262143Y-16876518D01*
X7290714Y-16876518D01*
X7309762Y-16886042D01*
X7385952Y-17086042D02*
X7395476Y-17076518D01*
X7414524Y-17047946D01*
X7424048Y-17028899D01*
X7433571Y-17000327D01*
X7443095Y-16952708D01*
X7443095Y-16914613D01*
X7433571Y-16866994D01*
X7424048Y-16838423D01*
X7414524Y-16819375D01*
X7395476Y-16790804D01*
X7385952Y-16781280D01*
D16*
X925000Y-17148375D02*
X995000Y-17218375D01*
X995000Y-17148375D02*
X925000Y-17218375D01*
X960000Y-17148375D02*
X960000Y-17218375D01*
X925000Y-17183375D02*
X995000Y-17183375D01*
D11*
X1290714Y-17073851D02*
X1309762Y-17073851D01*
X1328810Y-17083375D01*
X1338333Y-17092899D01*
X1347857Y-17111946D01*
X1357381Y-17150042D01*
X1357381Y-17197661D01*
X1347857Y-17235756D01*
X1338333Y-17254804D01*
X1328810Y-17264327D01*
X1309762Y-17273851D01*
X1290714Y-17273851D01*
X1271667Y-17264327D01*
X1262143Y-17254804D01*
X1252619Y-17235756D01*
X1243095Y-17197661D01*
X1243095Y-17150042D01*
X1252619Y-17111946D01*
X1262143Y-17092899D01*
X1271667Y-17083375D01*
X1290714Y-17073851D01*
X1443095Y-17254804D02*
X1452619Y-17264327D01*
X1443095Y-17273851D01*
X1433571Y-17264327D01*
X1443095Y-17254804D01*
X1443095Y-17273851D01*
X1519286Y-17073851D02*
X1652619Y-17073851D01*
X1566905Y-17273851D01*
X1766905Y-17073851D02*
X1785952Y-17073851D01*
X1805000Y-17083375D01*
X1814524Y-17092899D01*
X1824048Y-17111946D01*
X1833571Y-17150042D01*
X1833571Y-17197661D01*
X1824048Y-17235756D01*
X1814524Y-17254804D01*
X1805000Y-17264327D01*
X1785952Y-17273851D01*
X1766905Y-17273851D01*
X1747857Y-17264327D01*
X1738333Y-17254804D01*
X1728809Y-17235756D01*
X1719286Y-17197661D01*
X1719286Y-17150042D01*
X1728809Y-17111946D01*
X1738333Y-17092899D01*
X1747857Y-17083375D01*
X1766905Y-17073851D01*
X1957381Y-17073851D02*
X1976428Y-17073851D01*
X1995476Y-17083375D01*
X2005000Y-17092899D01*
X2014524Y-17111946D01*
X2024048Y-17150042D01*
X2024048Y-17197661D01*
X2014524Y-17235756D01*
X2005000Y-17254804D01*
X1995476Y-17264327D01*
X1976428Y-17273851D01*
X1957381Y-17273851D01*
X1938333Y-17264327D01*
X1928809Y-17254804D01*
X1919286Y-17235756D01*
X1909762Y-17197661D01*
X1909762Y-17150042D01*
X1919286Y-17111946D01*
X1928809Y-17092899D01*
X1938333Y-17083375D01*
X1957381Y-17073851D01*
X2109762Y-17273851D02*
X2109762Y-17140518D01*
X2109762Y-17159565D02*
X2119286Y-17150042D01*
X2138333Y-17140518D01*
X2166905Y-17140518D01*
X2185952Y-17150042D01*
X2195476Y-17169089D01*
X2195476Y-17273851D01*
X2195476Y-17169089D02*
X2205000Y-17150042D01*
X2224048Y-17140518D01*
X2252619Y-17140518D01*
X2271667Y-17150042D01*
X2281190Y-17169089D01*
X2281190Y-17273851D01*
X2376429Y-17273851D02*
X2376429Y-17140518D01*
X2376429Y-17159565D02*
X2385952Y-17150042D01*
X2405000Y-17140518D01*
X2433571Y-17140518D01*
X2452619Y-17150042D01*
X2462143Y-17169089D01*
X2462143Y-17273851D01*
X2462143Y-17169089D02*
X2471667Y-17150042D01*
X2490714Y-17140518D01*
X2519286Y-17140518D01*
X2538333Y-17150042D01*
X2547857Y-17169089D01*
X2547857Y-17273851D01*
X2938333Y-17064327D02*
X2766905Y-17321470D01*
X3195476Y-17073851D02*
X3214524Y-17073851D01*
X3233571Y-17083375D01*
X3243095Y-17092899D01*
X3252619Y-17111946D01*
X3262143Y-17150042D01*
X3262143Y-17197661D01*
X3252619Y-17235756D01*
X3243095Y-17254804D01*
X3233571Y-17264327D01*
X3214524Y-17273851D01*
X3195476Y-17273851D01*
X3176428Y-17264327D01*
X3166905Y-17254804D01*
X3157381Y-17235756D01*
X3147857Y-17197661D01*
X3147857Y-17150042D01*
X3157381Y-17111946D01*
X3166905Y-17092899D01*
X3176428Y-17083375D01*
X3195476Y-17073851D01*
X3347857Y-17254804D02*
X3357381Y-17264327D01*
X3347857Y-17273851D01*
X3338333Y-17264327D01*
X3347857Y-17254804D01*
X3347857Y-17273851D01*
X3481190Y-17073851D02*
X3500238Y-17073851D01*
X3519286Y-17083375D01*
X3528809Y-17092899D01*
X3538333Y-17111946D01*
X3547857Y-17150042D01*
X3547857Y-17197661D01*
X3538333Y-17235756D01*
X3528809Y-17254804D01*
X3519286Y-17264327D01*
X3500238Y-17273851D01*
X3481190Y-17273851D01*
X3462143Y-17264327D01*
X3452619Y-17254804D01*
X3443095Y-17235756D01*
X3433571Y-17197661D01*
X3433571Y-17150042D01*
X3443095Y-17111946D01*
X3452619Y-17092899D01*
X3462143Y-17083375D01*
X3481190Y-17073851D01*
X3624048Y-17092899D02*
X3633571Y-17083375D01*
X3652619Y-17073851D01*
X3700238Y-17073851D01*
X3719286Y-17083375D01*
X3728809Y-17092899D01*
X3738333Y-17111946D01*
X3738333Y-17130994D01*
X3728809Y-17159565D01*
X3614524Y-17273851D01*
X3738333Y-17273851D01*
X3805000Y-17073851D02*
X3938333Y-17073851D01*
X3852619Y-17273851D01*
X4100238Y-17073851D02*
X4062143Y-17073851D01*
X4043095Y-17083375D01*
X4033571Y-17092899D01*
X4014524Y-17121470D01*
X4005000Y-17159565D01*
X4005000Y-17235756D01*
X4014524Y-17254804D01*
X4024048Y-17264327D01*
X4043095Y-17273851D01*
X4081190Y-17273851D01*
X4100238Y-17264327D01*
X4109762Y-17254804D01*
X4119286Y-17235756D01*
X4119286Y-17188137D01*
X4109762Y-17169089D01*
X4100238Y-17159565D01*
X4081190Y-17150042D01*
X4043095Y-17150042D01*
X4024048Y-17159565D01*
X4014524Y-17169089D01*
X4005000Y-17188137D01*
X4195476Y-17073851D02*
X4195476Y-17111946D01*
X4271667Y-17073851D02*
X4271667Y-17111946D01*
X4566905Y-17350042D02*
X4557381Y-17340518D01*
X4538333Y-17311946D01*
X4528810Y-17292899D01*
X4519286Y-17264327D01*
X4509762Y-17216708D01*
X4509762Y-17178613D01*
X4519286Y-17130994D01*
X4528810Y-17102423D01*
X4538333Y-17083375D01*
X4557381Y-17054804D01*
X4566905Y-17045280D01*
X4633571Y-17092899D02*
X4643095Y-17083375D01*
X4662143Y-17073851D01*
X4709762Y-17073851D01*
X4728810Y-17083375D01*
X4738333Y-17092899D01*
X4747857Y-17111946D01*
X4747857Y-17130994D01*
X4738333Y-17159565D01*
X4624048Y-17273851D01*
X4747857Y-17273851D01*
X4938333Y-17273851D02*
X4824048Y-17273851D01*
X4881190Y-17273851D02*
X4881190Y-17073851D01*
X4862143Y-17102423D01*
X4843095Y-17121470D01*
X4824048Y-17130994D01*
X5176429Y-17273851D02*
X5176429Y-17073851D01*
X5262143Y-17273851D02*
X5262143Y-17169089D01*
X5252619Y-17150042D01*
X5233571Y-17140518D01*
X5205000Y-17140518D01*
X5185952Y-17150042D01*
X5176429Y-17159565D01*
X5385952Y-17273851D02*
X5366905Y-17264327D01*
X5357381Y-17254804D01*
X5347857Y-17235756D01*
X5347857Y-17178613D01*
X5357381Y-17159565D01*
X5366905Y-17150042D01*
X5385952Y-17140518D01*
X5414524Y-17140518D01*
X5433571Y-17150042D01*
X5443095Y-17159565D01*
X5452619Y-17178613D01*
X5452619Y-17235756D01*
X5443095Y-17254804D01*
X5433571Y-17264327D01*
X5414524Y-17273851D01*
X5385952Y-17273851D01*
X5566905Y-17273851D02*
X5547857Y-17264327D01*
X5538333Y-17245280D01*
X5538333Y-17073851D01*
X5719286Y-17264327D02*
X5700238Y-17273851D01*
X5662143Y-17273851D01*
X5643095Y-17264327D01*
X5633571Y-17245280D01*
X5633571Y-17169089D01*
X5643095Y-17150042D01*
X5662143Y-17140518D01*
X5700238Y-17140518D01*
X5719286Y-17150042D01*
X5728809Y-17169089D01*
X5728809Y-17188137D01*
X5633571Y-17207185D01*
X5805000Y-17264327D02*
X5824048Y-17273851D01*
X5862143Y-17273851D01*
X5881190Y-17264327D01*
X5890714Y-17245280D01*
X5890714Y-17235756D01*
X5881190Y-17216708D01*
X5862143Y-17207185D01*
X5833571Y-17207185D01*
X5814524Y-17197661D01*
X5805000Y-17178613D01*
X5805000Y-17169089D01*
X5814524Y-17150042D01*
X5833571Y-17140518D01*
X5862143Y-17140518D01*
X5881190Y-17150042D01*
X5957381Y-17350042D02*
X5966905Y-17340518D01*
X5985952Y-17311946D01*
X5995476Y-17292899D01*
X6005000Y-17264327D01*
X6014524Y-17216708D01*
X6014524Y-17178613D01*
X6005000Y-17130994D01*
X5995476Y-17102423D01*
X5985952Y-17083375D01*
X5966905Y-17054804D01*
X5957381Y-17045280D01*
D17*
X924000Y-17411875D02*
X995000Y-17482875D01*
X995000Y-17411875D02*
X924000Y-17482875D01*
X984602Y-17472478D02*
X984602Y-17422273D01*
X934397Y-17422273D01*
X934397Y-17472478D01*
X984602Y-17472478D01*
D11*
X1290714Y-17337851D02*
X1309762Y-17337851D01*
X1328810Y-17347375D01*
X1338333Y-17356899D01*
X1347857Y-17375946D01*
X1357381Y-17414042D01*
X1357381Y-17461661D01*
X1347857Y-17499756D01*
X1338333Y-17518804D01*
X1328810Y-17528327D01*
X1309762Y-17537851D01*
X1290714Y-17537851D01*
X1271667Y-17528327D01*
X1262143Y-17518804D01*
X1252619Y-17499756D01*
X1243095Y-17461661D01*
X1243095Y-17414042D01*
X1252619Y-17375946D01*
X1262143Y-17356899D01*
X1271667Y-17347375D01*
X1290714Y-17337851D01*
X1443095Y-17518804D02*
X1452619Y-17528327D01*
X1443095Y-17537851D01*
X1433571Y-17528327D01*
X1443095Y-17518804D01*
X1443095Y-17537851D01*
X1519286Y-17337851D02*
X1652619Y-17337851D01*
X1566905Y-17537851D01*
X1833571Y-17537851D02*
X1719286Y-17537851D01*
X1776428Y-17537851D02*
X1776428Y-17337851D01*
X1757381Y-17366423D01*
X1738333Y-17385470D01*
X1719286Y-17394994D01*
X1957381Y-17337851D02*
X1976428Y-17337851D01*
X1995476Y-17347375D01*
X2005000Y-17356899D01*
X2014524Y-17375946D01*
X2024048Y-17414042D01*
X2024048Y-17461661D01*
X2014524Y-17499756D01*
X2005000Y-17518804D01*
X1995476Y-17528327D01*
X1976428Y-17537851D01*
X1957381Y-17537851D01*
X1938333Y-17528327D01*
X1928809Y-17518804D01*
X1919286Y-17499756D01*
X1909762Y-17461661D01*
X1909762Y-17414042D01*
X1919286Y-17375946D01*
X1928809Y-17356899D01*
X1938333Y-17347375D01*
X1957381Y-17337851D01*
X2109762Y-17537851D02*
X2109762Y-17404518D01*
X2109762Y-17423565D02*
X2119286Y-17414042D01*
X2138333Y-17404518D01*
X2166905Y-17404518D01*
X2185952Y-17414042D01*
X2195476Y-17433089D01*
X2195476Y-17537851D01*
X2195476Y-17433089D02*
X2205000Y-17414042D01*
X2224048Y-17404518D01*
X2252619Y-17404518D01*
X2271667Y-17414042D01*
X2281190Y-17433089D01*
X2281190Y-17537851D01*
X2376429Y-17537851D02*
X2376429Y-17404518D01*
X2376429Y-17423565D02*
X2385952Y-17414042D01*
X2405000Y-17404518D01*
X2433571Y-17404518D01*
X2452619Y-17414042D01*
X2462143Y-17433089D01*
X2462143Y-17537851D01*
X2462143Y-17433089D02*
X2471667Y-17414042D01*
X2490714Y-17404518D01*
X2519286Y-17404518D01*
X2538333Y-17414042D01*
X2547857Y-17433089D01*
X2547857Y-17537851D01*
X2938333Y-17328327D02*
X2766905Y-17585470D01*
X3195476Y-17337851D02*
X3214524Y-17337851D01*
X3233571Y-17347375D01*
X3243095Y-17356899D01*
X3252619Y-17375946D01*
X3262143Y-17414042D01*
X3262143Y-17461661D01*
X3252619Y-17499756D01*
X3243095Y-17518804D01*
X3233571Y-17528327D01*
X3214524Y-17537851D01*
X3195476Y-17537851D01*
X3176428Y-17528327D01*
X3166905Y-17518804D01*
X3157381Y-17499756D01*
X3147857Y-17461661D01*
X3147857Y-17414042D01*
X3157381Y-17375946D01*
X3166905Y-17356899D01*
X3176428Y-17347375D01*
X3195476Y-17337851D01*
X3347857Y-17518804D02*
X3357381Y-17528327D01*
X3347857Y-17537851D01*
X3338333Y-17528327D01*
X3347857Y-17518804D01*
X3347857Y-17537851D01*
X3481190Y-17337851D02*
X3500238Y-17337851D01*
X3519286Y-17347375D01*
X3528809Y-17356899D01*
X3538333Y-17375946D01*
X3547857Y-17414042D01*
X3547857Y-17461661D01*
X3538333Y-17499756D01*
X3528809Y-17518804D01*
X3519286Y-17528327D01*
X3500238Y-17537851D01*
X3481190Y-17537851D01*
X3462143Y-17528327D01*
X3452619Y-17518804D01*
X3443095Y-17499756D01*
X3433571Y-17461661D01*
X3433571Y-17414042D01*
X3443095Y-17375946D01*
X3452619Y-17356899D01*
X3462143Y-17347375D01*
X3481190Y-17337851D01*
X3624048Y-17356899D02*
X3633571Y-17347375D01*
X3652619Y-17337851D01*
X3700238Y-17337851D01*
X3719286Y-17347375D01*
X3728809Y-17356899D01*
X3738333Y-17375946D01*
X3738333Y-17394994D01*
X3728809Y-17423565D01*
X3614524Y-17537851D01*
X3738333Y-17537851D01*
X3852619Y-17423565D02*
X3833571Y-17414042D01*
X3824048Y-17404518D01*
X3814524Y-17385470D01*
X3814524Y-17375946D01*
X3824048Y-17356899D01*
X3833571Y-17347375D01*
X3852619Y-17337851D01*
X3890714Y-17337851D01*
X3909762Y-17347375D01*
X3919286Y-17356899D01*
X3928809Y-17375946D01*
X3928809Y-17385470D01*
X3919286Y-17404518D01*
X3909762Y-17414042D01*
X3890714Y-17423565D01*
X3852619Y-17423565D01*
X3833571Y-17433089D01*
X3824048Y-17442613D01*
X3814524Y-17461661D01*
X3814524Y-17499756D01*
X3824048Y-17518804D01*
X3833571Y-17528327D01*
X3852619Y-17537851D01*
X3890714Y-17537851D01*
X3909762Y-17528327D01*
X3919286Y-17518804D01*
X3928809Y-17499756D01*
X3928809Y-17461661D01*
X3919286Y-17442613D01*
X3909762Y-17433089D01*
X3890714Y-17423565D01*
X4052619Y-17337851D02*
X4071667Y-17337851D01*
X4090714Y-17347375D01*
X4100238Y-17356899D01*
X4109762Y-17375946D01*
X4119286Y-17414042D01*
X4119286Y-17461661D01*
X4109762Y-17499756D01*
X4100238Y-17518804D01*
X4090714Y-17528327D01*
X4071667Y-17537851D01*
X4052619Y-17537851D01*
X4033571Y-17528327D01*
X4024048Y-17518804D01*
X4014524Y-17499756D01*
X4005000Y-17461661D01*
X4005000Y-17414042D01*
X4014524Y-17375946D01*
X4024048Y-17356899D01*
X4033571Y-17347375D01*
X4052619Y-17337851D01*
X4195476Y-17337851D02*
X4195476Y-17375946D01*
X4271667Y-17337851D02*
X4271667Y-17375946D01*
X4566905Y-17614042D02*
X4557381Y-17604518D01*
X4538333Y-17575946D01*
X4528810Y-17556899D01*
X4519286Y-17528327D01*
X4509762Y-17480708D01*
X4509762Y-17442613D01*
X4519286Y-17394994D01*
X4528810Y-17366423D01*
X4538333Y-17347375D01*
X4557381Y-17318804D01*
X4566905Y-17309280D01*
X4633571Y-17356899D02*
X4643095Y-17347375D01*
X4662143Y-17337851D01*
X4709762Y-17337851D01*
X4728810Y-17347375D01*
X4738333Y-17356899D01*
X4747857Y-17375946D01*
X4747857Y-17394994D01*
X4738333Y-17423565D01*
X4624048Y-17537851D01*
X4747857Y-17537851D01*
X4985952Y-17537851D02*
X4985952Y-17337851D01*
X5071667Y-17537851D02*
X5071667Y-17433089D01*
X5062143Y-17414042D01*
X5043095Y-17404518D01*
X5014524Y-17404518D01*
X4995476Y-17414042D01*
X4985952Y-17423565D01*
X5195476Y-17537851D02*
X5176429Y-17528327D01*
X5166905Y-17518804D01*
X5157381Y-17499756D01*
X5157381Y-17442613D01*
X5166905Y-17423565D01*
X5176429Y-17414042D01*
X5195476Y-17404518D01*
X5224048Y-17404518D01*
X5243095Y-17414042D01*
X5252619Y-17423565D01*
X5262143Y-17442613D01*
X5262143Y-17499756D01*
X5252619Y-17518804D01*
X5243095Y-17528327D01*
X5224048Y-17537851D01*
X5195476Y-17537851D01*
X5376429Y-17537851D02*
X5357381Y-17528327D01*
X5347857Y-17509280D01*
X5347857Y-17337851D01*
X5528810Y-17528327D02*
X5509762Y-17537851D01*
X5471667Y-17537851D01*
X5452619Y-17528327D01*
X5443095Y-17509280D01*
X5443095Y-17433089D01*
X5452619Y-17414042D01*
X5471667Y-17404518D01*
X5509762Y-17404518D01*
X5528810Y-17414042D01*
X5538333Y-17433089D01*
X5538333Y-17452137D01*
X5443095Y-17471185D01*
X5614524Y-17528327D02*
X5633571Y-17537851D01*
X5671667Y-17537851D01*
X5690714Y-17528327D01*
X5700238Y-17509280D01*
X5700238Y-17499756D01*
X5690714Y-17480708D01*
X5671667Y-17471185D01*
X5643095Y-17471185D01*
X5624048Y-17461661D01*
X5614524Y-17442613D01*
X5614524Y-17433089D01*
X5624048Y-17414042D01*
X5643095Y-17404518D01*
X5671667Y-17404518D01*
X5690714Y-17414042D01*
X5766905Y-17614042D02*
X5776428Y-17604518D01*
X5795476Y-17575946D01*
X5805000Y-17556899D01*
X5814524Y-17528327D01*
X5824048Y-17480708D01*
X5824048Y-17442613D01*
X5814524Y-17394994D01*
X5805000Y-17366423D01*
X5795476Y-17347375D01*
X5776428Y-17318804D01*
X5766905Y-17309280D01*
D18*
X921340Y-17674545D02*
X995000Y-17748205D01*
X995000Y-17674545D02*
X921340Y-17748205D01*
X958170Y-17748205D02*
X995000Y-17711375D01*
X958170Y-17674545D01*
X921340Y-17711375D01*
X958170Y-17748205D01*
D11*
X1290714Y-17601851D02*
X1309762Y-17601851D01*
X1328810Y-17611375D01*
X1338333Y-17620899D01*
X1347857Y-17639946D01*
X1357381Y-17678042D01*
X1357381Y-17725661D01*
X1347857Y-17763756D01*
X1338333Y-17782804D01*
X1328810Y-17792327D01*
X1309762Y-17801851D01*
X1290714Y-17801851D01*
X1271667Y-17792327D01*
X1262143Y-17782804D01*
X1252619Y-17763756D01*
X1243095Y-17725661D01*
X1243095Y-17678042D01*
X1252619Y-17639946D01*
X1262143Y-17620899D01*
X1271667Y-17611375D01*
X1290714Y-17601851D01*
X1443095Y-17782804D02*
X1452619Y-17792327D01*
X1443095Y-17801851D01*
X1433571Y-17792327D01*
X1443095Y-17782804D01*
X1443095Y-17801851D01*
X1519286Y-17601851D02*
X1652619Y-17601851D01*
X1566905Y-17801851D01*
X1709762Y-17601851D02*
X1833571Y-17601851D01*
X1766905Y-17678042D01*
X1795476Y-17678042D01*
X1814524Y-17687565D01*
X1824048Y-17697089D01*
X1833571Y-17716137D01*
X1833571Y-17763756D01*
X1824048Y-17782804D01*
X1814524Y-17792327D01*
X1795476Y-17801851D01*
X1738333Y-17801851D01*
X1719286Y-17792327D01*
X1709762Y-17782804D01*
X1900238Y-17601851D02*
X2033571Y-17601851D01*
X1947857Y-17801851D01*
X2109762Y-17801851D02*
X2109762Y-17668518D01*
X2109762Y-17687565D02*
X2119286Y-17678042D01*
X2138333Y-17668518D01*
X2166905Y-17668518D01*
X2185952Y-17678042D01*
X2195476Y-17697089D01*
X2195476Y-17801851D01*
X2195476Y-17697089D02*
X2205000Y-17678042D01*
X2224048Y-17668518D01*
X2252619Y-17668518D01*
X2271667Y-17678042D01*
X2281190Y-17697089D01*
X2281190Y-17801851D01*
X2376429Y-17801851D02*
X2376429Y-17668518D01*
X2376429Y-17687565D02*
X2385952Y-17678042D01*
X2405000Y-17668518D01*
X2433571Y-17668518D01*
X2452619Y-17678042D01*
X2462143Y-17697089D01*
X2462143Y-17801851D01*
X2462143Y-17697089D02*
X2471667Y-17678042D01*
X2490714Y-17668518D01*
X2519286Y-17668518D01*
X2538333Y-17678042D01*
X2547857Y-17697089D01*
X2547857Y-17801851D01*
X2938333Y-17592327D02*
X2766905Y-17849470D01*
X3195476Y-17601851D02*
X3214524Y-17601851D01*
X3233571Y-17611375D01*
X3243095Y-17620899D01*
X3252619Y-17639946D01*
X3262143Y-17678042D01*
X3262143Y-17725661D01*
X3252619Y-17763756D01*
X3243095Y-17782804D01*
X3233571Y-17792327D01*
X3214524Y-17801851D01*
X3195476Y-17801851D01*
X3176428Y-17792327D01*
X3166905Y-17782804D01*
X3157381Y-17763756D01*
X3147857Y-17725661D01*
X3147857Y-17678042D01*
X3157381Y-17639946D01*
X3166905Y-17620899D01*
X3176428Y-17611375D01*
X3195476Y-17601851D01*
X3347857Y-17782804D02*
X3357381Y-17792327D01*
X3347857Y-17801851D01*
X3338333Y-17792327D01*
X3347857Y-17782804D01*
X3347857Y-17801851D01*
X3481190Y-17601851D02*
X3500238Y-17601851D01*
X3519286Y-17611375D01*
X3528809Y-17620899D01*
X3538333Y-17639946D01*
X3547857Y-17678042D01*
X3547857Y-17725661D01*
X3538333Y-17763756D01*
X3528809Y-17782804D01*
X3519286Y-17792327D01*
X3500238Y-17801851D01*
X3481190Y-17801851D01*
X3462143Y-17792327D01*
X3452619Y-17782804D01*
X3443095Y-17763756D01*
X3433571Y-17725661D01*
X3433571Y-17678042D01*
X3443095Y-17639946D01*
X3452619Y-17620899D01*
X3462143Y-17611375D01*
X3481190Y-17601851D01*
X3624048Y-17620899D02*
X3633571Y-17611375D01*
X3652619Y-17601851D01*
X3700238Y-17601851D01*
X3719286Y-17611375D01*
X3728809Y-17620899D01*
X3738333Y-17639946D01*
X3738333Y-17658994D01*
X3728809Y-17687565D01*
X3614524Y-17801851D01*
X3738333Y-17801851D01*
X3833571Y-17801851D02*
X3871667Y-17801851D01*
X3890714Y-17792327D01*
X3900238Y-17782804D01*
X3919286Y-17754232D01*
X3928809Y-17716137D01*
X3928809Y-17639946D01*
X3919286Y-17620899D01*
X3909762Y-17611375D01*
X3890714Y-17601851D01*
X3852619Y-17601851D01*
X3833571Y-17611375D01*
X3824048Y-17620899D01*
X3814524Y-17639946D01*
X3814524Y-17687565D01*
X3824048Y-17706613D01*
X3833571Y-17716137D01*
X3852619Y-17725661D01*
X3890714Y-17725661D01*
X3909762Y-17716137D01*
X3919286Y-17706613D01*
X3928809Y-17687565D01*
X4052619Y-17601851D02*
X4071667Y-17601851D01*
X4090714Y-17611375D01*
X4100238Y-17620899D01*
X4109762Y-17639946D01*
X4119286Y-17678042D01*
X4119286Y-17725661D01*
X4109762Y-17763756D01*
X4100238Y-17782804D01*
X4090714Y-17792327D01*
X4071667Y-17801851D01*
X4052619Y-17801851D01*
X4033571Y-17792327D01*
X4024048Y-17782804D01*
X4014524Y-17763756D01*
X4005000Y-17725661D01*
X4005000Y-17678042D01*
X4014524Y-17639946D01*
X4024048Y-17620899D01*
X4033571Y-17611375D01*
X4052619Y-17601851D01*
X4195476Y-17601851D02*
X4195476Y-17639946D01*
X4271667Y-17601851D02*
X4271667Y-17639946D01*
X4566905Y-17878042D02*
X4557381Y-17868518D01*
X4538333Y-17839946D01*
X4528810Y-17820899D01*
X4519286Y-17792327D01*
X4509762Y-17744708D01*
X4509762Y-17706613D01*
X4519286Y-17658994D01*
X4528810Y-17630423D01*
X4538333Y-17611375D01*
X4557381Y-17582804D01*
X4566905Y-17573280D01*
X4728810Y-17668518D02*
X4728810Y-17801851D01*
X4681190Y-17592327D02*
X4633571Y-17735185D01*
X4757381Y-17735185D01*
X4985952Y-17801851D02*
X4985952Y-17601851D01*
X5071667Y-17801851D02*
X5071667Y-17697089D01*
X5062143Y-17678042D01*
X5043095Y-17668518D01*
X5014524Y-17668518D01*
X4995476Y-17678042D01*
X4985952Y-17687565D01*
X5195476Y-17801851D02*
X5176429Y-17792327D01*
X5166905Y-17782804D01*
X5157381Y-17763756D01*
X5157381Y-17706613D01*
X5166905Y-17687565D01*
X5176429Y-17678042D01*
X5195476Y-17668518D01*
X5224048Y-17668518D01*
X5243095Y-17678042D01*
X5252619Y-17687565D01*
X5262143Y-17706613D01*
X5262143Y-17763756D01*
X5252619Y-17782804D01*
X5243095Y-17792327D01*
X5224048Y-17801851D01*
X5195476Y-17801851D01*
X5376429Y-17801851D02*
X5357381Y-17792327D01*
X5347857Y-17773280D01*
X5347857Y-17601851D01*
X5528810Y-17792327D02*
X5509762Y-17801851D01*
X5471667Y-17801851D01*
X5452619Y-17792327D01*
X5443095Y-17773280D01*
X5443095Y-17697089D01*
X5452619Y-17678042D01*
X5471667Y-17668518D01*
X5509762Y-17668518D01*
X5528810Y-17678042D01*
X5538333Y-17697089D01*
X5538333Y-17716137D01*
X5443095Y-17735185D01*
X5614524Y-17792327D02*
X5633571Y-17801851D01*
X5671667Y-17801851D01*
X5690714Y-17792327D01*
X5700238Y-17773280D01*
X5700238Y-17763756D01*
X5690714Y-17744708D01*
X5671667Y-17735185D01*
X5643095Y-17735185D01*
X5624048Y-17725661D01*
X5614524Y-17706613D01*
X5614524Y-17697089D01*
X5624048Y-17678042D01*
X5643095Y-17668518D01*
X5671667Y-17668518D01*
X5690714Y-17678042D01*
X5766905Y-17878042D02*
X5776428Y-17868518D01*
X5795476Y-17839946D01*
X5805000Y-17820899D01*
X5814524Y-17792327D01*
X5824048Y-17744708D01*
X5824048Y-17706613D01*
X5814524Y-17658994D01*
X5805000Y-17630423D01*
X5795476Y-17611375D01*
X5776428Y-17582804D01*
X5766905Y-17573280D01*
D19*
X955000Y-17935375D02*
X955000Y-18015375D01*
X915000Y-17975375D02*
X995000Y-17975375D01*
X995000Y-17975375D02*
G75*
G03*
X995000Y-17975375I-40000J0D01*
G01*
D11*
X1290714Y-17865851D02*
X1309762Y-17865851D01*
X1328810Y-17875375D01*
X1338333Y-17884899D01*
X1347857Y-17903946D01*
X1357381Y-17942042D01*
X1357381Y-17989661D01*
X1347857Y-18027756D01*
X1338333Y-18046804D01*
X1328810Y-18056327D01*
X1309762Y-18065851D01*
X1290714Y-18065851D01*
X1271667Y-18056327D01*
X1262143Y-18046804D01*
X1252619Y-18027756D01*
X1243095Y-17989661D01*
X1243095Y-17942042D01*
X1252619Y-17903946D01*
X1262143Y-17884899D01*
X1271667Y-17875375D01*
X1290714Y-17865851D01*
X1443095Y-18046804D02*
X1452619Y-18056327D01*
X1443095Y-18065851D01*
X1433571Y-18056327D01*
X1443095Y-18046804D01*
X1443095Y-18065851D01*
X1566905Y-17951565D02*
X1547857Y-17942042D01*
X1538333Y-17932518D01*
X1528809Y-17913470D01*
X1528809Y-17903946D01*
X1538333Y-17884899D01*
X1547857Y-17875375D01*
X1566905Y-17865851D01*
X1605000Y-17865851D01*
X1624048Y-17875375D01*
X1633571Y-17884899D01*
X1643095Y-17903946D01*
X1643095Y-17913470D01*
X1633571Y-17932518D01*
X1624048Y-17942042D01*
X1605000Y-17951565D01*
X1566905Y-17951565D01*
X1547857Y-17961089D01*
X1538333Y-17970613D01*
X1528809Y-17989661D01*
X1528809Y-18027756D01*
X1538333Y-18046804D01*
X1547857Y-18056327D01*
X1566905Y-18065851D01*
X1605000Y-18065851D01*
X1624048Y-18056327D01*
X1633571Y-18046804D01*
X1643095Y-18027756D01*
X1643095Y-17989661D01*
X1633571Y-17970613D01*
X1624048Y-17961089D01*
X1605000Y-17951565D01*
X1766905Y-17865851D02*
X1785952Y-17865851D01*
X1805000Y-17875375D01*
X1814524Y-17884899D01*
X1824048Y-17903946D01*
X1833571Y-17942042D01*
X1833571Y-17989661D01*
X1824048Y-18027756D01*
X1814524Y-18046804D01*
X1805000Y-18056327D01*
X1785952Y-18065851D01*
X1766905Y-18065851D01*
X1747857Y-18056327D01*
X1738333Y-18046804D01*
X1728809Y-18027756D01*
X1719286Y-17989661D01*
X1719286Y-17942042D01*
X1728809Y-17903946D01*
X1738333Y-17884899D01*
X1747857Y-17875375D01*
X1766905Y-17865851D01*
X1957381Y-17865851D02*
X1976428Y-17865851D01*
X1995476Y-17875375D01*
X2005000Y-17884899D01*
X2014524Y-17903946D01*
X2024048Y-17942042D01*
X2024048Y-17989661D01*
X2014524Y-18027756D01*
X2005000Y-18046804D01*
X1995476Y-18056327D01*
X1976428Y-18065851D01*
X1957381Y-18065851D01*
X1938333Y-18056327D01*
X1928809Y-18046804D01*
X1919286Y-18027756D01*
X1909762Y-17989661D01*
X1909762Y-17942042D01*
X1919286Y-17903946D01*
X1928809Y-17884899D01*
X1938333Y-17875375D01*
X1957381Y-17865851D01*
X2109762Y-18065851D02*
X2109762Y-17932518D01*
X2109762Y-17951565D02*
X2119286Y-17942042D01*
X2138333Y-17932518D01*
X2166905Y-17932518D01*
X2185952Y-17942042D01*
X2195476Y-17961089D01*
X2195476Y-18065851D01*
X2195476Y-17961089D02*
X2205000Y-17942042D01*
X2224048Y-17932518D01*
X2252619Y-17932518D01*
X2271667Y-17942042D01*
X2281190Y-17961089D01*
X2281190Y-18065851D01*
X2376429Y-18065851D02*
X2376429Y-17932518D01*
X2376429Y-17951565D02*
X2385952Y-17942042D01*
X2405000Y-17932518D01*
X2433571Y-17932518D01*
X2452619Y-17942042D01*
X2462143Y-17961089D01*
X2462143Y-18065851D01*
X2462143Y-17961089D02*
X2471667Y-17942042D01*
X2490714Y-17932518D01*
X2519286Y-17932518D01*
X2538333Y-17942042D01*
X2547857Y-17961089D01*
X2547857Y-18065851D01*
X2938333Y-17856327D02*
X2766905Y-18113470D01*
X3195476Y-17865851D02*
X3214524Y-17865851D01*
X3233571Y-17875375D01*
X3243095Y-17884899D01*
X3252619Y-17903946D01*
X3262143Y-17942042D01*
X3262143Y-17989661D01*
X3252619Y-18027756D01*
X3243095Y-18046804D01*
X3233571Y-18056327D01*
X3214524Y-18065851D01*
X3195476Y-18065851D01*
X3176428Y-18056327D01*
X3166905Y-18046804D01*
X3157381Y-18027756D01*
X3147857Y-17989661D01*
X3147857Y-17942042D01*
X3157381Y-17903946D01*
X3166905Y-17884899D01*
X3176428Y-17875375D01*
X3195476Y-17865851D01*
X3347857Y-18046804D02*
X3357381Y-18056327D01*
X3347857Y-18065851D01*
X3338333Y-18056327D01*
X3347857Y-18046804D01*
X3347857Y-18065851D01*
X3481190Y-17865851D02*
X3500238Y-17865851D01*
X3519286Y-17875375D01*
X3528809Y-17884899D01*
X3538333Y-17903946D01*
X3547857Y-17942042D01*
X3547857Y-17989661D01*
X3538333Y-18027756D01*
X3528809Y-18046804D01*
X3519286Y-18056327D01*
X3500238Y-18065851D01*
X3481190Y-18065851D01*
X3462143Y-18056327D01*
X3452619Y-18046804D01*
X3443095Y-18027756D01*
X3433571Y-17989661D01*
X3433571Y-17942042D01*
X3443095Y-17903946D01*
X3452619Y-17884899D01*
X3462143Y-17875375D01*
X3481190Y-17865851D01*
X3614524Y-17865851D02*
X3738333Y-17865851D01*
X3671667Y-17942042D01*
X3700238Y-17942042D01*
X3719286Y-17951565D01*
X3728809Y-17961089D01*
X3738333Y-17980137D01*
X3738333Y-18027756D01*
X3728809Y-18046804D01*
X3719286Y-18056327D01*
X3700238Y-18065851D01*
X3643095Y-18065851D01*
X3624048Y-18056327D01*
X3614524Y-18046804D01*
X3928809Y-18065851D02*
X3814524Y-18065851D01*
X3871667Y-18065851D02*
X3871667Y-17865851D01*
X3852619Y-17894423D01*
X3833571Y-17913470D01*
X3814524Y-17922994D01*
X4109762Y-17865851D02*
X4014524Y-17865851D01*
X4005000Y-17961089D01*
X4014524Y-17951565D01*
X4033571Y-17942042D01*
X4081190Y-17942042D01*
X4100238Y-17951565D01*
X4109762Y-17961089D01*
X4119286Y-17980137D01*
X4119286Y-18027756D01*
X4109762Y-18046804D01*
X4100238Y-18056327D01*
X4081190Y-18065851D01*
X4033571Y-18065851D01*
X4014524Y-18056327D01*
X4005000Y-18046804D01*
X4195476Y-17865851D02*
X4195476Y-17903946D01*
X4271667Y-17865851D02*
X4271667Y-17903946D01*
X4566905Y-18142042D02*
X4557381Y-18132518D01*
X4538333Y-18103946D01*
X4528810Y-18084899D01*
X4519286Y-18056327D01*
X4509762Y-18008708D01*
X4509762Y-17970613D01*
X4519286Y-17922994D01*
X4528810Y-17894423D01*
X4538333Y-17875375D01*
X4557381Y-17846804D01*
X4566905Y-17837280D01*
X4747857Y-18065851D02*
X4633571Y-18065851D01*
X4690714Y-18065851D02*
X4690714Y-17865851D01*
X4671667Y-17894423D01*
X4652619Y-17913470D01*
X4633571Y-17922994D01*
X4919286Y-17865851D02*
X4881190Y-17865851D01*
X4862143Y-17875375D01*
X4852619Y-17884899D01*
X4833571Y-17913470D01*
X4824048Y-17951565D01*
X4824048Y-18027756D01*
X4833571Y-18046804D01*
X4843095Y-18056327D01*
X4862143Y-18065851D01*
X4900238Y-18065851D01*
X4919286Y-18056327D01*
X4928810Y-18046804D01*
X4938333Y-18027756D01*
X4938333Y-17980137D01*
X4928810Y-17961089D01*
X4919286Y-17951565D01*
X4900238Y-17942042D01*
X4862143Y-17942042D01*
X4843095Y-17951565D01*
X4833571Y-17961089D01*
X4824048Y-17980137D01*
X5014524Y-17884899D02*
X5024048Y-17875375D01*
X5043095Y-17865851D01*
X5090714Y-17865851D01*
X5109762Y-17875375D01*
X5119286Y-17884899D01*
X5128810Y-17903946D01*
X5128810Y-17922994D01*
X5119286Y-17951565D01*
X5005000Y-18065851D01*
X5128810Y-18065851D01*
X5366905Y-18065851D02*
X5366905Y-17865851D01*
X5452619Y-18065851D02*
X5452619Y-17961089D01*
X5443095Y-17942042D01*
X5424048Y-17932518D01*
X5395476Y-17932518D01*
X5376429Y-17942042D01*
X5366905Y-17951565D01*
X5576429Y-18065851D02*
X5557381Y-18056327D01*
X5547857Y-18046804D01*
X5538333Y-18027756D01*
X5538333Y-17970613D01*
X5547857Y-17951565D01*
X5557381Y-17942042D01*
X5576429Y-17932518D01*
X5605000Y-17932518D01*
X5624048Y-17942042D01*
X5633571Y-17951565D01*
X5643095Y-17970613D01*
X5643095Y-18027756D01*
X5633571Y-18046804D01*
X5624048Y-18056327D01*
X5605000Y-18065851D01*
X5576429Y-18065851D01*
X5757381Y-18065851D02*
X5738333Y-18056327D01*
X5728809Y-18037280D01*
X5728809Y-17865851D01*
X5909762Y-18056327D02*
X5890714Y-18065851D01*
X5852619Y-18065851D01*
X5833571Y-18056327D01*
X5824048Y-18037280D01*
X5824048Y-17961089D01*
X5833571Y-17942042D01*
X5852619Y-17932518D01*
X5890714Y-17932518D01*
X5909762Y-17942042D01*
X5919286Y-17961089D01*
X5919286Y-17980137D01*
X5824048Y-17999185D01*
X5995476Y-18056327D02*
X6014524Y-18065851D01*
X6052619Y-18065851D01*
X6071667Y-18056327D01*
X6081190Y-18037280D01*
X6081190Y-18027756D01*
X6071667Y-18008708D01*
X6052619Y-17999185D01*
X6024048Y-17999185D01*
X6005000Y-17989661D01*
X5995476Y-17970613D01*
X5995476Y-17961089D01*
X6005000Y-17942042D01*
X6024048Y-17932518D01*
X6052619Y-17932518D01*
X6071667Y-17942042D01*
X6147857Y-18142042D02*
X6157381Y-18132518D01*
X6176428Y-18103946D01*
X6185952Y-18084899D01*
X6195476Y-18056327D01*
X6205000Y-18008708D01*
X6205000Y-17970613D01*
X6195476Y-17922994D01*
X6185952Y-17894423D01*
X6176428Y-17875375D01*
X6157381Y-17846804D01*
X6147857Y-17837280D01*
D20*
X981820Y-18271195D02*
X981820Y-18207555D01*
X918180Y-18207555D01*
X918180Y-18271195D01*
X981820Y-18271195D01*
X995000Y-18239375D02*
G75*
G03*
X995000Y-18239375I-45000J0D01*
G01*
D11*
X1290714Y-18129851D02*
X1309762Y-18129851D01*
X1328810Y-18139375D01*
X1338333Y-18148899D01*
X1347857Y-18167946D01*
X1357381Y-18206042D01*
X1357381Y-18253661D01*
X1347857Y-18291756D01*
X1338333Y-18310804D01*
X1328810Y-18320327D01*
X1309762Y-18329851D01*
X1290714Y-18329851D01*
X1271667Y-18320327D01*
X1262143Y-18310804D01*
X1252619Y-18291756D01*
X1243095Y-18253661D01*
X1243095Y-18206042D01*
X1252619Y-18167946D01*
X1262143Y-18148899D01*
X1271667Y-18139375D01*
X1290714Y-18129851D01*
X1443095Y-18310804D02*
X1452619Y-18320327D01*
X1443095Y-18329851D01*
X1433571Y-18320327D01*
X1443095Y-18310804D01*
X1443095Y-18329851D01*
X1547857Y-18329851D02*
X1585952Y-18329851D01*
X1605000Y-18320327D01*
X1614524Y-18310804D01*
X1633571Y-18282232D01*
X1643095Y-18244137D01*
X1643095Y-18167946D01*
X1633571Y-18148899D01*
X1624048Y-18139375D01*
X1605000Y-18129851D01*
X1566905Y-18129851D01*
X1547857Y-18139375D01*
X1538333Y-18148899D01*
X1528809Y-18167946D01*
X1528809Y-18215565D01*
X1538333Y-18234613D01*
X1547857Y-18244137D01*
X1566905Y-18253661D01*
X1605000Y-18253661D01*
X1624048Y-18244137D01*
X1633571Y-18234613D01*
X1643095Y-18215565D01*
X1766905Y-18129851D02*
X1785952Y-18129851D01*
X1805000Y-18139375D01*
X1814524Y-18148899D01*
X1824048Y-18167946D01*
X1833571Y-18206042D01*
X1833571Y-18253661D01*
X1824048Y-18291756D01*
X1814524Y-18310804D01*
X1805000Y-18320327D01*
X1785952Y-18329851D01*
X1766905Y-18329851D01*
X1747857Y-18320327D01*
X1738333Y-18310804D01*
X1728809Y-18291756D01*
X1719286Y-18253661D01*
X1719286Y-18206042D01*
X1728809Y-18167946D01*
X1738333Y-18148899D01*
X1747857Y-18139375D01*
X1766905Y-18129851D01*
X1957381Y-18129851D02*
X1976428Y-18129851D01*
X1995476Y-18139375D01*
X2005000Y-18148899D01*
X2014524Y-18167946D01*
X2024048Y-18206042D01*
X2024048Y-18253661D01*
X2014524Y-18291756D01*
X2005000Y-18310804D01*
X1995476Y-18320327D01*
X1976428Y-18329851D01*
X1957381Y-18329851D01*
X1938333Y-18320327D01*
X1928809Y-18310804D01*
X1919286Y-18291756D01*
X1909762Y-18253661D01*
X1909762Y-18206042D01*
X1919286Y-18167946D01*
X1928809Y-18148899D01*
X1938333Y-18139375D01*
X1957381Y-18129851D01*
X2109762Y-18329851D02*
X2109762Y-18196518D01*
X2109762Y-18215565D02*
X2119286Y-18206042D01*
X2138333Y-18196518D01*
X2166905Y-18196518D01*
X2185952Y-18206042D01*
X2195476Y-18225089D01*
X2195476Y-18329851D01*
X2195476Y-18225089D02*
X2205000Y-18206042D01*
X2224048Y-18196518D01*
X2252619Y-18196518D01*
X2271667Y-18206042D01*
X2281190Y-18225089D01*
X2281190Y-18329851D01*
X2376429Y-18329851D02*
X2376429Y-18196518D01*
X2376429Y-18215565D02*
X2385952Y-18206042D01*
X2405000Y-18196518D01*
X2433571Y-18196518D01*
X2452619Y-18206042D01*
X2462143Y-18225089D01*
X2462143Y-18329851D01*
X2462143Y-18225089D02*
X2471667Y-18206042D01*
X2490714Y-18196518D01*
X2519286Y-18196518D01*
X2538333Y-18206042D01*
X2547857Y-18225089D01*
X2547857Y-18329851D01*
X2938333Y-18120327D02*
X2766905Y-18377470D01*
X3195476Y-18129851D02*
X3214524Y-18129851D01*
X3233571Y-18139375D01*
X3243095Y-18148899D01*
X3252619Y-18167946D01*
X3262143Y-18206042D01*
X3262143Y-18253661D01*
X3252619Y-18291756D01*
X3243095Y-18310804D01*
X3233571Y-18320327D01*
X3214524Y-18329851D01*
X3195476Y-18329851D01*
X3176428Y-18320327D01*
X3166905Y-18310804D01*
X3157381Y-18291756D01*
X3147857Y-18253661D01*
X3147857Y-18206042D01*
X3157381Y-18167946D01*
X3166905Y-18148899D01*
X3176428Y-18139375D01*
X3195476Y-18129851D01*
X3347857Y-18310804D02*
X3357381Y-18320327D01*
X3347857Y-18329851D01*
X3338333Y-18320327D01*
X3347857Y-18310804D01*
X3347857Y-18329851D01*
X3481190Y-18129851D02*
X3500238Y-18129851D01*
X3519286Y-18139375D01*
X3528809Y-18148899D01*
X3538333Y-18167946D01*
X3547857Y-18206042D01*
X3547857Y-18253661D01*
X3538333Y-18291756D01*
X3528809Y-18310804D01*
X3519286Y-18320327D01*
X3500238Y-18329851D01*
X3481190Y-18329851D01*
X3462143Y-18320327D01*
X3452619Y-18310804D01*
X3443095Y-18291756D01*
X3433571Y-18253661D01*
X3433571Y-18206042D01*
X3443095Y-18167946D01*
X3452619Y-18148899D01*
X3462143Y-18139375D01*
X3481190Y-18129851D01*
X3614524Y-18129851D02*
X3738333Y-18129851D01*
X3671667Y-18206042D01*
X3700238Y-18206042D01*
X3719286Y-18215565D01*
X3728809Y-18225089D01*
X3738333Y-18244137D01*
X3738333Y-18291756D01*
X3728809Y-18310804D01*
X3719286Y-18320327D01*
X3700238Y-18329851D01*
X3643095Y-18329851D01*
X3624048Y-18320327D01*
X3614524Y-18310804D01*
X3919286Y-18129851D02*
X3824048Y-18129851D01*
X3814524Y-18225089D01*
X3824048Y-18215565D01*
X3843095Y-18206042D01*
X3890714Y-18206042D01*
X3909762Y-18215565D01*
X3919286Y-18225089D01*
X3928809Y-18244137D01*
X3928809Y-18291756D01*
X3919286Y-18310804D01*
X3909762Y-18320327D01*
X3890714Y-18329851D01*
X3843095Y-18329851D01*
X3824048Y-18320327D01*
X3814524Y-18310804D01*
X4100238Y-18196518D02*
X4100238Y-18329851D01*
X4052619Y-18120327D02*
X4005000Y-18263185D01*
X4128809Y-18263185D01*
X4195476Y-18129851D02*
X4195476Y-18167946D01*
X4271667Y-18129851D02*
X4271667Y-18167946D01*
X4566905Y-18406042D02*
X4557381Y-18396518D01*
X4538333Y-18367946D01*
X4528810Y-18348899D01*
X4519286Y-18320327D01*
X4509762Y-18272708D01*
X4509762Y-18234613D01*
X4519286Y-18186994D01*
X4528810Y-18158423D01*
X4538333Y-18139375D01*
X4557381Y-18110804D01*
X4566905Y-18101280D01*
X4728810Y-18196518D02*
X4728810Y-18329851D01*
X4681190Y-18120327D02*
X4633571Y-18263185D01*
X4757381Y-18263185D01*
X4985952Y-18329851D02*
X4985952Y-18129851D01*
X5071667Y-18329851D02*
X5071667Y-18225089D01*
X5062143Y-18206042D01*
X5043095Y-18196518D01*
X5014524Y-18196518D01*
X4995476Y-18206042D01*
X4985952Y-18215565D01*
X5195476Y-18329851D02*
X5176429Y-18320327D01*
X5166905Y-18310804D01*
X5157381Y-18291756D01*
X5157381Y-18234613D01*
X5166905Y-18215565D01*
X5176429Y-18206042D01*
X5195476Y-18196518D01*
X5224048Y-18196518D01*
X5243095Y-18206042D01*
X5252619Y-18215565D01*
X5262143Y-18234613D01*
X5262143Y-18291756D01*
X5252619Y-18310804D01*
X5243095Y-18320327D01*
X5224048Y-18329851D01*
X5195476Y-18329851D01*
X5376429Y-18329851D02*
X5357381Y-18320327D01*
X5347857Y-18301280D01*
X5347857Y-18129851D01*
X5528810Y-18320327D02*
X5509762Y-18329851D01*
X5471667Y-18329851D01*
X5452619Y-18320327D01*
X5443095Y-18301280D01*
X5443095Y-18225089D01*
X5452619Y-18206042D01*
X5471667Y-18196518D01*
X5509762Y-18196518D01*
X5528810Y-18206042D01*
X5538333Y-18225089D01*
X5538333Y-18244137D01*
X5443095Y-18263185D01*
X5614524Y-18320327D02*
X5633571Y-18329851D01*
X5671667Y-18329851D01*
X5690714Y-18320327D01*
X5700238Y-18301280D01*
X5700238Y-18291756D01*
X5690714Y-18272708D01*
X5671667Y-18263185D01*
X5643095Y-18263185D01*
X5624048Y-18253661D01*
X5614524Y-18234613D01*
X5614524Y-18225089D01*
X5624048Y-18206042D01*
X5643095Y-18196518D01*
X5671667Y-18196518D01*
X5690714Y-18206042D01*
X5766905Y-18406042D02*
X5776428Y-18396518D01*
X5795476Y-18367946D01*
X5805000Y-18348899D01*
X5814524Y-18320327D01*
X5824048Y-18272708D01*
X5824048Y-18234613D01*
X5814524Y-18186994D01*
X5805000Y-18158423D01*
X5795476Y-18139375D01*
X5776428Y-18110804D01*
X5766905Y-18101280D01*
D21*
X945000Y-18553375D02*
X995000Y-18503375D01*
X945000Y-18453375D01*
X895000Y-18503375D01*
X945000Y-18553375D01*
X995000Y-18503375D02*
G75*
G03*
X995000Y-18503375I-50000J0D01*
G01*
D11*
X1357381Y-18593851D02*
X1243095Y-18593851D01*
X1300238Y-18593851D02*
X1300238Y-18393851D01*
X1281190Y-18422423D01*
X1262143Y-18441470D01*
X1243095Y-18450994D01*
X1443095Y-18574804D02*
X1452619Y-18584327D01*
X1443095Y-18593851D01*
X1433571Y-18584327D01*
X1443095Y-18574804D01*
X1443095Y-18593851D01*
X1576428Y-18393851D02*
X1595476Y-18393851D01*
X1614524Y-18403375D01*
X1624048Y-18412899D01*
X1633571Y-18431946D01*
X1643095Y-18470042D01*
X1643095Y-18517661D01*
X1633571Y-18555756D01*
X1624048Y-18574804D01*
X1614524Y-18584327D01*
X1595476Y-18593851D01*
X1576428Y-18593851D01*
X1557381Y-18584327D01*
X1547857Y-18574804D01*
X1538333Y-18555756D01*
X1528809Y-18517661D01*
X1528809Y-18470042D01*
X1538333Y-18431946D01*
X1547857Y-18412899D01*
X1557381Y-18403375D01*
X1576428Y-18393851D01*
X1766905Y-18393851D02*
X1785952Y-18393851D01*
X1805000Y-18403375D01*
X1814524Y-18412899D01*
X1824048Y-18431946D01*
X1833571Y-18470042D01*
X1833571Y-18517661D01*
X1824048Y-18555756D01*
X1814524Y-18574804D01*
X1805000Y-18584327D01*
X1785952Y-18593851D01*
X1766905Y-18593851D01*
X1747857Y-18584327D01*
X1738333Y-18574804D01*
X1728809Y-18555756D01*
X1719286Y-18517661D01*
X1719286Y-18470042D01*
X1728809Y-18431946D01*
X1738333Y-18412899D01*
X1747857Y-18403375D01*
X1766905Y-18393851D01*
X1957381Y-18393851D02*
X1976428Y-18393851D01*
X1995476Y-18403375D01*
X2005000Y-18412899D01*
X2014524Y-18431946D01*
X2024048Y-18470042D01*
X2024048Y-18517661D01*
X2014524Y-18555756D01*
X2005000Y-18574804D01*
X1995476Y-18584327D01*
X1976428Y-18593851D01*
X1957381Y-18593851D01*
X1938333Y-18584327D01*
X1928809Y-18574804D01*
X1919286Y-18555756D01*
X1909762Y-18517661D01*
X1909762Y-18470042D01*
X1919286Y-18431946D01*
X1928809Y-18412899D01*
X1938333Y-18403375D01*
X1957381Y-18393851D01*
X2109762Y-18593851D02*
X2109762Y-18460518D01*
X2109762Y-18479565D02*
X2119286Y-18470042D01*
X2138333Y-18460518D01*
X2166905Y-18460518D01*
X2185952Y-18470042D01*
X2195476Y-18489089D01*
X2195476Y-18593851D01*
X2195476Y-18489089D02*
X2205000Y-18470042D01*
X2224048Y-18460518D01*
X2252619Y-18460518D01*
X2271667Y-18470042D01*
X2281190Y-18489089D01*
X2281190Y-18593851D01*
X2376429Y-18593851D02*
X2376429Y-18460518D01*
X2376429Y-18479565D02*
X2385952Y-18470042D01*
X2405000Y-18460518D01*
X2433571Y-18460518D01*
X2452619Y-18470042D01*
X2462143Y-18489089D01*
X2462143Y-18593851D01*
X2462143Y-18489089D02*
X2471667Y-18470042D01*
X2490714Y-18460518D01*
X2519286Y-18460518D01*
X2538333Y-18470042D01*
X2547857Y-18489089D01*
X2547857Y-18593851D01*
X2938333Y-18384327D02*
X2766905Y-18641470D01*
X3195476Y-18393851D02*
X3214524Y-18393851D01*
X3233571Y-18403375D01*
X3243095Y-18412899D01*
X3252619Y-18431946D01*
X3262143Y-18470042D01*
X3262143Y-18517661D01*
X3252619Y-18555756D01*
X3243095Y-18574804D01*
X3233571Y-18584327D01*
X3214524Y-18593851D01*
X3195476Y-18593851D01*
X3176428Y-18584327D01*
X3166905Y-18574804D01*
X3157381Y-18555756D01*
X3147857Y-18517661D01*
X3147857Y-18470042D01*
X3157381Y-18431946D01*
X3166905Y-18412899D01*
X3176428Y-18403375D01*
X3195476Y-18393851D01*
X3347857Y-18574804D02*
X3357381Y-18584327D01*
X3347857Y-18593851D01*
X3338333Y-18584327D01*
X3347857Y-18574804D01*
X3347857Y-18593851D01*
X3481190Y-18393851D02*
X3500238Y-18393851D01*
X3519286Y-18403375D01*
X3528809Y-18412899D01*
X3538333Y-18431946D01*
X3547857Y-18470042D01*
X3547857Y-18517661D01*
X3538333Y-18555756D01*
X3528809Y-18574804D01*
X3519286Y-18584327D01*
X3500238Y-18593851D01*
X3481190Y-18593851D01*
X3462143Y-18584327D01*
X3452619Y-18574804D01*
X3443095Y-18555756D01*
X3433571Y-18517661D01*
X3433571Y-18470042D01*
X3443095Y-18431946D01*
X3452619Y-18412899D01*
X3462143Y-18403375D01*
X3481190Y-18393851D01*
X3614524Y-18393851D02*
X3738333Y-18393851D01*
X3671667Y-18470042D01*
X3700238Y-18470042D01*
X3719286Y-18479565D01*
X3728809Y-18489089D01*
X3738333Y-18508137D01*
X3738333Y-18555756D01*
X3728809Y-18574804D01*
X3719286Y-18584327D01*
X3700238Y-18593851D01*
X3643095Y-18593851D01*
X3624048Y-18584327D01*
X3614524Y-18574804D01*
X3833571Y-18593851D02*
X3871667Y-18593851D01*
X3890714Y-18584327D01*
X3900238Y-18574804D01*
X3919286Y-18546232D01*
X3928809Y-18508137D01*
X3928809Y-18431946D01*
X3919286Y-18412899D01*
X3909762Y-18403375D01*
X3890714Y-18393851D01*
X3852619Y-18393851D01*
X3833571Y-18403375D01*
X3824048Y-18412899D01*
X3814524Y-18431946D01*
X3814524Y-18479565D01*
X3824048Y-18498613D01*
X3833571Y-18508137D01*
X3852619Y-18517661D01*
X3890714Y-18517661D01*
X3909762Y-18508137D01*
X3919286Y-18498613D01*
X3928809Y-18479565D01*
X4100238Y-18460518D02*
X4100238Y-18593851D01*
X4052619Y-18384327D02*
X4005000Y-18527185D01*
X4128809Y-18527185D01*
X4195476Y-18393851D02*
X4195476Y-18431946D01*
X4271667Y-18393851D02*
X4271667Y-18431946D01*
X4566905Y-18670042D02*
X4557381Y-18660518D01*
X4538333Y-18631946D01*
X4528810Y-18612899D01*
X4519286Y-18584327D01*
X4509762Y-18536708D01*
X4509762Y-18498613D01*
X4519286Y-18450994D01*
X4528810Y-18422423D01*
X4538333Y-18403375D01*
X4557381Y-18374804D01*
X4566905Y-18365280D01*
X4728810Y-18393851D02*
X4690714Y-18393851D01*
X4671667Y-18403375D01*
X4662143Y-18412899D01*
X4643095Y-18441470D01*
X4633571Y-18479565D01*
X4633571Y-18555756D01*
X4643095Y-18574804D01*
X4652619Y-18584327D01*
X4671667Y-18593851D01*
X4709762Y-18593851D01*
X4728810Y-18584327D01*
X4738333Y-18574804D01*
X4747857Y-18555756D01*
X4747857Y-18508137D01*
X4738333Y-18489089D01*
X4728810Y-18479565D01*
X4709762Y-18470042D01*
X4671667Y-18470042D01*
X4652619Y-18479565D01*
X4643095Y-18489089D01*
X4633571Y-18508137D01*
X4985952Y-18593851D02*
X4985952Y-18393851D01*
X5071667Y-18593851D02*
X5071667Y-18489089D01*
X5062143Y-18470042D01*
X5043095Y-18460518D01*
X5014524Y-18460518D01*
X4995476Y-18470042D01*
X4985952Y-18479565D01*
X5195476Y-18593851D02*
X5176429Y-18584327D01*
X5166905Y-18574804D01*
X5157381Y-18555756D01*
X5157381Y-18498613D01*
X5166905Y-18479565D01*
X5176429Y-18470042D01*
X5195476Y-18460518D01*
X5224048Y-18460518D01*
X5243095Y-18470042D01*
X5252619Y-18479565D01*
X5262143Y-18498613D01*
X5262143Y-18555756D01*
X5252619Y-18574804D01*
X5243095Y-18584327D01*
X5224048Y-18593851D01*
X5195476Y-18593851D01*
X5376429Y-18593851D02*
X5357381Y-18584327D01*
X5347857Y-18565280D01*
X5347857Y-18393851D01*
X5528810Y-18584327D02*
X5509762Y-18593851D01*
X5471667Y-18593851D01*
X5452619Y-18584327D01*
X5443095Y-18565280D01*
X5443095Y-18489089D01*
X5452619Y-18470042D01*
X5471667Y-18460518D01*
X5509762Y-18460518D01*
X5528810Y-18470042D01*
X5538333Y-18489089D01*
X5538333Y-18508137D01*
X5443095Y-18527185D01*
X5614524Y-18584327D02*
X5633571Y-18593851D01*
X5671667Y-18593851D01*
X5690714Y-18584327D01*
X5700238Y-18565280D01*
X5700238Y-18555756D01*
X5690714Y-18536708D01*
X5671667Y-18527185D01*
X5643095Y-18527185D01*
X5624048Y-18517661D01*
X5614524Y-18498613D01*
X5614524Y-18489089D01*
X5624048Y-18470042D01*
X5643095Y-18460518D01*
X5671667Y-18460518D01*
X5690714Y-18470042D01*
X5766905Y-18670042D02*
X5776428Y-18660518D01*
X5795476Y-18631946D01*
X5805000Y-18612899D01*
X5814524Y-18584327D01*
X5824048Y-18536708D01*
X5824048Y-18498613D01*
X5814524Y-18450994D01*
X5805000Y-18422423D01*
X5795476Y-18403375D01*
X5776428Y-18374804D01*
X5766905Y-18365280D01*
D22*
X940000Y-18712375D02*
X940000Y-18822375D01*
X885000Y-18767375D02*
X995000Y-18767375D01*
X978891Y-18806266D02*
X978891Y-18728484D01*
X901109Y-18728484D01*
X901109Y-18806266D01*
X978891Y-18806266D01*
D11*
X1357381Y-18857851D02*
X1243095Y-18857851D01*
X1300238Y-18857851D02*
X1300238Y-18657851D01*
X1281190Y-18686423D01*
X1262143Y-18705470D01*
X1243095Y-18714994D01*
X1443095Y-18838804D02*
X1452619Y-18848327D01*
X1443095Y-18857851D01*
X1433571Y-18848327D01*
X1443095Y-18838804D01*
X1443095Y-18857851D01*
X1643095Y-18857851D02*
X1528809Y-18857851D01*
X1585952Y-18857851D02*
X1585952Y-18657851D01*
X1566905Y-18686423D01*
X1547857Y-18705470D01*
X1528809Y-18714994D01*
X1766905Y-18657851D02*
X1785952Y-18657851D01*
X1805000Y-18667375D01*
X1814524Y-18676899D01*
X1824048Y-18695946D01*
X1833571Y-18734042D01*
X1833571Y-18781661D01*
X1824048Y-18819756D01*
X1814524Y-18838804D01*
X1805000Y-18848327D01*
X1785952Y-18857851D01*
X1766905Y-18857851D01*
X1747857Y-18848327D01*
X1738333Y-18838804D01*
X1728809Y-18819756D01*
X1719286Y-18781661D01*
X1719286Y-18734042D01*
X1728809Y-18695946D01*
X1738333Y-18676899D01*
X1747857Y-18667375D01*
X1766905Y-18657851D01*
X1957381Y-18657851D02*
X1976428Y-18657851D01*
X1995476Y-18667375D01*
X2005000Y-18676899D01*
X2014524Y-18695946D01*
X2024048Y-18734042D01*
X2024048Y-18781661D01*
X2014524Y-18819756D01*
X2005000Y-18838804D01*
X1995476Y-18848327D01*
X1976428Y-18857851D01*
X1957381Y-18857851D01*
X1938333Y-18848327D01*
X1928809Y-18838804D01*
X1919286Y-18819756D01*
X1909762Y-18781661D01*
X1909762Y-18734042D01*
X1919286Y-18695946D01*
X1928809Y-18676899D01*
X1938333Y-18667375D01*
X1957381Y-18657851D01*
X2109762Y-18857851D02*
X2109762Y-18724518D01*
X2109762Y-18743565D02*
X2119286Y-18734042D01*
X2138333Y-18724518D01*
X2166905Y-18724518D01*
X2185952Y-18734042D01*
X2195476Y-18753089D01*
X2195476Y-18857851D01*
X2195476Y-18753089D02*
X2205000Y-18734042D01*
X2224048Y-18724518D01*
X2252619Y-18724518D01*
X2271667Y-18734042D01*
X2281190Y-18753089D01*
X2281190Y-18857851D01*
X2376429Y-18857851D02*
X2376429Y-18724518D01*
X2376429Y-18743565D02*
X2385952Y-18734042D01*
X2405000Y-18724518D01*
X2433571Y-18724518D01*
X2452619Y-18734042D01*
X2462143Y-18753089D01*
X2462143Y-18857851D01*
X2462143Y-18753089D02*
X2471667Y-18734042D01*
X2490714Y-18724518D01*
X2519286Y-18724518D01*
X2538333Y-18734042D01*
X2547857Y-18753089D01*
X2547857Y-18857851D01*
X2938333Y-18648327D02*
X2766905Y-18905470D01*
X3195476Y-18657851D02*
X3214524Y-18657851D01*
X3233571Y-18667375D01*
X3243095Y-18676899D01*
X3252619Y-18695946D01*
X3262143Y-18734042D01*
X3262143Y-18781661D01*
X3252619Y-18819756D01*
X3243095Y-18838804D01*
X3233571Y-18848327D01*
X3214524Y-18857851D01*
X3195476Y-18857851D01*
X3176428Y-18848327D01*
X3166905Y-18838804D01*
X3157381Y-18819756D01*
X3147857Y-18781661D01*
X3147857Y-18734042D01*
X3157381Y-18695946D01*
X3166905Y-18676899D01*
X3176428Y-18667375D01*
X3195476Y-18657851D01*
X3347857Y-18838804D02*
X3357381Y-18848327D01*
X3347857Y-18857851D01*
X3338333Y-18848327D01*
X3347857Y-18838804D01*
X3347857Y-18857851D01*
X3481190Y-18657851D02*
X3500238Y-18657851D01*
X3519286Y-18667375D01*
X3528809Y-18676899D01*
X3538333Y-18695946D01*
X3547857Y-18734042D01*
X3547857Y-18781661D01*
X3538333Y-18819756D01*
X3528809Y-18838804D01*
X3519286Y-18848327D01*
X3500238Y-18857851D01*
X3481190Y-18857851D01*
X3462143Y-18848327D01*
X3452619Y-18838804D01*
X3443095Y-18819756D01*
X3433571Y-18781661D01*
X3433571Y-18734042D01*
X3443095Y-18695946D01*
X3452619Y-18676899D01*
X3462143Y-18667375D01*
X3481190Y-18657851D01*
X3719286Y-18724518D02*
X3719286Y-18857851D01*
X3671667Y-18648327D02*
X3624048Y-18791185D01*
X3747857Y-18791185D01*
X3805000Y-18657851D02*
X3928809Y-18657851D01*
X3862143Y-18734042D01*
X3890714Y-18734042D01*
X3909762Y-18743565D01*
X3919286Y-18753089D01*
X3928809Y-18772137D01*
X3928809Y-18819756D01*
X3919286Y-18838804D01*
X3909762Y-18848327D01*
X3890714Y-18857851D01*
X3833571Y-18857851D01*
X3814524Y-18848327D01*
X3805000Y-18838804D01*
X3995476Y-18657851D02*
X4119286Y-18657851D01*
X4052619Y-18734042D01*
X4081190Y-18734042D01*
X4100238Y-18743565D01*
X4109762Y-18753089D01*
X4119286Y-18772137D01*
X4119286Y-18819756D01*
X4109762Y-18838804D01*
X4100238Y-18848327D01*
X4081190Y-18857851D01*
X4024048Y-18857851D01*
X4005000Y-18848327D01*
X3995476Y-18838804D01*
X4195476Y-18657851D02*
X4195476Y-18695946D01*
X4271667Y-18657851D02*
X4271667Y-18695946D01*
X4566905Y-18934042D02*
X4557381Y-18924518D01*
X4538333Y-18895946D01*
X4528810Y-18876899D01*
X4519286Y-18848327D01*
X4509762Y-18800708D01*
X4509762Y-18762613D01*
X4519286Y-18714994D01*
X4528810Y-18686423D01*
X4538333Y-18667375D01*
X4557381Y-18638804D01*
X4566905Y-18629280D01*
X4671667Y-18743565D02*
X4652619Y-18734042D01*
X4643095Y-18724518D01*
X4633571Y-18705470D01*
X4633571Y-18695946D01*
X4643095Y-18676899D01*
X4652619Y-18667375D01*
X4671667Y-18657851D01*
X4709762Y-18657851D01*
X4728810Y-18667375D01*
X4738333Y-18676899D01*
X4747857Y-18695946D01*
X4747857Y-18705470D01*
X4738333Y-18724518D01*
X4728810Y-18734042D01*
X4709762Y-18743565D01*
X4671667Y-18743565D01*
X4652619Y-18753089D01*
X4643095Y-18762613D01*
X4633571Y-18781661D01*
X4633571Y-18819756D01*
X4643095Y-18838804D01*
X4652619Y-18848327D01*
X4671667Y-18857851D01*
X4709762Y-18857851D01*
X4728810Y-18848327D01*
X4738333Y-18838804D01*
X4747857Y-18819756D01*
X4747857Y-18781661D01*
X4738333Y-18762613D01*
X4728810Y-18753089D01*
X4709762Y-18743565D01*
X4985952Y-18857851D02*
X4985952Y-18657851D01*
X5071667Y-18857851D02*
X5071667Y-18753089D01*
X5062143Y-18734042D01*
X5043095Y-18724518D01*
X5014524Y-18724518D01*
X4995476Y-18734042D01*
X4985952Y-18743565D01*
X5195476Y-18857851D02*
X5176429Y-18848327D01*
X5166905Y-18838804D01*
X5157381Y-18819756D01*
X5157381Y-18762613D01*
X5166905Y-18743565D01*
X5176429Y-18734042D01*
X5195476Y-18724518D01*
X5224048Y-18724518D01*
X5243095Y-18734042D01*
X5252619Y-18743565D01*
X5262143Y-18762613D01*
X5262143Y-18819756D01*
X5252619Y-18838804D01*
X5243095Y-18848327D01*
X5224048Y-18857851D01*
X5195476Y-18857851D01*
X5376429Y-18857851D02*
X5357381Y-18848327D01*
X5347857Y-18829280D01*
X5347857Y-18657851D01*
X5528810Y-18848327D02*
X5509762Y-18857851D01*
X5471667Y-18857851D01*
X5452619Y-18848327D01*
X5443095Y-18829280D01*
X5443095Y-18753089D01*
X5452619Y-18734042D01*
X5471667Y-18724518D01*
X5509762Y-18724518D01*
X5528810Y-18734042D01*
X5538333Y-18753089D01*
X5538333Y-18772137D01*
X5443095Y-18791185D01*
X5614524Y-18848327D02*
X5633571Y-18857851D01*
X5671667Y-18857851D01*
X5690714Y-18848327D01*
X5700238Y-18829280D01*
X5700238Y-18819756D01*
X5690714Y-18800708D01*
X5671667Y-18791185D01*
X5643095Y-18791185D01*
X5624048Y-18781661D01*
X5614524Y-18762613D01*
X5614524Y-18753089D01*
X5624048Y-18734042D01*
X5643095Y-18724518D01*
X5671667Y-18724518D01*
X5690714Y-18734042D01*
X5766905Y-18934042D02*
X5776428Y-18924518D01*
X5795476Y-18895946D01*
X5805000Y-18876899D01*
X5814524Y-18848327D01*
X5824048Y-18800708D01*
X5824048Y-18762613D01*
X5814524Y-18714994D01*
X5805000Y-18686423D01*
X5795476Y-18667375D01*
X5776428Y-18638804D01*
X5766905Y-18629280D01*
M02*
