G04 #@! TF.GenerationSoftware,KiCad,Pcbnew,(6.0.0)*
G04 #@! TF.CreationDate,2022-03-13T10:48:27+07:00*
G04 #@! TF.ProjectId,lumberjack,6c756d62-6572-46a6-9163-6b2e6b696361,1.6*
G04 #@! TF.SameCoordinates,Original*
G04 #@! TF.FileFunction,Paste,Bot*
G04 #@! TF.FilePolarity,Positive*
%FSLAX46Y46*%
G04 Gerber Fmt 4.6, Leading zero omitted, Abs format (unit mm)*
G04 Created by KiCad (PCBNEW (6.0.0)) date 2022-03-13 10:48:27*
%MOMM*%
%LPD*%
G01*
G04 APERTURE LIST*
G04 Aperture macros list*
%AMRoundRect*
0 Rectangle with rounded corners*
0 $1 Rounding radius*
0 $2 $3 $4 $5 $6 $7 $8 $9 X,Y pos of 4 corners*
0 Add a 4 corners polygon primitive as box body*
4,1,4,$2,$3,$4,$5,$6,$7,$8,$9,$2,$3,0*
0 Add four circle primitives for the rounded corners*
1,1,$1+$1,$2,$3*
1,1,$1+$1,$4,$5*
1,1,$1+$1,$6,$7*
1,1,$1+$1,$8,$9*
0 Add four rect primitives between the rounded corners*
20,1,$1+$1,$2,$3,$4,$5,0*
20,1,$1+$1,$4,$5,$6,$7,0*
20,1,$1+$1,$6,$7,$8,$9,0*
20,1,$1+$1,$8,$9,$2,$3,0*%
G04 Aperture macros list end*
%ADD10R,2.550000X2.500000*%
%ADD11RoundRect,0.150000X-0.625000X0.150000X-0.625000X-0.150000X0.625000X-0.150000X0.625000X0.150000X0*%
%ADD12RoundRect,0.249999X-0.650001X0.350001X-0.650001X-0.350001X0.650001X-0.350001X0.650001X0.350001X0*%
G04 APERTURE END LIST*
D10*
X207110168Y-143033868D03*
X194183168Y-145573868D03*
X111860088Y-143033868D03*
X98933088Y-145573868D03*
X11965016Y-80803820D03*
X24892016Y-78263820D03*
X11965016Y-99853836D03*
X24892016Y-97313836D03*
X11965016Y-118903852D03*
X24892016Y-116363852D03*
X11965016Y-137953868D03*
X24892016Y-135413868D03*
X31015032Y-137953868D03*
X43942032Y-135413868D03*
X45185032Y-66833804D03*
X32258032Y-69373804D03*
X31015032Y-80803820D03*
X43942032Y-78263820D03*
X31015032Y-99853836D03*
X43942032Y-97313836D03*
X31015032Y-118903852D03*
X43942032Y-116363852D03*
X50065048Y-118903852D03*
X62992048Y-116363852D03*
X50065048Y-137953868D03*
X62992048Y-135413868D03*
X50065048Y-99853836D03*
X62992048Y-97313836D03*
X69115064Y-99853836D03*
X82042064Y-97313836D03*
X69115064Y-118903852D03*
X82042064Y-116363852D03*
X69115064Y-137953868D03*
X82042064Y-135413868D03*
X69115064Y-61753804D03*
X82042064Y-59213804D03*
X69115064Y-80803820D03*
X82042064Y-78263820D03*
X88165080Y-80803820D03*
X101092080Y-78263820D03*
X88165080Y-99853836D03*
X101092080Y-97313836D03*
X88165080Y-118903852D03*
X101092080Y-116363852D03*
X88165080Y-137953868D03*
X101092080Y-135413868D03*
X88165080Y-61753804D03*
X101092080Y-59213804D03*
X107215096Y-61753804D03*
X120142096Y-59213804D03*
X107215096Y-80803820D03*
X120142096Y-78263820D03*
X107215096Y-99853836D03*
X120142096Y-97313836D03*
X107215096Y-118903852D03*
X120142096Y-116363852D03*
X107215096Y-137953868D03*
X120142096Y-135413868D03*
X278665240Y-61753804D03*
X291592240Y-59213804D03*
X278665240Y-80803820D03*
X291592240Y-78263820D03*
X278665240Y-99853836D03*
X291592240Y-97313836D03*
X278665240Y-118903852D03*
X291592240Y-116363852D03*
X278665240Y-137953868D03*
X291592240Y-135413868D03*
X259615224Y-137953868D03*
X272542224Y-135413868D03*
X259615224Y-61753804D03*
X272542224Y-59213804D03*
X259615224Y-80803820D03*
X272542224Y-78263820D03*
X259615224Y-99853836D03*
X272542224Y-97313836D03*
X259615224Y-118903852D03*
X272542224Y-116363852D03*
X240565208Y-118903852D03*
X253492208Y-116363852D03*
X240565208Y-137953868D03*
X253492208Y-135413868D03*
X240565208Y-61753804D03*
X253492208Y-59213804D03*
X240565208Y-80803820D03*
X253492208Y-78263820D03*
X240565208Y-99853836D03*
X253492208Y-97313836D03*
X221515192Y-99853836D03*
X234442192Y-97313836D03*
X221515192Y-118903852D03*
X234442192Y-116363852D03*
X221515192Y-137953868D03*
X234442192Y-135413868D03*
X221515192Y-61753804D03*
X234442192Y-59213804D03*
X221515192Y-80803820D03*
X234442192Y-78263820D03*
X202465176Y-80803820D03*
X215392176Y-78263820D03*
X202465176Y-99853836D03*
X215392176Y-97313836D03*
X202465176Y-118903852D03*
X215392176Y-116363852D03*
X202465176Y-137953868D03*
X215392176Y-135413868D03*
X202465176Y-61753804D03*
X215392176Y-59213804D03*
X183415160Y-61753804D03*
X196342160Y-59213804D03*
X183415160Y-80803820D03*
X196342160Y-78263820D03*
X183415160Y-99853836D03*
X196342160Y-97313836D03*
X183415160Y-118903852D03*
X196342160Y-116363852D03*
X183415160Y-137953868D03*
X196342160Y-135413868D03*
X50065048Y-61753804D03*
X62992048Y-59213804D03*
X50065048Y-80803820D03*
X62992048Y-78263820D03*
X26134968Y-66833750D03*
X13207968Y-69373750D03*
D11*
X49690000Y-72310000D03*
X49690000Y-73310000D03*
X49690000Y-74310000D03*
X49690000Y-75310000D03*
D12*
X53565000Y-71010000D03*
X53565000Y-76610000D03*
M02*
